<svg width="192" height="192" viewBox="0 0 192 192" fill="none" xmlns="http://www.w3.org/2000/svg">
<rect width="192" height="192" fill="white"/>
<path fill-rule="evenodd" clip-rule="evenodd" d="M175.017 66.8135C177.995 91.1292 165.279 111.64 151.491 127.658C139.203 141.933 122.84 152.401 105.692 147.351C90.239 142.796 85.8535 119.159 74.3223 104.922C55.1803 81.2932 13.4868 70.9224 18.2892 39.4519C23.0043 8.57175 62.9614 24.035 87.5992 17.9186C104.682 13.6749 120.526 0.70563 137.068 9.96C155.857 20.4628 171.95 41.7681 175.017 66.8135Z" fill="#FF6100" fill-opacity="0.15"/>
<g clip-path="url(#clip0)">
<path d="M29.3299 173.35L40.0899 162.02L89.6599 147.01L103.26 133.98L139.52 134.55L128.47 171.66L154.85 189.17L19.1799 189.03C19.1699 189.02 29.3299 173.72 29.3299 173.35Z" fill="white"/>
<path d="M155.68 189.42L18.71 189.27L18.97 188.88C22.93 182.92 28.89 173.84 29.09 173.29V173.19L29.15 173.18L39.96 161.8L40.02 161.78L89.53 146.79L103.16 133.73H103.26L139.85 134.3L139.76 134.62L128.77 171.55L155.68 189.42ZM19.64 188.77L154.02 188.91L128.18 171.76L128.23 171.58L139.18 134.79L103.36 134.23L89.74 147.25L40.23 162.24L29.51 173.52C29.01 174.53 25.69 179.65 19.64 188.77Z" fill="#001038"/>
<path d="M75.0201 158.68L90.9801 118.32L107.25 83.5904L125.39 94.1004L121.95 125.82L129.15 126.45L139.53 95.5704C140.83 91.7004 139.76 87.4304 136.78 84.6304L116 65.1404L94.9201 60.1304C94.9201 60.1304 86.5901 79.5304 65.9501 156.49L75.0201 158.68Z" fill="white"/>
<path d="M75.17 158.97L65.64 156.67L65.71 156.42C86.13 80.3203 94.61 60.2203 94.7 60.0303L94.78 59.8403L94.98 59.8903L116.13 64.9203L136.95 84.4703C139.99 87.3203 141.09 91.7203 139.77 95.6703L129.33 126.73L121.68 126.06L125.13 94.2403L107.35 83.9503L91.2 118.43L75.17 158.97ZM66.25 156.3L74.86 158.38L90.74 118.22L107.13 83.2303L107.37 83.3703L125.66 93.9603L125.64 94.1203L122.23 125.59L128.98 126.18L139.3 95.4903C140.57 91.7203 139.51 87.5303 136.62 84.8103L115.9 65.3503L95.09 60.4003C94.16 62.6403 85.55 84.3803 66.25 156.3Z" fill="#001038"/>
<path d="M116.61 25.3407L116.89 22.4907C116.89 22.4907 123.59 25.5207 124.24 16.0607C124.24 16.0607 125.98 4.12073 114.42 6.60073C114.42 6.60073 108.64 7.24073 108.36 13.2107C108.36 13.2107 108.27 17.4307 108.64 19.7307L108.28 22.3207L116.61 25.3407Z" fill="white"/>
<path d="M116.83 25.6907L107.99 22.5007L108.37 19.7507C108.01 17.4507 108.09 13.4007 108.1 13.2207C108.38 7.10067 114.32 6.37067 114.38 6.37067C117.81 5.63067 120.46 6.09067 122.21 7.73067C125.25 10.5707 124.51 15.8807 124.48 16.1107C124.26 19.3807 123.28 21.5707 121.58 22.5907C119.83 23.6307 117.86 23.1207 117.1 22.8607L116.83 25.6907ZM108.54 22.1707L116.39 25.0007L116.67 22.1307L116.99 22.2707C117.01 22.2807 119.38 23.3207 121.33 22.1507C122.88 21.2207 123.77 19.1707 123.99 16.0507C124 15.9807 124.72 10.7507 121.87 8.09067C120.24 6.57067 117.75 6.15067 114.46 6.86067C114.21 6.89067 108.86 7.56067 108.6 13.2407C108.6 13.2807 108.51 17.4607 108.87 19.7107L108.88 19.7507L108.54 22.1707Z" fill="#001038"/>
<path d="M116.91 22.4004C116.91 22.4004 114.78 21.9204 113.72 20.1904C113.72 20.1904 114.01 22.8904 116.61 24.8604L116.91 22.4004Z" fill="#001038"/>
<path d="M124.27 12.8706L125.1 12.8106V13.1506L173.86 6.37061L173.99 18.0706L125.06 14.2206L125.08 14.5606L124.23 14.5706L124.11 12.8706H124.27Z" fill="#FF6100"/>
<path d="M149.55 22.2602C149.63 22.3102 150.05 21.4102 150.07 21.3602C150.3 20.8002 150.45 20.2202 150.56 19.6302C150.66 19.0902 150.66 18.4702 150.84 17.9502C150.93 17.7102 151.1 17.4802 151.27 17.2902C152 16.4802 153.11 16.0402 154.13 15.7302C154.63 15.5802 155.13 15.4602 155.64 15.3602C156.48 15.2002 157.3 14.9702 158.09 14.6502C158.53 14.4702 159.73 13.7602 160.12 14.3702C160.31 14.6702 159.96 15.1802 159.81 15.4302C159.3 16.2702 158.45 17.0502 157.4 16.9802L162.69 17.3202C162.66 17.3202 162.45 17.5702 162.42 17.6002C162.14 17.8602 161.81 18.0702 161.48 18.2502C160.06 19.0302 158.41 19.3302 156.81 19.4402C156.45 19.4702 155.77 19.3502 155.56 19.6302C155.47 19.7502 155.45 20.0102 155.4 20.1502C155.22 20.7402 155.05 21.3202 154.87 21.9102C154.55 22.9602 154.24 24.0002 153.92 25.0502C153.91 25.0702 153.91 25.1002 153.9 25.1202C153.91 25.1302 149.55 22.2602 149.55 22.2602Z" fill="white"/>
<path d="M154.07 25.4502L153.77 25.3402C150.46 23.1502 149.65 22.6202 149.45 22.4902L149.42 22.4702C149.39 22.4502 149.38 22.4402 149.38 22.4402L147.67 20.7302L149.51 21.9302C149.63 21.7302 149.8 21.3802 149.85 21.2602C150.04 20.7902 150.19 20.2602 150.32 19.5802C150.36 19.3902 150.38 19.1802 150.4 18.9702C150.44 18.6002 150.48 18.2102 150.61 17.8602C150.69 17.6202 150.85 17.3902 151.09 17.1202C151.89 16.2302 153.1 15.7802 154.07 15.4902C154.53 15.3502 155.03 15.2302 155.6 15.1102C156.49 14.9302 157.28 14.7002 158 14.4102C158.07 14.3802 158.15 14.3402 158.25 14.3002C158.86 14.0102 159.89 13.5302 160.33 14.2402C160.59 14.6502 160.26 15.1802 160.06 15.5002L160.02 15.5702C159.83 15.8902 159.43 16.4502 158.84 16.8302C159.17 16.8502 159.56 16.8802 160.05 16.9102C161.36 16.9902 162.67 17.0802 162.7 17.0802L162.69 17.3402L162.82 17.5402C162.78 17.5702 162.72 17.6502 162.67 17.7002C162.63 17.7502 162.6 17.7802 162.58 17.7902C162.32 18.0302 162 18.2502 161.59 18.4702C160.35 19.1502 158.79 19.5502 156.82 19.6902C156.72 19.7002 156.6 19.7002 156.46 19.6902C156.25 19.6802 155.82 19.6802 155.75 19.7702C155.72 19.8102 155.69 19.9602 155.67 20.0302C155.66 20.1002 155.64 20.1602 155.63 20.2102L154.07 25.4502ZM149.92 22.2002C150.66 22.6902 152.96 24.2002 153.76 24.7302L155.16 20.0802C155.17 20.0402 155.18 20.0002 155.19 19.9502C155.22 19.7902 155.26 19.6102 155.36 19.4902C155.59 19.1902 156.07 19.2002 156.48 19.2102C156.6 19.2102 156.7 19.2102 156.79 19.2102C158.69 19.0702 160.18 18.6902 161.36 18.0502C161.66 17.8802 161.91 17.7202 162.11 17.5502C161.73 17.5302 161.09 17.4802 160.02 17.4202C158.75 17.3402 157.48 17.2502 157.38 17.2502C157.38 17.2502 157.38 17.2502 157.37 17.2502L157.39 16.7502C157.39 16.7502 157.39 16.7502 157.41 16.7502C158.53 16.8202 159.31 15.7702 159.59 15.3202L159.63 15.2502C159.73 15.0902 159.99 14.6702 159.9 14.5202C159.69 14.1902 158.85 14.5802 158.45 14.7702C158.34 14.8202 158.25 14.8602 158.18 14.8902C157.43 15.2002 156.61 15.4302 155.69 15.6202C155.14 15.7302 154.65 15.8502 154.2 15.9902C153.3 16.2602 152.17 16.6802 151.45 17.4802C151.25 17.7002 151.13 17.8802 151.07 18.0502C150.97 18.3502 150.93 18.7002 150.89 19.0502C150.87 19.2702 150.84 19.4902 150.8 19.6902C150.67 20.4002 150.51 20.9702 150.3 21.4702C150.23 21.6402 150.08 21.9602 149.92 22.2002Z" fill="#001038"/>
<path d="M116.16 65.4604L94.15 61.9904L94.8 60.1304L116 65.1404L116.16 65.4604Z" fill="#001038"/>
<path d="M107.46 83.7005L107.02 83.4805L110.34 76.7505L110.79 76.9705L107.46 83.7005Z" fill="#001038"/>
<path d="M123.02 125.94L122.46 128.25L127.97 128.76L128.34 126.4L123.02 125.94Z" fill="white"/>
<path d="M128.18 129.03L122.14 128.46L122.82 125.67L128.62 126.16L128.18 129.03ZM122.77 128.02L127.76 128.49L128.05 126.62L123.21 126.21L122.77 128.02Z" fill="#001038"/>
<path d="M122.46 128.25L120.18 134.11L138.8 135.4C138.83 134.86 138.55 134.36 138.07 134.11L127.98 128.77L122.46 128.25Z" fill="white"/>
<path d="M139.02 135.66L119.81 134.33L122.29 127.98L128.08 128.54L138.17 133.88C138.73 134.18 139.07 134.77 139.03 135.41L139.02 135.66ZM120.53 133.88L138.53 135.13C138.47 134.79 138.26 134.49 137.95 134.33L127.9 129.01L122.62 128.51L120.53 133.88Z" fill="#001038"/>
<path d="M68.12 157.011L67.37 160.061L72.89 160.581L73.26 158.261L68.12 157.011Z" fill="white"/>
<path d="M73.0999 160.851L67.0699 160.281L67.9399 156.701L73.5499 158.071L73.0999 160.851ZM67.6899 159.841L72.6799 160.311L72.9799 158.451L68.2999 157.311L67.6899 159.841Z" fill="#001038"/>
<path d="M67.37 160.06L65.09 165.92L83.71 167.21C83.74 166.67 83.46 166.17 82.98 165.92L72.89 160.58L67.37 160.06Z" fill="white"/>
<path d="M83.94 167.48L64.73 166.15L67.21 159.8L73 160.36L83.09 165.7C83.65 166 83.99 166.6 83.95 167.23L83.94 167.48ZM65.45 165.69L83.45 166.94C83.39 166.6 83.18 166.3 82.87 166.14L72.82 160.82L67.54 160.32L65.45 165.69Z" fill="#001038"/>
<path d="M131.88 32.1106C131.88 32.1106 132.47 21.5106 130.84 18.5506L136.18 16.6206C136.18 16.6206 140.48 24.4006 141.07 31.0006L139.37 37.6706L133.44 37.6006L131.88 32.1106Z" fill="white"/>
<path d="M139.56 37.9205L133.25 37.8405L131.63 32.1405V32.1005C131.64 31.9905 132.2 21.5405 130.62 18.6705L130.48 18.4105L136.29 16.3105L136.39 16.5005C136.43 16.5805 140.72 24.4005 141.31 30.9705V31.0105L141.3 31.0505L139.56 37.9205ZM133.63 37.3505L139.18 37.4205L140.82 30.9805C140.28 25.0905 136.71 18.1505 136.06 16.9305L131.19 18.6905C132.64 21.9005 132.17 31.2705 132.13 32.0805L133.63 37.3505Z" fill="#001038"/>
<path d="M137.4 36.0807L148.29 21.4307L155.61 26.1207C155.61 26.1207 148.85 50.1607 127.63 43.5807L122.18 41.7007L116 65.1407L94.8001 60.1307C94.8001 60.1307 93.7901 21.5407 108.26 22.3307C108.26 22.3307 126.45 27.9107 137.4 36.0807Z" fill="white"/>
<path d="M116.18 65.4406L115.94 65.3806L94.56 60.3306V60.1406C94.56 60.0706 94.39 53.1906 95.25 45.4106C96.41 34.9206 98.79 27.8606 102.33 24.4306C104.05 22.7606 106.08 21.9906 108.28 22.0906C108.52 22.1606 126.47 27.7206 137.35 35.7306L148.23 21.1006L155.91 26.0206L155.86 26.2006C155.83 26.3206 152.49 37.8706 143.47 42.7806C138.82 45.3106 133.47 45.6706 127.56 43.8406L122.36 42.0506L116.18 65.4406ZM95.05 59.9306L115.82 64.8406L122.02 41.3906L127.72 43.3606C133.48 45.1506 138.7 44.8006 143.23 42.3406C151.46 37.8706 154.87 27.7106 155.33 26.2406L148.36 21.7706L137.46 36.4306L137.26 36.2806C126.47 28.2406 108.38 22.6306 108.2 22.5706C106.18 22.4706 104.3 23.2006 102.68 24.7806C94.8 32.4206 95.01 57.4706 95.05 59.9306Z" fill="#001038"/>
<path d="M130.84 18.5506C130.84 18.5506 127.52 16.8706 127.32 15.1506C127.32 15.1506 129.29 13.1306 130.25 13.2306C130.25 13.2306 131.61 13.4306 131.01 14.6406L135.05 14.9906L135.86 16.6106L130.84 18.5506Z" fill="white"/>
<path d="M130.83 18.8206L130.73 18.7706C130.59 18.7006 127.29 17.0106 127.07 15.1806L127.06 15.0606L127.14 14.9706C127.35 14.7506 129.21 12.8606 130.28 12.9806C130.32 12.9906 131.03 13.1006 131.31 13.6306C131.43 13.8606 131.45 14.1306 131.37 14.4206L135.22 14.7606L136.21 16.7506L130.83 18.8206ZM127.59 15.2406C127.85 16.4606 129.94 17.7906 130.86 18.2806L135.51 16.4906L134.89 15.2406L130.62 14.8706L130.78 14.5406C130.92 14.2606 130.95 14.0406 130.86 13.8706C130.73 13.6206 130.35 13.5106 130.21 13.4806C129.63 13.4306 128.34 14.4906 127.59 15.2406Z" fill="#001038"/>
<path d="M129.09 13.1706C128.66 13.1706 128.31 12.8206 128.31 12.3906V10.9206C128.31 10.4906 128.66 10.1406 129.09 10.1406C129.52 10.1406 129.87 10.4906 129.87 10.9206V12.3906C129.87 12.8206 129.52 13.1706 129.09 13.1706Z" fill="white"/>
<path d="M129.09 13.4206C128.52 13.4206 128.06 12.9606 128.06 12.3906V10.9206C128.06 10.3506 128.52 9.89062 129.09 9.89062C129.66 9.89062 130.12 10.3506 130.12 10.9206V12.3906C130.12 12.9606 129.66 13.4206 129.09 13.4206ZM129.09 10.4006C128.8 10.4006 128.56 10.6406 128.56 10.9306V12.4006C128.56 12.6906 128.8 12.9306 129.09 12.9306C129.38 12.9306 129.62 12.6906 129.62 12.4006V10.9206C129.62 10.6306 129.38 10.4006 129.09 10.4006Z" fill="#001038"/>
<path d="M130.67 13.0905C130.24 13.0905 129.89 12.7405 129.89 12.3105V10.8405C129.89 10.4105 130.24 10.0605 130.67 10.0605C131.1 10.0605 131.45 10.4105 131.45 10.8405V12.3105C131.45 12.7405 131.1 13.0905 130.67 13.0905Z" fill="white"/>
<path d="M130.67 13.3405C130.1 13.3405 129.64 12.8805 129.64 12.3105V10.8405C129.64 10.2705 130.1 9.81055 130.67 9.81055C131.24 9.81055 131.7 10.2705 131.7 10.8405V12.3105C131.7 12.8805 131.24 13.3405 130.67 13.3405ZM130.67 10.3205C130.38 10.3205 130.14 10.5605 130.14 10.8505V12.3205C130.14 12.6105 130.38 12.8505 130.67 12.8505C130.96 12.8505 131.2 12.6105 131.2 12.3205V10.8405C131.2 10.5505 130.96 10.3205 130.67 10.3205Z" fill="#001038"/>
<path d="M132.22 13.0905C131.79 13.0905 131.44 12.7405 131.44 12.3105V10.8405C131.44 10.4105 131.79 10.0605 132.22 10.0605C132.65 10.0605 133 10.4105 133 10.8405V12.3105C133 12.7405 132.65 13.0905 132.22 13.0905Z" fill="white"/>
<path d="M132.22 13.3405C131.65 13.3405 131.19 12.8805 131.19 12.3105V10.8405C131.19 10.2705 131.65 9.81055 132.22 9.81055C132.79 9.81055 133.25 10.2705 133.25 10.8405V12.3105C133.25 12.8805 132.79 13.3405 132.22 13.3405ZM132.22 10.3205C131.93 10.3205 131.69 10.5605 131.69 10.8505V12.3205C131.69 12.6105 131.93 12.8505 132.22 12.8505C132.51 12.8505 132.75 12.6105 132.75 12.3205V10.8405C132.75 10.5505 132.51 10.3205 132.22 10.3205Z" fill="#001038"/>
<path d="M113.55 13.0803C113.07 12.7803 111.38 11.8503 111.51 14.1203C111.54 14.6203 111.79 15.0803 112.19 15.3903L108.7 19.5403C108.7 19.5403 99.98 4.01029 115.46 3.02029C116.61 2.95029 117.77 3.10029 118.88 3.43029C121.74 4.30029 128.06 5.90029 129.51 3.47029C129.51 3.47029 129.69 11.1703 118.09 12.5903C117.54 12.6603 117.06 13.0003 116.81 13.5003L115.49 16.1103L114.54 15.9303L113.72 13.2903C113.68 13.2103 113.62 13.1303 113.55 13.0803Z" fill="#001038"/>
<path d="M124.48 5.25037C124.48 5.25037 126.66 4.80037 127.57 3.63037C127.57 3.63037 127.21 6.13037 125.94 6.32037C124.68 6.51037 124.48 5.25037 124.48 5.25037Z" fill="#001038"/>
<path d="M122.24 41.4602C122.24 41.4602 113.92 38.7003 110.65 34.5903C110.57 34.4903 110.42 34.5902 110.47 34.7102C111.68 37.0402 114.93 41.9302 121.61 43.7602L122.24 41.4602Z" fill="#001038"/>
<path d="M165.2 189.451H9.25C9.11 189.451 9 189.341 9 189.201C9 189.061 9.11 188.951 9.25 188.951H165.2C165.34 188.951 165.45 189.061 165.45 189.201C165.45 189.341 165.33 189.451 165.2 189.451Z" fill="#001038"/>
</g>
<defs>
<clipPath id="clip0">
<rect width="164.99" height="186.45" fill="white" transform="translate(9 3.00049)"/>
</clipPath>
</defs>
</svg>
