<svg width="28" height="20" viewBox="0 0 28 20" fill="none" xmlns="http://www.w3.org/2000/svg">
<g clip-path="url(#clip0_10625_5985)">
<rect width="28" height="20" fill="white"/>
<rect width="28" height="20" fill="#012169"/>
<path d="M0 -0.333333H-0.901086L-0.21693 0.253086L4.33333 4.15331V5.16179L-0.193746 8.39542L-0.333333 8.49513V8.66667V9.33333V9.93475L0.176666 9.616L5.42893 6.33333H6.55984L11.0821 9.56351C11.176 9.6306 11.2886 9.66667 11.404 9.66667C11.9182 9.66667 12.1548 9.02698 11.7644 8.69237L7.66667 5.18002V4.17154L12.0542 1.03762C12.2294 0.912475 12.3333 0.710428 12.3333 0.495127V0V-0.601416L11.8233 -0.282666L6.57107 3H5.44016L0.860413 -0.271244L0.773488 -0.333333H0.666667H0Z" fill="#FF2E3B" stroke="white" stroke-width="0.666667"/>
<path fill-rule="evenodd" clip-rule="evenodd" d="M0 3.33333V6H4.66667V9.33333C4.66667 9.70152 4.96514 10 5.33333 10H6.66667C7.03486 10 7.33333 9.70152 7.33333 9.33333V6H12C12.3682 6 12.6667 5.70152 12.6667 5.33333V4C12.6667 3.63181 12.3682 3.33333 12 3.33333H7.33333V0H4.66667V3.33333H0Z" fill="white"/>
<path fill-rule="evenodd" clip-rule="evenodd" d="M0 4H5.33333V3.33333V0H6.66667V3.33333V4H12V5.33333H6.66667V6V9.33333H5.33333V6V5.33333H0V4Z" fill="#FF2E3B"/>
<path d="M20.5648 14.9778C20.5648 14.9778 20.4792 15.2038 20.4304 15.2038C20.3815 15.2038 20.2044 15.1061 20.2044 15.1061C20.2044 15.1061 20.0761 15.314 20.0088 15.326C19.9416 15.3382 19.7645 15.2955 19.7645 15.2955C19.7645 15.2955 19.5935 15.2955 19.5873 15.271C19.5812 15.2467 19.5935 15.1979 19.5935 15.1979C19.5935 15.1979 19.3491 15.3932 19.2942 15.3809C19.2392 15.3689 19.0559 15.1368 19.0559 15.1368L19.0254 15.259L18.6772 15.2467L18.3718 15.0512C18.3718 15.0512 18.2007 15.3321 18.1946 15.326C18.1885 15.3198 17.8953 15.3932 17.8953 15.3932L17.877 15.3382L17.6815 15.2222C17.6815 15.2222 17.8342 15.0085 17.8342 15.0024C17.8342 14.9962 17.7609 14.9717 17.7609 14.9717L17.651 15.0634L17.4249 15.2099L17.1989 15.1061L17.2967 14.9229L17.3089 14.7884L17.486 14.5197L19.6546 12.4122L20.7235 14.3853L20.5648 14.9778Z" fill="#6A4C2D" stroke="black" stroke-width="0.0255618"/>
<path d="M22.1054 15.1056L22.6698 15.0852L22.4295 14.9666L24.5803 14.8855L24.2764 14.7697L24.0072 14.405L22.8927 14.3211C22.8927 14.3211 22.8089 14.2575 22.6726 14.2892C22.667 14.2025 22.5627 14.0895 22.5627 14.0895L21.8766 14.0374L21.4482 14.3298L21.7376 15.0708L22.1054 15.1056Z" fill="white" stroke="black" stroke-width="0.0255618"/>
<path d="M19.9091 8.78468L19.9659 8.59143C19.9659 8.59143 20.0653 8.42375 20.0653 8.34962C20.0653 8.27574 20.1395 8.18781 20.1395 8.18781C20.1395 8.18781 20.3667 8.12237 20.415 8.26168C20.6596 7.89206 20.9467 8.24456 20.9467 8.24456L21.0262 8.15074L21.1883 7.95187C21.1883 7.95187 21.4186 8.16787 21.4214 8.20468C21.4242 8.24175 21.461 8.21618 21.461 8.21618L21.7113 8.19624C21.7113 8.19624 21.8299 8.28929 21.8051 8.46618C21.8933 8.51832 21.9728 8.8243 21.9728 8.8243L19.9091 8.78468Z" fill="url(#paint0_linear_10625_5985)" stroke="black" stroke-width="0.0255618"/>
<path d="M22.1057 11.0842C22.1489 11.0579 22.2849 11.0147 22.2683 10.8158C22.2516 10.6169 22.0794 10.5937 21.9832 10.6003C21.8869 10.607 21.8007 10.6898 21.8007 10.6898L21.4825 10.4876C21.4825 10.4876 21.6417 9.48303 21.8107 9.42014C21.9712 9.30435 21.9996 9.25425 21.9996 9.22792C21.9996 9.20133 21.94 9.13487 21.94 9.13487L20.9022 9.01218L19.9209 9.12823C19.9209 9.12823 19.8447 9.24428 19.8547 9.2908C19.8647 9.33707 19.868 9.38691 20.0436 9.5229C20.2381 9.67244 20.3718 10.5308 20.3718 10.5308C20.3718 10.5308 20.0968 10.6665 20.0802 10.6499C20.0635 10.6336 19.9807 10.6169 19.9375 10.6236C19.8946 10.6302 19.7519 10.7031 19.7519 10.892C19.7519 11.0812 19.8946 11.1906 19.8946 11.1906C19.8946 11.1906 20.8327 11.0812 20.972 11.3396C21.108 11.028 21.9996 11.1374 22.1057 11.0842Z" fill="#656263" stroke="black" stroke-width="0.0255618"/>
<path d="M23.1164 10.04C23.1164 10.04 23.1269 9.93087 23.2046 9.87898C23.2826 9.82709 23.8017 9.80102 23.9265 9.87898C24.0509 9.95694 24.0977 10.3411 24.0977 10.3411C24.0977 10.3411 24.1757 10.4761 24.1808 10.5748C24.1859 10.6734 24.1964 10.7409 24.1964 10.7409C24.1964 10.7409 24.6118 11.281 24.6169 11.769C24.6637 12.1013 24.6532 12.9891 24.5236 13.3265C24.5182 13.7473 24.3418 14.0223 24.3418 14.0223C24.3418 14.0223 24.3832 14.0949 24.3781 14.1729C24.3728 14.2508 24.3314 14.3234 24.3314 14.3234L24.9387 14.6245L24.7155 14.5415C24.7155 14.5415 24.9441 14.7337 24.9387 14.7286C24.9336 14.7232 24.6844 14.6089 24.6844 14.6089L24.8349 14.7595C24.8298 14.7544 24.4663 14.5934 24.4663 14.5934C24.4663 14.5934 24.6376 14.7544 24.6274 14.7493C24.6169 14.7442 24.3521 14.6194 24.3521 14.6194C24.3521 14.6194 24.5182 14.7961 24.5131 14.7856C24.508 14.7751 24.2744 14.6818 24.2744 14.6818L24.2846 14.77C24.2846 14.77 24.0977 14.7595 24.0977 14.6194C24.0042 14.5675 23.942 14.4947 23.942 14.4947L23.5111 14.4221L23.0228 12.963L23.1371 10.4968L23.1683 10.3723L23.1164 10.04Z" fill="black" stroke="black" stroke-opacity="0.97854" stroke-width="0.0319523" stroke-linejoin="round"/>
<path d="M22.7902 17.9215C22.7902 17.9215 22.5402 17.3957 22.4157 17.3883C22.3033 17.1738 22.8066 15.4211 23.7802 15.3211C24.3155 15.3651 23.8242 15.9382 23.4722 15.7618C23.5162 15.9159 23.692 16.1365 23.692 16.1365C23.692 16.1365 22.9955 16.4376 22.7902 17.9215Z" fill="#FFBB00" stroke="black" stroke-width="0.0253888"/>
<path d="M19.4385 17.9982C19.4385 17.9982 19.6456 17.3995 19.7711 17.3921C19.8969 17.3847 19.4385 15.397 18.4411 15.3822C17.9016 15.4267 18.3967 16.0028 18.7514 15.8254C18.7071 15.9809 18.5297 16.2025 18.5297 16.2025C18.5297 16.2025 19.2318 16.5054 19.4385 17.9982Z" fill="#FFBB00" stroke="black" stroke-width="0.0255618"/>
<path d="M20.3537 14.2593C20.3511 14.2544 20.106 14.3362 20.2647 14.6031C20.2767 14.4998 20.3872 14.4372 20.3872 14.4372C20.3872 14.4372 20.219 14.6368 20.3969 14.805C20.4186 14.6463 20.5196 14.5959 20.5196 14.5959C20.5196 14.5959 20.3946 14.9638 20.5219 15.0381C20.5364 14.8914 20.63 14.8267 20.63 14.8267C20.63 14.8267 20.517 15.156 20.618 15.2304C20.63 15.1056 20.7141 15.0501 20.7141 15.0501C20.7141 15.0501 20.6637 15.3917 20.7959 15.4157C20.7984 15.2953 20.8946 15.1777 20.8946 15.1777C20.8946 15.1777 20.8511 15.4563 21.0579 15.4686C21.0605 15.3628 21.0988 15.2426 21.0988 15.2426C21.0988 15.2426 21.1926 15.5381 21.3296 15.4901C21.3273 15.4037 21.3319 15.2401 21.3296 15.2401C21.3271 15.2401 21.416 15.5213 21.5796 15.4686C21.5556 15.3891 21.5891 15.2953 21.5891 15.2953C21.5891 15.2953 21.6757 15.4709 21.8319 15.4131C21.8585 15.3602 21.8248 15.2569 21.8248 15.2569C21.8248 15.2569 22.053 15.4926 22.1228 15.3508C22.1926 15.2089 21.94 15.1608 21.94 15.1608H22.1108C22.1108 15.1608 22.0556 15.0167 21.8248 14.9852C21.904 14.9492 21.9858 14.9758 21.9858 14.9758C21.9858 14.9758 21.9377 14.7953 21.7021 14.7761C21.7936 14.7449 21.8945 14.7667 21.8945 14.7667C21.8945 14.7667 21.8631 14.5959 21.6036 14.5479C21.6445 14.5021 21.755 14.5167 21.755 14.5167C21.755 14.5167 21.6517 14.3556 21.5339 14.3651C21.416 14.3748 20.3511 14.257 20.3537 14.2593Z" fill="#00713D" stroke="black" stroke-width="0.0255618"/>
<path d="M21.404 15.1271C21.404 15.1271 21.4978 15.1729 21.4955 15.2138" stroke="#3EC26D" stroke-width="0.0319523" stroke-linecap="round"/>
<path d="M21.4595 15.0527C21.4595 15.0527 21.5796 15.1368 21.5773 15.1992" stroke="#3EC26D" stroke-width="0.0319523" stroke-linecap="round"/>
<path d="M21.565 15.0092C21.565 15.0092 21.6614 15.0693 21.666 15.1631" stroke="#3EC26D" stroke-width="0.0319523" stroke-linecap="round"/>
<path d="M21.7261 15.0479C21.7261 15.0479 21.7744 15.1511 21.7575 15.1703" stroke="#3EC26D" stroke-width="0.0319523" stroke-linecap="round"/>
<path d="M21.8225 15.1031C21.8296 15.1849 21.815 15.192 21.815 15.192" stroke="#3EC26D" stroke-width="0.0319523" stroke-linecap="round"/>
<path d="M20.6372 14.5862C20.6372 14.5862 20.7501 14.6583 20.7407 14.7593" stroke="#3EC26D" stroke-width="0.0319523" stroke-linecap="round"/>
<path d="M20.63 14.6729C20.63 14.6729 20.6829 14.7232 20.6709 14.757" stroke="#3EC26D" stroke-width="0.0319523" stroke-linecap="round"/>
<path d="M20.7696 14.5887C20.7696 14.5887 20.8439 14.692 20.8199 14.7641" stroke="#3EC26D" stroke-width="0.0319523" stroke-linecap="round"/>
<path d="M20.8969 14.6559C20.8969 14.6559 20.9306 14.7209 20.8994 14.7569" stroke="#3EC26D" stroke-width="0.0319523" stroke-linecap="round"/>
<path d="M20.9569 14.6872C20.9569 14.6872 20.9978 14.7521 20.9618 14.7738" stroke="#3EC26D" stroke-width="0.0319523" stroke-linecap="round"/>
<path d="M20.9114 14.9011C20.9114 14.9011 21.017 14.9252 21.0316 15.0044" stroke="#3EC26D" stroke-width="0.0319523" stroke-linecap="round"/>
<path d="M20.9738 14.829C20.9738 14.829 21.0845 14.8362 21.0965 14.954" stroke="#3EC26D" stroke-width="0.0319523" stroke-linecap="round"/>
<path d="M21.1205 14.7881C21.1228 14.7881 21.1949 14.9157 21.1829 14.9563" stroke="#3EC26D" stroke-width="0.0319523" stroke-linecap="round"/>
<path d="M21.2624 14.8002C21.2624 14.8002 21.291 14.9229 21.2695 14.9612" stroke="#3EC26D" stroke-width="0.0319523" stroke-linecap="round"/>
<path d="M21.3537 14.8482C21.3537 14.8508 21.356 14.9901 21.356 14.9901" stroke="#3EC26D" stroke-width="0.0319523" stroke-linecap="round"/>
<path d="M21.2143 14.6559C21.2143 14.6559 21.2839 14.6823 21.279 14.7498" stroke="#3EC26D" stroke-width="0.0319523" stroke-linecap="round"/>
<path d="M21.279 14.5934C21.279 14.5934 21.368 14.644 21.3585 14.7401" stroke="#3EC26D" stroke-width="0.0319523" stroke-linecap="round"/>
<path d="M21.3825 14.5527C21.3825 14.5527 21.4595 14.644 21.4306 14.7449" stroke="#3EC26D" stroke-width="0.0319523" stroke-linecap="round"/>
<path d="M21.517 14.5742C21.517 14.5742 21.4884 14.6872 21.5001 14.7329" stroke="#3EC26D" stroke-width="0.0319523" stroke-linecap="round"/>
<path d="M21.5988 14.6511C21.5988 14.6511 21.5484 14.6897 21.5748 14.7378" stroke="#3EC26D" stroke-width="0.0319523" stroke-linecap="round"/>
<path d="M21.1614 15.091C21.1614 15.091 21.178 15.1777 21.1614 15.192" stroke="#3EC26D" stroke-width="0.0319523" stroke-linecap="round"/>
<path d="M21.0507 15.0407C21.0507 15.0407 21.106 15.1368 21.0868 15.1848" stroke="#3EC26D" stroke-width="0.0319523" stroke-linecap="round"/>
<path d="M20.9329 15.0358C20.9329 15.0358 20.9955 15.1079 20.993 15.1657" stroke="#3EC26D" stroke-width="0.0319523" stroke-linecap="round"/>
<path d="M20.8368 15.0501C20.8368 15.0501 20.8946 15.1056 20.8897 15.1368" stroke="#3EC26D" stroke-width="0.0319523" stroke-linecap="round"/>
<path d="M20.7864 15.1342C20.7864 15.1342 20.8416 15.192 20.8391 15.204" stroke="#3EC26D" stroke-width="0.0319523" stroke-linecap="round"/>
<path d="M19.5907 11.188C19.8557 11.1832 20.1208 11.1786 20.3859 11.1737C20.3859 11.1737 20.9112 11.1737 20.9679 11.3442C21.0674 11.117 21.5216 11.1313 21.5216 11.1313C21.7961 11.1218 22.0707 11.1124 22.3449 11.1029C22.3498 11.7655 22.3544 12.428 22.3593 13.0906C22.1985 13.8618 21.6399 14.4063 21.0247 14.6381C20.291 14.4014 19.8274 13.7815 19.676 13.0763C19.6474 12.4469 19.619 11.8174 19.5907 11.188Z" fill="white" stroke="black" stroke-width="0.0255618"/>
<path d="M19.8739 11.1806L21.0321 14.2669L22.0783 11.1134C21.7537 11.1343 21.0574 11.0622 20.971 11.3583C20.837 11.0934 20.1044 11.2003 19.8739 11.1806Z" fill="#006B00" stroke="black" stroke-width="0.0255618"/>
<path d="M20.6622 12.8516C20.7069 12.8748 20.7057 12.0139 20.7642 11.9873C20.7808 11.916 20.7892 11.8848 20.8102 11.8092C20.7598 11.72 20.5344 11.7243 20.4508 11.8002C20.4884 11.9204 20.505 11.9605 20.505 11.9605C20.618 12.1433 20.5955 12.871 20.6622 12.8516Z" fill="#FFC900" stroke="#006B00" stroke-width="0.0176167" stroke-linecap="round"/>
<path d="M20.3519 6.19753C20.3519 6.19753 20.4339 6.10454 20.4375 6.08225C20.4413 6.05993 20.8094 6.04506 21.0288 5.63599C21.1515 5.4203 21.0288 5.54673 21.0288 5.54673L21.0213 5.44259C21.0213 5.44259 21.1739 5.29758 21.1182 5.21946C21.0622 5.14138 21.0809 5.31989 20.9917 5.31616C20.9025 5.31243 20.9508 5.12278 20.9508 5.12278C20.9508 5.12278 20.9434 5.10047 20.9173 5.08931C20.88 5.09303 20.8912 5.15997 20.8577 5.16741C20.8243 5.17485 20.7946 5.01122 20.7946 5.01122C20.7946 5.01122 20.7389 4.93684 20.6903 5.17113C20.7164 5.4203 20.8764 5.37194 20.8764 5.53559C20.8764 5.69921 20.7351 5.82564 20.6942 5.82937C20.6533 5.83308 20.6681 5.69177 20.6681 5.69177C20.6681 5.69177 20.6458 5.62482 20.631 5.62482C20.6162 5.62482 20.7128 5.60995 20.698 5.42401C20.6645 5.20088 20.6384 5.47608 20.5789 5.46491C20.5193 5.45376 20.564 5.26039 20.5863 5.23807C20.6085 5.21576 20.5602 5.12279 20.4301 5.3608C20.4189 5.47608 20.404 5.33104 20.378 5.33848C20.3335 5.43145 20.3409 5.49839 20.404 5.58392C20.4971 5.66945 20.5566 5.75498 20.5528 5.79962C20.5492 5.84425 20.5006 5.94465 20.4339 5.94465C20.367 5.94465 20.4375 5.82193 20.4339 5.78101C20.4301 5.74011 20.3186 5.59136 20.3186 5.59136C20.3186 5.59136 20.2404 5.46491 20.2478 5.4612C20.2553 5.45747 20.2404 5.43889 20.2034 5.56905C20.166 5.69921 20.1213 5.48352 20.1213 5.48352C20.1213 5.48352 20.0694 5.64341 20.1809 5.74011C20.0955 5.72896 20.0881 5.76242 20.0881 5.76242C20.0881 5.80705 20.2034 5.82564 20.2182 5.90373C20.233 5.98185 20.0991 6.02645 20.0991 6.02645C20.0991 6.02645 20.1551 6.10454 20.311 5.95209C20.3148 6.04877 20.2517 6.11571 20.2517 6.11571C20.3036 6.13926 20.3445 6.13678 20.3519 6.19754V6.19753Z" fill="#CDAD56" stroke="black" stroke-width="0.0319523" stroke-linejoin="round"/>
<path d="M19.8417 6.19752C19.8417 6.19752 19.7721 6.09433 19.7691 6.074C19.7657 6.05371 19.4271 6.09967 19.2668 5.68654C19.1626 5.49027 19.2668 5.60533 19.2668 5.60533L19.2731 5.51057C19.2731 5.51057 19.1622 5.37489 19.2096 5.30383C19.257 5.23276 19.2375 5.39518 19.2984 5.39552C19.3741 5.39214 19.3331 5.21955 19.3331 5.21955C19.3331 5.21955 19.3394 5.19925 19.3616 5.1891C19.3931 5.19248 19.4061 5.29429 19.4345 5.30106C19.4628 5.30784 19.5216 5.18126 19.54 5.15522C19.5661 5.1515 19.5651 5.05036 19.6062 5.26354C19.5843 5.49027 19.3964 5.44628 19.3964 5.59518C19.3964 5.74405 19.5163 5.85911 19.551 5.86251C19.5858 5.86588 19.5733 5.7373 19.5733 5.7373C19.5733 5.7373 19.5922 5.67639 19.6047 5.67639C19.6175 5.67639 19.4943 5.70003 19.5071 5.53084C19.5354 5.37243 19.5983 5.54104 19.6489 5.53087C19.6995 5.52072 19.6431 5.36336 19.6576 5.33933C19.6609 5.3153 19.7353 5.21211 19.7642 5.43984C19.7737 5.54475 19.8309 5.34956 19.8529 5.35633C19.891 5.44091 19.8363 5.5539 19.7826 5.63173C19.7036 5.70954 19.6678 5.79482 19.6712 5.83544C19.6742 5.87603 19.6929 5.92649 19.7499 5.92649C19.8066 5.92649 19.7691 5.85573 19.7721 5.81851C19.7752 5.7813 19.87 5.6608 19.87 5.6608C19.8887 5.63107 19.8731 5.5755 19.8928 5.54981C19.9237 5.55014 19.9365 5.5072 19.9679 5.62562C19.9996 5.74405 20.0375 5.54779 20.0375 5.54779C20.0375 5.54779 20.0817 5.69331 19.9869 5.7813C20.0595 5.77115 20.0658 5.80159 20.0658 5.80159C20.0658 5.84221 20.0313 5.85911 20.0186 5.93017C20.0058 6.00123 20.0564 6.04185 20.0564 6.04185C20.0564 6.04185 20.0091 6.11291 19.8764 5.97416C19.8731 6.06214 19.927 6.12306 19.927 6.12306C19.8826 6.1445 19.8481 6.14223 19.8417 6.19752Z" fill="#CDAD56" stroke="black" stroke-width="0.0280899" stroke-linejoin="round"/>
<path d="M21.8851 11.641C21.8158 11.5781 21.8076 11.6331 21.7736 11.619C21.7568 11.6121 21.7437 11.5965 21.7292 11.5822C21.7166 11.5692 21.7015 11.5638 21.6849 11.5569C21.6785 11.5756 21.6724 11.594 21.666 11.6126C21.6596 11.6313 21.6837 11.6622 21.6831 11.6901C21.6783 11.7315 21.6614 11.766 21.6093 11.78C21.6241 11.7506 21.6325 11.7494 21.6279 11.7133C21.6259 11.6954 21.5755 11.6635 21.5817 11.6466C21.5909 11.6193 21.6067 11.5878 21.595 11.5605C21.5737 11.575 21.5456 11.5674 21.5244 11.5763C21.5063 11.5842 21.5052 11.6177 21.4802 11.6315C21.4546 11.6435 21.3981 11.6377 21.3508 11.6108C21.3797 11.5891 21.4035 11.6037 21.4324 11.5819C21.4467 11.571 21.4462 11.5242 21.4605 11.5132C21.4751 11.5022 21.5096 11.4907 21.5239 11.4797C21.5109 11.4649 21.5116 11.4416 21.4986 11.4268C21.4858 11.412 21.4283 11.415 21.4153 11.4005C21.3892 11.3708 21.3943 11.3319 21.3682 11.3026C21.4354 11.3266 21.4257 11.3593 21.4426 11.3567C21.4743 11.3414 21.506 11.3386 21.5226 11.3455C21.5395 11.3527 21.5712 11.3941 21.5878 11.401C21.5942 11.3823 21.6034 11.3588 21.6095 11.3401C21.6159 11.3215 21.5814 11.2893 21.5875 11.2706C21.6003 11.2335 21.6315 11.2006 21.644 11.1632C21.6486 11.1993 21.6545 11.2294 21.6591 11.2652C21.6614 11.2831 21.6967 11.2926 21.699 11.3105C21.7013 11.3286 21.6806 11.37 21.6826 11.3882C21.7021 11.3843 21.7299 11.3869 21.7491 11.3831C21.7685 11.3792 21.7813 11.3345 21.8005 11.3307C21.8391 11.323 21.8669 11.3253 21.906 11.3327C21.8772 11.3596 21.8549 11.3578 21.8368 11.3823C21.8225 11.3933 21.8424 11.4293 21.8007 11.4546C21.7851 11.4638 21.744 11.4529 21.7294 11.4638C21.7424 11.4787 21.7555 11.4932 21.7685 11.5081C21.7813 11.5229 21.8396 11.5298 21.8526 11.5446C21.8784 11.574 21.8922 11.6093 21.8851 11.641Z" fill="#FFC900"/>
<path d="M20.1042 11.6714C20.1735 11.6085 20.1816 11.6635 20.2159 11.6494C20.2325 11.6422 20.2455 11.6267 20.2601 11.6126C20.2726 11.5996 20.2877 11.5942 20.3043 11.587C20.3107 11.6057 20.3171 11.6244 20.3233 11.643C20.3296 11.6617 20.3059 11.6923 20.3064 11.7202C20.311 11.7619 20.3279 11.7961 20.38 11.8104C20.3652 11.781 20.3567 11.7795 20.3613 11.7437C20.3636 11.7258 20.4137 11.6939 20.4076 11.6768C20.3984 11.6497 20.3826 11.618 20.3943 11.5906C20.4158 11.6054 20.4437 11.5978 20.4651 11.6065C20.483 11.6146 20.4843 11.6481 20.5091 11.6619C20.5349 11.6739 20.5914 11.6681 20.6384 11.6412C20.6095 11.6192 20.5858 11.6341 20.5569 11.6121C20.5426 11.6013 20.5433 11.5543 20.5288 11.5436C20.5145 11.5326 20.4799 11.5208 20.4654 11.5098C20.4784 11.4953 20.4776 11.4717 20.4907 11.4569C20.5037 11.4424 20.5612 11.4454 20.574 11.4306C20.6001 11.4012 20.5952 11.3623 20.6211 11.3327C20.5538 11.3567 20.5638 11.3894 20.5469 11.3871C20.515 11.3718 20.4833 11.3687 20.4667 11.3759C20.45 11.3828 20.4181 11.4242 20.4015 11.4314C20.3951 11.4127 20.3861 11.3892 20.3797 11.3705C20.3734 11.3519 20.4081 11.3197 20.4017 11.301C20.3892 11.2637 20.3578 11.231 20.3452 11.1936C20.3406 11.2294 20.3348 11.2596 20.3302 11.2956C20.3279 11.3135 20.2926 11.323 20.2903 11.3409C20.2882 11.3588 20.3089 11.4004 20.3066 11.4183C20.2872 11.4145 20.2594 11.417 20.2402 11.4135C20.221 11.4094 20.2082 11.3646 20.1888 11.3608C20.1502 11.3531 20.1226 11.3554 20.0832 11.3629C20.1121 11.3899 20.1344 11.3879 20.1525 11.4127C20.1668 11.4237 20.1469 11.4597 20.1885 11.485C20.2041 11.4942 20.2455 11.4832 20.2599 11.4942C20.2468 11.5088 20.2338 11.5236 20.221 11.5385C20.208 11.5533 20.1497 11.5602 20.1369 11.5748C20.1108 11.6044 20.097 11.6397 20.1042 11.6714Z" fill="#FFC900"/>
<path d="M21.823 11.8398C21.7601 11.8887 21.3549 11.9912 21.3506 12.3431C21.3465 12.6951 21.4216 12.7754 21.3465 12.7843C21.2003 12.7843 21.1793 12.3922 21.1834 12.2184C21.1878 12.0446 21.1918 12.0714 21.1918 12.0714C21.1918 12.0714 21.292 12.098 21.2839 12.1829C21.2754 12.2675 21.3841 11.9733 21.3465 11.8933C21.4132 11.96 21.5011 11.9334 21.5011 11.9288C21.5011 11.9244 21.451 11.871 21.4301 11.8309C21.4091 11.7908 21.5052 11.8531 21.5052 11.8531C21.5052 11.8531 21.5093 11.7862 21.4257 11.7908C21.3171 11.7908 21.4426 11.755 21.4426 11.755C21.4426 11.755 21.5052 11.813 21.5472 11.7506C21.5011 11.7015 21.4342 11.6747 21.4342 11.6747C21.4342 11.6747 21.3756 11.5635 21.2964 11.5413C21.2044 11.5188 21.2169 11.5811 21.1123 11.5725C21.0916 11.6123 21.0916 11.6169 21.1333 11.6302C21.0622 11.6793 21.0998 11.7772 21.0998 11.7772C21.0998 11.7772 21.2128 11.7284 21.2085 11.8084C21.2044 11.8887 21.1417 11.8754 21.0998 11.8263C21.0622 11.804 21.0497 11.8485 21.0497 11.8485L21.1083 11.9109C21.1083 11.9109 20.9955 11.9065 20.9661 11.9822C21.0288 11.9779 21.0622 11.9958 21.0622 11.9958C21.0622 11.9958 20.9326 12.0535 20.9201 12.0847C20.9076 12.1159 20.9035 12.0492 20.8994 12.0492C20.8951 12.0492 20.7739 12.0045 20.7739 12.0045L20.732 12.1972C20.732 12.1972 20.8158 12.2808 20.8616 12.2539C20.9076 12.2274 20.9912 12.1471 21.0413 12.1693C20.8951 12.2808 20.7489 12.441 20.6694 12.4635C20.6487 12.4456 20.5776 12.3743 20.5482 12.4099C20.5191 12.4456 20.54 12.4901 20.5776 12.4858C20.6152 12.4812 20.4564 12.5213 20.4897 12.5883C20.5231 12.655 20.5191 12.6507 20.5482 12.6328C20.5776 12.6149 20.5231 12.6105 20.6318 12.5793C20.7404 12.5482 20.7363 12.517 20.7363 12.517C20.7363 12.517 20.7154 12.5658 20.6568 12.5793C20.5983 12.5926 20.5525 12.5926 20.5651 12.6105C20.5776 12.6282 20.6026 12.6593 20.5942 12.6772C20.5858 12.6951 20.7154 12.5837 20.7489 12.6729C20.8365 12.6683 20.8951 12.5614 20.8534 12.4991C20.8575 12.5658 20.8994 12.5883 20.8741 12.6195C20.8491 12.6507 21.0707 12.517 20.962 12.4367C20.9912 12.5034 20.9955 12.5571 20.9955 12.5571C20.9955 12.5571 21.0456 12.5525 21.0582 12.5346C21.0707 12.517 21.0331 12.5837 21.0497 12.597C21.0663 12.6105 21.1458 12.6862 21.1123 12.7396C21.0916 12.7084 21.0873 12.6593 21.0622 12.6639C21.0372 12.6683 20.9326 12.7442 20.87 12.7486C20.8074 12.7529 20.9452 12.9804 20.9452 12.9804C20.9452 12.9804 20.8491 12.9669 20.8365 12.9758C20.824 12.9847 20.7614 12.8955 20.7489 12.9492C20.7279 13.0159 20.7698 12.9891 20.7698 12.9891C20.7698 12.9891 20.7154 12.9625 20.6862 12.9937C20.6568 13.0249 20.6277 13.0561 20.6487 13.0694C20.6694 13.0826 20.7614 13.0826 20.7739 13.0783C20.7864 13.074 20.6694 13.0873 20.6612 13.1005C20.6527 13.1138 20.6361 13.1629 20.6612 13.1808C20.6862 13.1987 20.7489 13.1719 20.7529 13.1586C20.7573 13.145 20.7614 13.2074 20.7614 13.2074C20.7614 13.2074 20.87 13.2163 20.87 13.1051C20.87 12.9937 20.8785 13.1852 20.8785 13.1852C20.8785 13.1852 20.9871 13.203 20.9912 13.0916C20.9955 12.9804 21.0037 13.1675 21.0037 13.1675C21.0037 13.1675 21.0748 13.145 21.0748 13.1274C21.0748 13.1095 21.0707 13.35 21.0206 13.417C20.9411 13.3633 20.891 13.4525 20.891 13.4525C20.891 13.4525 20.8951 13.5816 20.8866 13.6128C20.8785 13.644 20.9411 13.5952 20.9452 13.5816C20.9495 13.5683 21.0247 13.5328 21.0288 13.5238C21.0331 13.5149 21.0538 13.4704 21.0538 13.4704C21.0538 13.4704 21.0372 13.5328 21.0081 13.5417C20.9787 13.5504 20.9495 13.5816 20.962 13.6085C20.9746 13.6353 21.0206 13.6529 21.0372 13.6798C21.0538 13.7064 21.1123 13.5238 21.1123 13.5238L21.1167 13.564C21.1167 13.564 21.1918 13.5461 21.2003 13.5106C21.2085 13.4748 21.1208 13.4436 21.1918 13.3858C21.2629 13.3278 21.1918 13.4392 21.1918 13.4392C21.1918 13.4392 21.2169 13.5238 21.2335 13.5238C21.2504 13.5238 21.292 13.3633 21.2504 13.3234C21.2085 13.2833 21.313 13.3723 21.313 13.3723C21.313 13.3723 21.3715 13.2074 21.3089 13.1852C21.246 13.1629 21.2169 13.154 21.2169 13.154C21.2169 13.154 21.2504 13.1095 21.2335 13.1051C21.2169 13.1005 21.3214 13.203 21.3381 13.1762C21.3549 13.1496 21.38 13.0694 21.2588 13.0249C21.1374 12.9804 21.2545 12.8554 21.2545 12.8554C21.2545 12.8554 21.3299 12.9446 21.3841 12.8955C21.4383 12.8467 21.38 12.8467 21.38 12.8467C21.38 12.8467 21.5344 12.7486 21.5387 12.6995C21.5093 12.6951 21.4592 12.7041 21.4592 12.7041C21.4592 12.7041 21.5472 12.6461 21.5262 12.5525C21.4927 12.6016 21.4467 12.6016 21.4467 12.6016C21.4467 12.6016 21.5221 12.5259 21.5093 12.4546C21.4636 12.4901 21.4677 12.517 21.4383 12.508C21.4091 12.4991 21.359 12.2184 21.4761 12.2005C21.5929 12.1829 21.5303 12.3388 21.5344 12.3388C21.5387 12.3388 21.71 12.2675 21.5344 12.1517C21.5763 12.1381 21.664 12.2184 21.664 12.2184C21.664 12.2184 21.6264 12.0223 21.4383 12.1427C21.4843 12.0937 21.5137 12.0625 21.5512 12.0714C21.5888 12.0804 21.7225 12.0668 21.7225 12.0269C21.6893 12.0001 21.6182 12.0402 21.5804 12.0269C21.5428 12.0134 21.848 11.9912 21.823 11.8398Z" fill="#FFC900" stroke="#006B00" stroke-width="0.0176167" stroke-linecap="round" stroke-linejoin="round"/>
<path d="M20.4981 11.9554C20.4981 11.9554 20.6653 11.8619 20.7488 11.9778" stroke="#006B00" stroke-width="0.0176167" stroke-linecap="round"/>
<path d="M20.8157 12.156C20.8115 12.156 20.7571 12.2139 20.7446 12.2139" stroke="#006B00" stroke-width="0.0176167" stroke-linecap="round"/>
<path d="M20.9286 12.3431C20.9286 12.3431 21.0831 12.3565 21.1834 12.1917" stroke="#006B00" stroke-width="0.0176167" stroke-linecap="round"/>
<path d="M21.0957 12.2941C21.0957 12.2941 21.1082 12.3833 21.1333 12.3833C21.1583 12.3833 21.0916 12.4055 21.0664 12.3876C21.0957 12.4278 21.1124 12.4991 21.0664 12.5257" stroke="#006B00" stroke-width="0.0176167" stroke-linecap="round"/>
<path d="M21.0162 13.4169C21.0162 13.4169 20.9619 13.4792 20.895 13.4837L21.0162 13.4169Z" fill="#E80000"/>
<path d="M21.0162 13.4169C21.0162 13.4169 20.9619 13.4792 20.895 13.4837" stroke="#006B00" stroke-width="0.0176167" stroke-linecap="round"/>
<path d="M21.079 13.1317C21.079 13.1317 21.0456 12.9535 21.0664 12.9089C21.079 12.851 21.1333 12.8287 21.1751 12.753" stroke="#006B00" stroke-width="0.0176167" stroke-linecap="round"/>
<path d="M21.0622 13.0025C21.0622 13.0025 21.0204 13.1094 20.8366 13.0738" stroke="#006B00" stroke-width="0.0176167" stroke-linecap="round"/>
<path d="M21.1124 12.7351C21.1124 12.7351 21.1249 12.8777 20.9578 12.8243" stroke="#006B00" stroke-width="0.0176167" stroke-linecap="round"/>
<path d="M20.9076 12.0937C20.9076 12.0937 20.8407 12.156 20.8658 12.2407" stroke="#006B00" stroke-width="0.0176167" stroke-linecap="round"/>
<path d="M21.1583 11.9377C21.1583 11.9377 21.2461 11.9021 21.2629 11.8842C21.2795 11.8664 21.3089 11.8308 21.3172 11.804C21.3255 11.7774 21.2586 11.7372 21.2921 11.6793C21.3129 11.6526 21.3422 11.6481 21.3924 11.6793C21.4425 11.7104 21.3464 11.5813 21.2963 11.5768C21.2461 11.5724 21.2126 11.6125 21.2002 11.6035C21.1876 11.5946 21.2043 11.6392 21.1834 11.6392C21.1625 11.6392 21.2252 11.6748 21.2211 11.6972C21.2169 11.7194 21.2878 11.7951 21.2837 11.813C21.2795 11.8308 21.1792 11.9332 21.1583 11.9377Z" fill="#006B00"/>
<path d="M21.2211 11.6436C21.2592 11.6344 21.2653 11.6447 21.2586 11.6793C21.2407 11.6697 21.2342 11.6616 21.2211 11.6436Z" fill="#FFC900" stroke="#FFC900" stroke-width="0.0176167" stroke-linecap="round" stroke-linejoin="round"/>
<path d="M20.9541 13.6286C20.9541 13.6286 20.94 13.7219 20.9744 13.7296C20.9727 13.6935 20.9818 13.6689 20.9903 13.6593C20.9829 13.6557 20.9557 13.6292 20.9541 13.6286Z" fill="#E80000" stroke="#006B00" stroke-width="0.0176167" stroke-linejoin="round"/>
<path d="M20.8766 13.5138C20.8449 13.509 20.7915 13.5369 20.8068 13.5707C20.8326 13.5471 20.8564 13.5726 20.8744 13.5486C20.8799 13.5419 20.8784 13.5222 20.8766 13.5138Z" fill="#E80000" stroke="#006B00" stroke-width="0.0176167" stroke-linejoin="round"/>
<path d="M20.8763 13.4472C20.8763 13.4472 20.8265 13.4387 20.8195 13.4755C20.8539 13.4709 20.8642 13.4669 20.8756 13.4747C20.8789 13.4668 20.8758 13.449 20.8763 13.4472Z" fill="#E80000" stroke="#006B00" stroke-width="0.0176167" stroke-linejoin="round"/>
<path d="M20.6652 12.9217C20.6652 12.9217 20.695 12.9336 20.7035 12.9662C20.7273 12.9505 20.7386 12.8814 20.6652 12.9217Z" fill="#E80000" stroke="#006B00" stroke-width="0.0140933" stroke-linejoin="round"/>
<path d="M20.5912 13.001C20.5924 13.0004 20.6538 12.9607 20.6601 12.9987C20.6471 13.0125 20.6414 13.0215 20.6313 13.0246C20.6234 13.0246 20.6076 12.9987 20.5912 13.001Z" fill="#E80000" stroke="#006B00" stroke-width="0.0140933" stroke-linejoin="round"/>
<path d="M20.585 13.1298C20.5861 13.1292 20.6245 13.0931 20.6392 13.1171C20.6538 13.1413 20.6273 13.14 20.6273 13.14C20.6273 13.14 20.6138 13.1334 20.585 13.1298Z" fill="#E80000" stroke="#006B00" stroke-width="0.0140933" stroke-linejoin="round"/>
<path d="M20.5308 12.4127C20.5303 12.4127 20.4817 12.3927 20.4614 12.4288C20.4936 12.433 20.5049 12.4451 20.5195 12.4572C20.5156 12.4421 20.5089 12.4192 20.5308 12.4127Z" fill="#E80000" stroke="#006B00" stroke-width="0.0140933" stroke-linejoin="round"/>
<path d="M20.4367 12.6827C20.4367 12.6827 20.4389 12.6221 20.4659 12.5973C20.4812 12.6063 20.4857 12.6207 20.4959 12.6388C20.4756 12.6436 20.4484 12.6449 20.4367 12.6827Z" fill="#E80000" stroke="#006B00" stroke-width="0.0140933" stroke-linejoin="round"/>
<path d="M20.5663 12.6394C20.5663 12.6394 20.5128 12.6659 20.5303 12.6948C20.5478 12.6749 20.567 12.681 20.567 12.6804C20.567 12.6798 20.567 12.6401 20.5663 12.6394Z" fill="#E80000" stroke="#006B00" stroke-width="0.0140933" stroke-linejoin="round"/>
<path d="M20.4891 12.0582C20.4698 12.0812 20.5128 12.1311 20.5579 12.1238C20.5692 12.0697 20.5004 12.0414 20.4891 12.0582Z" fill="#FFC900" stroke="#006B00" stroke-width="0.0140933" stroke-linejoin="round"/>
<path d="M20.5388 12.0167C20.5388 12.0167 20.5472 12.0595 20.5861 12.048C20.58 12.0149 20.5528 11.9902 20.5528 11.9902C20.5512 12 20.5584 12.0149 20.5388 12.0167Z" fill="#E80000" stroke="#006B00" stroke-width="0.0140933" stroke-linejoin="round"/>
<path d="M20.5647 12.1407C20.5647 12.1407 20.5861 12.1653 20.6284 12.1148C20.6093 12.1208 20.5755 12.1027 20.5755 12.1027C20.5755 12.1027 20.5755 12.1376 20.5647 12.1407Z" fill="#E80000" stroke="#006B00" stroke-width="0.0140933" stroke-linejoin="round"/>
<path d="M20.4866 11.9601C20.4675 11.983 20.4947 12.0148 20.5397 12.0077C20.551 11.9536 20.4979 11.9434 20.4866 11.9601Z" fill="#FFC900" stroke="#006B00" stroke-width="0.0140933" stroke-linejoin="round"/>
<path d="M20.5047 11.7463C20.5047 11.7463 20.6847 11.6949 20.7803 11.7721C20.8756 11.849 20.8756 11.7793 20.8756 11.7793C20.8756 11.7793 21.0152 11.8306 21.0556 11.8196C21.096 11.8087 21.0262 11.8235 21.0812 11.7902C21.1364 11.7573 20.971 11.7977 20.9564 11.7279C20.9306 11.6839 20.96 11.6287 20.9015 11.6471C20.8611 11.5957 20.927 11.5592 20.9124 11.504C20.8721 11.5334 20.8498 11.493 20.8168 11.5663C20.7399 11.5518 20.8059 11.4452 20.7215 11.4342C20.7215 11.5114 20.6591 11.5149 20.6553 11.5592C20.6187 11.5847 20.4572 11.6803 20.5047 11.7463Z" fill="url(#paint1_linear_10625_5985)"/>
<path d="M18.4343 17.599C18.551 17.5708 19.1834 17.7388 19.4273 18C19.3754 17.5345 19.2465 17.178 19.2465 17.178C19.2465 17.178 18.8697 17.0703 18.8179 17.1222C18.7421 17.202 18.5142 17.4415 18.4343 17.599Z" fill="#C01500" stroke="black" stroke-width="0.0255618"/>
<path d="M18.2415 15.4487C18.1972 15.4561 18.1529 15.4857 18.1085 15.5596C18.0568 15.6851 18.0199 16.0029 17.946 16.0767C17.8721 16.1506 17.8056 16.158 17.8056 16.2247C17.8056 16.2912 17.813 16.4463 18.0125 16.5054C18.212 16.5128 18.5298 16.1877 18.5298 16.1877C18.5298 16.1877 18.6923 16.0103 18.7588 15.8183C18.3746 15.9512 18.1012 15.5964 18.2415 15.4487Z" fill="#C01500" stroke="black" stroke-width="0.0255618"/>
<path d="M23.7989 17.5248C23.6831 17.4969 23.0435 17.6639 22.8015 17.9236C22.8529 17.4609 22.9809 17.1061 22.9809 17.1061C23.0257 17.0941 23.3508 16.9993 23.4022 17.0509C23.4773 17.1301 23.7197 17.3684 23.7989 17.5248Z" fill="#C01500" stroke="black" stroke-width="0.0253888"/>
<path d="M23.9781 15.3871C24.0221 15.3945 24.0376 15.4523 24.0737 15.5259C24.1248 15.6506 24.1777 15.8326 24.2511 15.906C24.3245 15.9796 24.3904 16.0882 24.3904 16.1545C24.3904 16.2207 24.3751 16.3099 24.177 16.3687C23.9791 16.3761 23.6921 16.1217 23.6921 16.1217C23.6921 16.1217 23.5308 15.9456 23.4648 15.7544C23.8462 15.8868 24.0931 15.5463 23.9781 15.3871Z" fill="#C01500" stroke="black" stroke-width="0.0253888"/>
<path d="M18.0199 17.1928C18.0199 17.1928 18.4189 17.466 18.4263 17.5918C19.4979 16.0029 22.232 15.5077 23.791 17.4809C23.998 17.2073 24.2122 17.1189 24.2122 17.1189C22.5719 14.9758 19.3056 15.2419 18.0199 17.1928Z" fill="#FFBB00" stroke="black" stroke-width="0.0255618"/>
<path d="M22.085 11.1139L22.2412 11.11L21.9623 11.4633L22.2969 11.8539L21.6387 12.6831L22.2598 13.4306C22.1916 13.598 22.1123 13.7503 22.0068 13.8881L21.6499 13.4937L22.2969 12.687L21.7652 12.0845L22.085 11.1139Z" fill="#1E5AA6" stroke="black" stroke-width="0.0255618"/>
<path d="M19.8537 11.1844L19.6863 11.1883L19.9986 11.5264L19.6678 11.9393L20.3557 12.6869L19.7867 13.4492C19.855 13.6166 19.9529 13.8025 20.0582 13.94L20.3966 13.5123L19.7013 12.7388L20.2108 12.0919L19.8537 11.1844Z" fill="#1E5AA6" stroke="black" stroke-width="0.0255618"/>
<path d="M20.6272 13.1926L20.3818 13.5198L21.2593 14.5351C21.4142 14.4569 21.5359 14.3676 21.6686 14.26L21.211 13.7319L21.3971 13.1852L21.6647 13.4937L20.8281 14.5611C20.688 14.5016 20.5331 14.4085 20.393 14.2933L20.8355 13.7319L20.6272 13.1926Z" fill="#1E5AA6" stroke="black" stroke-width="0.0255618"/>
<path d="M20.3557 12.6831L20.5157 12.884L20.4114 12.6126L20.3557 12.6831Z" fill="#1E5AA6" stroke="black" stroke-width="0.0255618"/>
<path d="M21.5011 12.8608C21.5045 12.8569 21.6302 12.6895 21.6302 12.6895L21.5814 12.6228L21.5011 12.8608Z" fill="#1E5AA6" stroke="black" stroke-width="0.0247564"/>
<path d="M23.3503 10.0674C23.3503 10.0674 23.5047 9.93523 23.6146 9.9314" stroke="#FFF700" stroke-width="0.0255618" stroke-linecap="round"/>
<path d="M23.3725 10.049C23.3761 10.0454 24.294 9.91682 24.3232 9.88742" stroke="#FFF700" stroke-width="0.0255618" stroke-linecap="round"/>
<path d="M23.3761 10.0564C23.3797 10.0526 24.4039 9.9682 24.4039 9.9682" stroke="#FFF700" stroke-width="0.0255618" stroke-linecap="round"/>
<path d="M23.3725 10.06C23.3725 10.06 24.4627 10.0086 24.5289 10.0638" stroke="#FFF700" stroke-width="0.0255618" stroke-linecap="round"/>
<path d="M23.3687 10.0564C23.3687 10.0564 24.4372 10.0638 24.4556 10.0894" stroke="#FFF700" stroke-width="0.0255618" stroke-linecap="round"/>
<path d="M23.3725 10.0564L24.4004 10.1408" stroke="#FFF700" stroke-width="0.0255618" stroke-linecap="round"/>
<path d="M23.3615 10.0638C23.3651 10.0638 24.4078 10.1556 24.5105 10.2877" stroke="#FFF700" stroke-width="0.0255618" stroke-linecap="round"/>
<path d="M24.5655 10.4748C24.5619 10.4713 24.2094 10.0526 23.3577 10.06" stroke="#FFF700" stroke-width="0.0255618" stroke-linecap="round"/>
<path d="M23.3615 10.0674C23.3615 10.0674 23.9525 10.1078 24.1396 10.3133" stroke="#FFF700" stroke-width="0.0255618" stroke-linecap="round"/>
<path d="M23.3725 10.06C23.3725 10.06 23.7542 9.98661 24.1545 10.4677" stroke="#FFF700" stroke-width="0.0255618" stroke-linecap="round"/>
<path d="M23.132 10.4968C23.132 10.4968 23.6616 10.5178 23.6616 10.5697C23.6616 10.6216 23.267 10.7202 23.2618 10.9383C23.2567 11.1563 23.563 11.1719 23.5837 11.447C23.6044 11.7223 23.3449 11.7637 23.293 11.8365C23.2409 11.8728 23.1164 12.2621 23.132 12.4906C23.1476 12.7192 23.2151 13.4927 23.3344 13.6486C23.428 13.7212 23.5681 13.9548 23.7186 13.8822C23.8692 13.8094 23.7654 13.5448 23.7498 13.472C23.7342 13.3994 23.8122 13.28 23.8122 13.1709C23.8122 13.0617 23.7549 12.9735 23.7603 12.9477C23.7654 12.9216 24.1808 13.0464 24.1547 13.4564C24.1289 13.8666 23.9627 13.7419 23.9627 13.7419C23.9627 13.7419 24.0146 14.2457 23.8848 14.3132C23.6511 14.4377 23.4799 14.2871 23.4799 14.2871L23.5019 14.3896L23.3242 14.2976C23.3242 14.2976 23.0957 13.9704 23.0438 13.825C22.9919 13.6798 22.9295 13.0308 22.9502 12.8904C22.9709 12.7504 22.9865 11.9298 22.9763 11.8884C22.9658 11.8467 22.9244 11.1614 22.9502 11.0577C22.9763 10.9539 23.1371 10.4968 23.132 10.4968Z" fill="url(#paint2_linear_10625_5985)" stroke="black" stroke-width="0.0255618"/>
<path d="M22.5609 10.3619C22.5609 10.3619 22.9295 10.0037 23.1425 10.0451C23.2514 10.0451 23.1476 10.1231 23.1476 10.1231C23.1476 10.1231 23.3344 10.1387 23.3605 10.2218C23.3656 10.2581 23.2721 10.2686 23.2721 10.2686C23.2721 10.2686 23.35 10.2841 23.3551 10.3516C23.3605 10.4191 22.566 10.367 22.5609 10.3619Z" fill="#FF7000" stroke="black" stroke-width="0.0255618"/>
<path d="M22.5816 10.3462C22.5816 10.3462 22.9763 10.2944 23.1425 10.1282" stroke="black" stroke-width="0.0255618"/>
<path d="M22.9814 10.2374C22.9814 10.2374 23.2721 10.2269 23.2721 10.2686" stroke="black" stroke-width="0.0255618"/>
<path d="M24.0146 14.4845C24.0146 14.4845 24.2639 14.4272 24.3314 14.339C24.373 14.3078 24.5911 14.6662 24.0146 14.4845Z" fill="white" stroke="black" stroke-width="0.0319523" stroke-linejoin="round"/>
<path d="M23.9472 12.4232C23.9472 12.4232 23.9783 12.6154 23.8901 12.745C23.8434 12.7969 23.703 12.8853 23.703 12.9477C23.703 13.0098 23.7549 13.0929 23.7447 13.1657C23.7342 13.2383 23.6565 13.3112 23.6616 13.3733C23.6616 13.4357 23.7498 13.768 23.7393 13.7731" stroke="white" stroke-width="0.0319523" stroke-linecap="round"/>
<path d="M23.4904 11.8002C23.4904 11.8002 23.293 11.8677 23.2514 12.0651" stroke="white" stroke-width="0.0319523" stroke-linecap="round"/>
<path d="M23.407 10.2374C23.407 10.2374 23.4748 10.4242 23.6928 10.2476C23.5525 10.0556 23.407 10.2425 23.407 10.2374Z" fill="#C75B00" stroke="black" stroke-width="0.0255618"/>
<path d="M23.5682 10.2295C23.5682 10.2395 23.5577 10.2477 23.5448 10.2477C23.5319 10.2477 23.5214 10.2395 23.5214 10.2295C23.5214 10.2195 23.5319 10.2113 23.5448 10.2113C23.5577 10.2113 23.5682 10.2195 23.5682 10.2295Z" fill="black"/>
<path d="M21.6241 9.80359C21.6241 9.80359 22.0377 10.2512 22.3053 10.2463C22.3539 10.3777 22.1836 10.4999 22.1156 10.5582C21.9794 10.5145 21.8562 10.5661 21.54 10.177C21.5597 9.92884 21.6289 9.8133 21.6241 9.80359Z" fill="white" stroke="black" stroke-width="0.0255618"/>
<path d="M22.1836 8.76243C22.2371 8.59705 22.3442 8.46566 22.4364 8.45109C22.4122 8.32456 22.6312 7.76526 23.2685 7.55106C23.3073 7.83812 22.996 8.12032 22.996 8.12032C22.996 8.12032 23.9349 7.95979 24.1246 7.7213C24.1051 7.8284 23.9155 8.4948 22.9132 8.48994C23.2928 8.85011 22.7918 9.13717 22.5775 9.04949C22.9717 8.74786 22.4658 8.56791 22.1836 8.76243Z" fill="white" stroke="black" stroke-width="0.0255618"/>
<path d="M22.5047 8.52908C22.6944 8.4074 22.7624 8.4074 22.9183 8.43169C22.8063 8.44626 22.8063 8.45112 22.8063 8.45112C22.8063 8.45112 22.7966 8.46569 22.8646 8.52908C22.7869 8.5094 22.7187 8.46569 22.5047 8.52908Z" fill="#CCCCCD" stroke="#CCCCCC" stroke-width="0.0255618"/>
<path d="M22.4316 8.45111C22.4316 8.45111 22.8063 8.25172 23.0154 8.11548" stroke="black" stroke-width="0.0255618"/>
<path d="M22.1105 10.5577C22.1105 10.5577 22.6264 10.6988 22.6847 9.95927C22.5727 9.63821 22.417 8.94727 22.6555 8.74789C22.4364 8.59708 22.1982 8.75275 22.1982 8.75275C22.1836 8.78674 21.9889 9.06409 22.2516 9.55053C21.629 9.38515 21.882 9.97384 21.882 9.97384C21.9063 9.8813 22.2371 9.79388 22.3199 10.2658C22.3539 10.3826 22.096 10.5625 22.1105 10.5577Z" fill="#0000FF" stroke="black" stroke-width="0.0255618"/>
<path d="M22.6895 9.9641C22.6895 9.9641 23.2345 9.67218 23.2197 8.98636C22.7575 8.99607 22.5921 9.59422 22.5921 9.59422L22.6895 9.9641Z" fill="#0000FF" stroke="black" stroke-width="0.0255618"/>
<path d="M20.2473 9.93011C20.2473 9.93011 19.8437 10.2803 19.6149 10.1684C19.4447 10.2706 19.2453 10.0906 19.2453 10.0906C19.2453 10.0906 19.4787 10.9516 20.3156 10.3289C20.301 10.1392 20.2571 9.94469 20.2473 9.93011Z" fill="white" stroke="black" stroke-width="0.0255618"/>
<path d="M19.6101 10.1538C19.6441 9.97382 19.7852 9.88614 19.8971 10.0564C20.0479 10.0858 20.1988 9.46795 19.6635 9.56994C19.8143 8.76245 19.362 8.46082 19.362 8.46082C19.362 8.46082 19.2015 9.35599 19.2744 9.52138C19.3474 9.68676 19.1674 9.21489 18.5885 9.0835C18.5788 9.75987 19.2355 10.0761 19.2355 10.0761C19.2355 10.0761 19.4204 10.2463 19.6101 10.1538Z" fill="#0000FF" stroke="black" stroke-width="0.0255618"/>
<path d="M19.6635 9.56509C19.6635 9.56509 19.4107 9.7793 19.469 10.0712" stroke="black" stroke-width="0.0255618"/>
<path d="M19.2793 9.53595C19.2793 9.53595 19.2209 9.74505 19.3474 10.0418" stroke="black" stroke-width="0.0255618"/>
<path d="M19.2404 10.1101C19.2404 10.1101 19.3571 9.92039 19.6101 10.1635" stroke="black" stroke-width="0.0255618"/>
<path d="M19.289 8.79643C19.289 8.79157 18.9047 8.79643 19.1333 9.18574C18.9631 9.23916 18.5836 8.99121 18.8463 8.66018C17.9853 8.64076 17.635 8.22742 17.635 7.84783C17.888 8.1106 18.4912 8.0035 18.7053 8.16403C18.4426 7.92094 18.4961 7.58505 18.4961 7.58505C18.4961 7.58505 19.2307 7.80412 19.362 8.45594C19.3182 8.58248 19.2988 8.80614 19.289 8.79643Z" fill="white" stroke="black" stroke-width="0.0255618"/>
<path d="M18.6981 8.14719C18.8398 8.29136 19.2041 8.33455 19.389 8.49508" stroke="black" stroke-width="0.0255618"/>
<path d="M18.8658 8.57278C18.8658 8.57278 19.1673 8.53392 19.2547 8.64077C19.1367 8.64077 19.0974 8.61163 18.927 8.67502C18.975 8.65048 18.9619 8.60677 18.9882 8.60677C19.0144 8.60677 18.8789 8.57278 18.8658 8.57278Z" fill="#CCCCCD" stroke="#CCCCCC" stroke-width="0.0242278"/>
<path d="M20.369 6.21334C20.369 6.21334 20.5344 6.06738 20.7143 6.19874C20.6331 6.44176 20.3399 6.34956 20.3399 6.34956C20.3399 6.34956 20.3496 6.47118 20.3204 6.52954C20.379 6.57368 20.4273 6.71928 20.4273 6.71928C20.4273 6.71928 20.7289 6.64631 20.7923 6.77767C20.9078 6.76172 20.9917 6.77767 20.9917 6.77767C20.9917 6.77767 21.2253 6.71928 21.3079 6.71928C21.3907 6.71928 21.6532 6.78738 21.6775 6.83603C21.7021 6.88467 21.7895 7.21063 21.848 7.20575C21.9063 7.2009 21.7069 7.28359 21.6532 7.2009C21.5998 7.11818 21.6144 7.30792 21.6144 7.30792C21.6144 7.30792 21.7798 7.48305 21.7992 7.52195C21.8186 7.56081 21.6972 7.87701 21.7895 8.09607C21.7084 8.10348 21.7021 8.18835 21.7021 8.18835C21.6975 8.28472 21.5755 8.31002 21.5755 8.31002L21.5464 8.17864L21.4636 8.22746L21.4976 8.12521C21.4976 8.12521 21.6095 7.85272 21.6192 7.7653C21.6289 7.67762 21.517 7.52195 21.4296 7.52195C21.3419 7.52195 21.2787 7.7993 21.2787 7.7993C21.2787 7.7993 21.235 8.00839 21.2496 8.02782C21.2642 8.04725 21.1911 7.95983 21.1911 7.95983C21.1911 7.95983 21.1522 8.08636 21.1231 8.12521C21.0939 8.16407 21.0305 8.17864 21.0305 8.17864C21.0305 8.17864 20.9868 8.0521 21.0014 8.00354C21.016 7.95497 21.2399 7.7653 21.2205 7.62906C21.2008 7.49281 21.2205 7.52681 21.2154 7.52195C21.2105 7.5171 21.0988 7.41981 21.0939 7.36631C21.0891 7.31278 20.948 7.4344 20.7632 7.39547C20.7064 7.49435 20.6998 7.74076 20.6998 7.74076C20.6998 7.74076 20.6803 8.03753 20.7192 8.07179C20.7583 8.10578 20.6221 8.17864 20.6221 8.17864L20.5247 8.31002C20.5247 8.31002 20.4907 8.22746 20.4907 8.23232C20.4907 8.23717 20.4224 8.28088 20.4224 8.28088L20.4615 8.18349C20.459 8.10987 20.5561 7.9087 20.5561 7.73846C20.5561 7.56822 20.5684 7.38576 20.5684 7.38576C20.5684 7.38576 20.3884 7.37602 20.3933 7.56081C20.3981 7.74587 20.3496 7.75559 20.3593 7.80901C20.369 7.86244 20.4176 8.01325 20.403 8.05722C20.3884 8.10093 20.3301 8.1155 20.3301 8.1155L20.3156 8.13978C20.3156 8.13978 20.1356 8.2226 20.1405 8.2566C20.1453 8.2906 20.1356 8.15921 20.1356 8.15921L20.1257 8.01811C20.1257 8.01811 20.2328 7.95011 20.2328 7.77987C20.2328 7.60963 20.2082 7.58535 20.2131 7.54649C20.2179 7.50738 20.2425 7.36628 20.2376 7.35171C20.2328 7.33711 20.1356 7.39062 20.1062 7.39062C20.0771 7.39062 20.1599 7.28847 20.1696 7.21549C20.1793 7.14251 20.0722 7.28359 19.9848 7.2009C20.0255 7.11107 20.0868 7.08413 20.0965 7.01603C20.1062 6.94794 20.0285 7.07442 19.9603 7.02577C19.9659 6.96049 20.0334 6.90415 20.0334 6.90415C20.0334 6.90415 19.9779 6.89735 19.9554 6.90415C19.9117 6.88955 20.0042 6.82143 20.0091 6.72414C20.0139 6.62685 19.9554 6.58792 19.9554 6.58307C19.9554 6.57821 19.8583 6.49549 19.8437 6.46144C19.8291 6.42739 19.8291 6.38846 19.8291 6.38846C19.8291 6.38846 19.6684 6.50523 19.4787 6.25713C19.6525 6.10879 19.8388 6.2182 19.8388 6.2182C19.8388 6.2182 19.8874 6.08198 20.1111 6.09172C20.335 6.10145 20.3787 6.22793 20.369 6.21334Z" fill="#923F00" stroke="black" stroke-width="0.0255618"/>
<path d="M21.5929 8.72974C21.5967 8.72974 22.006 8.74201 22.0101 8.96082C22.0142 9.17937 21.8846 9.12288 21.8805 9.12288C21.8764 9.12288 21.5806 9.08632 21.5806 9.08632L21.5929 8.72974Z" fill="#0000FF" stroke="black" stroke-width="0.0255618"/>
<path d="M21.1957 8.66889C21.1957 8.66889 21.7061 8.66505 21.6778 8.8877C21.6494 9.1106 21.5198 9.06612 21.5198 9.06612L21.2726 9.04567L21.1957 8.66889Z" fill="#FFFEFF" stroke="black" stroke-width="0.0255618"/>
<path d="M20.9081 8.64459L21.2039 8.66888C21.2039 8.66888 21.382 8.69316 21.3741 8.8634C21.3659 9.03364 21.1916 9.03773 21.1916 9.03773L20.904 9.02137L20.9081 8.64459Z" fill="#0000FF" stroke="black" stroke-width="0.0255618"/>
<path d="M20.2154 8.72974C20.2113 8.72974 19.802 8.74201 19.798 8.96082C19.7941 9.17937 19.9237 9.12288 19.9278 9.12288C19.9319 9.12288 20.2277 9.08632 20.2277 9.08632L20.2154 8.72974Z" fill="white" stroke="black" stroke-width="0.0255618"/>
<path d="M20.6124 8.66889C20.6124 8.66889 20.1019 8.66505 20.1303 8.8877C20.1586 9.1106 20.2882 9.06612 20.2882 9.06612L20.5354 9.04567L20.6124 8.66889Z" fill="#0000FF" stroke="black" stroke-width="0.0255618"/>
<path d="M20.9002 8.64459L20.6044 8.66888C20.6044 8.66888 20.426 8.69316 20.4342 8.8634C20.4424 9.03364 20.6165 9.03773 20.6165 9.03773L20.904 9.02137L20.9002 8.64459Z" fill="white" stroke="black" stroke-width="0.0255618"/>
<path d="M21.6921 11.1044C21.6921 11.1044 21.9048 10.791 21.9945 10.8245C22.0727 10.8506 22.0131 11.0932 21.9758 11.1157L21.6921 11.1044Z" fill="#5E0043" stroke="black" stroke-width="0.0255618"/>
<path d="M20.2343 11.1604C20.1673 11.0671 20.0702 10.8097 19.9807 10.8805C19.9022 10.9066 19.9621 11.1492 19.9994 11.1717L20.2343 11.1604Z" fill="#5E0043" stroke="black" stroke-width="0.0255618"/>
<path d="M20.3751 10.5405C20.3751 10.5405 20.7895 10.7959 20.9255 10.8025C21.0615 10.8092 21.4925 10.471 21.4925 10.471" stroke="black" stroke-width="0.0255618"/>
<path d="M20.415 9.53953L20.4945 9.44009L20.8925 9.64229L21.2969 9.4631L21.3764 9.54618L20.9255 9.86442L20.415 9.53953Z" fill="#5E0043" stroke="black" stroke-width="0.0255618"/>
<path d="M20.0991 9.53416C20.1313 9.5748 20.3884 9.88742 20.435 10.1461C20.4812 10.4048 20.4084 9.79131 20.4084 9.79131C20.4084 9.79131 20.7266 9.94724 20.7366 10.0467C20.7466 10.1461 20.8887 10.04 20.8956 10.0229L19.9741 9.4245L20.0991 9.53416Z" fill="#474747" stroke="#474747" stroke-width="0.0319523" stroke-linejoin="round"/>
<path d="M21.6714 9.51627C21.6714 9.51627 21.3365 9.95721 21.3764 10.4378C21.3074 10.2077 21.3631 9.82786 21.3631 9.82786L21.2903 9.87439C21.2903 9.87439 21.2141 10.1993 21.1177 10.2489C21.1016 10.2103 21.1047 10.196 21.1047 10.196C21.1047 10.196 21.0019 10.3284 20.982 10.3417C20.962 10.3549 20.9886 10.7892 20.9886 10.7892C20.9886 10.7892 21.0231 11.1042 21.0628 11.1008C21.0175 11.1228 20.962 11.1573 20.962 11.1573L20.9209 10.3169L21.015 10.2223C21.015 10.2223 21.141 10.0699 21.1509 9.92065C21.0962 9.96718 21.0349 9.98047 21.0349 9.98047C21.0349 9.98047 21.0183 10.1926 20.9687 10.2223C20.9188 10.2522 20.9176 10.3077 20.9176 10.3077L20.9058 10.0303L21.6714 9.51627Z" fill="#474747" stroke="#474747" stroke-width="0.0319523" stroke-linejoin="round"/>
<path d="M20.9055 10.0268L20.9705 11.3527" stroke="black" stroke-width="0.0319523" stroke-linecap="round"/>
<path d="M20.0901 10.6599C20.0901 10.6599 20.2425 10.7496 20.299 11.0214C20.7961 10.9848 20.9521 11.1607 20.9521 11.1607C20.9521 11.1607 21.3598 10.9651 21.5489 11.0014C21.6151 10.8624 21.804 10.6832 21.804 10.6832" stroke="black" stroke-width="0.0255618"/>
<path d="M19.8821 9.36033L20.9055 10.03L21.8273 9.41017C21.8273 9.41017 22.0195 9.30409 22.0029 9.22792C21.9866 9.15149 21.9201 9.18139 21.8869 9.19469C21.8539 9.20798 20.9222 9.86773 20.9222 9.86773L19.9309 9.24095C19.9309 9.24095 19.858 9.21795 19.8447 9.26421C19.8314 9.31074 19.8721 9.33706 19.8821 9.36033Z" fill="#B4B6B9" stroke="black" stroke-width="0.0255618"/>
<path d="M21.7125 9.1865C21.7125 9.1865 21.4505 9.07531 21.4505 9.17168C21.4505 9.26779 21.4579 9.27776 21.5001 9.33962C21.542 9.40122 21.4679 9.44084 21.4679 9.44084C21.4679 9.44084 21.4579 9.41375 21.4431 9.37157C21.4283 9.32965 21.2874 9.3 21.2752 9.25066C21.2629 9.20107 21.3048 9.12209 21.2207 9.11237C21.1369 9.1024 21.0553 9.14688 21.038 9.24325C21.0206 9.33962 20.9119 9.56431 20.9119 9.56431L20.9268 9.05307C21.1113 9.06611 21.4539 9.10649 21.7174 9.13691C21.6384 9.12464 21.747 9.14203 21.7447 9.16912C21.7373 9.19136 21.71 9.19366 21.7125 9.1865Z" fill="#474747" stroke="#474747" stroke-width="0.0319523" stroke-linejoin="round"/>
<path d="M20.7859 9.05796C20.7391 9.05796 20.5042 9.08506 20.4449 9.11982C20.3856 9.15433 20.5413 9.20852 20.5216 9.25556C20.5019 9.30259 20.4994 9.3964 20.4252 9.37672C20.3511 9.35678 20.1016 9.23332 20.0942 9.1914C20.0868 9.14947 20.0349 9.14692 20.0349 9.14692C20.0349 9.14692 20.7514 9.05055 20.7859 9.05796Z" fill="#474747" stroke="#474747" stroke-width="0.0319523" stroke-linejoin="round"/>
<path d="M20.8989 8.99918L20.8971 9.62749" stroke="black" stroke-width="0.0255618"/>
<path d="M20.415 8.25888C20.415 8.25888 20.128 8.72487 20.1223 8.73919" stroke="black" stroke-width="0.0255618"/>
<path d="M20.9439 8.24738C20.9439 8.24738 21.0689 8.41787 21.0546 8.46618C21.1057 8.50606 21.1627 8.66531 21.1627 8.66531" fill="url(#paint3_linear_10625_5985)"/>
<path d="M20.9439 8.24738C20.9439 8.24738 21.0689 8.41787 21.0546 8.46618C21.1057 8.50606 21.1627 8.66531 21.1627 8.66531" stroke="black" stroke-width="0.0255618"/>
<path d="M21.427 8.21899C21.427 8.21899 21.1571 8.59987 21.1655 8.62824" stroke="black" stroke-width="0.0255618"/>
<path d="M20.0439 6.40796C20.0378 6.42926 20.0034 6.4375 19.967 6.42638C19.9307 6.41525 19.9062 6.38896 19.9123 6.36767C19.9184 6.34637 19.9528 6.33812 19.9892 6.34925C20.0255 6.36037 20.05 6.38666 20.0439 6.40796Z" fill="black"/>
<path d="M20.153 6.40045C20.1591 6.42175 20.1935 6.42999 20.2298 6.41887C20.2662 6.40774 20.2907 6.38146 20.2846 6.36016C20.2784 6.33886 20.244 6.33061 20.2077 6.34174C20.1714 6.35287 20.1469 6.37915 20.153 6.40045Z" fill="black"/>
<path d="M23.3132 14.2899C23.3132 14.2899 23.213 14.3089 23.2163 14.3181C23.2194 14.3275 22.9252 14.337 22.9191 14.3275C22.9127 14.3181 22.8751 14.3776 22.8751 14.3776L22.9221 14.3495C22.9221 14.3495 22.994 14.4244 23.0159 14.4183C23.0379 14.4121 23.0065 14.4464 23.0129 14.4528C23.019 14.4589 23.041 14.4403 23.041 14.4403L23.5272 14.4321L23.3132 14.2899Z" fill="#FF7000" stroke="black" stroke-width="0.0255618" stroke-linejoin="round"/>
<path d="M23.4945 14.4413L23.0972 14.4528C23.0972 14.4528 22.9973 14.5435 22.9909 14.5652C22.9848 14.5872 23.0566 14.5934 23.0566 14.5934L23.0786 14.6685L23.1287 14.6499C23.1287 14.6499 23.4663 14.7 23.7764 14.6309C23.9328 14.5762 23.9602 14.5105 23.8505 14.4707C23.7411 14.4308 23.4975 14.4428 23.4945 14.4413Z" fill="#FF7000" stroke="black" stroke-width="0.0319523" stroke-linejoin="round"/>
<path d="M22.1343 15.2562L22.8493 15.2242L22.7161 15.1112L24.6498 15.0333L24.5831 14.8796L22.418 14.9665L22.6785 15.0882L22.0937 15.1056L22.111 15.1664L21.9577 15.1606C21.9577 15.1606 22.1284 15.227 22.1343 15.2562Z" fill="url(#paint4_linear_10625_5985)" stroke="black" stroke-width="0.0255618"/>
<path d="M22.9359 11.3066C22.8789 11.2783 22.6292 11.2443 22.3508 11.426L22.3623 12.0679C22.3623 12.0679 22.7711 11.8462 22.9699 11.8974C22.9584 11.6985 22.9584 11.4431 22.9359 11.3066Z" fill="url(#paint5_linear_10625_5985)" stroke="black" stroke-width="0.0255618"/>
<path d="M18.9826 13.2552L17.2967 14.929" stroke="black" stroke-width="0.0255618"/>
<path d="M19.7341 13.2675L18.3657 15.0696" stroke="black" stroke-width="0.0255618"/>
<path d="M19.673 12.7971L17.8464 15.0085" stroke="black" stroke-width="0.0255618"/>
<path d="M17.7915 14.9778L17.9686 14.7703" stroke="black" stroke-width="0.0255618"/>
<path d="M20.0211 13.9088L19.3125 14.8863" stroke="black" stroke-width="0.0255618"/>
<path d="M19.2819 15.0146L19.3003 15.3871" stroke="black" stroke-width="0.0255618"/>
<path d="M20.3447 14.2508L19.5935 15.1918" stroke="black" stroke-width="0.0255618"/>
<path d="M20.2105 15.1184L20.516 14.6174" stroke="black" stroke-width="0.0255618"/>
<path d="M20.3266 14.5197L19.96 14.9351" stroke="black" stroke-width="0.0255618"/>
<path d="M20.2167 14.1289L19.9661 14.4341" stroke="black" stroke-width="0.0255618"/>
<path d="M19.8928 13.6829C19.8928 13.6829 19.1292 14.8007 19.1414 14.8924" stroke="black" stroke-width="0.0255618"/>
<path d="M19.8133 13.5364C19.7951 13.5484 19.1537 14.3976 19.1537 14.3976" stroke="black" stroke-width="0.0255618"/>
<path d="M19.117 14.6662L19.0009 14.8068" stroke="black" stroke-width="0.0255618"/>
<path d="M18.8543 15.0208L18.6772 15.2529" stroke="black" stroke-width="0.0255618"/>
<path d="M18.8992 10.6824C18.8992 10.6824 18.8475 10.845 18.8992 10.9263C18.9509 11.0075 19.2761 11.6653 19.2761 11.6653C19.2761 11.6653 19.4979 11.3917 19.5791 11.3843C19.6604 11.3772 19.6234 12.0939 19.6234 12.0939C19.6234 12.0939 19.4904 12.2194 19.4092 12.212C19.3278 12.2046 19.6085 12.4929 19.6011 12.7368C19.5937 12.9807 19.2318 14.1926 19.0987 14.2145C18.9657 14.2368 19.1579 13.9929 19.1505 13.9265C19.1431 13.86 19.1061 13.9042 19.0766 13.8303C19.047 13.7565 19.1209 13.6455 19.1061 13.5717C19.0913 13.4978 19.0248 13.5126 19.0174 13.461C19.0101 13.4091 19.0618 13.3945 19.0544 13.3352C19.047 13.2762 18.9657 13.291 18.9731 13.2391C18.9805 13.1875 18.9879 13.2097 18.9805 13.1136C18.9731 13.0175 18.9584 13.18 18.8771 13.1875C18.7958 13.1949 18.7293 13.3797 18.7293 13.3797C18.7293 13.3797 18.5667 13.6087 18.4041 13.5052C18.5002 13.7122 18.4263 13.8009 18.3893 13.8081C18.3524 13.8155 18.4189 13.9707 18.3302 13.9781C18.2415 13.9855 18.3967 14.3255 18.2933 14.3551C18.4041 14.4068 18.3154 14.4732 18.3154 14.4732C18.3154 14.4732 18.0593 14.4947 18.1159 14.828C17.3622 14.5619 16.9927 14.1039 17.0001 13.6384C17.0075 13.1726 17.1553 12.7516 17.5174 12.5965C17.6208 12.212 17.7982 11.7982 17.7982 11.7982C17.7982 11.7982 17.7686 11.6282 17.7908 11.5175C17.813 11.4066 17.9164 11.2959 17.9164 11.2959C17.9164 11.2959 17.9016 11.0298 17.909 10.8969C17.9164 10.7637 17.9681 10.7046 17.9755 10.6308C17.9829 10.5569 17.9534 10.1799 18.0273 10.1134C18.1012 10.0469 18.2415 10.0543 18.3154 10.0101C18.3893 9.96564 18.4854 9.88436 18.5815 9.89177C18.6775 9.89918 18.7588 9.96564 18.7588 9.96564C18.7588 9.96564 19.1209 9.96564 19.1431 10.106C19.1652 10.2466 19.0692 10.2982 19.0692 10.2982C19.0692 10.2982 19.1209 10.4978 18.8992 10.6824Z" fill="#8A9396" stroke="#2B2B2B" stroke-width="0.0255618"/>
<path d="M18.5777 10.1704C18.5893 10.1919 18.5629 10.2286 18.5187 10.2525C18.4745 10.2765 18.4293 10.2785 18.4177 10.2571C18.4061 10.2356 18.4326 10.1989 18.4767 10.175C18.5209 10.151 18.5661 10.149 18.5777 10.1704Z" fill="#CECFCF" stroke="#2B2B2B" stroke-width="0.0255618"/>
<path d="M18.5164 10.2078C18.5164 10.2213 18.5041 10.2322 18.4889 10.2322C18.4738 10.2322 18.4615 10.2213 18.4615 10.2078C18.4615 10.1943 18.4738 10.1833 18.4889 10.1833C18.5041 10.1833 18.5164 10.1943 18.5164 10.2078Z" fill="black"/>
<path d="M19.0567 10.4524C19.0567 10.4524 19.1464 10.8532 19.0391 11.1298" stroke="#2B2B2B" stroke-width="0.0159762"/>
<path d="M19.0843 10.277C19.0843 10.277 19.2594 10.5086 19.2368 10.7967" stroke="#2B2B2B" stroke-width="0.0159762"/>
<path d="M19.1012 10.2261C19.1069 10.2261 19.2481 10.3504 19.2424 10.435" stroke="#2B2B2B" stroke-width="0.0159762"/>
<path d="M19.1351 10.1753C19.1351 10.1753 19.2312 10.243 19.2537 10.3107" stroke="#2B2B2B" stroke-width="0.0159762"/>
<path d="M19.0899 10.1356C19.0899 10.1356 18.7454 10.6949 18.7906 11.0451" stroke="black" stroke-width="0.0255618"/>
<path d="M19.1125 10.1188C19.1125 10.1188 18.655 10.39 18.5703 11.2767" stroke="#2B2B2B" stroke-width="0.0159762"/>
<path d="M19.0617 10.2826L18.881 10.4181" stroke="black" stroke-width="0.0255618"/>
<path d="M18.4008 11.3276C18.4008 11.3276 18.655 10.2714 19.1069 10.1188" stroke="#2B2B2B" stroke-width="0.0159762"/>
<path d="M19.282 11.6834C19.282 11.6834 19.525 11.3785 19.5814 11.3897C19.6379 11.401 19.6208 12.0957 19.6208 12.0957C19.6208 12.0957 19.4401 12.2312 19.4007 12.2256C19.3611 12.22 19.6039 12.5533 19.5983 12.6775C19.5927 12.8017 19.5871 12.8017 19.5871 12.8017C19.5871 12.8017 19.5871 12.7284 19.5306 12.6098C19.4741 12.4912 19.5078 12.3554 19.1408 12.0561C19.0504 11.8698 19.3215 12.1691 19.378 12.1238C19.4345 12.0789 19.2763 11.689 19.282 11.6834Z" fill="#2B2B2B" stroke="#2B2B2B" stroke-width="0.0255618"/>
<path d="M18.8502 9.96564C18.8502 9.96564 18.7481 9.9935 18.7342 10.0352C18.7202 10.0771 18.6599 10.1188 18.6274 10.1047C18.5949 10.0909 18.5346 10.0398 18.5346 10.0398" stroke="#2B2B2B" stroke-width="0.0255618"/>
<path d="M18.27 10.323C18.27 10.323 18.1169 10.4761 18.1911 10.4948C18.2654 10.5132 18.3443 10.3741 18.3443 10.3741C18.3443 10.3741 18.3443 10.6108 18.4093 10.5735C18.4743 10.5364 18.6645 10.402 18.6645 10.402C18.6645 10.402 18.7295 10.3971 18.7435 10.402C18.7574 10.4066 18.9198 10.5456 19.0266 10.4948C18.9663 10.6525 18.8966 10.6712 18.8966 10.6712C18.8966 10.6712 18.7852 10.8151 18.6414 10.7823C18.4975 10.7499 18.4603 10.6896 18.4603 10.6896C18.4603 10.6896 18.3397 10.699 18.3025 10.6433C18.2654 10.5876 18.2515 10.5551 18.2515 10.5551C18.2515 10.5551 18.1819 10.6246 18.1633 10.5922C18.1447 10.5597 18.1633 10.3693 18.27 10.323Z" fill="#2B2B2B" stroke="#2B2B2B" stroke-width="0.0319523" stroke-linejoin="round"/>
<path d="M19.138 10.1096C19.138 10.1096 18.8549 10.026 18.7574 10.1653C18.6599 10.3043 18.6831 10.3833 18.7342 10.3971" stroke="#2B2B2B" stroke-width="0.0255618"/>
<path d="M19.1817 10.1016C19.1817 10.135 19.1578 10.1621 19.1283 10.1621C19.0988 10.1621 19.0749 10.135 19.0749 10.1016C19.0749 10.0683 19.0988 10.0412 19.1283 10.0412C19.1578 10.0412 19.1817 10.0683 19.1817 10.1016Z" fill="black"/>
<path d="M18.3576 10.824C18.3576 10.824 18.4731 11.0017 18.6108 11.0505C18.7484 11.0993 18.5153 11.1415 18.3776 11.0484C18.2777 10.913 18.3044 10.8153 18.3044 10.8153C18.3044 10.8153 18.331 10.7885 18.3576 10.824Z" fill="#2B2B2B" stroke="#2B2B2B" stroke-width="0.0255618"/>
<path d="M19.3456 11.8721C19.3456 11.8721 19.0215 11.4214 18.9282 11.3969C18.835 11.3726 18.9993 11.3526 19.0992 11.448C19.1991 11.5433 19.0726 11.2926 19.0726 11.2926L19.3456 11.8721Z" fill="#2B2B2B" stroke="#2B2B2B" stroke-width="0.0255618"/>
<path d="M18.3266 14.4763C18.4509 14.4431 18.9926 14.7871 19.1147 14.8738C19.2368 14.9602 19.4922 14.9047 19.4922 14.9047C19.4922 14.9047 19.3744 14.9758 19.3012 14.9937C19.228 15.0113 19.5188 15.0113 19.5188 15.0113C19.5188 15.0113 18.8261 15.2023 18.1223 14.8316C18.0579 14.543 18.2733 14.4786 18.3266 14.4763Z" fill="#2B2B2B" stroke="#2B2B2B" stroke-width="0.0319523" stroke-linejoin="round"/>
<path d="M19.1192 11.983C19.1192 11.983 19.0282 11.9653 18.9815 11.9119C18.9349 11.8587 18.8683 11.7276 18.7995 11.6721C18.7306 11.6167 18.3865 11.428 18.2622 11.4413C18.1379 11.4546 18.1001 11.428 18.0846 11.4124C18.069 11.3968 18.018 11.4191 18.0269 11.4835C18.0357 11.5479 17.9314 11.69 17.9691 11.7565C18.0069 11.8232 18.1845 12.0939 18.22 12.1029C18.2555 12.1118 18.2333 12.2606 18.2333 12.2606C18.2333 12.2606 18.391 12.4203 18.4309 12.4293C18.4709 12.4382 18.5108 12.4671 18.5064 12.5047C18.502 12.5425 18.3332 12.7491 18.3332 12.7491C18.3332 12.7491 18.1512 12.8444 18.149 12.8978C18.1467 12.951 18.1934 13.0619 18.3377 13.0975C18.482 13.133 18.8705 13.1041 18.8905 13.0709C18.9105 13.0377 18.9416 12.8378 18.9282 12.8178C18.9149 12.7979 18.8194 12.7378 18.7706 12.7468C18.7218 12.7557 18.6774 12.7956 18.6818 12.8045C18.6862 12.8135 18.613 12.8511 18.613 12.8155C18.613 12.78 18.7573 12.6202 18.7706 12.6335C18.7839 12.6468 18.9882 12.6668 19.0259 12.769C19.0637 12.871 19.0637 12.9444 19.1702 12.9334C19.2768 12.9221 19.4255 12.8245 19.4388 12.6202C19.4521 12.416 19.319 12.2782 19.2857 12.2583C19.2524 12.2383 19.1414 12.1716 19.1325 12.1407C19.1236 12.1095 19.1014 12.0075 19.1192 11.983Z" fill="#2B2B2B" stroke="#2B2B2B" stroke-width="0.0255618"/>
<path d="M17.1987 12.8845C17.1987 12.8845 17.5429 12.7956 17.6317 12.7979C17.7205 12.7999 18.0557 12.9554 18.1534 13.051C18.2511 13.1463 18.4509 13.3728 18.5819 13.3528C18.7129 13.3329 18.7506 13.3063 18.7506 13.3063L18.6996 13.404C18.6996 13.404 18.593 13.4329 18.5397 13.4196C18.4864 13.4063 18.3821 13.3728 18.2777 13.2708C18.1734 13.1685 17.8515 12.8932 17.5784 12.9132C17.3053 12.9334 17.1477 13.202 17.1477 13.202C17.1477 13.202 17.1499 13.0709 17.161 13.042C17.1721 13.0131 17.1033 13.1041 17.1033 13.1041L17.1987 12.8845Z" fill="#2B2B2B" stroke="#2B2B2B" stroke-width="0.0255618"/>
<path d="M18.4664 13.1509C18.4687 13.1529 18.553 13.1752 18.6951 13.1752C18.8372 13.1752 18.9127 13.1131 18.9127 13.1131L18.9038 13.0576L18.926 12.9799C18.926 12.9799 19.0348 13.0908 19.0326 13.1131C19.0304 13.1353 18.9882 13.1443 18.9882 13.1443L18.9726 13.0908L18.9349 13.1376C18.9349 13.1376 18.7284 13.3017 18.6152 13.2774C18.502 13.2529 18.3976 13.1798 18.4265 13.1619C18.4553 13.1443 18.4709 13.1509 18.4664 13.1509Z" fill="#2B2B2B" stroke="#2B2B2B" stroke-width="0.0255618"/>
<path d="M17.9647 13.4418C17.9647 13.4418 17.8404 13.4395 17.7849 13.4661C17.7294 13.4927 17.7094 13.5261 17.6716 13.5215C17.6339 13.5172 17.605 13.4684 17.6161 13.4484C17.6317 13.4173 17.7049 13.3774 17.8448 13.3884C17.9847 13.3996 17.9647 13.4418 17.9647 13.4418Z" fill="#2B2B2B" stroke="#2B2B2B" stroke-width="0.0255618"/>
<path d="M18.3998 13.7792C18.3998 13.7726 18.391 13.5972 18.3221 13.5262C18.2533 13.4551 18.1689 13.4551 18.1312 13.4638C18.0935 13.4727 18.2711 13.5504 18.2888 13.6016C18.3066 13.6527 18.3643 13.7948 18.3488 13.8303C18.3332 13.8656 18.3044 13.7304 18.1956 13.6926C18.0868 13.6547 17.9358 13.6749 17.9669 13.7238C17.998 13.7726 18.1201 13.7281 18.1823 13.8324C18.2444 13.9367 18.2911 14.0479 18.2911 14.0479L18.311 13.9722L18.3665 13.9569L18.3732 13.8125L18.3998 13.7792Z" fill="#2B2B2B" stroke="#2B2B2B" stroke-width="0.0255618"/>
<path d="M18.311 14.3475L18.1978 14.121C18.1978 14.121 18.1623 13.9768 18.0668 13.9367C17.9714 13.8968 17.8448 13.9035 17.8426 13.9523C17.8404 14.0011 18.0468 14.0632 18.0602 14.0901C18.0735 14.1166 18.0668 14.1611 18.0491 14.1632C18.0313 14.1655 17.9403 14.1299 17.8936 14.1409C17.847 14.1522 17.8204 14.212 17.7516 14.1944C17.6827 14.1765 17.625 13.9569 17.6517 13.9346C17.6783 13.9124 17.6006 13.9745 17.585 13.9168C17.5695 13.859 17.6073 13.6793 17.5806 13.657C17.554 13.6348 17.4252 13.5571 17.423 13.5415C17.4208 13.5262 17.4296 12.6581 18.1556 13.3774C17.8448 13.0088 17.7227 13.0487 17.665 13.0466C17.6228 13.0466 17.3408 13.0709 17.2698 13.4306C17.1987 13.7902 17.1144 13.566 17.1144 13.566C17.1144 13.566 17.0988 13.7215 17.1743 13.7659C17.2498 13.8102 17.1388 13.939 17.1388 13.939C17.1388 13.939 17.0034 13.6082 17.0233 13.4638C16.9967 13.5793 16.9989 13.8656 17.1699 14.1788C17.3697 14.3896 17.5584 14.5852 18.0602 14.8048C18.3244 14.4009 18.311 14.3521 18.311 14.3475Z" fill="#2B2B2B" stroke="#2B2B2B" stroke-width="0.0319523" stroke-linejoin="round"/>
<path d="M17.8359 14.3498C17.8359 14.3498 17.9824 14.3674 18.0224 14.4431C18.0624 14.5185 18.0801 14.634 18.0801 14.634C18.1046 14.5852 18.1157 14.543 18.1645 14.5075C18.2133 14.4719 18.2489 14.4673 18.2467 14.4408C18.2444 14.4142 18.0912 14.2521 18.0135 14.2432C17.9358 14.2342 17.8004 14.3275 17.8004 14.3275C17.8004 14.3275 17.776 14.363 17.8359 14.3498Z" fill="#8A9396" stroke="#2B2B2B" stroke-width="0.0319523" stroke-linejoin="round"/>
<path d="M18.1706 14.7317C18.1706 14.7317 18.5504 14.9047 19.1758 14.916" stroke="#8A9396" stroke-width="0.0319523" stroke-linecap="round"/>
<path d="M19.4383 12.9689C19.4383 12.9689 19.4058 13.2877 19.1607 13.9165" stroke="#2B2B2B" stroke-width="0.0319523" stroke-linecap="round"/>
<path d="M19.3895 13.1649C19.3895 13.1649 19.3159 13.3937 19.1116 13.5652" stroke="#2B2B2B" stroke-width="0.0255618"/>
</g>
<defs>
<linearGradient id="paint0_linear_10625_5985" x1="22.0642" y1="8.57133" x2="22.0757" y2="7.82042" gradientUnits="userSpaceOnUse">
<stop stop-color="#474747"/>
<stop offset="1" stop-color="#FF5500"/>
</linearGradient>
<linearGradient id="paint1_linear_10625_5985" x1="21.8071" y1="11.3951" x2="21.8086" y2="11.8211" gradientUnits="userSpaceOnUse">
<stop stop-color="#B50000"/>
<stop offset="1" stop-color="#FFC500"/>
</linearGradient>
<linearGradient id="paint2_linear_10625_5985" x1="23.6721" y1="11.6543" x2="24.3667" y2="11.645" gradientUnits="userSpaceOnUse">
<stop stop-color="#D5DFFF"/>
<stop offset="1" stop-color="white"/>
</linearGradient>
<linearGradient id="paint3_linear_10625_5985" x1="21.931" y1="8.42883" x2="22.1798" y2="8.42883" gradientUnits="userSpaceOnUse">
<stop stop-color="#474747"/>
<stop offset="1" stop-color="#FF5500"/>
</linearGradient>
<linearGradient id="paint4_linear_10625_5985" x1="25.5472" y1="15.1458" x2="25.4257" y2="14.3902" gradientUnits="userSpaceOnUse">
<stop stop-color="#D5DFFF"/>
<stop offset="1" stop-color="white"/>
</linearGradient>
<linearGradient id="paint5_linear_10625_5985" x1="23.8412" y1="11.9137" x2="23.5313" y2="11.4133" gradientUnits="userSpaceOnUse">
<stop stop-color="#D5DFFF"/>
<stop offset="1" stop-color="white"/>
</linearGradient>
<clipPath id="clip0_10625_5985">
<rect width="28" height="20" fill="white"/>
</clipPath>
</defs>
</svg>
