<svg width="28" height="20" viewBox="0 0 28 20" fill="none" xmlns="http://www.w3.org/2000/svg">
<rect width="28" height="20" fill="white"/>
<rect width="28" height="20" fill="#FFBF19"/>
<path fill-rule="evenodd" clip-rule="evenodd" d="M10.6667 1.33334H25.3333C26.0697 1.33334 26.6667 1.93029 26.6667 2.66667V17.3333C26.6667 18.0697 26.0697 18.6667 25.3333 18.6667H10.6667V1.33334Z" fill="#A52531"/>
<path d="M1.33333 2.66667C1.33333 1.93029 1.93029 1.33334 2.66667 1.33334H5.33333V18.6667H2.66667C1.93029 18.6667 1.33333 18.0697 1.33333 17.3333V2.66667Z" fill="#03664F"/>
<rect x="5.33333" y="1.33334" width="4" height="17.3333" rx="0.666667" fill="#FF6816"/>
<path fill-rule="evenodd" clip-rule="evenodd" d="M13.3333 3.33333C13.3333 3.70152 13.0349 4 12.6667 4C12.2985 4 12 3.70152 12 3.33333V2.66666H12.6667C13.0349 2.66666 13.3333 2.96514 13.3333 3.33333ZM24 3.33333C24 3.70152 24.2985 4 24.6667 4C25.0349 4 25.3333 3.70152 25.3333 3.33333V2.66666H24.6667C24.2985 2.66666 24 2.96514 24 3.33333ZM24.6667 16C24.2985 16 24 16.2985 24 16.6667C24 17.0349 24.2985 17.3333 24.6667 17.3333H25.3333V16.6667C25.3333 16.2985 25.0349 16 24.6667 16ZM13.3333 16.6667C13.3333 16.2985 13.0349 16 12.6667 16C12.2985 16 12 16.2985 12 16.6667V17.3333H12.6667C13.0349 17.3333 13.3333 17.0349 13.3333 16.6667Z" fill="#FFBF18"/>
<path fill-rule="evenodd" clip-rule="evenodd" d="M16 12.5736C16 12.2568 15.7432 12 15.4264 12C15.3648 12 15.3037 11.9902 15.2456 11.9694C14.8599 11.8315 13.3333 11.2491 13.3333 10.6667C13.3333 10.3018 13.533 9.93698 13.7138 9.68141C13.8712 9.45888 13.9298 9.16971 13.8332 8.91482C13.6066 8.31685 13.2397 7.22835 13.3333 6.66667C13.3832 6.36753 13.5824 6.10559 13.8122 5.89489C14.1678 5.56879 14.6667 5.87698 14.6667 6.3595V8.92131C14.6667 9.17383 14.8093 9.40467 15.0352 9.5176L15.7117 9.85585C15.8839 9.94194 16.0918 9.90819 16.2279 9.77208C16.4438 9.55624 16.3847 9.19236 16.1117 9.05585L15.3333 8.66667V8C15.6655 8 15.7712 7.55226 15.4741 7.40372L15.3333 7.33334V6.66667H16.3905C16.5673 6.66667 16.7369 6.59643 16.8619 6.47141L17.1381 6.19526C17.2631 6.07024 17.4327 6 17.6095 6H18.2546C18.5072 6 18.738 6.14267 18.8509 6.36853L19.2098 7.08635C19.2889 7.24449 19.3019 7.42757 19.246 7.59531L18.9592 8.45585C18.8153 8.88754 19.1366 9.33334 19.5916 9.33334H21.7832C21.922 9.33334 22.0551 9.2782 22.1533 9.18006C22.4058 8.92749 22.3367 8.50171 22.0173 8.34197L21.4741 8.07038C21.3815 8.0241 21.2795 8 21.176 8H20.6667C20.2985 8 20 7.70153 20 7.33334V6.94281C20 6.766 20.0702 6.59643 20.1953 6.47141L20.6667 6V6.66667C20.6667 7.03486 20.9651 7.33334 21.3333 7.33334H22.2546C22.5072 7.33334 22.738 7.476 22.8509 7.70186L23.2799 8.55974C23.3152 8.63046 23.3378 8.70657 23.3449 8.78532C23.3756 9.12087 23.4487 10.0897 23.3333 10.6667C23.2398 11.1342 22.978 11.5669 22.8117 11.8061C22.7223 11.9347 22.6667 12.0858 22.6667 12.2424V14.1574C22.6667 14.4387 22.4387 14.6667 22.1574 14.6667C21.7788 14.6667 21.5325 14.2682 21.7019 13.9296L21.9296 13.4741C21.9739 13.3855 21.9739 13.2812 21.9296 13.1926L21.8981 13.1296C21.7574 12.8482 21.3333 12.9483 21.3333 13.263C21.3333 13.3092 21.3226 13.3549 21.3019 13.3963L20.8315 14.3371C20.7305 14.5391 20.524 14.6667 20.2981 14.6667C19.8549 14.6667 19.5666 14.2002 19.7648 13.8037L19.9296 13.4741C19.9759 13.3815 20 13.2795 20 13.176V12.6667C20 12.2985 19.7015 12 19.3333 12H18C17.6318 12 17.3333 12.2985 17.3333 12.6667V13.176C17.3333 13.2795 17.3092 13.3815 17.263 13.4741L16.8315 14.3371C16.7305 14.5391 16.524 14.6667 16.2981 14.6667C15.8549 14.6667 15.5666 14.2002 15.7648 13.8037L15.9296 13.4741C15.9759 13.3815 16 13.2795 16 13.176V12.5736Z" fill="#FFBF18"/>
</svg>
