<svg width="28" height="20" viewBox="0 0 28 20" fill="none" xmlns="http://www.w3.org/2000/svg">
<g clip-path="url(#clip0_10625_1316)">
<rect width="28" height="20" fill="white"/>
<rect width="28" height="20" fill="#012169"/>
<path d="M0 -0.333333H-0.901086L-0.21693 0.253086L4.33333 4.15331V5.16179L-0.193746 8.39542L-0.333333 8.49513V8.66667V9.33333V9.93475L0.176666 9.616L5.42893 6.33333H6.55984L11.0821 9.56351C11.176 9.6306 11.2886 9.66667 11.404 9.66667C11.9182 9.66667 12.1548 9.02698 11.7644 8.69237L7.66667 5.18002V4.17154L12.0542 1.03762C12.2294 0.912475 12.3333 0.710428 12.3333 0.495127V0V-0.601416L11.8233 -0.282666L6.57107 3H5.44016L0.860413 -0.271244L0.773488 -0.333333H0.666667H0Z" fill="#FF2E3B" stroke="white" stroke-width="0.666667"/>
<path fill-rule="evenodd" clip-rule="evenodd" d="M0 3.33333V6H4.66667V9.33333C4.66667 9.70152 4.96514 10 5.33333 10H6.66667C7.03486 10 7.33333 9.70152 7.33333 9.33333V6H12C12.3682 6 12.6667 5.70152 12.6667 5.33333V4C12.6667 3.63181 12.3682 3.33333 12 3.33333H7.33333V0H4.66667V3.33333H0Z" fill="white"/>
<path fill-rule="evenodd" clip-rule="evenodd" d="M0 4H5.33333V3.33333V0H6.66667V3.33333V4H12V5.33333H6.66667V6V9.33333H5.33333V6V5.33333H0V4Z" fill="#FF2E3B"/>
<path d="M18.4373 11.322C18.1069 11.6018 17.792 12.0106 17.7146 12.3803C17.4967 13.4199 17.2076 13.6512 16.7616 13.4282C16.7616 13.9867 17.251 14.0291 17.4658 13.7028C17.4658 14.2263 17.6557 14.6805 18.0842 15.0677C18.2649 15.2308 18.2989 15.1193 18.2133 14.9387C18.1276 14.758 18.1276 14.1746 17.9562 13.8401C18.2308 14.0373 18.6345 13.9258 18.6004 13.3848C18.2484 13.5913 17.8984 13.5831 17.8622 13.0926C17.8178 12.5176 18.0419 11.6823 18.4373 11.322Z" fill="#F7E017" stroke="black" stroke-width="0.02"/>
<path d="M18.0192 7.18704C18.0429 6.98055 17.9985 6.7689 17.8478 6.63571C17.5566 6.37966 17.2717 6.46432 17.059 6.67081C16.741 6.49943 16.5727 7.10754 16.2124 7.00533C16.2723 7.20252 16.3672 7.28822 16.5469 7.22008C16.3579 7.39146 16.5469 7.59795 16.3239 7.80341C16.7276 7.93247 16.9423 7.70946 16.9248 7.32229C17.0796 7.4596 17.3192 7.45134 17.4482 7.29648C17.2335 7.2273 17.2324 7.04146 17.3192 6.86698C17.4482 6.6099 18.0532 6.62022 18.0192 7.18704Z" fill="#F7E017" stroke="black" stroke-width="0.02"/>
<path d="M18.9504 10.1739C18.4951 10.4145 17.663 10.3112 17.5855 9.71859C17.5081 9.12597 18.0832 8.85959 18.238 8.78319C18.4786 8.6624 18.6675 8.87715 18.5901 9.127C18.8565 9.03305 18.9164 8.72331 18.7873 8.54367C19.1394 8.56948 19.4656 8.3031 19.6029 7.92523C19.4791 8.04293 19.1425 7.96343 18.8658 7.94588C18.9515 7.85192 18.9504 7.66815 18.9246 7.57316C18.6335 7.87257 18.2122 7.73526 17.6547 8.60252C17.7404 8.30207 17.9035 7.70119 17.9985 7.30576C18.0078 7.26653 18.015 7.22729 18.0202 7.18703C18.0532 6.62021 17.4493 6.60989 17.3202 6.868C17.4616 7.027 17.3873 7.21284 17.3367 7.4947C17.2768 7.82921 17.1478 8.60251 17.0363 8.85959C17.0022 8.45591 16.7358 8.4301 16.6842 8.2329C16.6068 8.28452 16.5644 8.42184 16.581 8.51579C16.486 8.41254 16.1597 8.5416 16.04 8.38673C15.9109 8.64381 16.1174 8.90193 16.3321 9.01343C16.2072 9.02169 16.1773 9.17243 16.04 9.17243C16.2248 9.38718 16.4137 9.47287 16.6326 9.49042C16.8515 9.50797 17.0146 9.58954 17.1478 9.85488C17.3625 10.2854 18.1802 10.5642 18.9504 10.1739Z" fill="#337321" stroke="black" stroke-width="0.02"/>
<path d="M20.0841 9.64942C19.827 10.3618 19.1228 10.8687 18.8049 10.9462C18.2639 11.0773 17.1612 11.6131 16.8659 11.8888C16.8195 11.8785 16.7761 11.862 16.7441 11.8392C16.5985 11.736 16.4777 11.4015 16.7358 11.1176C17.5432 10.3618 18.4105 10.6881 18.9515 10.1729C18.4962 10.4134 17.664 10.3102 17.5866 9.71756C18.0759 9.84661 18.9608 9.85487 19.6639 9.09912C19.7578 9.2034 20.0324 9.52965 20.0841 9.64942Z" fill="#F7E017" stroke="black" stroke-width="0.02"/>
<path d="M18.4373 11.322C18.0295 11.6678 17.8178 12.5175 17.8612 13.0926C17.8736 13.2526 17.918 13.3611 17.9861 13.4271C18.0161 13.1009 18.2432 12.2574 18.8224 11.8816C19.3118 11.5636 20.0758 10.8512 20.3597 10.0355C20.3081 9.88996 20.2224 9.78672 20.0593 9.68347C19.7774 10.4537 19.0248 10.8233 18.4373 11.322Z" fill="#337321" stroke="black" stroke-width="0.02"/>
<path d="M19.8218 9.31901C19.6762 9.53789 19.3448 9.83833 19.0279 9.95913C19.096 9.8817 19.1177 9.78362 19.1218 9.70205C18.7181 9.85692 17.9108 9.83937 17.5845 9.7196C18.0739 9.84866 18.9587 9.85692 19.6618 9.10117C19.732 9.17757 19.7919 9.24571 19.8218 9.31901Z" fill="#316D3A" stroke="black" stroke-width="0.02"/>
<path d="M16.7358 11.1176C16.0792 11.7319 16.5128 12.2677 16.7699 12.3885C16.7018 12.818 17.1044 12.7664 17.0962 13.1267C17.2593 13.0327 17.3026 12.7829 17.2768 12.5857C17.4833 12.8087 18.0068 12.5599 18.1183 12.9718C18.1875 12.5165 17.8354 12.0622 17.3976 12.1046C17.5783 11.9414 17.4751 11.6751 17.3037 11.6069C17.2696 11.9414 16.8917 11.9414 16.7451 11.8392C16.5985 11.736 16.4777 11.4015 16.7358 11.1176Z" fill="#337321" stroke="black" stroke-width="0.02"/>
<path d="M18.1565 15.0243C18.0852 15.0656 18.0904 15.1575 18.1348 15.2174C18.2246 15.3372 18.0708 15.6097 18.3619 15.6686C18.4476 15.6861 18.5137 15.6335 18.5467 15.5354C18.6366 15.2649 18.3495 15.235 18.3237 15.1059C18.2979 14.9769 18.2164 14.9903 18.1565 15.0243Z" fill="#F7E017" stroke="black" stroke-width="0.02"/>
<path d="M18.4012 15.5313C18.3051 15.5757 18.2205 15.6387 18.2597 15.9474C18.2752 16.0754 18.268 16.3851 18.1565 16.3892C18.2246 16.4233 18.3712 16.4605 18.4311 16.381C18.4889 16.478 18.62 16.4502 18.6717 16.3294C18.7398 16.3851 18.8348 16.2912 18.8348 16.2096C18.8947 16.2478 19.0155 16.192 18.9845 16.0083C19.0578 16.0341 19.1517 15.9825 19.1858 15.935C19.0784 15.9133 18.8079 15.7677 18.7439 15.6521C18.6799 15.5354 18.5127 15.4797 18.4012 15.5313Z" fill="#F7E017" stroke="black" stroke-width="0.02"/>
<path d="M16.9134 6.84736C16.9568 6.78334 17.0053 6.72346 17.059 6.67081" stroke="black" stroke-width="0.02"/>
<path d="M18.5468 7.98408C18.6221 7.94071 18.7378 7.93555 18.8658 7.94381" stroke="black" stroke-width="0.02"/>
<path d="M18.4311 16.381C18.4012 16.3376 18.3898 16.158 18.4115 16.0485" stroke="black" stroke-width="0.02"/>
<path d="M18.6717 16.3294C18.6242 16.2933 18.5343 16.1683 18.5189 16.0589" stroke="black" stroke-width="0.02"/>
<path d="M18.8348 16.2096C18.7749 16.1817 18.6283 15.9928 18.5963 15.871" stroke="black" stroke-width="0.02"/>
<path d="M18.9845 16.0072C18.9133 15.9917 18.6965 15.8503 18.6066 15.7006" stroke="black" stroke-width="0.02"/>
<path d="M22.9429 11.1268C23.9991 12.0116 24.0673 12.7147 23.9041 13.1277C23.8184 12.7416 23.3807 12.1407 22.9254 11.9858L22.9429 11.1268Z" fill="#F7E017" stroke="black" stroke-width="0.02"/>
<path d="M21.0546 10.6282H23.0121C23.0121 10.6282 23.0121 11.1434 23.0121 12.946C23.0121 14.9211 21.9136 16.0888 20.7964 16.7062C19.6804 16.0878 18.5808 14.9201 18.5808 12.946C18.5808 11.1434 18.5808 10.6282 18.5808 10.6282H19.955C19.9571 10.7479 19.9684 10.9286 20.1099 11.1093C20.4341 11.0773 20.8006 10.8347 21.0546 10.6282Z" fill="#337321" stroke="black" stroke-width="0.02"/>
<path d="M23.0121 10.6282C23.0121 10.6282 23.0121 11.1434 23.0121 12.946C23.0121 13.5417 22.9119 14.0652 22.7416 14.5205L20.7975 10.9534L18.8534 14.5205C18.683 14.0642 18.5829 13.5417 18.5829 12.946C18.5829 11.1434 18.5829 10.6282 18.5829 10.6282H23.0121Z" fill="#006EC7" stroke="black" stroke-width="0.02"/>
<path d="M22.8004 14.3502C22.7664 14.4555 22.7034 14.6258 22.6559 14.7311L20.7975 11.2766L18.9391 14.7311C18.8905 14.6258 18.8286 14.4555 18.7945 14.3502L20.7985 10.6354L22.8004 14.3502Z" fill="#F7E017"/>
<path d="M21.6802 15.6211C21.7318 15.6469 21.8268 15.6944 21.8692 15.712C21.9724 15.5055 21.9889 15.2143 21.9548 14.9562C21.8433 15.2401 21.4655 15.2308 21.3622 15.4022C21.4252 15.4342 21.4841 15.4755 21.5346 15.5117C21.4056 15.6407 21.1041 15.8565 20.9327 15.9081V14.0662C20.9327 13.9372 20.8894 13.8298 20.8894 13.7224C20.8894 13.7224 20.8894 13.4271 20.8894 13.3414C20.8894 13.2558 20.8718 13.1308 20.7954 13.1308C20.718 13.1308 20.7015 13.2558 20.7015 13.3414C20.7015 13.4271 20.7015 13.7224 20.7015 13.7224C20.7015 13.8298 20.6581 13.9547 20.6581 14.0662V15.9081C20.5641 15.6335 20.1935 15.7274 20.0221 15.4528C20.0892 15.4363 20.1605 15.4311 20.2286 15.4445C20.0995 15.0068 19.7475 14.9727 19.6793 14.8437C19.6793 15.0243 19.6019 15.4445 19.7227 15.6252C19.7495 15.5932 19.7898 15.5591 19.8394 15.5302C19.9849 15.8482 20.6416 15.8493 20.7964 16.3727C20.9203 16.1797 21.3674 15.9566 21.6802 15.6211Z" fill="#F7E017" stroke="black" stroke-width="0.02"/>
<path d="M20.7964 14.089C20.942 14.089 21.4056 14.0415 21.5739 14.0415C21.6172 14.0415 21.6534 13.9764 21.6534 13.8959C21.6534 13.8154 21.6183 13.7503 21.5739 13.7503C21.4066 13.7503 20.9431 13.7028 20.7964 13.7028C20.6509 13.7028 20.1873 13.7503 20.019 13.7503C19.9756 13.7503 19.9395 13.8154 19.9395 13.8959C19.9395 13.9764 19.9746 14.0415 20.019 14.0415C20.1873 14.0415 20.6509 14.089 20.7964 14.089Z" fill="#F7E017" stroke="black" stroke-width="0.02"/>
<path d="M20.7025 13.3342C20.6715 13.3094 20.6313 13.294 20.5858 13.294C20.4888 13.294 20.4093 13.3662 20.4093 13.455C20.4093 13.5438 20.4877 13.6161 20.5858 13.6161C20.6829 13.6161 20.7613 13.5438 20.7613 13.455C20.7613 13.3858 20.8615 13.3858 20.8615 13.455C20.8615 13.5944 20.7376 13.7069 20.5858 13.7069C20.433 13.7069 20.3102 13.5944 20.3102 13.455C20.3102 13.3156 20.4341 13.2031 20.5858 13.2031C20.6313 13.2031 20.6746 13.2134 20.7128 13.231C20.7097 13.2537 20.7025 13.297 20.7025 13.3342Z" fill="#F7E017" stroke="black" stroke-width="0.02"/>
<path d="M20.02 14.0415C20.0634 14.0415 20.0985 13.9764 20.0985 13.8959C20.0985 13.8153 20.0634 13.7503 20.02 13.7503" fill="#F7E017"/>
<path d="M20.02 14.0415C20.0634 14.0415 20.0985 13.9764 20.0985 13.8959C20.0985 13.8153 20.0634 13.7503 20.02 13.7503" stroke="black" stroke-width="0.02"/>
<path d="M20.0841 14.0415C20.1274 14.0415 20.1625 13.9764 20.1625 13.8959C20.1625 13.8153 20.1274 13.7503 20.0841 13.7503" fill="#F7E017"/>
<path d="M20.0841 14.0415C20.1274 14.0415 20.1625 13.9764 20.1625 13.8959C20.1625 13.8153 20.1274 13.7503 20.0841 13.7503" stroke="black" stroke-width="0.02"/>
<path d="M20.5084 14.0714C20.561 14.0714 20.6034 13.9929 20.6034 13.8959C20.6034 13.7988 20.561 13.7204 20.5084 13.7204" fill="#F7E017"/>
<path d="M20.5084 14.0714C20.561 14.0714 20.6034 13.9929 20.6034 13.8959C20.6034 13.7988 20.561 13.7204 20.5084 13.7204" stroke="black" stroke-width="0.02"/>
<path d="M20.6065 14.0786C20.6612 14.0786 20.7056 13.996 20.7056 13.8948C20.7056 13.7937 20.6612 13.7111 20.6065 13.7111" fill="#F7E017"/>
<path d="M20.6065 14.0786C20.6612 14.0786 20.7056 13.996 20.7056 13.8948C20.7056 13.7937 20.6612 13.7111 20.6065 13.7111" stroke="black" stroke-width="0.02"/>
<path d="M20.9369 14.0807C20.9926 14.0807 21.037 13.9971 21.037 13.8949C21.037 13.7926 20.9916 13.709 20.9369 13.709" fill="#F7E017"/>
<path d="M20.9369 14.0807C20.9926 14.0807 21.037 13.9971 21.037 13.8949C21.037 13.7926 20.9916 13.709 20.9369 13.709" stroke="black" stroke-width="0.02"/>
<path d="M21.0401 14.0755C21.0948 14.0755 21.1392 13.995 21.1392 13.8959C21.1392 13.7967 21.0948 13.7162 21.0401 13.7162" fill="#F7E017"/>
<path d="M21.0401 14.0755C21.0948 14.0755 21.1392 13.995 21.1392 13.8959C21.1392 13.7967 21.0948 13.7162 21.0401 13.7162" stroke="black" stroke-width="0.02"/>
<path d="M21.5016 14.0435C21.546 14.0435 21.5821 13.9774 21.5821 13.8948C21.5821 13.8122 21.546 13.7462 21.5016 13.7462" fill="#F7E017"/>
<path d="M21.5016 14.0435C21.546 14.0435 21.5821 13.9774 21.5821 13.8948C21.5821 13.8122 21.546 13.7462 21.5016 13.7462" stroke="black" stroke-width="0.02"/>
<path d="M19.8394 15.5303C19.892 15.4983 19.956 15.4693 20.0231 15.4539L19.8394 15.5303Z" fill="#F7E017"/>
<path d="M19.8394 15.5303C19.892 15.4983 19.956 15.4693 20.0231 15.4539" stroke="black" stroke-width="0.02"/>
<path d="M21.5863 15.5478C21.5708 15.5364 21.5532 15.5251 21.5357 15.5117L21.5863 15.5478Z" fill="#F7E017"/>
<path d="M21.5863 15.5478C21.5708 15.5364 21.5532 15.5251 21.5357 15.5117" stroke="black" stroke-width="0.02"/>
<path d="M21.6802 15.6211C21.8 15.4921 21.9001 15.3465 21.9559 15.1792L21.6802 15.6211Z" fill="#F7E017"/>
<path d="M21.6802 15.6211C21.8 15.4921 21.9001 15.3465 21.9559 15.1792" stroke="black" stroke-width="0.02"/>
<path d="M20.4031 12.2677C20.4031 12.2254 20.4372 12.2078 20.4774 12.1779C20.526 12.1418 20.5456 12.1242 20.5889 12.1242H21.1526C21.1939 12.1242 21.2043 12.1345 21.2043 12.1738V12.9388C21.2043 12.977 21.195 12.9884 21.1526 12.9884H20.4031V12.2595" fill="white"/>
<path d="M20.4031 12.2677C20.4031 12.2254 20.4372 12.2078 20.4774 12.1779C20.526 12.1418 20.5456 12.1242 20.5889 12.1242H21.1526C21.1939 12.1242 21.2043 12.1345 21.2043 12.1738V12.9388C21.2043 12.977 21.195 12.9884 21.1526 12.9884H20.4031V12.2595" stroke="black" stroke-width="0.02"/>
<path d="M21.0133 13.0554C21.0876 13.0554 21.0742 13.0534 21.1258 13.0018C21.1805 12.9481 21.1754 12.9522 21.1754 12.9026V12.2016C21.1754 12.1655 21.1661 12.1552 21.1279 12.1552H20.6065C20.5652 12.1552 20.5476 12.1717 20.5032 12.2057C20.4661 12.2336 20.4351 12.2512 20.4351 12.2904V13.0554H21.0133Z" fill="#E5E5E5" stroke="black" stroke-width="0.02"/>
<path d="M21.069 13.039C21.069 13.0772 21.0597 13.0885 21.0174 13.0885H20.4537C20.4114 13.0885 20.4031 13.0782 20.4031 13.039V12.2729C20.4031 12.2347 20.4124 12.2233 20.4537 12.2233H21.0174C21.0597 12.2233 21.069 12.2337 21.069 12.2729V13.039Z" fill="white" stroke="black" stroke-width="0.02"/>
<path d="M22.1613 10.1791C22.2708 10.3019 22.3069 10.4661 22.247 10.6272H22.0839C22.152 10.4207 22.1097 10.2245 21.8175 10.1987C21.3808 10.1605 20.8728 11.0061 20.1088 11.1083C19.8858 10.8419 19.8972 10.335 20.1811 10.0944C20.0345 9.67213 19.7258 9.20753 19.511 9.00724C19.3706 8.98452 19.2085 8.97317 19.1042 8.97936C19.2158 8.7388 19.5337 8.48585 19.7919 8.38261C19.8332 8.32169 19.8786 8.26284 19.9199 8.21019C19.9457 7.8798 21.5171 8.03467 21.8516 8.24013C21.8526 8.61078 21.9982 9.84455 22.1613 10.1791Z" fill="#96877D" stroke="black" stroke-width="0.02"/>
<path d="M20.2575 10.4052C20.2203 9.83318 19.9891 9.36135 19.6638 9.04026C19.8187 9.08362 20.1357 9.08362 20.3504 8.92875C20.6333 8.73982 21.3726 8.40943 21.6431 8.55088C21.6647 8.59837 21.6771 8.70575 21.6606 8.77389C21.5966 8.6025 20.8832 8.86784 20.6818 8.9494C20.4888 9.03923 20.4031 9.16002 20.4712 9.43053C20.3597 9.33657 20.3979 9.24572 20.2823 9.17757C20.3287 9.28908 20.3669 9.49041 20.3804 9.65353C20.337 9.5379 20.2606 9.28908 20.0923 9.14247C20.2379 9.42536 20.3649 10.1057 20.305 10.4671C20.4206 10.4671 20.6767 10.3535 20.7789 10.272C20.6891 10.401 20.4289 10.4909 20.2616 10.5249C20.1863 10.6147 20.1346 10.847 20.1388 10.9761C20.1274 10.8171 20.177 10.4299 20.2575 10.4052Z" fill="black"/>
<path d="M22.1613 10.1791C22.0189 10.0211 21.7535 9.93541 21.4149 10.0273C21.4665 10.0015 21.578 9.95812 21.6771 9.94161C21.6647 9.85178 21.5832 9.46461 21.5698 9.37066L21.6647 9.33246C21.7122 9.56476 21.7721 9.8301 21.8103 9.93748C21.8403 9.94574 21.9094 9.95916 21.9693 9.9891C21.9435 9.89928 21.7979 9.2509 21.8021 9.18172L21.9311 9.11255C21.9817 9.46461 22.0633 9.97568 22.1613 10.1791Z" fill="black"/>
<path d="M22.0849 10.6282C22.1531 10.4217 22.1108 10.2255 21.8186 10.1997C21.5925 10.1801 21.3467 10.4 21.0566 10.6282H22.0849Z" fill="#96877D" stroke="black" stroke-width="0.02"/>
<path d="M20.1873 8.77805C20.0583 8.7956 19.7712 8.76979 19.6246 8.72229C19.6329 8.68306 19.6484 8.64383 19.667 8.60046C19.5771 8.66035 19.4057 8.77805 19.3407 8.85961C19.5472 8.90297 19.9726 8.92465 20.1873 8.77805Z" fill="#96877D" stroke="black" stroke-width="0.02"/>
<path d="M20.1821 10.0954C20.2296 10.2327 20.2606 10.3649 20.2647 10.4826" stroke="black" stroke-width="0.02"/>
<path d="M19.7929 8.38364C19.7155 8.49721 19.6473 8.61903 19.6246 8.72228C19.7702 8.76977 20.0582 8.79558 20.1873 8.77803" stroke="black" stroke-width="0.02"/>
<path d="M19.5121 9.00826C19.5678 9.01756 19.6195 9.02788 19.6639 9.04027C19.8187 9.08363 20.1357 9.08363 20.3504 8.92877C20.5652 8.7739 21.1485 8.29381 21.8103 8.24219" stroke="black" stroke-width="0.02"/>
<path d="M19.3417 8.85958C19.5482 8.90294 19.9736 8.92359 20.1873 8.77802C20.685 8.43937 21.1661 8.24114 21.6472 8.21533" stroke="black" stroke-width="0.02"/>
<path d="M22.9429 11.1268C23.6636 11.6245 24.1963 12.1056 24.3512 12.8779C24.506 13.6501 24.7982 13.8566 25.1585 13.6501C25.0728 14.0962 24.6258 14.1478 24.2489 13.805C24.283 14.3202 24.0776 14.9386 23.5448 15.1616C23.5107 14.8529 23.7152 14.6083 23.6563 14.3543C23.6305 14.2428 23.6223 13.9847 23.7678 13.8649C23.4849 13.9588 23.0379 13.7792 22.9956 13.358C23.3218 13.5128 23.742 13.5386 23.9051 13.1257C24.0672 12.7147 23.9991 12.0106 22.9429 11.1268Z" fill="#337321" stroke="black" stroke-width="0.02"/>
<path d="M23.8535 7.10857C24.0766 6.52523 24.6609 6.58512 24.8581 6.83394C25.4332 6.50768 25.5106 7.24588 26 7.10031C25.9917 7.23762 25.8286 7.36668 25.6479 7.35739C25.8369 7.52877 25.5705 7.78689 25.9742 7.94072C25.6304 8.11211 25.1503 7.93246 25.0212 7.4596C24.9097 7.68261 24.5061 7.68261 24.3429 7.50296C24.695 7.40901 24.6692 7.08276 24.472 6.9537C24.2727 6.82361 23.9217 6.87627 23.8535 7.10857Z" fill="#337321" stroke="black" stroke-width="0.02"/>
<path d="M22.1118 8.39394C22.2718 8.91016 22.6032 9.39128 22.9605 9.71857C23.3724 10.0964 23.995 10.0015 24.3429 9.64113C24.3512 10.3597 23.6068 10.4155 23.1928 10.1904C23.01 10.0913 22.8624 10.1429 23.0379 10.3019C23.3043 10.5425 23.8866 10.7211 24.5742 10.8687C25.776 11.1258 25.3475 12.0798 24.9954 12.0705C25.0966 12.0684 25.1792 11.9631 25.0336 11.832C23.9908 10.8935 21.8702 11.2631 21.9043 9.16827C21.6813 9.71754 20.7624 9.50279 21.1919 8.85028C21.3292 8.96178 21.5698 8.97004 21.6389 8.79866C21.6926 8.66547 21.6575 8.43317 21.417 8.23287C21.4562 8.22978 21.5419 8.23287 21.5326 8.13376C21.5429 8.19158 21.5956 8.27727 21.7308 8.24836C21.769 8.30927 21.8103 8.34954 21.865 8.32786C21.8754 8.32373 21.9084 8.30721 21.895 8.2463C21.9053 8.36193 22.0406 8.4022 22.1118 8.39394Z" fill="#337321" stroke="black" stroke-width="0.02"/>
<path d="M23.1917 10.1904C23.6894 10.5167 24.2531 10.5167 24.7714 9.9158C24.9345 9.72686 25.1916 9.56373 25.3723 9.54618C25.553 9.52863 25.5437 9.35724 25.681 9.32317C25.5953 9.29736 25.5612 9.19411 25.4322 9.20754C25.7543 9.09603 25.6593 8.83792 25.8183 8.71402C25.6892 8.76152 25.4879 8.56845 25.3031 8.81314C25.3506 8.70164 25.2856 8.56845 25.2391 8.51683C25.2566 8.64588 24.9861 8.67169 24.9345 8.99795C24.9056 9.18069 24.8055 9.16933 24.7889 8.88644C24.7766 8.67892 24.6774 8.10488 24.5577 7.81373C24.4379 7.52155 24.41 7.12096 24.5732 7.06107C24.5484 7.01978 24.5143 6.98261 24.472 6.95576C24.2727 6.82568 23.9227 6.87833 23.8535 7.11063C23.6305 7.69397 24.2572 8.02951 24.2056 8.66447C24.1117 8.19264 23.3466 8.07184 23.3559 7.60827C23.1071 7.71978 23.1412 7.92627 23.2361 8.08939C23.0813 7.84883 22.7292 8.24426 22.4288 7.91801C22.3947 8.34751 22.7726 8.51063 23.0813 8.52715C22.9264 8.80178 23.1329 9.03408 23.3384 9.11049C23.3466 8.62936 24.3326 8.82656 24.3429 9.65149C24.3512 10.3536 23.5954 10.4134 23.1917 10.1904Z" fill="#F7E017" stroke="black" stroke-width="0.02"/>
<path d="M24.5742 10.8687C25.776 11.1258 25.3475 12.0798 24.9954 12.0705C24.7714 12.0653 24.5577 11.8774 24.5442 11.7143C24.2872 11.8516 24.3553 12.1221 24.5525 12.2295C24.0115 12.1655 23.7844 12.5217 23.7709 12.9119C23.8701 12.7313 24.1705 12.7189 24.282 12.7571C24.3935 12.7953 24.6816 12.8169 24.7972 12.6879C24.7022 12.7695 24.8571 12.9584 24.7239 13.104C25.1751 13.0864 25.3723 12.6662 25.2948 12.4814C25.8792 11.9507 25.7677 11.0835 24.5742 10.8687Z" fill="#F7E017" stroke="black" stroke-width="0.02"/>
<path d="M23.6594 14.948C23.7379 14.9965 23.7276 15.0997 23.6749 15.1648C23.5686 15.2949 23.7286 15.6056 23.4013 15.6583C23.3043 15.6738 23.233 15.6118 23.201 15.5014C23.1122 15.1957 23.4343 15.1751 23.4684 15.0316C23.5035 14.8891 23.5933 14.9067 23.6594 14.948Z" fill="#F7E017" stroke="black" stroke-width="0.02"/>
<path d="M23.3641 15.5024C23.4694 15.5561 23.5603 15.6304 23.5045 15.9732C23.4808 16.1156 23.4756 16.4615 23.6006 16.4708C23.5221 16.5059 23.3579 16.54 23.2939 16.4491C23.2248 16.5544 23.0802 16.5173 23.0276 16.381C22.9481 16.4398 22.8469 16.3304 22.851 16.2395C22.7818 16.2798 22.6507 16.2127 22.692 16.0083C22.6094 16.0341 22.5062 15.9721 22.47 15.9184C22.5908 15.8988 22.8985 15.7481 22.9759 15.6211C23.0523 15.4951 23.2413 15.4404 23.3641 15.5024Z" fill="#F7E017" stroke="black" stroke-width="0.02"/>
<path d="M23.2929 16.4501C23.328 16.4037 23.3487 16.2024 23.3291 16.0795" stroke="black" stroke-width="0.02"/>
<path d="M23.0276 16.382C23.0823 16.3438 23.1876 16.2086 23.2093 16.0867" stroke="black" stroke-width="0.02"/>
<path d="M22.85 16.2406C22.9181 16.2117 23.0895 16.0073 23.1308 15.872" stroke="black" stroke-width="0.02"/>
<path d="M22.691 16.0093C22.7705 15.9959 23.0193 15.8472 23.1256 15.683" stroke="black" stroke-width="0.02"/>
<path d="M21.9043 9.16931C21.8898 10.049 22.2553 10.495 22.7622 10.7841C22.5743 10.6715 22.6559 10.2854 22.4019 10.1605C22.4618 10.1563 22.5568 10.242 22.7065 10.208C22.6332 10.0448 22.5134 9.79601 22.2346 9.76194C22.3079 9.75368 22.4669 9.77949 22.5692 9.74026C22.4236 9.51621 22.0374 9.62359 21.9043 9.16931Z" fill="#F7E017" stroke="black" stroke-width="0.02"/>
<path d="M21.8134 8.33203C21.7824 8.32171 21.7566 8.29073 21.7308 8.25047C21.5956 8.27937 21.5429 8.19368 21.5326 8.13586C21.5408 8.23498 21.4562 8.23085 21.4159 8.23395C21.6575 8.43424 21.6926 8.66654 21.6389 8.79973C21.5698 8.97112 21.3302 8.96286 21.1919 8.85135C21.1743 9.21581 21.6472 9.3366 21.8186 8.87716C21.8186 8.9546 21.9177 8.94634 21.9435 9.04855C22.0653 8.85135 21.9724 8.56743 21.8134 8.33203Z" fill="#F7E017" stroke="black" stroke-width="0.02"/>
<path d="M21.0587 6.58925C20.8439 6.39205 20.7448 6.06167 20.7541 5.87273C20.7624 5.68379 20.8398 5.4773 21.1144 5.56402C21.0287 5.56402 21.0886 5.73541 20.9988 5.75296C21.0721 5.77877 21.1702 5.71889 21.1836 5.67966C21.2012 5.73954 21.3127 5.72302 21.3209 5.79116C21.3643 5.75709 21.3168 5.58984 21.2528 5.55473C21.3003 5.52892 21.3261 5.39574 21.3044 5.33172C21.261 5.33998 21.197 5.4009 21.1846 5.48659C21.2063 5.41742 21.1805 5.24603 21.0597 5.22022C21.0256 5.26771 21.0164 5.38335 21.0638 5.44736C20.9523 5.42155 20.7892 5.49485 20.75 5.5888C20.7582 5.47523 20.7748 5.31314 20.845 5.21093C20.8687 5.17686 20.8109 5.11697 20.7655 5.19854C20.6818 5.03541 20.4588 4.94972 20.3597 5.03128C20.2606 5.11284 20.1284 4.99308 20.0469 5.1211C19.9653 5.25016 19.6886 5.26358 19.7031 5.39987C19.7113 5.48143 19.6917 5.60739 19.6515 5.65282C19.5523 5.76432 19.6989 5.84588 19.7248 5.945C19.7072 5.61874 20.2265 4.98379 20.7469 5.23261C20.6994 5.31417 20.6581 5.4773 20.6436 5.6745C20.622 5.96668 20.6653 6.37863 20.9482 6.61919L21.0587 6.58925Z" fill="#337321" stroke="black" stroke-width="0.02"/>
<path d="M21.2125 5.56709C21.2094 5.48965 21.3436 5.38951 21.5233 5.39157C21.7401 5.39364 21.9074 5.59083 22.0808 5.57225C22.2543 5.55263 22.1686 5.64968 22.1324 5.6755C22.0963 5.70131 22.0746 5.73951 22.087 5.787C22.0994 5.83449 22.0777 5.86547 22.0075 5.82107C21.8526 5.72402 21.6988 5.85927 21.4944 5.78494C21.3199 5.71886 21.2177 5.68272 21.2125 5.56709Z" fill="#C8102E" stroke="black" stroke-width="0.02"/>
<path d="M20.3288 7.59381C20.2431 7.32331 19.9168 7.027 19.7578 6.95886L19.7496 6.81328C19.8353 6.77921 20.0417 6.61608 20.1357 6.52523C20.7799 6.83393 21.6555 6.39617 22.0591 5.94189L22.214 6.03585L22.1366 6.13909L22.055 6.09573C21.9559 6.21549 21.5873 6.5624 21.4758 6.6357C21.6255 6.6739 21.831 6.69971 21.8878 6.69661C22.2481 6.4385 22.531 6.20723 22.6683 6.18968L22.7839 6.34455L22.6807 6.41785L22.5991 6.37036C22.213 6.68836 21.7752 7.38319 21.6028 7.84676C21.3633 7.79514 20.5043 7.82921 20.3288 7.59381Z" fill="#96877D" stroke="black" stroke-width="0.02"/>
<path d="M21.4758 6.63569C21.4201 6.62124 21.3726 6.60575 21.3426 6.58923C21.2734 6.65325 21.1021 6.709 20.8832 6.71829" stroke="black" stroke-width="0.02"/>
<path d="M20.3628 7.49883C20.305 7.17877 20.3969 6.82464 20.56 6.71727C20.9162 6.9537 21.5264 6.9537 21.8867 6.69559" stroke="black" stroke-width="0.02"/>
<path d="M20.3628 7.33157C20.6374 7.32331 21.2342 7.36977 21.3798 7.39145C21.5253 7.41313 21.77 7.47301 21.736 7.54632" stroke="black" stroke-width="0.02"/>
<path d="M20.4898 7.28614L20.5693 7.20768L20.4898 7.12921L20.4113 7.20665L20.4898 7.28614Z" stroke="black" stroke-width="0.02"/>
<path d="M20.6767 5.6879C20.5776 5.55059 20.306 5.50722 20.2472 5.69203C20.2214 5.77359 20.1832 5.85929 20.1181 5.89852C20.0541 5.93672 20.0686 6.05442 20.0965 6.10501C20.1646 6.22994 20.1047 6.3497 20.2379 6.43127C20.2379 6.33215 20.3835 6.22994 20.5084 6.20413C20.6333 6.17831 20.8212 6.06681 20.847 5.94188C20.8739 5.81593 20.9173 5.71268 20.6767 5.6879Z" fill="#337321" stroke="black" stroke-width="0.02"/>
<path d="M20.0582 6.9238H20.0923L20.0934 7.15816C20.1006 7.16023 20.1078 7.16436 20.114 7.16849L20.3164 7.05182L20.3339 7.08176L20.1305 7.19946C20.1316 7.20669 20.1326 7.21495 20.1316 7.22218L20.3339 7.33884L20.3164 7.36878L20.1119 7.25315C20.1068 7.25831 20.0995 7.26347 20.0923 7.26554V7.49887H20.0582V7.26451C20.051 7.26244 20.0438 7.25831 20.0376 7.25418L19.8352 7.37085L19.8177 7.34091L20.0211 7.22321C20.02 7.21598 20.019 7.20772 20.02 7.20049L19.8177 7.08383L19.8352 7.05389L20.0386 7.17055C20.0438 7.16539 20.051 7.16023 20.0582 7.15816V6.9238Z" fill="#96877D" stroke="black" stroke-width="0.02"/>
<path d="M20.3639 7.49779C20.2906 7.57213 20.1883 7.61756 20.0748 7.61756C19.8497 7.61756 19.668 7.43584 19.668 7.21077C19.668 6.9857 19.8497 6.80399 20.0748 6.80399C20.2069 6.80399 20.3236 6.86696 20.3979 6.96402C20.3773 7.01564 20.3525 7.13024 20.3504 7.18186C20.336 7.04145 20.2183 6.93201 20.0737 6.93201C19.9199 6.93201 19.796 7.05694 19.796 7.20974C19.796 7.36357 19.9209 7.48747 20.0737 7.48747C20.2018 7.48747 20.3133 7.39764 20.3453 7.27891C20.3463 7.3326 20.3484 7.45546 20.3639 7.49779Z" fill="#96877D" stroke="black" stroke-width="0.02"/>
<path d="M19.9034 7.88496C19.8776 7.85502 19.8301 7.77346 19.8353 7.71358C19.8735 7.70945 19.9468 7.73526 19.9808 7.76933C19.9767 7.72597 19.9592 7.63201 19.9684 7.58865C20.0159 7.6062 20.114 7.66195 20.1491 7.72597C20.1409 7.6826 20.1233 7.5711 20.1409 7.50296C20.1925 7.5329 20.2782 7.61446 20.2957 7.67021C20.2999 7.58452 20.3298 7.44307 20.3556 7.40797C20.3938 7.44617 20.4547 7.48128 20.4929 7.5329C20.5012 7.46372 20.5363 7.38216 20.5869 7.36151C20.6251 7.40487 20.686 7.50296 20.6984 7.61446C20.7366 7.60207 20.7882 7.53703 20.8099 7.50296C20.8316 7.53703 20.8533 7.59691 20.8398 7.67021C20.8873 7.62685 20.9431 7.56697 20.9555 7.51535C20.9895 7.54116 21.0546 7.60517 21.0711 7.67434C21.0628 7.61859 21.067 7.51948 21.0494 7.46372C21.1134 7.49779 21.1651 7.55768 21.1785 7.62272C21.196 7.56284 21.2342 7.45546 21.2683 7.42965C21.3024 7.49883 21.3375 7.58039 21.3323 7.64853C21.354 7.60517 21.3881 7.52877 21.4221 7.51122C21.4521 7.55871 21.4479 7.66195 21.4397 7.71771C21.4696 7.67434 21.5254 7.62375 21.5594 7.6062C21.5636 7.63201 21.5677 7.68364 21.5594 7.72184C21.5976 7.70015 21.6627 7.58452 21.6844 7.52464C21.7443 7.55458 21.8041 7.65782 21.8093 7.70945C21.8527 7.69189 21.9384 7.61549 21.9642 7.57213C21.9642 7.60207 21.9776 7.68364 21.96 7.74765C21.9859 7.72184 22.0117 7.67021 22.0241 7.64853C22.0416 7.69189 22.0282 7.79411 22.0106 7.84986C22.0488 7.81579 22.1056 7.79411 22.1397 7.79411C22.1438 7.86741 22.0922 7.99543 22.0447 8.09042C21.6338 7.97582 20.7707 7.93246 19.9034 7.88496Z" fill="#337321" stroke="black" stroke-width="0.02"/>
<path d="M21.3405 5.6115C21.3385 5.5795 21.4087 5.50826 21.5357 5.50929C21.6874 5.51032 21.8279 5.62183 21.9487 5.61357C22.0705 5.60531 22.0106 5.64557 21.9848 5.6559C21.959 5.66622 21.9445 5.68274 21.9528 5.70132C21.9621 5.72094 21.9466 5.73333 21.897 5.71578C21.7886 5.67655 21.6802 5.73127 21.5377 5.70132C21.4149 5.67345 21.3436 5.65899 21.3405 5.6115Z" fill="#F7E017"/>
<path d="M20.0366 8.14307C19.9075 8.29794 19.7795 8.27213 19.7537 8.17302C19.7279 8.0739 19.8228 8.02744 19.7877 7.94071C19.7537 7.85502 19.8435 7.81579 19.8869 7.85502C19.9302 7.89322 20.0675 7.76933 20.1274 7.89838C20.1873 8.02744 20.2348 8.11726 20.2007 8.16889C20.1656 8.22051 20.0624 8.1947 20.0366 8.14307Z" fill="#F7E017" stroke="black" stroke-width="0.02"/>
<path d="M20.59 7.91078C20.5662 7.854 20.6994 7.74559 20.7686 7.82302C20.8377 7.90046 20.9451 7.7394 21.005 7.86123C21.0649 7.98409 21.0845 8.0481 21.1144 8.11624C21.1444 8.18541 20.9513 8.22155 20.8914 8.16167C20.8997 8.20193 20.7242 8.23394 20.6767 8.1183C20.6509 8.05739 20.623 7.98615 20.59 7.91078Z" fill="#F7E017" stroke="black" stroke-width="0.02"/>
<path d="M21.483 7.982C21.451 7.92212 21.6079 7.83642 21.6895 7.94586C21.7112 7.90043 21.8661 7.89217 21.8764 8.0233C21.8867 8.15442 21.8919 8.23185 21.896 8.28347C21.9001 8.3351 21.802 8.38259 21.7308 8.25147C21.6038 8.27728 21.546 8.20604 21.5315 8.1317C21.5161 8.0553 21.5006 8.01813 21.483 7.982Z" fill="#F7E017" stroke="black" stroke-width="0.02"/>
<path d="M20.1202 7.89632C20.1006 7.85295 20.2296 7.76726 20.3174 7.83231C20.4052 7.89632 20.527 7.77655 20.5796 7.89219C20.6849 8.12655 20.6911 8.14307 20.6591 8.1885C20.6271 8.23393 20.4898 8.21638 20.4547 8.15443C20.4485 8.19779 20.3298 8.19057 20.2678 8.15649C20.1976 8.11726 20.1481 7.97375 20.1202 7.89632Z" fill="#337321" stroke="black" stroke-width="0.02"/>
<path d="M21.0236 7.90664C20.9937 7.84056 21.195 7.78171 21.2838 7.89838C21.3292 7.85708 21.4273 7.85502 21.483 7.98201C21.5388 8.109 21.547 8.17921 21.5068 8.21121C21.4779 8.23393 21.3736 8.25148 21.3395 8.19366C21.292 8.2236 21.1465 8.19779 21.1144 8.11623C21.0824 8.0357 21.0546 7.96446 21.0236 7.90664Z" fill="#337321" stroke="black" stroke-width="0.02"/>
<path d="M21.8784 8.03363C21.8743 7.97375 21.9838 7.94588 22.024 8.03363C22.0653 8.12139 22.1954 8.04189 22.2068 8.1885C22.2088 8.21638 22.1913 8.32375 22.151 8.37537C22.1107 8.427 21.9104 8.37537 21.8981 8.26593C21.8846 8.15546 21.8805 8.09352 21.8784 8.03363Z" fill="#337321" stroke="black" stroke-width="0.02"/>
<path d="M20.0366 8.14305C19.9891 8.07904 19.9251 7.97579 19.8435 8.0873" stroke="black" stroke-width="0.02"/>
<path d="M20.4557 8.1534C20.4279 8.11726 20.3917 8.05635 20.3783 8.00989" stroke="black" stroke-width="0.02"/>
<path d="M20.8914 8.16269C20.8615 8.14101 20.8161 8.09868 20.7923 8.05325" stroke="black" stroke-width="0.02"/>
<path d="M20.8522 7.93658C20.9276 7.94484 20.9792 8.01608 21.0019 8.04809C21.0257 8.08009 21.0752 8.13791 21.1134 8.14514" stroke="black" stroke-width="0.02"/>
<path d="M21.3395 8.19472C21.3137 8.15342 21.2879 8.11728 21.2817 8.08734" stroke="black" stroke-width="0.02"/>
<path d="M21.2838 7.89841C21.3096 7.93454 21.3292 7.96448 21.3437 7.99959" stroke="black" stroke-width="0.02"/>
<path d="M21.7298 8.25045C21.6957 8.18644 21.642 8.12346 21.5966 8.10281" stroke="black" stroke-width="0.02"/>
<path d="M21.7133 8.01401C21.7174 8.141 21.8867 8.14926 21.8939 8.23908" stroke="black" stroke-width="0.02"/>
<path d="M22.024 8.03363C22.0416 8.06564 22.0478 8.09764 22.0498 8.15133" stroke="black" stroke-width="0.02"/>
</g>
<defs>
<clipPath id="clip0_10625_1316">
<rect width="28" height="20" fill="white"/>
</clipPath>
</defs>
</svg>
