<svg width="28" height="20" viewBox="0 0 28 20" fill="none" xmlns="http://www.w3.org/2000/svg">
<path d="M28 0H0V20H28V0Z" fill="#3A7DCE"/>
<path d="M6.8982 9.61852C6.74567 9.29159 6.74567 9.29159 6.74567 8.96469C6.66938 8.96469 6.65508 8.98005 6.61097 8.96719C6.56687 8.95445 6.55019 9.26864 6.40714 9.20731C6.38332 9.17667 6.50966 8.94941 6.3726 8.85493C6.32849 8.82417 6.38332 8.63776 6.36424 8.55602C6.36424 8.55602 6.19026 8.65304 6.05914 8.31086C5.99475 8.22142 5.90657 8.39255 5.90657 8.39255C5.90657 8.39255 5.94469 8.49727 5.8756 8.52284C5.77786 8.44618 5.70632 8.48639 5.58239 8.38106C5.45842 8.2757 5.60862 8.15505 5.37261 8.06566C5.52518 7.65703 5.52518 7.73872 5.90657 7.5753C5.67771 7.41183 5.67771 7.41183 5.52518 7.16663C5.29633 7.08489 5.22004 7.0032 4.99119 6.83973C4.68609 6.43106 4.53352 5.6138 4.53352 5.04171C4.72662 4.85013 4.99119 5.69554 5.37261 5.9407L5.90657 6.1859C6.21167 6.34937 6.28796 6.5128 6.51681 6.67626L7.20334 6.92147C7.50844 7.16663 7.66101 7.49356 7.88987 7.5753C8.13776 7.5753 8.18552 7.42231 8.26501 7.4128C8.71346 7.38816 8.94231 7.32626 9.03169 7.18195C9.12224 7.06703 9.33917 7.24836 9.94941 7.0032L9.87316 6.67626C9.87316 6.67626 10.0353 6.53324 10.2545 6.59453C10.2486 6.44514 10.2343 6.04671 10.4503 5.86695C10.3191 5.71949 10.4071 5.6138 10.4071 5.6138C10.4071 5.6138 10.5287 5.48864 10.543 5.42223C10.4787 5.06211 10.5988 5.05655 10.6257 4.95058C10.6526 4.84465 10.522 4.88094 10.5588 4.73489C10.5956 4.5888 10.8166 4.55413 10.8462 4.4338C10.8759 4.31348 10.7832 4.25312 10.7885 4.22441C10.8362 4.10949 10.7957 3.83874 10.7885 3.73403C11.1985 3.61654 11.332 3.25898 11.475 3.40711C11.5513 2.91674 11.6276 2.75328 12.0853 2.75328C12.1497 2.60259 11.9184 2.47488 12.009 2.42636C12.1616 2.40593 12.2783 2.41615 12.4572 2.66389C12.5137 2.7424 12.5239 2.54896 12.5811 2.52852C12.6383 2.50809 12.7752 2.50777 12.7956 2.41104C12.8171 2.31142 12.8481 2.18117 12.9244 2.01772C12.9887 1.88491 13.0388 2.0688 13.096 2.32931C13.4178 2.34207 14.1449 2.4187 14.45 2.50809C14.6788 2.57194 14.8314 2.44424 15.0507 2.41869C15.2128 2.59237 15.3653 2.46212 15.4511 2.83245C15.5723 3.03228 15.7705 2.85033 15.8135 2.90907C16.0686 3.66251 16.9458 3.15426 17.0125 3.16703C17.1245 3.16703 17.2614 3.50391 17.3495 3.49554C17.4929 3.46968 17.4523 3.36497 17.5775 3.40711C17.544 3.6906 17.823 4.01753 17.823 4.22949C17.823 4.22949 17.8909 4.26526 17.9538 4.20235C18.0167 4.13949 18.0745 3.97794 18.1305 3.98176C18.264 4.00219 18.3181 4.02056 18.4719 4.04937C18.8855 4.20078 19.0962 4.23493 19.2568 4.31251C19.3316 4.45905 19.404 4.53409 19.5555 4.50671C19.6807 4.59679 19.5894 4.71477 19.6633 4.72243C19.8158 4.6407 19.8659 4.5513 20.0184 4.63304C20.171 4.71477 20.3236 4.87824 20.3998 5.04171C20.3998 5.1234 20.3236 5.45034 20.3998 5.9407C20.438 6.10417 20.4564 6.23376 20.6203 6.51409C20.5768 6.80207 20.8265 7.28667 20.8265 7.40929C20.8265 7.57272 20.7049 7.65703 20.6287 7.82046C20.9338 8.06566 20.6287 8.47429 20.4761 8.71949C21.6203 8.96469 21.0864 9.45505 22.0017 9.20985C21.7729 9.78195 21.8539 9.73602 22.0827 10.3081C21.625 10.6351 22.0733 10.7346 21.7682 11.1432C21.7491 11.1688 21.9493 11.4983 22.2306 11.4983C22.1543 12.1521 21.9254 11.9069 22.0017 12.8877C21.401 12.8749 21.6441 13.6207 21.2389 13.5415C21.2627 14.0089 21.4701 14.0498 21.3915 14.5222C21.0864 14.604 21.0864 14.604 20.9338 14.8492L20.7049 14.7674C20.6287 15.1761 20.4761 15.2578 20.7049 15.6665C20.7049 15.6665 20.4094 15.6767 20.3236 15.6665C20.3164 15.807 20.4547 15.8453 20.4761 15.9934C20.4642 16.0521 20.0422 16.3101 19.7133 16.3203C19.6275 16.5221 19.9421 16.7366 19.9231 16.8388C19.5655 16.9128 19.4082 17.3828 19.4082 17.3828C19.4082 17.3828 19.5917 17.4619 19.5607 17.5462C19.463 17.4696 19.4082 17.4645 19.2556 17.4645C19.1794 17.4849 18.9934 17.4595 18.8152 17.7818C18.6195 17.851 18.5272 17.826 18.3787 18.0363C18.313 17.8359 18.2185 18.0382 18.1029 18.1159C17.9875 18.1937 17.8319 18.3871 17.811 18.3789C17.8158 18.3226 17.8826 18.1183 17.8826 18.1183L17.5012 18.2001C17.5012 18.2001 17.4842 18.2018 17.4542 18.2051C17.4242 18.2083 17.4322 17.9665 17.3599 17.9753C17.2877 17.9841 17.0809 18.2793 17.0104 18.2886C16.94 18.2978 16.9177 18.1947 16.8571 18.2036C16.7964 18.2126 16.6782 18.515 16.6352 18.523C16.5923 18.5311 16.422 18.3392 16.276 18.366C15.5251 18.6496 15.4058 17.8067 15.2891 18.2818C15.1317 18.1924 15.159 18.2442 14.9991 18.2891C14.8971 18.3173 14.8878 18.1447 14.7971 18.1473C14.6157 18.1528 14.6252 18.3367 14.5262 18.2818C14.4453 17.8986 13.9565 17.9676 13.9088 17.8042C13.8701 17.6337 14.1206 17.6345 14.2016 17.519C14.2636 17.3524 14.1369 17.2891 14.3883 17.1283C14.7159 16.8909 14.5276 16.8013 14.585 16.6229C14.6877 16.3653 14.6883 16.3024 14.6025 16.0751C14.6025 16.0751 14.3474 15.3395 14.2974 15.3395C14.1449 15.2936 14.1449 15.6102 13.9207 15.6971C13.4631 15.8605 12.655 15.2833 12.5143 15.2833C12.3857 15.2859 11.7895 15.4346 11.812 15.1161C11.7229 15.4257 11.3952 15.1888 11.375 15.1888C11.0698 15.1888 11.1866 15.4417 10.9816 15.4315C10.8886 15.3983 9.94941 15.3395 9.94941 15.3395V15.503L9.33917 15.1761L8.80521 15.0126C8.34754 14.8492 8.57639 14.4405 7.81358 14.6857V14.1953H7.43219C7.58473 13.2146 7.43219 13.705 7.35591 12.8059L7.05077 12.8877C6.74567 12.4458 7.47506 12.5301 6.82195 12.2338C6.82195 12.2338 6.83384 11.746 6.66938 11.9069C6.636 11.9274 6.74567 12.1521 6.74567 12.1521C6.13542 12.0704 5.98286 11.9069 5.98286 11.2531C5.98286 11.2531 6.48584 11.3297 6.44053 11.2531C6.36902 11.1305 6.27606 10.3336 6.29274 10.28C6.28559 10.1727 6.75997 9.90203 6.66818 9.64401C6.72659 9.62102 6.8982 9.61852 6.8982 9.61852Z" fill="white"/>
<path d="M22.4117 11.9988C22.3895 12.0526 22.3934 12.1062 22.4164 12.1445C22.4578 12.078 22.4229 12.0474 22.4117 11.9988Z" stroke="white" stroke-width="2.5" stroke-linejoin="round"/>
<path d="M4.49776 5.9739C4.49776 5.9739 4.38095 5.95858 4.40718 6.06842C4.44534 5.98411 4.49539 5.97903 4.49776 5.9739Z" stroke="white" stroke-width="2.5" stroke-linejoin="round"/>
<path d="M4.52399 5.71851C4.45964 5.72109 4.38095 5.7083 4.40718 5.8181C4.44534 5.73383 4.52162 5.72363 4.52399 5.71851Z" stroke="white" stroke-width="2.5" stroke-linejoin="round"/>
<path d="M4.96353 7.18197C4.96353 7.18197 5.06367 7.17431 5.03744 7.28415C4.99928 7.19983 4.96594 7.18709 4.96353 7.18197Z" stroke="white" stroke-width="2.5" stroke-linejoin="round"/>
</svg>
