<svg width="28" height="20" viewBox="0 0 28 20" fill="none" xmlns="http://www.w3.org/2000/svg">
<path d="M28 0H0V20H28V0Z" fill="#083D7A"/>
<path d="M0 10L28 0V20L0 10Z" fill="#BD1021"/>
<path d="M2.99991 9.99993L28 1.07153V18.9283" fill="white"/>
<path d="M22.6908 12.1181C22.6908 12.1181 22.5161 11.9607 22.7228 11.7071C22.6116 11.6023 22.7149 11.4011 22.7149 11.4011C22.7149 11.4011 22.5242 11.3225 22.7228 10.999C22.5797 10.8942 22.6432 10.6579 22.6432 10.6579C22.6432 10.6579 22.1745 10.4656 22.6194 10.282C22.254 10.4567 21.9122 10.046 21.9122 10.046L21.3799 10.0635C21.2897 9.57669 20.588 9.99944 21.1097 8.60332C20.9747 8.57713 20.8235 8.53337 20.6726 8.6557C20.5217 8.77802 20.0924 9.04055 19.8382 8.77802C19.584 8.51581 20.0051 8.13989 20.0129 8.13096C20.0208 8.12233 20.5771 7.80742 20.6566 7.59759C20.6488 7.44014 20.4738 7.31781 20.6328 6.97671C20.8157 6.65318 21.936 6.34721 22.4444 6.24214C22.6908 6.11981 22.802 5.88348 22.802 5.88348L22.8577 6.11087C22.8577 6.11087 23.9861 5.74359 24.0416 5.56888C24.0973 5.39386 24.0654 5.72633 24.0654 5.72633C24.5103 5.68258 25.0745 5.26291 25.154 5.45518C25.5275 5.37661 26.2426 5.02688 26.2426 5.02688C26.2426 5.02688 26.489 5.01825 26.314 5.31529C26.4252 5.50756 26.2821 5.67395 26.2743 5.67395C26.2664 5.67395 26.3219 5.86622 26.1788 5.97129C26.2264 6.13737 26.0914 6.26864 26.0914 6.26864C26.0914 6.26864 26.155 6.46984 25.9008 6.57461C25.9246 6.74962 25.7577 6.78444 25.7577 6.78444C25.7577 6.78444 25.7815 6.96808 25.6703 7.04666C25.6703 7.18655 25.5432 7.25649 25.5432 7.25649C25.5432 7.25649 25.6227 7.30887 25.5113 7.39638C25.4001 7.48389 24.2479 8.26191 24.2479 8.25328C24.2479 8.24466 25.0902 8.41936 25.1459 8.45449C25.2016 8.48962 25.8372 8.95304 25.8372 8.95304L25.1935 9.82751C25.1935 9.82751 24.4784 9.74 24.4467 9.78375C24.4148 9.82751 24.5976 9.84507 24.6374 9.91501C24.6772 9.98496 24.7407 10.151 24.8678 10.1335C24.995 10.1159 24.6296 10.3871 24.391 10.4133C24.391 10.5094 24.6928 10.518 24.7724 10.4394C24.8519 10.3609 24.5817 10.6668 24.5498 10.7106C24.5178 10.7544 24.9073 10.6493 24.9073 10.6493C24.9073 10.6493 24.8438 10.9377 24.5022 11.0252C24.6371 11.2702 24.5817 11.4273 24.5736 11.4273C24.5654 11.4273 24.351 11.1823 24.1446 11.2261C24.2003 11.4621 24.3672 11.6809 24.4148 11.7157C24.4624 11.7508 24.0413 11.7419 23.9858 11.6106C23.9301 11.4794 23.8825 11.9255 24.0334 12.0654C23.8587 12.0741 23.7078 11.9604 23.7078 11.9604C23.7078 11.9604 23.6045 12.2226 23.6759 12.3538C23.7473 12.4851 23.4295 12.0916 23.4295 12.0916L22.8255 12.3714L22.6908 12.1181Z" fill="#9C3900"/>
<path d="M23.6868 12.4083C23.6655 12.4083 23.6179 12.3639 23.4233 12.1236L22.8353 12.396C22.8244 12.4009 22.8112 12.3963 22.8051 12.3849L22.6721 12.135C22.6578 12.1205 22.6051 12.0617 22.5984 11.9665C22.5925 11.883 22.6233 11.7961 22.6897 11.7083C22.6116 11.6115 22.6592 11.4685 22.6827 11.4118C22.6614 11.3964 22.6315 11.3668 22.6169 11.316C22.5931 11.2337 22.6177 11.1293 22.69 11.0048C22.5819 10.9062 22.6026 10.7361 22.6147 10.6736C22.5564 10.6468 22.4035 10.5654 22.4033 10.4548C22.4033 10.4175 22.4198 10.3827 22.4531 10.3503C22.1795 10.363 21.9469 10.122 21.9021 10.0721L21.3804 10.0894C21.3681 10.0897 21.3586 10.0807 21.3561 10.0681C21.3283 9.91773 21.2376 9.86103 21.1419 9.80125C20.9422 9.67646 20.7359 9.54767 21.0761 8.62298L21.073 8.62236C20.9473 8.59709 20.8176 8.57059 20.6869 8.67659C20.4828 8.84205 20.0709 9.05374 19.822 8.79707C19.7612 8.73452 19.7312 8.66057 19.7329 8.57737C19.7366 8.37986 19.9166 8.18759 19.9939 8.11426L19.9967 8.11148C19.9998 8.10809 20.0014 8.10717 20.032 8.08837C20.4657 7.82338 20.5987 7.67302 20.6326 7.5926C20.6292 7.55223 20.6138 7.5131 20.5962 7.46842C20.5514 7.35503 20.4954 7.21391 20.6118 6.96433C20.8417 6.5576 22.3607 6.23252 22.4377 6.2165C22.6712 6.0991 22.7801 5.87355 22.7813 5.87109C22.7857 5.86154 22.795 5.85568 22.8053 5.85692C22.8151 5.85815 22.8235 5.86585 22.8261 5.87633L22.8753 6.07753C23.3085 5.93518 23.9827 5.67574 24.0197 5.55988C24.0303 5.52629 24.0435 5.4847 24.0729 5.49209C24.0911 5.49671 24.1101 5.50134 24.0933 5.69638C24.2801 5.67142 24.4862 5.58453 24.6687 5.50688C24.9093 5.40489 25.1022 5.32355 25.1671 5.42523C25.5381 5.34142 26.2266 5.00556 26.2336 5.00217C26.2364 5.00063 26.2395 5.00001 26.2426 5.00001C26.2468 5.00001 26.3479 4.99724 26.3871 5.07366C26.4162 5.13035 26.4014 5.2117 26.3431 5.31554C26.4106 5.44495 26.3734 5.5605 26.3442 5.61873C26.3431 5.6212 26.3218 5.66341 26.2994 5.68621C26.2994 5.68683 26.2997 5.68775 26.2997 5.68868C26.305 5.73859 26.3207 5.8865 26.2076 5.98171C26.2392 6.12622 26.1508 6.24115 26.1191 6.27689C26.1286 6.33051 26.1384 6.49566 25.9279 6.59149C25.9357 6.71967 25.8481 6.78284 25.7848 6.80441C25.7873 6.85833 25.7837 6.98867 25.6952 7.06077C25.6896 7.16522 25.6221 7.23147 25.5826 7.26167C25.5896 7.27307 25.5952 7.28755 25.5958 7.30419C25.5972 7.3424 25.574 7.38061 25.5264 7.41789C25.4673 7.46411 25.1277 7.69674 24.8544 7.88162C24.5483 8.08868 24.3985 8.18975 24.3229 8.23782C24.3848 8.2486 24.4932 8.27048 24.6858 8.31238C24.8832 8.35521 25.1254 8.41037 25.159 8.43132C25.2147 8.46645 25.8257 8.91169 25.8517 8.93079C25.8573 8.9348 25.8612 8.94158 25.8624 8.94897C25.8635 8.95637 25.8615 8.96376 25.8573 8.96962L25.2136 9.84408C25.2086 9.85117 25.2002 9.85456 25.1923 9.85364C24.9017 9.8182 24.5842 9.79078 24.4884 9.7991C24.5005 9.80464 24.515 9.8105 24.5262 9.81481C24.5772 9.83515 24.6351 9.85826 24.6592 9.90047C24.6651 9.91064 24.6713 9.92266 24.678 9.93591C24.718 10.0136 24.7726 10.1195 24.8661 10.1069C24.8754 10.1057 24.9003 10.1023 24.9132 10.1214C24.9165 10.1263 24.9233 10.1396 24.9157 10.1587C24.8902 10.2225 24.6279 10.3953 24.431 10.4338C24.4361 10.4375 24.4417 10.4403 24.445 10.4422C24.5285 10.4831 24.7065 10.4702 24.7575 10.4197C24.7712 10.4061 24.7886 10.3889 24.8054 10.408C24.8233 10.4283 24.8233 10.4283 24.6855 10.5891C24.6536 10.6264 24.6209 10.6646 24.5979 10.6921C24.6612 10.6834 24.7883 10.6542 24.9028 10.6233C24.9109 10.6212 24.9196 10.6236 24.9255 10.6304C24.9314 10.6369 24.9339 10.6464 24.9319 10.6554C24.9294 10.6674 24.865 10.9432 24.5402 11.0421C24.6452 11.2507 24.6181 11.3992 24.599 11.4362C24.5915 11.4507 24.5817 11.4537 24.5747 11.4537C24.5646 11.4537 24.5604 11.4497 24.5422 11.4325C24.403 11.3009 24.2798 11.2387 24.1765 11.2482C24.2356 11.4624 24.3851 11.6614 24.4293 11.6938C24.4464 11.7064 24.4442 11.7234 24.4431 11.7283C24.4377 11.7514 24.4137 11.7557 24.3915 11.7582C24.321 11.7659 24.0295 11.7505 23.9682 11.6288C23.9609 11.6562 23.9547 11.7098 23.9587 11.7788C23.962 11.8367 23.9774 11.9782 24.0502 12.0457C24.0578 12.0527 24.0606 12.0641 24.0575 12.0743C24.0544 12.0848 24.0457 12.0919 24.0357 12.0922C23.8957 12.099 23.7725 12.0327 23.7207 12.0001C23.6974 12.0694 23.6465 12.2466 23.6977 12.3408C23.7069 12.3575 23.7221 12.3855 23.7011 12.4022C23.696 12.4052 23.6924 12.4083 23.6868 12.4083ZM22.5976 10.3198C22.5032 10.3633 22.4517 10.4107 22.4517 10.4551C22.4517 10.5331 22.5998 10.6116 22.6516 10.6329C22.6634 10.6378 22.6698 10.652 22.6662 10.6652C22.6656 10.6674 22.6096 10.884 22.7359 10.9768C22.7412 10.9808 22.7449 10.9869 22.7463 10.9937C22.7477 11.0005 22.7463 11.0079 22.7426 11.0137C22.6707 11.1311 22.6429 11.2297 22.6625 11.2994C22.6788 11.3567 22.7216 11.3758 22.7233 11.3764C22.7297 11.3792 22.7351 11.385 22.7373 11.3921C22.7395 11.3992 22.739 11.4075 22.7356 11.414C22.7348 11.4158 22.6435 11.5976 22.7381 11.6867C22.7432 11.6913 22.746 11.6981 22.7465 11.7052C22.7468 11.7123 22.7449 11.7193 22.7404 11.7246C22.6729 11.8075 22.6413 11.887 22.6463 11.9615C22.6519 12.0469 22.7057 12.0971 22.7062 12.0974C22.7085 12.0993 22.7101 12.1017 22.7115 12.1045L22.8359 12.3381L23.4202 12.0672C23.4297 12.0629 23.4407 12.0657 23.4477 12.074C23.5118 12.1535 23.5818 12.2373 23.6313 12.2928C23.6087 12.1489 23.682 11.9594 23.6857 11.9498C23.6885 11.9424 23.6941 11.9372 23.7011 11.935C23.7081 11.9329 23.7153 11.9341 23.7212 11.9387C23.7226 11.9397 23.8377 12.0247 23.9785 12.038C23.8965 11.9082 23.899 11.6855 23.9225 11.6078C23.9318 11.5776 23.9455 11.5619 23.9637 11.5607C23.9813 11.56 23.9962 11.5727 24.0077 11.5998C24.0427 11.6824 24.2751 11.7092 24.3686 11.7067C24.2963 11.6269 24.1684 11.4325 24.1213 11.2331C24.1197 11.226 24.1208 11.2186 24.1244 11.2122C24.1281 11.206 24.1337 11.2017 24.1401 11.2005C24.3187 11.1629 24.4951 11.32 24.5635 11.3841C24.573 11.3305 24.5735 11.2057 24.4817 11.039C24.4778 11.0316 24.4772 11.0227 24.48 11.015C24.4831 11.0073 24.4893 11.0014 24.4968 10.9996C24.7435 10.9364 24.8381 10.7672 24.8701 10.6865C24.5511 10.7703 24.538 10.7475 24.5285 10.7309C24.5234 10.7219 24.5215 10.7075 24.5313 10.6939C24.5447 10.6754 24.5957 10.6159 24.6494 10.5531C24.662 10.5383 24.6755 10.5226 24.6886 10.5072C24.6007 10.5281 24.4876 10.5213 24.4243 10.4905C24.377 10.4674 24.3672 10.4357 24.3672 10.4132C24.3672 10.3996 24.3764 10.3882 24.3887 10.3867C24.5548 10.3685 24.7821 10.2262 24.851 10.1611C24.8505 10.1611 24.8499 10.1611 24.8493 10.1611C24.7376 10.1611 24.6741 10.0379 24.6349 9.9621C24.6284 9.94946 24.6225 9.93806 24.6172 9.92851C24.6021 9.9017 24.5481 9.88014 24.5086 9.86442C24.4615 9.84562 24.4277 9.83238 24.4204 9.80372C24.417 9.79109 24.4198 9.77814 24.4279 9.76674C24.4543 9.73039 24.7082 9.74148 25.1831 9.7991L25.8016 8.95853C25.6888 8.87626 25.1823 8.50774 25.1338 8.47723C25.0876 8.44888 24.3089 8.28126 24.2493 8.27941V8.27849C24.2426 8.28034 24.2401 8.2788 24.237 8.27695C24.2289 8.27233 24.2238 8.26339 24.2238 8.25322C24.2238 8.24367 24.2286 8.23504 24.2359 8.23011C24.237 8.2295 24.2378 8.22888 24.2398 8.22826C24.2835 8.20515 25.3729 7.47243 25.4973 7.37475C25.5295 7.34948 25.5468 7.32514 25.5465 7.30665C25.5463 7.29002 25.5306 7.27923 25.5306 7.27892C25.5233 7.27368 25.5188 7.26475 25.5194 7.2552C25.5199 7.24565 25.5247 7.23702 25.5325 7.2327C25.5337 7.23209 25.6462 7.168 25.6462 7.0466C25.6462 7.03766 25.6504 7.02903 25.6574 7.02441C25.754 6.95601 25.7341 6.78992 25.7341 6.78808C25.7324 6.77421 25.7408 6.76096 25.7534 6.7585C25.7593 6.75726 25.8971 6.72583 25.8772 6.57855C25.8755 6.56622 25.882 6.55421 25.8926 6.54989C26.1205 6.45591 26.0712 6.2846 26.069 6.2772C26.0659 6.26703 26.0687 6.25594 26.0757 6.24885C26.0768 6.24762 26.1984 6.12653 26.1561 5.97924C26.1527 5.96784 26.1566 5.95582 26.1656 5.94935C26.2698 5.87294 26.256 5.74383 26.251 5.69515C26.249 5.67666 26.2479 5.6668 26.256 5.65663C26.258 5.65417 26.2605 5.65201 26.263 5.65047C26.2734 5.63907 26.3913 5.49825 26.2938 5.32971C26.2888 5.32108 26.2888 5.30968 26.2938 5.30105C26.3473 5.20985 26.365 5.14052 26.3442 5.10015C26.323 5.05825 26.2639 5.05393 26.2476 5.05332C26.1796 5.08629 25.5188 5.40551 25.1585 5.48131C25.1475 5.48346 25.1366 5.4773 25.1319 5.46621C25.0971 5.38209 24.8969 5.46683 24.685 5.5568C24.4898 5.63938 24.2686 5.73305 24.0676 5.75277C24.0606 5.75338 24.0533 5.75061 24.0483 5.74506C24.0432 5.73952 24.0407 5.73151 24.0415 5.7238C24.0452 5.68436 24.0483 5.64092 24.0497 5.60487C23.9108 5.7919 22.9756 6.10034 22.8644 6.13669C22.8583 6.13885 22.8515 6.13793 22.8459 6.13454C22.8403 6.13115 22.8361 6.12529 22.8345 6.11821L22.7933 5.95028C22.7446 6.02947 22.6351 6.17675 22.4545 6.26672C22.4528 6.26765 22.4509 6.26827 22.4489 6.26857C21.8175 6.39891 20.8185 6.69872 20.6533 6.99113C20.5483 7.21668 20.597 7.33962 20.6398 7.44809C20.6594 7.49769 20.6779 7.54453 20.6807 7.5966C20.681 7.60061 20.6804 7.60461 20.679 7.60831C20.6312 7.73434 20.4214 7.91182 20.0552 8.13552C20.0412 8.14415 20.0317 8.14969 20.028 8.15216C20.0272 8.15277 20.0264 8.1537 20.0252 8.15493C19.9687 8.20854 19.7844 8.39804 19.7811 8.57891C19.78 8.64732 19.804 8.70617 19.855 8.75886C19.9586 8.86578 20.1045 8.89166 20.2879 8.83558C20.4324 8.79152 20.574 8.70278 20.6583 8.63438C20.8056 8.51482 20.9523 8.5444 21.0817 8.57059L21.1139 8.57706C21.1211 8.5783 21.1273 8.58323 21.1307 8.59031C21.134 8.5974 21.1346 8.60572 21.1318 8.61311C20.7922 9.52209 20.9736 9.63548 21.1657 9.75565C21.2623 9.81604 21.3622 9.87829 21.3989 10.0364L21.9116 10.0194C21.918 10.0194 21.9253 10.0222 21.9301 10.028C21.9334 10.032 22.2459 10.4006 22.5799 10.2705C22.5897 10.2659 22.6001 10.2616 22.611 10.257C22.6233 10.252 22.6368 10.2585 22.6418 10.2718C22.6466 10.285 22.641 10.3001 22.6292 10.306C22.6183 10.3112 22.6079 10.3158 22.5976 10.3198ZM26.2742 5.64739C26.2723 5.64739 26.2706 5.6477 26.2692 5.648C26.2709 5.6477 26.2726 5.64739 26.2742 5.64739Z" fill="black"/>
<path d="M18.0238 11.5976C18.0381 11.5976 18.901 11.5819 19.2972 11.3329C19.4952 11.6756 19.7643 11.9091 19.7643 11.9091L19.8917 11.4109C19.8917 11.4109 20.203 11.4263 20.2313 11.5043C20.1888 11.5976 20.1748 11.7221 20.1748 11.7221C20.1748 11.7221 20.387 11.7378 20.4013 11.7689C20.4156 11.8001 20.3447 12.0647 20.3447 12.0647L21.2502 12.2983C21.2502 12.2983 21.3211 11.9091 21.3916 11.9557C21.4625 12.0025 21.7736 12.485 22.2123 12.5162C22.6508 12.5473 22.6794 12.1113 22.6794 12.1113L22.7785 12.1735C22.7785 12.1735 22.9624 11.7375 22.9907 11.7375C23.019 11.7375 23.0616 11.7998 23.3021 11.7998C23.3729 11.8931 23.4012 12.1113 23.4012 12.1113C23.4012 12.1113 23.1324 12.4071 23.2172 12.6406C23.3021 12.8742 23.3164 12.812 23.3164 12.812L25.2691 13.3259C25.2691 13.3259 25.3682 13.4972 25.1982 13.5906C25.1982 13.606 23.2315 13.0924 23.2315 13.0924C23.2315 13.0924 23.0476 13.3259 22.9062 13.2791C22.7648 13.2322 22.8636 13.3724 22.8636 13.3724L24.986 13.5592C24.986 13.5592 25.1417 13.7773 25.0286 13.8396C24.8872 13.855 22.7365 13.684 22.7365 13.684C22.7365 13.684 22.6091 13.9798 22.4677 13.7308C22.3686 13.9021 22.2554 13.684 22.2554 13.684C22.2554 13.684 22.0715 13.8396 22.0432 13.6682C21.8875 13.7927 21.7884 13.5903 21.7884 13.5903L20.8829 13.528L20.8263 13.6214C20.8263 13.6214 20.982 13.6682 20.7415 13.777C20.501 13.8861 22.1846 13.8393 22.2272 13.855C22.2697 13.8707 22.114 14.0106 22.114 14.0106C22.114 14.0106 22.9773 14.0728 23.1327 13.8704C23.2884 13.6679 23.0761 14.1351 23.0761 14.1351C23.0761 14.1351 23.7554 14.1039 23.7554 14.0728C23.7554 14.0417 23.7411 14.3064 23.2744 14.2753C23.5574 14.4777 23.9111 14.6022 23.9111 14.6022C23.9111 14.6022 23.5574 14.6955 23.147 14.5868C23.2178 14.7892 23.5289 14.9759 23.5289 14.9759C23.5289 14.9759 23.3024 15.1941 22.793 14.6644C22.9344 14.9448 22.8213 15.0536 22.8073 15.0225C22.793 14.9913 22.5525 14.6022 21.9866 14.462C22.3403 14.7109 22.1846 14.82 22.1846 14.82C22.1846 14.82 22.0006 14.462 21.7036 14.82C21.5904 14.4931 21.1517 14.3061 20.6141 14.2749C20.4444 14.0571 20.3453 14.1193 19.9491 13.9946C19.7226 13.7145 19.3972 13.4029 19.3972 13.4029C19.3972 13.4029 19.4115 12.9827 19.7934 13.0292C19.836 13.1694 19.836 13.1226 19.836 13.1226C19.836 13.1226 20.2604 12.9512 20.3878 13.1848C20.5718 12.8267 20.8263 13.1312 20.8689 13.2557C20.9907 13.2754 21.6047 13.2936 21.6047 13.2936C21.6047 13.2936 21.5339 13.1534 21.5764 13.1691C21.619 13.1845 21.9584 13.0289 21.9444 12.9824C21.9301 12.9355 21.9161 12.7799 21.9726 12.7956C22.0292 12.811 21.4916 12.7177 21.1945 12.9669C21.0954 12.8579 21.1662 12.5621 21.1662 12.5621L20.289 12.3596L20.2464 12.6086C20.2464 12.6086 19.9916 12.6554 20.0059 12.5932C20.0202 12.5309 19.9494 12.811 19.9494 12.811C19.9494 12.811 19.6097 12.7177 19.6097 12.702C19.6097 12.6866 19.7088 12.1415 19.7088 12.1569C19.7088 12.1726 19.4258 12.188 19.0296 12.5149C18.9153 12.127 18.0238 11.6133 18.0238 11.5976Z" fill="#FFC221"/>
<path d="M22.814 15.0548C22.8135 15.0548 22.8129 15.0548 22.8124 15.0548C22.8003 15.0542 22.79 15.0468 22.7846 15.0351C22.783 15.0314 22.5928 14.6909 22.107 14.5257C22.1966 14.6062 22.242 14.6798 22.242 14.7464C22.242 14.8111 22.1986 14.8422 22.1966 14.8434L22.1754 14.8585L22.1628 14.8342C22.1622 14.8329 22.0939 14.7035 21.9799 14.6897C21.8987 14.6798 21.8111 14.7297 21.7204 14.8391L21.694 14.8708L21.68 14.8308C21.577 14.5328 21.1777 14.3356 20.6118 14.303L20.6015 14.3023L20.5948 14.2937C20.4842 14.1517 20.408 14.135 20.2417 14.099C20.1641 14.082 20.0678 14.0614 19.9415 14.0216L19.9348 14.0195L19.93 14.0136C19.7072 13.7378 19.3838 13.4276 19.3804 13.4245L19.3717 13.4162L19.3723 13.4035C19.3726 13.3955 19.3804 13.2045 19.5036 13.0874C19.577 13.0178 19.6752 12.9897 19.7951 13.0045L19.8105 13.0064L19.8152 13.0224C19.8264 13.0597 19.8343 13.0815 19.8393 13.0945C19.9099 13.0683 20.2436 12.9571 20.385 13.1385C20.4623 13.0094 20.5477 12.9866 20.6076 12.9919C20.7401 13.0033 20.8496 13.1487 20.8848 13.2331C21.0072 13.2489 21.4294 13.2633 21.5636 13.2676C21.5258 13.1817 21.5395 13.1635 21.5456 13.1552C21.549 13.1509 21.561 13.1373 21.5832 13.1456C21.6333 13.153 21.8889 13.0236 21.9186 12.9851C21.911 12.954 21.8996 12.8748 21.9127 12.8221C21.5207 12.8018 21.3135 12.901 21.208 12.9897L21.1912 13.0039L21.1763 12.9876C21.0864 12.8883 21.1206 12.6628 21.136 12.5842L20.3069 12.3929L20.2658 12.6335L20.2492 12.6366C20.1812 12.6489 20.0709 12.6643 20.016 12.6446C20.0034 12.6933 19.9846 12.7672 19.9715 12.8199L19.9653 12.8449L19.9426 12.8387C19.5848 12.7404 19.5848 12.7281 19.5848 12.7041C19.5848 12.6948 19.6013 12.5993 19.6338 12.4206C19.6542 12.3088 19.6666 12.24 19.6755 12.1984C19.5845 12.2225 19.3496 12.286 19.0433 12.5386L19.0161 12.5608L19.0058 12.5254C18.9159 12.2163 18.2943 11.8093 18.0902 11.6756C18 11.6164 18 11.6164 18 11.5985V11.5924L18.0092 11.572H18.0241C18.0325 11.572 18.8957 11.556 19.2855 11.3107L19.3054 11.2981L19.3177 11.3194C19.4742 11.5902 19.6778 11.7939 19.7511 11.8632L19.8738 11.3841L19.8928 11.385C19.9695 11.3887 20.2221 11.4081 20.2537 11.495L20.2576 11.5061L20.2529 11.5169C20.2243 11.5794 20.2092 11.6577 20.2025 11.6987C20.4035 11.7159 20.4178 11.7473 20.4226 11.7578C20.434 11.7834 20.4181 11.8801 20.3747 12.0462L21.2315 12.2672C21.2502 12.1704 21.2978 11.9612 21.36 11.931C21.3746 11.9239 21.3902 11.9248 21.404 11.9341C21.4216 11.9458 21.4471 11.9747 21.4854 12.0188C21.6128 12.1642 21.8777 12.4671 22.2137 12.4912C22.6236 12.5211 22.6539 12.1276 22.655 12.1109L22.6578 12.069L22.7673 12.1381C22.9476 11.7128 22.9734 11.7128 22.9902 11.7128C23.0025 11.7128 23.0137 11.7184 23.0277 11.7255C23.0627 11.7427 23.1276 11.7754 23.3015 11.7754H23.3127L23.32 11.7849C23.3942 11.8829 23.4233 12.1005 23.4244 12.1094L23.4261 12.1226L23.4177 12.1319C23.4152 12.1347 23.161 12.4181 23.2391 12.6329C23.2727 12.7256 23.2937 12.7663 23.3046 12.7839L23.3214 12.7882L25.2836 13.3046L25.289 13.3136C25.2909 13.3169 25.3377 13.3992 25.3156 13.4873C25.3021 13.5406 25.2668 13.5838 25.2108 13.6152C25.2103 13.6155 25.2097 13.6158 25.2092 13.6161C25.2092 13.6161 25.2089 13.6161 25.2089 13.6164C25.1999 13.6201 25.173 13.6174 25.0291 13.5829C25.0596 13.6337 25.105 13.7243 25.0907 13.7945C25.0843 13.826 25.0664 13.8506 25.0389 13.8657L25.035 13.8679L25.0305 13.8685C24.893 13.8839 22.9608 13.7308 22.7499 13.7141C22.7298 13.7542 22.6718 13.854 22.5926 13.8593C22.548 13.8623 22.5052 13.8349 22.4663 13.7785C22.4408 13.8103 22.4131 13.8263 22.3806 13.825C22.3204 13.8235 22.2717 13.7603 22.2482 13.7237C22.2115 13.7502 22.1373 13.7945 22.0802 13.7705C22.0566 13.7607 22.0393 13.7409 22.0284 13.712C21.988 13.7363 21.9477 13.7434 21.9082 13.7335C21.8374 13.7157 21.7909 13.6476 21.7738 13.6186L20.8946 13.5582L20.8619 13.6124C20.8792 13.6232 20.8977 13.6411 20.8991 13.6682C20.9016 13.712 20.8605 13.752 20.7661 13.797C20.9204 13.8312 21.5664 13.8291 21.8914 13.8281C22.1566 13.8272 22.2199 13.8275 22.2339 13.8328C22.2465 13.8374 22.2549 13.8479 22.2571 13.8614C22.2616 13.8882 22.2339 13.9317 22.1742 13.9908C22.4442 14.0047 23.0014 14.0022 23.1134 13.8565C23.145 13.8152 23.1733 13.7828 23.199 13.8013C23.2161 13.8136 23.2391 13.8303 23.1148 14.1098C23.3894 14.0965 23.6823 14.0749 23.7344 14.0583C23.7425 14.0457 23.754 14.0466 23.7579 14.0472L23.7781 14.0509L23.7784 14.0759C23.7784 14.082 23.7784 14.0879 23.7728 14.0937C23.7464 14.1668 23.6585 14.303 23.3617 14.3073C23.6227 14.4755 23.9139 14.579 23.917 14.58L23.999 14.6089L23.9153 14.6311C23.9013 14.6348 23.5787 14.7177 23.1895 14.6277C23.283 14.8003 23.5364 14.954 23.5392 14.9556L23.5695 14.9737L23.5434 14.9987C23.5339 15.0076 23.3211 15.2021 22.8616 14.7722C22.9078 14.9174 22.8759 14.9953 22.8625 15.019C22.8493 15.0409 22.8317 15.0548 22.814 15.0548ZM22.8266 15.0092C22.8275 15.0104 22.8278 15.0113 22.8278 15.0113C22.8275 15.0104 22.8272 15.0098 22.8266 15.0092ZM21.9908 14.4367C22.5237 14.5686 22.7684 14.9155 22.818 14.995C22.8219 14.9898 22.8266 14.9811 22.8306 14.9679C22.8404 14.9358 22.8544 14.8431 22.7709 14.6779L22.8084 14.6459C23.0632 14.9106 23.2422 14.9805 23.3474 14.9925C23.4093 14.9993 23.4527 14.9882 23.4793 14.9765C23.3931 14.9192 23.1822 14.7655 23.1232 14.5969L23.1066 14.5498L23.1512 14.5615C23.4303 14.6357 23.6854 14.6142 23.8148 14.5941C23.6907 14.5436 23.4572 14.4391 23.2598 14.298L23.1834 14.2432L23.2744 14.2493C23.3578 14.2549 23.616 14.2595 23.7075 14.1141C23.6263 14.1295 23.4516 14.1449 23.0758 14.1621L23.035 14.164L23.0532 14.1239C23.0901 14.0423 23.1288 13.9486 23.1495 13.8885C22.9871 14.0984 22.1468 14.0401 22.111 14.0377L22.0502 14.0333L22.0975 13.9908C22.1429 13.9498 22.1849 13.9049 22.2017 13.8796C22.1555 13.878 22.0264 13.8784 21.8912 13.879C20.8249 13.8821 20.7031 13.8577 20.6933 13.8041C20.6877 13.773 20.7205 13.7582 20.7311 13.7533C20.8507 13.699 20.8507 13.6694 20.8507 13.6691C20.8504 13.6639 20.835 13.6525 20.8188 13.6476L20.7868 13.6377L20.8694 13.5012L21.8021 13.5653L21.8086 13.5782C21.8091 13.5792 21.8511 13.663 21.9186 13.6799C21.9533 13.6885 21.99 13.6775 22.0278 13.6473L22.0589 13.6223L22.0659 13.6639C22.0734 13.7089 22.0911 13.7166 22.097 13.7191C22.1384 13.7366 22.216 13.6833 22.2398 13.6633L22.2616 13.6448L22.2753 13.671C22.2896 13.6981 22.3361 13.769 22.3814 13.7699C22.3817 13.7699 22.382 13.7699 22.3826 13.7699C22.4047 13.7699 22.4262 13.752 22.4467 13.7166L22.4671 13.6812L22.4873 13.7169C22.5214 13.777 22.5562 13.8059 22.5895 13.8041C22.6466 13.8004 22.6987 13.7083 22.7141 13.6728L22.7211 13.6565L22.7376 13.6577C22.7589 13.6593 24.8463 13.8244 25.021 13.814C25.0333 13.8059 25.0406 13.7955 25.0434 13.7807C25.0552 13.7234 25.0011 13.6275 24.9726 13.585L22.8504 13.3983L22.844 13.389C22.8266 13.3647 22.7891 13.3037 22.8129 13.2655C22.8334 13.2325 22.8796 13.243 22.9123 13.2538C23.0156 13.2877 23.1643 13.1364 23.2128 13.0751L23.2223 13.0631L23.2366 13.0667C23.9802 13.2612 25.0974 13.5493 25.1924 13.5641C25.2335 13.54 25.2593 13.5089 25.2688 13.4716C25.2817 13.4208 25.2618 13.3693 25.2526 13.349L23.3239 12.8415C23.32 12.844 23.3155 12.8458 23.3105 12.8461C23.2875 12.8474 23.2609 12.8338 23.1946 12.6508C23.1128 12.4258 23.3278 12.1578 23.3752 12.1026C23.3682 12.0576 23.3418 11.9045 23.29 11.8265C23.1145 11.825 23.0456 11.7908 23.0081 11.772C23.0042 11.7701 22.9997 11.768 22.9963 11.7664C22.9672 11.8062 22.8765 12.004 22.8 12.1849L22.7891 12.2111L22.6976 12.1535C22.678 12.2604 22.594 12.5442 22.2563 12.5442C22.2414 12.5442 22.2263 12.5435 22.2106 12.5426C21.8559 12.5174 21.5823 12.2046 21.4507 12.0542C21.4188 12.0179 21.3914 11.9865 21.379 11.9784C21.3533 11.9855 21.3037 12.1374 21.2735 12.3035L21.2687 12.3303L20.3142 12.0841L20.3215 12.0573C20.3509 11.9476 20.38 11.8164 20.3792 11.7828C20.3554 11.7695 20.2565 11.7547 20.1731 11.7486L20.1476 11.7467L20.1507 11.719C20.1512 11.7141 20.1644 11.6004 20.2036 11.5061C20.1736 11.474 20.037 11.4466 19.9096 11.4383L19.7777 11.9544L19.7494 11.9298C19.7469 11.9273 19.4862 11.699 19.2894 11.368C18.9537 11.5656 18.324 11.6112 18.103 11.6213C18.107 11.6238 18.1109 11.6266 18.1148 11.629C18.3371 11.7745 18.9148 12.1528 19.0399 12.4742C19.3446 12.2299 19.5772 12.1686 19.6666 12.1451C19.6772 12.1424 19.6881 12.1396 19.6929 12.1377C19.6971 12.1313 19.7016 12.1313 19.7077 12.1313H19.7318V12.1581C19.7318 12.1636 19.731 12.1682 19.729 12.1719C19.717 12.2271 19.6486 12.6036 19.6349 12.689C19.6752 12.7059 19.8063 12.7454 19.9314 12.7802L19.9538 12.6914C19.9667 12.6412 19.9748 12.6092 19.9813 12.5888C19.9813 12.5885 19.9816 12.5882 19.9816 12.5876C19.9824 12.5839 19.983 12.5818 19.983 12.5808L19.9838 12.5811C19.9933 12.554 19.9989 12.5556 20.0129 12.5596C20.0266 12.5636 20.0322 12.5753 20.0294 12.5941C20.0524 12.6046 20.1372 12.6012 20.2249 12.5867L20.2688 12.3294L21.1951 12.5429L21.1886 12.57C21.1713 12.6434 21.1416 12.8409 21.1976 12.9321C21.3183 12.8397 21.544 12.7432 21.9519 12.7709C21.9598 12.7688 21.9684 12.7688 21.9774 12.7713C22.0018 12.778 22.0001 12.7984 21.9995 12.8027C21.9964 12.8236 21.9827 12.8258 21.962 12.8249C21.9511 12.843 21.9525 12.9306 21.9662 12.9755C21.971 12.9913 21.9659 13.0079 21.9508 13.0242C21.9018 13.0781 21.6719 13.1897 21.5893 13.1974C21.5955 13.218 21.6092 13.2516 21.6249 13.2824L21.6453 13.3231L21.603 13.3219C21.5778 13.3213 20.9865 13.3034 20.8644 13.2837L20.8504 13.2815L20.8454 13.2667C20.8207 13.1943 20.716 13.0544 20.604 13.0449C20.5298 13.0381 20.464 13.0905 20.408 13.1996L20.3876 13.2393L20.3663 13.2002C20.2613 13.0076 19.9194 13.1213 19.8542 13.145C19.8497 13.1527 19.8427 13.1567 19.8365 13.158C19.8136 13.162 19.8024 13.1444 19.7749 13.0557C19.6758 13.0467 19.5954 13.0708 19.5355 13.1274C19.4445 13.2134 19.4252 13.3518 19.4216 13.3934C19.4756 13.4457 19.7584 13.7221 19.9617 13.973C20.0826 14.0105 20.1759 14.0309 20.2512 14.0472C20.415 14.0826 20.5066 14.1027 20.625 14.2509C21.1816 14.2851 21.5826 14.4795 21.7108 14.7744C21.8038 14.6724 21.8965 14.6262 21.9861 14.6376C22.0877 14.6502 22.1566 14.7331 22.1871 14.7787C22.1913 14.7704 22.1944 14.7593 22.1941 14.7457C22.1936 14.7066 22.1644 14.6203 21.9729 14.4857L21.9908 14.4367ZM22.8759 13.3471L24.7539 13.5126C24.6167 13.4778 24.4378 13.4322 24.2037 13.3718C23.7621 13.2581 23.322 13.1435 23.2391 13.1216C23.1974 13.1709 23.035 13.3496 22.8983 13.3043C22.8706 13.2951 22.858 13.2954 22.8532 13.2963C22.8541 13.3065 22.8636 13.328 22.8759 13.3471ZM19.692 12.1387C19.6884 12.1417 19.6834 12.1485 19.6834 12.1584H19.6842C19.6873 12.1485 19.6898 12.1427 19.692 12.1387Z" fill="black"/>
<path d="M19.1275 10.3207C19.1275 10.3207 18.5334 10.8812 19.1275 11.2081C19.1558 10.99 19.1984 10.9592 19.1984 10.9592C19.1984 10.9592 19.6937 11.1616 19.9908 10.6788C19.8634 10.4763 19.6371 10.5543 19.6371 10.5543C19.6371 10.5543 19.1701 10.5543 19.1275 10.3207Z" fill="#FFC221"/>
<path d="M19.1466 11.2485L19.1166 11.2322C18.9503 11.1407 18.8576 11.0214 18.8417 10.8781C18.8095 10.5897 19.0993 10.3124 19.1116 10.3007L19.143 10.2711L19.1511 10.3155C19.1824 10.488 19.5067 10.5272 19.6335 10.5278C19.6654 10.5182 19.8841 10.4631 20.0104 10.6637L20.0197 10.6785L20.0104 10.6936C19.7368 11.1379 19.2958 11.0196 19.206 10.9897C19.195 11.0091 19.1701 11.0667 19.1511 11.2118L19.1466 11.2485ZM19.1164 10.3682C19.0464 10.4431 18.8657 10.6597 18.8895 10.8714C18.9027 10.9875 18.9764 11.087 19.1088 11.1672C19.1362 10.9857 19.1735 10.945 19.185 10.9367L19.195 10.9293L19.2065 10.9339C19.2258 10.9416 19.6775 11.1188 19.9608 10.6788C19.8441 10.5136 19.6523 10.5762 19.6439 10.5792L19.6369 10.5805C19.6181 10.5808 19.2037 10.5783 19.1164 10.3682Z" fill="black"/>
<path d="M19.6068 10.5508L19.1964 10.9401L19.2279 10.9802L19.6382 10.5909L19.6068 10.5508Z" fill="black"/>
<path d="M19.1472 10.3254C19.1472 10.3254 19.2267 10.2379 19.2505 10.1331C19.2743 10.0284 19.2186 9.91467 19.314 9.81822C19.4095 9.72209 20.6648 9.13634 20.7681 9.02264C20.8714 8.90894 21.0621 8.66429 21.0859 8.6116C21.1097 8.55921 21.1814 8.87381 20.9666 9.0137C21.197 8.94376 21.348 8.86518 21.4434 8.9C21.348 9.04852 21.0937 9.29348 20.9747 9.29348C21.2528 9.17978 21.507 9.08365 21.5787 9.14496C21.6501 9.20628 21.2371 9.51225 21.0702 9.52982C21.3482 9.45124 21.7218 9.32861 21.7694 9.45987C21.6184 9.51225 21.666 9.55601 21.3561 9.74828C21.3163 9.7834 21.1178 9.79203 21.1178 9.79203C21.3561 9.76584 21.682 9.66077 21.7136 9.85335C21.523 9.93192 21.4516 10.037 21.2925 10.0807C21.1335 10.1245 20.7681 10.2031 20.5458 10.2992C20.3232 10.3953 19.9975 10.6751 19.9975 10.6751C19.9975 10.6751 19.2902 10.7013 19.2902 10.6927C19.2902 10.6838 19.155 10.334 19.1472 10.3254Z" fill="white"/>
<path d="M19.3586 10.7204C19.2816 10.7204 19.2779 10.7167 19.2734 10.7118C19.2701 10.7081 19.2676 10.7032 19.2664 10.6979C19.2578 10.6677 19.1404 10.3658 19.1276 10.3411C19.1225 10.3337 19.1214 10.3239 19.1248 10.3152C19.1262 10.3115 19.1284 10.3081 19.1309 10.3057C19.1396 10.2958 19.2065 10.2169 19.227 10.1267C19.2342 10.094 19.2331 10.0598 19.232 10.0234C19.2298 9.95164 19.227 9.86999 19.2975 9.79881C19.3418 9.75413 19.5792 9.63149 19.9648 9.43522C20.3089 9.25989 20.6992 9.06115 20.751 9.00384C20.8552 8.88921 21.0428 8.64764 21.0643 8.59988C21.0722 8.58262 21.0856 8.57831 21.0957 8.57954C21.1145 8.58232 21.1273 8.60327 21.1349 8.64394C21.1478 8.71358 21.1441 8.84792 21.0663 8.95392C21.0898 8.94591 21.1122 8.9382 21.1338 8.93081C21.2738 8.88212 21.3749 8.847 21.451 8.87504C21.4583 8.87781 21.4639 8.88397 21.4662 8.89198C21.4684 8.9 21.4673 8.90862 21.4628 8.9154C21.4191 8.9835 21.3362 9.07902 21.2466 9.16037C21.4303 9.09658 21.5409 9.07933 21.593 9.12401C21.6087 9.13756 21.6143 9.15852 21.6081 9.18193C21.5922 9.24202 21.4858 9.33908 21.3665 9.4195C21.5759 9.36681 21.7534 9.34524 21.7915 9.45001C21.794 9.45679 21.7938 9.46449 21.791 9.47127C21.7882 9.47805 21.7828 9.48298 21.7764 9.48513C21.7064 9.50948 21.6826 9.53104 21.6392 9.57049C21.6011 9.605 21.5518 9.64998 21.4522 9.71715C21.5972 9.7039 21.7162 9.72178 21.7372 9.84873C21.7394 9.86136 21.733 9.87368 21.7221 9.87831C21.6347 9.91436 21.5737 9.95565 21.5149 9.9954C21.4488 10.0401 21.3864 10.0823 21.2984 10.1066C21.2604 10.1171 21.2102 10.1297 21.1534 10.1439C20.9714 10.1895 20.7222 10.2518 20.5547 10.3242C20.338 10.4178 20.0157 10.6936 20.0124 10.6964C20.0084 10.6998 20.0034 10.7019 19.9984 10.7019C19.6232 10.7155 19.4448 10.7204 19.3586 10.7204ZM19.3068 10.6677C19.3796 10.6699 19.7413 10.6582 19.9886 10.6489C20.0362 10.6086 20.3277 10.3648 20.5365 10.2746C20.7076 10.2006 20.9588 10.1378 21.1422 10.0918C21.1987 10.0777 21.2486 10.0653 21.2864 10.0549C21.367 10.0327 21.4236 9.99447 21.4894 9.9501C21.5429 9.91405 21.6031 9.87338 21.6843 9.83732C21.6504 9.74704 21.502 9.75968 21.3435 9.78433C21.2783 9.81021 21.1478 9.8173 21.1184 9.81853C21.1052 9.81884 21.0943 9.80805 21.0935 9.79388C21.0926 9.7797 21.1021 9.76707 21.115 9.76553C21.1635 9.76029 21.2167 9.75136 21.2685 9.74273C21.29 9.73903 21.3116 9.73564 21.3332 9.73225C21.3365 9.73071 21.339 9.72917 21.3407 9.72732C21.3418 9.7264 21.3427 9.72578 21.3438 9.72486C21.4989 9.62872 21.5622 9.5711 21.6081 9.5292C21.6462 9.49469 21.6731 9.47003 21.7285 9.44662C21.6504 9.39085 21.3668 9.47096 21.1668 9.52889C21.131 9.54337 21.0985 9.55292 21.0716 9.55569C21.0593 9.55724 21.0478 9.54738 21.0456 9.53382C21.0433 9.52026 21.0512 9.50701 21.0632 9.50362C21.089 9.49623 21.1153 9.48883 21.1422 9.48082C21.1481 9.47928 21.1537 9.47743 21.1595 9.47589C21.3304 9.40379 21.5656 9.21306 21.5619 9.16314C21.5093 9.11908 21.2934 9.19426 21.1108 9.26636C21.0596 9.29933 21.0117 9.31998 20.9739 9.31998C20.9621 9.31998 20.9523 9.31073 20.9501 9.2981C20.9481 9.28547 20.9546 9.27314 20.9655 9.26852C21.0103 9.25034 21.0523 9.23339 21.0921 9.21768C21.1976 9.14835 21.3264 9.01863 21.3998 8.91818C21.3393 8.91448 21.2559 8.94344 21.1472 8.98103C21.0954 8.99891 21.0366 9.01955 20.9719 9.03896C20.9602 9.04266 20.9481 9.03588 20.9434 9.02386C20.9386 9.01154 20.9428 8.99736 20.9532 8.99059C21.0419 8.93266 21.0739 8.84484 21.0851 8.78137C21.0943 8.7296 21.0918 8.68461 21.0867 8.65627C21.0288 8.74532 20.872 8.94375 20.7838 9.04112C20.73 9.10028 20.4321 9.25465 19.9838 9.48298C19.6825 9.63642 19.3709 9.79542 19.3289 9.83763C19.2746 9.89248 19.2765 9.95226 19.2788 10.0213C19.2799 10.0598 19.2813 10.0995 19.2723 10.1393C19.2524 10.2265 19.1981 10.3008 19.1743 10.3303C19.206 10.3997 19.2827 10.5972 19.3068 10.6677Z" fill="black"/>
<path d="M25.2094 9.79197L26.5839 10.0804C26.5839 10.0804 26.7349 9.8881 26.6553 9.78303C26.862 9.73065 26.8063 9.43331 26.8063 9.43331C26.8063 9.43331 27.0446 9.31961 26.846 9.05739C26.9813 8.90888 26.8141 8.79518 26.8141 8.79518C26.8141 8.79518 26.8698 8.53296 26.6948 8.50677C26.7424 8.29693 26.393 8.22699 26.393 8.22699C26.393 8.22699 25.67 8.44545 25.1615 8.46302C25.3284 8.64666 25.098 8.76036 25.098 8.76036C25.098 8.76036 25.2329 8.86543 25.1932 8.95263C25.1534 9.04014 25.217 9.13627 25.0423 9.19759C25.2727 9.31129 25.0185 9.50356 25.0185 9.50356C25.0185 9.50356 25.273 9.69583 25.2094 9.79197Z" fill="white"/>
<path d="M26.5932 10.1093L25.1677 9.81011L25.1901 9.77622C25.1935 9.77129 25.1974 9.76297 25.1949 9.74787C25.1834 9.67423 25.054 9.56207 25.005 9.52509L24.9762 9.50322L25.005 9.48134C25.0375 9.45669 25.1204 9.37843 25.1148 9.31187C25.112 9.27736 25.0843 9.24686 25.0327 9.22128L24.9751 9.19293L25.0353 9.17198C25.1425 9.13439 25.147 9.08817 25.1526 9.02963C25.1551 9.0022 25.1582 8.97108 25.1722 8.94027C25.1971 8.88573 25.1151 8.80531 25.0846 8.78127L25.0504 8.75447L25.0887 8.73536C25.0896 8.73475 25.1845 8.68699 25.1974 8.60996C25.2041 8.5699 25.1865 8.52645 25.1453 8.48085L25.1058 8.4374L25.1616 8.43556C25.6614 8.4183 26.3804 8.20261 26.3874 8.20045L26.3927 8.19891L26.3981 8.20015C26.4073 8.202 26.6237 8.24667 26.6985 8.37424C26.7187 8.40875 26.7271 8.44572 26.7234 8.48516C26.7607 8.49626 26.7901 8.51875 26.8113 8.55234C26.8589 8.62844 26.848 8.73968 26.8416 8.78282C26.8662 8.80346 26.9155 8.85307 26.9228 8.92178C26.9275 8.96831 26.9127 9.01422 26.8785 9.05797C26.9385 9.14332 26.9609 9.22344 26.9449 9.29646C26.927 9.37966 26.8645 9.42803 26.8337 9.44714C26.8489 9.55591 26.8349 9.73893 26.6926 9.79779C26.7402 9.91919 26.6086 10.089 26.6025 10.097L26.5932 10.1093ZM25.2425 9.7719L26.5745 10.0514C26.6156 9.99437 26.6876 9.86681 26.6369 9.79994L26.6117 9.76697L26.6498 9.75742C26.8309 9.71151 26.7847 9.44991 26.7825 9.43882L26.7786 9.41787L26.7965 9.40924C26.7973 9.40893 26.8794 9.36826 26.8973 9.28475C26.9105 9.22375 26.8867 9.15288 26.8273 9.07461L26.8133 9.05612L26.8287 9.03887C26.8623 9.00189 26.8777 8.96492 26.8738 8.92887C26.8671 8.86385 26.8018 8.81825 26.8013 8.81763L26.7867 8.80747L26.7906 8.78898C26.7909 8.78775 26.8175 8.65741 26.7707 8.58253C26.7531 8.55418 26.7271 8.53785 26.6918 8.53262L26.6652 8.52861L26.6716 8.49995C26.6795 8.46483 26.675 8.4334 26.6573 8.40351C26.5997 8.30491 26.4261 8.26116 26.3939 8.25376C26.3278 8.27348 25.6896 8.45928 25.2117 8.48671C25.2405 8.53108 25.2512 8.57575 25.2439 8.62012C25.2321 8.69007 25.1772 8.73875 25.1408 8.76402C25.1826 8.80469 25.25 8.88635 25.2148 8.96399C25.2047 8.98587 25.2024 9.00991 25.1999 9.03517C25.1946 9.09156 25.1884 9.15411 25.0988 9.20125C25.1377 9.23052 25.159 9.26596 25.1624 9.30694C25.1691 9.38859 25.0988 9.46532 25.0585 9.50229C25.1131 9.54728 25.2282 9.65112 25.2419 9.73863C25.2442 9.75034 25.2442 9.76143 25.2425 9.7719Z" fill="black"/>
<path d="M20.151 11.7312L19.9666 12.6343L20.0136 12.646L20.198 11.7429L20.151 11.7312Z" fill="black"/>
<path d="M20.3213 12.074L20.2648 12.3698L20.312 12.3807L20.3684 12.0849L20.3213 12.074Z" fill="black"/>
<path d="M21.2275 12.3042L21.1424 12.5845L21.1881 12.6013L21.2732 12.321L21.2275 12.3042Z" fill="black"/>
<path d="M23.0285 14.6183H22.9804C22.9762 14.5964 22.9067 14.5206 22.3506 14.3049C22.2837 14.279 22.2784 14.2769 22.2851 14.2519C22.2854 14.251 22.2921 14.2273 22.317 14.2343C22.3571 14.2451 22.657 14.2069 22.7558 14.1946C22.8062 14.1881 22.8166 14.1869 22.8208 14.1869L22.8213 14.2399C22.8171 14.2402 22.7914 14.2436 22.7614 14.2473C22.6306 14.2639 22.5206 14.2769 22.4408 14.2839C22.9552 14.4879 23.0285 14.5653 23.0285 14.6183Z" fill="black"/>
<path d="M22.0149 14.3446C21.8545 14.2306 21.6683 14.1147 21.5773 14.0777C21.5434 14.079 21.5151 14.0783 21.5045 14.0734L21.4877 14.0466C21.4877 14.0334 21.4953 14.0235 21.5095 14.017C21.5188 14.013 21.5387 14.0112 21.5804 14.0253C21.7013 14.0198 21.9547 13.985 21.983 13.9603L22.0166 13.9982C21.9953 14.0216 21.908 14.0432 21.7568 14.0617C21.7534 14.062 21.7212 14.066 21.6803 14.07C21.7599 14.1116 21.8749 14.1819 22.0407 14.2996L22.0149 14.3446Z" fill="black"/>
<path d="M21.1402 14.2728C21.07 14.2728 20.9182 14.1726 20.6875 14.0044C20.6679 13.9899 20.6488 13.9761 20.6354 13.9665C20.6239 13.9622 20.6155 13.9576 20.6104 13.952C20.5931 13.9329 20.604 13.916 20.6062 13.9126C20.6174 13.8975 20.6202 13.8935 20.6597 13.9209C20.723 13.9391 20.9361 13.9443 21.122 13.9379L21.1234 13.9908C21.0352 13.9939 20.8711 13.9973 20.751 13.9868C20.9804 14.1526 21.112 14.2309 21.1433 14.2195L21.1584 14.2697C21.1531 14.2719 21.147 14.2728 21.1402 14.2728Z" fill="black"/>
<path d="M20.2831 13.9746C20.0454 13.9222 19.9421 13.7946 19.8511 13.6822C19.8304 13.6563 19.8105 13.6319 19.7898 13.6091L19.7313 13.5447L19.8119 13.5645C19.8953 13.5848 20.0493 13.6443 20.1513 13.6837C20.1952 13.7007 20.2409 13.7182 20.2484 13.7201L20.2453 13.737V13.7728C20.2372 13.7728 20.2257 13.7687 20.1353 13.7339C20.0622 13.7056 19.962 13.6671 19.8816 13.6403C19.8833 13.6424 19.8853 13.6446 19.8869 13.647C19.9771 13.7586 20.0706 13.8738 20.2927 13.9228L20.2831 13.9746Z" fill="black"/>
<path d="M20.3405 13.5617C20.3293 13.5518 20.2554 13.5204 20.1905 13.4926C19.8984 13.3682 19.7682 13.301 19.7682 13.2329V13.1962L19.7999 13.2079C19.9035 13.2458 20.0964 13.3167 20.2675 13.2696L20.2792 13.321C20.1451 13.358 20.0017 13.329 19.892 13.2951C19.9821 13.3472 20.1303 13.4104 20.2078 13.4433C20.3526 13.505 20.3719 13.5151 20.3797 13.5327L20.3366 13.5564C20.3386 13.5598 20.3405 13.5614 20.3405 13.5617Z" fill="black"/>
<path d="M23.2637 12.8222L23.2072 13.1025L23.2542 13.114L23.3107 12.8337L23.2637 12.8222Z" fill="black"/>
<path d="M20.9162 13.5432L20.8762 13.5136C20.9493 13.3931 20.872 13.2951 20.8686 13.2911L20.9045 13.2557C20.9414 13.3007 20.9916 13.4187 20.9162 13.5432Z" fill="black"/>
<path d="M22.8752 13.3632L22.7196 13.3788L22.724 13.4316L22.8796 13.416L22.8752 13.3632Z" fill="black"/>
<path d="M21.6067 13.2697L21.5995 13.3221L21.8825 13.3688L21.8896 13.3164L21.6067 13.2697Z" fill="black"/>
<path d="M21.971 12.8348C21.9421 12.8283 21.9379 12.8123 21.9391 12.7999C21.9419 12.7728 21.9427 12.7664 22.1353 12.7734C22.1911 12.775 22.2367 12.758 22.2703 12.7214C22.3434 12.6416 22.3409 12.4961 22.3409 12.4946L22.389 12.493C22.3893 12.4998 22.3924 12.6625 22.3045 12.7586C22.2611 12.8061 22.2037 12.8289 22.1339 12.8264C22.0015 12.8215 21.9771 12.8252 21.9727 12.8264C21.978 12.8249 21.9864 12.8169 21.9872 12.8046C21.9878 12.7959 21.9841 12.7888 21.9802 12.7845L21.971 12.8348Z" fill="black"/>
<path d="M22.291 13.1155C22.235 13.1155 22.1885 13.098 22.153 13.0628C22.0642 12.9753 22.0782 12.8126 22.0788 12.8059L22.1266 12.8111C22.1266 12.8126 22.1146 12.9541 22.1852 13.0234C22.2232 13.061 22.2804 13.0715 22.3548 13.0545C22.5632 12.8887 22.5774 12.7193 22.5861 12.6179C22.5886 12.5886 22.5906 12.5652 22.5962 12.5464C22.6122 12.494 22.5427 12.4672 22.5399 12.4663L22.5553 12.4161C22.5962 12.4312 22.667 12.4811 22.6421 12.5634C22.6382 12.5766 22.6362 12.5982 22.6343 12.6231C22.625 12.7344 22.6094 12.9202 22.3792 13.1014L22.3753 13.1044L22.3705 13.1057C22.342 13.1121 22.3154 13.1155 22.291 13.1155Z" fill="black"/>
<path d="M22.4954 13.2304C22.4439 13.2304 22.3949 13.2144 22.3616 13.1842C22.3313 13.1565 22.3184 13.1207 22.3254 13.0834L22.3728 13.0939C22.3694 13.1118 22.3761 13.1284 22.3926 13.1435C22.4279 13.1759 22.5049 13.1928 22.5786 13.1602C22.685 13.1133 22.8483 12.783 22.8258 12.6114C22.8208 12.5723 22.8079 12.5473 22.7875 12.5365C22.7483 12.5159 22.6844 12.547 22.6632 12.5606L22.6388 12.515C22.6427 12.5122 22.7379 12.4515 22.8085 12.4888C22.8443 12.5076 22.8662 12.5464 22.8737 12.604C22.8998 12.8058 22.7245 13.1531 22.5965 13.2095C22.5643 13.2236 22.5293 13.2304 22.4954 13.2304Z" fill="black"/>
<path d="M22.8762 13.2896L22.8709 13.2369C22.8759 13.236 22.8961 13.2212 22.928 13.1651C22.9983 13.0422 23.0821 12.7941 23.049 12.6672C23.0387 12.6271 23.0221 12.6028 22.9997 12.5948C22.9583 12.5803 22.8997 12.6203 22.8807 12.637L22.8507 12.5957C22.8544 12.5926 22.9398 12.5183 23.0143 12.5445C23.0529 12.5581 23.0804 12.5944 23.0955 12.6527C23.133 12.7978 23.042 13.0739 22.9602 13.2082C22.9286 13.26 22.9011 13.2865 22.8762 13.2896Z" fill="black"/>
<path d="M23.2074 12.6891C23.1649 12.649 23.0994 12.6835 23.0988 12.6838L23.0772 12.6364C23.0812 12.6342 23.1719 12.5856 23.2388 12.6487L23.2074 12.6891Z" fill="black"/>
<path d="M22.7911 13.3204C22.7306 13.3204 22.6376 13.3003 22.5973 13.2045L22.641 13.1823C22.6822 13.2806 22.8054 13.2701 22.8278 13.264L22.8395 13.3154C22.8306 13.3179 22.8129 13.3204 22.7911 13.3204Z" fill="black"/>
<path d="M21.9531 13.0188L21.9505 12.9658C21.9771 12.9642 22.1104 12.9568 22.1185 12.9568V13.0098C22.1121 13.0102 22.0161 13.0154 21.9531 13.0188Z" fill="black"/>
<path d="M22.4873 13.7505L22.4657 13.7031C22.4848 13.6877 22.508 13.5536 22.5161 13.4104L22.5167 13.4002L22.6544 13.2489L22.7387 13.3765L22.755 13.6729L22.7068 13.676L22.6914 13.3953L22.6486 13.3302L22.5637 13.4236C22.5567 13.5382 22.538 13.7228 22.4873 13.7505Z" fill="black"/>
<path d="M22.2647 13.7158L22.2431 13.6683C22.2622 13.6551 22.2857 13.5303 22.2935 13.4018L22.2941 13.3935L22.4571 13.1722L22.4741 13.208C22.4741 13.208 22.5537 13.3747 22.5618 13.3919L22.5187 13.4157C22.5131 13.4033 22.4722 13.318 22.4484 13.2681L22.3411 13.4138C22.3353 13.501 22.3171 13.6868 22.2647 13.7158Z" fill="black"/>
<path d="M22.0323 13.6904L22.0144 13.6411C22.0301 13.6279 22.0432 13.5219 22.0497 13.471C22.0541 13.4356 22.0583 13.402 22.0634 13.3795C22.081 13.3022 22.2219 13.2134 22.2499 13.1965L22.2745 13.1817L22.2843 13.2107C22.3414 13.3814 22.3414 13.3894 22.3414 13.3946H22.2933H22.3173L22.2935 13.3986C22.2916 13.3891 22.2709 13.3244 22.249 13.2584C22.1897 13.2979 22.1183 13.357 22.1104 13.3922C22.1059 13.4119 22.102 13.4442 22.0975 13.4781C22.0821 13.5989 22.0704 13.6735 22.0323 13.6904Z" fill="black"/>
<path d="M21.8091 13.6057L21.761 13.6032C21.7691 13.4039 21.9897 13.1669 22.0553 13.1669C22.0687 13.1669 22.0807 13.1731 22.09 13.1845C22.1216 13.2233 22.1141 13.3238 22.111 13.354L22.0631 13.3481C22.0687 13.2911 22.0642 13.2286 22.0536 13.2196C22.0152 13.2252 21.8164 13.4273 21.8091 13.6057Z" fill="black"/>
<path d="M19.5047 10.2657L19.4566 10.2629C19.4569 10.2552 19.4661 10.0753 19.5453 10.0072C19.5714 9.98499 19.6268 9.9551 19.6971 9.91689C19.8248 9.84787 19.9995 9.75328 20.0488 9.67224C20.0681 9.6402 20.079 9.62233 20.0997 9.63557C20.1202 9.64852 20.1137 9.66361 20.0939 9.70829C20.0675 9.76807 19.9869 9.94956 20.0043 10.0016L19.9589 10.0198C19.9432 9.97205 19.9681 9.88547 20.0068 9.78841C19.9275 9.85157 19.815 9.91258 19.7187 9.96465C19.6537 9.99978 19.5974 10.0303 19.5753 10.0491C19.5235 10.0931 19.5067 10.2204 19.5047 10.2657Z" fill="black"/>
<path d="M19.782 10.2281L19.7358 10.213C19.7685 10.0903 19.6218 10.0293 19.6156 10.0268L19.6321 9.97693C19.6999 10.004 19.8184 10.0916 19.782 10.2281Z" fill="black"/>
<path d="M19.6993 10.2653C19.6178 10.2653 19.5515 10.1923 19.5515 10.1026C19.5515 10.013 19.6178 9.93994 19.6993 9.93994C19.7808 9.93994 19.8472 10.013 19.8472 10.1026C19.8472 10.1923 19.7808 10.2653 19.6993 10.2653ZM19.6993 9.97661C19.6363 9.97661 19.5851 10.033 19.5851 10.1023C19.5851 10.1717 19.6363 10.228 19.6993 10.228C19.7623 10.228 19.8136 10.1717 19.8136 10.1023C19.8136 10.033 19.7623 9.97661 19.6993 9.97661Z" fill="black"/>
<path d="M26.6346 9.79599C26.6016 9.73036 26.3969 9.6521 26.3457 9.6521C26.2894 9.6521 25.1212 9.50081 25.0717 9.49465L25.0773 9.44196C25.415 9.48571 26.3012 9.5991 26.3457 9.5991C26.4039 9.5991 26.6302 9.67798 26.6766 9.77011L26.6346 9.79599Z" fill="black"/>
<path d="M25.1395 9.36444L25.1384 9.41742L26.8308 9.4612L26.8319 9.40822L25.1395 9.36444Z" fill="black"/>
<path d="M25.1473 9.37273L25.1445 9.31973C25.7605 9.27936 26.766 9.16875 26.8421 9.04303L26.8822 9.0723C26.8634 9.10311 26.8063 9.1974 25.9649 9.29693C25.5539 9.34592 25.1512 9.37242 25.1473 9.37273Z" fill="black"/>
<path d="M25.1963 8.98747L25.191 8.93478C25.1949 8.93416 25.5989 8.8861 25.9996 8.84172C26.8245 8.75052 26.8309 8.761 26.8424 8.7801L26.8024 8.80937C26.8066 8.81615 26.8122 8.81892 26.8147 8.81923C26.7562 8.80814 25.8151 8.91383 25.1963 8.98747Z" fill="black"/>
<path d="M25.1417 8.76908L25.1341 8.7167C25.138 8.71608 25.53 8.6483 25.919 8.58667C26.7245 8.45911 26.731 8.47759 26.7413 8.50594L26.6965 8.52566C26.6996 8.5346 26.7063 8.53799 26.7083 8.5386C26.6425 8.51981 25.7356 8.66617 25.1417 8.76908Z" fill="black"/>
<path d="M21.1414 8.63262L21.0935 8.62584C21.1391 8.24037 20.6595 7.65616 20.6547 7.65031L20.6903 7.61456C20.711 7.63921 21.1901 8.22281 21.1414 8.63262Z" fill="black"/>
<path d="M22.3005 9.41061C22.2064 9.41061 22.1152 9.3912 22.0328 9.35237C21.9312 9.30431 21.8595 9.23251 21.8413 9.16103C21.8265 9.08523 21.866 9.05626 21.8948 9.03531C21.9267 9.01189 21.95 8.99495 21.9362 8.92315C21.9127 8.72965 21.5468 8.66556 21.3905 8.63844C21.3407 8.62982 21.3138 8.62489 21.2998 8.61903C21.2326 8.5913 21.0932 8.37284 21.066 8.32939L21.1058 8.29919C21.1657 8.39471 21.2757 8.55217 21.3169 8.56911C21.327 8.57343 21.36 8.57897 21.3984 8.58575C21.5792 8.61749 21.9561 8.68343 21.9841 8.91391C22.0043 9.01898 21.9567 9.0538 21.922 9.07906C21.8945 9.09909 21.8811 9.10895 21.8886 9.14809C21.9021 9.20108 21.9665 9.26271 22.0524 9.30338C22.2364 9.39058 22.4682 9.37148 22.6724 9.25254L22.6948 9.29938C22.5679 9.37302 22.4313 9.41061 22.3005 9.41061Z" fill="black"/>
<path d="M22.6839 9.65367C22.6732 9.65367 22.6626 9.65336 22.6522 9.65244C22.4274 9.63364 22.2952 9.42257 22.2896 9.41364L22.3294 9.38375C22.3305 9.3856 22.4548 9.58311 22.6561 9.59944C22.8057 9.61176 22.961 9.52333 23.1181 9.33691L23.1534 9.37296C22.9966 9.55938 22.839 9.65367 22.6839 9.65367Z" fill="black"/>
<path d="M23.0719 9.66108C22.9529 9.66108 22.872 9.61578 22.8701 9.61455L22.8925 9.56772C22.9081 9.57665 23.2822 9.7834 23.5995 9.20166L23.6406 9.22878C23.4477 9.58343 23.2273 9.66108 23.0719 9.66108Z" fill="black"/>
<path d="M23.409 9.73663C23.2576 9.73663 23.1811 9.66853 23.1761 9.66391L23.2069 9.62323C23.2088 9.62508 23.4004 9.79116 23.7918 9.55914L23.8145 9.60567C23.6451 9.70612 23.5104 9.73663 23.409 9.73663Z" fill="black"/>
<path d="M25.0098 9.53997C24.9776 9.51193 24.6164 9.4198 24.3703 9.36341L24.3801 9.31165C24.5251 9.34492 25.0023 9.45677 25.0437 9.50238L25.0098 9.53997Z" fill="black"/>
<path d="M25.0339 9.23285C24.89 9.227 24.6153 9.2156 24.6055 9.21529L24.6058 9.16229C24.6139 9.16229 24.9653 9.17677 25.0359 9.17986L25.0339 9.23285Z" fill="black"/>
<path d="M25.1495 9.05435C25.0851 8.94219 24.6332 8.93233 24.3451 8.95297L24.342 8.89997C24.4182 8.89443 25.0902 8.8516 25.1904 9.026L25.1495 9.05435Z" fill="black"/>
<path d="M25.0801 8.795C25.0359 8.7608 24.503 8.71982 24.0248 8.69918L24.0267 8.64618C24.3381 8.65943 25.0675 8.69702 25.1168 8.76049L25.0801 8.795Z" fill="black"/>
<path d="M24.2625 9.85272L24.2499 9.80157C24.3748 9.76398 24.4495 9.75751 24.4719 9.78216L24.4378 9.81975C24.4392 9.82129 24.4403 9.82191 24.4403 9.82191C24.4246 9.81421 24.3428 9.82869 24.2625 9.85272Z" fill="black"/>
<path d="M24.23 10.473C24.008 10.473 23.8509 10.327 23.843 10.3196L23.8744 10.2795C23.8766 10.2817 24.099 10.4872 24.3762 10.3966L24.3899 10.4475C24.3339 10.4653 24.2804 10.473 24.23 10.473Z" fill="black"/>
<path d="M24.3524 10.7706C24.1396 10.7706 23.9844 10.6948 23.976 10.6905L23.9959 10.6422C23.9984 10.6434 24.2549 10.7685 24.5526 10.693L24.5635 10.7448C24.4893 10.7636 24.4179 10.7706 24.3524 10.7706Z" fill="black"/>
<path d="M24.4649 11.0729C24.2883 11.0729 24.0699 10.9143 24.0598 10.9069L24.0864 10.8628C24.0889 10.8646 24.3426 11.0486 24.5058 11.0162L24.5145 11.0683C24.4985 11.0717 24.482 11.0729 24.4649 11.0729Z" fill="black"/>
<path d="M24.1211 11.2289C24.1163 11.1827 24.0125 11.0789 23.9399 11.02L23.9685 10.9775C24.0004 11.0034 24.16 11.1374 24.1687 11.2231L24.1211 11.2289Z" fill="black"/>
<path d="M23.943 11.6257C23.7364 11.5073 23.6787 11.1921 23.6762 11.1789L23.7235 11.1687C23.7241 11.1718 23.7795 11.4725 23.9651 11.5788L23.943 11.6257Z" fill="black"/>
<path d="M23.6826 11.9963C23.4536 11.7353 23.5378 11.3246 23.5415 11.3073L23.5882 11.3193C23.5874 11.3233 23.5068 11.7196 23.7173 11.9593L23.6826 11.9963Z" fill="black"/>
<path d="M23.3049 11.8586C23.2993 11.8463 23.2965 11.8257 23.3085 11.6599C23.3094 11.6476 23.3102 11.6389 23.3102 11.6365L23.3584 11.6371C23.3584 11.6389 23.3578 11.6494 23.3567 11.6645C23.3491 11.7671 23.3466 11.8257 23.3491 11.8386C23.3491 11.8386 23.3488 11.8374 23.348 11.8355L23.3049 11.8586Z" fill="black"/>
<path d="M21.9054 10.0721L21.9026 10.0192L22.3274 9.99327C22.3473 9.98372 22.3899 9.95629 22.3955 9.92271C22.3988 9.90268 22.3882 9.87988 22.3644 9.85554L22.3971 9.81671C22.4341 9.85461 22.4495 9.89344 22.4428 9.93257C22.4307 10.0031 22.3509 10.0404 22.342 10.0444L22.3344 10.0463L21.9054 10.0721Z" fill="black"/>
<path d="M23.2929 10.5865C23.2755 10.5865 23.2565 10.58 23.2355 10.5674C23.189 10.539 23.1302 10.4423 23.0619 10.3304C23.0162 10.2555 22.9692 10.1782 22.9269 10.1246C22.8376 10.0112 22.4859 9.96989 22.4361 9.96773L22.4366 9.91473C22.4405 9.91473 22.8507 9.94709 22.9633 10.0901C23.0075 10.1464 23.0554 10.225 23.1019 10.3011C23.161 10.3985 23.2223 10.499 23.2587 10.5214C23.2766 10.5325 23.2915 10.5362 23.3004 10.5325C23.3083 10.5292 23.3111 10.5199 23.3113 10.5196L23.3575 10.5347C23.3567 10.5381 23.348 10.5683 23.3192 10.5815C23.3111 10.5846 23.3021 10.5865 23.2929 10.5865Z" fill="black"/>
<path d="M23.0985 11.0033C22.9148 10.8686 23.1296 10.4604 23.1388 10.4431L23.1803 10.4699C23.1237 10.5759 23.0039 10.8702 23.1251 10.9592L23.0985 11.0033Z" fill="black"/>
<path d="M22.9851 11.3426C22.8185 11.1882 23.0129 10.8989 23.021 10.8868L23.0596 10.9186C23.0579 10.921 22.8843 11.1802 23.0162 11.3022L22.9851 11.3426Z" fill="black"/>
<path d="M22.9767 11.7616C22.7816 11.5656 22.9389 11.2763 22.9406 11.2735L22.9818 11.3012C22.9762 11.3114 22.8437 11.5561 23.0092 11.7224L22.9767 11.7616Z" fill="black"/>
<path d="M22.6718 10.7127C22.6589 10.7127 22.6474 10.7103 22.6374 10.7047L22.6589 10.6573C22.6998 10.6798 22.853 10.5735 22.8776 10.5491L22.9112 10.587C22.9098 10.5886 22.7631 10.7127 22.6718 10.7127Z" fill="black"/>
<path d="M22.8303 11.0923C22.7642 11.0923 22.7001 11.0242 22.6925 11.0159L22.7267 10.9783C22.7443 10.9977 22.7992 11.0461 22.839 11.0387L22.8468 11.0911C22.8415 11.092 22.8359 11.0923 22.8303 11.0923Z" fill="black"/>
<path d="M22.7324 11.3857L22.7051 11.4294L22.8197 11.5159L22.8469 11.4722L22.7324 11.3857Z" fill="black"/>
<path d="M22.7458 11.6977L22.7209 11.743L22.8199 11.8088L22.8448 11.7634L22.7458 11.6977Z" fill="black"/>
<path d="M21.1427 7.51284C21.0282 7.51284 20.9336 7.45984 20.9277 7.45645L20.9498 7.40931C20.9518 7.41054 21.1486 7.52023 21.3015 7.41054C21.472 7.28852 22.2759 6.83773 22.4853 6.76378C22.6827 6.69414 22.797 6.27787 22.837 6.10223L22.8838 6.11518C22.8317 6.34411 22.7127 6.73944 22.5002 6.81431C22.2933 6.88734 21.4969 7.33381 21.3278 7.45491C21.2673 7.49866 21.2024 7.51284 21.1427 7.51284Z" fill="black"/>
<path d="M22.7088 6.63094L22.6953 6.5801L23.8599 6.2048C23.8853 6.17953 24.041 6.01283 24.0483 5.7312L24.0965 5.73274C24.0878 6.06275 23.8954 6.24146 23.8873 6.24886L23.8834 6.25225L22.7088 6.63094Z" fill="black"/>
<path d="M23.9912 6.10775L23.9864 6.05506C23.9892 6.05475 24.2807 6.02209 24.5677 5.93181C24.8264 5.85046 25.1344 5.70502 25.1344 5.47485H25.1826C25.1826 5.97094 24.0396 6.1022 23.9912 6.10775Z" fill="black"/>
<path d="M24.981 5.83107L24.9684 5.77992C25.3083 5.67824 26.2102 5.39045 26.3023 5.28168L26.3376 5.31773C26.2191 5.45731 25.1073 5.79317 24.981 5.83107Z" fill="black"/>
<path d="M21.5599 7.75039L21.5378 7.70325C21.5683 7.68599 22.2843 7.27895 22.4013 7.23304C22.4671 7.20716 22.5954 7.05433 22.5802 6.9585C22.5688 6.88609 22.4719 6.87069 22.3926 6.87069V6.81769C22.5696 6.81769 22.618 6.88917 22.6276 6.94926C22.648 7.07867 22.501 7.24999 22.4173 7.28296C22.3036 7.32795 21.5675 7.74638 21.5599 7.75039Z" fill="black"/>
<path d="M21.9083 7.91929V7.89279L21.899 7.86844C21.9041 7.86567 21.9346 7.84503 21.9696 7.82099C22.1404 7.70452 22.5363 7.43429 22.704 7.38222C22.7508 7.30673 22.7623 7.22631 22.7329 7.17485C22.7077 7.1311 22.6567 7.11446 22.5892 7.12801L22.5805 7.07594C22.6676 7.05869 22.7379 7.08426 22.7735 7.14681C22.8149 7.21922 22.8015 7.32429 22.7379 7.42104L22.7329 7.42875L22.7242 7.43121C22.5693 7.47373 22.1516 7.75875 21.9945 7.86598C21.9169 7.91929 21.9169 7.91929 21.9083 7.91929Z" fill="black"/>
<path d="M22.153 8.0727L22.1314 8.02525C22.1381 8.02155 22.802 7.6558 22.9666 7.52608C22.9916 7.46168 22.991 7.41208 22.9652 7.37787C22.9162 7.31347 22.7939 7.31532 22.7768 7.31995L22.7734 7.30516L22.758 7.27126C22.7804 7.25894 22.921 7.25678 22.9916 7.33135C23.0257 7.3674 23.0565 7.43549 23.0081 7.55412L23.0056 7.56059L23.0005 7.5646C22.8418 7.69309 22.181 8.05729 22.153 8.0727Z" fill="black"/>
<path d="M22.6175 7.03527L22.6024 6.98504L23.8957 6.51053C23.9125 6.46739 23.9402 6.37218 23.9156 6.31671C23.9052 6.2936 23.8864 6.27943 23.8582 6.27265L23.868 6.22089C23.9111 6.23075 23.9416 6.2554 23.9587 6.2933C24.0015 6.38882 23.9377 6.53702 23.9349 6.54319L23.9304 6.55336L22.6175 7.03527Z" fill="black"/>
<path d="M23.9693 6.4658L23.9581 6.41435C23.9668 6.41219 24.8107 6.18787 24.9994 6.07079C25.0585 5.96787 25.0017 5.897 24.9454 5.84647C24.9334 5.83568 24.9255 5.8286 24.9255 5.81473H24.9737C24.9737 5.80456 24.9684 5.79871 24.9684 5.7984C24.9698 5.79994 24.9726 5.80241 24.9759 5.80549C25.0801 5.89885 25.1005 5.99961 25.0367 6.1053L25.0336 6.11023L25.0288 6.11331C24.844 6.23348 24.0049 6.45625 23.9693 6.4658Z" fill="black"/>
<path d="M26.2631 5.64077L25.0352 6.01843L25.0482 6.06947L26.276 5.69181L26.2631 5.64077Z" fill="black"/>
<path d="M26.1712 5.94457L25.1017 6.30359L25.1158 6.35428L26.1852 5.99526L26.1712 5.94457Z" fill="black"/>
<path d="M26.0778 6.24069L25.1338 6.55347L25.1477 6.60421L26.0917 6.29143L26.0778 6.24069Z" fill="black"/>
<path d="M25.2156 6.81459L25.2013 6.76405C25.4553 6.67778 25.8854 6.53296 25.9103 6.53296V6.55946L25.912 6.58596C25.8823 6.59027 25.4794 6.72492 25.2156 6.81459Z" fill="black"/>
<path d="M25.7498 6.76487L25.3152 6.95813L25.3333 7.00726L25.7678 6.814L25.7498 6.76487Z" fill="black"/>
<path d="M25.285 7.24575L25.2654 7.19737C25.6294 7.02051 25.6451 7.02051 25.6513 7.02051V7.04701L25.6549 7.0732C25.6328 7.07844 25.4164 7.18197 25.285 7.24575Z" fill="black"/>
<path d="M25.5319 7.23363L25.1978 7.40833L25.2185 7.45619L25.5526 7.28149L25.5319 7.23363Z" fill="black"/>
<path d="M25.0232 7.73169L24.9756 7.72307C24.9804 7.69164 24.9608 7.68024 24.9566 7.67839L24.9748 7.62939C24.9958 7.63833 25.0325 7.6713 25.0232 7.73169Z" fill="black"/>
<path d="M23.7742 8.63418L23.7347 8.60368C23.8064 8.4909 23.9055 8.45239 23.985 8.42157C24.0399 8.40031 24.0869 8.38213 24.111 8.34577L24.1135 8.34269C24.1516 8.3011 24.1684 8.26412 24.1628 8.23608C24.1555 8.20126 24.1146 8.18432 24.1144 8.18432L24.1303 8.1344C24.1331 8.13532 24.1967 8.1609 24.2099 8.22468C24.2197 8.27152 24.1992 8.32359 24.1491 8.37905C24.116 8.42743 24.0603 8.449 24.0012 8.4718C23.9242 8.50169 23.8372 8.53527 23.7742 8.63418Z" fill="black"/>
<path d="M22.7919 7.29317L22.7791 7.24202C23.1279 7.13417 23.8061 6.9191 23.8769 6.87658C23.9609 6.82635 23.9926 6.7675 23.9929 6.76719L23.9976 6.75826L24.0066 6.75518C24.0136 6.75271 24.7094 6.51823 25.0583 6.37279C25.0983 6.29607 25.1103 6.23198 25.0935 6.18761C25.0753 6.13954 25.0277 6.12598 25.0275 6.12598L25.0387 6.07452C25.0415 6.07514 25.1098 6.09394 25.1378 6.16665C25.1621 6.22982 25.1479 6.31117 25.0958 6.40823L25.0916 6.41624L25.0837 6.41963C24.7567 6.55674 24.1105 6.77613 24.0295 6.80355C24.0161 6.82481 23.9775 6.8775 23.9005 6.92372C23.8067 6.97888 22.8334 7.28023 22.7919 7.29317Z" fill="black"/>
<path d="M23.0437 7.55009L23.0285 7.49986C23.4228 7.35535 24.0225 7.13134 24.0586 7.10792C24.076 7.09344 24.0872 7.04938 24.09 7.02535L24.092 7.0084L24.1068 7.00347C24.1144 7.001 24.867 6.74526 25.0795 6.61061C25.114 6.58226 25.1571 6.53727 25.1526 6.49321C25.1484 6.45069 25.1002 6.41833 25.082 6.40971L25.1014 6.36102C25.105 6.36287 25.1921 6.40539 25.2005 6.48705C25.2064 6.54282 25.1744 6.59921 25.1058 6.65498C24.9003 6.78562 24.2434 7.01271 24.1351 7.04969C24.13 7.0765 24.1169 7.12641 24.0866 7.15137C24.0528 7.17879 23.28 7.4635 23.0437 7.55009Z" fill="black"/>
<path d="M23.3211 7.76981L23.3029 7.72081C23.3312 7.70818 23.9987 7.40745 24.1071 7.37078C24.2068 7.33689 24.2703 7.25153 24.2709 7.25092L24.2754 7.24506L24.2821 7.2426C24.2888 7.24013 24.9454 6.99548 25.1523 6.86021C25.1997 6.80998 25.2209 6.76531 25.2134 6.7308C25.2044 6.68951 25.1537 6.66455 25.1353 6.65839L25.1487 6.60754C25.1526 6.60878 25.2425 6.63866 25.2601 6.71816C25.2722 6.77332 25.2464 6.83463 25.1837 6.90057L25.1795 6.90396C24.9793 7.03615 24.3767 7.26293 24.3039 7.29005C24.2863 7.31223 24.2205 7.38773 24.1214 7.42131C24.0147 7.45736 23.3279 7.76673 23.3211 7.76981Z" fill="black"/>
<path d="M23.5219 7.99047L23.5028 7.94179L24.3725 7.53167L24.4229 7.42999L24.4311 7.4266C24.4367 7.42413 24.9801 7.18841 25.2044 7.07903C25.2817 7.01186 25.2865 6.9792 25.2848 6.9681C25.2814 6.94469 25.238 6.92805 25.2095 6.91695C25.1994 6.91295 25.1901 6.90925 25.1823 6.90586L25.2013 6.85718C25.2083 6.86026 25.2165 6.86365 25.2254 6.86704C25.2671 6.88337 25.3243 6.90555 25.3321 6.95978C25.3391 7.00631 25.3072 7.05808 25.2316 7.12309L25.2265 7.12648C25.0179 7.22847 24.526 7.44262 24.4565 7.47282L24.4064 7.57357L23.5219 7.99047Z" fill="black"/>
<path d="M24.5153 7.69676L24.498 7.64715C24.5022 7.6453 24.9334 7.46258 25.1302 7.34519C25.1918 7.30205 25.2288 7.2549 25.2355 7.20992C25.2414 7.17202 25.2237 7.14706 25.2232 7.14613L25.2604 7.11255C25.2618 7.1144 25.292 7.15538 25.2834 7.217C25.2747 7.27863 25.2313 7.33717 25.1546 7.39079C24.9535 7.51096 24.5198 7.69491 24.5153 7.69676Z" fill="black"/>
<path d="M24.1272 8.19041L24.1006 8.14604L24.4434 7.89769C24.4507 7.89337 24.9689 7.59449 25.1042 7.52023C25.1358 7.49496 25.1523 7.47031 25.1521 7.44936C25.1515 7.42594 25.1291 7.409 25.1288 7.409L25.1546 7.36432C25.1563 7.36555 25.1988 7.39575 25.1999 7.44813C25.2011 7.48849 25.1775 7.52763 25.1305 7.5646L25.1271 7.56676C24.9953 7.63948 24.4728 7.94052 24.4675 7.9436L24.1272 8.19041Z" fill="black"/>
<path d="M24.4845 7.9356L24.4453 7.90479C24.4453 7.90448 24.4532 7.89154 24.4493 7.8749C24.4453 7.85703 24.4294 7.83946 24.4033 7.82375L24.3804 7.80988L24.3949 7.78585C24.4607 7.67708 24.4554 7.63148 24.4465 7.61392C24.4327 7.58711 24.391 7.58803 24.3907 7.58803L24.3448 7.58988L24.4241 7.45277C24.4221 7.43305 24.4064 7.36403 24.2757 7.32982L24.2535 7.32397L24.2575 7.29932C24.2793 7.16344 24.1203 7.06114 24.1189 7.06021L24.1032 7.05035L24.1077 7.03094C24.1085 7.02724 24.1261 6.93573 24.0167 6.8473L24.0018 6.83528L24.0083 6.81649C24.0447 6.71018 23.9629 6.61097 23.9321 6.57368C23.9201 6.5592 23.9147 6.55273 23.9147 6.54071H23.9629H23.9388L23.9595 6.52777C23.9609 6.52993 23.964 6.53332 23.9679 6.53794C23.999 6.57584 24.0909 6.68738 24.0589 6.81618C24.1519 6.89845 24.1592 6.98534 24.1569 7.02385C24.1981 7.05343 24.3146 7.14988 24.3079 7.28422C24.4801 7.33814 24.4731 7.45739 24.4728 7.46263L24.4722 7.4691L24.4308 7.54089C24.4515 7.54736 24.4747 7.56061 24.4887 7.58773C24.5128 7.63456 24.4999 7.70173 24.4487 7.79232C24.475 7.81297 24.4913 7.837 24.4969 7.86381C24.5047 7.90325 24.4865 7.93252 24.4845 7.9356Z" fill="black"/>
<path d="M23.6706 8.21606L23.6386 8.17631C23.7879 8.03026 24.3781 7.78345 24.4151 7.78345V7.80995L24.4173 7.83614C24.3832 7.84261 23.8176 8.07216 23.6706 8.21606Z" fill="black"/>
<path d="M23.7389 8.34787V8.28809C23.7389 8.27854 23.7361 8.27145 23.7299 8.26529C23.707 8.24156 23.6493 8.23971 23.6308 8.24095L23.6006 8.2431L23.6056 8.21013C23.6081 8.19349 23.6095 8.14543 23.5871 8.12232C23.5717 8.10629 23.5457 8.1029 23.5093 8.11153L23.4754 8.11985L23.4804 8.08195C23.4925 7.98951 23.4813 7.92542 23.4482 7.89646C23.4018 7.85579 23.3217 7.88937 23.3208 7.88968L23.2791 7.90755L23.2886 7.85948C23.2926 7.83884 23.2973 7.77906 23.271 7.75287C23.2461 7.72822 23.1974 7.73901 23.1612 7.75226L23.1248 7.76551L23.1299 7.7236C23.1366 7.66598 23.1279 7.62192 23.1038 7.59295C23.0672 7.54889 23.005 7.55074 23.0044 7.55105L23.0022 7.49805C23.0056 7.49774 23.087 7.49435 23.1391 7.5566C23.1671 7.59018 23.1811 7.63517 23.1803 7.69094C23.234 7.67769 23.2752 7.68508 23.3035 7.71312C23.3351 7.74455 23.3407 7.79355 23.3402 7.82867C23.3771 7.82035 23.4348 7.81635 23.4785 7.85455C23.5213 7.89184 23.5392 7.95901 23.5322 8.05422C23.5695 8.05114 23.5992 8.061 23.621 8.0838C23.6496 8.11369 23.6554 8.15806 23.6557 8.18764C23.6862 8.18918 23.735 8.19627 23.7638 8.22616C23.7688 8.23139 23.773 8.23694 23.7767 8.2431C23.847 8.19134 23.9164 8.20212 23.948 8.21106C23.973 8.18055 24.0371 8.11739 24.1214 8.14265L24.1088 8.1938C24.0343 8.17162 23.9763 8.25666 23.9758 8.25758L23.9646 8.27422L23.9472 8.26621C23.9438 8.26467 23.8593 8.22831 23.7806 8.30719L23.7389 8.34787Z" fill="black"/>
<path d="M22.3876 8.23781L22.3644 8.19159C22.6615 8.01072 23.1142 7.73094 23.1433 7.70135C23.1414 7.70351 23.1375 7.70967 23.1375 7.7183H23.1856C23.1856 7.73833 23.1856 7.75189 22.3876 8.23781Z" fill="black"/>
<path d="M23.2984 7.85117L22.7052 8.25592L22.7305 8.30096L23.3238 7.89622L23.2984 7.85117Z" fill="black"/>
<path d="M23.0064 8.43939L22.9823 8.39348C23.1699 8.27361 23.4749 8.07672 23.4956 8.05762L23.5096 8.0761H23.5365C23.5365 8.09675 23.5365 8.10075 23.0064 8.43939Z" fill="black"/>
<path d="M23.1837 8.54477C23.18 8.54477 23.1767 8.54446 23.1733 8.54385L23.1828 8.49177C23.2273 8.50163 23.4415 8.33987 23.614 8.18457L23.6445 8.22555C23.5594 8.30228 23.2822 8.54477 23.1837 8.54477Z" fill="black"/>
<path d="M23.3799 8.58823L23.3609 8.53954C23.5317 8.45912 23.7381 8.28719 23.7403 8.28534L23.7694 8.32755C23.7607 8.33464 23.5561 8.50503 23.3799 8.58823Z" fill="black"/>
<path d="M23.6319 8.5876L23.6098 8.54046C23.969 8.33493 23.9517 8.24743 23.9514 8.24681C23.9514 8.24681 23.9517 8.24773 23.9531 8.24958L23.9906 8.21661C23.9937 8.22093 24.0037 8.23757 23.9981 8.26715C23.9822 8.34972 23.859 8.45757 23.6319 8.5876Z" fill="black"/>
</svg>
