<svg width="28" height="20" viewBox="0 0 28 20" fill="none" xmlns="http://www.w3.org/2000/svg">
<mask id="mask0_10622_606" style="mask-type:alpha" maskUnits="userSpaceOnUse" x="0" y="0" width="28" height="20">
<rect width="28" height="20" fill="#D9D9D9"/>
</mask>
<g mask="url(#mask0_10622_606)">
<path d="M33.1304 0H-6V20H33.1304V0Z" fill="#0021AD"/>
<path d="M33.1304 0H-6V20H33.1304V0Z" fill="#0021AD"/>
<path d="M-4 0H35.1304V20L-4 0Z" fill="#1C8A42"/>
<path d="M14.5 13.1556C16.433 13.1556 18 11.5537 18 9.57778C18 7.60183 16.433 6 14.5 6C12.567 6 11 7.60183 11 9.57778C11 11.5537 12.567 13.1556 14.5 13.1556Z" fill="#FFC639"/>
<path d="M12.3625 7.97073C12.6019 8.30651 12.9647 8.8695 13.2565 8.72253C13.4842 8.72333 13.6018 8.7397 13.6327 8.89462C14.1697 8.98805 15.0724 8.75647 15.634 8.00865C15.634 8.00865 15.6813 8.01504 15.6649 7.73076C15.668 7.60699 15.8305 7.63174 15.8344 7.67207C15.8571 7.73355 15.8532 7.77947 15.8836 7.78107C15.9527 7.75751 16.0473 7.599 16.1266 7.49839C16.148 7.45407 16.1363 7.40735 16.1414 7.35146C16.1832 7.24645 16.2875 7.26921 16.3094 7.32431C16.3293 7.35984 16.3297 7.38699 16.3492 7.42253C16.455 7.4948 16.646 7.42732 16.6609 7.42732C16.6796 7.33908 16.7351 7.34746 16.7351 7.34746C16.8058 7.33149 16.7781 7.33788 16.8245 7.36264C16.7835 7.83818 16.9159 7.85933 16.905 8.10327C16.9097 8.37557 16.8245 8.45302 16.8245 8.55683C16.8515 8.68379 17.2444 8.68819 17.1062 8.79559C16.9847 8.86187 17.1065 8.98604 16.9237 9.03435C16.3918 9.31025 16.2898 9.54702 16.2898 9.54702C16.2898 9.54702 16.1562 9.80494 16.1414 9.80494C16.0523 9.97703 15.9395 9.8832 15.8766 9.96705C15.8453 10.0725 15.8102 10.306 15.8727 10.4274C15.9039 10.5943 15.8688 10.6853 15.8297 10.8522C15.7946 11.2004 15.6594 11.2531 15.6438 11.3753C15.5813 11.5058 15.6571 12.1191 15.5977 12.1191C15.2017 12.1271 14.8982 12.0416 14.7415 12.0097C14.8942 11.3369 14.8349 10.746 14.8349 10.6853C14.7958 10.2042 14.1299 10.3212 14.0279 10.2573C13.9436 10.239 13.8904 10.1687 13.8608 10.1384C13.7666 10.128 13.7315 10.106 13.6373 10.096C13.5905 10.12 13.6186 10.1447 13.5139 10.1779C13.2483 10.2106 13.1311 9.94112 13.1311 9.94112C13.144 9.85049 12.5339 9.95949 12.2023 9.88083C12.0664 9.95829 12.007 10.1875 11.8957 10.2146C11.8926 10.2857 11.7125 10.1563 11.6762 10.0864C11.6688 9.88322 11.8496 9.79339 11.8496 9.79339C11.9933 9.68998 12.0785 9.67321 12.1476 9.60174C12.1824 9.42486 12.1648 9.29391 12.2386 9.16093C12.3011 9.05952 12.3933 9.10703 12.4558 9.06152C12.523 9.016 12.5515 8.71815 12.4894 8.63671C12.4894 8.63671 12.2207 8.38877 12.2058 8.3736C12.1183 8.11727 12.3082 7.95196 12.3624 7.97074L12.3625 7.97073Z" fill="#1C8A42"/>
<path d="M25.3047 3.03268C25.2021 2.59663 24.2832 1.6575 23.5926 1.05988C23.4277 0.939325 23.3203 1.01114 23.3418 1.18302C23.4278 1.33693 23.4922 1.50614 23.5782 1.66006C23.6022 1.76265 23.6475 1.83446 23.6715 1.93703C23.6715 1.93703 23.6786 2.11401 23.693 2.1294C23.9079 2.38341 23.9368 2.59878 23.9368 2.59878C24.0609 2.85529 24.1709 3.04248 24.3884 3.25284C24.6321 3.41704 24.4529 3.92727 24.4599 4.19923C24.4599 4.37103 24.3454 4.35068 24.245 4.33005C23.4541 3.5503 22.6702 3.54785 21.9796 3.32204C21.7096 3.29137 21.7048 3.42979 21.7933 3.5066C22.276 4.06081 22.7299 4.43778 23.3274 4.75315C23.4277 4.81992 23.5281 4.88668 23.6285 4.95345C23.7431 5.05604 23.8579 5.15863 23.9724 5.26122C24.2377 5.44578 24.2594 5.61512 24.2594 5.63034C24.2665 5.97664 24.0943 6.24588 24.0442 6.35362C23.9537 6.72082 23.7719 6.78461 23.7719 6.78461C22.2949 7.85422 21.5207 8.13106 19.1263 7.80021C19.0904 7.77985 18.861 7.82083 19.1263 7.92342C19.7357 8.14136 21.2326 8.49093 22.6809 7.75488C23.0286 7.49325 23.2612 7.57901 23.513 7.42242C23.9267 7.14857 24.5174 6.80768 24.6249 6.76941C24.9475 6.58459 25.8508 6.37695 26.0589 6.19213C26.2976 6.1715 26.5454 6.13785 26.5621 5.91747C26.6404 5.86292 26.7552 5.90282 26.8404 5.72315C27.0298 5.68787 26.998 5.61513 26.998 5.61513C26.9502 5.47156 26.7732 5.41239 26.6468 5.30736C26.4601 5.24059 26.3312 5.21996 26.1949 5.29189C26.1519 5.31251 26.1089 5.33287 26.0659 5.35349C26.0659 5.35349 25.8652 5.32256 25.8652 5.30736C25.4191 5.28103 25.4626 3.69439 25.3048 3.03263L25.3047 3.03268Z" fill="#FFC639"/>
<path d="M3.62473 7.6376L3.12578 7.16016L2.62084 7.63096L2.67496 6.93476L2 6.82464L2.56641 6.43367L2.22967 5.82579L2.8819 6.03457L3.13694 5.38641L3.38385 6.03789L4.03866 5.83761L3.69429 6.44105L4.25573 6.83941L3.57944 6.94066L3.62477 7.63762L3.62473 7.6376Z" fill="white"/>
<path d="M5.3946 13.4212L4.85648 13.0545L4.33248 13.4411L4.51685 12.8184L3.98538 12.4417L4.63757 12.4239L4.83276 11.8041L5.05168 12.416L5.70387 12.4098L5.18695 12.8059L5.39463 13.4212L5.3946 13.4212Z" fill="white"/>
</g>
</svg>
