<svg width="28" height="20" viewBox="0 0 28 20" fill="none" xmlns="http://www.w3.org/2000/svg">
<path d="M0 0H28V20H0V0Z" fill="#000066"/>
<path d="M0 0V1.27458L16.3004 11.4005H18.3522V10.126L2.05179 4.16667e-05H0V0ZM18.3522 0V1.27458L2.05179 11.4005H0V10.1259L16.3004 0H18.3522Z" fill="white"/>
<path d="M7.64671 0V11.4005H10.7054V0H7.64671ZM0 3.80017V7.60033H18.3522V3.80017H0Z" fill="white"/>
<path d="M0 4.56021V6.84029H18.3522V4.56021H0ZM8.25847 0V11.4005H10.0937V0H8.25847ZM0 11.4005L6.11739 7.60033H7.48523L1.36784 11.4005H0ZM0 0L6.11739 3.80017H4.74954L0 0.84975V0ZM10.8669 3.80017L16.9843 0H18.3522L12.2348 3.80017H10.8669ZM18.3522 11.4005L12.2348 7.60033H13.6026L18.3522 10.5507V11.4005Z" fill="#CC0000"/>
<path fill-rule="evenodd" clip-rule="evenodd" d="M5.49123 17.3536L4.28906 17.254L5.32668 16.6675L4.65906 15.7104L5.78737 16.1173L6.15692 15.0233L6.52648 16.1173L7.65479 15.7104L6.98717 16.6675L8.02474 17.2541L6.82258 17.3537L6.98822 18.492L6.15692 17.659L5.32559 18.492L5.49123 17.3536Z" fill="white"/>
<path fill-rule="evenodd" clip-rule="evenodd" d="M21.5321 18.5706L20.6857 18.5004L21.4162 18.0874L20.946 17.4135L21.7407 17.7L22.0007 16.9296L22.2607 17.7L23.0554 17.4135L22.5852 18.0874L23.3158 18.5004L22.4694 18.5706L22.5862 19.3718L22.0007 18.7855L21.4153 19.3719L21.5321 18.5706ZM21.5321 6.57988L20.6857 6.50975L21.4162 6.09675L20.946 5.42279L21.7407 5.70938L22.0007 4.93909L22.2607 5.70938L23.0554 5.42279L22.5852 6.09675L23.3158 6.50975L22.4694 6.57992L22.5862 7.38117L22.0007 6.79484L21.4153 7.38121L21.5321 6.57988ZM16.8107 11.4511L15.9644 11.381L16.6949 10.9679L16.2247 10.294L17.0194 10.5806L17.2794 9.81017L17.5394 10.5806L18.3341 10.294L17.8639 10.9679L18.5944 11.381L17.748 11.4511L17.8649 12.2524L17.2794 11.666L16.6939 12.2524L16.8107 11.4511ZM25.7274 10.252L24.8823 10.1819L25.6141 9.76884L25.1429 9.09496L25.9383 9.38155L26.1964 8.61113L26.4576 9.38155L27.2508 9.09496L26.7818 9.76884L27.5121 10.1819L26.6654 10.252L26.7818 11.0533L26.1964 10.467L25.611 11.0533L25.7274 10.252ZM24.6377 12.7371L24.2219 13.0714L24.3519 13.5747L23.8892 13.3016L23.4266 13.5747L23.5565 13.0713L23.1408 12.7371L23.6837 12.699L23.8892 12.2191L24.0948 12.699L24.6377 12.7371Z" fill="white"/>
</svg>
