<svg width="28" height="20" viewBox="0 0 28 20" fill="none" xmlns="http://www.w3.org/2000/svg">
<g clip-path="url(#clip0)">
<rect width="28" height="20" fill="white"/>
<path d="M40 0H0V20H40V0Z" fill="#FFF200"/>
<path d="M19.9867 0H0V10H19.9867V0Z" fill="#005A9B"/>
<path d="M0 3.332H4.21867L0 1.21467V0H2.41333L8.31467 2.94133V0H11.6373V2.94133L17.5373 0H19.9867V1.21467L15.7333 3.332H19.9867V6.66667H15.7333L19.9867 8.784V9.99867H17.5373L11.6373 7.05733V9.99867H8.31467V7.05733L2.41333 9.99867H0V8.784L4.21867 6.66667H0V3.332Z" fill="white"/>
<path d="M18.4027 0L11.736 3.33467H13.332L19.9867 0H18.4027Z" fill="#ED1C2E"/>
<path d="M19.9867 10L13.324 6.66669H14.9267L19.9867 9.20402V10Z" fill="#ED1C2E"/>
<path d="M6.67867 3.33467L0 0V0.796L5.06933 3.33467H6.67867Z" fill="#ED1C2E"/>
<path d="M6.66533 6.66669L0 10H1.59467L8.26133 6.66669H6.66533Z" fill="#ED1C2E"/>
<path d="M0 4.024H9.02133V0H10.9747V4.024H19.9867V5.976H10.9747V10H9.02133V5.976H0V4.024Z" fill="#ED1C2E"/>
<path d="M10.0129 6.67087C10.94 6.66247 11.6848 5.9041 11.6764 4.977C11.668 4.0499 10.9096 3.30514 9.98253 3.31353C9.05543 3.32193 8.31067 4.0803 8.31907 5.0074C8.32746 5.9345 9.08583 6.67926 10.0129 6.67087Z" fill="#005A9B"/>
<path d="M4.16399 4.33466L4.00133 4.83999H3.46666L3.90133 5.15466L3.73333 5.65999L4.16399 5.34666L4.59466 5.65999L4.42933 5.15066L4.86266 4.84266H4.32933L4.16399 4.33466Z" fill="#FFF200"/>
<path d="M9.99867 0.966675L10.1613 1.47201H10.6973L10.2627 1.78801L10.4293 2.29334L9.99867 1.97867L9.568 2.29334L9.73334 1.78267L9.3 1.47467H9.83334L9.99867 0.966675Z" fill="#FFF200"/>
<path d="M9.99867 7.64264L10.1613 8.14797H10.6973L10.2627 8.46264L10.4293 8.96797L9.99867 8.65464L9.568 8.96797L9.73334 8.45864L9.3 8.15064H9.83334L9.99867 7.64264Z" fill="#FFF200"/>
<path d="M9.99733 3.48267L9.66133 4.52667H8.556L9.45333 5.176L9.10933 6.21867L9.99733 5.57067L10.8853 6.21867L10.5453 5.16667L11.4373 4.53067H10.3373L9.99733 3.48267Z" fill="#FFF200"/>
<path d="M15.8307 4.33466L15.9933 4.83999H16.528L16.0933 5.15466L16.26 5.65999L15.8307 5.34666L15.4 5.65999L15.5653 5.15066L15.132 4.84266H15.6653L15.8307 4.33466Z" fill="#FFF200"/>
</g>
<defs>
<clipPath id="clip0">
<rect width="28" height="20" fill="white"/>
</clipPath>
</defs>
</svg>
