<svg width="28" height="20" viewBox="0 0 28 20" fill="none" xmlns="http://www.w3.org/2000/svg">
<mask id="mask0_10622_727" style="mask-type:alpha" maskUnits="userSpaceOnUse" x="0" y="0" width="28" height="20">
<rect width="28" height="20" fill="#D9D9D9"/>
</mask>
<g mask="url(#mask0_10622_727)">
<path d="M37 0H-3V20H37V0Z" fill="#008000"/>
<path d="M13 14C15.2091 14 17 12.2091 17 9.99999C17 7.79086 15.2091 6 13 6C10.7909 6 9 7.79086 9 9.99999C9 12.2091 10.7909 14 13 14Z" fill="#FFE000"/>
<path d="M14.2472 13.1314C16.065 13.1314 17.5387 11.6578 17.5387 9.84001C17.5387 8.0222 16.065 6.54858 14.2472 6.54858C12.4294 6.54858 10.9558 8.0222 10.9558 9.84001C10.9558 11.6578 12.4294 13.1314 14.2472 13.1314Z" fill="#008000"/>
<path d="M4 7C5.65685 7 7 5.65685 7 4C7 2.34315 5.65685 1 4 1C2.34315 1 1 2.34315 1 4C1 5.65685 2.34315 7 4 7Z" fill="#FFE000"/>
<path d="M3.85797 6.38438H4.62449C4.62449 6.38438 4.65909 6.31411 4.61677 6.27898C4.57446 6.24385 4.40962 6.23611 4.45416 6.11184C4.54571 5.85634 4.55849 5.93511 4.61598 5.32829C4.67346 4.72147 4.70114 3.76971 4.70114 3.76971H4.59043C4.59043 3.76971 4.61172 4.06567 4.54784 4.45106C4.48397 4.83646 4.4648 4.87051 4.39454 5.16646C4.32428 5.46241 4.31363 5.48798 4.24976 5.66044C4.18588 5.83291 4.17949 5.84143 4.07942 6.0011C3.97935 6.16079 4.01554 6.10118 3.96018 6.19699C3.9325 6.24489 3.89844 6.23212 3.87981 6.26698C3.86118 6.30185 3.85798 6.38436 3.85798 6.38436L3.85797 6.38438Z" fill="#802000" stroke="#7B3100" stroke-width="0.558132"/>
<path d="M4.36463 1.81436C4.37085 1.93071 4.35916 2.08474 4.31094 2.21009C4.26204 2.34977 4.20887 2.48901 4.21151 2.63366C4.13377 2.6601 4.05366 2.46545 3.97884 2.57997C4.03508 2.73819 4.16494 2.86347 4.25391 3.00602C4.26892 3.05022 4.39692 3.16562 4.32286 3.19245C4.13591 3.12847 4.0906 2.89161 3.97464 2.74777C3.83997 2.50571 3.58889 2.33462 3.30918 2.32281C3.20412 2.32556 2.86251 2.29677 2.95139 2.47668C3.08229 2.56568 3.24359 2.62371 3.37284 2.7236C3.46914 2.73261 3.64368 2.89337 3.63351 2.95411C3.46414 2.88551 3.38487 2.80329 3.20238 2.73113C2.95513 2.63564 2.61313 2.69307 2.47625 2.93846C2.45073 3.00237 2.41305 3.18864 2.4933 3.20638C2.58708 3.05997 2.72122 2.89629 2.91999 2.9402C3.07611 2.95239 2.74578 3.23104 2.87214 3.17498C2.91218 3.15721 3.00464 3.09651 3.06878 3.09018C3.13292 3.08384 3.16874 3.13185 3.21741 3.1385C3.31474 3.15178 3.34154 3.19259 3.33252 3.21633C3.32187 3.24433 3.29095 3.22042 3.19201 3.25179C3.14254 3.26748 3.1167 3.31095 3.05899 3.33085C3.00129 3.35076 2.88125 3.35217 2.83639 3.33452C2.67944 3.26635 2.42214 3.27821 2.37321 3.47488C2.37317 3.56137 2.29621 3.46533 2.26064 3.50269C2.23397 3.59706 2.22707 3.69396 2.08709 3.68539C2.00212 3.77453 1.91511 3.86683 1.80722 3.93025C1.87053 4.07557 2.1214 3.7843 2.10967 3.90711C2.00001 4.05665 2.1661 4.08812 2.23881 3.97302C2.36177 3.84309 2.51407 3.68494 2.69756 3.81588C2.78495 3.89816 2.83574 3.77238 2.89899 3.77911C2.93884 3.88132 2.98898 3.78414 3.03422 3.75525C3.10826 3.74602 3.08743 3.84773 3.17541 3.78508C3.35075 3.66903 3.56647 3.76654 3.73777 3.65363C3.9201 3.57057 3.76337 3.72054 3.71305 3.77916C3.63294 3.93454 3.70241 4.13851 3.52865 4.235C3.45885 4.42017 3.61111 4.66427 3.45581 4.80126C3.43322 4.88716 3.65554 4.87732 3.71794 4.91262C3.82727 4.91695 3.71324 4.66237 3.82172 4.62825C3.9672 4.7183 3.96039 4.46721 3.93035 4.38976C3.94445 4.21371 3.95439 4.02122 4.04187 3.86176C4.13488 3.66632 4.22096 3.94136 4.11685 4.01874C4.05771 4.19845 3.97162 4.42335 4.1061 4.59048C4.14486 4.59915 4.17668 4.69309 4.22686 4.72197C4.27704 4.75084 4.34558 4.71465 4.35809 4.62918C4.42246 4.37181 4.39003 4.09504 4.48195 3.84474C4.54683 3.7672 4.63632 3.83223 4.67655 3.90353C4.80536 4.05308 4.89591 4.24002 5.05185 4.36324C5.19384 4.42968 5.31942 4.53018 5.38485 4.67636C5.38398 4.78914 5.70517 4.80643 5.60919 4.68107C5.5171 4.55903 5.57786 4.43697 5.67114 4.35582C5.7211 4.36814 5.70634 4.27866 5.66717 4.31406C5.60445 4.29926 5.60044 4.18448 5.68761 4.23904C5.83444 4.28643 5.67617 4.13278 5.6231 4.12806C5.49895 4.05111 5.35632 3.96258 5.29528 3.82883C5.45689 3.83048 5.62465 3.91764 5.78979 3.86357C5.92217 3.79556 6.05643 3.86925 6.10266 3.98593C6.20499 3.9696 6.16136 3.86698 6.10266 3.8328C6.17751 3.80192 6.22927 3.73788 6.13852 3.6814C6.09059 3.61885 6.20279 3.51217 6.06488 3.51661C6.06938 3.41127 6.02791 3.31487 5.91308 3.27847C5.79805 3.18106 5.46049 3.42198 5.47028 3.20241C5.43627 3.08291 5.6074 3.18644 5.65522 3.12684C5.70463 3.00086 5.41976 3.01315 5.51376 2.91548C5.57515 2.87595 5.86326 2.81917 5.63732 2.77688C5.52455 2.80787 5.42778 2.78492 5.33904 2.72912C5.25815 2.8644 5.0272 2.65565 5.06835 2.89616C5.03675 2.98679 4.83032 3.22226 4.77446 3.04186C4.82197 2.90047 5.06655 2.85423 4.99071 2.66359C4.97907 2.54458 4.8804 2.68429 4.83392 2.67541C4.81038 2.60133 4.90511 2.51402 4.97113 2.49644C5.10214 2.5972 5.10611 2.36931 5.23071 2.38785C5.32168 2.36763 5.20133 2.32862 5.17596 2.31149C5.20089 2.2449 5.34054 2.21088 5.2036 2.15306C5.08278 2.0634 4.99323 2.24229 4.89357 2.25183C4.79792 2.14385 4.98041 2.09194 5.03078 2.03507C5.03349 1.99268 4.92437 2.02228 4.9572 1.98536C4.98572 1.93438 5.17893 1.93059 5.08845 1.85411C4.95218 1.80732 4.77634 1.81899 4.6456 1.87959C4.56323 1.90626 4.53899 2.09251 4.46799 2.08479C4.43461 2.00188 4.47886 1.83832 4.36458 1.81433L4.36463 1.81436ZM5.00895 3.63397C5.11278 3.61639 5.01115 3.79166 4.96122 3.78909C4.96563 3.72611 4.81105 3.73217 4.90696 3.6773C4.93806 3.65722 4.97272 3.6419 5.00895 3.63397Z" fill="#008000"/>
<path d="M22.9833 13.3079L23.1549 13.8416L23.6792 13.643L23.369 14.11L23.8511 14.3961L23.2926 14.4447L23.3695 15L22.9833 14.5936L22.5971 15L22.674 14.4447L22.1155 14.3961L22.5976 14.11L22.2874 13.643L22.8116 13.8416L22.9833 13.3079Z" fill="#FFE000"/>
<path d="M19.8678 8.37506L20.0395 8.90876L20.5637 8.7102L20.2535 9.17716L20.7356 9.46326L20.1771 9.51185L20.254 10.0672L19.8678 9.66081L19.4816 10.0672L19.5585 9.51185L19 9.46326L19.4821 9.17716L19.1719 8.7102L19.6962 8.90876L19.8678 8.37506Z" fill="#FFE000"/>
<path d="M22.9833 5L23.1549 5.5337L23.6792 5.33514L23.369 5.8021L23.8511 6.0882L23.2926 6.13679L23.3695 6.69211L22.9833 6.28574L22.5971 6.69211L22.674 6.13679L22.1155 6.0882L22.5976 5.8021L22.2874 5.33514L22.8116 5.5337L22.9833 5Z" fill="#FFE000"/>
<path d="M25.7526 7.54428L25.9242 8.07798L26.4485 7.87942L26.1383 8.34638L26.6204 8.63248L26.0619 8.68107L26.1388 9.23639L25.7526 8.83003L25.3664 9.23639L25.4433 8.68107L24.8848 8.63248L25.3669 8.34638L25.0566 7.87942L25.5809 8.07798L25.7526 7.54428Z" fill="#FFE000"/>
<path d="M24.2295 10.044L24.3651 10.3766L24.7233 10.4028L24.449 10.6346L24.5347 10.9834L24.2295 10.7941L23.9243 10.9834L24.01 10.6346L23.7357 10.4028L24.0938 10.3766L24.2295 10.044Z" fill="#FFE000"/>
</g>
</svg>
