<svg width="28" height="20" viewBox="0 0 28 20" fill="none" xmlns="http://www.w3.org/2000/svg">
<rect width="28" height="20" fill="#F0F0F0"/>
<rect y="16" width="28" height="1" fill="#D80027"/>
<rect y="3" width="28" height="1" fill="#D80027"/>
<path d="M12.2865 7.53192L13.0587 8.66253L14.3093 8.23164L13.5359 9.36132L14.308 10.492L13.0578 10.0595L12.2844 11.1891L12.2851 9.79221L11.035 9.35973L12.2856 8.92884L12.2865 7.53192Z" fill="#D80027"/>
<path d="M10.179 12.1866C8.71007 12.1866 7.51917 10.9213 7.51917 9.36053C7.51917 7.79973 8.71002 6.53447 10.179 6.53447C10.6371 6.53447 11.068 6.65751 11.4443 6.87413C10.854 6.26084 10.0467 5.88232 9.15599 5.88232C7.348 5.88232 5.88235 7.43955 5.88235 9.36053C5.88235 11.2815 7.348 12.8387 9.15599 12.8387C10.0467 12.8387 10.854 12.4602 11.4443 11.8469C11.0681 12.0635 10.6371 12.1866 10.179 12.1866Z" fill="#D80027"/>
</svg>
