<svg width="28" height="20" viewBox="0 0 28 20" fill="none" xmlns="http://www.w3.org/2000/svg">
<rect width="28" height="20" fill="white"/>
<path fill-rule="evenodd" clip-rule="evenodd" d="M16.3667 7.37834C16.3667 7.24707 16.3241 6.99219 16.1855 6.9039C16.0074 6.81139 16.0074 6.75458 15.9928 6.63328C15.9786 6.51199 16.2922 6.28398 16.2922 6.28398C16.2922 6.28398 16.0074 6.15577 15.9003 6.16997C15.7936 6.18418 15.5867 6.20567 15.5583 6.23408C15.5299 6.26287 15.3729 5.72125 15.4727 5.63565C15.5725 5.55005 15.779 5.83525 15.779 5.83525C15.779 5.83525 15.9145 5.52165 15.437 4.92284C15.6009 3.75435 14.5107 3.48358 14.2612 3.49072C14.0547 3.4622 13.5204 3.65463 13.4348 3.91115C13.1642 4.00378 13.15 4.23893 13.15 4.23893C13.15 4.23893 12.5942 4.33869 12.5228 4.82342C12.8506 4.55242 13.0644 4.85182 13.0644 4.85182C13.0644 4.85182 13.3492 5.05143 13.4989 5.05834C13.6486 5.06563 13.3565 5.55735 13.2709 5.64294C13.1853 5.72816 12.8291 6.05597 12.8433 6.07747C12.8575 6.09896 13.1212 6.17727 13.107 6.29818C13.0928 6.41948 12.2948 6.7899 12.3374 6.88279C12.5443 6.81869 12.7051 6.86782 12.7051 6.86782C12.7339 7.07011 12.6533 7.30311 12.5159 7.37873L16.3667 7.37834Z" fill="#F7F308" stroke="black" stroke-width="0.0569484"/>
<path fill-rule="evenodd" clip-rule="evenodd" d="M16.1556 12.7184C16.1556 12.7184 16.1917 13.1468 16.0105 13.3279C16.8162 13.379 17.2519 14.1993 17.2592 14.3954C17.2665 14.5916 17.0124 14.744 17.0124 14.744C17.0124 14.744 17.0995 15.0925 16.7655 15.1505C16.7728 15.4844 16.5402 15.4844 16.5402 15.4844C16.5402 15.4844 16.4531 15.7604 16.1848 15.7458C16.1045 16.1454 15.6907 16.1381 15.6907 16.1381C15.6907 16.1381 15.4512 16.7189 15.0954 16.4936C14.8705 16.9876 14.2751 16.9657 14.0502 16.4936C13.9266 16.4867 13.6506 16.6536 13.4836 16.1596C13.1136 16.2253 12.9681 15.7531 12.9681 15.7531C12.9681 15.7531 12.7213 15.7312 12.6268 15.4844C12.3366 15.4265 12.3873 15.1359 12.3873 15.1359C12.3873 15.1359 12.0971 15.056 12.1044 14.7367C11.8718 14.5989 11.8937 14.3517 11.8937 14.3517C11.8937 14.3517 12.0752 13.4949 13.1281 13.3137C12.9612 13.0738 12.9827 12.7253 12.9827 12.7253L16.1556 12.7184Z" fill="#F7F308" stroke="black" stroke-width="0.0569484" stroke-linecap="round" stroke-linejoin="round"/>
<path fill-rule="evenodd" clip-rule="evenodd" d="M11.1122 7.80382C11.1122 7.80382 10.5388 8.42114 10.2518 7.95986C9.9648 7.49915 10.6515 7.36873 10.6601 7.36019C10.6692 7.35165 11.0604 7.22972 11.0951 6.50802C11.1299 5.78631 10.2341 5.31677 9.98188 5.25589C9.73019 5.19501 8.99104 5.19501 8.99104 5.19501C8.99104 5.19501 6.28675 4.5429 6.00886 4.34289C5.7304 4.14289 3.17416 3.67335 3.17416 3.67335C3.17416 3.67335 2.7653 3.62119 2.80003 3.9864C2.83534 4.35161 3.17416 4.39506 3.17416 4.39506C3.17416 4.39506 2.88716 4.62114 2.92189 4.82115C2.95663 5.02109 3.17416 5.34285 3.6263 5.29069C3.57391 6.00368 4.56531 6.11672 4.56531 6.11672C4.56531 6.11672 4.66952 7.14276 5.58234 7.0906C5.79987 7.79471 6.61703 7.8209 6.61703 7.8209C6.61703 7.8209 6.99969 8.29927 7.55604 8.33401C7.87778 9.13414 8.57364 8.90805 8.57364 8.90805C8.57364 8.90805 8.52125 9.41204 8.84299 9.41204C8.67785 9.98608 9.29513 10.0641 9.52974 9.95134C9.59067 10.0732 9.79966 10.4468 10.2774 10.2122C10.5644 10.6381 11.0342 10.4383 11.0342 10.4383C11.0342 10.4383 11.1384 10.7771 11.5473 10.6467C11.9556 10.5163 11.1037 7.8209 11.1122 7.80382Z" fill="#F7F308" stroke="black" stroke-width="0.0569465" stroke-linejoin="round"/>
<path fill-rule="evenodd" clip-rule="evenodd" d="M9.33845 5.69934C9.33845 5.69934 9.97338 5.76887 9.89537 6.75146L9.33845 5.69934Z" fill="#F7F308"/>
<path d="M9.33845 5.69934C9.33845 5.69934 9.97338 5.76887 9.89537 6.75146" stroke="black" stroke-width="0.0569465" stroke-linecap="round" stroke-linejoin="round"/>
<path fill-rule="evenodd" clip-rule="evenodd" d="M6.92167 4.68207C6.92167 4.68207 5.70419 5.51676 7.98254 5.77764L6.92167 4.68207Z" fill="#F7F308"/>
<path d="M6.92167 4.68207C6.92167 4.68207 5.70419 5.51676 7.98254 5.77764" stroke="black" stroke-width="0.0569465" stroke-linecap="round" stroke-linejoin="round"/>
<path fill-rule="evenodd" clip-rule="evenodd" d="M7.26964 5.66455C7.26053 5.68192 6.69564 6.35146 7.73886 6.55147C7.24344 7.021 8.17335 7.1775 8.17335 7.1775C8.17335 7.1775 7.98259 7.67341 8.53893 7.80382C8.35614 8.31635 8.95634 8.29073 8.95634 8.29073C8.95634 8.29073 8.97342 8.91659 9.68637 8.90805C9.67783 9.33402 10.1732 9.36022 10.1732 9.36022C10.1732 9.36022 10.3213 9.82093 10.7996 9.68198C10.8515 10.0037 11.1817 9.93369 11.1817 9.93369" fill="#F7F308"/>
<path d="M7.26964 5.66455C7.26053 5.68192 6.69564 6.35146 7.73886 6.55147C7.24344 7.021 8.17335 7.1775 8.17335 7.1775C8.17335 7.1775 7.98259 7.67341 8.53893 7.80382C8.35614 8.31635 8.95634 8.29073 8.95634 8.29073C8.95634 8.29073 8.97342 8.91659 9.68637 8.90805C9.67783 9.33402 10.1732 9.36022 10.1732 9.36022C10.1732 9.36022 10.3213 9.82093 10.7996 9.68198C10.8515 10.0037 11.1817 9.93369 11.1817 9.93369" stroke="black" stroke-width="0.0569465" stroke-linecap="round" stroke-linejoin="round"/>
<path fill-rule="evenodd" clip-rule="evenodd" d="M11.0428 10.4468C11.0428 10.4468 11.069 10.0038 10.9648 9.91663L11.0428 10.4468Z" fill="#F7F308"/>
<path d="M11.0428 10.4468C11.0428 10.4468 11.069 10.0038 10.9648 9.91663" stroke="black" stroke-width="0.0569465" stroke-linecap="round" stroke-linejoin="round"/>
<path fill-rule="evenodd" clip-rule="evenodd" d="M10.2518 10.2036C10.2604 10.1945 10.4602 9.7947 10.3908 9.72522L10.2518 10.2036Z" fill="#F7F308"/>
<path d="M10.2518 10.2036C10.2604 10.1945 10.4602 9.7947 10.3908 9.72522" stroke="black" stroke-width="0.0569465" stroke-linecap="round" stroke-linejoin="round"/>
<path fill-rule="evenodd" clip-rule="evenodd" d="M9.52122 9.95145L10.0605 9.42126L9.52122 9.95145Z" fill="#F7F308"/>
<path d="M9.52122 9.95145L10.0605 9.42126" stroke="black" stroke-width="0.0569465" stroke-linecap="round" stroke-linejoin="round"/>
<path fill-rule="evenodd" clip-rule="evenodd" d="M8.843 9.42973C8.85154 9.42119 9.66016 8.91663 9.66016 8.91663L8.843 9.42973Z" fill="#F7F308"/>
<path d="M8.843 9.42973C8.85154 9.42119 9.66016 8.91663 9.66016 8.91663" stroke="black" stroke-width="0.0569465" stroke-linecap="round" stroke-linejoin="round"/>
<path fill-rule="evenodd" clip-rule="evenodd" d="M8.556 8.91674C8.56511 8.90819 9.01725 8.71685 9.03433 8.5517L8.556 8.91674Z" fill="#F7F308"/>
<path d="M8.556 8.91674C8.56511 8.90819 9.01725 8.71685 9.03433 8.5517" stroke="black" stroke-width="0.0569465" stroke-linecap="round" stroke-linejoin="round"/>
<path fill-rule="evenodd" clip-rule="evenodd" d="M7.55607 8.334C7.55607 8.334 8.65168 8.56863 8.84302 8.31635L7.55607 8.334Z" fill="#F7F308"/>
<path d="M7.55607 8.334C7.55607 8.334 8.65168 8.56863 8.84302 8.31635" stroke="black" stroke-width="0.0569465" stroke-linecap="round" stroke-linejoin="round"/>
<path fill-rule="evenodd" clip-rule="evenodd" d="M6.64328 7.81239C6.68712 7.81239 8.2867 7.98608 8.43475 7.78619L6.64328 7.81239Z" fill="#F7F308"/>
<path d="M6.64328 7.81239C6.68713 7.81239 8.2867 7.98608 8.43475 7.78619" stroke="black" stroke-width="0.0569465" stroke-linecap="round" stroke-linejoin="round"/>
<path fill-rule="evenodd" clip-rule="evenodd" d="M5.58237 7.09067C5.60856 7.08196 7.47806 7.43829 8.00821 7.16892L5.58237 7.09067Z" fill="#F7F308"/>
<path d="M5.58237 7.09067C5.60856 7.08196 7.47806 7.43829 8.00821 7.16892" stroke="black" stroke-width="0.0569465" stroke-linecap="round" stroke-linejoin="round"/>
<path fill-rule="evenodd" clip-rule="evenodd" d="M4.68722 6.12549C4.73049 6.12549 7.17399 6.71678 7.539 6.53421L4.68722 6.12549Z" fill="#F7F308"/>
<path d="M4.68722 6.12549C4.73049 6.12549 7.17399 6.71678 7.539 6.53421" stroke="black" stroke-width="0.0569465" stroke-linecap="round" stroke-linejoin="round"/>
<path fill-rule="evenodd" clip-rule="evenodd" d="M3.75669 5.27338C3.77435 5.27338 6.66941 5.95163 7.03442 5.67338L3.75669 5.27338Z" fill="#F7F308"/>
<path d="M3.75669 5.27338C3.77435 5.27338 6.66941 5.95163 7.03442 5.67338" stroke="black" stroke-width="0.0569465" stroke-linecap="round" stroke-linejoin="round"/>
<path fill-rule="evenodd" clip-rule="evenodd" d="M3.38255 4.44733C3.39166 4.44733 6.15632 5.35161 6.39093 5.12558L3.38255 4.44733Z" fill="#F7F308"/>
<path d="M3.38255 4.44733C3.39166 4.44733 6.15632 5.35161 6.39093 5.12558" stroke="black" stroke-width="0.0569465" stroke-linecap="round" stroke-linejoin="round"/>
<path fill-rule="evenodd" clip-rule="evenodd" d="M18.0523 7.82384C18.0523 7.82384 18.6258 8.44116 18.9128 7.97988C19.1998 7.51917 18.513 7.38875 18.5045 7.38021C18.4953 7.37167 18.1041 7.24974 18.0694 6.52804C18.0347 5.80633 18.9304 5.33679 19.1827 5.27591C19.4344 5.21503 20.1735 5.21503 20.1735 5.21503C20.1735 5.21503 22.8778 4.56292 23.1557 4.36291C23.4342 4.16291 25.9904 3.69337 25.9904 3.69337C25.9904 3.69337 26.3993 3.64121 26.3645 4.00642C26.3292 4.37163 25.9904 4.41508 25.9904 4.41508C25.9904 4.41508 26.2774 4.64116 26.2427 4.84117C26.2079 5.04111 25.9904 5.36287 25.5383 5.31071C25.5906 6.0237 24.5992 6.13674 24.5992 6.13674C24.5992 6.13674 24.495 7.16278 23.5822 7.11062C23.3647 7.81473 22.5475 7.84092 22.5475 7.84092C22.5475 7.84092 22.1649 8.31929 21.6085 8.35403C21.2868 9.15415 20.5909 8.92807 20.5909 8.92807C20.5909 8.92807 20.6433 9.43206 20.3216 9.43206C20.4867 10.0061 19.8694 10.0841 19.6348 9.97136C19.5739 10.0932 19.3649 10.4668 18.8871 10.2322C18.6001 10.6582 18.1303 10.4583 18.1303 10.4583C18.1303 10.4583 18.0261 10.7971 17.6173 10.6667C17.209 10.5363 18.0609 7.84092 18.0523 7.82384Z" fill="#F7F308" stroke="black" stroke-width="0.0569465" stroke-linejoin="round"/>
<path fill-rule="evenodd" clip-rule="evenodd" d="M19.8262 5.71936C19.8262 5.71936 19.1913 5.78889 19.2693 6.77148L19.8262 5.71936Z" fill="#F7F308"/>
<path d="M19.8262 5.71936C19.8262 5.71936 19.1913 5.78889 19.2693 6.77148" stroke="black" stroke-width="0.0569465" stroke-linecap="round" stroke-linejoin="round"/>
<path fill-rule="evenodd" clip-rule="evenodd" d="M22.2429 4.70184C22.2429 4.70184 23.4604 5.53654 21.182 5.79742L22.2429 4.70184Z" fill="#F7F308"/>
<path d="M22.2429 4.70184C22.2429 4.70184 23.4604 5.53654 21.182 5.79742" stroke="black" stroke-width="0.0569465" stroke-linecap="round" stroke-linejoin="round"/>
<path fill-rule="evenodd" clip-rule="evenodd" d="M21.895 5.68439C21.9041 5.70176 22.469 6.3713 21.4258 6.5713C21.9212 7.04084 20.9913 7.19734 20.9913 7.19734C20.9913 7.19734 21.1821 7.69324 20.6257 7.82365C20.8085 8.33619 20.2083 8.31056 20.2083 8.31056C20.2083 8.31056 20.1912 8.93643 19.4783 8.92788C19.4868 9.35386 18.9914 9.38005 18.9914 9.38005C18.9914 9.38005 18.8433 9.84077 18.365 9.70181C18.3132 10.0236 17.9829 9.95352 17.9829 9.95352" fill="#F7F308"/>
<path d="M21.895 5.68439C21.9041 5.70176 22.469 6.3713 21.4258 6.5713C21.9212 7.04084 20.9913 7.19734 20.9913 7.19734C20.9913 7.19734 21.1821 7.69324 20.6257 7.82365C20.8085 8.33619 20.2083 8.31056 20.2083 8.31056C20.2083 8.31056 20.1912 8.93643 19.4783 8.92788C19.4868 9.35386 18.9914 9.38005 18.9914 9.38005C18.9914 9.38005 18.8433 9.84077 18.365 9.70181C18.3132 10.0236 17.9829 9.95352 17.9829 9.95352" stroke="black" stroke-width="0.0569465" stroke-linecap="round" stroke-linejoin="round"/>
<path fill-rule="evenodd" clip-rule="evenodd" d="M18.1218 10.4668C18.1218 10.4668 18.0956 10.0238 18.1998 9.93665L18.1218 10.4668Z" fill="#F7F308"/>
<path d="M18.1218 10.4668C18.1218 10.4668 18.0956 10.0238 18.1998 9.93665" stroke="black" stroke-width="0.0569465" stroke-linecap="round" stroke-linejoin="round"/>
<path fill-rule="evenodd" clip-rule="evenodd" d="M18.9127 10.2236C18.9042 10.2145 18.7043 9.81472 18.7738 9.74524L18.9127 10.2236Z" fill="#F7F308"/>
<path d="M18.9127 10.2236C18.9042 10.2145 18.7043 9.81472 18.7738 9.74524" stroke="black" stroke-width="0.0569465" stroke-linecap="round" stroke-linejoin="round"/>
<path fill-rule="evenodd" clip-rule="evenodd" d="M19.6433 9.97129L19.1041 9.4411L19.6433 9.97129Z" fill="#F7F308"/>
<path d="M19.6433 9.97129L19.1041 9.4411" stroke="black" stroke-width="0.0569465" stroke-linecap="round" stroke-linejoin="round"/>
<path fill-rule="evenodd" clip-rule="evenodd" d="M20.3216 9.44975C20.3131 9.44121 19.5045 8.93665 19.5045 8.93665L20.3216 9.44975Z" fill="#F7F308"/>
<path d="M20.3216 9.44975C20.3131 9.44121 19.5045 8.93665 19.5045 8.93665" stroke="black" stroke-width="0.0569465" stroke-linecap="round" stroke-linejoin="round"/>
<path fill-rule="evenodd" clip-rule="evenodd" d="M20.6086 8.93651C20.5995 8.92797 20.1474 8.73662 20.1303 8.57147L20.6086 8.93651Z" fill="#F7F308"/>
<path d="M20.6086 8.93651C20.5995 8.92797 20.1474 8.73662 20.1303 8.57147" stroke="black" stroke-width="0.0569465" stroke-linecap="round" stroke-linejoin="round"/>
<path fill-rule="evenodd" clip-rule="evenodd" d="M21.6086 8.35402C21.6086 8.35402 20.513 8.58865 20.3216 8.33636L21.6086 8.35402Z" fill="#F7F308"/>
<path d="M21.6086 8.35402C21.6086 8.35402 20.513 8.58865 20.3216 8.33636" stroke="black" stroke-width="0.0569465" stroke-linecap="round" stroke-linejoin="round"/>
<path fill-rule="evenodd" clip-rule="evenodd" d="M22.5214 7.83223C22.4775 7.83223 20.8779 8.00592 20.7299 7.80603L22.5214 7.83223Z" fill="#F7F308"/>
<path d="M22.5214 7.83223C22.4775 7.83223 20.8779 8.00592 20.7299 7.80603" stroke="black" stroke-width="0.0569465" stroke-linecap="round" stroke-linejoin="round"/>
<path fill-rule="evenodd" clip-rule="evenodd" d="M23.5823 7.11051C23.5561 7.1018 21.6866 7.45812 21.1564 7.18876L23.5823 7.11051Z" fill="#F7F308"/>
<path d="M23.5823 7.11051C23.5561 7.1018 21.6866 7.45812 21.1564 7.18876" stroke="black" stroke-width="0.0569465" stroke-linecap="round" stroke-linejoin="round"/>
<path fill-rule="evenodd" clip-rule="evenodd" d="M24.4774 6.14532C24.4341 6.14532 21.9907 6.73662 21.6256 6.55404L24.4774 6.14532Z" fill="#F7F308"/>
<path d="M24.4774 6.14532C24.4341 6.14532 21.9907 6.73662 21.6256 6.55404" stroke="black" stroke-width="0.0569465" stroke-linecap="round" stroke-linejoin="round"/>
<path fill-rule="evenodd" clip-rule="evenodd" d="M25.4079 5.29321C25.3902 5.29321 22.4951 5.97147 22.1301 5.69322L25.4079 5.29321Z" fill="#F7F308"/>
<path d="M25.4079 5.29321C25.3902 5.29321 22.4951 5.97147 22.1301 5.69322" stroke="black" stroke-width="0.0569465" stroke-linecap="round" stroke-linejoin="round"/>
<path fill-rule="evenodd" clip-rule="evenodd" d="M25.782 4.4671C25.7729 4.4671 23.0082 5.37139 22.7736 5.14536L25.782 4.4671Z" fill="#F7F308"/>
<path d="M25.782 4.4671C25.7729 4.4671 23.0082 5.37139 22.7736 5.14536" stroke="black" stroke-width="0.0569465" stroke-linecap="round" stroke-linejoin="round"/>
<path fill-rule="evenodd" clip-rule="evenodd" d="M21.3748 8.87738C21.3748 8.87738 21.2048 11.3072 21.1967 11.3014C21.1883 11.296 20.842 10.8773 20.842 10.8773L19.7734 14.2283L20.0229 14.9591L19.4007 17.0001L18.8874 16.3491L18.0583 16.6823L18.7239 14.5331L19.3389 14.0913L20.4459 10.7897L19.8313 10.8669L21.3748 8.87738Z" fill="#8CC2EF" stroke="black" stroke-width="0.0569484"/>
<path fill-rule="evenodd" clip-rule="evenodd" d="M23.7371 9.87952C23.7371 9.87952 22.4443 11.9435 22.4397 11.9347C22.4351 11.9262 22.3264 11.3934 22.3264 11.3934L20.2022 13.3641L17.9336 15.5529L17.9271 15.1022L17.1509 15.0063L18.1777 14.2209L18.7036 14.1341L22.0178 11.1301L21.4393 10.909L23.7371 9.87952Z" fill="#8CC2EF" stroke="black" stroke-width="0.0569484"/>
<path d="M17.9351 15.0987C17.9489 15.0691 19.1147 14.0734 19.1147 14.0734" stroke="black" stroke-width="0.0581537"/>
<path fill-rule="evenodd" clip-rule="evenodd" d="M23.0465 8.13348C23.0465 8.13348 22.4147 10.4857 22.4074 10.4784C22.4005 10.4715 22.1406 9.99402 22.1406 9.99402L19.578 14.3964L19.6832 15.1618L18.7635 16.8469L18.3842 16.1099L17.5067 16.2785L18.4898 14.4951L19.1777 14.1788L21.7687 9.8328L21.1507 9.79058L23.0465 8.13348Z" fill="#8CC2EF" stroke="black" stroke-width="0.0569484"/>
<path d="M18.3985 16.082C18.3985 16.0678 19.2833 14.5231 19.2833 14.5231" stroke="black" stroke-width="0.0569484"/>
<path fill-rule="evenodd" clip-rule="evenodd" d="M1 7.69116L2.54466 7.69807L2.39016 8.07002L3.06421 10.7382L3.87882 8.07732L3.59093 7.69116H5.19851L4.85457 8.06312L3.52759 11.8759L3.87153 12.3742H2.32698L2.67103 11.8759L1.37211 8.07732L1 7.69116Z" fill="#8CC2EF" stroke="black" stroke-width="0.0569484"/>
<path fill-rule="evenodd" clip-rule="evenodd" d="M24.6963 7.78217H26.1638L25.925 8.11228L25.9181 11.9953L26.2482 12.3604H24.6963L25.0053 11.9669L24.9984 8.11919L24.6963 7.78217Z" fill="#8CC2EF" stroke="black" stroke-width="0.0569484"/>
<path d="M13.1282 4.27106C13.1282 4.27106 13.3163 4.50751 13.3861 4.52939C13.4564 4.55127 13.8502 4.74358 13.8283 4.87486C13.8064 5.00614 13.5481 5.07216 13.5481 5.07216" stroke="black" stroke-width="0.0569484"/>
<path d="M13.4387 3.9209L13.8326 4.29727C13.8326 4.29727 13.9028 4.62108 14.1826 4.59498C14.4628 4.5685 14.4233 4.45027 14.4233 4.45027C14.4233 4.45027 14.0863 4.21412 13.8195 4.27101" stroke="black" stroke-width="0.0569484"/>
<path fill-rule="evenodd" clip-rule="evenodd" d="M11.0372 15.7828L11.5631 15.346C11.5631 15.346 11.4472 15.1049 11.028 15.1141C10.6357 14.8374 9.95824 14.1868 9.95824 14.1868L9.6193 13.2682C9.6193 13.2682 9.89567 13.188 9.95824 12.965C10.0208 12.7423 9.94058 12.4659 9.91371 12.4391C9.88684 12.4122 9.61047 12.4836 9.53024 12.5995C9.45002 12.7155 9.32527 13.1611 9.13795 13.0099C8.95063 12.8582 9.16481 12.6886 9.16481 12.6886C9.16481 12.6886 9.35214 12.4567 9.34292 12.332C9.33409 12.2072 9.09342 11.8326 9.06655 11.8238C9.04006 11.8149 8.98632 12.3143 8.91493 12.3677C8.84391 12.421 8.74565 12.6441 8.60285 12.5193C8.46044 12.3946 8.67425 12.2072 8.67425 12.2072C8.67425 12.2072 9.07538 11.993 8.68308 11.2887C8.56716 11.5919 8.34452 11.7881 8.34452 11.7881C8.34452 11.7881 8.23743 11.9754 8.13954 11.8149C8.04128 11.6545 8.25508 11.5029 8.25508 11.5029C8.25508 11.5029 8.60285 11.2979 8.61207 10.9946C8.6209 10.6914 8.1929 10.3436 8.1929 10.3436C8.1929 10.3436 8.16603 10.9052 8.03245 10.9766C7.89848 11.048 7.84513 11.1639 7.69351 11.0392C7.54188 10.9144 7.80943 10.638 7.80943 10.638C7.80943 10.638 8.27312 10.1743 8.24626 9.9068C8.21977 9.63926 8.1929 9.59473 8.1929 9.59473C8.1929 9.59473 7.84513 9.80853 7.8006 9.91563C7.75608 10.0227 7.61328 10.4062 7.43479 10.2903C7.31004 10.1475 7.54189 9.8711 7.54189 9.8711C7.54189 9.8711 7.71155 9.68378 7.70234 9.60356C7.69351 9.52333 7.55993 9.28266 7.30121 9.05081C7.26551 8.97941 7.24785 8.69421 7.24785 8.69421C7.24785 8.69421 7.05171 8.92606 7.06053 9.05081C7.06936 9.17556 7.04249 9.42507 7.06936 9.70182C7.09623 9.9782 6.85556 9.61239 6.85556 9.61239L6.90008 8.7207C6.90008 8.7207 6.56114 8.31074 6.15119 8.15912C6.30281 8.38214 6.2936 8.59594 6.2936 8.59594C6.2936 8.59594 6.12432 8.96176 6.12432 9.05964C6.12432 9.1579 6.32047 9.5859 6.68589 9.8711C6.13314 9.27383 5.44682 9.46998 5.24146 9.35405C5.33972 9.46998 5.63375 9.9068 5.59844 10.0227C5.56274 10.1386 6.12432 10.3793 6.12432 10.3793L6.72159 10.3882C6.72159 10.3882 7.01601 10.5931 7.04249 10.7271C7.06936 10.8607 6.61488 10.4772 6.43639 10.4864C6.2579 10.4952 5.78537 10.4239 5.78537 10.4239C5.78537 10.4239 6.07096 10.6914 6.07979 10.8073C6.08862 10.9232 6.21337 11.1908 6.38303 11.2622C6.55231 11.3332 7.00718 11.3601 7.00718 11.3601C7.00718 11.3601 7.20333 11.2441 7.23864 11.3689C7.27434 11.494 6.98031 11.5919 6.98031 11.5919C6.98031 11.5919 6.67706 11.5919 6.57918 11.5117C6.48092 11.4315 6.46326 11.2979 6.02605 11.2441C5.98152 11.61 6.26711 11.9842 6.26711 11.9842C6.26711 11.9842 7.47049 11.8863 7.46166 12.1447C7.45283 12.4034 6.46326 12.1715 6.42756 12.0913C6.39186 12.0111 6.47209 12.5995 6.70393 12.7243C6.93578 12.849 7.45283 12.7868 7.5154 12.76C7.57758 12.7331 7.80943 12.7066 7.80943 12.8402C7.80943 12.9742 6.63254 13.0809 6.61488 13.0452C6.59684 13.0099 6.79299 13.5 7.26551 13.4732C7.73803 13.4467 7.9434 13.3039 7.9434 13.3039C7.9434 13.3039 8.2286 13.2505 8.25508 13.3665C8.28195 13.4824 7.96988 13.5357 7.96988 13.5357C7.96988 13.5357 7.22098 13.5534 7.19411 13.5181C7.16763 13.4824 7.36378 13.9906 7.88966 13.9814C8.28195 13.9461 8.30882 13.7764 8.38905 13.7499C8.50497 13.7231 8.75448 13.7231 8.79017 13.7319C8.82587 13.7407 9.45002 14.1779 9.45002 14.1779L11.0372 15.7828Z" fill="#219E4A" stroke="black" stroke-width="0.0569484" stroke-linejoin="round"/>
<path d="M6.43647 8.73883C6.43647 8.73883 6.41882 9.59482 6.84643 9.85316" stroke="black" stroke-width="0.0569484" stroke-linecap="round" stroke-linejoin="round"/>
<path d="M7.33693 9.4162C7.33693 9.4162 7.62213 9.85302 7.14078 10.0139" stroke="black" stroke-width="0.0569484" stroke-linecap="round" stroke-linejoin="round"/>
<path d="M5.85681 9.71063C5.85681 9.71063 5.82111 10.2008 6.68593 10.1651" stroke="black" stroke-width="0.0569484" stroke-linecap="round" stroke-linejoin="round"/>
<path d="M7.99679 10.1385C7.99679 10.1385 7.854 10.4863 7.50623 10.4683" stroke="black" stroke-width="0.0569484" stroke-linecap="round" stroke-linejoin="round"/>
<path d="M8.31768 10.9232C8.31768 10.9677 8.38025 11.4403 7.92538 11.4314" stroke="black" stroke-width="0.0569484" stroke-linecap="round" stroke-linejoin="round"/>
<path d="M6.14197 10.7269C6.14197 10.7269 6.71276 11.0835 6.97147 11.0567" stroke="black" stroke-width="0.0569484" stroke-linecap="round" stroke-linejoin="round"/>
<path d="M6.26721 11.5919C6.26721 11.5919 6.53437 11.8771 7.02494 11.8061" stroke="black" stroke-width="0.0569484" stroke-linecap="round" stroke-linejoin="round"/>
<path d="M8.6209 11.788C8.6209 11.8237 8.53184 12.1 8.33569 12.1357" stroke="black" stroke-width="0.0569484" stroke-linecap="round" stroke-linejoin="round"/>
<path d="M6.7128 12.4209C6.7128 12.4209 6.92699 12.6977 7.48857 12.546" stroke="black" stroke-width="0.0569484" stroke-linecap="round" stroke-linejoin="round"/>
<path d="M9.15603 12.3051C9.15603 12.3051 9.06659 12.7423 8.83475 12.7511" stroke="black" stroke-width="0.0569484" stroke-linecap="round" stroke-linejoin="round"/>
<path d="M9.69953 12.7781C9.69953 12.7781 9.52142 13.304 9.06656 13.2237" stroke="black" stroke-width="0.0569484" stroke-linecap="round" stroke-linejoin="round"/>
<path d="M7.60446 13.7143C7.60446 13.7143 7.78257 13.8747 8.21978 13.6786" stroke="black" stroke-width="0.0569484" stroke-linecap="round" stroke-linejoin="round"/>
<path d="M7.11389 13.1791C7.14959 13.1791 7.37261 13.3664 7.9077 13.0808" stroke="black" stroke-width="0.0569484" stroke-linecap="round" stroke-linejoin="round"/>
<path d="M11.0362 15.1275C11.0362 15.1275 10.7034 15.2764 11.0266 15.7789" stroke="black" stroke-width="0.0569484" stroke-linecap="round" stroke-linejoin="round"/>
<path fill-rule="evenodd" clip-rule="evenodd" d="M17.5809 10.7458C17.5809 10.7458 17.9309 11.082 17.9382 11.1523C17.9451 11.2221 18.0292 11.5511 18.1202 11.6002C18.2111 11.6494 18.5685 11.9365 18.6173 12.0486C18.6664 12.1607 18.9815 12.6366 18.9815 12.6366C18.9815 12.6366 19.2756 13.2389 19.4717 13.288C19.6679 13.3372 20.221 13.2531 20.3331 13.5191C20.4452 13.7851 20.4171 14.1705 20.4171 14.1705C20.4171 14.1705 20.284 14.2895 20.221 14.2193C20.158 14.1494 20.046 14.5697 19.8498 14.4504C19.5827 13.8819 18.8837 13.9748 18.8837 13.9748C18.8837 13.9748 19.0376 13.7364 18.4142 13.526C17.4408 13.6942 17.1536 12.6789 17.1536 12.6789L16.5997 12.1983L17.5809 10.7458Z" fill="#F7F308" stroke="black" stroke-width="0.0569484"/>
<path fill-rule="evenodd" clip-rule="evenodd" d="M17.0208 12.1887L17.455 12.3918L17.42 12.0206" fill="#F7F308"/>
<path d="M17.0208 12.1887L17.455 12.3918L17.42 12.0206" stroke="black" stroke-width="0.0569484"/>
<path fill-rule="evenodd" clip-rule="evenodd" d="M17.6368 12.1327L18.036 12.3288L17.8748 12.0064" fill="#F7F308"/>
<path d="M17.6368 12.1327L18.036 12.3288L17.8748 12.0064" stroke="black" stroke-width="0.0569484"/>
<path fill-rule="evenodd" clip-rule="evenodd" d="M17.6158 11.6073L18.0081 11.8177L17.8261 11.4116" fill="#F7F308"/>
<path d="M17.6158 11.6073L18.0081 11.8177L17.8261 11.4116" stroke="black" stroke-width="0.0569484"/>
<path fill-rule="evenodd" clip-rule="evenodd" d="M18.2392 13.5334C18.2392 13.5334 17.7912 12.9449 17.7981 12.9449C17.805 12.9449 18.5612 13.092 18.5612 13.092L18.2814 12.4897L18.9746 12.672" fill="#F7F308"/>
<path d="M18.2392 13.5334C18.2392 13.5334 17.7912 12.9449 17.7981 12.9449C17.805 12.9449 18.5612 13.092 18.5612 13.092L18.2814 12.4897L18.9746 12.672" stroke="black" stroke-width="0.0569484"/>
<path fill-rule="evenodd" clip-rule="evenodd" d="M19.5277 13.6244C19.5277 13.6244 19.9688 13.7223 19.955 14.4577L19.5277 13.6244Z" fill="#F7F308"/>
<path d="M19.5277 13.6244C19.5277 13.6244 19.9688 13.7223 19.955 14.4577" stroke="black" stroke-width="0.0569484"/>
<path fill-rule="evenodd" clip-rule="evenodd" d="M19.7588 13.5123C19.7588 13.5123 20.2348 13.4843 20.2067 14.2267L19.7588 13.5123Z" fill="#F7F308"/>
<path d="M19.7588 13.5123C19.7588 13.5123 20.2348 13.4843 20.2067 14.2267" stroke="black" stroke-width="0.0569484"/>
<path fill-rule="evenodd" clip-rule="evenodd" d="M11.5463 10.8373C11.5463 10.8373 11.1962 11.1736 11.1893 11.2435C11.182 11.3133 11.04 11.5989 10.949 11.648C10.858 11.6972 10.5444 12.0131 10.4953 12.1252C10.4462 12.2373 10.1456 12.7282 10.1456 12.7282C10.1456 12.7282 9.8009 13.2287 9.60475 13.2779C9.36522 13.2978 8.90613 13.3443 8.79405 13.6103C8.68235 13.8767 8.85547 14.2836 8.98598 14.2836C9.18213 14.3707 9.27156 14.4605 9.33451 14.3907C9.44123 14.4221 9.38019 14.5135 9.57634 14.3945C9.42741 14.2033 9.44315 14.0187 9.59246 13.9703C9.74178 13.9193 9.98438 14.1462 9.98438 14.1462C9.98438 14.1462 10.0727 13.7339 10.696 13.5239C11.6691 13.6917 11.9309 12.9063 11.9988 12.719C12.1524 12.5102 12.3911 12.4545 12.5873 12.3225L11.5463 10.8373Z" fill="#F7F308" stroke="black" stroke-width="0.0569484"/>
<path d="M12.1236 12.1944L11.6722 12.4316L11.7075 12.1115" stroke="black" stroke-width="0.0569484" stroke-linecap="round" stroke-linejoin="round"/>
<path d="M11.5244 12.13L11.0995 12.3262L11.2949 11.9953" stroke="black" stroke-width="0.0569484" stroke-linecap="round" stroke-linejoin="round"/>
<path d="M11.5367 11.6134L11.1701 11.7724L11.301 11.5025" stroke="black" stroke-width="0.0569484" stroke-linecap="round" stroke-linejoin="round"/>
<path d="M10.9049 13.5307C10.9732 13.3944 11.319 12.968 11.3121 12.968C11.3052 12.968 10.6001 13.115 10.6001 13.115L10.8289 12.5212L10.2124 12.6436" stroke="black" stroke-width="0.0569484" stroke-linecap="round" stroke-linejoin="round"/>
<path d="M9.62859 13.6208C9.62859 13.6208 9.09311 13.7191 9.30308 14.3816" stroke="black" stroke-width="0.0569484" stroke-linecap="round" stroke-linejoin="round"/>
<path d="M9.39746 13.5307C9.39746 13.5307 8.81247 13.5464 9.01476 14.2742" stroke="black" stroke-width="0.0569484"/>
<path d="M15.8435 12.994C15.8435 12.9867 16.0393 13.4881 15.6182 13.5752C16.6999 13.495 17.005 14.7294 17.005 14.7294" stroke="black" stroke-width="0.0711817" stroke-linecap="round" stroke-linejoin="round"/>
<path d="M15.5963 13.1757C15.5963 13.1757 15.6907 13.5388 15.3787 13.7203C16.5114 13.9672 16.7728 15.1433 16.7728 15.1433" stroke="black" stroke-width="0.0569484" stroke-linecap="round" stroke-linejoin="round"/>
<path d="M15.3568 13.3426C15.3568 13.3572 15.4658 13.8147 15.11 13.8873C15.8144 13.6984 16.5475 15.4845 16.5475 15.4845" stroke="black" stroke-width="0.0569484" stroke-linecap="round" stroke-linejoin="round"/>
<path d="M15.0155 13.546C15.0155 13.546 15.1971 13.8946 14.8631 14.0036C15.495 14.0688 15.698 16.1455 15.698 16.1455" stroke="black" stroke-width="0.0569484" stroke-linecap="round" stroke-linejoin="round"/>
<path d="M14.7979 13.6693C14.7979 13.6693 14.8997 14.0543 14.573 14.1706C15.2336 13.822 15.11 16.5082 15.11 16.5082" stroke="black" stroke-width="0.0569484" stroke-linecap="round" stroke-linejoin="round"/>
<path d="M14.3622 13.6912C14.3622 13.6912 14.2244 14.0977 14.5292 14.1776C13.9266 14.0106 14.0429 16.5083 14.0429 16.5083" stroke="black" stroke-width="0.0569484" stroke-linecap="round" stroke-linejoin="round"/>
<path d="M14.079 13.5315C14.079 13.5315 13.9845 13.9019 14.355 14.0908C13.7377 13.6985 13.4836 16.1743 13.4836 16.1743" stroke="black" stroke-width="0.0569484" stroke-linecap="round" stroke-linejoin="round"/>
<path d="M15.0593 13.8727C15.0593 13.8727 16.1848 14.9544 16.1775 15.7532" stroke="black" stroke-width="0.0569484" stroke-linecap="round" stroke-linejoin="round"/>
<path d="M13.2805 13.0013C13.2805 13.0086 13.1423 13.5821 13.5419 13.5967" stroke="black" stroke-width="0.0569484" stroke-linecap="round" stroke-linejoin="round"/>
<path d="M13.5634 13.2122C13.5634 13.2268 13.4548 13.6986 13.7741 13.7204" stroke="black" stroke-width="0.0569484" stroke-linecap="round" stroke-linejoin="round"/>
<path d="M13.8175 13.35C13.8175 13.35 13.6217 13.8221 14.1008 13.8874" stroke="black" stroke-width="0.0569484" stroke-linecap="round" stroke-linejoin="round"/>
<path d="M14.0647 13.8947C14.0574 13.8947 13.1281 14.7587 12.9826 15.7606" stroke="black" stroke-width="0.0569484" stroke-linecap="round" stroke-linejoin="round"/>
<path d="M13.8905 13.8074C13.8832 13.8074 12.7071 14.5406 12.6268 15.4772" stroke="black" stroke-width="0.0569484" stroke-linecap="round" stroke-linejoin="round"/>
<path d="M13.6291 13.6838C13.6291 13.6838 12.3221 14.4462 12.38 15.136" stroke="black" stroke-width="0.0569484" stroke-linecap="round" stroke-linejoin="round"/>
<path d="M13.3166 13.5169C13.3166 13.5169 12.3439 13.6985 12.1044 14.7441" stroke="black" stroke-width="0.0569484" stroke-linecap="round" stroke-linejoin="round"/>
<path d="M11.2648 6.82758C11.2648 6.82758 12.2057 7.34693 12.8797 7.31891C13.5538 7.29089 14.5648 6.8556 14.5648 6.8556C14.5648 6.8556 15.4634 7.36113 16.1939 7.29089C16.924 7.22064 17.9351 6.82758 17.9351 6.82758C18.5389 9.84197 17.1627 12.5478 14.5648 13.7646C11.808 12.5055 10.4691 9.47693 11.2648 6.82758V6.82758Z" stroke="black" stroke-width="0.0569484"/>
<path fill-rule="evenodd" clip-rule="evenodd" d="M11.2646 6.82739C11.2646 6.82739 12.2053 7.3471 12.8796 7.3192C13.5538 7.29072 14.5645 6.85547 14.5645 6.85547C14.5645 6.85547 15.4631 7.36077 16.1937 7.29072C16.9238 7.22062 17.9345 6.82739 17.9345 6.82739C18.5387 9.84201 17.1624 12.5479 14.5645 13.7648C11.8079 12.5057 10.4691 9.4772 11.2646 6.82739Z" fill="#BD0029" stroke="black" stroke-width="0.0569465"/>
<path fill-rule="evenodd" clip-rule="evenodd" d="M11.2646 6.82739C11.2646 6.82739 11.4997 6.95729 11.8192 7.08372C12.1387 7.21009 12.5424 7.33287 12.8795 7.3192C13.5537 7.29072 14.5645 6.85547 14.5645 6.85547C14.5645 6.85547 15.4631 7.36077 16.1937 7.29072C16.9237 7.22062 17.9345 6.82739 17.9345 6.82739C18.082 7.70303 18.156 8.14951 18.0262 9.01797L11.0766 8.97754C10.9884 8.11135 10.9935 7.75884 11.2646 6.82739Z" fill="#3A59A5" stroke="black" stroke-width="0.0569465"/>
<path fill-rule="evenodd" clip-rule="evenodd" d="M11.5129 9.01105L11.5089 10.6534L11.9667 11.4746L11.9622 9.01105H11.5129Z" fill="white"/>
<path fill-rule="evenodd" clip-rule="evenodd" d="M12.6638 9.01691L12.6689 12.4025L13.1182 12.8119L13.113 9.01691H12.6638Z" fill="white"/>
<path fill-rule="evenodd" clip-rule="evenodd" d="M13.7924 9.0293V13.3431L14.2463 13.5903L14.2417 9.0293H13.7924Z" fill="white"/>
<path fill-rule="evenodd" clip-rule="evenodd" d="M17.68 9.04761L17.6897 10.4531L17.2632 11.3164L17.2307 9.04761H17.68Z" fill="white"/>
<path fill-rule="evenodd" clip-rule="evenodd" d="M16.5667 9.03784L16.5507 12.3021L16.1117 12.7167L16.1168 9.03784H16.5667Z" fill="white"/>
<path fill-rule="evenodd" clip-rule="evenodd" d="M15.3953 9.03436L15.401 13.2907L14.9415 13.5743L14.946 9.03436H15.3953Z" fill="white"/>
<path d="M11.2648 6.82758C11.2648 6.82758 12.2057 7.34693 12.8797 7.31891C13.5538 7.29089 14.5648 6.8556 14.5648 6.8556C14.5648 6.8556 15.4634 7.36113 16.1939 7.29089C16.924 7.22064 17.9351 6.82758 17.9351 6.82758C18.5389 9.84197 17.1627 12.5478 14.5648 13.7646C11.808 12.5055 10.4691 9.47693 11.2648 6.82758V6.82758Z" stroke="black" stroke-width="0.0569484"/>
</svg>
