<svg width="362" height="362" viewBox="0 0 362 362" fill="none" xmlns="http://www.w3.org/2000/svg">
<circle cx="181" cy="181" r="181" fill="#EDF0F9"/>
<path d="M262.853 290.437L86.7189 277.62C77.5431 276.952 70.6072 268.928 71.2749 259.752L79.7372 143.46C80.4049 134.284 88.4294 127.348 97.6052 128.016L273.739 140.833C282.915 141.5 289.851 149.525 289.183 158.7L280.721 274.993C280.053 284.169 272.029 291.105 262.853 290.437V290.437Z" fill="#001133"/>
<path d="M258.704 99.4322L214.384 198.677C211.998 203.918 206.401 206.419 201.645 204.268L142.439 177.4C137.575 175.341 135.702 169.39 138.082 164.249L182.401 65.0038C184.788 59.7632 190.384 57.2627 195.141 59.4136L197.861 60.6142L215.234 68.4959L254.347 86.2813C259.011 88.3252 260.983 94.2841 258.604 99.425L258.704 99.4322Z" fill="#001133"/>
<path d="M215.57 68.0189L172.487 158.531L155.435 150.372L198.396 60.1517L215.57 68.0189V68.0189Z" fill="#F4F6F8"/>
<path d="M255.724 202.387L146.579 208.683C140.844 208.967 136.011 205.106 135.783 199.976L132.456 135.465C132.228 130.335 136.658 125.945 142.401 125.56L251.546 119.265C257.281 118.981 262.114 122.841 262.342 127.972L265.669 192.483C265.905 197.513 261.467 202.003 255.724 202.387V202.387Z" fill="#FFBD92"/>
<path d="M253.877 289.784L77.7423 276.967C68.5666 276.299 61.6307 268.275 62.2984 259.099L70.7606 142.806C71.4283 133.631 79.4529 126.695 88.6286 127.363L264.763 140.179C273.939 140.847 280.875 148.872 280.207 158.047L271.745 274.34C271.077 283.516 263.052 290.451 253.877 289.784V289.784Z" fill="#FF7733"/>
<path d="M107.568 146.788L107.867 146.81L107.682 146.596L107.668 146.796L107.568 146.788ZM108.281 146.64L108.524 146.056C108.41 146.248 108.317 146.141 108.295 146.44L107.996 146.418C107.996 146.418 107.889 146.511 107.982 146.618C108.181 146.632 108.181 146.632 108.295 146.44L108.281 146.64V146.64ZM102.552 146.824L102.652 146.832L102.552 146.824ZM105.43 147.234L105.437 147.135L105.43 147.234ZM106.641 147.122L106.649 147.022L106.641 147.122ZM78.1876 145.452L78.1948 145.353L78.1876 145.452ZM93.2061 145.743C93.1916 145.943 92.9849 146.028 93.1698 146.242L93.2061 145.743ZM109.378 146.719L109.371 146.819L109.378 146.719ZM99.29 146.186L99.2827 146.286L99.29 146.186ZM81.7128 146.611L81.7273 146.412C81.7128 146.611 81.5133 146.597 81.7128 146.611ZM109.278 146.712L109.378 146.719L109.278 146.712ZM98.2472 148.115L98.2545 148.016L98.2472 148.115ZM97.7486 148.079L97.7631 147.88L97.7558 147.979L97.7486 148.079Z" fill="#EAECF1"/>
<path d="M80.7936 146.845C80.8934 146.853 80.8082 146.646 80.8227 146.446C81.0222 146.461 81.0076 146.66 81.0004 146.76L81.2216 146.475L81.2144 146.575C81.3286 146.383 81.5136 146.597 81.6278 146.405L81.6496 146.106C81.6496 146.106 81.7638 145.913 81.8491 146.12L81.8418 146.22L81.7276 146.412C81.8273 146.419 81.9488 146.127 82.0413 146.234C82.0268 146.434 81.8418 146.22 82.0195 146.533L81.8273 146.419C81.898 146.825 81.8273 146.419 81.7983 146.818C81.9977 146.833 82.005 146.733 82.1972 146.847L82.2262 146.448C82.5472 146.171 82.3822 147.061 82.6034 146.776C82.6179 146.577 82.6397 146.278 82.8247 146.492L82.8101 146.691C82.9099 146.699 82.8392 146.292 83.0241 146.506C83.0169 146.606 82.9171 146.599 83.0096 146.706L83.0241 146.506L83.1093 146.713L83.7223 146.557L83.7078 146.757C84.0142 146.679 84.2065 146.793 84.4911 147.014L84.5057 146.815L84.5981 146.922C84.6979 146.929 84.6054 146.822 84.6127 146.722C84.7124 146.729 84.7051 146.829 84.5981 146.922C84.9119 146.744 85.2256 146.566 85.4105 146.78C85.396 146.98 85.4396 146.381 85.6245 146.595C85.9092 146.817 86.223 146.639 86.4007 146.953C86.4224 146.653 86.6926 147.074 86.8214 146.682C86.9066 146.889 86.7996 146.982 87.0915 147.103L87.3128 146.818L87.291 147.118L87.4125 146.826L87.3908 147.125L87.4905 147.132L87.505 146.933C87.612 146.84 87.797 147.054 87.7897 147.154L87.9964 147.069L87.9892 147.168C88.1034 146.976 87.9674 147.468 88.0889 147.176L88.0962 147.076C88.1886 147.183 88.3881 147.197 88.4951 147.105L88.4806 147.304L89.079 147.348L89.108 146.949L89.1153 146.849C89.215 146.857 89.1933 147.156 89.0863 147.248L89.2857 147.263L89.2785 147.362C89.2857 147.263 89.3637 147.569 89.478 147.377L89.9766 147.413L90.2051 147.029C90.1979 147.129 90.3828 147.343 90.5823 147.357L90.7038 147.065C90.6966 147.165 90.896 147.179 90.6821 147.364L91.295 147.208L91.3095 147.009L91.295 147.208C91.616 146.931 91.9569 147.758 92.2851 147.381L92.3921 147.288C92.4918 147.296 92.3848 147.388 92.3776 147.488C92.6986 147.21 92.8762 147.524 93.083 147.439C93.1464 147.945 93.5817 147.475 93.7594 147.789L93.7739 147.589L93.8664 147.696L93.8736 147.597C94.3868 147.433 94.8637 147.769 95.3479 148.005C95.5474 148.019 95.3987 147.307 95.6761 147.628L95.6616 147.827C95.9826 147.55 96.3598 147.878 96.6735 147.7L96.6662 147.8C96.6517 147.999 96.9654 147.822 96.9727 147.722L96.9582 147.921C96.9509 148.021 97.1722 147.736 97.1577 147.936C97.1577 147.936 97.3571 147.95 97.3716 147.751L97.6708 147.773C97.7851 147.58 97.9555 147.994 97.9773 147.695C97.9555 147.994 98.1623 147.909 98.2765 147.716L98.2548 148.016C98.3545 148.023 98.4542 148.03 98.4687 147.831C98.6392 148.244 98.7897 147.553 98.9529 148.066L99.7798 147.726C99.7581 148.025 99.4806 147.704 99.4516 148.103C99.6583 148.018 99.8796 147.733 100.079 147.747L100.065 147.947L100.67 147.891C100.67 147.891 100.663 147.99 100.67 147.891L100.906 147.406C100.877 147.805 101.105 147.421 100.962 148.012L100.977 147.813C101.076 147.82 101.069 147.92 100.962 148.012C101.162 148.027 101.176 147.827 101.276 147.834L101.261 148.034C101.276 147.834 101.383 147.742 101.483 147.749L101.475 147.849C101.675 147.863 101.796 147.572 102.088 147.693C101.967 147.985 102.081 147.793 102.059 148.092L102.266 148.007L102.273 147.907C102.273 147.907 102.387 147.715 102.48 147.822L102.58 147.829L102.601 147.53L102.794 147.644C102.794 147.644 102.908 147.452 102.993 147.659L102.971 147.958C102.993 147.659 103.171 147.972 103.292 147.68L103.278 147.88L103.292 147.68L103.278 147.88C103.477 147.894 103.3 147.581 103.492 147.695C103.577 147.902 103.791 147.717 103.891 147.724C103.869 148.023 103.784 147.816 103.862 148.123C104.061 148.137 104.29 147.753 104.582 147.874C104.611 147.476 104.567 148.074 104.781 147.889L104.774 147.989C104.866 148.096 105.073 148.011 105.287 147.826L105.28 147.925L105.572 148.047L105.586 147.847C105.842 148.468 106.206 147.592 106.469 148.112C106.469 148.112 106.37 148.105 106.469 148.112L106.569 148.119L106.591 147.82L106.698 147.728L106.683 147.927C106.861 148.241 106.712 147.528 106.897 147.742L106.89 147.842C106.89 147.842 107.004 147.65 107.097 147.757L107.082 147.956C107.082 147.956 107.204 147.664 107.289 147.871L107.189 147.864L107.267 148.17L107.467 148.185C107.503 147.686 107.674 148.099 107.795 147.807C107.674 148.099 107.788 147.907 107.766 148.206L107.858 148.313C107.866 148.214 108.043 148.527 108.165 148.235L108.25 148.442C108.357 148.35 108.265 148.243 108.265 148.243C108.279 148.043 108.372 148.15 108.571 148.165C108.671 148.172 108.87 148.187 108.892 147.887C109.113 147.603 108.928 147.389 108.843 147.182L109.035 147.296C109.235 147.311 109.157 147.004 109.064 146.897L109.264 146.912C109.179 146.705 108.965 146.89 108.979 146.69L109.278 146.712C109.093 146.498 108.994 146.491 108.794 146.477L109.101 146.399L108.602 146.362C108.909 146.284 108.794 146.477 108.787 146.576L108.687 146.569L108.772 146.776L109.072 146.797L108.758 146.975C108.644 147.167 108.85 147.082 108.743 147.175L108.544 147.16C108.444 147.153 108.729 147.374 108.544 147.16L108.522 147.459C108.522 147.459 108.722 147.474 108.707 147.673C108.508 147.659 108.422 147.452 108.337 147.245L108.308 147.644C108.323 147.445 108.101 147.73 108.024 147.423C108.009 147.623 108.116 147.53 108.009 147.623C108.031 147.323 108.002 147.722 107.81 147.608L107.831 147.309C107.81 147.608 107.732 147.302 107.632 147.294C107.61 147.594 107.425 147.38 107.318 147.472L106.934 147.243C106.919 147.443 106.827 147.336 106.72 147.428L106.741 147.129L106.527 147.314L106.542 147.115C106.542 147.115 106.328 147.3 106.243 147.093L106.206 147.592L106.107 147.584L106.121 147.385L106.043 147.078L106.022 147.378C105.822 147.363 105.936 147.171 105.844 147.064L105.73 147.256L105.737 147.156C105.637 147.149 105.438 147.135 105.423 147.334C105.209 147.519 105.024 147.305 104.825 147.291L104.518 147.369L104.433 147.162C104.433 147.162 104.326 147.254 104.234 147.147C104.241 147.048 104.248 146.948 104.034 147.133C104.049 146.933 103.956 146.826 103.849 146.919L103.942 147.026L103.842 147.019L103.856 146.819C103.579 146.498 103.421 147.289 103.258 146.775L103.236 147.075L103.066 146.661C102.874 146.547 102.937 147.053 102.745 146.939L102.716 147.338C102.516 147.323 102.545 146.924 102.652 146.832C102.652 146.832 102.453 146.817 102.467 146.618L102.453 146.817L102.161 146.696L102.154 146.795C101.954 146.781 102.139 146.995 101.94 146.98C101.94 146.98 101.961 146.681 101.854 146.774L101.876 146.474C101.762 146.667 101.577 146.453 101.584 146.353L101.577 146.453L101.477 146.445L101.448 146.844L101.256 146.73L101.278 146.431C101.1 146.117 101.263 146.63 101.064 146.616C101.078 146.416 101.086 146.317 100.979 146.409L100.957 146.708C100.765 146.594 100.757 146.694 100.757 146.694L100.643 146.886C100.636 146.986 100.465 146.572 100.358 146.665L100.38 146.366C100.166 146.551 100.188 146.251 100.081 146.344L100.059 146.643L100.266 146.558L100.052 146.743L100.251 146.757L100.237 146.957C100.159 146.65 100.03 147.042 99.9376 146.935L99.9739 146.436C99.789 146.222 99.6529 146.714 99.468 146.5L99.4607 146.599C99.4462 146.799 99.4607 146.599 99.3537 146.692L99.2758 146.385C99.2685 146.485 99.0763 146.371 99.0545 146.67L99.069 146.471C98.7698 146.449 98.7408 146.848 98.6411 146.841L98.6701 146.442C98.6701 146.442 98.4488 146.726 98.3636 146.52L98.3491 146.719L98.2348 146.911C98.0644 146.498 97.7362 146.875 97.6582 146.569L97.2593 146.54C97.1668 146.433 97.2302 146.938 97.038 146.824C96.9528 146.617 97.0453 146.724 97.0525 146.625C97.0888 146.126 96.8531 146.61 96.7678 146.403C96.7823 146.204 96.5611 146.489 96.3689 146.374C96.3544 146.574 96.1476 146.659 95.9409 146.744L95.9627 146.445L95.9337 146.844L95.7632 146.431L95.863 146.438C95.8847 146.139 95.7632 146.431 95.6635 146.423L95.678 146.224C95.4785 146.209 95.4568 146.509 95.357 146.501L95.3498 146.601C95.2282 146.893 95.2645 146.394 95.1503 146.587L95.1648 146.387L94.7441 146.657C94.7586 146.458 94.9653 146.373 95.0796 146.18C95.0796 146.18 94.8801 146.166 94.7658 146.358C94.7658 146.358 94.7731 146.258 94.8656 146.365C94.8511 146.565 94.6443 146.65 94.5446 146.643C94.5882 146.044 94.1602 146.414 94.0895 146.008C93.8755 146.193 93.5908 145.972 93.3913 145.957L93.2625 146.349L93.1628 146.342L92.9851 146.028L92.9996 145.829L92.9217 145.522C92.9072 145.721 92.8999 145.821 92.8074 145.714L92.7929 145.914C92.6786 146.106 92.7222 145.508 92.5009 145.792L92.5155 145.593C92.5082 145.692 92.2163 145.571 92.0875 145.963L92.102 145.763C91.8028 145.741 91.4818 146.019 91.2969 145.805C91.2969 145.805 91.2896 145.905 91.2969 145.805L91.3041 145.705C91.2044 145.698 91.0901 145.89 90.9976 145.783L91.0049 145.683C90.8127 145.569 90.6839 145.961 90.4772 146.046C90.499 145.747 90.3067 145.633 90.2143 145.526C89.9151 145.504 89.7011 145.689 89.4943 145.774C89.3166 145.46 88.9032 145.631 88.7182 145.417L88.6965 145.716C88.5967 145.709 88.3827 145.894 88.497 145.701C88.526 145.302 88.3193 145.388 88.2195 145.38L88.1905 145.779C87.9348 145.159 87.4778 145.928 87.4144 145.422C87.4144 145.422 87.2149 145.408 87.2004 145.607L87.2149 145.408L86.6165 145.364L86.631 145.165L86.388 145.748L86.4098 145.449C86.1106 145.427 85.9329 145.114 85.7116 145.398L85.7189 145.299C85.7189 145.299 85.4342 145.077 85.4052 145.476C85.4269 145.177 85.2057 145.462 85.1059 145.455L85.1132 145.355C85.0987 145.554 85.0914 145.654 84.8847 145.739L84.892 145.64C84.7995 145.533 84.8847 145.739 84.6925 145.625L84.5855 145.718C84.5855 145.718 84.386 145.703 84.4005 145.504L84.1865 145.689L84.1938 145.589C84.1086 145.382 83.9798 145.774 83.7949 145.56L83.8021 145.46L84.1013 145.482L84.1376 144.983C84.0234 145.175 83.8021 145.46 83.7096 145.353L83.7169 145.253L83.6172 145.246C83.6317 145.047 83.5247 145.139 83.4249 145.132L83.4032 145.431L83.6026 145.445C83.6026 145.445 83.5881 145.645 83.5029 145.438L83.4739 145.837L83.2182 145.217C83.0187 145.202 82.7195 145.181 82.5908 145.572L82.598 145.473L82.6053 145.373C82.6053 145.373 82.3061 145.351 82.2843 145.65C82.1918 145.543 82.3061 145.351 82.2988 145.451L82.3061 145.351C81.9362 144.923 81.6568 146.006 81.3015 145.378L81.2942 145.478C80.9098 145.25 80.3821 145.612 80.0049 145.284C79.9124 145.177 79.9051 145.277 79.7909 145.469L79.8054 145.269L79.6912 145.462C79.4772 145.647 79.4282 144.941 79.1073 145.219L79.0927 145.418L78.9005 145.304C78.9005 145.304 78.8933 145.404 78.9005 145.304L78.6938 145.389C78.4943 145.375 78.7228 144.99 78.5234 144.976L78.1951 145.353L78.2803 145.56L78.2078 146.557L78.429 146.272L78.4145 146.472C78.4 146.671 78.4145 146.472 78.4145 146.472L78.507 146.579L78.7282 146.294L78.7427 146.094C78.8279 146.301 78.721 146.394 78.9277 146.308L78.9132 146.508L79.0347 146.216C79.1199 146.423 79.3339 146.238 79.2124 146.53L79.4336 146.245C79.4046 146.644 79.7328 146.267 79.5968 146.758C79.7256 146.367 79.9105 146.581 80.1245 146.396C80.1245 146.396 80.1173 146.495 80.1245 146.396L80.1027 146.695C80.1245 146.396 80.3313 146.31 80.4382 146.218L80.3947 146.816L80.5307 146.325L80.6014 146.731C80.6305 146.332 80.6087 146.631 80.7229 146.439C80.8082 146.646 80.7012 146.738 80.9079 146.653L80.7936 146.845V146.845ZM83.929 146.472L83.9363 146.372L83.929 146.472ZM107.275 148.07L107.367 148.177L107.275 148.07ZM109.313 147.617C109.313 147.617 109.627 147.439 109.541 147.233C109.541 147.233 109.22 147.51 109.313 147.617Z" fill="#EAECF1"/>
<path d="M108.131 147.33L108.231 147.338L108.245 147.138C108.06 146.924 108.231 147.338 108.231 147.338L108.131 147.33ZM107.739 147.202L107.747 147.102L107.739 147.202ZM104.448 146.962L104.455 146.862L104.448 146.962ZM103.677 147.909L103.67 148.009L103.784 147.816L103.677 147.909ZM103.48 146.491L103.373 146.583L103.48 146.491ZM95.3722 146.302C95.3867 146.102 95.287 146.095 95.18 146.188L95.3794 146.202L95.3722 146.302ZM88.0207 145.366L88.1277 145.273L88.028 145.266L88.0207 145.366ZM162.453 150.381L162.468 150.181L162.453 150.381ZM162.29 149.868L162.147 150.459L162.283 149.968L162.268 150.167L162.468 150.181C162.39 149.875 162.29 149.868 162.275 150.067L162.29 149.868ZM158.529 149.193L158.429 149.186L158.529 149.193ZM135.568 147.823L135.575 147.723L135.568 147.823ZM148.193 147.94C148.178 148.139 147.971 148.224 148.156 148.438L148.193 147.94ZM138.487 149.038L138.509 148.739C138.495 148.938 138.295 148.924 138.495 148.938L138.487 149.038ZM152.443 150.154L152.343 150.147L152.443 150.154ZM143.481 149.301L143.382 149.294L143.481 149.301ZM151.944 150.118L151.952 150.018L151.944 150.118Z" fill="#EAECF1"/>
<path d="M137.674 149.18C137.774 149.187 137.689 148.98 137.703 148.781C137.903 148.795 137.789 148.987 137.881 149.094L138.102 148.81L138.088 149.009C138.11 148.71 138.287 149.024 138.409 148.732L138.431 148.433C138.431 148.433 138.545 148.24 138.53 148.44L138.509 148.739L138.723 148.554L138.701 148.853L138.608 148.746C138.579 149.145 138.509 148.739 138.579 149.145L138.878 149.167L138.907 148.768C139.129 148.483 139.063 149.381 139.185 149.089C139.199 148.89 139.221 148.59 139.406 148.804L139.392 149.004C139.491 149.011 139.421 148.605 139.606 148.819L139.491 149.011L139.606 148.819L139.591 149.018L140.104 148.855L140.09 149.055C140.396 148.977 140.588 149.091 140.773 149.305L140.788 149.105L140.88 149.212L140.895 149.013C140.895 149.013 140.987 149.12 140.88 149.212C141.094 149.027 141.408 148.85 141.493 149.056C141.579 149.263 141.622 148.665 141.707 148.872C141.992 149.093 142.306 148.915 142.483 149.229C142.505 148.93 142.676 149.343 142.705 148.944L142.975 149.365L143.196 149.08L143.182 149.28L143.196 149.08L143.274 149.387L143.289 149.187C143.396 149.095 143.581 149.309 143.573 149.408L143.787 149.223L143.773 149.423C143.787 149.223 143.751 149.722 143.773 149.423L143.78 149.323C143.873 149.43 144.072 149.445 144.179 149.352L144.164 149.552L144.663 149.588L144.692 149.189L144.699 149.089C144.799 149.097 144.777 149.396 144.67 149.488L144.877 149.403L144.863 149.602C144.87 149.503 144.848 149.802 144.962 149.61L145.461 149.646L145.59 149.254C145.682 149.361 145.867 149.575 145.974 149.483L145.989 149.283C145.981 149.383 146.181 149.398 146.067 149.59C146.266 149.604 146.366 149.612 146.58 149.427L146.594 149.227L146.58 149.427C146.801 149.142 147.142 149.969 147.271 149.577L147.478 149.492C147.577 149.499 147.47 149.592 147.463 149.691C147.784 149.414 147.862 149.72 148.076 149.535C148.032 150.134 148.475 149.565 148.645 149.978L148.66 149.778L148.752 149.885L148.767 149.686C149.173 149.615 149.55 149.944 149.935 150.172C150.134 150.187 150.085 149.481 150.263 149.795L150.248 149.994C150.47 149.71 150.847 150.038 151.161 149.86L151.153 149.96C151.139 150.159 151.353 149.974 151.36 149.875L151.345 150.074C151.345 150.074 151.559 149.889 151.545 150.089L151.659 149.896L151.958 149.918C151.973 149.719 152.143 150.132 152.165 149.833C152.143 150.132 152.35 150.047 152.464 149.855L152.443 150.154C152.443 150.154 152.642 150.169 152.557 149.962C152.727 150.375 152.878 149.684 152.941 150.19L153.668 149.842C153.647 150.141 153.469 149.828 153.44 150.227C153.654 150.042 153.768 149.849 153.968 149.864L153.953 150.063L154.459 150C154.459 150 154.452 150.1 154.459 150L154.702 149.416C154.666 149.915 154.894 149.53 154.651 150.114L154.766 149.922L154.751 150.121C154.958 150.036 154.873 149.83 154.965 149.937L154.958 150.036C154.965 149.936 155.079 149.744 155.172 149.851L155.164 149.951C155.364 149.966 155.493 149.574 155.678 149.788L155.656 150.087L155.756 150.094L155.77 149.895C155.77 149.895 155.984 149.71 155.97 149.909L156.069 149.917L156.077 149.817L156.098 149.518L156.283 149.732C156.291 149.632 156.298 149.532 156.39 149.639L156.369 149.938C156.383 149.739 156.568 149.953 156.69 149.661L156.668 149.96L156.682 149.761L156.668 149.96C156.867 149.975 156.697 149.561 156.882 149.775L157.181 149.797L157.159 150.096C157.359 150.111 157.58 149.826 157.672 149.933C157.709 149.434 157.865 150.047 157.872 149.948L157.865 150.047C157.964 150.055 158.164 150.069 158.378 149.884C158.363 150.084 158.47 149.991 158.563 150.098C158.57 149.998 158.663 150.105 158.577 149.899C158.84 150.419 159.098 149.636 159.368 150.056C159.368 150.056 159.261 150.149 159.361 150.156L159.46 150.163L159.482 149.864L159.497 149.665L159.567 150.071L159.582 149.871C159.66 150.178 159.604 149.572 159.789 149.786L159.888 149.793L159.874 149.993C159.874 149.993 160.003 149.601 160.088 149.808L159.981 149.9C159.959 150.2 159.966 150.1 160.066 150.107L160.159 150.214C160.195 149.715 160.365 150.129 160.494 149.737C160.365 150.129 160.48 149.937 160.465 150.136L160.451 150.336C160.557 150.243 160.536 150.542 160.65 150.35C160.65 150.35 160.75 150.357 160.643 150.45C160.842 150.464 160.65 150.35 160.657 150.25C160.878 149.966 161.034 150.579 161.156 150.287L161.598 149.717L161.577 150.017C161.569 150.116 161.577 150.017 161.676 150.024L161.662 150.223C161.762 150.231 161.684 149.924 161.869 150.138L161.854 150.338L161.968 150.145L161.947 150.445L162.175 150.06L162.161 150.26C161.954 150.345 161.968 150.145 161.976 150.046C162.005 149.647 161.876 150.038 161.776 150.031L161.798 149.732L161.776 150.031L161.798 149.732C161.713 149.525 161.691 149.824 161.598 149.717L161.606 149.618C161.606 149.618 161.613 149.518 161.606 149.618C161.428 149.304 161.399 149.703 161.306 149.596L161.314 149.496C161.114 149.482 161.299 149.696 161.178 149.988L161.122 149.382L161.107 149.581C161.107 149.581 161.007 149.574 161.107 149.581C160.908 149.567 161.107 149.581 160.993 149.774C160.908 149.567 160.694 149.752 160.715 149.453L160.694 149.752C160.723 149.353 160.694 149.752 160.501 149.638L160.523 149.338C160.501 149.638 160.423 149.331 160.324 149.324C160.309 149.523 160.224 149.317 160.11 149.509L159.732 149.181C159.711 149.48 159.718 149.38 159.511 149.465L159.633 149.173L159.426 149.258L159.44 149.059C159.44 149.059 159.319 149.351 159.134 149.137L159.105 149.536L159.12 149.336L159.127 149.237L158.942 149.023L158.927 149.222C158.828 149.215 158.935 149.122 158.942 149.023C158.842 149.015 158.742 149.008 158.728 149.208L158.742 149.008C158.735 149.108 158.443 148.986 158.521 149.293C158.307 149.478 158.229 149.171 158.022 149.257L157.716 149.335L157.73 149.135L157.431 149.113C157.538 149.021 157.439 149.014 157.531 149.121C157.538 149.021 157.453 148.814 157.332 149.106C157.346 148.907 157.353 148.807 157.246 148.899C157.239 148.999 157.239 148.999 157.147 148.892L157.161 148.693C156.976 148.479 156.826 149.17 156.662 148.656C156.648 148.856 156.748 148.863 156.633 149.055L156.563 148.649C156.37 148.535 156.341 148.934 156.242 148.927L156.213 149.325C156.013 149.311 156.042 148.912 156.149 148.82C156.149 148.82 155.95 148.805 156.064 148.613L156.049 148.812C155.964 148.606 155.85 148.798 155.758 148.691L155.75 148.79C155.551 148.776 155.736 148.99 155.536 148.975L155.551 148.776C155.351 148.761 155.466 148.569 155.573 148.477C155.359 148.662 155.273 148.455 155.181 148.348L155.281 148.355L155.273 148.455L155.174 148.448L155.145 148.847C155.052 148.74 154.945 148.832 154.96 148.633C155.052 148.74 154.974 148.433 154.974 148.433L154.981 148.333C154.896 148.127 154.96 148.633 154.76 148.618L154.782 148.319L154.753 148.718C154.561 148.604 154.553 148.703 154.553 148.703L154.439 148.896L154.446 148.796C154.432 148.995 154.361 148.589 154.247 148.781L154.276 148.382C154.062 148.567 154.091 148.168 153.977 148.361L153.955 148.66L154.062 148.567L154.047 148.767C154.047 148.767 154.055 148.667 154.047 148.767L154.033 148.966C154.055 148.667 153.926 149.059 153.833 148.952L153.87 148.453C153.785 148.246 153.656 148.638 153.464 148.524L153.456 148.624C153.442 148.823 153.456 148.624 153.349 148.716L153.371 148.417C153.364 148.517 153.172 148.402 153.15 148.702L153.065 148.495C152.865 148.48 152.836 148.879 152.736 148.872L152.765 148.473C152.765 148.473 152.544 148.758 152.559 148.558L152.544 148.758C152.544 148.758 152.345 148.743 152.43 148.95C152.259 148.536 152.031 148.921 151.96 148.515C151.837 148.602 151.696 148.66 151.547 148.685L151.554 148.585C151.561 148.486 151.525 148.984 151.333 148.87L151.355 148.571C151.384 148.172 151.248 148.663 151.17 148.357L150.856 148.535L150.863 148.435C150.849 148.634 150.642 148.72 150.535 148.812L150.557 148.513L150.435 148.805L150.364 148.399C150.379 148.199 150.364 148.399 150.364 148.399L150.372 148.299C150.172 148.284 150.15 148.584 149.951 148.569C149.922 148.968 149.951 148.569 149.844 148.661L149.866 148.362L149.438 148.732C149.452 148.533 149.666 148.348 149.773 148.255C149.773 148.255 149.574 148.241 149.559 148.44C149.559 148.44 149.567 148.341 149.559 148.44C149.545 148.64 149.438 148.732 149.238 148.718C149.282 148.119 148.954 148.496 148.983 148.097C148.769 148.282 148.591 147.969 148.285 148.047C148.355 148.453 148.285 148.047 148.256 148.446L148.156 148.438L147.978 148.125L147.993 147.925L148.014 147.626C148 147.825 147.9 147.818 147.8 147.811L147.886 148.018C147.672 148.203 147.815 147.611 147.601 147.796C147.601 147.796 147.302 147.775 147.18 148.067L147.195 147.867C147.002 147.753 146.774 148.137 146.589 147.923L146.596 147.824L146.39 147.909L146.397 147.809C146.212 147.595 146.076 148.087 145.869 148.172C145.898 147.773 145.706 147.659 145.706 147.659C145.407 147.637 145.292 147.829 144.986 147.907C145.008 147.608 144.594 147.778 144.409 147.564L144.388 147.863C144.288 147.856 144.174 148.048 144.188 147.849C144.217 147.45 144.11 147.542 144.01 147.535L143.981 147.934C143.726 147.314 143.368 148.09 143.305 147.584L143.091 147.769L143.106 147.57C143.006 147.562 142.913 147.455 142.707 147.541L142.721 147.341C142.721 147.341 142.678 147.939 142.478 147.925L142.5 147.626C142.3 147.611 142.123 147.298 142.001 147.589L142.008 147.49C142.008 147.49 141.731 147.169 141.695 147.667C141.716 147.368 141.495 147.653 141.395 147.646L141.403 147.546L141.274 147.938L141.288 147.738C141.189 147.731 141.174 147.93 141.082 147.823L141.089 147.724L140.975 147.916C140.975 147.916 140.775 147.901 140.79 147.702L140.676 147.894L140.69 147.695C140.598 147.588 140.469 147.979 140.391 147.673L140.59 147.687L140.627 147.189L140.298 147.566L140.306 147.466L140.206 147.459C140.121 147.252 140.014 147.345 139.914 147.337L139.892 147.637L140.092 147.651C140.092 147.651 140.077 147.851 139.992 147.644L139.963 148.043L139.707 147.423C139.607 147.415 139.408 147.401 139.279 147.792L139.194 147.586C139.194 147.586 138.995 147.571 138.973 147.87C138.888 147.664 138.995 147.571 138.888 147.664L138.895 147.564C138.625 147.143 138.445 148.233 138.09 147.606L138.082 147.705C137.798 147.484 137.37 147.854 137.092 147.533C137 147.426 136.993 147.526 136.878 147.718L136.893 147.519L136.779 147.711C136.565 147.896 136.516 147.19 136.294 147.475L136.28 147.674L136.088 147.56C136.088 147.56 136.08 147.66 136.088 147.56L135.881 147.645C135.781 147.638 135.91 147.246 135.711 147.232C135.711 147.232 135.489 147.517 135.582 147.624L135.495 148.82L135.716 148.536L135.701 148.735C135.687 148.935 135.701 148.735 135.701 148.735L135.694 148.835L135.915 148.55L135.923 148.451C136.008 148.657 136.001 148.757 136.108 148.665L136.093 148.864L136.215 148.572C136.2 148.772 136.414 148.587 136.392 148.886L136.514 148.594C136.485 148.993 136.713 148.608 136.677 149.107C136.706 148.708 136.991 148.929 137.105 148.737C137.105 148.737 137.098 148.837 137.105 148.737L137.083 149.036C137.105 148.737 137.312 148.652 137.419 148.559L137.411 148.659L137.482 149.065C137.511 148.666 137.589 148.973 137.703 148.781L137.689 148.98C137.781 149.087 137.674 149.18 137.674 149.18V149.18ZM140.311 148.77L140.318 148.67L140.311 148.77ZM159.468 150.064L159.567 150.071L159.468 150.064Z" fill="#EAECF1"/>
<path d="M156.284 149.732L156.184 149.724C156.184 149.724 156.177 149.824 156.184 149.724L156.284 149.732ZM161.455 150.309L161.448 150.408C161.441 150.508 161.463 150.209 161.448 150.408L161.455 150.309ZM160.823 149.36L160.922 149.367L160.93 149.268C160.852 148.961 160.922 149.367 160.823 149.36ZM160.431 149.231L160.445 149.032L160.431 149.231ZM157.539 149.021L157.553 148.821L157.539 149.021ZM156.967 149.982L157.067 149.989L156.967 149.982ZM151.975 148.315L151.961 148.515C152.06 148.522 152.082 148.223 151.975 148.315ZM149.966 148.37C149.966 148.37 149.98 148.17 149.866 148.362L149.966 148.37ZM143.804 147.62L143.811 147.521L143.804 147.62ZM216.169 153.488L216.183 153.288L216.162 153.588L216.169 153.488ZM215.899 153.067L215.892 153.167L215.977 153.374L216.084 153.281C216.098 153.082 215.999 153.074 215.884 153.267L215.899 153.067ZM211.732 152.463C211.632 152.456 211.732 152.463 211.732 152.463V152.463ZM215.357 153.629L215.364 153.529L215.357 153.629ZM212.843 152.343L212.851 152.244L212.843 152.343ZM212.245 152.3L212.252 152.2L212.245 152.3ZM186.419 151.724L186.426 151.624L186.419 151.724ZM200.369 151.536C200.362 151.636 200.155 151.721 200.34 151.935L200.369 151.536ZM215.357 153.629L215.257 153.622L215.357 153.629ZM189.652 152.761L189.666 152.562L189.652 152.761ZM205.133 153.587L205.033 153.58L205.133 153.587ZM204.634 153.551L204.641 153.451L204.634 153.551Z" fill="#EAECF1"/>
<path d="M188.832 153.002C188.932 153.01 188.854 152.703 188.861 152.603C189.061 152.618 189.046 152.817 189.039 152.917L189.26 152.633L189.253 152.732C189.367 152.54 189.552 152.754 189.674 152.462L189.696 152.163C189.696 152.163 189.703 152.063 189.795 152.17L189.781 152.37L189.788 152.27L189.766 152.569L189.988 152.284L189.966 152.584L189.766 152.569C189.944 152.883 189.766 152.569 189.745 152.868C189.937 152.983 190.044 152.89 190.144 152.897L190.173 152.498C190.486 152.321 190.321 153.211 190.55 152.827C190.557 152.727 190.586 152.328 190.771 152.542L190.749 152.841C190.849 152.848 190.778 152.442 190.963 152.656L190.863 152.649C190.941 152.955 190.863 152.649 191.063 152.663L191.048 152.863C191.248 152.877 191.369 152.585 191.569 152.6L191.554 152.799C191.861 152.721 192.053 152.836 192.338 153.057L192.352 152.857L192.345 152.957C192.544 152.972 192.352 152.857 192.459 152.765L192.445 152.964C192.659 152.78 192.972 152.602 193.058 152.809C193.15 152.916 193.186 152.417 193.371 152.631C193.564 152.745 193.87 152.667 194.155 152.888C194.177 152.589 194.34 153.102 194.376 152.604L194.746 153.032L194.867 152.74L194.846 153.039L194.967 152.747L195.045 153.053L195.06 152.854C195.167 152.762 195.352 152.975 195.344 153.075L195.658 152.898L195.544 153.09C195.658 152.898 195.522 153.389 195.644 153.097L195.651 152.997L195.95 153.019L195.936 153.219L196.541 153.162L196.57 152.763C196.77 152.778 196.648 153.07 196.648 153.07C196.748 153.077 196.648 153.07 196.634 153.269C196.748 153.077 196.819 153.483 196.933 153.291L197.439 153.228L197.56 152.936L197.945 153.164L198.066 152.872C198.059 152.972 198.258 152.986 198.144 153.179L198.657 153.016L198.672 152.816L198.657 153.016C198.978 152.738 199.22 153.558 199.448 153.173L199.662 152.988L199.64 153.288C199.961 153.01 200.039 153.317 200.253 153.132C200.416 153.645 200.752 153.168 200.93 153.482L200.937 153.382C200.951 153.182 200.937 153.382 201.037 153.389L201.044 153.289C201.457 153.119 202.034 153.462 202.426 153.591C202.525 153.598 202.469 152.992 202.747 153.313L202.732 153.513C202.953 153.228 203.33 153.556 203.751 153.286L203.637 153.478C203.63 153.578 203.836 153.493 203.851 153.293L203.836 153.493C203.929 153.6 204.05 153.308 204.136 153.514C204.136 153.514 204.335 153.529 204.243 153.422L204.542 153.444C204.656 153.252 204.841 153.465 204.856 153.266C204.834 153.565 205.041 153.48 205.155 153.288L205.133 153.587C205.233 153.594 205.332 153.602 205.347 153.402C205.418 153.808 205.675 153.025 205.739 153.531L206.466 153.183C206.437 153.582 206.266 153.168 206.237 153.567C206.444 153.482 206.566 153.19 206.758 153.304C206.858 153.311 206.751 153.404 206.743 153.504C206.957 153.319 207.142 153.533 207.356 153.348L207.592 152.864C207.563 153.262 207.791 152.878 207.548 153.462L207.663 153.27L207.648 153.469C207.848 153.484 207.762 153.277 207.962 153.292L207.947 153.491C207.962 153.292 207.969 153.192 208.169 153.206L208.161 153.306C208.261 153.313 208.39 152.922 208.675 153.143L208.646 153.542L208.852 153.457L208.767 153.25C208.867 153.257 208.981 153.065 209.066 153.272L208.967 153.264L209.166 153.279L209.074 153.172L209.095 152.873C209.095 152.873 209.295 152.887 209.28 153.087C209.288 152.987 209.395 152.894 209.487 153.001L209.465 153.301C209.48 153.101 209.665 153.315 209.786 153.023L209.772 153.223L209.786 153.023L209.772 153.223C209.971 153.237 209.793 152.923 209.886 153.03L209.879 153.13L210.377 153.166C210.363 153.366 210.178 153.152 210.256 153.458C210.455 153.473 210.684 153.089 210.876 153.203C210.905 152.804 210.969 153.31 211.076 153.217L211.068 153.317C211.268 153.332 211.367 153.339 211.581 153.154L211.574 153.254L211.873 153.275L211.881 153.176C212.144 153.696 212.408 152.813 212.671 153.333L212.871 153.348L212.786 153.141L212.9 152.949L212.885 153.148C213.063 153.462 212.914 152.75 213.099 152.964L213.092 153.063L213.299 152.978L213.284 153.178C213.284 153.178 213.306 152.878 213.491 153.092L213.291 153.078L213.469 153.391L213.569 153.399C213.605 152.9 213.776 153.314 213.897 153.022L213.868 153.421L213.953 153.627C213.968 153.428 214.046 153.734 214.167 153.442L214.153 153.642C214.352 153.656 214.16 153.542 214.167 153.442C214.381 153.257 214.545 153.771 214.766 153.486L215.109 152.909L215.087 153.208C215.079 153.308 215.186 153.216 215.286 153.223L215.272 153.422C215.272 153.422 215.293 153.123 215.386 153.23L215.364 153.529L215.585 153.245L215.564 153.544C215.564 153.544 215.77 153.459 215.785 153.259L215.778 153.359C215.564 153.544 215.578 153.344 215.585 153.245C215.622 152.746 215.386 153.23 215.286 153.223L215.308 152.924C215.223 152.717 215.208 152.916 215.116 152.809L215.123 152.71C214.938 152.496 214.909 152.895 214.824 152.688C214.624 152.673 214.809 152.887 214.695 153.08L214.632 152.574L214.617 152.773L214.517 152.766L214.503 152.965C214.418 152.759 214.204 152.944 214.225 152.644L214.211 152.844C214.233 152.545 214.104 152.936 214.011 152.829L214.033 152.53C214.011 152.829 213.834 152.516 213.734 152.508C213.719 152.708 213.634 152.501 213.52 152.693L213.136 152.465C213.121 152.664 213.029 152.557 212.922 152.65L212.943 152.351L212.829 152.543L212.844 152.343C212.744 152.336 212.53 152.521 212.445 152.314L212.408 152.813L212.416 152.713L212.408 152.813L212.323 152.606L212.238 152.4L212.223 152.599C212.024 152.584 212.138 152.392 212.046 152.285L212.024 152.584L211.939 152.378C211.931 152.477 211.64 152.356 211.717 152.662C211.503 152.847 211.326 152.534 211.119 152.619L211.126 152.519C211.126 152.519 210.927 152.505 210.813 152.697L210.827 152.497L210.528 152.476C210.635 152.383 210.528 152.476 210.628 152.483C210.635 152.383 210.542 152.276 210.428 152.468C210.443 152.269 210.35 152.162 210.243 152.254L210.336 152.361L210.236 152.354L210.25 152.155C210.073 151.841 209.815 152.624 209.652 152.111L209.73 152.418L209.46 151.997C209.36 151.99 209.431 152.396 209.239 152.282L209.21 152.68C209.01 152.666 209.032 152.367 209.039 152.267L209.146 152.175C209.146 152.175 208.947 152.16 208.961 151.961L208.947 152.16L208.647 152.138L208.64 152.238C208.448 152.124 208.626 152.437 208.426 152.423L208.441 152.223C208.241 152.209 208.355 152.017 208.462 151.924C208.248 152.109 208.171 151.803 208.071 151.795L208.078 151.696L208.042 152.194C207.949 152.087 207.842 152.18 207.757 151.973C207.949 152.087 207.772 151.774 207.879 151.681C207.694 151.467 207.864 151.881 207.565 151.859L207.579 151.659L207.558 151.959L207.351 152.044L207.344 152.144C207.229 152.336 207.159 151.93 207.044 152.122L207.073 151.723C206.859 151.908 206.881 151.609 206.674 151.694L206.653 151.993L206.859 151.908L206.745 152.1L206.945 152.115C206.845 152.107 206.845 152.107 206.93 152.314C206.752 152 206.723 152.399 206.631 152.292L206.66 151.893C206.475 151.679 206.346 152.071 206.161 151.857L206.147 152.057C206.139 152.156 206.147 152.057 206.047 152.049L205.962 151.843L205.741 152.127L205.755 151.928C205.563 151.814 205.527 152.312 205.334 152.198L205.456 151.906L205.356 151.899C205.356 151.899 205.242 152.091 205.149 151.984L205.135 152.183C205.135 152.183 204.935 152.169 205.021 152.376C204.85 151.962 204.622 152.347 204.444 152.033L204.145 152.011C203.953 151.897 204.116 152.41 203.824 152.289C203.838 152.089 203.931 152.196 203.838 152.089C203.875 151.59 203.739 152.082 203.653 151.875C203.668 151.676 203.447 151.96 203.347 151.953C203.233 152.145 203.026 152.23 202.926 152.223L202.948 151.924L202.919 152.323L202.748 151.91C202.77 151.61 202.748 151.91 202.649 151.902L202.656 151.803C202.457 151.788 202.435 152.087 202.335 152.08C202.213 152.372 202.243 151.973 202.128 152.165L202.15 151.866L201.722 152.236C201.737 152.036 201.951 151.851 202.058 151.759C202.058 151.759 201.858 151.744 201.844 151.944C201.844 151.944 201.851 151.844 201.844 151.944C201.829 152.143 201.722 152.236 201.523 152.221C201.566 151.623 201.238 152 201.167 151.594C200.953 151.779 200.768 151.565 200.469 151.543C200.54 151.949 200.469 151.543 200.44 151.942L200.34 151.935L200.155 151.721L200.17 151.521L200.092 151.215C200.085 151.315 200.077 151.414 199.885 151.3L199.97 151.507C199.849 151.799 199.892 151.2 199.671 151.485L199.686 151.286C199.686 151.286 199.386 151.264 199.265 151.556L199.279 151.356C199.08 151.342 198.752 151.719 198.567 151.505C198.567 151.505 198.56 151.605 198.567 151.505L198.474 151.398C198.474 151.398 198.36 151.59 198.268 151.483C198.083 151.269 197.954 151.661 197.747 151.746C197.769 151.447 197.676 151.34 197.584 151.233C197.285 151.211 197.063 151.496 196.857 151.581C196.679 151.267 196.365 151.445 196.081 151.224L196.059 151.523C196.066 151.423 195.845 151.708 195.867 151.409C195.888 151.11 195.781 151.202 195.682 151.195L195.653 151.594C195.397 150.974 195.04 151.75 194.877 151.236L194.762 151.429L194.777 151.229L194.278 151.193L194.293 150.993C194.293 150.993 194.249 151.592 194.05 151.577L194.071 151.278C193.872 151.264 193.687 151.05 193.473 151.235C193.48 151.135 193.196 150.914 193.167 151.313C193.181 151.113 192.967 151.298 192.86 151.39L192.875 151.191C192.853 151.49 192.846 151.59 192.646 151.575C192.646 151.575 192.653 151.476 192.646 151.575C192.661 151.376 192.639 151.675 192.546 151.568L192.554 151.468L192.439 151.661C192.34 151.653 192.24 151.646 192.155 151.439C191.955 151.425 191.834 151.717 191.756 151.41L191.955 151.425L191.991 150.926C191.877 151.118 191.656 151.403 191.563 151.296C191.571 151.196 191.563 151.296 191.563 151.296L191.471 151.189C191.486 150.99 191.279 151.075 191.279 151.075L191.257 151.374L191.456 151.389C191.456 151.389 191.442 151.588 191.357 151.381L191.228 151.773C191.25 151.474 191.058 151.36 190.972 151.153C190.865 151.245 190.673 151.131 190.537 151.622L190.452 151.416C190.452 151.416 190.252 151.401 190.238 151.601C190.038 151.586 190.252 151.401 190.153 151.394C189.89 150.874 189.61 151.956 189.248 151.428L189.241 151.528C188.956 151.307 188.421 151.769 188.051 151.341L187.937 151.534L187.951 151.334L187.737 151.519C187.523 151.704 187.474 150.999 187.246 151.383L187.239 151.483C187.239 151.483 187.032 151.568 187.039 151.468C187.039 151.468 187.032 151.568 187.039 151.468L186.832 151.553C186.633 151.539 186.861 151.155 186.669 151.04L186.433 151.524L186.419 151.724L186.446 152.729L186.667 152.444L186.653 152.643L186.553 152.636L186.66 152.544L186.646 152.743L186.867 152.458L186.874 152.359C186.966 152.466 186.952 152.665 187.066 152.473L187.052 152.672L187.166 152.48C187.251 152.687 187.465 152.502 187.443 152.801L187.565 152.509C187.536 152.908 187.764 152.524 187.735 152.923C187.757 152.623 188.049 152.745 188.156 152.652L188.241 152.859C188.263 152.56 188.363 152.567 188.477 152.375L188.434 152.973L188.562 152.582L188.64 152.888C188.669 152.489 188.64 152.888 188.762 152.596C188.847 152.803 188.74 152.895 188.947 152.81L188.932 153.01L188.832 153.002ZM191.776 152.515L191.783 152.415L191.776 152.515ZM191.379 151.082L191.371 151.182L191.379 151.082ZM213.476 153.292L213.469 153.391L213.476 153.292ZM213.861 153.52L213.875 153.321L213.868 153.421L213.861 153.52Z" fill="#EAECF1"/>
<path d="M209.387 152.994L209.18 153.079L209.28 153.087L209.387 152.994ZM209.173 153.179C209.173 153.179 209.18 153.079 209.173 153.179V153.179ZM214.958 153.6L215.157 153.615C215.157 153.615 214.972 153.401 214.958 153.6ZM214.332 152.552L214.432 152.559L214.439 152.459C214.261 152.146 214.425 152.659 214.332 152.552ZM213.833 152.516C213.94 152.423 213.848 152.316 213.848 152.316L213.841 152.416L213.833 152.516ZM210.742 152.291L210.756 152.091L210.742 152.291ZM210.17 153.252L210.163 153.351L210.178 153.152L210.17 153.252V153.252ZM209.866 151.926L209.766 151.919L209.866 151.926ZM204.558 151.841L204.551 151.94C204.65 151.948 204.672 151.648 204.565 151.741L204.558 151.841ZM202.349 151.88C202.357 151.781 202.264 151.674 202.15 151.866L202.349 151.88ZM195.482 151.18L195.582 151.187L195.482 151.18ZM263.702 156.144L263.716 155.945L263.702 156.144ZM263.439 155.624L263.431 155.724L263.517 155.93L263.524 155.831C263.538 155.631 263.538 155.631 263.524 155.831C263.424 155.823 263.531 155.731 263.538 155.631L263.439 155.624ZM260.162 155.185L260.062 155.178L260.162 155.185ZM240.128 154.93L240.142 154.731L240.128 154.93ZM251.093 154.425C251.178 154.631 251.079 154.624 251.064 154.824C251.064 154.824 251.186 154.532 251.093 154.425ZM263.003 156.094L262.996 156.193L263.003 156.094ZM242.762 155.924L242.777 155.725C242.77 155.824 242.663 155.917 242.762 155.924ZM254.959 156.411L254.859 156.403L254.959 156.411ZM254.56 156.382L254.568 156.282L254.56 156.382Z" fill="#EAECF1"/>
<path d="M242.042 156.173C242.142 156.18 242.064 155.873 242.071 155.774C242.278 155.688 242.156 155.98 242.249 156.087L242.37 155.795C242.477 155.703 242.67 155.817 242.684 155.618L242.706 155.318C242.706 155.318 242.72 155.119 242.706 155.318L242.699 155.418C242.784 155.625 242.699 155.418 242.684 155.618C242.784 155.625 242.905 155.333 242.998 155.44C242.983 155.639 242.798 155.425 242.976 155.739L242.784 155.625C242.855 156.031 242.784 155.625 242.755 156.024L243.054 156.046L243.083 155.647C243.304 155.362 243.239 156.26 243.361 155.968C243.375 155.768 243.397 155.469 243.582 155.683L243.567 155.882C243.567 155.882 243.596 155.483 243.682 155.69L243.767 155.897L244.187 155.627L244.166 155.926C244.38 155.741 244.565 155.955 244.757 156.069L244.771 155.87C244.771 155.87 244.871 155.877 244.764 155.97C244.956 156.084 244.771 155.87 244.878 155.777L244.864 155.977C245.078 155.792 245.292 155.607 245.377 155.814C245.462 156.02 245.506 155.422 245.591 155.629C245.776 155.843 245.99 155.658 246.168 155.971C246.197 155.572 246.467 155.993 246.389 155.687L246.659 156.107L246.781 155.815L246.766 156.015L246.888 155.723L246.866 156.022L246.966 156.029L246.98 155.83L247.165 156.044L247.372 155.959L247.365 156.058C247.379 155.859 247.343 156.358 247.365 156.058L247.372 155.959L247.671 155.981L247.656 156.18L248.155 156.216L248.191 155.718L248.162 156.117L248.269 156.024L248.255 156.224C248.269 156.024 248.34 156.43 248.454 156.238L248.861 156.167L248.882 155.868L249.267 156.097L249.289 155.797C249.274 155.997 249.481 155.912 249.367 156.104L249.78 155.933L249.794 155.734L249.78 155.933C250.001 155.649 250.242 156.468 250.471 156.084L250.585 155.892L250.563 156.191C250.785 155.906 250.863 156.213 251.077 156.028C251.14 156.534 251.475 156.057 251.653 156.371L251.66 156.271C251.675 156.071 251.66 156.271 251.66 156.271L251.668 156.171C252.081 156.001 252.359 156.322 252.75 156.45C252.85 156.458 252.794 155.852 252.972 156.166L252.957 156.365C253.178 156.08 253.456 156.401 253.777 156.124L253.762 156.323L253.876 156.131L253.862 156.331C253.954 156.438 254.076 156.146 254.061 156.345C254.061 156.345 254.261 156.36 254.176 156.153L254.475 156.175C254.489 155.975 254.66 156.389 254.689 155.99C254.66 156.389 254.867 156.304 254.881 156.104L254.859 156.403C254.959 156.411 255.059 156.418 255.08 156.119C255.151 156.525 255.302 155.834 255.365 156.34L255.993 155.984C255.971 156.284 255.793 155.97 255.764 156.369L256.192 155.999L256.178 156.198L256.684 156.135C256.684 156.135 256.676 156.235 256.684 156.135L256.827 155.544C256.791 156.043 257.019 155.658 256.876 156.249L256.89 156.05L256.876 156.249C257.082 156.164 256.997 155.957 257.097 155.965L257.082 156.164C257.09 156.064 257.104 155.865 257.296 155.979C257.296 155.979 257.518 155.694 257.61 155.801L257.681 156.208L257.781 156.215L257.795 156.015C257.795 156.015 257.909 155.823 258.002 155.93L258.024 155.631L258.216 155.745C258.216 155.745 258.23 155.546 258.323 155.653L258.294 156.052C258.316 155.752 258.501 155.966 258.522 155.667L258.501 155.966L258.515 155.767L258.501 155.966C258.7 155.981 258.53 155.568 258.715 155.781L259.014 155.803L258.992 156.102L259.413 155.832C259.442 155.433 259.498 156.039 259.612 155.847L259.598 156.046L260.018 155.776L260.011 155.876L260.203 155.99L260.218 155.791C260.474 156.411 260.639 155.52 260.909 155.941C260.909 155.941 260.802 156.034 260.901 156.041L260.923 155.742L261.038 155.549L261.023 155.749C261.201 156.063 261.045 155.45 261.23 155.664C261.23 155.664 261.237 155.564 261.329 155.671L261.315 155.87C261.315 155.87 261.344 155.472 261.529 155.686L261.422 155.778L261.507 155.985L261.6 156.092C261.643 155.493 261.714 155.899 261.835 155.608L261.806 156.006C261.806 156.006 261.899 156.113 261.792 156.206C261.906 156.014 261.984 156.32 262.098 156.128L262.106 156.028C262.12 155.829 262.283 156.342 262.505 156.057L262.74 155.573L262.726 155.773C262.719 155.872 262.818 155.88 262.925 155.787L262.911 155.987C262.911 155.987 262.925 155.787 263.018 155.894L263.003 156.094L263.117 155.901L263.103 156.101C263.103 156.101 263.302 156.115 263.324 155.816L263.31 156.016C263.203 156.108 263.117 155.901 263.125 155.802C263.154 155.403 263.125 155.802 262.925 155.787L262.947 155.488C262.855 155.381 262.94 155.588 262.847 155.481L262.855 155.381L262.755 155.374C262.755 155.374 262.762 155.274 262.755 155.374C262.677 155.067 262.548 155.459 262.555 155.359L262.563 155.259L262.427 155.751L262.37 155.145L262.356 155.345C262.249 155.437 262.356 155.345 262.341 155.544C262.256 155.337 262.042 155.522 262.064 155.223L262.042 155.522C262.071 155.123 262.042 155.522 261.85 155.408L261.872 155.109C261.843 155.508 261.772 155.102 261.672 155.094C261.65 155.394 261.665 155.194 261.458 155.279L261.174 155.058L261.059 155.25L261.081 154.951L260.967 155.143L260.981 154.944C260.882 154.937 260.767 155.129 260.675 155.022L260.653 155.321C260.653 155.321 260.646 155.421 260.653 155.321L260.568 155.114L260.582 154.915L260.468 155.107L260.383 154.9L260.368 155.1L260.283 154.893C260.276 154.993 260.084 154.878 260.062 155.178C260.04 155.477 259.763 155.156 259.663 155.149C259.663 155.149 259.464 155.134 259.449 155.334L259.371 155.027C259.364 155.127 259.356 155.227 259.172 155.013L259.271 155.02C259.271 155.02 259.186 154.813 259.072 155.005L258.987 154.799L258.972 154.998L258.994 154.699C258.716 154.378 258.559 155.169 258.495 154.663L258.466 155.062L258.395 154.655C258.203 154.541 258.267 155.047 258.074 154.933L258.089 154.733C258.089 154.733 257.889 154.719 257.904 154.519L257.889 154.719L257.697 154.605L257.69 154.704L257.569 154.996C257.483 154.79 257.598 154.597 257.491 154.69L257.512 154.391C257.398 154.583 257.313 154.376 257.213 154.369L257.228 154.169L257.184 154.768C257.184 154.768 256.977 154.853 256.992 154.653L257.113 154.362C256.936 154.048 256.999 154.554 256.899 154.546L256.914 154.347L256.892 154.646C256.7 154.532 256.693 154.632 256.693 154.632L256.664 155.031C256.549 155.223 256.486 154.717 256.372 154.909L256.393 154.61C256.279 154.802 256.308 154.403 256.194 154.595L256.172 154.895L256.286 154.702L256.257 155.101C256.272 154.902 256.143 155.294 256.058 155.087L256.087 154.688C256.002 154.481 255.873 154.873 255.681 154.759L255.666 154.958L255.588 154.652L255.467 154.944L255.382 154.737C255.282 154.73 255.253 155.129 255.053 155.114L255.082 154.715C255.082 154.715 254.961 155.007 254.975 154.808L254.854 155.1L254.861 155L254.847 155.199C254.676 154.786 254.448 155.17 254.37 154.864L254.063 154.942C254.078 154.742 254.034 155.341 253.949 155.134C253.864 154.927 253.949 155.134 253.963 154.934C253.993 154.536 253.757 155.02 253.679 154.713C253.693 154.514 253.664 154.913 253.465 154.898L253.472 154.798C253.458 154.998 253.251 155.083 253.144 155.176L253.166 154.876L253.137 155.275L252.966 154.862L253.066 154.869C253.088 154.57 253.066 154.869 252.966 154.862L252.981 154.662C252.781 154.648 252.759 154.947 252.66 154.94L252.652 155.04C252.631 155.339 252.66 154.94 252.553 155.032L252.567 154.833L252.246 155.11L252.475 154.726L252.268 154.811L252.146 155.103C252.183 154.604 251.855 154.982 251.784 154.575C251.57 154.76 251.385 154.546 251.185 154.532C251.256 154.938 251.185 154.532 251.156 154.931L250.979 154.617L250.993 154.418L250.915 154.111C250.901 154.311 250.893 154.41 250.801 154.303L250.786 154.503C250.765 154.802 250.815 154.104 250.594 154.388L250.609 154.189C250.601 154.289 250.409 154.174 250.28 154.566L250.295 154.367C250.096 154.352 249.867 154.737 249.782 154.53L249.789 154.43C249.789 154.43 249.775 154.63 249.689 154.423C249.689 154.423 249.575 154.615 249.49 154.408C249.405 154.202 249.269 154.693 249.162 154.786C249.191 154.387 248.998 154.272 248.899 154.265C248.699 154.251 248.585 154.443 248.371 154.628C248.3 154.222 247.987 154.399 247.802 154.185L247.78 154.484C247.78 154.484 247.658 154.776 247.58 154.47C247.602 154.171 247.595 154.27 247.495 154.263L247.473 154.562C247.21 154.042 246.953 154.825 246.889 154.319L246.675 154.504L246.69 154.305L246.391 154.283L246.405 154.084L246.162 154.668L246.184 154.368C245.985 154.354 245.907 154.047 245.685 154.332L245.693 154.232C245.693 154.232 245.508 154.018 245.479 154.417C245.5 154.118 245.279 154.403 245.272 154.503L245.286 154.303C245.265 154.602 245.257 154.702 245.058 154.687C245.058 154.687 245.065 154.588 245.058 154.687C245.072 154.488 245.051 154.787 244.958 154.68L244.965 154.58L244.851 154.773C244.851 154.773 244.652 154.758 244.666 154.559C244.474 154.444 244.445 154.843 244.367 154.537L244.467 154.544L244.503 154.045C244.489 154.245 244.267 154.53 244.175 154.423L244.182 154.323C244.097 154.116 243.99 154.209 243.99 154.209L243.968 154.508L244.068 154.515C244.061 154.615 244.053 154.715 244.068 154.515L243.939 154.907L243.783 154.294C243.576 154.379 243.484 154.272 243.348 154.764L243.362 154.564C243.362 154.564 243.163 154.55 243.148 154.749L243.063 154.542C242.8 154.022 242.613 155.211 242.358 154.591L242.351 154.691C242.066 154.47 241.73 154.947 241.46 154.526L241.346 154.718L241.36 154.519L241.139 154.803C241.125 155.003 240.983 154.19 240.755 154.575L240.747 154.675C240.747 154.675 240.641 154.767 240.648 154.667C240.648 154.667 240.641 154.767 240.648 154.667L240.441 154.753C240.341 154.745 240.47 154.354 240.271 154.339L240.142 154.731L240.127 154.93L240.154 155.935L240.276 155.643L240.261 155.842C240.247 156.042 240.261 155.842 240.261 155.842L240.354 155.949L240.475 155.657L240.454 155.957C240.561 155.864 240.475 155.657 240.483 155.558C240.568 155.764 240.561 155.864 240.668 155.772L240.675 155.672C240.76 155.879 240.974 155.694 240.952 155.993L240.974 155.694C240.945 156.093 241.273 155.716 241.145 156.107C241.166 155.808 241.451 156.029 241.565 155.837L241.551 156.036C241.573 155.737 241.672 155.745 241.787 155.552L241.743 156.151C241.758 155.951 241.857 155.959 241.772 155.752L241.95 156.066L241.971 155.766C242.057 155.973 241.95 156.066 242.156 155.98L242.135 156.28L242.042 156.173ZM244.387 155.641L244.401 155.442L244.387 155.641ZM258.216 155.745L258.209 155.845L258.216 155.745Z" fill="#EAECF1"/>
<path d="M262.704 156.072L262.789 156.278C262.789 156.278 262.811 155.979 262.697 156.171L262.704 156.072ZM262.163 155.23L262.263 155.238L262.278 155.038C262.192 154.831 262.263 155.238 262.263 155.238L262.163 155.23ZM259.371 155.027L259.385 154.828L259.371 155.027ZM252.674 154.74C252.674 154.74 252.688 154.541 252.674 154.74V154.74Z" fill="#EAECF1"/>
<path d="M228.298 226.561C231.667 232.621 238.594 236.634 245.478 235.732C248.919 235.23 252.087 233.571 254.459 231.028C256.831 228.485 258.266 225.21 258.528 221.742C258.854 211.739 252.323 194.018 239.959 195.826C226.99 197.69 222.704 216.629 228.298 226.561Z" fill="#E04B00"/>
<path d="M285.387 210.863L250.479 208.323L249.536 221.288L284.444 223.828L285.387 210.863Z" fill="#E04B00"/>
</svg>
