<svg width="544" height="505" viewBox="0 0 544 505" fill="none" xmlns="http://www.w3.org/2000/svg">
<path fill-rule="evenodd" clip-rule="evenodd" d="M356.852 85.597C415.055 110.842 443.318 164.334 460.134 214.252C475.122 258.747 476.066 306.905 441.383 336.598C410.134 363.356 351.53 341.954 304.078 347.859C225.33 357.664 145.284 432.322 81.7951 381.351C19.4978 331.332 108.513 266.937 128.562 206.924C142.464 165.32 135.23 115.01 178.433 92.0398C227.514 65.966 296.915 59.6016 356.852 85.597Z" fill="#FF6100" fill-opacity="0.15"/>
<path d="M221.952 267.685C221.952 267.685 234.383 293.821 219.114 296.115C219.114 296.115 204.875 298.061 207.169 268.669C209.463 239.278 207.945 270.998 207.945 270.998L221.952 267.685Z" fill="white"/>
<path d="M218.557 296.439C217.399 296.439 214.746 296.138 212.209 293.751C209.115 290.832 205.675 284.101 206.879 268.658C207.876 255.891 207.992 255.879 208.385 255.903C208.745 255.926 208.953 255.937 208.246 270.639L222.102 267.36L222.207 267.569C222.531 268.241 229.969 284.078 225.705 292.106C224.431 294.504 222.23 295.953 219.16 296.416C219.125 296.404 218.905 296.439 218.557 296.439ZM208.061 261.394C207.899 263.166 207.714 265.53 207.459 268.693C206.265 283.916 209.602 290.484 212.602 293.323C215.707 296.254 219.044 295.837 219.079 295.837C221.952 295.408 224.014 294.053 225.196 291.828C229.065 284.541 222.67 269.955 221.79 268.021L207.644 271.369L207.667 270.987C207.795 268.079 207.957 264.36 208.061 261.394Z" fill="#001133"/>
<path d="M380.252 474.273L379.244 479.301C379.221 479.394 379.175 479.486 379.094 479.544L359.515 495.427C359.352 495.555 359.306 495.798 359.422 495.972C360.65 497.988 362.921 499.146 365.273 498.926C372.096 498.289 386.497 496.03 397.086 488.117C398.742 486.878 399.437 484.723 398.777 482.765L397.201 478.108C397.19 478.084 397.19 478.05 397.178 478.026L396.495 472.883C396.46 472.662 396.263 472.5 396.043 472.523L380.623 473.937C380.449 473.948 380.299 474.087 380.252 474.273Z" fill="white"/>
<path d="M364.716 499.25C362.48 499.25 360.36 498.068 359.178 496.134C358.993 495.832 359.063 495.438 359.341 495.218L378.92 479.335C378.943 479.312 378.966 479.289 378.966 479.254L379.974 474.226C380.032 473.913 380.287 473.681 380.599 473.658L396.019 472.245C396.39 472.21 396.738 472.477 396.784 472.859L397.468 478.003L399.055 482.695C399.761 484.768 399.032 487.039 397.259 488.371C386.774 496.203 372.733 498.543 365.295 499.238C365.11 499.238 364.913 499.25 364.716 499.25ZM396.1 472.801H396.089L380.669 474.214C380.611 474.214 380.565 474.261 380.553 474.319L379.545 479.347C379.51 479.509 379.429 479.659 379.29 479.764L359.711 495.647C359.665 495.693 359.653 495.763 359.688 495.821C360.858 497.744 363.036 498.856 365.261 498.636C372.64 497.941 386.554 495.624 396.935 487.873C398.51 486.703 399.147 484.676 398.522 482.845L396.946 478.188C396.935 478.142 396.923 478.095 396.911 478.049L396.228 472.905C396.216 472.847 396.158 472.801 396.1 472.801Z" fill="#001133"/>
<path d="M337.468 405.746C337.468 405.746 342.913 440.571 356.132 465.433L374.39 463.95C374.39 463.95 384.539 422.765 384.967 405.515L337.468 405.746Z" fill="white"/>
<path d="M355.957 465.734L355.865 465.56C342.773 440.942 337.224 406.128 337.178 405.78L337.131 405.444H337.467L385.256 405.213L385.245 405.514C384.828 422.602 374.76 463.591 374.668 464.008L374.621 464.205L355.957 465.734ZM337.815 406.024C338.417 409.65 344.002 441.892 356.305 465.12L374.158 463.672C374.922 460.532 384.167 422.37 384.666 405.804L337.815 406.024Z" fill="#001133"/>
<path d="M365.609 417.98C365.609 417.98 368.632 449.098 380.322 473.96L396.46 472.477C396.46 472.477 407.223 435.011 407.593 417.76L365.609 417.98Z" fill="white"/>
<path d="M380.148 474.272L380.055 474.087C368.481 449.468 365.342 418.327 365.319 418.014L365.284 417.702H365.597L407.871 417.47L407.86 417.771C407.489 434.859 396.83 472.187 396.715 472.569L396.657 472.755L380.148 474.272ZM365.933 418.269C366.292 421.606 369.663 450.488 380.495 473.658L396.228 472.21C397.051 469.314 406.817 434.558 407.28 418.049L365.933 418.269Z" fill="#001133"/>
<path d="M430.393 293.138C430.393 293.138 430.346 305.951 412.76 301.294C412.83 301.317 411.81 320.537 411.903 322.703C412.273 330.859 411.358 338.992 410.964 347.137C410.559 355.617 410.721 364.387 413.478 372.508C415.355 378.046 416.838 383.7 417.916 389.481C418.831 394.439 420.372 399.398 420.696 404.437C420.951 408.365 419.978 412.674 416.919 415.142C415.239 416.497 413.096 417.158 411.011 417.702C400.723 420.355 389.196 422.163 378.537 421.305C374.089 420.946 369.605 420.008 365.597 417.992C364.427 417.401 356.062 412.338 356.027 409.245C356.027 409.245 343.631 423.808 330.215 414.806C329.254 414.157 328.651 413.08 328.593 411.921C328.176 404.704 327.029 377.224 332.521 362.209C332.521 362.209 340.48 305.453 338.151 293.381C338.151 293.381 322.836 302.684 321.167 280.881C320.808 276.224 322.083 271.578 324.701 267.697C327.238 263.932 330.911 258.95 335.058 254.803C335.058 254.803 344.593 239.545 357.093 235.316C357.093 235.316 374.1 226.106 387.284 228.307C387.284 228.307 416.363 226.685 426.141 270.593C426.141 270.582 432.548 288.18 430.393 293.138Z" fill="white"/>
<path d="M384.121 421.803C382.198 421.803 380.333 421.733 378.526 421.583C373.393 421.166 369.13 420.077 365.481 418.235C365.388 418.188 356.873 413.404 355.853 409.87C354.845 410.936 352.088 413.658 348.3 415.639C343.874 417.968 337.12 419.764 330.065 415.025C329.045 414.342 328.385 413.172 328.315 411.909C327.863 403.996 326.798 377.014 332.254 362.081C332.312 361.583 339.993 306.495 337.943 293.809C336.552 294.562 331.559 296.926 327.238 294.701C323.577 292.825 321.445 288.167 320.889 280.88C320.53 276.211 321.804 271.461 324.469 267.511C326.867 263.954 330.621 258.822 334.861 254.57C334.919 254.466 344.558 239.231 357 235.014C357.128 234.945 374.204 225.804 387.33 227.994C387.342 227.994 394.722 227.635 403.191 232.709C417.313 241.166 423.615 257.93 426.419 270.5C426.674 271.183 432.791 288.109 430.682 293.184C430.671 293.751 430.439 297.818 427.021 300.448C423.916 302.823 419.201 303.228 413.015 301.653C413.026 302.371 412.945 303.923 412.783 307.352C412.505 313.249 412.123 321.324 412.192 322.68C412.459 328.484 412.065 334.369 411.682 340.058C411.532 342.375 411.37 344.773 411.254 347.136C410.883 354.887 410.883 363.958 413.756 372.403C415.645 377.953 417.139 383.687 418.205 389.422C418.506 391.079 418.888 392.759 419.271 394.392C420.012 397.659 420.777 401.042 420.997 404.425C421.298 409.152 419.885 413.137 417.116 415.373C415.332 416.81 413.073 417.47 411.092 417.991C401.221 420.528 392.185 421.803 384.121 421.803ZM356.039 408.943C356.073 408.943 356.108 408.943 356.131 408.955C356.247 409.001 356.317 409.105 356.328 409.221C356.351 412.013 364.079 416.879 365.736 417.713C369.315 419.521 373.509 420.598 378.572 421.003C387.898 421.756 398.788 420.552 410.941 417.412C412.864 416.914 415.054 416.277 416.745 414.91C420.464 411.909 420.557 406.591 420.418 404.448C420.209 401.123 419.445 397.763 418.703 394.508C418.332 392.875 417.95 391.183 417.637 389.515C416.583 383.803 415.089 378.103 413.212 372.577C410.315 364.039 410.304 354.91 410.675 347.101C410.79 344.738 410.953 342.328 411.103 340.011C411.486 334.334 411.879 328.472 411.613 322.703C411.555 321.324 411.926 313.226 412.204 307.318C412.343 304.259 412.47 301.606 412.47 301.317C412.47 301.282 412.47 301.235 412.482 301.201C412.528 301.05 412.69 300.957 412.841 300.992C419.004 302.626 423.662 302.278 426.674 299.973C430.057 297.378 430.115 293.149 430.115 293.114C430.115 293.079 430.126 293.033 430.138 292.998C432.223 288.202 425.944 270.824 425.874 270.65C423.094 258.162 416.861 241.56 402.936 233.207C394.617 228.214 387.377 228.55 387.307 228.55C374.309 226.383 357.406 235.431 357.244 235.524C344.94 239.695 335.417 254.767 335.324 254.918C331.061 259.181 327.342 264.29 324.956 267.824C322.36 271.67 321.132 276.293 321.468 280.822C322.013 287.901 324.04 292.396 327.504 294.168C332.185 296.578 337.954 293.126 338.012 293.091C338.093 293.045 338.197 293.033 338.279 293.079C338.36 293.114 338.429 293.195 338.441 293.288C340.758 305.267 333.135 359.891 332.81 362.208C327.377 377.084 328.431 403.973 328.883 411.863C328.941 412.94 329.509 413.936 330.377 414.527C335.846 418.2 341.777 418.397 348.022 415.107C352.691 412.65 355.784 409.059 355.807 409.024C355.876 408.978 355.958 408.943 356.039 408.943Z" fill="#001133"/>
<path d="M361.635 216.757C361.681 216.479 361.472 216.224 361.194 216.212C360.094 216.177 357.719 215.633 357.51 215.552C355.448 214.822 353.872 213.316 353.062 211.277C351.138 206.434 350.872 199.854 351.046 194.698C351.266 188.257 352.818 181.538 357.116 176.544C357.754 175.803 358.437 175.119 359.167 174.482C363.152 171.03 369.849 169.095 374.876 170.844C387.921 175.374 388.118 194.536 383.901 205.102C383.519 206.052 383.09 206.979 382.604 207.882C382.314 208.404 381.086 209.736 381.086 210.257L380.97 229.929C380.97 229.929 370.578 236.973 358.831 233.173L361.635 216.757Z" fill="white"/>
<path d="M366.013 234.597C363.708 234.597 361.263 234.273 358.761 233.474C358.622 233.427 358.541 233.288 358.564 233.149L361.356 216.721C361.368 216.652 361.344 216.605 361.321 216.582C361.298 216.559 361.263 216.524 361.194 216.524C360.07 216.49 357.684 215.945 357.417 215.852C355.274 215.088 353.64 213.512 352.806 211.415C350.825 206.434 350.605 199.587 350.767 194.721C351.034 186.982 353.096 180.819 356.907 176.393C357.556 175.64 358.251 174.945 358.993 174.296C363.337 170.531 370.207 168.944 374.992 170.601C379.139 172.037 382.267 175.003 384.272 179.382C388.025 187.585 386.855 198.533 384.191 205.229C383.785 206.237 383.345 207.175 382.87 208.044C382.766 208.241 382.545 208.519 382.302 208.843C381.978 209.26 381.387 210.037 381.387 210.292C381.387 210.292 381.387 210.407 381.271 229.963C381.271 230.056 381.225 230.149 381.144 230.207C381.063 230.241 374.517 234.597 366.013 234.597ZM359.166 232.987C369.848 236.324 379.475 230.554 380.692 229.789L380.796 210.268C380.796 209.863 381.213 209.295 381.827 208.473C382.047 208.183 382.267 207.905 382.348 207.743C382.812 206.909 383.241 205.982 383.634 204.997C386.264 198.417 387.411 187.654 383.727 179.602C381.792 175.362 378.78 172.512 374.783 171.122C370.184 169.523 363.557 171.064 359.363 174.702C358.645 175.327 357.962 176.011 357.336 176.729C353.617 181.05 351.59 187.098 351.335 194.698C351.173 199.506 351.381 206.271 353.327 211.16C354.104 213.107 355.621 214.555 357.602 215.262C357.788 215.331 360.116 215.876 361.194 215.899C361.414 215.899 361.611 216.003 361.75 216.177C361.889 216.339 361.947 216.559 361.912 216.779L359.166 232.987Z" fill="#001133"/>
<path d="M350.652 190.794C351.555 192.195 355.691 188.604 355.575 186.055C355.575 186.055 371.702 196.714 378.804 188.697L377.077 200.27L379.174 200.363C379.174 200.363 380.09 192.891 383.635 196.076C383.635 196.076 385.546 199.262 381.445 200.363L380.819 211.01C380.866 210.454 381.816 210.28 382.407 209.967C384.677 208.739 385.175 205.588 386.125 203.178C389.949 193.481 387.562 181.247 380.889 173.323C378.665 170.682 374.899 169.697 371.563 169.5C365.724 169.141 359.132 171.249 355.112 175.64C351.393 179.718 350.397 185.441 350.652 190.794Z" fill="#001133"/>
<path d="M361.507 216.038C361.507 216.038 367.798 215.771 369.952 212.609C369.952 212.609 369.165 220.521 360.684 221.981L361.507 216.038Z" fill="#001133"/>
<path d="M368.886 225.7C368.979 225.659 369.113 225.6 369.281 225.525C369.63 225.369 370.129 225.143 370.725 224.861C371.918 224.297 373.506 223.509 375.082 222.616C376.656 221.724 378.229 220.721 379.386 219.725C379.964 219.228 380.448 218.724 380.776 218.229C381.024 217.855 381.192 217.469 381.232 217.086C381.3 217.115 381.38 217.154 381.469 217.206C381.808 217.403 382.292 217.796 382.817 218.581C383.864 220.145 385.069 223.256 385.6 229.415C385.56 229.453 385.506 229.505 385.437 229.569C385.271 229.722 385.02 229.948 384.683 230.232C384.008 230.802 382.986 231.609 381.605 232.553C378.895 234.405 374.801 236.786 369.22 238.941L368.886 225.7Z" fill="white" stroke="#001133" stroke-width="0.5"/>
<path d="M360.033 225.42C360.062 225.408 360.085 225.4 360.101 225.396L363.392 225.653L363.592 238.658L357.748 237.034C357.386 231.374 358.025 228.449 358.731 226.947C359.086 226.192 359.457 225.802 359.721 225.602C359.854 225.502 359.963 225.448 360.033 225.42Z" fill="white" stroke="#001133" stroke-width="0.5"/>
<path d="M383.439 255.076L383.15 255.578L413.758 273.188L414.047 272.686L383.439 255.076Z" fill="#001133"/>
<path d="M376.533 266.851C379.707 260.189 382.731 254.999 383.299 255.265C383.866 255.532 383.194 262.159 380.02 268.82C376.846 275.482 372.374 279.664 371.806 279.397C371.238 279.142 373.358 273.524 376.533 266.851Z" fill="#001133"/>
<path d="M371.949 279.14L371.676 279.651L412.671 301.557L412.944 301.046L371.949 279.14Z" fill="#001133"/>
<path d="M342.855 259.437C342.855 259.437 338.974 261.754 339.507 265.391C339.785 267.338 341.164 268.948 342.948 269.747C346.887 271.497 355.738 274.15 360.546 265.426" fill="white"/>
<path d="M350.582 271.809C347.465 271.809 344.558 270.778 342.831 270.002C340.885 269.133 339.495 267.383 339.217 265.426C338.661 261.649 342.542 259.285 342.704 259.181L343.005 259.679C342.97 259.702 339.298 261.95 339.796 265.344C340.051 267.105 341.314 268.681 343.075 269.469C346.678 271.068 355.552 273.871 360.302 265.263L360.812 265.541C358.124 270.407 354.208 271.809 350.582 271.809Z" fill="#001133"/>
<path d="M325.292 267.244L324.909 266.816C324.967 266.769 330.679 261.718 340.538 261.579L340.549 262.159C330.899 262.298 325.35 267.198 325.292 267.244Z" fill="#001133"/>
<path d="M338.29 293.624L338.012 293.114C338.128 293.045 350.061 286.256 355.668 270.291L356.213 270.488C350.524 286.661 338.418 293.554 338.29 293.624Z" fill="#001133"/>
<path d="M375.263 302.198L375.263 302.197C375.322 301.783 375.896 299.11 376.589 295.885C376.836 294.74 377.097 293.525 377.355 292.316C377.847 290.017 378.327 287.75 378.67 286.049C378.842 285.199 378.98 284.488 379.068 283.986C379.098 283.813 379.123 283.662 379.142 283.538L379.561 283.759L381.559 284.809C383.212 285.677 385.416 286.836 387.621 287.993C389.826 289.151 392.031 290.309 393.686 291.176C394.513 291.61 395.203 291.971 395.687 292.223C395.928 292.349 396.119 292.448 396.249 292.516C396.264 292.524 396.278 292.531 396.292 292.538C396.29 292.556 396.288 292.575 396.285 292.595C396.269 292.734 396.249 292.918 396.23 293.106C396.21 293.293 396.191 293.483 396.177 293.633C396.164 293.762 396.153 293.879 396.152 293.927C395.468 306.866 395.791 319.697 399.219 332.303L399.219 332.303C400.552 337.195 401.867 342.111 402.374 347.138C402.803 351.458 403.16 355.825 403.091 360.142L403.091 360.143C403.089 360.292 403.095 360.586 403.102 360.969C403.106 361.15 403.11 361.351 403.114 361.566C403.125 362.239 403.135 363.058 403.123 363.86C403.112 364.664 403.079 365.443 403.008 366.039C402.973 366.338 402.929 366.581 402.876 366.754C402.85 366.841 402.824 366.901 402.802 366.94C402.792 366.957 402.785 366.966 402.781 366.97C397.716 369.448 391.765 369.569 386.228 368.842L386.227 368.842C385.571 368.757 381.941 368.133 378.48 367.359C376.75 366.972 375.07 366.549 373.828 366.14C373.206 365.935 372.705 365.737 372.365 365.552C372.194 365.46 372.076 365.377 372.006 365.308C371.953 365.257 371.942 365.23 371.94 365.224C372.184 358.264 372.485 351.305 372.878 344.347L372.878 344.346C373.14 339.671 373.268 335.001 373.395 330.338C373.652 320.933 373.909 311.553 375.263 302.198Z" fill="white" stroke="#001133" stroke-width="0.5"/>
<path d="M332.706 242.522C332.973 242.371 333.216 242.186 333.448 241.966C335.012 240.448 335.869 238.212 336.089 236.092C336.355 233.485 335.741 230.855 334.757 228.446C334.038 226.685 333.1 225.005 332.069 223.406C331.455 222.456 330.795 221.541 330.111 220.637C329.393 219.687 328.57 218.332 327.597 217.66C327.307 219.479 327.528 221.448 327.365 223.29C327.203 225.179 326.902 227.055 326.323 228.863C325.894 230.218 325.315 231.527 325.002 232.906C324.353 235.791 324.805 240.344 327.458 242.186C328.478 242.892 329.926 243.089 331.131 242.985C331.698 242.95 332.231 242.8 332.706 242.522Z" fill="#FF6100"/>
<path d="M356.034 270.626C356.027 270.642 356.019 270.662 356.009 270.684C355.974 270.765 355.923 270.884 355.854 271.038C355.716 271.348 355.508 271.799 355.229 272.371C354.671 273.513 353.828 275.135 352.686 277.057C350.413 280.884 346.952 285.902 342.192 290.689C341.345 300.482 339.874 310.31 337.7 319.896C335.759 328.497 333.18 336.993 330.61 345.463C329.235 349.993 327.863 354.515 326.592 359.041C326.594 359.042 326.595 359.044 326.597 359.046C326.67 359.116 326.781 359.219 326.929 359.349C327.225 359.61 327.67 359.979 328.261 360.41C329.445 361.271 331.216 362.376 333.559 363.349C338.24 365.291 345.211 366.706 354.361 364.565C354.366 364.561 354.374 364.552 354.385 364.538C354.417 364.498 354.455 364.435 354.498 364.347C354.584 364.174 354.67 363.94 354.751 363.69C354.868 363.326 354.962 362.967 355.024 362.732C355.048 362.64 355.067 362.567 355.08 362.521L355.082 362.517C356.001 359.551 356.463 356.418 356.845 353.327L356.845 353.326C357.988 344.255 358.153 335.119 358.318 325.978C358.358 323.742 358.399 321.504 358.453 319.268C358.453 319.268 358.453 319.268 358.453 319.268L358.703 319.274C358.776 316.191 358.873 313.106 358.971 310.018C359.311 299.249 359.653 288.456 358.923 277.706L356.034 270.626ZM356.034 270.626L357.838 269.305C357.84 269.33 357.841 269.355 357.844 269.381C357.869 269.703 357.922 270.114 357.982 270.525C358.043 270.937 358.111 271.354 358.166 271.69L358.167 271.7C358.222 272.035 358.261 272.273 358.269 272.353C358.419 274.146 358.547 275.928 358.674 277.723L356.034 270.626Z" fill="white" stroke="#001133" stroke-width="0.5"/>
<path d="M355.801 235.794L357.576 245.195L347.714 246.716L346.765 241.558C348.475 239.158 350.776 237.706 352.665 236.853C353.62 236.422 354.468 236.144 355.075 235.975C355.378 235.891 355.622 235.833 355.788 235.797C355.793 235.796 355.797 235.795 355.801 235.794Z" fill="white" stroke="#001133" stroke-width="0.5"/>
<path d="M398.494 263.879C392.537 260.329 388.702 258.255 386.344 257.065C385.139 256.457 384.319 256.08 383.798 255.854C383.551 255.746 383.37 255.673 383.248 255.625C383.847 252.543 385.561 245.901 387.144 239.962C387.954 236.926 388.728 234.077 389.3 231.987C389.586 230.942 389.821 230.087 389.985 229.493C390.067 229.196 390.131 228.965 390.174 228.807L390.2 228.714C391.245 228.519 392.547 228.66 393.939 229.004C395.392 229.362 396.918 229.934 398.31 230.54C399.702 231.145 400.954 231.782 401.859 232.268C402.311 232.511 402.676 232.715 402.928 232.859C403.017 232.91 403.092 232.953 403.151 232.988C400.594 241.804 399.432 249.613 398.908 255.231C398.645 258.059 398.544 260.333 398.508 261.901C398.491 262.684 398.489 263.292 398.493 263.703C398.493 263.767 398.494 263.825 398.494 263.879Z" fill="white" stroke="#001133" stroke-width="0.5"/>
<path d="M374.413 465.155L375.328 470.658L376.058 474.319C376.313 475.57 375.711 476.833 374.575 477.424C366.524 481.618 340.283 480.413 334.143 480.066C333.355 480.019 332.683 479.509 332.44 478.756L331.78 476.775L357.221 468.028L358.067 465.248L374.378 463.95L374.413 465.155Z" fill="white"/>
<path d="M349.296 480.783C342.913 480.783 337.12 480.517 334.131 480.343C333.227 480.297 332.451 479.706 332.161 478.837L331.408 476.578L331.675 476.485L356.977 467.785L357.834 464.958L374.644 463.614L374.679 465.108L375.594 470.588L376.324 474.237C376.602 475.605 375.93 477.006 374.691 477.655C369.918 480.169 358.935 480.783 349.296 480.783ZM332.15 476.948L332.718 478.651C332.926 479.289 333.494 479.717 334.166 479.764C339.483 480.065 366.396 481.351 374.448 477.157C375.455 476.636 376 475.489 375.78 474.365L375.05 470.704L374.123 465.155L374.1 464.251L358.286 465.514L357.452 468.248L357.313 468.294L332.15 476.948Z" fill="#001133"/>
<path d="M331.165 244.456C331.258 245.464 335.672 245.847 336.205 245.904C340.642 246.368 345.114 246.044 349.516 245.476C351.729 245.198 353.93 244.85 356.131 244.526C358.773 244.132 361.565 243.24 363.592 245.603C364.728 246.936 365.133 248.801 364.901 250.527C363.766 259.355 352.679 262.193 345.357 260.293C338.128 258.428 331.895 252.056 331.165 244.456Z" fill="#FF6100"/>
<path d="M335.66 247.202C340.746 249.183 346.388 248.384 351.636 247.387C354.127 246.912 360.649 244.039 362.202 247.364C362.445 247.897 362.364 248.523 362.156 249.079C361.043 252.16 356.676 252.983 353.826 253.389C348.775 254.107 343.596 253.006 339.333 250.179C338.672 249.739 338.035 249.276 337.433 248.778C336.946 248.407 336.216 247.387 335.66 247.202Z" fill="white"/>
<path d="M381.237 262.009C379.071 260.769 376.939 259.448 374.865 258.046C372.363 256.367 370.173 253.806 367.312 252.752C365.18 251.964 362.77 251.941 360.523 252.045C359.446 252.092 358.368 252.207 357.314 252.393C356.538 252.532 355.008 252.59 354.452 253.204C353.943 253.76 354.614 254.582 355.066 254.93C356.213 255.81 357.812 255.695 359.075 256.332C359.492 256.54 360.141 256.981 360.071 257.537C359.978 258.209 359.121 258.556 358.588 258.834C357.812 259.24 357.024 259.587 356.202 259.888C352.819 261.128 349.262 260.908 345.729 260.363C344.964 260.248 344.199 259.9 343.446 259.726C343.446 259.726 336.993 263.283 347.71 264.789C347.71 264.789 359.666 266.492 364.659 264.986L376.418 273.003C376.418 272.991 379.43 268.496 381.237 262.009Z" fill="white"/>
<path d="M376.487 273.396L364.6 265.287C359.526 266.735 348.138 265.124 347.651 265.055C343.585 264.476 341.488 263.56 341.233 262.228C340.966 260.745 343.191 259.506 343.283 259.448L343.376 259.39L343.48 259.413C343.805 259.494 344.118 259.598 344.442 259.702C344.871 259.841 345.311 259.981 345.739 260.05C348.891 260.537 352.586 260.861 356.073 259.587C356.85 259.297 357.649 258.949 358.425 258.544L358.622 258.44C359.097 258.208 359.688 257.907 359.746 257.467C359.792 257.131 359.317 256.771 358.912 256.563C358.402 256.308 357.834 256.181 357.232 256.053C356.409 255.868 355.564 255.682 354.857 255.138C354.475 254.837 354 254.304 353.953 253.748C353.93 253.458 354.011 253.203 354.208 252.995C354.73 252.427 355.83 252.276 356.711 252.16C356.908 252.137 357.081 252.114 357.232 252.091C358.298 251.906 359.398 251.79 360.487 251.743C362.77 251.639 365.191 251.662 367.392 252.473C369.281 253.168 370.891 254.512 372.443 255.81C373.277 256.505 374.135 257.223 375.004 257.802C377.054 259.181 379.198 260.502 381.364 261.753L381.561 261.869L381.503 262.089C379.707 268.554 376.672 273.107 376.637 273.153L376.487 273.396ZM364.704 264.649L364.82 264.73L376.336 272.585C376.973 271.577 379.36 267.569 380.912 262.147C378.792 260.93 376.718 259.633 374.714 258.289C373.81 257.687 372.942 256.957 372.096 256.262C370.578 254.999 369.014 253.69 367.218 253.029C365.122 252.253 362.77 252.242 360.534 252.334C359.468 252.381 358.402 252.496 357.359 252.682C357.197 252.705 357.012 252.728 356.815 252.763C356.062 252.856 355.042 252.995 354.66 253.412C354.579 253.504 354.544 253.597 354.556 253.724C354.591 254.049 354.927 254.466 355.239 254.709C355.842 255.173 356.595 255.335 357.394 255.52C358.008 255.659 358.634 255.798 359.213 256.076C359.595 256.273 360.476 256.795 360.372 257.571C360.267 258.312 359.503 258.706 358.935 258.984L358.738 259.077C357.927 259.494 357.116 259.853 356.317 260.143C352.714 261.463 348.925 261.127 345.693 260.629C345.23 260.56 344.755 260.409 344.303 260.259C344.025 260.166 343.758 260.085 343.492 260.015C342.901 260.363 341.673 261.29 341.824 262.124C341.928 262.703 342.843 263.792 347.744 264.487C347.86 264.499 359.7 266.167 364.577 264.696L364.704 264.649Z" fill="#001133"/>
<path d="M233.172 356.654L233.172 356.654C232.953 360.01 232.411 363.344 231.626 366.622C229.943 373.622 226.814 391.101 232.315 408.151L232.315 408.152C232.478 408.651 232.64 409.139 232.815 409.64L232.815 409.64C234.787 415.233 236.136 419.189 237.026 421.98C237.917 424.777 238.343 426.39 238.477 427.303C238.546 427.767 238.532 428.011 238.493 428.132C238.476 428.185 238.459 428.197 238.457 428.198C238.454 428.2 238.442 428.209 238.403 428.211C238.313 428.216 238.195 428.187 238.01 428.142L237.967 428.131C237.791 428.089 237.569 428.038 237.343 428.05L237.293 428.04C237.238 428.028 237.155 428.011 237.047 427.989C236.831 427.944 236.513 427.88 236.105 427.801C235.289 427.642 234.114 427.422 232.675 427.178C229.797 426.689 225.864 426.103 221.641 425.712C217.419 425.321 212.901 425.124 208.858 425.418C205.042 425.696 201.613 426.412 199.256 427.842L200.734 273.429L204.924 264.402L214.422 263.767L215.688 271.079L215.687 271.088C215.685 271.116 215.682 271.156 215.679 271.21C215.672 271.318 215.664 271.477 215.658 271.687C215.645 272.107 215.64 272.731 215.67 273.548C215.73 275.183 215.93 277.594 216.486 280.708C217.598 286.938 220.137 295.98 225.842 307.256C226.37 308.313 226.828 309.39 227.194 310.512C229.102 316.397 234.582 335.466 233.172 356.654Z" fill="white" stroke="#001133" stroke-width="0.5"/>
<path d="M191.958 226.661C191.958 226.661 224.315 235.906 218.43 256.076L205.061 292.929L147.459 290.438L150.622 225.26L191.958 226.661Z" fill="white"/>
<path d="M205.269 293.23L205.061 293.218L147.169 290.716L147.181 290.426L150.355 224.97L150.645 224.982L192.051 226.383C192.236 226.441 211.039 231.921 217.353 243.379C219.565 247.387 220.029 251.685 218.72 256.169L205.269 293.23ZM147.772 290.16L204.864 292.628L218.164 255.972C219.415 251.674 218.975 247.515 216.843 243.645C210.761 232.628 192.815 227.206 191.912 226.939L150.9 225.561L147.772 290.16Z" fill="#001133"/>
<path d="M193.035 216.768C192.988 216.513 193.197 216.281 193.475 216.281C194.576 216.246 196.951 215.748 197.159 215.679C199.221 215.007 200.797 213.64 201.608 211.786C203.531 207.384 203.797 201.383 203.624 196.691C203.404 190.828 201.851 184.7 197.553 180.158C196.916 179.487 196.232 178.861 195.502 178.282C191.517 175.13 184.821 173.381 179.793 174.968C166.748 179.093 166.551 196.54 170.768 206.156C171.15 207.025 171.579 207.87 172.066 208.681C172.355 209.156 173.583 210.373 173.583 210.848L173.699 228.758C173.699 228.758 183.072 231.238 194.819 227.785L193.035 216.768Z" fill="white"/>
<path d="M182.041 229.917C176.966 229.917 173.676 229.071 173.618 229.06C173.491 229.025 173.41 228.909 173.398 228.782L173.282 210.871C173.282 210.662 172.668 209.932 172.367 209.573C172.124 209.284 171.904 209.029 171.799 208.843C171.324 208.056 170.872 207.187 170.479 206.283C167.93 200.456 166.713 190.794 170.085 183.379C172.066 179.012 175.298 176.092 179.689 174.702C184.462 173.196 191.332 174.644 195.665 178.062C196.406 178.641 197.101 179.29 197.75 179.973C201.562 184.005 203.635 189.635 203.902 196.691C204.064 201.128 203.856 207.361 201.863 211.914C201.029 213.825 199.384 215.262 197.24 215.957C196.974 216.038 194.587 216.536 193.475 216.571C193.417 216.571 193.359 216.594 193.336 216.629C193.313 216.652 193.301 216.687 193.313 216.71C193.313 216.71 193.313 216.71 193.313 216.721L195.086 227.751C195.109 227.89 195.016 228.029 194.877 228.075C190.069 229.5 185.62 229.917 182.041 229.917ZM173.977 228.55C175.425 228.886 184.033 230.612 194.483 227.588L192.757 216.814C192.722 216.617 192.769 216.42 192.896 216.258C193.035 216.084 193.243 215.992 193.475 215.98C194.553 215.957 196.893 215.459 197.078 215.389C199.059 214.752 200.577 213.42 201.342 211.659C203.288 207.21 203.496 201.07 203.334 196.691C203.079 189.774 201.064 184.283 197.345 180.355C196.719 179.695 196.036 179.069 195.317 178.502C191.123 175.188 184.485 173.787 179.874 175.235C175.646 176.567 172.541 179.382 170.618 183.599C167.327 190.852 168.521 200.317 171.023 206.028C171.405 206.909 171.846 207.754 172.309 208.531C172.39 208.67 172.599 208.925 172.83 209.191C173.456 209.944 173.873 210.465 173.873 210.848L173.977 228.55Z" fill="#001133"/>
<path d="M193.881 216.026C193.881 216.026 187.59 215.76 185.435 212.597C185.435 212.597 186.223 220.51 194.703 221.97L193.881 216.026Z" fill="#001133"/>
<path d="M154.758 234.632C154.758 234.632 130.927 249.148 142.848 274.346C154.769 299.544 142.848 274.346 142.848 274.346L160.006 266.468L154.758 234.632Z" fill="white"/>
<path d="M147.876 285.677L142.454 274.207C130.857 249.229 154.364 234.539 154.607 234.389L154.978 234.169L160.33 266.642L160.133 266.735L143.242 274.485L148.409 285.422L147.876 285.677ZM154.549 235.119C151.618 237.088 132.398 251.164 142.987 273.964L159.693 266.306L154.549 235.119Z" fill="#001133"/>
<path d="M203.775 292.998L204.111 300.726L147.529 297.76L148.189 290.693L203.775 292.998Z" fill="white"/>
<path d="M204.412 301.027L204.099 301.015L147.216 298.038L147.934 290.392L204.064 292.72L204.412 301.027ZM147.841 297.493L203.798 300.425L203.497 293.276L148.444 290.994L147.841 297.493Z" fill="#001133"/>
<path d="M177.106 197.038C177.106 197.038 178.982 200.375 180.442 197.872C180.442 197.872 179.191 193.701 183.362 189.948C183.362 189.948 188.783 188.488 188.992 183.9C188.992 183.9 198.364 194.107 204.829 193.898C204.829 193.898 206.914 183.692 196.905 175.142C196.905 175.142 194.217 170.913 184.972 170.763C184.323 170.751 183.674 170.693 183.037 170.531C180.882 169.952 174.464 169.083 170.015 177.644C170.015 177.644 160.585 180.228 159.322 197.756C159.16 199.946 158.245 201.996 156.692 203.549C150.772 209.434 141.527 214.949 144.806 231.203C144.806 231.203 128.135 258.915 139.176 261.626C139.176 261.626 141.458 264.58 145.015 265.02C147.575 265.344 147.505 265.588 147.505 265.588C147.505 265.588 147.76 265.75 148.212 265.993C156.577 270.454 166.969 266.283 170.085 257.339C172.946 249.148 176.862 233.809 176.051 212.863C176.051 212.863 178.971 202.657 175.009 197.026C175.02 197.038 175.437 194.964 177.106 197.038Z" fill="#001133"/>
<path d="M205.906 300.529C205.906 300.529 210.077 328.449 208.408 350.392C208.408 350.392 203.832 388.044 212.359 414.516C213.703 418.687 214.942 422.892 215.916 427.167C219.472 442.749 228.022 478.258 235.077 491.894C235.077 491.894 214.027 488.696 192.78 494.454C192.78 494.454 182.573 499.146 161.94 493.18C161.94 493.18 139.013 496.377 135.688 494.037C135.688 494.037 128.215 425.672 136.128 396.478L147.354 297.76L205.906 300.529Z" fill="white"/>
<path d="M181.241 496.481C176.34 496.481 169.888 495.775 161.905 493.481C160.318 493.701 138.839 496.62 135.503 494.269L135.398 494.199L135.387 494.072C135.306 493.388 127.995 425.325 135.839 396.408L147.088 297.47L147.354 297.482L206.149 300.263L206.184 300.494C206.23 300.772 210.343 328.693 208.686 350.426C208.64 350.82 204.215 388.322 212.625 414.446C214.201 419.347 215.336 423.379 216.194 427.121C219.588 442.008 228.242 478.096 235.332 491.778L235.599 492.287L235.031 492.206C234.823 492.172 213.795 489.09 192.849 494.755C192.815 494.755 188.922 496.481 181.241 496.481ZM161.952 492.89L162.01 492.901C172.598 495.96 180.372 496.157 185.018 495.775C190.057 495.358 192.618 494.211 192.641 494.199C211.849 488.997 231.081 491.094 234.556 491.546C227.489 477.458 218.974 441.984 215.614 427.248C214.769 423.518 213.633 419.498 212.058 414.62C203.612 388.38 208.049 350.751 208.096 350.369C209.66 329.782 206.022 303.576 205.628 300.819L147.586 298.073L136.383 396.512C128.748 424.734 135.584 490.411 135.954 493.863C138.816 495.554 154.108 493.979 161.894 492.89H161.952Z" fill="#001133"/>
<path d="M148.705 289.433L148.706 289.433C160.48 281.944 173.022 266.806 182.606 253.574C187.401 246.953 191.462 240.801 194.324 236.305C195.755 234.057 196.886 232.224 197.659 230.953C198.046 230.318 198.343 229.823 198.543 229.488C198.625 229.35 198.691 229.239 198.74 229.156C205.287 231.544 210.096 235.408 213.276 238.69C214.882 240.347 216.072 241.854 216.859 242.946C217.253 243.492 217.546 243.934 217.74 244.239C217.837 244.391 217.91 244.509 217.957 244.589C217.974 244.617 217.988 244.64 217.999 244.659C218.19 247.869 217.098 252.502 215.009 258.181C212.911 263.886 209.819 270.614 206.057 277.96C198.534 292.652 188.343 309.795 178.096 326.125C167.849 342.455 157.55 357.968 149.811 369.399C145.942 375.115 142.714 379.81 140.452 383.076C139.322 384.708 138.433 385.984 137.827 386.851C137.524 387.285 137.292 387.617 137.135 387.84L136.996 388.038C136.901 388.006 136.839 387.965 136.795 387.922C136.733 387.86 136.69 387.772 136.671 387.641C136.631 387.362 136.711 386.961 136.861 386.44C136.917 386.249 136.982 386.041 137.05 385.821C137.159 385.474 137.275 385.101 137.373 384.731C137.535 384.117 137.66 383.463 137.642 382.823C137.573 380.369 137.882 377.828 138.366 375.419C138.917 372.713 138.962 368.482 138.916 365.703C138.893 364.028 138.682 362.355 138.319 360.729L138.319 360.729C136.773 353.84 136.89 348.908 137.096 346.544L137.096 346.542C137.179 345.519 137.167 344.509 137.085 343.49C136.821 340.195 137.442 334.371 137.813 331.376L137.814 331.376C137.926 330.456 138.207 329.586 138.53 328.698C138.836 327.868 139.052 326.654 139.207 325.316C139.362 323.973 139.457 322.486 139.515 321.103C139.573 319.719 139.594 318.436 139.601 317.499C139.604 317.03 139.604 316.648 139.603 316.383C139.602 316.25 139.601 316.147 139.601 316.076L139.6 315.996L139.6 315.976L139.6 315.97L139.6 315.969L139.6 315.969C139.599 315.969 139.599 315.969 139.35 315.972L139.6 315.969L139.599 315.959C139.185 307.644 142.351 299.07 144.443 294.41C145.363 292.366 146.826 290.621 148.705 289.433Z" fill="white" stroke="#001133" stroke-width="0.5"/>
<path d="M226.123 259.135C226.123 259.135 238.855 286.256 224.246 288.805C224.246 288.805 210.182 292.79 210.738 262.564L226.123 259.135Z" fill="white"/>
<path d="M222.659 289.28C221.315 289.28 219.299 288.944 217.283 287.391C211.34 282.815 210.286 271.369 210.448 262.564V262.332L226.285 258.799L226.378 259.007C226.714 259.726 234.568 276.663 230.27 284.923C229.088 287.206 227.073 288.608 224.281 289.094C224.246 289.106 223.62 289.28 222.659 289.28ZM211.027 262.807C210.784 278.343 214.48 284.506 217.642 286.939C220.875 289.43 224.142 288.55 224.176 288.538C226.806 288.075 228.683 286.777 229.784 284.669C233.699 277.15 226.876 261.487 225.972 259.482L211.027 262.807Z" fill="#001133"/>
<path d="M205.906 256.459C205.906 256.459 206.81 265.669 219.113 263.016C219.113 263.016 231.035 259.61 225.358 253.551" fill="white"/>
<path d="M214.978 263.792C212.533 263.792 210.506 263.213 208.907 262.043C205.976 259.911 205.628 256.632 205.617 256.493L206.196 256.435C206.196 256.47 206.544 259.61 209.254 261.579C211.548 263.259 214.85 263.641 219.044 262.738C219.09 262.726 225.578 260.838 226.493 257.524C226.818 256.331 226.366 255.068 225.138 253.759L225.566 253.365C226.933 254.825 227.443 256.285 227.049 257.687C226.053 261.313 219.473 263.224 219.183 263.305C217.677 263.63 216.264 263.792 214.978 263.792Z" fill="#001133"/>
<path d="M233.641 239.625C233.375 239.475 233.131 239.289 232.9 239.069C231.336 237.552 230.478 235.316 230.258 233.196C229.992 230.589 230.606 227.959 231.59 225.549C232.309 223.788 233.247 222.108 234.278 220.51C234.892 219.56 235.553 218.644 236.236 217.741C236.954 216.791 237.777 215.435 238.75 214.763C239.04 216.582 238.82 218.552 238.982 220.394C239.144 222.282 239.445 224.159 240.025 225.966C240.453 227.322 241.032 228.631 241.345 230.01C241.994 232.894 241.542 237.447 238.889 239.289C237.87 239.996 236.422 240.193 235.217 240.089C234.649 240.054 234.116 239.903 233.641 239.625Z" fill="#FF6100"/>
<path d="M235.194 241.56C235.101 242.568 230.687 242.95 230.154 243.008C225.717 243.472 221.245 243.147 216.843 242.579C214.63 242.301 212.429 241.954 210.228 241.63C207.586 241.236 204.794 240.344 202.767 242.707C201.631 244.039 201.226 245.904 201.458 247.631C202.593 256.459 213.68 259.297 221.002 257.397C228.22 255.532 234.452 249.16 235.194 241.56Z" fill="#FF6100"/>
<path d="M142.848 274.346C142.848 274.346 153.68 301.583 162.311 300.228C162.311 300.228 167.721 302.429 194.622 267.407C194.622 267.407 199.024 260.467 207.655 262.159C207.655 262.159 224.408 262.831 223.052 256.91C223.052 256.91 212.904 258.776 205.118 255.219C205.118 255.219 214.931 252.856 207.319 251.662C207.319 251.662 198.353 248.789 195.306 253.528C195.306 253.528 189.386 259.448 185.157 260.803C185.157 260.803 163.666 272.307 163.33 277.382L160.017 266.457L142.848 274.346Z" fill="white"/>
<path d="M161.674 300.575C153.054 300.575 143.01 275.551 142.57 274.462L142.465 274.207L142.72 274.091L160.179 266.074L163.296 276.374C165.81 270.882 184.161 261.012 184.995 260.56C189.154 259.228 195.016 253.389 195.074 253.331C198.167 248.511 207.007 251.28 207.377 251.396C209.474 251.72 210.447 252.172 210.471 252.832C210.517 253.898 207.655 254.837 205.975 255.289C213.483 258.312 222.867 256.644 222.959 256.621L223.237 256.574L223.295 256.841C223.515 257.791 223.319 258.648 222.705 259.378C219.785 262.888 208.096 262.46 207.597 262.437C199.233 260.803 194.865 267.476 194.819 267.546C180.893 285.677 172.83 293.659 168.509 297.158C164.292 300.587 162.658 300.587 162.241 300.506C162.079 300.564 161.882 300.575 161.674 300.575ZM143.218 274.497C144.342 277.254 154.41 301.189 162.253 299.95L162.334 299.938L162.403 299.973C162.45 299.973 168.335 301.154 194.379 267.244C194.413 267.198 198.978 260.189 207.69 261.892C207.783 261.892 219.542 262.321 222.276 259.031C222.716 258.509 222.878 257.93 222.797 257.258C221.083 257.524 212.023 258.718 204.979 255.497L204.215 255.15L205.025 254.953C207.644 254.327 209.914 253.354 209.903 252.867C209.903 252.844 209.857 252.369 207.25 251.964C207.122 251.929 198.41 249.195 195.526 253.69C195.248 253.979 189.467 259.726 185.215 261.081C185.053 261.174 163.91 272.551 163.585 277.405L163.481 278.992L159.808 266.874L143.218 274.497Z" fill="#001133"/>
<path d="M230.687 244.306C225.601 246.287 219.959 245.487 214.711 244.491C212.22 244.016 205.698 241.143 204.145 244.468C203.902 245.001 203.983 245.626 204.192 246.182C205.304 249.264 209.671 250.087 212.521 250.492C217.572 251.21 222.751 250.11 227.014 247.283C227.675 246.843 228.312 246.379 228.914 245.881C229.401 245.511 230.142 244.491 230.687 244.306Z" fill="white"/>
<path d="M217.036 56.5683L214.035 14.5951C214.035 13.1701 215.194 12 216.63 12C218.055 12 219.225 13.1585 219.225 14.5951L217.105 56.5104" fill="#FF6100"/>
<path d="M202.727 64.4694L170.428 37.499C169.397 36.5027 169.374 34.8692 170.358 33.8381C171.355 32.807 172.988 32.7838 174.019 33.7686L202.727 64.3883" fill="#FF6100"/>
<path d="M232.583 63.2876L262.287 33.4789C263.364 32.5405 264.998 32.6563 265.936 33.7337C266.875 34.8112 266.759 36.4447 265.681 37.3831L232.675 63.2876" fill="#FF6100"/>
<path d="M238.445 80.5035L280.464 78.2212C281.889 78.2444 283.036 79.4261 283.013 80.851C282.99 82.276 281.808 83.423 280.383 83.3998L238.514 80.5614" fill="#FF6100"/>
<path d="M234.483 97.2556L266.168 124.956C267.176 125.975 267.165 127.609 266.157 128.617C265.137 129.625 263.504 129.613 262.496 128.605L234.483 97.3483" fill="#FF6100"/>
<path d="M218.252 103.431L220.65 145.45C220.627 146.875 219.457 148.022 218.02 147.999C216.595 147.976 215.448 146.806 215.472 145.369L218.182 103.488" fill="#FF6100"/>
<path d="M195.568 80.4803L153.584 83.4114C152.159 83.4114 151 82.2529 151 80.8279C151 79.4029 152.159 78.2444 153.595 78.2444L195.51 80.434" fill="#FF6100"/>
<path d="M203.11 95.3556L176.487 127.945C175.502 128.987 173.869 129.034 172.826 128.049C171.783 127.064 171.737 125.431 172.722 124.388L203.017 95.3556" fill="#FF6100"/>
<path d="M224.635 56.6263L227.416 38.5186C227.555 37.9161 228.157 37.5338 228.771 37.6729C229.374 37.8119 229.756 38.4143 229.617 39.0283L224.67 56.6263" fill="#FF6100"/>
<path d="M208.208 59.0243L197.294 44.2995C196.958 43.7782 197.121 43.0715 197.642 42.7471C198.163 42.4111 198.87 42.5733 199.194 43.0947L208.208 58.9896" fill="#FF6100"/>
<path d="M238.422 69.3237L253.263 58.5726C253.795 58.2483 254.491 58.4105 254.815 58.9318C255.139 59.4647 254.977 60.1598 254.456 60.4842L238.468 69.3237" fill="#FF6100"/>
<path d="M198.128 74.6065L179.974 72.1389C179.36 72.0114 178.978 71.409 179.106 70.8066C179.233 70.1926 179.835 69.8102 180.438 69.9377L198.117 74.5833" fill="#FF6100"/>
<path d="M197.514 91.4283L182.257 101.577C181.712 101.89 181.029 101.693 180.716 101.148C180.403 100.604 180.6 99.9203 181.145 99.6075L197.48 91.4167" fill="#FF6100"/>
<path d="M238.584 86.8057L256.703 89.5398C257.306 89.6788 257.688 90.2812 257.561 90.8837C257.422 91.4861 256.819 91.8684 256.217 91.741L238.607 86.8404" fill="#FF6100"/>
<path d="M229.455 101.82L239.986 116.823C240.31 117.356 240.137 118.051 239.604 118.375C239.071 118.7 238.376 118.526 238.051 117.993L229.455 101.867" fill="#FF6100"/>
<path d="M211.405 100.036L210.223 118.317C210.142 118.931 209.575 119.372 208.949 119.279C208.335 119.198 207.895 118.63 207.987 118.005L211.382 100.048" fill="#FF6100"/>
<path d="M373.019 117.977L378.672 97.8538C378.915 97.1819 379.645 96.8343 380.317 97.0776C380.989 97.3209 381.337 98.0508 381.093 98.7227L373.065 117.954" fill="#FF6100"/>
<path d="M365.002 119.275L354.436 101.237C354.123 100.6 354.378 99.8234 355.015 99.5106C355.653 99.1978 356.429 99.4527 356.742 100.09L365.013 119.217" fill="#FF6100"/>
<path d="M379.159 123.735L398.055 114.803C398.715 114.548 399.456 114.872 399.723 115.533C399.978 116.193 399.653 116.935 398.993 117.201L379.206 123.758" fill="#FF6100"/>
<path d="M378.997 132.76L399.016 138.761C399.676 139.016 400.012 139.757 399.757 140.418C399.502 141.078 398.761 141.414 398.101 141.159L379.008 132.795" fill="#FF6100"/>
<path d="M374.34 139.931L384.488 158.201C384.789 158.85 384.511 159.615 383.863 159.916C383.214 160.217 382.449 159.939 382.148 159.29L374.316 139.978" fill="#FF6100"/>
<path d="M365.708 140.082L359.765 160.124C359.51 160.785 358.769 161.121 358.109 160.877C357.448 160.622 357.112 159.881 357.356 159.221L365.662 140.105" fill="#FF6100"/>
<path d="M358.966 125.554L338.854 119.866C338.182 119.622 337.834 118.892 338.078 118.221C338.321 117.549 339.051 117.201 339.723 117.444L358.943 125.508" fill="#FF6100"/>
<path d="M359.997 133.768L342.075 144.519C341.437 144.844 340.673 144.589 340.348 143.951C340.024 143.314 340.279 142.55 340.916 142.225L359.951 133.756" fill="#FF6100"/>
<path d="M376.563 119.286L380.908 111.293C381.07 111.038 381.418 110.957 381.684 111.119C381.939 111.281 382.02 111.629 381.858 111.895L376.587 119.286" fill="#FF6100"/>
<path d="M368.477 117.641L365.859 108.929C365.79 108.628 365.987 108.327 366.288 108.257C366.589 108.188 366.89 108.385 366.96 108.686L368.501 117.63" fill="#FF6100"/>
<path d="M380.874 127.535L389.609 125.01C389.91 124.94 390.211 125.137 390.269 125.438C390.339 125.739 390.142 126.041 389.84 126.099L380.885 127.547" fill="#FF6100"/>
<path d="M361.155 123.237L353.08 119.032C352.814 118.869 352.733 118.522 352.895 118.255C353.057 117.989 353.405 117.908 353.671 118.07L361.155 123.214" fill="#FF6100"/>
<path d="M358.039 130.988L349.199 133.166C348.898 133.223 348.609 133.015 348.551 132.714C348.493 132.413 348.701 132.123 349.003 132.065L358.016 130.976" fill="#FF6100"/>
<path d="M378.012 135.738L386.017 140.059C386.284 140.221 386.353 140.569 386.191 140.835C386.029 141.102 385.681 141.171 385.415 141.009L378.012 135.761" fill="#FF6100"/>
<path d="M371.223 141.217L373.621 149.999C373.679 150.3 373.482 150.601 373.181 150.659C372.88 150.717 372.578 150.52 372.521 150.219L371.211 141.24" fill="#FF6100"/>
<path d="M363.09 137.348L359.464 145.689C359.325 145.967 358.977 146.072 358.711 145.921C358.433 145.782 358.329 145.434 358.479 145.168L363.078 137.348" fill="#FF6100"/>
<path d="M190.59 190.736C191.16 190.736 191.621 190.274 191.621 189.705C191.621 189.135 191.16 188.674 190.59 188.674C190.021 188.674 189.559 189.135 189.559 189.705C189.559 190.274 190.021 190.736 190.59 190.736Z" fill="#001133"/>
<path d="M357.417 191.697C357.987 191.697 358.448 191.236 358.448 190.666C358.448 190.097 357.987 189.635 357.417 189.635C356.848 189.635 356.386 190.097 356.386 190.666C356.386 191.236 356.848 191.697 357.417 191.697Z" fill="#001133"/>
<path d="M204.864 193.03C205.327 194.524 209.44 217.521 196.244 227.866L195.109 227.832L193.498 218.065C193.348 217.173 193.858 216.281 194.715 215.991C197.959 214.926 205.176 210.616 203.369 193.644" fill="#001133"/>
<path d="M285.752 485.162C283.632 485.162 281.477 485.035 279.31 484.78C273.356 484.085 268.722 483.089 264.053 480.25C260.6 478.153 257.611 474.713 255.653 470.577C255.271 469.766 254.924 468.932 254.645 468.121C254.043 466.383 253.591 464.494 253.313 462.525L253.244 462.015L253.719 462.224C253.985 462.34 281.361 474.029 317.484 461.888C317.495 461.888 317.507 461.888 317.507 461.876L317.6 462.154L317.854 462.282C317.796 462.455 317.657 463.741 317.576 464.425C317.507 465.05 317.484 465.294 317.461 465.375C316.904 467.958 315.908 470.38 314.529 472.604C312.618 475.663 309.872 478.292 306.605 480.192C301.021 483.436 293.653 485.162 285.752 485.162ZM253.95 462.942C254.228 464.691 254.645 466.371 255.19 467.924C255.468 468.723 255.804 469.534 256.175 470.322C258.098 474.365 260.994 477.713 264.354 479.752C268.942 482.533 273.506 483.517 279.38 484.201C289.378 485.359 299.445 483.668 306.304 479.671C309.49 477.817 312.154 475.257 314.031 472.28C315.387 470.125 316.348 467.75 316.893 465.236C316.904 465.155 316.951 464.796 316.997 464.344C317.09 463.486 317.159 462.93 317.206 462.571C283.701 473.693 257.75 464.436 253.95 462.942Z" fill="#001133"/>
<path d="M253.66 462.768L253.51 462.212C253.857 462.119 288.416 453.06 317.669 461.876L317.506 462.432C288.416 453.662 254.008 462.676 253.66 462.768Z" fill="#001133"/>
<path d="M284.049 464.703C281.199 464.413 279.693 461.888 279.334 459.269C278.893 456.107 280.017 453.847 281.442 451.148C282.554 449.04 283.354 446.78 283.887 444.463C284.049 443.757 284.883 441.301 284.524 440.687C284.524 440.687 289.401 448.924 291.139 453.094C291.127 453.106 296.584 465.977 284.049 464.703Z" fill="#FF6100"/>
</svg>
