<svg width="544" height="505" viewBox="0 0 544 505" fill="none" xmlns="http://www.w3.org/2000/svg">
<rect width="544" height="512" fill="white"/>
<path fill-rule="evenodd" clip-rule="evenodd" d="M341.998 51.1255C403.858 66.5834 440.704 115.011 465.613 161.778C487.814 203.465 496.699 251.104 467.22 286.29C440.66 317.997 379.036 306.419 332.974 320.103C256.533 342.816 189.509 430.105 118.161 389.987C48.1523 350.618 125.76 272.036 135.729 209.171C142.642 165.59 127.167 116.854 166.201 86.9348C210.549 52.9667 278.294 35.2086 341.998 51.1255Z" fill="#FF6100" fill-opacity="0.15"/>
<path d="M371.011 407.614C370.616 404.432 367.72 402.16 364.527 402.522L327.419 406.835C326.256 406.966 325.4 407.976 325.455 409.15L325.685 414.23C325.729 415.217 326.432 416.062 327.397 416.293L350.066 421.669C369.036 424.16 365.405 419.804 368.85 412.836L370.803 408.875C370.989 408.48 371.066 408.041 371.011 407.614Z" fill="white"/>
<path d="M358.679 422.623C356.473 422.623 353.654 422.404 350.022 421.921L327.331 416.545C326.256 416.292 325.466 415.338 325.411 414.23L325.181 409.15C325.126 407.844 326.092 406.703 327.386 406.549L364.494 402.237C367.83 401.842 370.869 404.245 371.275 407.559C371.33 408.041 371.253 408.535 371.033 408.974L369.08 412.935C368.4 414.318 367.994 415.612 367.632 416.753C366.535 420.308 365.811 422.623 358.679 422.623ZM365.207 402.764C364.999 402.764 364.779 402.775 364.571 402.797L327.463 407.109C326.454 407.23 325.697 408.118 325.74 409.139L325.971 414.219C326.015 415.086 326.629 415.832 327.474 416.029L350.142 421.406C365.032 423.359 365.734 421.109 367.138 416.622C367.5 415.459 367.917 414.142 368.62 412.727L370.573 408.766C370.737 408.425 370.803 408.041 370.759 407.657C370.386 404.838 367.972 402.764 365.207 402.764Z" fill="#001133"/>
<path d="M317.928 413.286L332.422 418.41L330.414 432.904L283.816 443.832L283.146 441.825L317.928 413.286Z" fill="white"/>
<path d="M283.64 444.151L282.828 441.726L282.971 441.605L317.873 412.968L318.016 413.023L332.719 418.224L332.686 418.443L330.656 433.124L283.64 444.151ZM283.465 441.912L283.991 443.503L330.162 432.674L332.115 418.586L317.983 413.582L283.465 441.912Z" fill="#001133"/>
<path d="M283.816 443.832L284.485 446.51L329.745 435.801L330.414 432.904L283.816 443.832Z" fill="white"/>
<path d="M284.288 446.839L283.487 443.635L283.761 443.569L330.788 432.542L329.976 436.031L329.811 436.075L284.288 446.839ZM284.156 444.03L284.694 446.17L329.526 435.57L330.063 433.266L284.156 444.03Z" fill="#001133"/>
<path d="M319.047 413.506L319.936 401.689L334.913 407.767L331.303 417.741L319.047 413.506Z" fill="white"/>
<path d="M331.479 418.092L318.762 413.703L319.695 401.305L335.264 407.624L331.479 418.092ZM319.333 413.319L331.139 417.401L334.562 407.932L320.177 402.084L319.333 413.319Z" fill="#001133"/>
<path d="M453.851 260.532C453.851 260.532 492.901 262.046 492.594 318.882C492.594 318.882 497.816 388.917 511.949 406.121L499.353 414.416L473.853 367.73L453.851 260.532Z" fill="white"/>
<path d="M499.254 414.811L499.111 414.548L473.59 367.774L453.522 260.247L453.862 260.258C453.961 260.258 463.825 260.729 473.502 268.18C482.423 275.048 493.022 289.411 492.868 318.882C492.879 319.035 494.207 336.591 497.246 356.012C501.262 381.686 506.419 398.956 512.157 405.946L512.355 406.176L512.102 406.341L499.254 414.811ZM474.117 367.631L499.451 414.021L511.543 406.055C505.738 398.748 500.735 381.95 496.697 356.088C493.658 336.646 492.33 319.068 492.319 318.893C492.407 302.742 489.159 280.929 473.195 268.629C464.67 262.057 456.002 260.982 454.18 260.828L474.117 367.631Z" fill="#001133"/>
<path d="M404.312 257.811L444.854 258.776L450.022 302.018L420.605 308.579L411.049 303.521L401.69 258.557L404.312 257.811Z" fill="white"/>
<path d="M420.573 308.864L420.485 308.82L410.818 303.696L410.796 303.565L401.382 258.359L404.29 257.526H404.334L445.117 258.502L445.15 258.744L450.34 302.226L450.099 302.281L420.573 308.864ZM411.29 303.334L420.638 308.283L449.715 301.798L444.613 259.04L404.345 258.074L402.008 258.744L411.29 303.334Z" fill="#001133"/>
<path d="M396.818 257.076L400.987 301.941C400.987 301.941 407.044 333.815 398.167 344.304C398.167 344.304 377.189 295.489 366.293 296.696C366.293 296.696 338.051 278.537 317.072 401.184L333.366 407.559C334.639 408.052 336.076 407.482 336.658 406.242L360.237 356.001C360.237 356.001 365.481 387.875 395.743 404.004L369.563 407.635C367.807 407.877 366.337 409.095 365.778 410.773L363.726 416.929C363.078 418.871 363.77 421 365.437 422.195C375.301 429.218 409.513 451.019 436.482 436.679C436.482 436.679 471.856 416.007 473.996 370.923C476.618 315.711 453.84 260.532 453.84 260.532L444.843 258.776L447.575 301.403L416.875 303.554L403.972 257.207L401.02 256.867L396.818 257.076Z" fill="white"/>
<path d="M416.392 441.737C394.503 441.737 372.8 427.791 365.273 422.426C363.506 421.164 362.771 418.926 363.462 416.852L365.514 410.697C366.107 408.908 367.643 407.625 369.519 407.372L394.876 403.85C368.18 389.18 361.224 361.958 360.138 356.878L336.921 406.363C336.285 407.723 334.683 408.36 333.278 407.811L316.776 401.348L316.82 401.129C330.074 323.633 346.159 301.513 357.318 296.597C362.398 294.359 365.789 296.071 366.37 296.411C366.48 296.4 366.59 296.4 366.699 296.4C377.331 296.4 396.072 338.774 398.244 343.778C406.528 333.168 400.79 302.314 400.724 301.996L396.533 256.823L401.031 256.593L404.213 256.955L404.268 257.131L417.116 303.258L447.323 301.14L444.579 258.436L454.07 260.291L454.125 260.422C454.356 260.971 476.892 316.292 474.292 370.934C472.163 415.645 436.998 436.701 436.636 436.909C430.151 440.365 423.261 441.737 416.392 441.737ZM360.368 355.09L360.511 355.957C360.566 356.275 366.085 387.886 395.874 403.762L396.62 404.157L369.607 407.91C367.939 408.14 366.579 409.27 366.052 410.872L364 417.028C363.386 418.871 364.033 420.857 365.602 421.987C375.422 428.987 409.545 450.701 436.361 436.448C436.702 436.251 471.626 415.327 473.732 370.923C476.256 317.73 454.904 263.879 453.653 260.784L445.15 259.117L447.882 301.656L447.608 301.678L416.688 303.85L403.774 257.471L400.998 257.153L397.114 257.35L401.251 301.93C401.492 303.214 407.219 334.023 398.365 344.491L398.08 344.831L397.904 344.425C397.696 343.942 377.386 296.97 366.699 296.97C366.568 296.97 366.436 296.981 366.315 296.992L366.216 297.003L366.129 296.949C366.096 296.927 362.694 294.82 357.483 297.135C336.493 306.428 323.359 366.117 317.369 401.03L333.454 407.328C334.584 407.767 335.879 407.251 336.394 406.154L360.368 355.09Z" fill="#001133"/>
<path d="M401.086 302.347L279.921 215.217L289.916 204.256L397.015 257.372L401.086 302.347Z" fill="white"/>
<path d="M401.415 302.917L400.932 302.566L279.515 215.261L289.85 203.916L290.037 204.004L397.279 257.186L401.415 302.917ZM280.327 215.173L400.757 301.765L396.752 257.548L289.971 204.596L280.327 215.173Z" fill="#001133"/>
<path d="M400.548 215.887C400.548 215.887 381.182 228.362 397.531 259.775L419.047 255.474L414.746 228.362L412.168 213.736L400.548 215.887Z" fill="#001133"/>
<path d="M409.622 258.019L416.601 248.55C416.601 248.55 387.228 252.687 401.887 218.377L402.973 206.604L438.161 214.35L441.705 233.968L433.081 246.455L441.398 260.839C441.387 260.839 415.492 268.959 409.622 258.019Z" fill="white"/>
<path d="M423.502 264.01C416.304 264.01 411.455 262.013 409.381 258.151C409.337 258.063 409.337 257.943 409.403 257.855L416.008 248.891C414.999 248.978 412.87 249.088 410.379 248.759C405.837 248.155 402.304 246.356 400.153 243.547C396.192 238.368 396.675 229.887 401.613 218.322L402.688 206.593C402.699 206.516 402.732 206.439 402.798 206.396C402.863 206.352 402.94 206.33 403.017 206.352L438.205 214.098C438.314 214.12 438.391 214.208 438.413 214.317L441.957 233.936C441.968 234.012 441.957 234.078 441.913 234.144L433.388 246.488L441.617 260.719C441.661 260.795 441.661 260.872 441.639 260.96C441.606 261.037 441.54 261.092 441.463 261.125C441.398 261.146 434.88 263.176 427.726 263.835C426.245 263.944 424.83 264.01 423.502 264.01ZM409.951 258.041C412.98 263.418 421.253 263.846 427.671 263.264C433.86 262.694 439.565 261.092 440.97 260.675L432.828 246.586C432.773 246.499 432.784 246.378 432.839 246.29L441.398 233.892L437.897 214.57L403.193 206.933L402.139 218.399C402.139 218.432 402.128 218.454 402.117 218.487C397.257 229.876 396.73 238.193 400.57 243.207C405.563 249.735 416.436 248.298 416.546 248.276C416.655 248.276 416.765 248.309 416.82 248.408C416.875 248.507 416.875 248.627 416.809 248.715L409.951 258.041Z" fill="#001133"/>
<path d="M401.887 218.388C401.887 218.388 390.267 195.906 415.383 195.709C422.964 195.643 430.283 199.077 437.854 199.615C441.178 199.856 444.974 198.441 448.113 197.168C453.335 195.039 456.001 196.806 461.795 199.297C464.406 200.427 468.224 202.95 470.177 205.024C477.573 212.891 482.104 224.105 479.427 234.89C476.827 245.336 483.114 245.753 486.449 254.651C487.887 258.48 487.656 263.154 485.001 266.27C483.399 268.147 481.095 269.299 478.725 269.979C459.271 275.608 421.505 259.106 431.841 234.001C432.741 231.829 433.958 229.196 432.532 227.319C430.239 224.324 417.456 226.924 413.572 226.453C406.298 225.597 405.146 223.71 401.887 218.388Z" fill="#001133"/>
<path d="M360.489 356.121L359.995 355.88L366.666 342.121L367.16 342.362L360.489 356.121Z" fill="#001133"/>
<path d="M395.743 404.004C395.743 404.004 424.885 398.803 429.438 385.132L395.743 404.004Z" fill="white"/>
<path d="M395.786 404.278L395.688 403.74C395.973 403.685 424.72 398.408 429.175 385.055L429.69 385.23C425.148 398.891 396.982 404.069 395.786 404.278Z" fill="#001133"/>
<path d="M447.136 336.733L421.538 338.577L416.93 318.761L449.111 316.918L447.136 336.733Z" fill="white"/>
<path d="M421.33 338.873L421.275 338.643L416.59 318.498L416.919 318.476L449.418 316.611L449.385 316.929L447.399 336.986L447.169 336.997L421.33 338.873ZM417.27 319.013L421.758 338.291L446.895 336.481L448.804 317.203L417.27 319.013Z" fill="#001133"/>
<path d="M247.41 126.321H201.645L201.239 172.316L247.322 169.035L247.41 126.321Z" fill="#FF6100"/>
<path d="M78.7357 198.243C80.6229 192.757 83.1355 187.545 85.6371 182.312C98.2551 155.869 109.655 128.811 118.96 101.03C121.362 93.8651 123.436 85.3837 119.025 79.2503C116.249 75.399 111.191 73.446 106.495 74.1372C102.589 74.7188 99.1329 76.9132 95.929 79.2393C85.3848 86.8869 77.1337 96.4436 69.0034 106.505C61.3009 116.029 56.4951 127.418 51.2066 138.357C48.6501 143.646 45.9619 148.89 42.78 153.839C37.9851 161.267 31.9395 168.322 30.2717 177.012C29.4269 181.423 29.778 185.998 28.8892 190.398C27.9237 195.204 25.5098 199.571 23.2496 203.927C17.2807 215.404 12.047 227.594 11.0815 240.497C10.8181 244.063 11.0705 248.09 13.7038 250.492C16.3591 252.917 20.3968 252.786 23.9737 252.478C29.6134 251.985 35.3079 251.403 40.6953 249.68C56.0453 244.776 67.3685 231.05 73.0192 215.952C75.1149 210.367 76.6071 204.585 78.4943 198.923C78.582 198.704 78.6589 198.474 78.7357 198.243Z" fill="#001133"/>
<path d="M86.8221 145.182L109.052 168.651L75.7073 196.444L55.9355 188.412L86.8221 145.182Z" fill="white"/>
<path d="M75.7512 196.762L75.5976 196.696L55.5076 188.533L55.7051 188.248L86.7782 144.743L109.447 168.662L109.227 168.849L75.7512 196.762ZM56.3634 188.291L75.6525 196.126L108.657 168.629L86.855 145.61L56.3634 188.291Z" fill="#001133"/>
<path d="M116.831 171.328L109.052 168.651L82.5979 190.628C82.5979 190.628 116.403 217.444 194.536 191.824C194.536 191.824 242.747 179.678 247.893 168.98C248.31 168.103 247.608 167.104 246.642 167.181C240.662 167.609 219.914 169.167 202.216 171.328C202.216 171.328 212.892 153.817 196.236 164.065L184.705 173.885C184.716 173.885 124.402 175.048 116.831 171.328Z" fill="white"/>
<path d="M132.115 203.17C124.446 203.17 116.754 202.555 109.227 201.107C91.1561 197.629 82.5211 190.914 82.4443 190.848L82.1809 190.639L82.4443 190.42L109.019 168.344L116.974 171.087C124.259 174.675 181.874 173.677 184.639 173.622L196.094 163.867C201.097 160.784 204.103 159.896 205.332 161.113C207.208 162.979 203.873 169.101 202.776 170.999C220.342 168.871 240.761 167.335 246.653 166.918C247.213 166.874 247.74 167.126 248.058 167.598C248.365 168.059 248.409 168.618 248.178 169.112C243.033 179.799 196.609 191.605 194.645 192.099C177.88 197.574 155.157 203.17 132.115 203.17ZM83.0477 190.618C84.6387 191.759 93.186 197.464 109.37 200.569C139.423 206.33 172.229 198.847 194.459 191.561C194.964 191.429 242.627 179.316 247.652 168.86C247.805 168.542 247.772 168.179 247.575 167.894C247.366 167.587 247.048 167.444 246.664 167.455C240.717 167.883 219.925 169.441 202.26 171.603L201.7 171.669L201.997 171.186C203.324 169.002 206.44 163.012 204.926 161.497C204.235 160.817 202.194 160.74 196.401 164.306L184.836 174.17H184.738C182.269 174.214 124.347 175.289 116.732 171.592L109.118 168.969L83.0477 190.618Z" fill="#001133"/>
<path d="M249.89 118.037H198.431V127.857H249.89V118.037Z" fill="#FF6100"/>
<path d="M221.746 118.3L220.627 117.719C220.935 117.104 228.374 102.687 236.263 99.6037C238.007 98.9234 239.938 99.0002 241.661 99.8121C243.482 100.668 244.887 102.248 245.512 104.157C246.554 107.328 246.247 110.192 244.623 112.441C241.683 116.523 234.507 118.607 223.305 118.629V117.368C234.079 117.346 240.904 115.447 243.603 111.706C244.996 109.775 245.238 107.372 244.316 104.563C243.8 102.983 242.637 101.677 241.134 100.964C239.719 100.306 238.15 100.24 236.734 100.789C229.284 103.707 221.823 118.158 221.746 118.3Z" fill="#001133"/>
<path d="M213.879 116.709C210.5 115.403 208.766 113.758 207.9 112.331C206.44 109.95 206.989 107.756 207.45 106.67C208.031 105.287 209.161 104.179 210.566 103.652C211.904 103.137 213.353 103.191 214.615 103.806C220.188 106.505 224.775 117.225 224.961 117.686L224.588 117.839L224.511 118.838C219.826 118.465 216.392 117.675 213.879 116.709ZM213.759 104.815C212.881 104.475 211.915 104.475 210.994 104.826C209.919 105.232 209.041 106.077 208.602 107.152C208.24 108.019 207.801 109.775 208.964 111.673C210.281 113.834 213.879 116.545 223.469 117.477C222.35 115.052 218.422 107.054 214.044 104.947C213.956 104.892 213.858 104.848 213.759 104.815Z" fill="#001133"/>
<path d="M227.112 118.223H220.935V168.662H227.112V118.223Z" fill="white"/>
<path d="M247.377 127.747H201.591V129.382H247.377V127.747Z" fill="#001133"/>
<path d="M278.56 353.334H181.95L181.095 432.049L278.374 432.235L278.56 353.334Z" fill="white"/>
<path d="M278.648 432.498H278.374L180.809 432.323V432.048L181.665 353.06H278.813V353.334L278.648 432.498ZM181.369 431.774L278.099 431.95L278.275 353.598H182.214L181.369 431.774Z" fill="#001133"/>
<path d="M283.816 339.169H175.17V355.979H283.816V339.169Z" fill="white"/>
<path d="M284.079 356.253H174.885V338.884H284.079V356.253ZM175.444 355.704H283.542V339.433H175.444V355.704Z" fill="#001133"/>
<path d="M227.737 338.39L225.817 337.403C226.355 336.36 239.071 311.684 252.567 306.396C255.552 305.233 258.854 305.353 261.795 306.747C264.9 308.206 267.303 310.916 268.378 314.186C270.167 319.606 269.64 324.511 266.864 328.362C261.828 335.351 249.55 338.906 230.371 338.95V336.788C248.815 336.755 260.5 333.497 265.108 327.1C267.5 323.786 267.906 319.672 266.326 314.866C265.438 312.167 263.452 309.918 260.873 308.711C258.448 307.592 255.771 307.471 253.346 308.414C240.629 313.407 227.869 338.138 227.737 338.39Z" fill="#001133"/>
<path d="M214.263 335.658C208.47 333.42 205.518 330.611 204.026 328.164C201.536 324.094 202.468 320.341 203.247 318.465C204.235 316.095 206.177 314.208 208.58 313.308C210.884 312.43 213.342 312.507 215.503 313.571C225.049 318.18 232.894 336.547 233.223 337.326L232.587 337.589L232.455 339.29C224.434 338.654 218.564 337.315 214.263 335.658ZM214.066 315.305C212.563 314.723 210.906 314.734 209.348 315.327C207.504 316.029 206.012 317.477 205.244 319.299C204.619 320.791 203.873 323.775 205.87 327.034C208.13 330.732 214.274 335.373 230.689 336.964C228.779 332.816 222.043 319.134 214.56 315.513C214.395 315.437 214.23 315.36 214.066 315.305Z" fill="#001133"/>
<path d="M244.821 339.476H234.244V425.805H244.821V339.476Z" fill="white"/>
<path d="M75.7072 196.444L86.4599 192.724L82.5977 190.629L75.7072 196.444Z" fill="#001133"/>
<path d="M109.458 169.167L84.079 191.495L82.5978 190.628L109.052 168.651L109.458 169.167Z" fill="#001133"/>
<path d="M282.532 198.748L277.123 188.225C272.997 181.269 271.33 181.357 270.836 181.554C270.342 181.752 272.975 188.664 272.975 188.664C272.975 188.664 268.17 183.771 262.947 180.885C257.724 177.999 268.543 190.53 268.543 190.53C264.077 187.084 257.461 183.595 257.461 183.595C252.918 184.429 264.593 194.315 264.593 194.315C252.425 188.434 254.015 192.757 254.015 192.757L267.665 202.917L264.165 202.391C263.221 202.248 262.212 202.533 261.597 203.268C259.908 205.276 264.231 206.681 264.231 206.681L272.515 210.29C274.04 210.96 275.696 211.069 277.353 211.08C278.615 211.091 280.788 212.309 281.676 212.913L289.093 205.452L282.532 198.748Z" fill="white"/>
<path d="M281.687 213.176C281.632 213.176 281.577 213.165 281.534 213.132C280.502 212.419 278.461 211.355 277.375 211.344C275.74 211.333 274.007 211.223 272.427 210.532L264.154 206.922C264.066 206.9 261.422 206.022 261.016 204.585C260.873 204.08 261.005 203.576 261.422 203.082C262.069 202.314 263.144 201.941 264.242 202.116L266.655 202.478L253.884 192.976C253.84 192.944 253.807 192.9 253.796 192.856C253.785 192.823 253.478 191.967 254.103 191.396C255.157 190.442 258.152 191.067 262.991 193.262C260.445 190.958 255.672 186.316 256.21 184.287C256.342 183.782 256.759 183.464 257.439 183.332C257.494 183.321 257.559 183.332 257.614 183.365C257.669 183.398 262.651 186.031 266.864 188.961C264.252 185.834 260.687 181.258 261.389 180.391C261.718 179.985 262.442 180.304 263.1 180.666C266.985 182.816 270.671 186.097 272.306 187.644C270.057 181.609 270.485 181.434 270.748 181.335C271.703 180.962 273.634 181.818 277.375 188.116L282.773 198.616L289.324 205.276C289.434 205.386 289.423 205.551 289.324 205.66L281.907 213.121C281.83 213.154 281.753 213.176 281.687 213.176ZM263.704 202.621C262.958 202.621 262.256 202.917 261.817 203.433C261.531 203.773 261.433 204.102 261.52 204.431C261.795 205.397 263.638 206.187 264.329 206.406L272.635 210.027C274.127 210.675 275.795 210.784 277.375 210.795C278.703 210.806 280.787 211.991 281.654 212.551L288.72 205.441L282.335 198.945C282.313 198.923 282.302 198.901 282.291 198.879L276.881 188.357C273.184 182.114 271.516 181.73 271.044 181.785C271.055 182.476 272.141 185.691 273.239 188.566C273.283 188.686 273.239 188.829 273.129 188.895C273.019 188.972 272.877 188.95 272.789 188.851C272.745 188.807 267.95 183.946 262.826 181.116C261.992 180.655 261.795 180.721 261.784 180.721C261.553 181.379 265.218 186.24 268.762 190.332C268.85 190.442 268.85 190.596 268.751 190.694C268.652 190.793 268.499 190.804 268.389 190.727C264.263 187.545 258.229 184.287 257.439 183.859C256.835 183.99 256.759 184.287 256.737 184.396C256.221 186.305 262.376 192.044 264.79 194.085C264.9 194.172 264.922 194.326 264.845 194.447C264.768 194.556 264.615 194.6 264.494 194.545C256.802 190.826 254.915 191.375 254.465 191.781C254.18 192.033 254.235 192.417 254.279 192.581L267.851 202.687C267.95 202.764 267.983 202.895 267.939 203.016C267.895 203.137 267.775 203.203 267.643 203.181L264.143 202.654C263.989 202.632 263.847 202.621 263.704 202.621Z" fill="#001133"/>
<path d="M499.287 414.691L501.602 415.459L511.872 408.502L512.343 406.066L499.287 414.691Z" fill="#001133"/>
<path d="M501.657 414.504C501.657 414.504 509.502 432.257 526.048 429.382C526.048 429.382 529.021 426.749 519.41 424.752L535.451 426.409C537.338 426.606 539.258 426.453 541.047 425.816C543.57 424.917 545.71 423.128 540.674 419.848L513.528 413.758L510.994 407.35L501.657 414.504Z" fill="white"/>
<path d="M522.515 429.964C515.69 429.964 510.643 426.442 507.45 423.216C503.434 419.145 501.426 414.669 501.404 414.625L501.316 414.427L511.115 406.933L513.726 413.538L540.816 419.628C543.087 421.109 544.13 422.415 543.987 423.611C543.866 424.62 542.912 425.454 541.134 426.091C539.401 426.705 537.481 426.914 535.418 426.705L522.943 425.421C525.17 426.167 526.432 427.045 526.706 428.044C526.947 428.954 526.267 429.58 526.234 429.613L526.179 429.668L526.103 429.678C524.852 429.865 523.656 429.964 522.515 429.964ZM501.997 414.581C502.918 416.49 510.763 431.686 525.916 429.119C526.037 428.987 526.3 428.625 526.168 428.153C525.982 427.473 524.841 426.156 519.344 425.026L519.431 424.489L535.473 426.145C537.448 426.354 539.291 426.156 540.948 425.564C542.023 425.18 543.329 424.511 543.449 423.545C543.559 422.612 542.561 421.427 540.564 420.111L513.331 414.01L510.873 407.811L501.997 414.581Z" fill="#001133"/>
<path d="M541.716 425.531C541.694 425.531 541.672 425.531 541.65 425.52L527.836 422.261C527.694 422.228 527.595 422.075 527.628 421.932C527.661 421.789 527.803 421.691 527.957 421.724L541.771 424.982C541.913 425.015 542.012 425.169 541.979 425.312C541.957 425.454 541.837 425.531 541.716 425.531Z" fill="#001133"/>
<path d="M543.373 423.249C543.351 423.249 543.329 423.249 543.307 423.238L529.098 419.452C528.955 419.409 528.867 419.266 528.9 419.112C528.944 418.97 529.087 418.882 529.241 418.915L543.449 422.7C543.592 422.744 543.68 422.887 543.647 423.04C543.603 423.161 543.493 423.249 543.373 423.249Z" fill="#001133"/>
<path d="M247.846 168.714L222.45 174.403L222.57 174.939L247.966 169.249L247.846 168.714Z" fill="#001133"/>
<path d="M241.908 174.373L224.64 179.588L224.798 180.113L242.066 174.898L241.908 174.373Z" fill="#001133"/>
<path d="M235.308 338.95H224.029V432.037H235.308V338.95Z" fill="white"/>
<path d="M235.593 432.312H223.754V338.676H235.582V432.312H235.593ZM224.303 431.763H235.034V339.224H224.303V431.763Z" fill="#001133"/>
<path d="M278.407 355.781H181.94V360.938H278.407V355.781Z" fill="#001133"/>
</svg>
