<svg width="64" height="64" viewBox="0 0 64 64" fill="none" xmlns="http://www.w3.org/2000/svg">
<path d="M8 35.1293V44.0025H14.5194V36.2159C14.5194 32.7623 16.4401 30.528 21.1131 30.3713V23.8625C12.5269 24.006 8 28.4612 8 35.1293Z" fill="#FF6100"/>
<path d="M45.6764 23.573C39.6246 23.6075 35.2783 27.9564 35.2783 33.9339C35.2783 39.8369 38.902 43.7129 45.0228 44.2947L49.2974 41.0696L49.4435 41.1413V44.0025H56V33.9339C56 27.6642 51.8823 23.5358 45.6764 23.573ZM45.6764 37.9188C43.4289 37.9188 41.8004 36.2504 41.8004 33.9339C41.8004 31.6173 43.4289 29.9489 45.6764 29.9489C47.9239 29.9489 49.478 31.6146 49.478 33.9339C49.478 36.2531 47.8973 37.9188 45.6764 37.9188Z" fill="#FF6100"/>
<path d="M31.9442 23.8625H25.4248V44.0051H31.9442V23.8625Z" fill="#FF6100"/>
<path d="M28.6844 12.4299C27.8249 12.4305 26.9849 12.6853 26.2705 13.1622C25.5561 13.6391 24.9994 14.3166 24.6709 15.1092C24.3423 15.9017 24.2567 16.7737 24.4247 17.6148C24.5927 18.456 25.0068 19.2285 25.6148 19.8348C26.2227 20.4411 26.9971 20.8539 27.8401 21.0211C28.6832 21.1882 29.5569 21.1022 30.3509 20.7738C31.1449 20.4455 31.8236 19.8896 32.301 19.1764C32.7785 18.4632 33.0333 17.6248 33.0333 16.7671C33.0337 16.1972 32.9214 15.6328 32.7029 15.1063C32.4845 14.5798 32.1641 14.1014 31.7602 13.6985C31.3562 13.2957 30.8767 12.9763 30.3489 12.7586C29.8211 12.5409 29.2555 12.4292 28.6844 12.4299Z" fill="#FF6100"/>
</svg>
