<svg width="280" height="280" viewBox="0 0 280 280" fill="none" xmlns="http://www.w3.org/2000/svg">
<rect width="280" height="280" fill="white"/>
<path fill-rule="evenodd" clip-rule="evenodd" d="M255.233 97.436C259.577 132.896 241.032 162.809 220.925 186.167C203.004 206.985 179.142 222.252 154.134 214.887C131.599 208.244 125.203 173.773 108.387 153.01C80.4712 118.552 19.6683 103.428 26.6717 57.5336C33.5479 12.5001 91.8187 35.0506 127.749 26.1308C152.661 19.9422 175.767 1.02865 199.89 14.5246C227.291 29.8412 250.76 60.9114 255.233 97.436Z" fill="#FF6100" fill-opacity="0.15"/>
<g clip-path="url(#clip0)">
<path d="M42.7728 252.803L58.4645 236.28L130.754 214.39L150.587 195.388L203.467 196.219L187.352 250.338L225.823 275.873L27.9707 275.669C27.9561 275.655 42.7728 253.342 42.7728 252.803Z" fill="white"/>
<path d="M227.033 276.238L27.2852 276.019L27.6643 275.45C33.4393 266.759 42.131 253.517 42.4227 252.715V252.569L42.5102 252.555L58.2747 235.959L58.3622 235.93L130.564 214.069L150.441 195.023H150.587L203.948 195.855L203.816 196.321L187.789 250.178L227.033 276.238ZM28.6414 275.29L224.612 275.494L186.929 250.484L187.002 250.221L202.971 196.569L150.733 195.752L130.871 214.74L58.6685 236.6L43.0352 253.05C42.306 254.523 37.4643 261.99 28.6414 275.29Z" fill="#001038"/>
<path d="M109.404 231.409L132.679 172.55L156.406 121.903L182.86 137.23L177.843 183.488L188.343 184.407L203.481 139.373C205.377 133.73 203.816 127.503 199.471 123.419L169.166 94.9963L138.425 87.6901C138.425 87.6901 126.277 115.982 96.1768 228.215L109.404 231.409Z" fill="white"/>
<path d="M109.623 231.832L95.7246 228.477L95.8267 228.113C125.606 117.134 137.973 87.8213 138.104 87.5442L138.22 87.2671L138.512 87.34L169.356 94.6754L199.718 123.186C204.152 127.342 205.756 133.759 203.831 139.519L188.606 184.815L177.45 183.838L182.481 137.434L156.552 122.427L133 172.711L109.623 231.832ZM96.6142 227.938L109.17 230.971L132.329 172.405L156.231 121.378L156.581 121.582L183.254 137.025L183.225 137.259L178.252 183.152L188.095 184.013L203.145 139.257C204.998 133.759 203.452 127.648 199.237 123.682L169.02 95.3025L138.673 88.0838C137.316 91.3504 124.76 123.055 96.6142 227.938Z" fill="#001038"/>
<path d="M170.056 36.9544L170.464 32.7982C170.464 32.7982 180.235 37.2169 181.183 23.4211C181.183 23.4211 183.721 6.00858 166.862 9.62525C166.862 9.62525 158.433 10.5586 158.025 19.2648C158.025 19.2648 157.894 25.419 158.433 28.7732L157.908 32.5503L170.056 36.9544Z" fill="white"/>
<path d="M170.377 37.4649L157.485 32.8128L158.04 28.8024C157.515 25.4482 157.631 19.542 157.646 19.2795C158.054 10.3545 166.717 9.28989 166.804 9.28989C171.806 8.21072 175.671 8.88156 178.223 11.2732C182.656 15.4149 181.577 23.1586 181.533 23.4941C181.212 28.2628 179.783 31.4566 177.304 32.9441C174.752 34.4607 171.879 33.717 170.771 33.3378L170.377 37.4649ZM158.287 32.3316L169.735 36.4586L170.144 32.2732L170.61 32.4774C170.64 32.492 174.096 34.0086 176.94 32.3024C179.2 30.9461 180.498 27.9566 180.819 23.4066C180.833 23.3045 181.883 15.6774 177.727 11.7982C175.35 9.58156 171.719 8.96906 166.921 10.0045C166.556 10.0482 158.754 11.0253 158.375 19.3086C158.375 19.367 158.244 25.4628 158.769 28.7441L158.783 28.8024L158.287 32.3316Z" fill="#001038"/>
<path d="M170.494 32.667C170.494 32.667 167.388 31.967 165.842 29.4441C165.842 29.4441 166.265 33.3816 170.056 36.2545L170.494 32.667Z" fill="#001038"/>
<path d="M181.227 18.7691L182.438 18.6816V19.1774L253.546 9.28992L253.736 26.3524L182.38 20.7378L182.409 21.2337L181.169 21.2482L180.994 18.7691H181.227Z" fill="#FF6100"/>
<path d="M218.094 32.463C218.21 32.5359 218.823 31.2234 218.852 31.1505C219.188 30.3338 219.406 29.488 219.567 28.6276C219.712 27.8401 219.712 26.9359 219.975 26.1776C220.106 25.8276 220.354 25.4921 220.602 25.2151C221.667 24.0338 223.285 23.3921 224.773 22.9401C225.502 22.7213 226.231 22.5463 226.975 22.4005C228.2 22.1671 229.396 21.8317 230.548 21.3651C231.19 21.1026 232.94 20.0671 233.508 20.9567C233.785 21.3942 233.275 22.138 233.056 22.5026C232.312 23.7276 231.073 24.8651 229.542 24.763L237.256 25.2588C237.212 25.2588 236.906 25.6234 236.862 25.6671C236.454 26.0463 235.973 26.3526 235.492 26.6151C233.421 27.7526 231.015 28.1901 228.681 28.3505C228.156 28.3942 227.165 28.2192 226.858 28.6276C226.727 28.8026 226.698 29.1817 226.625 29.3859C226.362 30.2463 226.115 31.0921 225.852 31.9526C225.385 33.4838 224.933 35.0005 224.467 36.5317C224.452 36.5609 224.452 36.6046 224.437 36.6338C224.452 36.6484 218.094 32.463 218.094 32.463Z" fill="white"/>
<path d="M224.686 37.115L224.248 36.9546C219.421 33.7608 218.24 32.9879 217.948 32.7983L217.905 32.7692C217.861 32.74 217.846 32.7254 217.846 32.7254L215.353 30.2317L218.036 31.9817C218.211 31.69 218.459 31.1796 218.532 31.0046C218.809 30.3192 219.028 29.5463 219.217 28.5546C219.275 28.2775 219.305 27.9713 219.334 27.665C219.392 27.1254 219.45 26.5567 219.64 26.0463C219.757 25.6963 219.99 25.3608 220.34 24.9671C221.507 23.6692 223.271 23.0129 224.686 22.59C225.357 22.3858 226.086 22.2108 226.917 22.0358C228.215 21.7733 229.367 21.4379 230.417 21.015C230.519 20.9713 230.636 20.9129 230.782 20.8546C231.671 20.4317 233.173 19.7317 233.815 20.7671C234.194 21.365 233.713 22.1379 233.421 22.6046L233.363 22.7067C233.086 23.1733 232.503 23.99 231.642 24.5442C232.123 24.5733 232.692 24.6171 233.407 24.6608C235.317 24.7775 237.228 24.9088 237.271 24.9088L237.257 25.2879L237.446 25.5796C237.388 25.6233 237.3 25.74 237.228 25.8129C237.169 25.8858 237.125 25.9296 237.096 25.9442C236.717 26.2942 236.25 26.615 235.653 26.9358C233.844 27.9275 231.569 28.5108 228.696 28.715C228.55 28.7296 228.375 28.7296 228.171 28.715C227.865 28.7004 227.238 28.7004 227.136 28.8317C227.092 28.89 227.048 29.1088 227.019 29.2108C227.005 29.3129 226.975 29.4004 226.961 29.4733L224.686 37.115ZM218.634 32.3754C219.713 33.09 223.067 35.2921 224.234 36.065L226.275 29.2838C226.29 29.2254 226.305 29.1671 226.319 29.0942C226.363 28.8608 226.421 28.5983 226.567 28.4233C226.903 27.9858 227.603 28.0004 228.2 28.015C228.375 28.015 228.521 28.015 228.653 28.015C231.423 27.8108 233.596 27.2567 235.317 26.3233C235.755 26.0754 236.119 25.8421 236.411 25.5942C235.857 25.565 234.923 25.4921 233.363 25.4046C231.511 25.2879 229.659 25.1567 229.513 25.1567C229.513 25.1567 229.513 25.1567 229.498 25.1567L229.528 24.4275C229.528 24.4275 229.528 24.4275 229.557 24.4275C231.19 24.5296 232.328 22.9983 232.736 22.3421L232.794 22.24C232.94 22.0067 233.319 21.3942 233.188 21.1754C232.882 20.6942 231.657 21.2629 231.073 21.54C230.913 21.6129 230.782 21.6713 230.68 21.715C229.586 22.1671 228.39 22.5025 227.048 22.7796C226.246 22.94 225.532 23.115 224.875 23.3192C223.563 23.7129 221.915 24.3254 220.865 25.4921C220.573 25.8129 220.398 26.0754 220.311 26.3233C220.165 26.7608 220.107 27.2713 220.048 27.7817C220.019 28.1025 219.975 28.4233 219.917 28.715C219.728 29.7504 219.494 30.5817 219.188 31.3108C219.086 31.5588 218.867 32.0254 218.634 32.3754Z" fill="#001038"/>
<path d="M169.4 95.4629L137.302 90.4024L138.25 87.6899L169.166 94.9962L169.4 95.4629Z" fill="#001038"/>
<path d="M156.713 122.063L156.071 121.742L160.913 111.927L161.569 112.248L156.713 122.063Z" fill="#001038"/>
<path d="M179.405 183.663L178.588 187.032L186.623 187.775L187.163 184.334L179.405 183.663Z" fill="white"/>
<path d="M186.929 188.169L178.121 187.338L179.113 183.269L187.571 183.984L186.929 188.169ZM179.04 186.696L186.317 187.382L186.74 184.654L179.682 184.057L179.04 186.696Z" fill="#001038"/>
<path d="M178.588 187.032L175.263 195.578L202.417 197.459C202.461 196.671 202.052 195.942 201.352 195.578L186.638 187.79L178.588 187.032Z" fill="white"/>
<path d="M202.737 197.838L174.723 195.898L178.339 186.638L186.783 187.455L201.498 195.242C202.314 195.68 202.81 196.54 202.752 197.473L202.737 197.838ZM175.773 195.242L202.023 197.065C201.935 196.569 201.629 196.132 201.177 195.898L186.521 188.14L178.821 187.411L175.773 195.242Z" fill="#001038"/>
<path d="M99.3418 228.973L98.248 233.421L106.298 234.18L106.838 230.796L99.3418 228.973Z" fill="white"/>
<path d="M106.604 234.573L97.8105 233.742L99.0793 228.521L107.261 230.519L106.604 234.573ZM98.7147 233.1L105.992 233.786L106.429 231.073L99.6043 229.411L98.7147 233.1Z" fill="#001038"/>
<path d="M98.2478 233.421L94.9229 241.967L122.077 243.848C122.121 243.061 121.712 242.332 121.012 241.967L106.298 234.179L98.2478 233.421Z" fill="white"/>
<path d="M122.412 244.242L94.3975 242.302L98.0141 233.042L106.458 233.859L121.172 241.646C121.989 242.084 122.485 242.959 122.427 243.877L122.412 244.242ZM95.4475 241.632L121.697 243.454C121.61 242.959 121.304 242.521 120.852 242.288L106.195 234.529L98.4954 233.8L95.4475 241.632Z" fill="#001038"/>
<path d="M192.325 46.8274C192.325 46.8274 193.186 31.369 190.809 27.0524L198.596 24.2378C198.596 24.2378 204.867 35.5836 205.727 45.2086L203.248 54.9357L194.6 54.8336L192.325 46.8274Z" fill="white"/>
<path d="M203.525 55.3003L194.323 55.1837L191.96 46.8712V46.8128C191.975 46.6524 192.792 31.4128 190.487 27.2274L190.283 26.8483L198.756 23.7858L198.902 24.0628C198.96 24.1795 205.217 35.5837 206.077 45.1649V45.2233L206.062 45.2816L203.525 55.3003ZM194.877 54.4691L202.971 54.5712L205.362 45.1795C204.575 36.5899 199.369 26.4691 198.421 24.6899L191.319 27.2566C193.433 31.9378 192.748 45.6024 192.689 46.7837L194.877 54.4691Z" fill="#001038"/>
<path d="M200.375 52.617L216.256 31.2524L226.931 38.092C226.931 38.092 217.073 73.1504 186.127 63.5545L178.179 60.8129L169.166 94.9962L138.25 87.6899C138.25 87.6899 136.777 31.4129 157.879 32.5649C157.879 32.5649 184.406 40.7024 200.375 52.617Z" fill="white"/>
<path d="M169.429 95.4337L169.079 95.3462L137.9 87.9817V87.7046C137.9 87.6025 137.652 77.5692 138.906 66.2233C140.598 50.9254 144.069 40.6296 149.231 35.6275C151.739 33.1921 154.7 32.0692 157.908 32.215C158.258 32.3171 184.435 40.4254 200.302 52.1067L216.169 30.7712L227.369 37.9462L227.296 38.2087C227.252 38.3837 222.381 55.2275 209.227 62.3879C202.446 66.0775 194.644 66.6025 186.025 63.9337L178.441 61.3233L169.429 95.4337ZM138.614 87.3983L168.904 94.5587L177.946 60.3608L186.258 63.2337C194.658 65.8442 202.271 65.3337 208.877 61.7462C220.879 55.2275 225.852 40.4108 226.523 38.2671L216.358 31.7483L200.462 53.1275L200.171 52.9087C184.435 41.1837 158.054 33.0025 157.791 32.915C154.846 32.7692 152.104 33.8337 149.741 36.1379C138.25 47.2796 138.556 83.8108 138.614 87.3983Z" fill="#001038"/>
<path d="M190.808 27.0524C190.808 27.0524 185.966 24.6024 185.675 22.0941C185.675 22.0941 188.548 19.1482 189.948 19.2941C189.948 19.2941 191.931 19.5857 191.056 21.3503L196.948 21.8607L198.129 24.2232L190.808 27.0524Z" fill="white"/>
<path d="M190.794 27.4462L190.648 27.3732C190.444 27.2712 185.631 24.8066 185.31 22.1378L185.296 21.9628L185.413 21.8316C185.719 21.5107 188.431 18.7545 189.992 18.9295C190.05 18.9441 191.085 19.1045 191.494 19.8774C191.669 20.2128 191.698 20.6066 191.581 21.0295L197.196 21.5253L198.64 24.4274L190.794 27.4462ZM186.069 22.2253C186.448 24.0045 189.496 25.9441 190.838 26.6587L197.619 24.0482L196.715 22.2253L190.488 21.6857L190.721 21.2045C190.925 20.7962 190.969 20.4753 190.838 20.2274C190.648 19.8628 190.094 19.7024 189.89 19.6587C189.044 19.5857 187.163 21.1316 186.069 22.2253Z" fill="#001038"/>
<path d="M188.256 19.2067C187.629 19.2067 187.118 18.6963 187.118 18.0692V15.9255C187.118 15.2984 187.629 14.788 188.256 14.788C188.883 14.788 189.393 15.2984 189.393 15.9255V18.0692C189.393 18.6963 188.883 19.2067 188.256 19.2067Z" fill="white"/>
<path d="M188.256 19.5713C187.425 19.5713 186.754 18.9004 186.754 18.0692V15.9254C186.754 15.0942 187.425 14.4233 188.256 14.4233C189.087 14.4233 189.758 15.0942 189.758 15.9254V18.0692C189.758 18.9004 189.087 19.5713 188.256 19.5713ZM188.256 15.1671C187.833 15.1671 187.483 15.5171 187.483 15.94V18.0838C187.483 18.5067 187.833 18.8567 188.256 18.8567C188.679 18.8567 189.029 18.5067 189.029 18.0838V15.9254C189.029 15.5025 188.679 15.1671 188.256 15.1671Z" fill="#001038"/>
<path d="M190.56 19.09C189.933 19.09 189.423 18.5796 189.423 17.9525V15.8088C189.423 15.1817 189.933 14.6713 190.56 14.6713C191.187 14.6713 191.698 15.1817 191.698 15.8088V17.9525C191.698 18.5796 191.187 19.09 190.56 19.09Z" fill="white"/>
<path d="M190.561 19.4546C189.729 19.4546 189.059 18.7837 189.059 17.9525V15.8087C189.059 14.9775 189.729 14.3066 190.561 14.3066C191.392 14.3066 192.063 14.9775 192.063 15.8087V17.9525C192.063 18.7837 191.392 19.4546 190.561 19.4546ZM190.561 15.0504C190.138 15.0504 189.788 15.4004 189.788 15.8233V17.9671C189.788 18.39 190.138 18.74 190.561 18.74C190.984 18.74 191.334 18.39 191.334 17.9671V15.8087C191.334 15.3858 190.984 15.0504 190.561 15.0504Z" fill="#001038"/>
<path d="M192.82 19.09C192.193 19.09 191.683 18.5796 191.683 17.9525V15.8088C191.683 15.1817 192.193 14.6713 192.82 14.6713C193.447 14.6713 193.958 15.1817 193.958 15.8088V17.9525C193.958 18.5796 193.447 19.09 192.82 19.09Z" fill="white"/>
<path d="M192.82 19.4546C191.989 19.4546 191.318 18.7837 191.318 17.9525V15.8087C191.318 14.9775 191.989 14.3066 192.82 14.3066C193.652 14.3066 194.323 14.9775 194.323 15.8087V17.9525C194.323 18.7837 193.652 19.4546 192.82 19.4546ZM192.82 15.0504C192.398 15.0504 192.048 15.4004 192.048 15.8233V17.9671C192.048 18.39 192.398 18.74 192.82 18.74C193.243 18.74 193.593 18.39 193.593 17.9671V15.8087C193.593 15.3858 193.243 15.0504 192.82 15.0504Z" fill="#001038"/>
<path d="M165.594 19.0753C164.894 18.6378 162.429 17.2816 162.619 20.592C162.663 21.3211 163.027 21.992 163.611 22.4441L158.521 28.4962C158.521 28.4962 145.804 5.84823 168.379 4.40448C170.057 4.3024 171.748 4.52115 173.367 5.0024C177.538 6.27115 186.754 8.60448 188.869 5.06073C188.869 5.06073 189.132 16.2899 172.215 18.3607C171.413 18.4628 170.713 18.9586 170.348 19.6878L168.423 23.4941L167.038 23.2316L165.842 19.3816C165.784 19.2649 165.696 19.1482 165.594 19.0753Z" fill="#001038"/>
<path d="M181.533 7.65657C181.533 7.65657 184.712 7.00032 186.039 5.29407C186.039 5.29407 185.514 8.9399 183.662 9.21698C181.825 9.49407 181.533 7.65657 181.533 7.65657Z" fill="#001038"/>
<path d="M178.267 60.4628C178.267 60.4628 166.134 56.4378 161.365 50.4441C161.248 50.2983 161.03 50.4441 161.102 50.6191C162.867 54.017 167.607 61.1483 177.348 63.817L178.267 60.4628Z" fill="#001038"/>
<path d="M240.917 276.282H13.4896C13.2854 276.282 13.125 276.121 13.125 275.917C13.125 275.713 13.2854 275.552 13.4896 275.552H240.917C241.121 275.552 241.281 275.713 241.281 275.917C241.281 276.121 241.106 276.282 240.917 276.282Z" fill="#001038"/>
</g>
<defs>
<clipPath id="clip0">
<rect width="240.61" height="271.906" fill="white" transform="translate(13.125 4.37537)"/>
</clipPath>
</defs>
</svg>
