<svg width="145" height="35" viewBox="0 0 145 35" fill="none" xmlns="http://www.w3.org/2000/svg">
<path d="M129.105 11.7824C129.923 11.7824 130.597 11.356 130.688 10.8052L131.496 1.64811C131.496 0.743022 130.438 0 129.107 0C127.778 0 126.721 0.743018 126.721 1.64827L127.529 10.8052C127.618 11.3559 128.291 11.7824 129.108 11.7824H129.105ZM124.166 14.6426C124.577 13.9333 124.546 13.136 124.113 12.7818L116.602 7.50208C115.821 7.04888 114.65 7.59438 113.986 8.74926C113.319 9.90268 113.437 11.1909 114.216 11.6442L122.533 15.5247C123.053 15.7178 123.761 15.3461 124.169 14.6372L124.166 14.6426ZM134.048 14.6377C134.458 15.3466 135.163 15.7184 135.684 15.5252L144 11.6447C144.784 11.1915 144.895 9.90317 144.235 8.74976C143.567 7.59602 142.394 7.04937 141.615 7.50257L134.104 12.7823C133.674 13.136 133.642 13.9339 134.051 14.6431L134.048 14.6377ZM129.105 23.221C129.923 23.221 130.597 23.6438 130.688 24.1952L131.496 33.3509C131.496 34.2588 130.438 35.0002 129.107 35.0002C127.778 35.0002 126.721 34.2588 126.721 33.3509L127.529 24.1952C127.618 23.6438 128.291 23.221 129.108 23.221H129.105ZM134.048 20.3602C134.458 19.6493 135.163 19.2808 135.684 19.4762L144 23.354C144.784 23.8077 144.895 25.0972 144.235 26.2516C143.567 27.4015 142.394 27.9497 141.615 27.4971L134.104 22.2223C133.674 21.8658 133.642 21.0674 134.051 20.3587H134.047L134.048 20.3602ZM124.166 20.3592C124.577 21.0674 124.546 21.8658 124.113 22.2229L116.602 27.4976C115.821 27.9501 114.65 27.402 113.986 26.252C113.319 25.0977 113.437 23.8082 114.216 23.3545L122.533 19.4767C123.053 19.2813 123.761 19.6498 124.169 20.3608H124.166" fill="#FDBB30"/>
<path d="M81.7267 22.2055C81.7267 22.4865 81.7018 22.7763 81.625 23.0309C81.3064 24.0881 80.2141 24.982 78.8476 24.982C77.7081 24.982 76.8031 24.3335 76.8031 22.9636C76.8031 20.867 79.106 20.288 81.7274 20.3026L81.7267 22.2054V22.2055ZM85.8384 18.5519C85.8384 15.0947 84.3643 12.0527 79.3833 12.0527C76.8264 12.0527 74.7972 12.7724 73.6895 13.4138L74.5008 16.1931C75.5131 15.5527 77.1264 15.0225 78.6532 15.0225C81.1797 15.0155 81.5935 16.4563 81.5935 17.3783V17.5966C76.0861 17.5884 72.6047 19.4994 72.6047 23.3923C72.6047 25.771 74.3779 27.9989 77.4602 27.9989C79.3541 27.9989 80.9404 27.2413 81.8898 26.0266H81.9835C81.9835 26.0266 82.6117 28.6638 86.0795 27.6548C85.8986 26.5581 85.8391 25.3874 85.8391 23.9796L85.8386 18.5519H85.8384ZM0.0273438 7.34465C0.0273438 7.34465 3.6263 22.1224 4.20099 24.5207C4.87138 27.3201 6.07962 28.3506 9.56151 27.6548L11.8086 18.4932C12.3784 16.2164 12.7597 14.5932 13.1269 12.2795H13.1908C13.4485 14.6177 13.8142 16.2235 14.2831 18.5007C14.2831 18.5007 15.1974 22.6602 15.6664 24.8442C16.136 27.0275 17.4428 28.4044 20.8538 27.6548L26.2085 7.34399H21.8865L20.0576 16.1258C19.5659 18.6809 19.1201 20.6798 18.7761 23.0168H18.715C18.4025 20.7004 18.0045 18.783 17.5051 16.2929L15.6025 7.34399H11.0986L9.0623 16.0673C8.48598 18.7188 7.94552 20.859 7.60316 23.1183H7.54088C7.18938 20.9908 6.72148 18.2999 6.2151 15.7345C6.2151 15.7345 5.00621 9.4948 4.58102 7.34399L0.0273438 7.34465ZM34.3839 22.2055C34.3839 22.4865 34.359 22.7763 34.281 23.0309C33.9631 24.0881 32.8702 24.982 31.5036 24.982C30.364 24.982 29.4603 24.3335 29.4603 22.9636C29.4603 20.867 31.7625 20.288 34.3844 20.3026L34.3839 22.2054V22.2055ZM38.4951 18.5519C38.4951 15.0947 37.021 12.0527 32.041 12.0527C29.4835 12.0527 27.4526 12.7724 26.3456 13.4138L27.1559 16.1931C28.168 15.5527 29.7813 15.0225 31.3086 15.0225C33.8369 15.0155 34.2507 16.4563 34.2507 17.3783V17.5966C28.741 17.5884 25.2613 19.4994 25.2613 23.3923C25.2613 25.771 27.0334 27.9989 30.1134 27.9989C32.01 27.9989 33.5953 27.2413 34.5458 26.0266H34.6384C34.6384 26.0266 35.2684 28.6638 38.7354 27.6548C38.5541 26.5581 38.4951 25.3874 38.4951 23.9796V18.5519ZM45.3565 23.3434V7.34465H41.2399V27.6555H45.3565V23.3434ZM99.2089 7.34465V22.3276C99.2089 24.3942 99.5977 25.8406 100.427 26.7257C101.153 27.4996 102.347 28.0005 103.778 28.0005C104.996 28.0005 106.193 27.7677 106.758 27.5578L106.705 24.3351C106.284 24.438 105.802 24.5213 105.141 24.5213C103.738 24.5213 103.269 23.6208 103.269 21.7664V16.0336H106.854V12.147H103.269V7.34465H99.2089ZM88.5834 12.3973V27.6555H92.8299V19.843C92.8299 19.4207 92.8554 19.0528 92.922 18.7162C93.2362 17.0789 94.485 16.0336 96.2789 16.0336C96.7706 16.0336 97.1226 16.0872 97.5039 16.1415V12.147C97.1839 12.0831 96.9667 12.0532 96.5686 12.0532C94.9839 12.0532 93.1809 13.0779 92.4243 15.2759H92.3095V12.3973H88.5834ZM48.239 12.3973V27.6555H52.3762V18.708C52.3762 18.2882 52.4255 17.8441 52.5706 17.4592C52.9134 16.5584 53.7501 15.5033 55.0852 15.5033C56.7555 15.5033 57.5354 16.9176 57.5354 18.9588V27.6543H61.6694V18.5979C61.6694 18.1973 61.7241 17.7144 61.8423 17.3612C62.1817 16.3359 63.0829 15.5022 64.3243 15.5022C66.0167 15.5022 66.8291 16.8917 66.8291 19.2942V27.6538H70.9659V18.6667C70.9659 13.9278 68.5644 12.0517 65.8532 12.0517C64.6536 12.0517 63.7057 12.3528 62.8485 12.8792C62.1287 13.3236 61.4831 13.9532 60.9198 14.7809H60.8587C60.2049 13.1365 58.6667 12.0526 56.6622 12.0526C54.0871 12.0526 52.9297 13.3607 52.2277 14.47H52.1661V12.3968H48.239" fill="#1A75CF"/>
</svg>