<svg width="64" height="36" viewBox="0 0 64 36" fill="none" xmlns="http://www.w3.org/2000/svg">
<path d="M37.295 8.30643C40.0186 5.55115 43.9386 4.98435 46.0324 7.04688C46.3157 7.33028 46.5519 7.64517 46.7565 7.99154C46.6778 12.0064 43.4033 15.2497 39.3574 15.2497C35.2642 15.2497 31.9582 11.9434 31.9582 7.84984C31.9582 3.75629 35.2799 0.449951 39.3574 0.449951C41.6716 0.449951 43.7339 1.50483 45.072 3.18949C42.4745 1.22143 38.4285 1.72525 35.7208 4.46479C33.7057 6.49582 32.95 9.21961 33.4853 11.534C33.4223 9.5345 34.2409 7.409 35.8782 5.74009C38.7906 2.78013 43.2301 2.43375 45.7805 4.93712C46.0009 5.15754 46.2213 5.39371 46.3945 5.64562C46.5361 6.05498 46.6149 6.48008 46.6778 6.92092C46.4889 6.57454 46.237 6.24391 45.9537 5.96051C43.8441 3.89799 39.9399 4.46479 37.2163 7.22007C35.3587 9.1094 34.5243 11.534 34.8706 13.5336C34.9336 11.786 35.768 9.86513 37.295 8.30643Z" fill="#FF7733"/>
<path fill-rule="evenodd" clip-rule="evenodd" d="M28.1376 11.8708C28.8308 12.4065 29.2877 13.0841 29.5083 13.9191C29.7289 14.7542 29.6973 15.7626 29.3665 16.9285C28.8939 18.8193 27.9801 20.2688 26.641 21.293C25.3018 22.3171 23.6949 23.0419 21.8201 23.4673L21.8043 23.5461C22.7811 23.7194 23.5373 24.0503 24.073 24.5072C24.6086 24.9641 25.0025 25.5156 25.2861 26.1774C25.4751 26.8391 25.5696 27.5639 25.5696 28.3359C25.5696 29.108 25.5381 29.8958 25.4751 30.6836C25.4539 30.973 25.4359 31.2308 25.4182 31.4839C25.3965 31.7957 25.3752 32.1004 25.3491 32.4483C25.3648 33.693 26.4361 33.9136 26.4361 33.9136L26.1683 35.0008H15.534C15.5497 34.5596 15.6128 34.0081 15.6915 33.3621C15.7578 32.8186 15.8352 32.2528 15.9144 31.6741L15.9594 31.3454C16.0539 30.6521 16.1169 30.0061 16.1484 29.3916C16.1799 28.7771 16.1484 28.2887 16.0539 27.9105C15.9279 27.3433 15.6443 26.9967 15.2189 26.8549C14.7935 26.7131 14.2894 26.65 13.7065 26.65H11.5796L9.45273 35.0008H0L5.41957 13.7616C5.8607 11.8866 4.41128 11.4769 4.41128 11.4769L4.6791 10.374H21.5365C23.0174 10.374 24.3093 10.4843 25.4279 10.7206C26.5464 10.957 27.4444 11.3351 28.1376 11.8708ZM18.8582 19.9064C19.1733 19.5598 19.4096 19.0556 19.5672 18.4254C19.709 17.8582 19.7247 17.417 19.5829 17.0546C19.4569 16.7237 19.2521 16.4716 18.9527 16.2983C18.6534 16.125 18.291 16.0147 17.8657 15.9517C17.4245 15.9044 16.9834 15.8729 16.5108 15.8729H14.3209L12.9818 21.1197H15.0298C15.534 21.1197 16.0066 21.1039 16.4793 21.0566C16.9519 21.0094 17.393 20.8991 17.7869 20.71C18.1808 20.5367 18.5431 20.2531 18.8582 19.9064Z" fill="#FF7733"/>
<path fill-rule="evenodd" clip-rule="evenodd" d="M63.7275 23.6339C65.3647 16.8166 59.3037 15.8877 54.14 15.8877C50.6293 15.8877 49.0236 16.1868 46.1583 16.9425L44.8202 22.2012C46.8353 21.3038 49.2912 20.6267 51.4322 20.6267C53.6835 20.6267 56.0921 20.9101 55.5569 23.319C55.4214 23.3058 55.2689 23.2898 55.1029 23.2724C54.2856 23.1868 53.143 23.0671 52.1092 23.0671C47.6224 23.0671 42.1911 24.2165 40.8058 29.9475C39.8612 33.8521 42.8681 35.4423 46.3473 35.4423C48.8976 35.4423 51.4795 34.4346 53.2427 32.3249H53.3214L52.6444 34.9857H62.5625L62.8301 33.9308C62.8301 33.9308 61.492 33.4585 61.7753 31.9313L63.7275 23.6339ZM54.5808 27.3654C54.1872 28.987 52.8648 30.7032 51.0072 30.7032C49.606 30.7032 49.0078 30.1994 49.3227 28.9083C49.7792 26.9718 51.9832 26.7986 53.8409 26.7986H54.7225L54.5808 27.3654Z" fill="#FF7733"/>
<path d="M38.2363 31.4439C38.2363 31.4911 38.2206 31.5383 38.2049 31.5855C37.9002 33.5152 39.0132 33.8399 39.189 33.8912C39.2039 33.8956 39.2121 33.8979 39.2121 33.8992L38.9288 35.0009H28.4633L33.1373 16.6962C34.3177 17.9396 36.0016 18.7266 37.8586 18.7109C39.3695 18.6951 40.7544 18.1443 41.856 17.2629L38.2363 31.4439Z" fill="#FF7733"/>
</svg>
