<svg width="144" height="144" fill="none" xmlns="http://www.w3.org/2000/svg"><g clip-path="url(#clip0)"><g clip-path="url(#clip1)"><path fill-rule="evenodd" clip-rule="evenodd" d="M119.533 48.826c2.144 17.507-7.012 32.275-16.939 43.808-8.848 10.278-20.628 17.815-32.976 14.179-11.126-3.28-14.283-20.299-22.586-30.55C33.25 59.251 3.231 51.784 6.69 29.125c3.394-22.233 32.163-11.1 49.903-15.504 12.299-3.055 23.707-12.393 35.617-5.73 13.528 7.562 25.115 22.902 27.324 40.935z" fill="#FF6100" fill-opacity=".15"/><g clip-path="url(#clip2)"><path d="M32.094 4.32c-11.729 0-21.239 10.563-21.239 23.59 0 .799.038 1.59.105 2.359h5.341a18.964 18.964 0 01-.141-2.36c0-9.778 7.141-17.714 15.941-17.714s15.935 7.936 15.935 17.715c0 .806-.045 1.59-.142 2.359h5.341c.068-.776.105-1.568.105-2.36C53.325 14.884 43.822 4.32 32.094 4.32z" fill="#FF6100"/><path d="M58.703 29.783H5.887v40.693h52.816V29.783z" fill="#FF6100"/><path d="M31.518 51.238a4.518 4.518 0 004.52-4.516 4.518 4.518 0 00-4.52-4.516 4.518 4.518 0 00-4.52 4.516 4.518 4.518 0 004.52 4.516z" fill="#fff"/><path d="M33.46 48.529h-3.884v9.525h3.885V48.53z" fill="#fff"/><path d="M39.01 22.557s-1.726.127-1.644-5.725l1.778-.291-.134 6.016z" fill="#013"/><path d="M48.1 34.12l-2.629-5.927s-7.567 2.83-6.73-10.28c0 0-.344-9.137 8.56-7.278 0 0 4.58-1.187 6.089 10.228l1.27 4.18-6.56 9.078z" fill="#fff"/><path d="M48.063 34.494l-2.697-6.07c-.582.173-2.532.613-4.235-.648-2.032-1.509-2.899-4.83-2.578-9.87-.007-.149-.127-4.172 2.466-6.36 1.509-1.276 3.623-1.642 6.275-1.097.217-.045 1.113-.157 2.196.567 1.39.933 3.227 3.397 4.08 9.824l1.291 4.24-6.798 9.414zm-2.495-6.54l2.57 5.794 6.313-8.742-1.248-4.091c-.837-6.293-2.585-8.674-3.907-9.578-1.076-.731-1.92-.53-1.957-.522l-.045.007-.037-.007c-2.555-.53-4.572-.194-6 1.008-2.45 2.067-2.337 6.046-2.337 6.084-.314 4.927.5 8.137 2.427 9.562 1.816 1.352 4.027.553 4.05.545l.171-.06z" fill="#013"/><path d="M45.36 28.067s1.972-.859 3.002-2.971c0 0 1.002 2.456-1.038 6.912l-1.965-3.941z" fill="#013"/><path d="M26.027 126.696h-7.716v4.972h7.716v-4.972z" fill="#fff"/><path d="M26.213 131.854h-8.09v-5.345h8.09v5.345zm-7.716-.373h7.343v-4.598h-7.343v4.598z" fill="#013"/><path d="M123.09 114.901l5.819.552-.321 8.988-6.059-.746.561-8.794z" fill="#fff"/><path d="M128.768 124.65l-6.432-.798.015-.172.568-8.988 6.193.59-.344 9.368zm-6.036-1.119l5.677.701.314-8.607-5.453-.523-.538 8.429z" fill="#013"/><path d="M17.094 128.682l-4.407-46.24c-.762-8.002 5.012-15.146 12.998-16.072 14.037-1.627 34.655-3.411 44.136-1.276l-6.739 21.298-28.604-.672a4.11 4.11 0 00-4.199 3.822l-2.711 38.744-10.474.396z" fill="#fff"/><path d="M16.929 128.876l-4.43-46.41c-.77-8.048 5.14-15.342 13.163-16.275 15.016-1.74 34.872-3.367 44.195-1.276l.202.044-6.843 21.627h-.142l-28.604-.672c-2.085-.06-3.863 1.553-4.012 3.65l-2.727 38.909-10.802.403zm40.55-64.574c-9.712 0-21.807 1.105-31.772 2.262-7.822.904-13.582 8.025-12.835 15.864l4.393 46.06 10.13-.381L30.1 89.534a4.294 4.294 0 014.288-4h.105l28.462.671 6.634-20.97c-3.1-.656-7.313-.933-12.11-.933z" fill="#013"/><path d="M69.819 65.101l16.27.881a4.618 4.618 0 014.356 5.031c-.777 8.555-2.473 26.748-3.87 38.931l38.024 3.009-.889 13.161-46.847 1.149c-8.225.202-15-6.368-15.082-14.587-.127-14.325 1.023-35.496 8.038-47.575z" fill="#fff"/><path d="M76.498 127.442a14.805 14.805 0 01-10.347-4.18 14.805 14.805 0 01-4.549-10.593c-.142-15.17 1.136-35.75 8.06-47.657l.06-.097.112.007 16.271.88a4.795 4.795 0 013.384 1.658 4.77 4.77 0 011.15 3.576c-.687 7.525-2.42 26.3-3.847 38.737l38.01 3-.912 13.512-.171.008-46.847 1.149h-.374zm-6.574-62.147c-3.788 6.57-8.21 20.111-7.949 47.374a14.44 14.44 0 004.438 10.324c2.816 2.725 6.53 4.166 10.451 4.076l46.675-1.142.867-12.803-38.032-3.008.022-.194c1.427-12.43 3.183-31.361 3.87-38.923a4.394 4.394 0 00-1.06-3.3 4.429 4.429 0 00-3.123-1.53l-16.159-.874z" fill="#013"/><path d="M90.415 69.013L58.747 64.28l-1.225-8.869-5.871 3.352L39.54 48.53s5.82-16.745 13.44-20.328c-.008 0 31.405-9.078 37.434 40.812z" fill="#fff"/><path d="M90.63 69.23l-.238-.038-31.802-4.755-.022-.142-1.196-8.585-5.744 3.285-12.312-10.407.045-.12c.015-.044 1.487-4.254 3.87-8.845 3.212-6.189 6.462-10.086 9.66-11.586.126-.037 10.264-2.86 20.035 3.605 9.487 6.271 15.426 18.842 17.667 37.349l.038.238zm-31.719-5.122l31.287 4.68c-2.25-18.266-8.12-30.658-17.474-36.84-9.637-6.367-19.602-3.598-19.7-3.568-7.096 3.337-12.721 18.573-13.267 20.089l11.916 10.07 5.998-3.426 1.24 8.995z" fill="#013"/><path d="M61.444 51.328c-1.375 1.956-3.922 4.083-3.922 4.083l3.922-4.083z" fill="#fff"/><path d="M57.523 55.598a.184.184 0 01-.142-.067.187.187 0 01.022-.261c.023-.023 2.54-2.128 3.892-4.046a.19.19 0 01.262-.045.19.19 0 01.045.261c-1.375 1.956-3.93 4.098-3.96 4.12a.226.226 0 01-.12.038z" fill="#013"/><path d="M128.909 115.453l12.715-.552 2.159 15.751-17.055 1.463s-1.009-5.001 5.714-6.009l-3.862-1.665.329-8.988z" fill="#fff"/><path d="M126.579 132.317l-.029-.164c-.015-.075-.366-1.904.829-3.606.889-1.261 2.368-2.112 4.422-2.523l-3.406-1.471.336-9.286.172-.008 12.886-.56.023.172 2.189 15.946-17.422 1.5zm2.197-7.995l4.348 1.874-.65.097c-2.264.343-3.877 1.172-4.789 2.471-.904 1.291-.852 2.687-.799 3.158l16.681-1.434-2.106-15.393-12.379.538-.306 8.689z" fill="#013"/><path d="M26.028 131.668l-.374 11.727-25.466.411c0-1.754.978-3.359 2.54-4.158l15.583-7.988h7.717v.008z" fill="#fff"/><path d="M0 144v-.187a4.844 4.844 0 012.645-4.322l15.665-8.002h7.911l-.38 12.1L0 144zm18.355-12.146L2.816 139.82a4.459 4.459 0 00-2.435 3.799l25.093-.41.359-11.355h-7.478zM36.964 15.6c-.254-.762-.508-1.56-.389-2.36.135-.873.703-1.62 1.33-2.246 2.077-2.068 4.908-3.18 7.65-4.248 1.076-.418 2.174-.836 3.324-.88 1.434-.053 2.809.492 4.079 1.141 2.615 1.352 4.93 3.218 7.605 4.45 1.89.873 3.93 1.41 6.006 1.597 2.062.18 4.258.037 6.088.986 2.339 1.216 3.474 3.941 3.684 6.54.052.67.06 1.358-.135 2.007-.18.59-.508 1.127-.74 1.702a5.152 5.152 0 00-.194 3.18c.463 1.747 1.853 3.42 1.337 5.151-.433 1.47-2.076 2.247-3.6 2.568-3.004.635-6.238.18-8.927-1.261-2.727-1.456-5.02-3.912-8.091-4.382-1.165-.18-2.383-.053-3.496-.418-1.285-.426-2.256-1.449-3.115-2.471-1.547-1.844-2.996-4.226-2.227-6.495.18-.538.486-1.053.464-1.62-.023-.567-.598-1.15-1.12-.91-.322.149-.45.514-.68.776-.583.679-1.674.582-2.518.268-.844-.313-1.689-.79-2.578-.671-.784.104-1.98 1.015-2.734.492-.56-.403-.806-2.254-1.023-2.896z" fill="#013"/><path d="M5.43 64.123s25.594 5.89 46.22-5.36L39.54 48.53s-8.964 10.936-33.646 11.66c.074 0 .41-1.164.448-1.276.06-.172.037-.336-.12-.448-.478-.359-.74.425-.844.724-.082.216-.157.433-.239.65-.022.059-.06.26-.112.298-.007-.008-2.525 1.963.404 3.986z" fill="#fff"/><path d="M21.396 65.825c-9.204 0-15.875-1.485-16.002-1.515a.264.264 0 01-.067-.03c-.971-.672-1.48-1.418-1.502-2.21-.037-1.194 1.031-2.045 1.083-2.083 0 0 .008-.074.023-.119.007-.045.022-.075.03-.097l.239-.642c.12-.328.299-.814.65-.918.112-.03.284-.038.485.112.21.157.277.395.18.657-.008.022-.03.097-.06.194-.12.388-.202.65-.262.828 24.092-.79 33.117-11.474 33.206-11.578a.193.193 0 01.127-.067.158.158 0 01.135.045l12.11 10.22a.187.187 0 01.067.164.193.193 0 01-.098.142c-10.07 5.494-21.402 6.897-30.344 6.897zM5.513 63.952c1.084.238 25.878 5.501 45.817-5.219L39.556 48.79C38.383 50.08 28.851 59.704 5.894 60.376h-.007c-.097 0-.187-.082-.187-.18 0-.06.023-.104.06-.141.075-.142.269-.777.329-.993.03-.105.06-.187.067-.21.045-.134 0-.193-.052-.23-.09-.068-.135-.053-.15-.053-.172.052-.328.485-.388.65l-.254.686c-.008.015-.008.038-.015.068-.037.149-.075.253-.157.32-.007.008-.964.77-.934 1.777.015.65.456 1.284 1.307 1.882zM58.017 58.957s2.689-3.456 3.436-7.637l-3.93 4.091.493 3.546zM66.256 73.387l-8.135 12.9 4.968.112 3.167-13.012zM89.183 83.331c-2.294-2.337-2.892-5.442-2.981-7.63-.105-2.366.329-4.15.344-4.225l.037-.149 3.81.261-.03.374-3.489-.24c-.216 1.06-1.315 7.384 2.57 11.348l-.261.261z" fill="#013"/></g></g></g><defs><clipPath id="clip0"><path fill="#fff" d="M0 0h144v144H0z"/></clipPath><clipPath id="clip1"><path fill="#fff" d="M0 0h144v144H0z"/></clipPath><clipPath id="clip2"><path fill="#fff" transform="translate(0 4.32)" d="M0 0h144v139.68H0z"/></clipPath></defs></svg>