<svg width="144" height="144" fill="none" xmlns="http://www.w3.org/2000/svg"><g clip-path="url(#clip0)"><path fill-rule="evenodd" clip-rule="evenodd" d="M129.613 48.105c2.144 17.508-7.012 32.276-16.939 43.808-8.848 10.279-20.628 17.816-32.976 14.18-11.125-3.28-14.283-20.3-22.585-30.55C43.33 58.531 13.31 51.063 16.768 28.405c3.395-22.234 32.164-11.1 49.903-15.504 12.3-3.055 23.707-12.393 35.617-5.73 13.528 7.562 25.115 22.902 27.324 40.934z" fill="#FF6100" fill-opacity=".15"/><g clip-path="url(#clip1)"><path d="M98.785 133.372l.187 3.42 5.206-.526-.367-3.319-5.026.425z" fill="#fff"/><path d="M98.806 136.987l-.208-3.78 5.371-.446.403 3.672-5.566.554zm.173-3.449l.166 3.053 4.831-.482-.331-2.959-4.666.388z" fill="#013"/><path d="M104.514 136.224l9.742 3.211.173.95-16.38 3.075.46-6.632 6.005-.604z" fill="#fff"/><path d="M97.856 143.676l.482-7.02 6.199-.62.036.015 9.842 3.247.224 1.231-16.783 3.147zm.82-6.689l-.432 6.249 15.977-2.995-.122-.662-9.605-3.168-5.818.576z" fill="#013"/><path d="M125.979 119.483l1.85 2.88 4.262-3.024-1.951-2.7-4.161 2.844z" fill="#fff"/><path d="M127.779 122.623l-2.045-3.19 4.45-3.045 2.167 2.995-4.572 3.24zm-1.555-3.089l1.649 2.578 3.967-2.808-1.75-2.412-3.866 2.642z" fill="#013"/><path d="M43.805 30.585l-1.05-3.952s6.933-1.39 3.606-13.867c0 0-4.255-10.635-13.78-1.11 0 0-2.405 3.975 0 11.931l-.886 7.006c.007-.008 9.453 11.887 12.11-.008z" fill="#fff"/><path d="M39.478 36.05c-3.622 0-7.733-5.119-7.92-5.357a.18.18 0 01-.036-.136l.878-6.963c-2.383-7.913-.072-11.873.03-12.038 3.146-3.161 6.047-4.471 8.654-3.939 3.679.756 5.378 4.896 5.443 5.07 1.353 5.054 1.217 8.92-.396 11.512-1.13 1.814-2.635 2.405-3.161 2.556l1 3.78a.175.175 0 010 .086c-.705 3.14-1.95 4.94-3.707 5.343a3.496 3.496 0 01-.785.086zm-7.589-5.522c.504.612 4.925 5.86 8.302 5.083 1.605-.367 2.757-2.06 3.427-5.026l-1.037-3.91a.17.17 0 01.022-.143.163.163 0 01.115-.08c.022 0 1.843-.395 3.118-2.447 1.548-2.499 1.663-6.264.352-11.196-.007-.022-1.692-4.119-5.176-4.832-2.477-.504-5.27.77-8.302 3.802 0 .007-2.304 3.982.043 11.75.007.022.007.05.007.072l-.87 6.927zM55.282 30.866h-3.664a1.417 1.417 0 01-1.419-1.418v-8.87c0-.786.634-1.42 1.419-1.42h3.664c.785 0 1.419.634 1.419 1.42v8.87a1.412 1.412 0 01-1.419 1.418z" fill="#013"/><path d="M15.508 61.156C9.402 66.434 4.665 74.073 2.102 81.655-.195 88.45-.656 95.745.95 102.75c1.425 6.213 4.248 12.074 9.273 16.149 5.861 4.752 13.659 7.229 20.873 9 12.29 3.024 25.178 3.147 37.714 1.865 8.2-.842 16.33-2.297 24.35-4.198 4.01-.95 7.992-2.016 11.952-3.168 7.654-2.232 13.558-7.689 15.977-15.336 2.721-8.61.194-17.856-4.327-25.38-5.091-8.467-12.039-16.538-20.283-22.082-2.966-1.994-6.458-3.398-9.734-4.788-11.333-4.795-23.609-8.222-35.979-8.33-6.343-.058-12.744.82-18.698 3.081a40.99 40.99 0 00-8.798 4.608c-2.945 2.03-5.098 4.68-7.762 6.984z" fill="#FF6100"/><path d="M33.617 78.826l24.783-9.85c1.497-.605 2.332-1.411 3.938-1.584l1.52.785h.057c11.62 2.045 23.241 4.097 34.855 6.141l8.114 1.426c.022 0 .036.007.058.007a11.275 11.275 0 018.266 6.336c1.735 3.73 3.456 7.474 5.191 11.203l11.16 24.041c-3.348 2.254-2.463 1.656-5.811 3.91l-21.103-25.913.396 38.585-7.79 1.101-10.649-41.976a67.446 67.446 0 01-22.58 4.925l-2.872-.093s-7.272-13.695-23.695-16.625l-3.838-2.42z" fill="#fff"/><path d="M97.107 135.223l-.036-.159L86.472 93.29a67.313 67.313 0 01-22.45 4.86l-2.987-.094-.05-.093c-.072-.137-7.424-13.651-23.566-16.531l-.065-.03-4.126-2.62 25.107-9.98c.511-.208.943-.438 1.36-.662.793-.424 1.541-.82 2.621-.936l.05-.007 1.527.785c.015 0 .03 0 .044.007l43.02 7.575A11.45 11.45 0 01115.359 82c.972 2.095 1.944 4.183 2.909 6.278.763 1.642 1.519 3.283 2.282 4.925l11.225 24.184-6.07 4.083-.1-.13-20.78-25.516.396 38.224-8.114 1.174zM86.717 92.8l.05.202 10.614 41.818 7.473-1.059-.403-38.937.324.396 21.002 25.79 5.544-3.73-11.095-23.904c-.763-1.641-1.519-3.283-2.282-4.924-.965-2.096-1.937-4.183-2.909-6.279a11.08 11.08 0 00-8.136-6.235l-.058-.007-42.962-7.575-.058.008-1.519-.785c-.986.115-1.656.475-2.44.886-.425.23-.872.46-1.398.676l-24.45 9.72 3.498 2.218c15.596 2.8 23.055 15.408 23.739 16.618l2.772.086a67.037 67.037 0 0022.507-4.91l.187-.073z" fill="#013"/><path d="M31.701 30.585s8.115 10.21 12.103 0c0 0 15.797-1.641 18.512 19.354l-3.442 2.88 3.456 14.573-25.2 10.13-6.84-13.701s-4.572 1.843-11.225 4.442a1.284 1.284 0 01-1.677-.749C15.472 62.323 9.583 41.745 31.7 30.585z" fill="#fff"/><path d="M37.05 77.753l-.071-.151-6.768-13.55c-.85.338-5.17 2.073-11.074 4.384A1.451 1.451 0 0118 68.407a1.452 1.452 0 01-.77-.828c-.915-2.484-2.938-9.036-1.866-16.315 1.325-9.05 6.797-16.063 16.265-20.844l.13-.065.093.115c.044.05 4.004 4.968 7.625 4.428 1.728-.259 3.132-1.735 4.169-4.377l.036-.101.108-.014c.151-.022 15.998-1.419 18.706 19.512l.014.1-3.434 2.873 3.47 14.616-.144.058-25.351 10.188zM30.385 63.59l.072.152 6.768 13.55L62.12 67.284l-3.449-14.537 3.45-2.887c-2.578-19.577-16.798-19.188-18.188-19.109-1.08 2.707-2.563 4.22-4.406 4.5-3.557.533-7.23-3.672-7.87-4.442-21.578 10.98-16.25 30.816-14.098 36.648.101.28.31.504.584.626.273.123.583.13.864.022 6.573-2.578 11.181-4.428 11.224-4.443l.152-.072z" fill="#013"/><path d="M63.296 32.702c.8 1.656 1.548 3.34 2.347 4.975 2.988 6.113 6.855 11.78 9.598 18.007.648 1.476 1.246 3.024 1.274 4.637.03 1.613-.59 3.32-1.93 4.22-1.432.957-3.39.784-4.931.014s-2.758-2.045-3.946-3.298c-2.484-2.62-4.96-5.241-7.445-7.862l3.557-3.039c.151-.13.317-.273.367-.475.05-.18-.007-.374-.064-.554-1.577-5.07-3.161-10.145-4.738-15.214-.533-1.713-1.152-3.55-2.606-4.6-1.217-.886-2.75-1.009-4.112-1.563a.947.947 0 01-.345-.209.48.48 0 01-.094-.475c.151-.44.929-.518 1.318-.518.173 0 .907-.037.806-.274-.079-.187-.727-.28-.907-.353-.36-.137-.72-.28-1.08-.418-.295-.115-.662-.367-.54-.662.086-.216.374-.252.612-.252.698-.007 1.39-.007 2.088-.014-.166 0-.432-.188-.59-.252-.21-.087-.425-.18-.634-.267-.36-.15-.72-.295-1.08-.446-.842-.338-.08-.9.49-.878.777.036 1.548.064 2.325.1-.417-.36-1.173-1.145-.957-1.778.23-.648 1.23-.029 1.584.151a16.692 16.692 0 013.808 2.664c2.585 2.369 4.292 5.45 5.825 8.633z" fill="#fff"/><path d="M72.288 65.376c-.986 0-1.951-.281-2.722-.663-1.59-.792-2.865-2.145-3.996-3.333l-7.437-7.863a.19.19 0 01-.05-.137c0-.05.028-.093.064-.13l3.557-3.038c.151-.13.273-.244.31-.381.035-.137-.015-.31-.065-.461L57.21 34.156c-.59-1.886-1.18-3.528-2.534-4.514-.756-.547-1.627-.792-2.542-1.051-.504-.144-1.03-.288-1.526-.49-.137-.057-.296-.13-.41-.259a.658.658 0 01-.13-.655c.187-.54 1.008-.634 1.483-.641.237 0 .453-.036.569-.065-.123-.05-.36-.108-.476-.137-.108-.028-.201-.05-.259-.072l-1.08-.417c-.15-.058-.51-.223-.64-.519a.47.47 0 010-.381c.15-.36.626-.367.777-.367l1.217-.008-.418-.18c-.36-.15-.72-.295-1.08-.446-.49-.202-.51-.475-.475-.626.08-.353.576-.598 1-.598h.044l1.85.08c-.403-.426-.856-1.066-.655-1.635a.593.593 0 01.339-.367c.417-.166 1.015.158 1.375.352l.122.065c1.411.713 2.7 1.62 3.852 2.693 2.643 2.455 4.37 5.638 5.847 8.705.36.749.705 1.497 1.058 2.246.418.9.85 1.829 1.289 2.729 1.31 2.678 2.815 5.32 4.27 7.87 1.864 3.268 3.787 6.645 5.328 10.144.604 1.383 1.26 2.996 1.295 4.702.037 1.843-.734 3.52-2.008 4.37-.75.504-1.584.692-2.405.692zm-13.76-11.974l7.309 7.726c1.159 1.224 2.361 2.498 3.895 3.261 1.31.655 3.247 1.001 4.752 0 1.18-.785 1.886-2.34 1.85-4.06-.036-1.642-.67-3.219-1.26-4.565-1.533-3.485-3.456-6.855-5.313-10.11-1.462-2.555-2.967-5.205-4.284-7.89-.44-.9-.871-1.836-1.296-2.736-.346-.75-.699-1.498-1.051-2.247-1.462-3.038-3.169-6.185-5.768-8.604a16.657 16.657 0 00-3.773-2.635l-.13-.065c-.266-.144-.813-.432-1.072-.331-.036.014-.093.043-.13.151-.201.569.641 1.354.9 1.584.058.05.08.13.05.202-.028.072-.093.122-.172.115l-2.325-.1c-.317-.03-.648.186-.677.316-.015.058.086.144.259.216.36.144.72.295 1.08.446l.633.267c.05.021.116.057.18.093.101.05.267.144.339.144.1 0 .18.08.18.18 0 .101-.08.18-.18.18l-2.088.015c-.26 0-.41.05-.447.144a.123.123 0 000 .1c.05.109.224.238.44.325l1.08.417c.043.015.122.036.216.058.41.1.712.187.792.396a.26.26 0 01-.03.259c-.136.209-.59.26-.95.26-.49.006-1.05.114-1.144.402a.312.312 0 00.057.296.764.764 0 00.281.165c.483.195.994.339 1.49.483.908.259 1.85.518 2.657 1.108 1.563 1.13 2.203 3.19 2.672 4.695l4.737 15.213c.058.188.13.418.065.656-.072.259-.274.432-.425.561l-3.398 2.909z" fill="#013"/><path d="M104.651 95.335c-.338-2.21-.691-4.45-1.598-6.495-2.376-5.342-7.33-5.119-12.32-6.07-4.52-.863-9.05-1.727-13.571-2.599-2.556-.49-14.76-3.744-17.316-4.226" fill="#fff"/><path d="M104.472 95.364c-.331-2.168-.677-4.414-1.584-6.452-1.944-4.37-5.724-4.953-9.734-5.558-.8-.123-1.627-.245-2.456-.403l-13.571-2.6c-1.282-.244-5.033-1.195-8.655-2.116-3.629-.922-7.387-1.872-8.661-2.117l.064-.353c1.282.245 5.04 1.195 8.676 2.117 3.622.914 7.366 1.865 8.633 2.11l13.572 2.599c.821.158 1.642.28 2.44.403 4.105.626 7.986 1.217 10.009 5.767.922 2.08 1.274 4.349 1.613 6.538l-.346.064z" fill="#013"/><path d="M132.371 119.138l10.059-2.016.612.741-12.73 10.757-2.873-5.99 4.932-3.492z" fill="#fff"/><path d="M130.255 128.909l-3.038-6.344 5.119-3.607 10.166-2.03.8.957-.137.116-12.91 10.908zm-2.585-6.221l2.708 5.645 12.412-10.491-.432-.518-9.914 1.98-4.774 3.384zM34.438 19.814s-2.232-3.161 1.828-2.261c0 0 17.835-2.26 16.373-11.966-.021-.166-1.764-.454-1.915-.49a33.728 33.728 0 00-4.716-.706c-1.966-.15-3.96-.115-5.904.252-1.965.382-3.895 1.116-5.472 2.39-1.778 1.44-2.901 3.471-3.441 5.674-.936 3.816.252 7.41.979 11.139.014.072.18 1.166.23 1.173l1.807.152.23-5.357z" fill="#013"/><path d="M35.97 17.496v4.975h.994l.98-5.954-1.973.979zM42.761 26.43s-1.735.397-3.974-.863c0 0 .806 3.14 4.723 3.694l-.748-2.83zM63.928 54.863a.183.183 0 01-.173-.122l-1.663-4.702a.179.179 0 01.108-.23.179.179 0 01.23.108l1.663 4.702a.179.179 0 01-.108.23c-.021.014-.036.014-.057.014z" fill="#013"/><path d="M33.205 62.439s-.504-7.654-2.361-11.103l2.361 11.103z" fill="#fff"/><path d="M33.026 62.453c-.008-.08-.526-7.654-2.34-11.03l.316-.174c1.85 3.442 2.362 10.865 2.384 11.175l-.36.029z" fill="#013"/><path d="M31.176 51.25l4.154 13.543-.9 3.384-3.715-16.726.46-.202z" fill="#013"/><path d="M21.076 67.536a44.329 44.329 0 004.155 6.984c1.137 1.562 2.404 3.139 3.981 4.284 3.168 2.297 5.904 1.742 8.741-.504 3.312-2.614 4.982-6.74 5.969-10.728 1.411-5.667.648-12.6.425-18.41 0 0 6.364-4.025-1.347-6.833l1.735-3.125c.584-.843-.59-1.829-1.288-1.08a6.596 6.596 0 00-.677.864s-3.744 4.01-2.887 8.69L34.425 68.17l-1.217-5.738-12.132 5.105z" fill="#fff"/><path d="M33.207 80.467c-1.36 0-2.7-.511-4.096-1.52-1.65-1.194-2.96-2.858-4.025-4.32a44.483 44.483 0 01-4.176-7.012.197.197 0 01-.007-.144.156.156 0 01.1-.1l12.14-5.098a.16.16 0 01.15.007c.051.029.08.072.094.122l1.066 5.004 5.256-19.728c-.835-4.694 2.902-8.762 2.938-8.805a6.95 6.95 0 01.676-.864c.432-.461 1.008-.368 1.361-.087.36.295.583.85.209 1.39l-1.62 2.923c2.333.886 3.586 1.98 3.73 3.269.201 1.857-1.973 3.427-2.456 3.751.044 1.044.101 2.124.159 3.226.266 4.917.561 10.49-.59 15.134-1.26 5.076-3.233 8.611-6.034 10.822-1.728 1.36-3.312 2.03-4.875 2.03zM21.32 67.629a44.081 44.081 0 004.061 6.79c1.051 1.44 2.34 3.074 3.946 4.24 2.844 2.067 5.479 1.916 8.524-.496 2.736-2.16 4.666-5.638 5.912-10.627 1.137-4.594.842-10.138.583-15.027-.058-1.137-.123-2.253-.166-3.333a.18.18 0 01.087-.159c.028-.014 2.57-1.648 2.376-3.463-.13-1.173-1.368-2.203-3.687-3.045a.199.199 0 01-.108-.108.16.16 0 01.015-.152l1.735-3.124c.252-.368.115-.72-.13-.922-.216-.173-.569-.266-.871.05a7.045 7.045 0 00-.655.843c-.058.057-3.687 4.025-2.859 8.553.008.03 0 .05 0 .08l-5.457 20.49c-.022.08-.08.123-.18.138-.087 0-.151-.058-.173-.144l-1.174-5.523-11.779 4.94z" fill="#013"/></g></g><defs><clipPath id="clip0"><path fill="#fff" d="M0 0h144v144H0z"/></clipPath><clipPath id="clip1"><path fill="#fff" transform="translate(0 4.32)" d="M0 0h143.294v139.356H0z"/></clipPath></defs></svg>