<svg width="144" height="144" viewBox="0 0 144 144" fill="none" xmlns="http://www.w3.org/2000/svg">
<g clip-path="url(#clip0)">
<path fill-rule="evenodd" clip-rule="evenodd" d="M129.613 54.8698C131.757 72.3771 122.601 87.1451 112.674 98.6778C103.826 108.956 92.0456 116.493 79.6984 112.857C68.5725 109.577 65.4149 92.5583 57.1125 82.3076C43.3302 65.2951 13.3109 57.8282 16.7686 35.1694C20.1635 12.9357 48.9326 24.0692 66.6718 19.6654C78.9711 16.61 90.3793 7.27211 102.289 13.9353C115.817 21.4973 127.404 36.8371 129.613 54.8698Z" fill="#FF6100" fill-opacity="0.15"/>
<g clip-path="url(#clip1)">
<path d="M95.1936 35.5296C95.4466 35.9344 95.7069 36.3971 95.6129 36.867C95.5333 37.2864 95.1719 37.6117 94.7742 37.778C94.3766 37.937 93.9356 37.9659 93.509 37.9876C92.5114 38.0455 91.5137 38.0961 90.516 38.1539C90.0894 37.3514 89.6629 36.5489 89.2363 35.7464C90.8991 35.7898 92.5114 35.1247 93.8995 34.1993C94.1886 34.0041 94.4923 33.7727 94.6007 33.4402C94.7598 33.339 94.9911 33.4402 95.0779 33.6137C95.1646 33.78 95.0851 33.9824 95.02 34.1631C94.955 34.3439 94.7019 34.5174 94.6369 34.6981C95.7575 34.3439 97.0877 33.9824 98.2083 33.6282C98.3095 33.592 98.512 33.5125 98.6204 33.5703C98.7289 33.6282 98.7072 33.7944 98.6421 33.8812C98.577 33.9607 98.4758 34.0113 98.3818 34.0547C97.3118 34.5463 96.2491 35.0379 95.1936 35.5296Z" fill="white"/>
<path d="M90.5142 38.3416C90.4492 38.3416 90.3841 38.3055 90.3552 38.2476L89.0755 35.8402C89.0466 35.7823 89.0466 35.7172 89.0828 35.6594C89.1189 35.6016 89.1623 35.5582 89.2418 35.5727C90.695 35.616 92.2566 35.0883 93.7965 34.0617C94.0495 33.8881 94.3315 33.6857 94.4255 33.3965C94.4399 33.3532 94.4689 33.3242 94.505 33.2953C94.6135 33.2302 94.7508 33.2086 94.881 33.2447C95.0328 33.2881 95.1701 33.3965 95.2352 33.5339C95.3509 33.7652 95.2641 34.0038 95.1918 34.199C95.1701 34.2569 95.1412 34.3075 95.1123 34.3581C95.5172 34.2352 95.9365 34.1123 96.3558 33.9894C96.9703 33.8086 97.5848 33.6279 98.1487 33.4544C98.3295 33.3965 98.5392 33.3242 98.6982 33.411C98.785 33.4544 98.8428 33.5339 98.8645 33.6351C98.8862 33.758 98.8573 33.8954 98.7777 33.9966C98.6837 34.1123 98.5536 34.1773 98.4524 34.2207C97.4547 34.6834 96.4498 35.1461 95.4521 35.616C95.6834 36.0064 95.8786 36.4474 95.7919 36.9101C95.7051 37.3584 95.3509 37.7488 94.8448 37.9512C94.4183 38.1247 93.9628 38.1536 93.5218 38.1753L90.5287 38.3416C90.5215 38.3416 90.5142 38.3416 90.5142 38.3416ZM89.531 35.9269L90.6155 37.9657L93.4929 37.8066C93.905 37.7849 94.3315 37.7632 94.7002 37.6114C95.0039 37.4885 95.3509 37.221 95.4304 36.8306C95.5099 36.4258 95.2786 36.0137 95.0328 35.6233C95.0039 35.5799 94.9966 35.5293 95.0111 35.4787C95.0255 35.4281 95.0617 35.3919 95.1051 35.363C96.1606 34.8714 97.2234 34.3725 98.2861 33.8881C98.3656 33.852 98.4379 33.8159 98.4813 33.7652C98.4958 33.7508 98.503 33.7146 98.503 33.7002C98.4885 33.7146 98.3512 33.758 98.2933 33.7797L98.25 33.7942C97.686 33.9749 97.0643 34.1556 96.4498 34.3364C95.8425 34.5171 95.2352 34.6906 94.6785 34.8641C94.6135 34.8858 94.5412 34.8641 94.4978 34.8208C94.4472 34.7702 94.4327 34.6979 94.4544 34.6328C94.4978 34.5099 94.5918 34.4015 94.6785 34.3002C94.7436 34.2279 94.8087 34.1484 94.8303 34.0978C94.8882 33.9315 94.946 33.7869 94.8954 33.6929C94.8665 33.6423 94.8159 33.599 94.7653 33.5845C94.7508 33.5845 94.7364 33.5773 94.7219 33.5773C94.5845 33.9098 94.2809 34.1412 93.9772 34.3436C92.4952 35.3558 90.9625 35.898 89.531 35.9269Z" fill="#001133"/>
<path d="M53.6712 40.778L54.7556 37.2283C54.7556 37.2283 59.2452 38.3127 57.8716 30.924C57.8716 30.924 57.4378 25.7114 52.5144 27.3742C52.5144 27.3742 49.8322 27.0128 49.7599 33.6062L49.3262 36.0715L53.6712 40.778Z" fill="white"/>
<path d="M53.7526 41.1323L49.1328 36.1293L49.5811 33.5773C49.6172 29.8757 50.5064 28.3286 51.2439 27.6923C51.8078 27.208 52.3283 27.1863 52.4874 27.2007C53.9767 26.7091 55.2129 26.7742 56.1745 27.4032C57.8373 28.4876 58.047 30.8156 58.0542 30.9095C58.5892 33.758 58.3145 35.7317 57.2445 36.7439C56.3914 37.5536 55.2997 37.4885 54.8876 37.4307L53.7526 41.1323ZM49.5232 36.0137L53.5935 40.4237L54.6346 37.0114L54.8009 37.0547C54.8153 37.0547 56.0877 37.3511 56.9987 36.4836C57.9602 35.5727 58.1988 33.6568 57.6999 30.9601C57.6927 30.9168 57.4903 28.69 55.9865 27.6996C55.1117 27.1284 53.9694 27.0778 52.5741 27.5478L52.5307 27.5622L52.4874 27.555C52.4657 27.555 52.003 27.5044 51.468 27.9743C50.7956 28.5671 49.9787 30.0275 49.9425 33.6062L49.5232 36.0137Z" fill="#001133"/>
<path d="M3.20312 98.3766L7.47584 106.9L144 86.52L143.747 86.3103L3.49231 93.8074L3.20312 98.3766Z" fill="#E04B00"/>
<path d="M53.9262 48.8536C53.9262 48.8536 86.7271 41.1902 92.0047 38.2983C92.1999 38.1899 92.2722 37.9585 92.1854 37.7561L91.1516 35.3848L54.2804 41.53C54.2804 41.5227 49.7908 43.6555 53.9262 48.8536Z" fill="white"/>
<path d="M53.8527 49.0559L53.7804 48.9691C52.3128 47.1256 51.7417 45.4483 52.0815 43.9879C52.5008 42.195 54.1275 41.3997 54.1925 41.3708L54.2431 41.3563L91.2589 35.1895L92.3434 37.6909C92.4735 37.9801 92.3578 38.3127 92.0831 38.4645C86.8416 41.3346 55.2987 48.7233 53.9612 49.0342L53.8527 49.0559ZM54.3371 41.6961C54.1492 41.7901 52.79 42.542 52.443 44.0602C52.1393 45.3905 52.6599 46.9304 53.9973 48.6438C56.1084 48.145 86.8778 40.8936 91.9168 38.1319C92.0253 38.0741 92.0686 37.9367 92.018 37.821L91.042 35.5799L54.3371 41.6961Z" fill="#001133"/>
<path d="M49.1983 35.8545L52.8131 39.8886C53.818 41.0092 54.4036 42.4479 54.4542 43.9589C54.5193 46.1061 54.4253 49.4534 53.5794 53.0972C53.1312 55.0492 52.3865 56.9289 51.4105 58.6785C49.9502 61.2884 47.4053 66.3853 47.6656 69.776C47.6656 69.776 42.8217 72.0244 32.1797 69.0675C32.1797 69.0602 35.0137 39.9898 49.1983 35.8545Z" fill="white"/>
<path d="M42.1854 70.7812C39.7201 70.7812 36.3872 70.4197 32.129 69.2413L31.9844 69.1979L31.9988 69.0461C32.0278 68.7569 35.0136 39.8022 49.1475 35.6813L49.256 35.6523L52.9431 39.7732C53.9842 40.9372 54.5842 42.4193 54.6276 43.9592C54.6927 46.1353 54.5915 49.4899 53.7528 53.1408C53.3046 55.0856 52.5672 56.9798 51.5622 58.7727C50.0657 61.4549 47.5859 66.4506 47.839 69.769L47.8462 69.8919L47.7305 69.9425C47.6149 69.9931 45.8508 70.7812 42.1854 70.7812ZM32.3748 68.9304C41.8384 71.5331 46.6895 69.957 47.4703 69.6533C47.2895 66.241 49.7476 61.267 51.2514 58.5848C52.2346 56.8207 52.9648 54.9555 53.4058 53.0469C54.2372 49.432 54.3384 46.1064 54.2734 43.9592C54.23 42.506 53.6661 41.1035 52.6828 40.0046L49.1475 36.0572C35.8522 40.0769 32.6206 66.6675 32.3748 68.9304Z" fill="#001133"/>
<path d="M0 134.46L144 86.52L2.96415 105.7L0 134.46Z" fill="#FF6100"/>
<path d="M3.93338 78.1191L143.747 86.3103L3.05859 98.1669L3.93338 78.1191Z" fill="#FF6100"/>
<path d="M47.6562 69.769C47.6562 69.769 64.7905 55.129 68.2969 61.0501C68.774 61.8526 68.803 62.843 68.4921 63.7178L60.5033 89.0216L56.4981 83.7222L59.0502 71.215L53.534 78.7049L47.6562 69.769Z" fill="white"/>
<path d="M60.5759 89.4191L56.3104 83.7727L58.7107 71.9884L53.527 79.0229L47.418 69.74L47.5409 69.6388C48.0686 69.1905 60.5615 58.5702 66.2873 59.5317C67.2561 59.6908 67.9863 60.1752 68.4562 60.9704C68.9334 61.7802 69.0129 62.8068 68.6659 63.79L60.5759 89.4191ZM56.6936 83.6787L60.4386 88.6383L68.3261 63.6671C68.637 62.7851 68.5719 61.8669 68.1454 61.144C67.726 60.4354 67.0971 60.0234 66.2295 59.8788C60.9663 59.0112 49.2254 68.6917 47.9024 69.8051L53.5487 78.3866L59.3975 70.4485L56.6936 83.6787Z" fill="#001133"/>
<path d="M17.3438 128.698L21.4068 135.313L144 86.52L17.3438 128.698Z" fill="#E04B00"/>
<path d="M54.8155 37.1486C54.8155 37.1486 53.637 36.7943 52.9068 35.6665C52.9068 35.6665 52.5092 37.1269 53.9696 39.5271L54.8155 37.1486Z" fill="#001133"/>
<path d="M58.7183 29.4853C58.8123 29.0371 58.8991 28.5599 58.7762 28.1189C58.646 27.6345 58.2701 27.2441 57.8652 26.9333C56.5422 25.8994 54.8649 25.4584 53.231 25.0463C52.5948 24.8873 51.9369 24.721 51.2863 24.7788C50.4693 24.8511 49.7246 25.2488 49.0523 25.7115C47.6642 26.6585 46.4713 27.8804 45.0398 28.7624C44.0277 29.3769 42.9071 29.8251 41.7359 30.0782C40.5791 30.324 39.3212 30.389 38.3452 31.0542C37.1017 31.9073 36.6462 33.5339 36.7041 35.0232C36.7185 35.4064 36.7619 35.7968 36.9209 36.1511C37.0583 36.4764 37.2897 36.7584 37.4559 37.0692C37.7524 37.6115 37.868 38.2549 37.7813 38.8622C37.6439 39.8888 36.9643 40.9299 37.3764 41.8842C37.7234 42.6867 38.7067 43.0192 39.5959 43.0988C41.3455 43.2578 43.1457 42.7734 44.5771 41.7685C46.0231 40.7563 47.1581 39.202 48.8715 38.7248C49.5222 38.5441 50.2235 38.5296 50.8308 38.2477C51.5321 37.9151 52.0092 37.2717 52.4285 36.6282C53.1804 35.4787 53.8383 34.0256 53.2455 32.7821C53.1081 32.4929 52.8985 32.2181 52.8695 31.8928C52.8479 31.5675 53.137 31.1988 53.4479 31.3C53.6359 31.3578 53.7371 31.5602 53.8889 31.6976C54.2649 32.0446 54.8794 31.9145 55.3349 31.6759C55.7903 31.4373 56.2386 31.112 56.7519 31.1192C57.2073 31.1265 57.9448 31.5602 58.3352 31.2132C58.6316 30.9385 58.646 29.8685 58.7183 29.4853Z" fill="#001133"/>
<path d="M58.034 32.9918C58.034 32.9918 59.0245 32.9485 58.569 29.63L57.5352 29.5867L58.034 32.9918Z" fill="#001133"/>
<path d="M63.0207 99.5117C63.0207 99.5117 54.5114 106.843 34.1816 92.0291L63.0207 99.5117Z" fill="#001133"/>
<path d="M68.1386 99.9311C74.1598 99.9311 79.0409 95.0499 79.0409 89.0288C79.0409 83.0076 74.1598 78.1265 68.1386 78.1265C62.1175 78.1265 57.2363 83.0076 57.2363 89.0288C57.2363 95.0499 62.1175 99.9311 68.1386 99.9311Z" fill="white"/>
<path d="M68.1397 100.112C62.0306 100.112 57.0566 95.1376 57.0566 89.0286C57.0566 82.9196 62.0306 77.9456 68.1397 77.9456C74.2487 77.9456 79.2227 82.9196 79.2227 89.0286C79.2227 95.1376 74.2487 100.112 68.1397 100.112ZM68.1397 78.307C62.2258 78.307 57.4181 83.1148 57.4181 89.0286C57.4181 94.9424 62.2258 99.7502 68.1397 99.7502C74.0535 99.7502 78.8612 94.9424 78.8612 89.0286C78.8612 83.1148 74.0535 78.307 68.1397 78.307Z" fill="#001133"/>
<path d="M70.8867 92.9182C70.3807 93.4171 69.7083 93.7352 68.8624 93.8581V95.3474H67.4816V93.8798C66.8743 93.8364 66.3176 93.7135 65.8043 93.5255C65.291 93.3375 64.85 93.0845 64.4668 92.7664L65.0524 91.5012C65.5151 91.8482 65.985 92.1013 66.4549 92.2603C66.9321 92.4266 67.4454 92.5061 67.9949 92.5061C68.6094 92.5061 69.0793 92.3905 69.4119 92.1519C69.7444 91.9133 69.9107 91.5807 69.9107 91.1325C69.9107 90.8722 69.8167 90.6554 69.636 90.4963C69.4553 90.33 69.2311 90.2071 68.9636 90.1059C68.6961 90.0119 68.3202 89.9035 67.8286 89.7733C67.1418 89.5998 66.5851 89.4263 66.1585 89.2528C65.732 89.0793 65.3705 88.8046 65.0596 88.4359C64.7488 88.0671 64.5969 87.5828 64.5969 86.961C64.5969 86.238 64.8644 85.6163 65.3922 85.103C65.92 84.5897 66.6068 84.2643 67.4454 84.1414V82.6738H68.8263V84.1487C69.3396 84.2137 69.8312 84.3366 70.3011 84.5318C70.7638 84.7198 71.1542 84.9584 71.4579 85.2404L70.8723 86.5055C70.0336 85.8476 69.1299 85.5151 68.1756 85.5151C67.6117 85.5151 67.1707 85.638 66.8381 85.8838C66.5056 86.1296 66.3393 86.4694 66.3393 86.9032C66.3393 87.1996 66.4333 87.4454 66.6212 87.6261C66.8092 87.8141 67.055 87.9587 67.3442 88.0671C67.6406 88.1756 68.031 88.2913 68.5299 88.4069C69.1878 88.5732 69.7228 88.7323 70.1348 88.9058C70.5469 89.0721 70.894 89.3323 71.1831 89.6866C71.4723 90.0408 71.6169 90.5108 71.6169 91.0964C71.6458 91.8049 71.3928 92.4194 70.8867 92.9182Z" fill="#001133"/>
<path d="M32.1801 69.104C32.1151 69.1185 32.05 69.1474 31.9849 69.1835C31.768 69.3281 31.703 69.6173 31.6596 69.8776C31.327 71.8296 30.9945 73.796 31.1246 75.7697C31.2547 77.7434 31.8837 79.746 33.2501 81.1775C34.5515 82.5367 36.3661 83.2452 38.0867 83.9898C43.1041 86.166 47.854 88.9855 52.1629 92.3473C46.4731 90.8219 40.7906 89.2964 35.1009 87.7637C34.7322 89.2096 34.3635 90.6483 34.002 92.0943C40.9063 95.8465 48.013 99.6709 55.8066 100.676C57.5273 100.9 59.3058 100.972 60.9686 100.488C62.7037 99.9818 64.6268 98.6443 64.9449 96.7429C65.3136 94.5307 63.1302 92.7522 62.0096 91.0966C58.6045 86.0358 55.1993 80.9823 51.7942 75.9216C50.7603 74.3816 49.7192 72.849 48.6854 71.309C48.1649 70.5282 47.9552 70.0222 47.131 69.7474C46.3213 69.4727 45.0706 69.6535 44.2175 69.6173C40.3424 69.4366 36.4673 69.2631 32.5922 69.0823C32.4549 69.0751 32.3175 69.0679 32.1801 69.104Z" fill="white"/>
<path d="M58.1989 101.037C57.3313 101.037 56.5144 100.958 55.7914 100.864C47.8677 99.8443 40.4573 95.8174 33.9217 92.2676L33.7988 92.2025L34.9773 87.5611L35.1508 87.6117L51.3379 91.9567C47.2315 88.8335 42.7564 86.2164 38.0209 84.1632L37.6016 83.9824C36.0039 83.2956 34.3483 82.5799 33.1265 81.3075C31.8685 79.9917 31.0949 78.0324 30.9503 75.784C30.8202 73.7814 31.16 71.7788 31.4853 69.8485C31.5359 69.5521 31.6082 69.2195 31.883 69.0315C31.9553 68.9809 32.042 68.9448 32.136 68.9231C32.2878 68.887 32.4397 68.8942 32.5987 68.9014L44.224 69.4364C44.4915 69.4509 44.7951 69.4364 45.1277 69.4292C45.8217 69.4075 46.6098 69.3858 47.1954 69.581C47.9545 69.834 48.2364 70.275 48.6196 70.8751C48.6919 70.9835 48.7642 71.092 48.8437 71.2149L62.1679 91.0024C62.4427 91.4073 62.7825 91.8194 63.1367 92.2604C64.2067 93.5617 65.4141 95.0438 65.1249 96.7789C64.7995 98.7381 62.8331 100.141 61.0184 100.668C60.0858 100.943 59.117 101.037 58.1989 101.037ZM34.2181 92.0146C40.6959 95.5354 48.0268 99.5045 55.8348 100.509C57.2735 100.697 59.1604 100.842 60.9244 100.329C62.6234 99.8298 64.4742 98.5285 64.7706 96.7283C65.0309 95.1522 63.9248 93.8003 62.8548 92.4917C62.4933 92.0507 62.1463 91.6314 61.8643 91.2049L48.5473 71.4101C48.4678 71.2872 48.3882 71.1715 48.3232 71.0631C47.9472 70.4775 47.7231 70.1305 47.0869 69.9136C46.5664 69.74 45.8145 69.7617 45.1494 69.7834C44.8168 69.7907 44.5059 69.8051 44.224 69.7907L32.5987 69.2557C32.4686 69.2484 32.3457 69.2484 32.2372 69.2701C32.1866 69.2846 32.1432 69.299 32.1071 69.328C31.9553 69.4364 31.8974 69.6678 31.8613 69.9063C31.5359 71.8222 31.2034 73.7959 31.3263 75.7623C31.4637 77.924 32.2011 79.8037 33.4084 81.0617C34.5796 82.2835 36.1991 82.9775 37.7679 83.6571L38.1872 83.8379C43.2263 86.0212 47.9762 88.8408 52.3067 92.2242L53.008 92.7737L35.2664 88.0094L34.2181 92.0146Z" fill="#001133"/>
<path d="M46.9426 49.5476L36.756 58.7003L43.2989 73.0006L41.224 74.6923L30.0036 61.7585C28.9986 60.4354 29.0492 58.5991 30.112 57.3267L41.5565 43.7061" fill="white"/>
<path d="M41.2226 74.8731C41.1719 74.8731 41.1213 74.8514 41.0852 74.808L29.8648 61.8814C28.7948 60.4717 28.8454 58.5558 29.9732 57.2111L41.425 43.5977C41.49 43.5254 41.6057 43.5109 41.678 43.576C41.7575 43.641 41.7648 43.7567 41.6997 43.829L30.248 57.4497C29.2286 58.6642 29.1852 60.3921 30.1395 61.6573L41.237 74.4466L43.0661 72.9572L36.5811 58.7871C36.5522 58.7148 36.5667 58.6281 36.6245 58.5775L46.8111 49.4248C46.8834 49.3597 46.999 49.3669 47.0641 49.4392C47.1292 49.5115 47.1219 49.6272 47.0496 49.6923L36.9715 58.7438L43.4565 72.9211C43.4927 72.9934 43.471 73.0874 43.4059 73.138L41.331 74.8297C41.3021 74.8586 41.2587 74.8731 41.2226 74.8731Z" fill="#001133"/>
<path d="M31.1389 75.9575L31.1172 75.596C32.6643 75.5165 33.8066 75.0176 34.5151 74.0995C35.5417 72.7692 35.361 70.9329 35.2887 70.434L31.645 70.0653L31.6811 69.7039L35.5996 70.1015L35.6285 70.2316C35.6502 70.3256 36.1129 72.6391 34.8115 74.3164C34.038 75.3213 32.8017 75.8707 31.1389 75.9575Z" fill="#001133"/>
<path d="M31.7812 90.6698L34.1526 91.5229L34.9117 88.5805L32.7283 87.9949L31.7812 90.6698Z" fill="white"/>
<path d="M34.2744 91.7616L31.5488 90.7784L32.6188 87.7781L35.1347 88.4577L34.2744 91.7616ZM32.0115 90.5615L34.0286 91.2844L34.6937 88.7107L32.8502 88.2119L32.0115 90.5615Z" fill="#001133"/>
<path d="M32.9385 87.8286L31.7962 91.0457L30.9504 94.3497L32.5987 95.0437L32.512 95.6076L27.9067 95.1739L28.1597 88.7612L27.7404 88.725C27.4729 88.7033 27.2777 88.4503 27.3283 88.19L27.6103 86.5995C27.6609 86.3248 27.9428 86.1585 28.2103 86.2453L32.9385 87.8286Z" fill="white"/>
<path d="M32.6636 95.8029L27.7185 95.333L27.9716 88.9203L27.7258 88.8986C27.545 88.8842 27.386 88.7974 27.2703 88.6528C27.1619 88.5082 27.1185 88.3275 27.1474 88.154L27.4294 86.5635C27.4583 86.3827 27.574 86.2237 27.733 86.1225C27.8921 86.0285 28.0873 86.0068 28.2608 86.0646L33.1769 87.7057L31.9696 91.0964L31.1599 94.2413L32.801 94.9282L32.6636 95.8029ZM28.0873 95.0077L32.3527 95.4125L32.3889 95.1523L30.7261 94.451L31.6153 90.9952L32.6998 87.9371L28.1379 86.4189C28.0583 86.39 27.9788 86.4044 27.9065 86.4406C27.8342 86.4767 27.7908 86.549 27.7764 86.6285L27.4944 88.219C27.48 88.2986 27.5017 88.3781 27.5523 88.4359C27.6029 88.501 27.6679 88.5372 27.7475 88.5444L28.3403 88.595L28.0873 95.0077Z" fill="#001133"/>
<path d="M37.4423 59.9366L47.2384 49.591L46.9276 49.3958L36.7988 58.469L37.4423 59.9366Z" fill="#001133"/>
<path d="M40.1032 75.5454C40.0382 75.5454 39.9731 75.5093 39.9369 75.437C39.8936 75.343 39.9369 75.2418 40.0237 75.1984C40.0526 75.1839 43.0891 73.7669 43.7614 71.7932C43.7903 71.6992 43.8988 71.6486 43.9928 71.6776C44.0867 71.7065 44.1374 71.8149 44.1084 71.9089C43.3927 74.0344 40.3129 75.4659 40.1827 75.5237C40.1538 75.5382 40.1321 75.5454 40.1032 75.5454Z" fill="#001133"/>
</g>
</g>
<defs>
<clipPath id="clip0">
<rect width="144" height="144" fill="white"/>
</clipPath>
<clipPath id="clip1">
<rect width="144" height="110.548" fill="white" transform="translate(0 24.7644)"/>
</clipPath>
</defs>
</svg>
