<svg width="144" height="144" fill="none" xmlns="http://www.w3.org/2000/svg"><g clip-path="url(#clip0)"><g clip-path="url(#clip1)"><path fill-rule="evenodd" clip-rule="evenodd" d="M95.483 6.18c16.589 6.345 25.413 21.454 30.995 35.723 4.974 12.718 6.127 26.753-2.928 36.026-8.163 8.353-24.795 3.14-37.83 5.695-21.634 4.244-42.43 27.435-60.96 13.677-18.184-13.502 5.284-33.852 9.728-51.712 3.08-12.384.149-26.937 11.692-34.393C59.285 2.724 78.397-.354 95.483 6.18z" fill="#FF6100" fill-opacity=".15"/><g clip-path="url(#clip2)"><path d="M71.752 34.703l-1.54-2.565-3.605-.041-3.212 2.745V39.7l2.032 2.425 4.236-.86" fill="#fff"/><path d="M65.427 42.33a.202.202 0 01-.156-.075l-2.04-2.433a.186.186 0 01-.05-.131v-4.86c0-.057.025-.114.074-.155l3.212-2.745c.041-.033.099-.057.14-.049l3.605.04a.2.2 0 01.172.1l1.54 2.58a.202.202 0 01-.073.279.202.202 0 01-.279-.074l-1.475-2.474-3.416-.033-3.081 2.63v4.687l1.909 2.278 4.113-.836c.107-.016.221.05.238.164a.199.199 0 01-.164.238l-4.236.86c0 .008-.017.008-.033.008z" fill="#013"/><path d="M60.308 62.492l24.901 1.656 5.687 30.473.385 44.403-37.709-.025 6.736-76.507z" fill="#fff"/><path d="M91.486 139.228l-38.134-.024.016-.222 6.752-76.711.196.016 25.058 1.663.032.156 5.687 30.474.393 44.648zm-37.684-.434l37.274.025-.385-44.199-5.654-30.284-24.54-1.631-6.695 76.089z" fill="#013"/><path d="M25.388 139.102s-14.24-65.691 25.5-75.573l9.185-2.983 8.039 78.556H25.388z" fill="#fff"/><path d="M68.342 139.306H25.225l-.033-.164c-.032-.164-3.548-16.659-2.155-34.145.82-10.283 3.147-18.895 6.924-25.597C34.697 71 41.72 65.593 50.84 63.323l9.415-3.065.025.255 8.063 78.793zm-42.79-.41h42.33l-7.988-78.08-8.948 2.909c-9.022 2.245-15.954 7.579-20.632 15.88-3.753 6.653-6.064 15.207-6.875 25.425-1.311 16.495 1.753 32.112 2.114 33.866zM71.516 35.508c.008.074.016.156.016.246-.008 0-.016-.09-.016-.246z" fill="#013"/><path d="M71.317 35.768s-.008-.09-.016-.254l.41-.033c.008.09.016.172.016.27l-.41.017z" fill="#013"/><path d="M59.648 63.051l.402.46 1.573 1.785c13.455 10.554 23.353-.393 23.353-.393l.131-10.816c11.742-.524 8.841-26.647 8.841-26.647-.049-.09-.09-.172-.13-.254-8.817-16.772-19.79-4.883-19.79-4.883-2.867 2.868-2.597 11.234-2.515 12.848" fill="#fff"/><path d="M73.366 70.067c-3.441 0-7.473-1.164-11.865-4.605l-2.007-2.27a.206.206 0 01.016-.286.206.206 0 01.287.016l1.983 2.245c3.77 2.95 9.71 6.006 16.486 3.712 3.737-1.27 6.13-3.655 6.506-4.048l.131-10.734c0-.107.09-.197.197-.205 1.95-.09 3.605-.918 4.933-2.466 5.449-6.375 3.81-23.009 3.72-23.918l-.115-.222c-2.802-5.342-6.113-8.3-9.833-8.784-5.26-.688-9.578 3.9-9.628 3.95-2.794 2.794-2.548 11.07-2.466 12.7.008.115-.082.205-.197.214-.114-.009-.204-.082-.213-.197-.082-1.663-.336-10.095 2.581-13.004.041-.04 4.49-4.802 9.972-4.072 3.86.508 7.269 3.54 10.145 9.005l.13.254.025.074c.008.04.484 4.44.254 9.587-.303 6.94-1.671 11.88-4.064 14.683-1.36 1.59-3.048 2.458-5.031 2.598l-.131 10.627c0 .05-.017.098-.05.14-.065.057-4.662 5.006-11.766 5.006z" fill="#013"/><path d="M94.017 27.226c-.959.992-2.327.812-3.851.222-1.303-.5-2.532-1.238-3.909-1.492-2.163-.393-4.384.476-6.22 1.696-1.835 1.221-3.408 2.795-5.21 4.056-1.402.976-2.688 1.844-3.262 3.507-.016.033-.057.041-.073 0-.402-.876-2.262-1.761-3.122-1.065-4.564 3.671.852 6.613 1.294 6.842.017.008.025.025.017.05-3.704 13.257-9.62 21.451-9.997 21.967a.052.052 0 000 .05l.352.4a.043.043 0 01-.008.066c-2.638 1.844-6.096 2.393-9.365 2.352-2.557-.033-5.195-.401-7.359-1.753-2.163-1.352-3.752-3.876-3.376-6.4.304-2.032 1.746-3.695 3.262-5.08 1.761-1.614 3.687-3.032 5.465-4.621 1.475-1.32 2.934-3 2.868-4.974-.066-1.786-1.352-3.253-2.22-4.818-1.983-3.565-1.754-8.252.573-11.603 1.852-2.671 4.802-4.4 7.833-5.588 3.032-1.188 6.22-1.926 9.251-3.122 1.279-.508 2.549-1.098 3.581-2.007 2.622-2.303 3.384-6.244 6.088-8.44 1.91-1.549 4.622-1.975 6.957-1.238 2.343.738 4.277 2.582 5.285 4.819.836 1.876 1.09 4.047 2.36 5.67 1.254 1.598 3.409 2.507 4.146 4.416.655 1.705-.033 3.786-.82 5.318-.172.32-.352.566-.54.77z" fill="#013"/><path d="M68.613 122.795s2.18 10.046.95 16.208l-.95-16.208z" fill="#fff"/><path d="M69.762 139.045l-.401-.082c1.212-6.047-.926-16.027-.95-16.126l.4-.09c.025.107 2.18 10.169.951 16.298zM85.233 53.995s-3.704.328-6.645-1.876l6.514 5.67.131-3.794z" fill="#013"/><path d="M85.092 63.297s1.606 54.44 3.679 75.802l31.932-.074c-.009 0-9.202-61.717-35.611-75.728z" fill="#fff"/><path d="M88.579 139.304l-.017-.189c-2.048-21.124-3.662-75.27-3.679-75.81l-.008-.353.311.164c13.709 7.268 22.689 27.524 27.802 43.232 5.54 17.002 7.883 32.488 7.908 32.644l.032.238h-.237l-32.112.074zM85.3 63.649c.14 4.728 1.696 54.916 3.646 75.245l31.506-.074c-.664-4.162-10.185-61.495-35.152-75.171z" fill="#013"/><path d="M58.505 62.16s-12.144 1.827-14.16 3.785l10.874 14.16-5.58 1.146 14.216 16.356-3.63-35.865-1.72.418z" fill="#fff"/><path d="M64.133 98.22l-14.88-17.101 5.604-1.156L44.074 65.92l.131-.131c2.024-1.967 13.651-3.745 14.266-3.835l1.942-.475.025.237 3.695 36.504zm-14.11-16.847l13.57 15.6-3.54-34.987-1.517.369c-.114.016-11.602 1.761-13.913 3.605l10.964 14.266-5.564 1.147z" fill="#013"/><path d="M85.084 63.296s5.22 3.04 8.399 6.637l-4.023 8.284h5.03l-8.16 18.846-1.246-33.767z" fill="#fff"/><path d="M86.156 97.97l-1.295-35.037.32.188c.05.033 5.285 3.098 8.456 6.678l.09.099-3.941 8.112H94.8l-8.645 19.96zm-.852-34.308l1.196 32.48 7.678-17.723H89.13l4.106-8.456c-2.672-2.974-6.769-5.58-7.932-6.3z" fill="#013"/><path d="M88.143 126.004l3.752.631a.525.525 0 01.394.729c-.172.377-.656.819-1.877 1.016l-1.073-1.286-1.196-1.09z" fill="#fff"/><path d="M90.331 128.61l-1.147-1.377-1.688-1.54 4.441.754c.23.041.418.18.525.377a.687.687 0 01.016.631c-.262.573-.95.958-2.032 1.139l-.115.016zm-1.532-2.286l.68.623 1.016 1.22c1.082-.196 1.475-.59 1.614-.885a.312.312 0 00-.008-.27.352.352 0 00-.23-.172l-3.072-.516zM44.38 93.5l9.481 31.899-4.359 1.107-5.121-33.005zM143.795 139.227H-.795a.203.203 0 01-.205-.205c0-.114.09-.204.205-.204h144.59c.115 0 .205.09.205.204 0 .115-.09.205-.205.205z" fill="#013"/><path d="M101.206 132.311c17.419 0 31.539-10.653 31.539-23.795 0-13.142-14.12-23.795-31.539-23.795-17.418 0-31.538 10.653-31.538 23.795 0 13.142 14.12 23.795 31.538 23.795z" fill="#FF6100"/><path d="M70.026 100.904s3.286-6.03-.795-6.588c0 0-5.137-.082-1.966 6.137 0 0-1.099 1.631-5.85 1.025 0 0 1.687 2.777 6.972 1.303 0 0 3.564 2.073 4.908 1.597l-1.18-2.441c.009 0-1.368.696-2.09-1.033zm-1.196-1.229c-.492.016-.812-1.63-.836-2.36-.017-.73.36-1.335.86-1.352.5-.016.918.566.934 1.295.017.73-.467 2.4-.958 2.417zM115.275 90.175s7.178-5.514 14.627-1.761c1.057.532 1.409 1.868.794 2.876-.86 1.417-2.458 3.499-5.334 5.71l-10.087-6.825zM131.767 108.511l3.581 2.63a2.542 2.542 0 01.975 2.623l-1.066 4.605a2.56 2.56 0 01-1.81 1.884l-7.285 1.975 5.605-13.717zM75.059 121.936s6.588 13.881 11.487 16.847l8.784-.025 1.393-8.218-21.664-8.604zM108.447 129.793s.59 6.383 4.155 9.201l8.906-.147 1.336-14.094-14.397 5.04z" fill="#FF6100"/><path d="M94.216 90.26a.823.823 0 01-.762-.517.815.815 0 01.458-1.065c7.277-2.91 14.422-.443 14.725-.336a.817.817 0 11-.549 1.54c-.066-.024-6.883-2.36-13.57.312a.677.677 0 01-.302.065zM75.906 126.022s13.97-4.212 17.445 4.99c0 0 1.524 4.826-5.826-2.778.713.738 1.475 1.434 2.18 2.188a21.948 21.948 0 011.597 1.901c.369.5.787 1.065.918 1.68.156.68-.385.909-.975.909-1.36-.008-2.253-1.352-3.073-2.261-.565-.615-1.122-1.238-1.688-1.852-.008-.008-.016-.025-.024-.033.713.787 1.343 1.688 1.925 2.565.492.737 1.04 1.548 1.254 2.433.172.705-.344 1.098-1 1.025-.557-.066-1.13-.402-1.516-.812-.54-.573-.991-1.155-1.663-1.589a6.178 6.178 0 00-2.548-.902c-1.492-.188-3.016.033-4.458.435l-3.966 1.147 1.418-9.046z" fill="#fff"/><path d="M88.811 137.001c-.057 0-.123 0-.188-.008-.574-.066-1.197-.402-1.64-.877-.106-.115-.22-.238-.319-.352-.401-.451-.786-.877-1.303-1.205-.713-.459-1.54-.746-2.466-.868-1.295-.173-2.729-.025-4.376.426l-4.277 1.229 1.483-9.489.123-.033c.14-.041 14.192-4.162 17.69 5.113.05.148.402 1.328-.212 1.688-.295.181-.82.205-2.057-.688.066.09.131.172.197.262.377.516.811 1.098.959 1.754.09.393-.025.639-.14.778-.196.246-.557.377-1.024.377h-.016c-.918-.008-1.615-.549-2.22-1.188.351.557.663 1.155.819 1.786.09.369.024.705-.189.943-.197.229-.5.352-.844.352zm-6.998-3.786c.394 0 .77.025 1.14.074a6.349 6.349 0 012.63.926c.557.361.958.803 1.384 1.27.107.115.213.229.32.352.377.402.91.689 1.385.746.287.033.54-.033.68-.197.123-.139.155-.336.098-.573-.205-.836-.713-1.598-1.204-2.344-.59-.885-1.221-1.786-1.926-2.564l.303-.279v.008l1.713 1.885c.13.147.27.303.41.467.688.803 1.466 1.721 2.515 1.729h.008c.328 0 .582-.082.705-.23.082-.098.098-.245.057-.434-.13-.573-.532-1.114-.885-1.598-.418-.565-.91-1.147-1.59-1.884-.139-.148-.278-.295-.417-.435a66.905 66.905 0 01-1.762-1.745l.295-.287c.303.312.615.623.934.926.262.254.525.516.787.779 2.802 2.646 3.548 2.581 3.728 2.474.238-.139.164-.803.033-1.204-3.188-8.448-15.683-5.269-17.068-4.884l-1.344 8.596 3.663-1.057c1.245-.353 2.368-.517 3.408-.517z" fill="#013"/><path d="M44.35 93.523s5.146 18.862 5.146 32.981c0 0 16.625-3.958 26.646-4.884 0 0 2.901 9.767.656 17.42l-51.417.099" fill="#fff"/><path d="M25.38 139.354a.203.203 0 01-.204-.205c0-.115.09-.205.205-.205l51.26-.098c1.968-6.949-.294-15.708-.655-16.995-9.914.943-26.286 4.818-26.45 4.859a.19.19 0 01-.172-.041.205.205 0 01-.073-.163c0-13.93-5.089-32.735-5.138-32.924a.205.205 0 01.147-.254.206.206 0 01.255.148c.049.188 5.088 18.821 5.153 32.776 2.13-.5 17.175-3.975 26.426-4.827.082-.016.188.049.213.148.033.098 2.892 9.914.664 17.535a.201.201 0 01-.197.147l-51.433.099z" fill="#013"/></g></g></g><defs><clipPath id="clip0"><path fill="#fff" d="M0 0h144v144H0z"/></clipPath><clipPath id="clip1"><path fill="#fff" transform="translate(-1 3)" d="M0 0h145v145H0z"/></clipPath><clipPath id="clip2"><path fill="#fff" transform="translate(-1 5.9)" d="M0 0h145v133.455H0z"/></clipPath></defs></svg>