<svg width="512" height="512" viewBox="0 0 512 512" fill="none" xmlns="http://www.w3.org/2000/svg">
<g clip-path="url(#clip0)">
<path fill-rule="evenodd" clip-rule="evenodd" d="M304.116 57.4015C363.545 84.5492 392.403 142.074 409.574 195.755C424.877 243.604 425.841 295.393 390.427 327.324C358.52 356.098 298.682 333.084 250.23 339.434C169.823 349.977 88.0912 430.264 23.2645 375.45C-40.3452 321.661 50.5448 252.412 71.017 187.874C85.2114 143.134 77.825 89.0316 121.938 64.33C172.053 36.2906 242.916 29.4465 304.116 57.4015Z" fill="#FF6100" fill-opacity="0.15"/>
<path d="M0.000244141 489.243H392.72" stroke="#001133" stroke-width="0.235343" stroke-miterlimit="10" stroke-linecap="round" stroke-linejoin="round"/>
<path d="M182.457 226.723C178.348 229.627 176.348 233.387 174.034 237.845C170.865 243.93 168.648 250.425 167.467 257.076C165.648 267.27 165.72 277.669 166.19 287.995C166.576 296.647 166.13 305.407 164.118 313.842C163.346 317.071 162.406 320.529 161.262 323.626C159.972 327.108 157.623 330.157 157.177 333.94C157.093 334.651 157.093 335.422 157.466 336.025C158.165 337.17 159.9 337.242 161.009 336.507C163.31 334.965 165.588 330.916 166.961 328.602C164.889 331.796 162.768 335.121 161.961 338.712C161.671 339.989 162.852 341.146 164.13 340.869C165.997 340.459 167.732 339.194 168.889 337.724C170.552 335.627 171.504 333.109 173.179 331.012C171.673 333.483 169.299 337.423 169.395 340.435C169.431 341.483 169.889 342.568 170.805 343.086C174.757 345.339 178.469 334.35 179.541 332.193C179.89 333.736 180.963 335.097 182.493 335.603C183.011 335.772 183.566 335.844 184.096 335.712C185.361 335.398 186.084 334.061 186.409 332.796C187.482 328.47 185.614 324.048 184.698 319.686C182.457 309.13 184.12 296.49 186.409 286.079C189.458 272.247 192.555 258.281 198.868 245.4C200.459 242.147 202.279 238.917 202.893 235.399C203.508 231.88 202.676 227.916 199.724 225.579C195.567 222.289 188.578 223.108 184.228 225.579C183.59 225.964 182.999 226.338 182.457 226.723Z" fill="white" stroke="#001133" stroke-width="0.5" stroke-miterlimit="10" stroke-linecap="round" stroke-linejoin="round"/>
<path d="M284.384 493.766C281.468 495.128 278.167 495.971 275.576 496.236C271.467 496.658 267.334 496.236 263.225 495.947C255.755 495.405 248.248 495.285 240.753 495.574C234.969 495.803 228.041 497.972 222.703 495.273C220.136 493.971 217.907 491.682 217.413 488.85C216.822 485.512 218.654 482.283 220.365 479.355C226.546 468.8 232.137 457.895 237.114 446.725C239.644 441.037 242.018 435.254 243.862 429.313C245.223 424.927 246.308 420.433 248.175 416.239C254.875 401.226 271.142 391.104 274.48 375.006L307.399 367.041C307.291 372.776 307.182 378.5 307.074 384.236C307.014 387.658 306.941 391.128 306.001 394.418C304.676 399.045 301.736 403.009 298.844 406.865C285.421 424.758 271.997 442.652 258.574 460.546C255.803 464.245 252.875 468.51 253.646 473.065C254.694 479.271 261.707 482.223 267.72 484.078C272.708 485.621 277.781 488.043 283.071 486.766C284.878 486.332 288.023 485.091 289.746 486.344C290.385 486.814 290.723 487.669 290.566 488.44C290.445 489.019 290.084 489.525 289.71 489.983C288.433 491.489 286.517 492.766 284.384 493.766Z" fill="white" stroke="#001133" stroke-width="0.5" stroke-miterlimit="10" stroke-linecap="round" stroke-linejoin="round"/>
<path d="M243.064 133.752C242.955 134.957 242.618 136.102 242.148 137.21C241.256 139.355 239.822 141.307 238.425 143.187C236.352 145.91 232.544 147.115 230.038 149.127C229.436 149.621 228.893 150.164 228.496 150.79C227.074 152.959 228.363 155.453 228.628 157.875C228.652 157.96 228.652 158.056 228.665 158.14C228.677 158.345 230.123 164.623 230.123 164.828C230.303 169.431 222.254 164.768 219.085 166.141C213.988 168.334 209.566 170.407 203.782 169.286C203.107 169.154 202.433 168.985 201.914 168.539C200.842 167.587 201.035 165.864 201.324 164.454C202.107 160.502 202.903 156.562 203.698 152.634C204.011 151.007 204.361 149.332 203.975 147.73C203.686 146.32 202.866 145.103 202.155 143.874C198.288 137.439 195.709 129.92 196.613 122.462C197.516 115.003 202.493 107.749 209.747 105.725C216.205 103.929 223.254 106.484 228.448 110.749C234.882 116.015 243.931 124.606 243.064 133.752Z" fill="white" stroke="#001133" stroke-width="0.5" stroke-miterlimit="10" stroke-linecap="round" stroke-linejoin="round"/>
<path d="M214.93 87.8352C212.713 87.9075 210.327 88.028 208.351 89.1124C206.338 90.2089 205.29 92.4381 203.218 93.4141C201.723 94.113 199.832 93.9202 198.241 94.607C195.916 95.6072 193.855 97.4026 191.566 98.5352C187.276 100.668 182.143 101.897 179.384 105.813C177.311 108.753 177.034 112.609 175.226 115.73C173.118 119.381 168.961 121.984 168.358 126.153C167.707 130.683 171.696 134.588 175.817 136.6C179.938 138.612 184.637 139.697 187.987 142.829C191.397 146.01 193.096 151.071 197.289 153.108C201.302 155.048 206.435 153.288 209.194 149.794C211.954 146.3 212.628 141.516 211.99 137.106C211.725 135.31 212.182 132.925 209.989 132.407C209.182 132.214 208.303 132.202 207.592 131.78C205.941 130.816 206.109 128.286 207.146 126.671C209.809 122.55 213.46 124.912 216.689 123.032C221.063 120.477 225.594 110.826 226.69 106.151C227.281 103.632 227.184 100.861 225.883 98.6316C225.196 97.4627 224.208 96.4747 223.702 95.2216C223.063 93.5949 223.304 91.679 222.413 90.1728C221.051 87.8954 217.882 87.7147 215.219 87.799C215.123 87.8231 215.026 87.8231 214.93 87.8352Z" fill="#001133"/>
<path d="M228.484 150.776C227.062 152.945 228.351 155.439 228.616 157.861C224.821 156.186 222.64 152.439 223.616 148.872C225.725 149.125 227.869 149.21 230.026 149.125C229.424 149.619 228.882 150.162 228.484 150.776Z" fill="#001133"/>
<path d="M401.791 416.59C402.924 417.591 404.912 416.868 405.503 415.494C406.093 414.108 405.551 412.445 404.551 411.325C399.032 405.119 394.056 406.107 390.875 397.444C387.718 388.852 387.211 379.888 385.766 370.923C383.572 357.319 383.85 343.438 384.705 329.737C385.934 309.904 388.332 289.998 386.211 270.248C385.091 259.886 381.777 248.354 372.511 243.583C361.859 238.1 349.918 244.511 341.941 251.776C333.121 259.801 327.048 272.056 323.939 283.455C321.433 292.649 321.047 302.565 323.855 311.675C325.253 316.206 327.699 320.796 331.964 322.881C335.434 324.58 339.616 324.339 343.267 323.062C346.918 321.796 350.159 319.591 353.364 317.41C353.533 323.857 355.123 330.785 356.232 337.16C358.136 348.016 360.919 358.837 360.859 369.862C360.847 371.79 360.739 373.79 359.883 375.514C359.088 377.116 357.726 378.369 356.762 379.875C354.304 383.755 354.87 388.973 357.088 392.985C359.305 397.01 362.92 400.046 366.571 402.83C372.017 406.975 378.042 408.855 383.874 412.421C385.741 413.566 387.669 414.831 388.669 416.795C389.127 417.711 389.489 418.856 390.453 419.181C391.188 419.434 392.019 419.061 392.537 418.482C393.056 417.904 393.321 417.157 393.586 416.422C393.104 417.591 394.056 419.085 395.309 419.145C396.562 419.205 397.658 417.795 397.285 416.59C397.767 417.771 398.815 418.868 400.092 418.844C401.37 418.82 402.635 417.542 401.791 416.59Z" fill="white" stroke="#001133" stroke-width="0.5" stroke-miterlimit="10" stroke-linecap="round" stroke-linejoin="round"/>
<path d="M353.515 319.77C352.106 310.323 352.431 300.623 354.479 291.296" stroke="#001133" stroke-width="0.5" stroke-miterlimit="10" stroke-linecap="round" stroke-linejoin="round"/>
<path d="M300.8 246.423L310.331 260.545L350.191 244.242L339.924 331.216L304.294 332.421L309.728 368.654L272.893 376.511L251.746 299.803L243.998 287.259L300.8 246.423Z" fill="white" stroke="#001133" stroke-width="0.5" stroke-miterlimit="10" stroke-linecap="round" stroke-linejoin="round"/>
<path d="M350.134 245.025L347.025 320.72C347.025 320.72 346.977 322.793 341.121 323.54L350.146 245.133L350.134 245.025Z" fill="#001133"/>
<path d="M307.473 332.257C301.497 332.233 295.544 330.329 290.664 326.883" stroke="#001133" stroke-width="0.235343" stroke-miterlimit="10" stroke-linecap="round" stroke-linejoin="round"/>
<path d="M446.127 211.866C481.544 211.866 510.255 183.155 510.255 147.738C510.255 112.321 481.544 83.61 446.127 83.61C410.71 83.61 382 112.321 382 147.738C382 183.155 410.71 211.866 446.127 211.866Z" fill="#FF6100"/>
<path d="M87.088 404.88C85.9795 395.794 82.461 387.022 77.0025 379.672C74.677 376.551 71.05 373.394 67.3508 374.587C64.1456 375.623 62.784 379.371 62.1816 382.672C60.9164 389.685 61.1091 396.963 62.772 403.904C60.5669 400.975 56.9641 397.686 53.7589 399.481C51.5779 400.698 51.108 403.59 51.0718 406.085C51.0116 409.723 51.3249 413.375 52.0238 416.953C51.2526 410.627 49.0957 404.47 45.7459 399.06C43.1914 394.927 39.1187 390.866 34.2747 391.348C30.8527 391.685 27.9969 394.348 26.5389 397.457C25.0809 400.566 24.8158 404.096 24.7556 407.543C24.4784 423.773 28.5873 440.052 36.5039 454.211C34.1422 450.632 29.6959 447.451 25.8159 449.282C23.4783 450.391 22.189 453.078 22.0926 455.669C21.9962 458.259 22.8879 460.778 23.876 463.163C28.2258 473.586 35.1905 483.178 44.782 489.13L96.7638 489.251L87.088 404.88Z" fill="white" stroke="#001133" stroke-width="0.5" stroke-miterlimit="10" stroke-linecap="round" stroke-linejoin="round"/>
<path d="M82.4217 489.233C75.71 484.244 70.589 476.809 67.8055 468.929C66.9862 466.603 66.3716 464.025 67.203 461.699C68.2032 458.904 71.2396 457.133 74.2038 457.096C77.1801 457.06 80.0238 458.53 82.1807 460.567C78.2525 451.493 72.7458 442.95 70.8661 433.238C69.9142 428.286 70.2034 422.984 71.9265 418.236C73.1917 414.742 75.7462 410.368 79.1442 408.537C83.1808 406.368 87.374 411.163 89.0369 414.393C87.0487 404.187 87.2656 393.571 89.6393 383.449C90.8805 378.196 92.8084 372.894 96.6281 369.098C99.3152 366.423 103.737 364.664 106.822 366.857C107.931 367.64 108.678 368.833 109.304 370.038C111.449 374.207 112.305 379.039 111.714 383.69C112.75 381.172 113.835 378.593 115.763 376.677C117.691 374.762 120.715 373.677 123.197 374.786C126.909 376.436 127.294 381.485 126.848 385.522C125.957 393.631 123.957 401.608 120.908 409.175C123.27 405.91 127.174 403.801 131.198 403.608C132.174 403.56 133.187 403.632 134.054 404.078C135.416 404.777 136.175 406.271 136.597 407.729C138.127 413.043 136.38 418.743 133.946 423.719C130.536 430.708 125.752 437.034 119.956 442.239C122.956 440.492 126.668 440.022 130.005 440.974C131.548 441.408 133.054 442.179 134.066 443.432C135.898 445.697 135.717 448.939 135.211 451.807C132.548 466.881 122.812 481.436 109.593 489.184L82.4217 489.233Z" fill="white" stroke="#001133" stroke-width="0.5" stroke-miterlimit="10" stroke-linecap="round" stroke-linejoin="round"/>
<path d="M181.625 239.924C184.878 242.117 188.541 243.611 192.18 245.094C193.614 245.672 195.156 246.274 196.663 245.949C198.964 245.455 200.277 243.093 201.29 240.972C202 239.49 202.736 237.888 202.519 236.249C202.121 233.201 198.783 231.586 195.867 230.61C191.59 229.176 187.155 227.947 182.649 228.091C180.287 228.164 174.407 229.007 174.756 232.333C175.082 235.237 179.432 238.454 181.625 239.924Z" fill="#001133"/>
<path d="M173.708 230.723C179.926 234.314 186.408 237.989 193.566 238.579C200.723 239.17 208.76 235.711 211.05 228.927C223.87 248.496 235.474 268.86 245.74 289.874C251.97 281.006 262.899 277.017 272.611 272.173C282.949 267.004 292.553 260.353 301 252.472C302.289 251.267 303.627 249.918 303.952 248.183C304.325 246.146 303.229 244.17 302.205 242.375C293.649 227.53 286.805 211.697 277.286 197.442C267.779 183.187 255.031 170.258 238.776 164.715C224.714 159.932 202.241 161.329 192.855 174.632C182.179 189.73 177.431 213.01 173.708 230.723Z" fill="white" stroke="#001133" stroke-width="0.5" stroke-miterlimit="10" stroke-linecap="round" stroke-linejoin="round"/>
</g>
<defs>
<clipPath id="clip0">
<rect width="512" height="512" fill="white"/>
</clipPath>
</defs>
</svg>
