<svg width="495" height="383" fill="none" xmlns="http://www.w3.org/2000/svg"><path fill-rule="evenodd" clip-rule="evenodd" d="M91.595 46.773C45.908 86.76 35.76 145.37 35.023 197.44c-.656 46.417 12.54 92.455 52.84 111.16 36.315 16.847 83.485-19.594 128.476-27.014 74.66-12.313 169.464 36.681 212.458-29.21 42.186-64.663-57.793-101.423-93.604-152.964-24.826-35.732-32.937-85.544-79.037-95.51C203.79-7.415 138.644 5.588 91.595 46.772z" fill="#FF6100" fill-opacity=".15"/><path d="M494.376 305.535H0V306h494.376v-.465z" fill="#013"/><path d="M312.286 169.872s-70.413-.4-70.739-.084v-29.857l70.544-.214 11.36 8.365v20.878" fill="#fff"/><path d="M241.32 170.355v-30.648h.233l70.618-.214 11.519 8.486v20.99h-.465v-20.758l-11.202-8.253-70.237.205v29.41c3.293-.204 26.972-.186 70.506.066v.465c-23.707-.13-68.636-.326-70.618-.103l-.354.354z" fill="#013"/><path d="M312.305 139.652h-.465v29.653h.465v-29.653z" fill="#013"/><path d="M249.639 168.979l-6.699 14.487-13.165 28.489-13.166 28.48-13.165 28.48-13.175 28.489-3.731 8.076H89.412l36.565-36.565 28.48-28.48 28.48-28.48 29.02-29.02 14.515.531 5.796-14.487h17.371z" fill="#fff"/><path d="M186.689 305.713H88.856l123.019-123.02 14.449.54 5.797-14.487h17.892l-63.324 136.967zm-96.708-.466h96.41l62.887-136.036h-16.85l-5.797 14.496-14.579-.539-122.07 122.079z" fill="#013"/><path d="M300.115 168.979l-4.698 14.487-9.639 28.489-19.279 56.96-9.639 28.489-2.726 8.076h-57.267l3.61-8.076 12.719-28.489 12.709-28.48 12.719-28.48 12.719-28.489 6.466-14.487h42.306z" fill="#fff"/><path d="M254.302 305.713h-57.788l61.147-136.967h42.78l-4.801 14.794-41.338 122.173zm-57.072-.466h56.737L295.193 183.4l4.606-14.189h-41.831L197.23 305.247z" fill="#013"/><path d="M475.869 294.725v10.755H264.637l2.521-8.076 8.914-28.489 2.502-7.964.94-3.034 5.452-17.482 8.895-28.48 8.895-28.489 4.326-14.487h20.507l17.073 14.487 67.185 56.969 64.022 54.29z" fill="#fff"/><path d="M476.103 305.713H264.322l20.432-65.344 17.79-56.969 4.373-14.654h20.767l17.147 14.542 131.282 111.325v11.1h-.01zm-211.148-.466h210.683v-10.411L327.497 169.211h-20.245l-4.28 14.329-38.017 121.707z" fill="#013"/><path d="M475.871 297.638H267.188l-.028-.466h208.711v.466zM190.27 297.172H97.935v.466h92.335v-.466z" fill="#013"/><path d="M307.081 168.979l-4.327 14.487-8.894 28.489-8.895 28.48-5.452 17.483-.94 3.033-2.503 7.964-8.913 28.49-2.522 8.076h-10.504l2.726-8.076 9.639-28.49 19.278-56.96 9.639-28.489 4.699-14.487h6.969z" fill="#fff"/><path d="M264.804 305.713h-10.997l2.837-8.383 38.547-113.939 4.755-14.654h7.453l-4.42 14.793-38.175 122.183zm-10.346-.466h10.011L302.542 183.4l4.242-14.189h-6.485l-4.652 14.329-41.189 121.707z" fill="#013"/><path d="M344.673 183.232h-41.915v.465h41.915v-.465zM242.941 183.697h-16.468v-.465h16.431l.037.465z" fill="#013"/><path d="M257.807 168.979l-6.466 14.487-12.719 28.489-12.719 28.48-12.709 28.48-12.719 28.489-3.61 8.076h-10.328l3.731-8.076 13.175-28.489 13.165-28.48 13.166-28.48 13.165-28.489 6.699-14.487h8.169z" fill="#fff"/><path d="M197.015 305.713h-10.839l63.315-136.967h8.68l-61.156 136.967zm-10.113-.466h9.815l60.738-136.036h-7.667l-62.886 136.036zM50.672 226.029l-.16-.09c-.46-.28-11.37-7.1-12.32-36.32l-.01-.34.33.09 16.43 4.59.01.18 1.68 26.42-5.96 5.47zm-11.97-36.09c.53 14.9 3.76 23.76 6.39 28.58 2.48 4.55 4.9 6.44 5.52 6.88l5.51-5.05-1.66-26.01-15.76-4.4z" fill="#013"/><path d="M17.56 338.179l-6.81 5.42 6.8 10.45 7.2-5.05-7.19-10.82z" fill="#fff"/><path d="M17.48 354.409l-7.06-10.86 7.19-5.73 7.48 11.25-7.61 5.34zm-6.39-10.75l6.53 10.04 6.79-4.76-6.91-10.39-6.41 5.11z" fill="#013"/><path d="M19.48 354.899l4.41 14.02c.67 2.14.01 4.48-1.68 5.95L.35 346.379s8.89-7.51 11.75-2.84l7.38 11.36z" fill="#fff"/><path d="M22.18 375.229L0 346.339l.18-.15c.24-.2 5.96-5.01 9.76-4.37 1.02.17 1.81.7 2.36 1.6l7.41 11.41 4.42 14.01c.7 2.24.02 4.67-1.75 6.21l-.2.18zM.69 346.419l21.55 28.08a5.378 5.378 0 001.41-5.5l-4.41-13.98-7.36-11.33c-.48-.78-1.13-1.23-2.01-1.37-3.22-.53-8.16 3.28-9.18 4.1z" fill="#013"/><path d="M105.092 363.089l2.68 8.28 12.17-2.68-2.19-8.52-12.66 2.92z" fill="#fff"/><path d="M107.601 371.659l-2.83-8.75 13.16-3.04 2.32 9.01-12.65 2.78zm-2.19-8.39l2.52 7.8 11.7-2.57-2.07-8.03-12.15 2.8z" fill="#013"/><path d="M229.699 192.639l-39.34-1.64 8.27-56.33s9.89 5.65 14.36-.37l11.33 20.59 5.38 37.75z" fill="#fff"/><path d="M229.99 192.899l-39.92-1.67.04-.27 8.33-56.69.32.18c.1.05 9.75 5.47 14.03-.3l.23-.31 11.54 21.01 5.43 38.05zm-39.34-2.14l38.76 1.62-5.33-37.41-11.12-20.22c-4.17 5.05-12.4 1.19-14.12.3l-8.19 55.71z" fill="#013"/><path d="M242.171 246.349l29.29 117.05-11.13 2.85-42.11-115.16 23.95-4.74z" fill="#fff"/><path d="M260.171 366.549l-.08-.21-42.21-115.44 24.47-4.84 29.41 117.52-11.59 2.97zm-41.62-115.27l41.93 114.67 10.68-2.73-29.17-116.58-23.44 4.64z" fill="#013"/><path d="M212.281 253.458c-.21 3.83-.33 7.66-.53 11.49-.17 3.27-.11 6.741-1.31 9.831-2.09 5.37-6.71 8.23-11.87 10.16l-66.07 20.049-3.95-10.299 58.69-29.741-.6-8.729c.01.02 25.64-2.761 25.64-2.761z" fill="#fff"/><path d="M132.35 305.309l-4.11-10.72.2-.1 58.54-29.67-.6-8.8.24-.03 25.93-2.81-.02.29c-.11 2.01-.2 4.03-.28 6.05-.08 1.82-.15 3.63-.25 5.45-.03.53-.05 1.07-.07 1.6-.11 2.79-.23 5.68-1.25 8.3-2.37 6.09-7.99 8.8-12.01 10.31l-66.32 20.13zm-3.48-10.48l3.78 9.87 65.85-19.99c6.24-2.34 9.96-5.52 11.71-10.02.99-2.55 1.11-5.39 1.22-8.14.02-.54.04-1.08.07-1.61.1-1.81.17-3.63.25-5.44.08-1.92.16-3.84.27-5.76l-25.1 2.72.59 8.65-.15.07-58.49 29.65z" fill="#013"/><path d="M233.361 212.819l13.28 37.38-29.94 5.94-2.41-11.14.74 13.18-31.66 1.49 3.63-69.42 40.84-1.12 5.52 23.69z" fill="#fff"/><path d="M183.111 259.929l.01-.28 3.65-69.65.23-.01 41.04-1.12.05.2 5.52 23.67 13.37 37.64-.28.06-30.18 5.99-1.79-8.27.58 10.26-32.2 1.51zm4.13-69.44l-3.61 68.92 31.13-1.46-.73-12.93.49-.07 2.36 10.9 29.41-5.83-13.19-37.14-5.47-23.48-40.39 1.09z" fill="#013"/><path d="M146.03 242.869s-.73 1.19.33 1.86c1.23-.59 2.5-1.13 3.78-1.61 1.3-.48 2.68-.69 3.89-1.4 3.91-2.26 7.11-6.44 9.42-10.24 2.38-3.93 4.13-8.22 5.67-12.54 1.47-4.11 2.75-8.29 4.24-12.4 2.27-6.29 4.54-12.58 6.82-18.86l-2.81 36.48 21.16.93-.22-90.16c-6.32.11-7.77.41-12.32 2-5.25 1.83-9.35 6.26-11.08 11.9-1.03 4.46-2.05 8.92-3.08 13.38-2.19 9.52-4.38 19.04-6.57 28.55-1.6 6.93-3.18 13.86-4.79 20.78-1.56 6.69-2.85 13.55-5.46 19.93-.65.08-1.3.15-1.95.22l-6.57 1.27-3.94.87s-2.77 1.26-2.81 2.32c0 0 .04 1.6 2.06-.06-.21.17-.36.77-.47 1.03-.17.37-.33.74-.49 1.11-.26.6-1.01 1.55-.79 2.25.16.5.77.37 1.13.18.54-.28.85-.86 1.04-1.41-.45 1.3-.02 2.42.64 3.54.34.57.86 1.05 1.53 1.2 0 0 .52.02.62-.51.01-.04.01-.08.01-.12" fill="#fff"/><path d="M146.35 245.009l-.12-.07c-1.01-.63-.71-1.72-.41-2.2l.43.26c-.06.1-.53.91.14 1.44 1.19-.57 2.43-1.09 3.67-1.55.47-.17.94-.31 1.41-.45.87-.25 1.68-.49 2.45-.93 3.25-1.88 6.39-5.29 9.33-10.15 2.57-4.24 4.37-8.9 5.65-12.49.71-1.98 1.38-4.02 2.04-5.98.7-2.11 1.43-4.29 2.2-6.42l7.44-20.6-2.93 38.06 20.64.91-.21-89.65c-6.13.12-7.58.44-11.99 1.98-5.13 1.79-9.22 6.18-10.93 11.74l-11.28 48.98c-1.05 4.57-2.1 9.14-3.16 13.71-.27 1.17-.54 2.34-.8 3.52-1.23 5.49-2.51 11.16-4.67 16.45l-.06.13-.14.02c-.65.08-1.3.15-1.95.22l-6.55 1.26-3.94.87c-.97.45-2.59 1.42-2.62 2.08 0 0 .02.32.22.41.12.05.5.1 1.43-.67l.32.39c-.1.08-.22.43-.29.62-.04.12-.08.24-.12.32-.17.37-.33.74-.49 1.1-.07.16-.18.35-.29.55-.28.49-.62 1.11-.49 1.53.03.1.09.13.13.15.14.06.41.01.65-.11.4-.21.71-.64.92-1.27l.47.16c-.43 1.27.04 2.35.62 3.33.34.58.83.96 1.37 1.08.02 0 .27-.03.32-.31 0-.03.01-.06.01-.09l.5.02c0 .06-.01.11-.02.16-.1.57-.58.71-.85.71h-.02c-.72-.16-1.32-.62-1.73-1.32-.41-.7-.8-1.51-.85-2.42-.15.16-.32.29-.5.38-.29.16-.73.28-1.07.13a.715.715 0 01-.42-.46c-.2-.62.21-1.34.53-1.92.1-.18.2-.36.26-.51.16-.37.33-.74.49-1.11.02-.05.04-.11.07-.18-.48.26-.86.32-1.17.18-.39-.18-.5-.63-.51-.87.04-1.2 2.66-2.42 2.96-2.55l4-.89 6.58-1.27c.62-.07 1.22-.13 1.82-.2 2.12-5.21 3.38-10.81 4.59-16.23.26-1.18.53-2.35.8-3.52 1.06-4.57 2.11-9.14 3.16-13.71l11.28-49c1.76-5.73 5.97-10.24 11.25-12.08 4.53-1.58 5.98-1.9 12.4-2.01h.25v.25l.22 90.42-21.68-.95.02-.26 2.67-34.65-6.19 17.13c-.77 2.12-1.49 4.3-2.19 6.41-.66 1.97-1.33 4-2.04 5.99-1.29 3.61-3.11 8.31-5.7 12.58-2.99 4.93-6.18 8.41-9.5 10.33-.82.47-1.7.73-2.56.98-.45.13-.92.27-1.37.43-1.28.47-2.54 1.01-3.76 1.6l-.14.08z" fill="#013"/><path d="M113.581 172.929l-13.19 14.21 36.35 43.16c.58 4.72 3.99 8.06 3.99 8.06l2.96-4.27c.21-.31.56-.49.93-.53 1.06-.11 3.03-.82 4.06-.96 1.26-.17 2.29.74 2.29.74 3.53 3 3.6 1.06 3.6 1.06-.44-1.75-1.64-2.8-2.21-3.22-.24-.18-.48-.36-.71-.57l-2.01-1.84c-.42-.38-.93-.66-1.48-.8l-4.52-1.18-1.96-2.33-2.24-2.98-25.86-48.55z" fill="#fff"/><path d="M140.771 238.749l-.21-.21c-.14-.14-3.45-3.42-4.06-8.14l-36.45-43.28 13.58-14.63.17.31 25.86 48.56 2.22 2.94 1.9 2.25 4.45 1.16c.59.15 1.14.45 1.59.86l2.01 1.84c.19.17.41.35.69.55.54.39 1.84 1.5 2.3 3.36l.01.04v.04c-.01.21-.13.61-.52.78-.69.3-1.83-.24-3.5-1.66-.01-.01-.97-.85-2.09-.69-.47.06-1.18.26-1.87.45-.8.22-1.62.45-2.2.51-.31.03-.58.19-.75.43l-3.13 4.53zm-40.05-51.6l36.26 43.05.01.07c.48 3.91 2.98 6.89 3.72 7.7l2.79-4.02c.25-.36.65-.59 1.11-.64.53-.06 1.34-.28 2.11-.5.74-.2 1.43-.4 1.94-.47 1.35-.18 2.44.76 2.49.81 2.01 1.71 2.75 1.67 2.97 1.57.16-.07.21-.24.22-.31-.44-1.67-1.61-2.68-2.1-3.04-.29-.21-.52-.4-.73-.58l-2.01-1.84c-.39-.35-.87-.61-1.38-.75l-4.6-1.2-2.01-2.39-2.25-2.99-25.72-48.28-12.82 13.81zM142.552 242.389h-.04a.251.251 0 01-.21-.29c.03-.18.28-1.81.66-2.38.02-.03.04-.05.06-.07l2.7-1.93c.11-.08.27-.06.35.06.08.11.05.27-.06.35l-2.66 1.9c-.26.44-.49 1.69-.56 2.15-.01.12-.11.21-.24.21z" fill="#013"/><path d="M142.201 239.499c-.14 0-.25-.11-.25-.25 0-.03.01-.65.24-1.14.11-.23.29-.44.51-.59l2.72-1.86c.11-.08.27-.05.35.07.08.11.05.27-.07.35l-2.72 1.86c-.15.1-.27.24-.34.39-.18.39-.19.93-.19.93 0 .13-.11.24-.25.24z" fill="#013"/><path d="M144.481 243.149s-.8-.29-.4-1.25c0 0 .35-.81 1.21-.34 0 0 1.28.52.98 1.17.01.01-.69.97-1.79.42z" fill="#fff"/><path d="M145.14 243.569c-.23 0-.49-.05-.76-.19-.08-.03-.41-.18-.57-.55-.13-.29-.12-.64.04-1.02.02-.05.2-.44.62-.59.29-.1.6-.06.94.13.07.02.89.37 1.1.91.08.19.07.39-.01.58-.22.32-.71.73-1.36.73zm-.36-1.9c-.05 0-.1.01-.14.02-.22.07-.33.31-.33.31-.1.25-.12.46-.04.62.09.21.3.29.3.29.01 0 .02.01.03.01.89.44 1.46-.3 1.48-.34 0-.02.01-.08-.02-.14-.1-.26-.58-.54-.85-.65-.17-.08-.31-.12-.43-.12z" fill="#013"/><path d="M145.121 241.439s-.91-.7-.34-1.53c0 0 .77-1.21 1.71-.49 0 0 1.22 1.02 1.29 2.07.01 0-.96 2.36-2.66-.05z" fill="#fff"/><path d="M146.581 242.769c-.54 0-1.09-.39-1.64-1.16-.38-.31-.91-1.05-.36-1.84.01-.02.45-.69 1.11-.81.33-.06.66.03.96.26.06.05 1.31 1.11 1.39 2.25 0 .04 0 .08-.02.11-.02.04-.45 1.09-1.31 1.18-.04.01-.08.01-.13.01zm-.69-3.321c-.04 0-.07.001-.11.011-.44.08-.78.59-.79.6-.42.62.21 1.14.28 1.19.02.02.04.03.05.05.48.68.94 1.01 1.33.97.43-.05.76-.571.88-.821-.1-.91-1.19-1.819-1.2-1.829a.663.663 0 00-.44-.171z" fill="#013"/><path d="M149.31 241.189s-.61.69-1.73.32c0 0-1.53-1.18-.63-2.13 0 0 1.08-1.19 2.27.41 0 .01.39 1.08.09 1.4z" fill="#fff"/><path d="M148.221 241.869c-.22 0-.46-.04-.72-.12a.161.161 0 01-.07-.04c-.04-.03-.94-.73-1.01-1.56-.03-.35.09-.66.35-.93.02-.02.46-.54 1.2-.5.52.03 1.01.34 1.45.94.01.02.03.04.03.06.11.28.42 1.24.04 1.65-.04.04-.48.5-1.27.5zm-.53-.58c.92.28 1.41-.24 1.43-.26.1-.11.04-.63-.13-1.1-.34-.45-.7-.69-1.05-.71-.5-.01-.81.34-.81.34-.16.17-.23.35-.22.55.04.48.55.99.78 1.18z" fill="#013"/><path d="M149.929 239.529c.3-.07.65-.03.94.09.3.12.47.33.38.65-.15.52-.54.83-1.03 1.01-.16.06-.33.13-.5.13-.46-.01-.66-.65-.61-1.03.08-.49.41-.76.82-.85z" fill="#fff"/><path d="M149.73 241.659c-.23 0-.42-.1-.57-.27-.26-.3-.33-.74-.29-1.03.08-.56.45-.94 1.01-1.06.35-.08.74-.04 1.09.1.45.18.65.53.53.95-.15.54-.55.94-1.18 1.18l-.06.02c-.15.04-.33.11-.53.11zm.52-1.92c-.09 0-.18.01-.26.03-.25.05-.56.21-.62.64-.03.18.03.48.17.64.08.09.17.11.19.1.1 0 .22-.04.35-.09l.06-.02c.48-.18.77-.46.88-.84.02-.09.06-.23-.24-.35-.17-.07-.35-.11-.53-.11z" fill="#013"/><path d="M66.35 137.709s2.1-9.02.7-15.7c0 0-2.12-13.52 9.49-13.9 7.86-.26 13.69 5.79 14.35 13.62.4 4.8-.61 12.19-9.38 13.84v3.39c0-.01-15.71-1.8-15.16-1.25z" fill="#fff"/><path d="M81.761 139.229l-.28-.03c-5.26-.6-13.71-1.46-14.92-1.34l-.08.34-.44-.44.07-.2c.01-.01.01-.02.02-.04.24-1.11 1.96-9.34.67-15.47-.04-.29-1.02-6.83 2.4-10.98 1.68-2.04 4.15-3.12 7.33-3.23 7.77-.22 13.91 5.57 14.6 13.85.87 10.37-5.4 13.26-9.38 14.06v3.48h.01zm-14.64-1.85c1.45 0 5.05.26 14.14 1.29v-3.32l.2-.04c8.84-1.65 9.54-9.21 9.17-13.57-.66-7.84-6.35-13.4-13.62-13.4-.16 0-.31 0-.47.01-3.03.1-5.37 1.12-6.96 3.04-3.28 3.97-2.31 10.5-2.3 10.57 1.23 5.88-.25 13.65-.63 15.43.14-.01.29-.01.47-.01z" fill="#013"/><path d="M84.742 296.149c-2.15 3.81-4.94 7.73-8.14 11.65-.6.73-1.21 1.46-1.84 2.2-18.95 22.19-49.61 43.56-49.61 43.56l-11.32-18.1 33.9-28.58c12.21-9.64 14.04-22.76 13.06-32.97-.29-3.1-.84-5.92-1.44-8.3-1.11-4.41-2.38-7.28-2.47-7.47l27.86 38.01z" fill="#fff"/><path d="M25.082 353.909l-.14-.22-11.43-18.29.17-.14 33.9-28.58c12.38-9.77 13.89-23.2 12.97-32.75a54.14 54.14 0 00-1.44-8.26c-1.13-4.5-2.44-7.4-2.45-7.43l-1-2.2 29.37 40.1-.08.14c-2.04 3.61-4.79 7.54-8.16 11.68-.6.74-1.21 1.46-1.84 2.2-18.76 21.96-49.34 43.39-49.65 43.61l-.22.14zm-10.92-18.41l11.06 17.7c2.77-1.96 31.46-22.43 49.34-43.37.63-.73 1.23-1.46 1.83-2.19 3.31-4.06 6.01-7.92 8.04-11.47l-26.58-36.3c.49 1.31 1.14 3.27 1.75 5.67.7 2.77 1.19 5.58 1.45 8.34.92 9.67-.61 23.28-13.16 33.19l-33.73 28.43z" fill="#013"/><path d="M213.12 128.029l-.13 6.27c-4.64 7.15-13.04 1.38-13.04 1.38l-2.63-13.8c-.28-2.98-.19-5.4.13-7.35 1.44-8.75 7.64-8.32 7.64-8.32 10.66-5.52 11.92 5.52 11.92 5.52.03.14.05.29.08.43 2.42 13.66-3.97 15.87-3.97 15.87z" fill="#fff"/><path d="M206.68 138.128c-3.56 0-6.72-2.14-6.87-2.25l-.08-.06-.02-.1-2.63-13.8c-.26-2.82-.22-5.32.13-7.44 1.36-8.21 6.92-8.54 7.79-8.54h.04c3.34-1.72 6.12-2 8.28-.85 3.37 1.8 3.92 6.4 3.95 6.6.03.12.05.27.07.41 2.25 12.66-2.93 15.64-3.96 16.1l-.13 6.17-.04.06c-1.27 1.95-2.93 3.14-4.93 3.54-.55.11-1.08.16-1.6.16zm-6.51-2.6c.61.39 4.37 2.69 8 1.96 1.85-.37 3.39-1.47 4.57-3.27l.13-6.37.16-.06c.06-.02 6.15-2.34 3.8-15.6-.03-.15-.05-.29-.07-.43-.01-.06-.56-4.56-3.69-6.23-2.01-1.07-4.66-.77-7.87.89l-.06.03h-.07c-.24-.01-5.99-.29-7.38 8.12-.34 2.08-.39 4.53-.13 7.29l2.61 13.67z" fill="#013"/><path d="M92.39 226.159l27.961 133.83-18.7 3.99s-51.93-108.86-51.93-134.83l42.67-2.99z" fill="#fff"/><path d="M101.511 364.269l-.08-.18c-.13-.27-13.13-27.57-25.97-57.69-17.24-40.46-25.99-66.45-25.99-77.25v-.23l.23-.02 42.89-3.01.04.21 28.02 134.07-19.14 4.1zm-51.54-134.88c.13 10.74 9.09 37.28 25.95 76.82 12.29 28.83 24.73 55.08 25.88 57.49l18.27-3.9-27.87-133.37-42.23 2.96z" fill="#013"/><path d="M49.432 230.999s-20.08-75.65 14.09-94.26l17.93 1.35s14.21 1.35 32.14 34.84l-13.19 14.21-7.78-5.07 3.17 46.34-46.36 2.59z" fill="#fff"/><path d="M49.241 231.259l-.05-.2c-.05-.19-5.04-19.18-5.78-40.21-.69-19.45 2.23-44.66 19.99-54.34l.06-.04.07.01 17.93 1.36c.59.06 14.55 1.75 32.34 34.97l.08.16-.12.13-13.34 14.36-7.54-4.92 3.15 46.09-.25.01-46.54 2.62zm14.33-94.27c-9.66 5.3-20.89 18.94-19.66 53.84.7 19.82 5.18 37.84 5.71 39.91l45.89-2.57-3.19-46.59 8.02 5.23 12.93-13.92c-17.59-32.79-31.72-34.54-31.86-34.55l-17.84-1.35z" fill="#013"/><path d="M71.44 157.149l-.35-.35 16-15.99-4.67-2.47-11.86 7.4-.26-.42 12.09-7.55 5.53 2.91-16.48 16.47z" fill="#013"/><path d="M69.8 145.839l12-7.5 1-.5c3 .5 4.334 1.833 5 2.5l-.5.5-17 17-.5-12z" fill="#FF6100"/><path d="M214.042 245.019c-1.01-14.75-3.67-30.12-3.69-30.27l.49-.09c.03.15 2.69 15.55 3.7 30.32l-.5.04zM217 113.069c-5.61-.24-9.43-4.92-9.43-4.92-1.63 2.96-7.72 5.62-7.72 5.62s3.59 13.1 1.87 21.91c0 0-11.85 3.12-14.89 1.4 0 0-2.81-.54-5.85-.31 0 0 2.49-12.09 9.74-22.45 0 0-.62-12.24 12.01-15.98 0 0 8.97-2.18 13.17 4.52 0 0 6.63 2.96 6.71 10.68 0 0 3.9 4.83 4.13 13.95 0 0 0 2.58.55 4.6l-14.31 2.21.13-6.27c.01 0 6.23-3.57 3.89-14.96zM180.221 188.029c-.02 0-.04 0-.07-.01a.262.262 0 01-.18-.31l7.1-26.21c.04-.13.17-.21.31-.18.13.04.21.17.18.31l-7.1 26.21c-.03.12-.13.19-.24.19zM223.956 195.038l-25.397.793.015.5 25.397-.793-.015-.5z" fill="#013"/><path d="M207.381 196.049l-.18-6.59 8.69-.24.18 6.59-8.69.24zm.33-6.1l.16 5.59 7.69-.21-.15-5.59-7.7.21z" fill="#013"/><path d="M227.96 178.679l9.55 44.97-10.39.17-14.13-89.51s15.98-1.62 22.8 21.7c0 0 11.59 39.27.88 63.46" fill="#fff"/><path d="M226.901 224.069l-.03-.21-14.17-89.78.26-.03c.16-.02 16.26-1.38 23.07 21.88.12.39 11.5 39.64.87 63.63l.92 4.34-10.92.17zm-13.62-89.54l14.05 89.03 9.87-.16-9.49-44.67.49-.1 8.52 40.09c10.08-23.88-1.05-62.26-1.17-62.65-6.2-21.22-20.17-21.62-22.27-21.54z" fill="#013"/><path d="M227.961 178.899c-.11 0-.21-.08-.24-.19l-2.01-8.27a.247.247 0 11.48-.12l2.01 8.27c.03.13-.05.27-.18.3-.02.01-.04.01-.06.01zM92.432 182.239l-5.25-5.29.36-.35 5.25 5.29-.36.35zM156.499 227.756l-.218.45 7.113 3.438.218-.45-7.113-3.438zM213.281 127.879s-3.31.96-5.84-1.2c0 0 1.95 3.37 5.63 3.95l.21-2.75z" fill="#013"/><path d="M213.541 131.209l-.54-.08c-3.88-.61-5.9-4.05-5.99-4.19l-1.46-2.52 2.22 1.89c2.29 1.96 5.34 1.11 5.37 1.1l.69-.2-.29 4zm-4.03-2.88c.78.69 1.82 1.38 3.12 1.7l.11-1.52c-.73.11-1.94.19-3.23-.18zM81.51 135.559s-3.1-.6-4.31-2.3c0 0-.65 2.78 4.24 4.83" fill="#013"/><path d="M81.25 138.549c-5.22-2.19-4.57-5.27-4.54-5.4l.25-1.08.64.9c1.08 1.51 3.97 2.09 4 2.1l-.19.98c-.1-.02-2.04-.41-3.52-1.44.37.85 1.33 2.01 3.75 3.02l-.39.92zM72.711 123.639a2.896 2.896 0 01-1.41-3.85c.67-1.45 2.4-2.09 3.85-1.41 0 0 14.94 3.87 18.3-5.43 0 0 2.24-9.3-10.42-9.63 0 0-21.83-2.51-17.01 23.21 0 0 1.52 4.15 1.12 7.52l5.57-10.41z" fill="#013"/><path d="M271.401 363.139l-3.16-16.35-14.52 3.39 7.36 22.99c.13.09.29.13.45.11l26.99-2.39c.41-.04.71-2.21.63-2.62a.701.701 0 00-.51-.55l-17.24-4.58z" fill="#fff"/><path d="M261.461 373.529c-.19 0-.38-.06-.53-.161l-.07-.049-.03-.081-7.44-23.25 15.04-3.509 3.18 16.449 17.08 4.53c.35.1.62.39.69.75.07.4-.14 2.2-.53 2.71-.09.12-.2.19-.32.2l-26.99 2.391c-.02.01-.05.02-.08.02zm-.17-.541c.07.03.14.03.22.03l26.99-2.389c.2-.18.48-1.95.41-2.32a.467.467 0 00-.33-.361l-17.39-4.609-.03-.15-3.11-16.1-14 3.269 7.24 22.63z" fill="#013"/><path d="M127.882 308.049l15.8-5.27-5.25-13.96-21.83 10.29c-.07.14-.09.31-.05.46l5.89 26.44c.09.4 2.28.41 2.68.28a.69.69 0 00.48-.58l2.28-17.66z" fill="#fff"/><path d="M124.181 326.629c-.66 0-1.43-.07-1.76-.26-.13-.08-.21-.17-.24-.29l-5.89-26.44a.902.902 0 01.08-.63l.04-.07.08-.04 22.08-10.41 5.44 14.45-15.9 5.3-2.27 17.53a.97.97 0 01-.65.78c-.17.05-.56.08-1.01.08zm-7.39-27.33a.41.41 0 000 .22l5.89 26.45c.21.17 2 .22 2.36.1.17-.05.29-.2.31-.37l2.31-17.84.15-.05 15.56-5.18-5.06-13.46-21.52 10.13z" fill="#013"/><path d="M121.41 367.179l14.67.8c2.24.12 4.19 1.56 4.97 3.67l-34.36 10.43s-3.9-10.97 1.48-11.99l13.24-2.91z" fill="#fff"/><path d="M106.54 382.389l-.08-.22c-.11-.3-2.57-7.33-.66-10.68.51-.89 1.29-1.45 2.33-1.64l13.26-2.92h.03l14.67.8c2.34.13 4.38 1.63 5.2 3.83l.09.25-.25.08-34.59 10.5zm14.89-14.96l-13.2 2.9c-.9.17-1.55.63-1.99 1.4-1.62 2.83.21 8.8.62 10.03l33.87-10.28c-.8-1.88-2.6-3.14-4.66-3.26l-14.64-.79zM76.462 237.45l-.48.14 33.144 113.461.48-.141-33.144-113.46z" fill="#013"/><path d="M50.09 232.898l7.98-.25s4.48 11.34-4.48 14.56" fill="#fff"/><path d="M53.68 247.448l-.17-.47c2.21-.79 3.76-2.16 4.62-4.07 1.78-3.94.12-9.03-.23-10l-7.8.24-.02-.5 8.16-.25.06.16c.1.24 2.33 6.02.28 10.55-.91 2.05-2.57 3.5-4.9 4.34zM186.981 260.609l24.97.52-.09-2.7-25.05 1.04.17 1.14zM220.211 256.289l23.91-2.01-1.01-3.41-23.3 4.62.4.8zM76.431 307.969c-.6.73-1.21 1.46-1.84 2.2l-13.96-36.09c-.29-3.1-.84-5.92-1.44-8.3l.05-.02 17.19 42.21zM198.452 143.699l-.02-.5 15.94-.41.01.5-15.93.41zM215.553 150.361l-17.125.401.011.5 17.125-.401-.011-.5zM198.452 158.819l-.02-.5 18.29-.41.01.5-18.28.41zM198.451 166.379l-.01-.5 19.43-.41.01.5-19.43.41zM219.056 173.032l-20.626.403.009.499 20.626-.402-.009-.5zM220.315 180.58l-21.885.427.009.5 21.886-.427-.01-.5z" fill="#013"/><path d="M73.8 203.339l19-20.5-3-3.5c-3.166 2.833-9.6 8.6-10 9-.4.4-4.833-.167-7-.5l1 15.5z" fill="#E04B00"/><path d="M63.3 136.339l-5.5 7.5-7.5 1 8.5-8.5h4.5zM76.49 145.318l-2.297 58.722s-22.997 7.442-37.416-3.245l2.785-42.214" fill="#FF6100"/><path d="M76.78 145.337l-31.79-3.104-5.2 15.423a5 5 0 00.002 3.2l1.588 4.692a5.001 5.001 0 004.25 3.374l17.43 1.701a4.998 4.998 0 003.825-1.256l3.325-2.984a5 5 0 001.483-2.404l5.088-18.642z" fill="#E04B00"/><path d="M76.49 145.318l-31.309-3.057-5.032 14.644a4.998 4.998 0 00.032 3.342l1.486 4.063a3 3 0 002.526 1.955l18.127 1.769a5 5 0 003.947-1.368l2.828-2.713a4.997 4.997 0 001.231-1.881l6.164-16.754z" fill="#FF6100"/><path d="M52.388 169.39a1.869 1.869 0 10.364-3.722 1.87 1.87 0 00-.364 3.722z" fill="#fff"/><path d="M36.99 197.577c4.755 1.825 10.496 3.175 16.74 3.784 7.744.756 14.95.245 20.616-1.216l-.153 3.894s-22.997 7.442-37.416-3.245l.212-3.217z" fill="#E04B00"/></svg>