<svg width="640" height="540" viewBox="0 0 640 540" fill="none" xmlns="http://www.w3.org/2000/svg">
<g clip-path="url(#clip0)">
<path fill-rule="evenodd" clip-rule="evenodd" d="M549.588 101.439C621.865 165.355 637.911 259.061 639.086 342.292C640.13 416.486 619.241 490.08 555.489 519.974C498.043 546.904 423.416 488.656 352.235 476.798C234.119 457.116 84.1333 535.437 16.1254 430.095C-50.5901 326.725 107.582 267.968 164.231 185.572C203.516 128.447 216.337 48.8201 289.267 32.9C372.093 14.8118 475.156 35.6034 549.588 101.439Z" fill="#FF6100" fill-opacity="0.15"/>
<path d="M566.311 474.942L461.42 474.955L469.266 421.788L581.442 438.361L566.311 474.942Z" fill="white"/>
<path d="M461.041 475.283L461.093 474.904L468.992 421.41L469.318 421.462L581.912 438.088L581.755 438.48L566.532 475.27L461.041 475.283ZM469.54 422.155L461.798 474.63L566.088 474.617L580.985 438.61L469.54 422.155Z" fill="#001133"/>
<path d="M589.304 385.181L477.128 368.621L469.281 421.789L581.457 438.349L589.304 385.181Z" fill="white"/>
<path d="M581.731 438.715L581.405 438.662L468.902 422.05L468.955 421.723L476.84 368.229L477.167 368.282L589.669 384.894L589.617 385.221L581.731 438.715ZM469.66 421.514L581.183 437.983L588.925 385.456L477.402 368.987L469.66 421.514Z" fill="#001133"/>
<path d="M597.149 332L484.973 315.439L477.127 368.62L589.303 385.18L597.149 332Z" fill="white"/>
<path d="M589.589 385.547L589.262 385.494L476.76 368.882L476.812 368.555L484.698 315.062L485.024 315.114L597.526 331.726L597.474 332.053L589.589 385.547ZM477.504 368.347L589.027 384.815L596.769 332.288L485.246 315.819L477.504 368.347Z" fill="#001133"/>
<path d="M604.981 278.833L492.806 262.272L484.959 315.453L597.135 332.013L604.981 278.833Z" fill="white"/>
<path d="M597.424 332.38L597.098 332.327L484.596 315.715L484.648 315.388L492.534 261.895L492.86 261.947L605.362 278.559L605.31 278.886L597.424 332.38ZM485.34 315.166L596.863 331.635L604.605 279.108L493.082 262.639L485.34 315.166Z" fill="#001133"/>
<path d="M613.495 226.62L501.319 210.06L493.473 263.227L605.649 279.787L613.495 226.62Z" fill="white"/>
<path d="M605.936 280.166L605.61 280.113L493.107 263.501L493.16 263.175L501.045 209.681L501.372 209.733L613.874 226.345L613.822 226.672L605.936 280.166ZM493.852 262.953L605.375 279.421L613.117 226.894L501.594 210.425L493.852 262.953Z" fill="#001133"/>
<path d="M620.677 172.499L508.501 155.938L500.654 209.106L612.83 225.666L620.677 172.499Z" fill="white"/>
<path d="M613.104 226.045L612.778 225.992L500.275 209.38L500.328 209.053L508.213 155.56L508.54 155.612L621.042 172.224L620.99 172.551L613.104 226.045ZM501.033 208.831L612.556 225.3L620.298 172.773L508.775 156.304L501.033 208.831Z" fill="#001133"/>
<path d="M619.528 118.012L525.343 104.104L517.496 157.271L611.681 171.18L619.528 118.012Z" fill="white"/>
<path d="M611.953 171.557L611.627 171.505L517.115 157.557L517.167 157.23L525.053 103.736L525.38 103.789L619.891 117.737L619.839 118.063L611.953 171.557ZM517.872 157.008L611.405 170.826L619.147 118.298L525.615 104.481L517.872 157.008Z" fill="#001133"/>
<path d="M625.271 113.114L521.242 97.7559L520.406 103.385L624.435 118.743L625.271 113.114Z" fill="white"/>
<path d="M624.708 119.122L624.381 119.07L520.039 103.659L520.966 97.377L521.292 97.4292L625.635 112.84L624.708 119.122ZM520.783 103.11L624.159 118.377L624.891 113.389L521.514 98.1214L520.783 103.11Z" fill="#001133"/>
<path d="M624.461 170.188L505.535 152.622L504.699 158.251L623.625 175.817L624.461 170.188Z" fill="white"/>
<path d="M623.913 176.195L623.587 176.143L504.348 158.538L505.275 152.256L505.601 152.308L624.84 169.913L623.913 176.195ZM505.079 157.989L623.352 175.45L624.083 170.462L505.81 153L505.079 157.989Z" fill="#001133"/>
<path d="M616.629 223.355L497.703 205.789L496.867 211.418L615.793 228.984L616.629 223.355Z" fill="white"/>
<path d="M616.079 229.362L615.753 229.31L496.514 211.705L497.441 205.423L497.767 205.475L617.006 223.08L616.079 229.362ZM497.245 211.156L615.518 228.618L616.249 223.629L497.976 206.167L497.245 211.156Z" fill="#001133"/>
<path d="M608.781 276.521L489.855 258.969L489.02 264.598L607.945 282.163L608.781 276.521Z" fill="white"/>
<path d="M608.22 282.529L607.893 282.477L488.654 264.872L489.581 258.59L489.908 258.642L609.147 276.247L608.22 282.529ZM489.398 264.323L607.671 281.784L608.403 276.796L490.13 259.334L489.398 264.323Z" fill="#001133"/>
<path d="M600.947 329.676L482.021 312.123L481.186 317.752L600.111 335.318L600.947 329.676Z" fill="white"/>
<path d="M600.386 335.684L600.059 335.632L480.82 318.027L481.747 311.745L482.074 311.797L601.313 329.402L600.386 335.684ZM481.565 317.478L599.837 334.94L600.569 329.951L482.296 312.49L481.565 317.478Z" fill="#001133"/>
<path d="M585.267 436.024L466.341 418.458L465.506 424.087L584.432 441.653L585.267 436.024Z" fill="white"/>
<path d="M584.706 442.031L584.38 441.979L465.141 424.374L466.068 418.092L466.394 418.144L585.646 435.749L584.706 442.031ZM465.885 423.812L584.158 441.286L584.889 436.297L466.616 418.836L465.885 423.812Z" fill="#001133"/>
<path d="M593.101 382.857L474.175 365.291L473.34 370.92L592.266 388.486L593.101 382.857Z" fill="white"/>
<path d="M592.54 388.851L592.214 388.799L472.975 371.194L473.902 364.912L474.228 364.964L593.467 382.569L592.54 388.851ZM473.719 370.645L591.992 388.107L592.723 383.118L474.45 365.657L473.719 370.645Z" fill="#001133"/>
<path d="M210.995 295.486C209.964 295.146 208.867 295.016 207.718 295.146L170.261 299.312C169.504 299.391 168.799 299.587 168.133 299.861L159.777 85.2713L172.037 83.9131L210.995 295.486Z" fill="white"/>
<path d="M167.833 300.33L167.82 299.86L159.451 84.9704L172.311 83.5469L172.363 83.8473L211.413 295.968L210.891 295.799C209.873 295.459 208.815 295.355 207.758 295.472L170.301 299.638C169.609 299.717 168.917 299.886 168.264 300.161L167.833 300.33ZM160.13 85.5451L168.447 299.377C169.034 299.168 169.622 299.037 170.235 298.972L207.679 294.806C208.646 294.702 209.625 294.767 210.565 295.002L171.776 84.2652L160.13 85.5451Z" fill="#001133"/>
<path d="M181.697 313.742L181.554 384.554L156.617 387.322L168.237 314.304C169.399 314.774 170.678 314.97 171.997 314.813L181.697 313.742Z" fill="white"/>
<path d="M156.215 387.702L167.965 313.847L168.344 314.004C169.493 314.474 170.707 314.631 171.947 314.5L182.013 313.377V313.743L181.87 384.855L156.215 387.702ZM168.5 314.748L157.011 386.957L181.23 384.267L181.373 314.108L172.025 315.153C170.824 315.284 169.636 315.14 168.5 314.748Z" fill="#001133"/>
<path d="M241.363 377.921L216.427 380.69L200.76 311.628L209.468 310.662C211.139 310.466 212.667 309.774 213.816 308.716L241.363 377.921Z" fill="white"/>
<path d="M216.164 381.054L216.099 380.767L200.354 311.353L209.427 310.347C211.02 310.165 212.469 309.525 213.592 308.48L213.945 308.153L214.114 308.597L241.819 378.194L216.164 381.054ZM201.15 311.928L216.673 380.336L240.892 377.646L213.67 309.263C212.495 310.217 211.059 310.818 209.493 310.987L201.15 311.928Z" fill="#001133"/>
<path d="M296.474 466.348L264.853 469.861C261.771 442.174 231.717 413.769 204.052 416.851C176.373 419.933 156.424 444.865 159.505 472.552L125.377 476.339L155.797 403.138L245.582 393.173L296.474 466.348Z" fill="white"/>
<path d="M124.867 476.745L125.076 476.235L155.575 402.851L155.77 402.825L245.751 392.834L297.061 466.61L296.513 466.675L264.578 470.228L264.539 469.901C263.076 456.724 255.191 442.58 243.467 432.066C231.312 421.174 216.963 415.754 204.103 417.178C176.647 420.234 156.789 445.061 159.844 472.526L159.883 472.853L159.557 472.892L124.867 476.745ZM156.032 403.452L125.899 475.961L159.152 472.265C156.253 444.578 176.32 419.607 204.025 416.525C217.068 415.062 231.599 420.56 243.897 431.57C255.648 442.096 263.573 456.254 265.139 469.496L295.886 466.075L245.425 393.513L156.032 403.452Z" fill="#001133"/>
<path d="M216.756 301.989C217.004 304.131 216.338 306.169 215.098 307.736C214.824 308.075 214.549 308.376 214.223 308.676C213.061 309.734 211.547 310.452 209.875 310.622L172.418 314.788C171.1 314.932 169.807 314.736 168.658 314.279C166.073 313.247 164.128 310.857 163.801 307.893C163.553 305.751 164.219 303.713 165.459 302.146C166.269 301.128 167.326 300.318 168.554 299.808C169.22 299.534 169.938 299.338 170.682 299.26L208.139 295.094C209.288 294.963 210.398 295.094 211.416 295.433C214.249 296.348 216.403 298.855 216.756 301.989Z" fill="white"/>
<path d="M171.566 315.154C170.521 315.154 169.49 314.958 168.55 314.566C165.756 313.443 163.824 310.896 163.497 307.906C163.249 305.764 163.863 303.635 165.221 301.924C166.056 300.866 167.179 300.017 168.445 299.482C169.15 299.194 169.921 298.986 170.665 298.907L208.122 294.741C209.284 294.61 210.433 294.728 211.53 295.094C214.546 296.073 216.726 298.764 217.092 301.937C217.34 304.079 216.726 306.208 215.368 307.919C215.042 308.323 214.755 308.624 214.454 308.898C213.214 310.034 211.608 310.753 209.924 310.935L172.467 315.102C172.153 315.141 171.866 315.154 171.566 315.154ZM209.023 295.368C208.749 295.368 208.462 295.381 208.174 295.42L170.717 299.586C170.025 299.665 169.32 299.847 168.68 300.109C167.518 300.605 166.487 301.376 165.717 302.342C164.463 303.922 163.902 305.868 164.124 307.84C164.424 310.583 166.2 312.934 168.772 313.965C169.895 314.423 171.135 314.592 172.375 314.462L209.833 310.296C211.386 310.126 212.861 309.473 213.997 308.428C214.271 308.18 214.533 307.906 214.833 307.527C216.086 305.96 216.648 304.001 216.426 302.029C216.099 299.116 214.089 296.648 211.308 295.734C210.577 295.485 209.806 295.368 209.023 295.368Z" fill="#001133"/>
<path d="M256.9 384.136C257.148 386.278 256.483 388.316 255.242 389.883C254.002 391.45 252.148 392.521 250.007 392.769L157.741 403.008C153.459 403.478 149.594 400.396 149.137 396.099C148.889 393.957 149.555 391.92 150.795 390.366C152.036 388.799 153.877 387.715 156.018 387.48L248.284 377.241C252.566 376.77 256.43 379.866 256.9 384.136Z" fill="white"/>
<path d="M156.865 403.386C155.024 403.386 153.248 402.772 151.786 401.597C150.089 400.238 149.031 398.306 148.796 396.138C148.548 393.983 149.162 391.867 150.519 390.169C151.864 388.471 153.796 387.4 155.964 387.165L248.23 376.926C250.397 376.678 252.525 377.305 254.222 378.663C255.919 380.021 256.977 381.954 257.212 384.109C257.46 386.251 256.846 388.38 255.489 390.091C254.144 391.789 252.212 392.859 250.031 393.095L157.765 403.334C157.465 403.36 157.165 403.386 156.865 403.386ZM249.156 377.527C248.869 377.527 248.595 377.54 248.308 377.579L156.042 387.818C154.058 388.04 152.282 389.02 151.042 390.587C149.788 392.141 149.227 394.1 149.449 396.072C149.671 398.057 150.65 399.847 152.204 401.087C153.757 402.328 155.703 402.89 157.7 402.681L249.966 392.442C251.963 392.22 253.752 391.227 254.979 389.673C256.233 388.093 256.794 386.147 256.572 384.175C256.35 382.189 255.371 380.413 253.817 379.173C252.473 378.089 250.854 377.527 249.156 377.527Z" fill="#001133"/>
<path d="M174.178 63.8665C174.752 69.0905 173.486 73.9358 171.045 77.1224L172.481 87.2309L159.908 88.3802L158.916 79.4079C155.286 77.031 152.505 72.1857 151.852 66.3479C150.912 57.885 154.816 50.4538 160.665 49.3568L156.252 9.58896L158.446 9.34082L162.885 49.2523C168.407 49.7616 173.29 55.8999 174.178 63.8665Z" fill="white"/>
<path d="M159.621 88.7446L158.603 79.6026C154.856 77.082 152.153 72.0277 151.527 66.3858C150.6 57.936 154.438 50.4264 160.313 49.1074L155.887 9.31344L158.733 9L158.773 9.3265L163.172 48.9768C168.786 49.6559 173.63 55.977 174.505 63.8391C175.066 68.8672 173.904 73.8562 171.398 77.2256L172.86 87.5431L159.621 88.7446ZM156.618 9.88808L161.031 49.6298L160.731 49.682C155.025 50.7529 151.265 58.0535 152.179 66.3075C152.793 71.8319 155.443 76.7424 159.099 79.1324L159.229 79.2108L160.209 88.0132L172.129 86.9293L170.719 77.0167L170.797 76.9122C173.265 73.6733 174.4 68.815 173.865 63.8913C173.003 56.212 168.277 50.0608 162.859 49.5775L162.598 49.5514L162.572 49.2902L158.172 9.70524L156.618 9.88808Z" fill="#001133"/>
<path d="M95.1759 158.067L66.2441 161.163L68.1633 179.068L97.0951 175.973L95.1759 158.067Z" fill="white"/>
<path d="M67.8634 179.421L67.8242 179.095L65.8789 160.876L66.2053 160.837L95.4635 157.702L95.5026 158.029L97.448 176.247L97.1216 176.287L67.8634 179.421ZM66.597 161.45L68.4379 178.703L96.7299 175.673L94.889 158.42L66.597 161.45Z" fill="#001133"/>
<path d="M95.1785 158.08L66.2598 161.175L76.4956 120.036L95.1785 158.08Z" fill="white"/>
<path d="M65.8281 161.555L65.9456 161.098L76.4034 119.097L95.6869 158.355L65.8281 161.555ZM76.5862 120.99L66.6768 160.797L94.6685 157.807L76.5862 120.99Z" fill="#001133"/>
<path d="M59.8861 216.498L52.5879 217.268L54.2852 198.54L59.8861 216.498Z" fill="white"/>
<path d="M52.2227 217.647L54.1027 196.895L60.3173 216.798L52.2227 217.647ZM54.4552 200.212L52.9407 216.916L59.4556 216.223L54.4552 200.212Z" fill="#001133"/>
<path d="M119.982 210.06L112.684 210.856L114.381 192.115L119.982 210.06Z" fill="white"/>
<path d="M112.318 211.222L114.198 190.443L120.413 210.347L112.318 211.222ZM114.551 193.774L113.036 210.491L119.551 209.785L114.551 193.774Z" fill="#001133"/>
<path d="M111.027 193.446L58.2422 199.088L60.0961 216.393L112.881 210.751L111.027 193.446Z" fill="white"/>
<path d="M59.7962 216.759L59.757 216.432L57.877 198.801L58.2033 198.762L111.315 193.081L111.354 193.408L113.234 211.039L112.907 211.078L59.7962 216.759ZM58.595 199.389L60.3706 216.041L112.516 210.464L110.74 193.812L58.595 199.389Z" fill="#001133"/>
<path d="M111.027 193.461L58.2422 199.103L68.1777 179.068L97.0964 175.986L111.027 193.461Z" fill="white"/>
<path d="M57.6797 199.494L67.9546 178.768L97.2389 175.646L111.653 193.722L111.065 193.787L57.6797 199.494ZM68.3855 179.382L58.8025 198.724L110.399 193.199L96.9517 176.339L68.3855 179.382Z" fill="#001133"/>
<path d="M106.769 221.199L67.8496 225.365L72.0144 264.31L110.934 260.144L106.769 221.199Z" fill="white"/>
<path d="M123.493 271.925L61.8438 278.716L88.6474 482.766L144.122 482.479L123.493 271.925Z" fill="white"/>
<path d="M88.3736 483.106L88.3344 482.819L61.4785 278.429L61.8049 278.39L123.781 271.56L123.807 271.886L144.475 482.806H144.122L88.3736 483.106ZM62.2096 279.004L88.935 482.44L143.77 482.166L123.207 272.291L62.2096 279.004Z" fill="#001133"/>
<path d="M118.768 277.894L67.9941 283.327L71.8456 319.346L122.62 313.913L118.768 277.894Z" fill="white"/>
<path d="M71.5587 319.698L71.5196 319.372L67.6289 283.026L67.9553 282.986L119.043 277.527L119.082 277.854L122.973 314.2L122.646 314.239L71.5587 319.698ZM68.36 283.6L72.1462 318.98L122.268 313.612L118.481 278.233L68.36 283.6Z" fill="#001133"/>
<path d="M123.104 318.471L72.3301 323.904L76.1816 359.923L126.956 354.49L123.104 318.471Z" fill="white"/>
<path d="M75.907 360.289L75.8678 359.963L71.9902 323.616L72.3166 323.577L123.404 318.118L123.443 318.445L127.321 354.791L126.995 354.83L75.907 360.289ZM72.6953 324.191L76.4684 359.571L126.59 354.216L122.817 318.836L72.6953 324.191Z" fill="#001133"/>
<path d="M127.45 359.062L76.6758 364.495L80.5273 400.514L131.301 395.081L127.45 359.062Z" fill="white"/>
<path d="M80.241 400.867L80.2018 400.541L76.3242 364.195L76.6506 364.155L127.738 358.696L127.777 359.023L131.655 395.369L131.329 395.408L80.241 400.867ZM77.0423 364.782L80.8154 400.162L130.937 394.807L127.164 359.428L77.0423 364.782Z" fill="#001133"/>
<path d="M131.786 399.626L81.0117 405.059L84.8632 441.079L135.637 435.646L131.786 399.626Z" fill="white"/>
<path d="M84.5769 441.444L84.5377 441.118L80.6602 404.772L80.9866 404.733L132.074 399.273L132.113 399.6L135.991 435.946L135.664 435.985L84.5769 441.444ZM81.3782 405.346L85.1514 440.726L135.273 435.371L131.5 399.992L81.3782 405.346Z" fill="#001133"/>
<path d="M136.069 440.607L85.2949 446.04L89.1464 482.06L139.921 476.627L136.069 440.607Z" fill="white"/>
<path d="M88.8575 482.427L88.8184 482.1L84.9277 445.754L85.2541 445.715L136.342 440.256L136.381 440.582L140.272 476.928L139.945 476.968L88.8575 482.427ZM85.6589 446.329L89.4451 481.708L139.566 476.354L135.78 440.974L85.6589 446.329Z" fill="#001133"/>
<path d="M119.827 210.073L52.5762 217.269L59.2869 278.665L126.538 271.468L119.827 210.073Z" fill="white"/>
<path d="M58.9986 279.017L58.9595 278.69L52.2227 216.981L52.5491 216.942L120.113 209.707L120.152 210.034L126.902 271.755L126.576 271.794L58.9986 279.017ZM52.9407 217.556L59.5862 278.298L126.184 271.181L119.539 210.438L52.9407 217.556Z" fill="#001133"/>
<path d="M89.4176 262.679C89.0129 262.679 88.6082 262.666 88.2034 262.64C85.7489 262.483 83.3728 261.909 81.1663 260.903C73.7114 257.52 69.0374 249.75 69.5205 241.574C69.8469 236.259 72.21 231.4 76.179 227.861C80.161 224.335 85.2659 222.572 90.5666 222.885C95.4756 223.186 100.071 225.262 103.518 228.749C107.5 232.772 109.589 238.309 109.249 243.951C108.923 249.266 106.56 254.125 102.591 257.664C98.9223 260.916 94.2744 262.679 89.4176 262.679ZM89.3524 223.512C84.6523 223.512 80.161 225.21 76.6098 228.357C72.7584 231.766 70.4736 236.481 70.1733 241.613C69.7033 249.515 74.2337 257.024 81.4405 260.302C83.5686 261.269 85.8664 261.83 88.2426 261.987C93.3736 262.3 98.3217 260.59 102.16 257.168C106.012 253.759 108.296 249.044 108.597 243.912C108.923 238.453 106.899 233.098 103.048 229.206C99.7318 225.837 95.2797 223.826 90.5274 223.538C90.1357 223.525 89.744 223.512 89.3524 223.512Z" fill="#001133"/>
<path d="M419.81 463.464V462.706L419.262 463.242L419.81 462.706V461.857L420.411 462.119L419.849 462.68L419.81 463.464Z" fill="#001133"/>
<path d="M401.846 170.005C401.859 169.979 401.898 169.926 401.898 169.94L401.846 170.032V170.005Z" fill="#001133"/>
<path d="M401.938 169.835C401.911 169.887 401.859 169.966 401.807 170.057C401.859 169.966 401.833 170.005 401.898 169.9C401.898 169.887 401.885 169.927 401.872 169.966C401.885 169.94 401.859 169.979 401.885 169.94C401.938 169.861 401.938 169.861 401.885 169.927C401.911 169.861 401.925 169.848 401.938 169.835Z" fill="#001133"/>
<path d="M402.002 169.651C401.989 169.676 402.002 169.651 402.002 169.651V169.651Z" fill="#001133"/>
<path d="M402.002 169.586C402.002 169.586 402.002 169.572 402.015 169.572C402.028 169.572 402.028 169.586 402.002 169.586Z" fill="#001133"/>
<path d="M402.003 169.652L402.016 169.626C401.99 169.652 402.003 169.652 402.003 169.652Z" fill="#001133"/>
<path d="M401.793 170.057C401.793 170.057 401.806 170.044 401.806 170.03C401.819 170.044 401.819 170.044 401.793 170.057C401.819 170.057 401.819 170.057 401.793 170.057Z" fill="#001133"/>
<path d="M402.055 169.587C402.055 169.574 402.068 169.561 402.068 169.561L402.055 169.587Z" fill="#001133"/>
<path d="M402.068 169.572C402.068 169.572 402.015 169.651 402.002 169.69C402.015 169.664 402.028 169.638 402.028 169.625C402.041 169.625 402.054 169.585 402.068 169.572Z" fill="#001133"/>
<path d="M402.055 169.56C402.055 169.547 402.068 169.547 402.068 169.534C402.068 169.547 402.068 169.56 402.055 169.56Z" fill="#001133"/>
<path d="M401.768 169.679C401.781 169.666 401.781 169.653 401.794 169.626L401.768 169.679Z" fill="#001133"/>
<path d="M402.121 169.377C402.134 169.364 402.134 169.364 402.121 169.377V169.377Z" fill="#001133"/>
<path d="M402.043 169.416C401.991 169.495 401.99 169.508 401.951 169.599C401.964 169.56 402.004 169.468 402.043 169.416Z" fill="#001133"/>
<path d="M402.093 169.416C402.08 169.429 402.079 169.443 402.079 169.443C402.079 169.443 402.066 169.429 402.093 169.416Z" fill="#001133"/>
<path d="M402.002 169.522C402.029 169.522 402.029 169.508 402.002 169.522C402.002 169.522 402.002 169.549 402.002 169.522C402.029 169.522 402.029 169.522 402.002 169.522Z" fill="#001133"/>
<path d="M402.003 169.521C402.003 169.521 402.003 169.535 401.99 169.535C402.003 169.548 402.003 169.548 402.003 169.521Z" fill="#001133"/>
<path d="M401.572 170.056C401.585 170.043 401.598 170.004 401.625 169.978C401.585 170.043 401.572 170.069 401.572 170.056Z" fill="#001133"/>
<path d="M401.833 170.005C401.82 170.018 401.82 170.031 401.82 170.031C401.82 170.031 401.833 170.031 401.833 170.005Z" fill="#001133"/>
<path d="M401.623 170.07C401.61 170.095 401.623 170.07 401.623 170.07V170.07Z" fill="#001133"/>
<path d="M401.637 170.187C401.65 170.161 401.663 170.134 401.663 170.121C401.663 170.121 401.663 170.134 401.65 170.134L401.637 170.187Z" fill="#001133"/>
<path d="M401.506 170.187C401.506 170.187 401.571 170.069 401.597 170.03C401.61 170.004 401.545 170.108 401.519 170.161C401.532 170.134 401.597 170.03 401.597 170.03C401.584 170.043 401.584 170.056 401.571 170.082C401.623 170.004 401.571 170.082 401.637 169.965C401.637 169.978 401.623 169.978 401.623 169.991C401.65 169.938 401.689 169.873 401.702 169.847C401.702 169.847 401.728 169.782 401.702 169.847C401.702 169.847 401.689 169.873 401.676 169.899L401.689 169.873C401.623 169.965 401.676 169.899 401.623 169.991C401.637 169.965 401.689 169.873 401.676 169.912C401.61 170.004 401.663 169.938 401.61 170.043L401.623 170.017C401.532 170.174 401.623 170.004 401.532 170.174C401.519 170.2 401.558 170.121 401.545 170.161C401.571 170.108 401.597 170.082 401.623 170.017C401.689 169.925 401.48 170.278 401.558 170.134C401.584 170.069 401.676 169.938 401.637 170.004L401.571 170.121C401.571 170.134 401.663 169.965 401.623 170.043C401.597 170.095 401.61 170.069 401.597 170.095C401.545 170.187 401.623 170.03 401.623 170.03L401.558 170.121C401.571 170.108 401.61 170.043 401.623 170.03C401.61 170.056 401.597 170.095 401.571 170.121C401.597 170.069 401.571 170.134 401.545 170.2L401.597 170.121C401.597 170.121 401.584 170.147 401.571 170.174C401.558 170.2 401.597 170.121 401.623 170.082C401.623 170.082 401.597 170.134 401.571 170.161C401.623 170.082 401.663 170.004 401.623 170.095L401.61 170.121C401.597 170.147 401.702 169.938 401.676 170.03L401.663 170.043C401.65 170.069 401.689 170.017 401.61 170.134C401.676 170.004 401.584 170.2 401.676 170.017C401.623 170.095 401.61 170.134 401.584 170.2C401.584 170.213 401.65 170.082 401.663 170.069L401.61 170.161L401.663 170.069L401.597 170.187L401.61 170.174C401.61 170.174 401.623 170.121 401.637 170.108C401.663 170.056 401.61 170.174 401.571 170.226L401.623 170.147C401.61 170.174 401.597 170.2 401.571 170.213C401.623 170.121 401.519 170.304 401.571 170.226C401.584 170.213 401.597 170.174 401.623 170.147C401.597 170.2 401.597 170.2 401.61 170.174L401.584 170.239C401.584 170.252 401.597 170.213 401.597 170.213C401.61 170.187 401.676 170.069 401.676 170.069L401.623 170.161C401.65 170.095 401.637 170.134 401.689 170.043C401.689 170.056 401.623 170.16 401.61 170.187L401.623 170.161C401.61 170.187 401.597 170.213 401.571 170.239C401.597 170.174 401.519 170.33 401.571 170.239L401.558 170.265C401.558 170.265 401.571 170.239 401.584 170.239C401.637 170.16 401.61 170.174 401.663 170.108C401.65 170.134 401.61 170.2 401.61 170.187C401.637 170.134 401.663 170.121 401.676 170.069C401.623 170.147 401.65 170.134 401.61 170.2C401.623 170.187 401.623 170.187 401.663 170.121C401.676 170.095 401.689 170.069 401.689 170.056C401.689 170.043 401.676 170.082 401.663 170.121C401.728 170.004 401.532 170.343 401.637 170.187L401.689 170.108C401.689 170.121 401.663 170.174 401.623 170.2C401.702 170.069 401.623 170.213 401.676 170.134C401.545 170.356 401.689 170.121 401.61 170.265L401.637 170.213C401.663 170.161 401.623 170.239 401.623 170.265C401.637 170.213 401.65 170.213 401.676 170.187C401.702 170.121 401.65 170.265 401.61 170.317C401.61 170.33 401.767 170.043 401.689 170.174L401.637 170.265C401.702 170.147 401.637 170.265 401.702 170.174C401.689 170.187 401.676 170.226 401.676 170.226C401.65 170.291 401.676 170.226 401.702 170.174C401.702 170.174 401.676 170.226 401.65 170.252C401.637 170.304 401.702 170.16 401.663 170.239C401.663 170.252 401.65 170.252 401.65 170.265C401.663 170.239 401.65 170.278 401.702 170.2C401.689 170.226 401.715 170.174 401.702 170.213C401.754 170.121 401.689 170.265 401.754 170.134C401.676 170.265 401.689 170.252 401.741 170.187C401.728 170.213 401.728 170.239 401.689 170.278C401.689 170.278 401.702 170.252 401.741 170.187C401.65 170.343 401.819 170.056 401.689 170.265C401.741 170.2 401.754 170.147 401.78 170.121C401.702 170.252 401.767 170.134 401.689 170.265C401.715 170.213 401.78 170.108 401.767 170.134C401.754 170.147 401.741 170.2 401.715 170.213C401.741 170.161 401.715 170.226 401.741 170.147C401.741 170.16 401.728 170.174 401.728 170.174C401.728 170.174 401.715 170.187 401.741 170.121L401.728 170.134C401.78 170.056 401.845 169.952 401.858 169.912C401.767 170.095 401.845 169.965 401.715 170.174C401.715 170.161 401.728 170.147 401.767 170.095C401.767 170.108 401.754 170.121 401.715 170.174C401.728 170.147 401.767 170.082 401.767 170.082C401.754 170.108 401.754 170.134 401.715 170.161C401.741 170.095 401.78 170.043 401.767 170.082C401.754 170.095 401.754 170.134 401.754 170.108C401.754 170.095 401.845 169.965 401.819 170.017C401.741 170.147 401.806 170.069 401.741 170.161L401.754 170.134L401.78 170.082C401.78 170.082 401.832 170.004 401.806 170.03L401.78 170.082L401.793 170.069L401.806 170.017C401.832 169.952 401.885 169.873 401.872 169.899C401.872 169.912 401.872 169.899 401.845 169.965C401.858 169.938 401.898 169.899 401.872 169.912C401.858 169.938 401.806 170.043 401.793 170.056C401.845 169.965 401.806 170.03 401.858 169.925C401.845 169.938 401.806 170.004 401.806 170.017L401.858 169.938C401.845 169.952 401.845 169.965 401.806 170.017C401.806 170.03 401.885 169.873 401.858 169.938C401.858 169.938 401.845 169.952 401.845 169.965C401.832 169.991 401.872 169.912 401.858 169.952C401.793 170.069 401.845 169.978 401.793 170.069C401.806 170.056 401.872 169.938 401.858 169.978V169.965C401.95 169.808 401.806 170.043 401.858 169.965C401.858 169.978 401.806 170.043 401.832 170.03C401.819 170.056 401.845 170.004 401.885 169.952L401.872 169.978C401.858 170.004 401.858 169.991 401.858 170.004C401.872 169.978 401.872 169.978 401.911 169.912C401.78 170.134 401.989 169.795 401.885 169.978L401.872 170.004L401.885 169.978C401.911 169.912 401.898 169.925 401.937 169.886C401.95 169.834 401.989 169.821 401.989 169.821C401.963 169.873 401.924 169.938 401.911 169.965C401.924 169.952 401.937 169.912 401.937 169.899C401.872 170.03 402.015 169.756 401.963 169.847L401.95 169.873C401.963 169.86 401.976 169.808 401.976 169.821C401.924 169.899 401.963 169.847 401.911 169.912C401.911 169.912 401.989 169.769 401.963 169.847C401.95 169.86 401.95 169.86 401.937 169.899C401.885 169.991 401.911 169.965 401.885 169.978L401.872 170.03L401.885 170.004C402.002 169.795 401.898 169.978 401.976 169.821C401.898 169.952 401.924 169.899 401.885 169.978C401.872 170.004 401.858 170.03 401.832 170.056C401.885 169.991 401.806 170.121 401.858 170.004C401.845 170.03 401.858 170.004 401.806 170.082C401.819 170.069 401.832 170.03 401.858 170.004C401.924 169.912 401.793 170.121 401.872 169.991C401.898 169.938 401.95 169.847 401.989 169.795C401.963 169.847 401.924 169.886 401.924 169.886C401.911 169.938 401.911 169.912 401.924 169.886C401.911 169.912 401.898 169.938 401.872 169.965C401.872 169.965 401.937 169.873 401.898 169.899C401.885 169.925 401.845 169.978 401.832 170.017C401.845 169.991 401.885 169.938 401.898 169.899C401.872 169.952 401.845 169.978 401.832 170.017C401.845 170.004 401.858 169.965 401.911 169.886L401.924 169.86C401.924 169.86 401.898 169.925 401.872 169.938C401.845 170.004 401.885 169.912 401.898 169.873L401.911 169.86C402.002 169.703 401.898 169.886 401.898 169.873L401.963 169.743L401.898 169.834C401.911 169.808 401.963 169.743 401.963 169.716C401.989 169.651 401.937 169.769 401.976 169.69C401.976 169.677 401.989 169.677 401.989 169.677L401.976 169.703C401.989 169.677 402.028 169.625 402.002 169.638C402.028 169.573 401.95 169.73 402.002 169.638C401.976 169.69 401.95 169.73 401.885 169.834L402.015 169.612L401.963 169.703C401.963 169.703 401.963 169.69 401.989 169.651C401.963 169.716 401.976 169.677 401.937 169.743C401.989 169.664 401.924 169.769 402.002 169.625C401.976 169.69 401.976 169.677 401.937 169.716C402.015 169.56 401.924 169.743 401.95 169.664C402.002 169.586 401.963 169.638 402.015 169.547C401.937 169.677 402.028 169.521 402.015 169.547C401.95 169.664 401.989 169.599 401.963 169.625C401.976 169.599 401.989 169.56 402.015 169.534L402.028 169.521C401.963 169.638 401.976 169.599 401.963 169.638C401.989 169.573 402.015 169.547 402.028 169.521C402.015 169.547 402.002 169.573 402.002 169.586L402.054 169.508C402.054 169.508 402.002 169.599 402.028 169.534C401.976 169.612 401.911 169.743 401.885 169.795C401.898 169.743 401.95 169.677 401.963 169.664C401.963 169.664 401.95 169.69 401.95 169.677L401.976 169.612C401.989 169.586 401.95 169.677 401.95 169.664C401.976 169.599 401.963 169.612 402.002 169.586C402.002 169.586 401.989 169.612 402.002 169.586C402.002 169.573 402.028 169.534 402.054 169.494C402.041 169.521 402.002 169.573 402.002 169.573C402.002 169.573 402.028 169.508 402.067 169.481C402.054 169.534 402.067 169.481 402.015 169.56C402.015 169.56 402.028 169.508 402.041 169.494C402.028 169.521 402.041 169.508 401.976 169.586C401.924 169.664 402.002 169.534 401.976 169.573L401.989 169.547C401.976 169.573 401.976 169.56 401.937 169.625C401.937 169.625 401.963 169.573 401.989 169.547C401.976 169.56 401.963 169.599 401.989 169.547C402.015 169.494 402.015 169.494 402.002 169.521C402.015 169.494 402.028 169.455 402.002 169.521C402.054 169.442 402.054 169.429 402.028 169.455L402.002 169.508C402.002 169.521 402.002 169.508 402.002 169.508L402.054 169.416C402.12 169.299 401.937 169.625 402.054 169.416C402.028 169.481 402.028 169.468 401.976 169.547C401.976 169.534 402.054 169.39 402.054 169.39C402.08 169.338 401.976 169.534 401.989 169.508C401.976 169.534 401.911 169.638 401.898 169.664C401.898 169.651 401.976 169.521 401.989 169.481C401.989 169.481 401.989 169.494 401.976 169.494C401.976 169.481 401.989 169.468 402.002 169.429L401.989 169.455C402.002 169.429 402.002 169.429 402.041 169.364C402.028 169.39 402.015 169.429 401.989 169.442C402.015 169.39 401.989 169.442 402.002 169.416C401.989 169.429 401.976 169.481 401.976 169.481C401.989 169.429 401.95 169.547 401.924 169.56C401.95 169.508 402.002 169.429 401.976 169.481C401.989 169.455 402.028 169.39 402.041 169.351C402.015 169.416 402.054 169.299 402.067 169.285L402.08 169.259C402.067 169.272 402.067 169.272 402.067 169.272L402.041 169.338C402.041 169.325 402.041 169.325 402.054 169.285C402.028 169.338 401.989 169.403 401.963 169.468C401.976 169.442 401.95 169.494 401.989 169.416C401.976 169.442 402.041 169.325 402.054 169.299C402.054 169.312 402.054 169.312 402.054 169.299C402.054 169.285 402.067 169.285 402.067 169.272C402.12 169.194 402.002 169.39 402.002 169.364C402.028 169.312 402.067 169.272 402.054 169.285C402.054 169.285 402.002 169.364 401.976 169.416C401.989 169.364 401.963 169.442 401.963 169.442L401.95 169.455C401.924 169.508 401.924 169.508 401.924 169.521C401.937 169.468 401.937 169.494 401.95 169.468C401.898 169.56 402.002 169.377 401.963 169.442C401.976 169.416 402.015 169.351 402.028 169.312C402.002 169.377 402.054 169.246 402.028 169.299C402.002 169.364 402.002 169.351 401.963 169.429L401.989 169.377L401.924 169.468C401.924 169.468 401.95 169.416 401.937 169.442C401.911 169.508 401.924 169.468 401.885 169.534C401.95 169.416 401.858 169.599 401.885 169.521L401.976 169.338C402.028 169.259 401.924 169.416 401.95 169.39L401.937 169.416C401.911 169.481 401.937 169.429 401.924 169.442C401.95 169.377 401.976 169.364 401.989 169.325C401.963 169.377 401.989 169.325 401.924 169.442L401.976 169.364C401.989 169.338 401.885 169.521 401.898 169.508C401.924 169.442 401.963 169.416 401.976 169.364C401.976 169.364 401.976 169.351 401.963 169.39C401.976 169.364 401.911 169.468 401.95 169.403C401.937 169.429 401.898 169.481 401.898 169.481C401.898 169.468 401.911 169.455 401.911 169.455C401.898 169.481 401.898 169.481 401.845 169.547C401.937 169.364 401.832 169.56 401.924 169.403C401.911 169.416 401.911 169.429 401.898 169.455C401.911 169.442 401.911 169.429 401.911 169.442C401.937 169.39 401.819 169.599 401.845 169.56C401.898 169.468 401.872 169.508 401.898 169.481C402.015 169.285 401.885 169.508 401.95 169.403V169.39C401.976 169.325 401.898 169.455 401.924 169.455C401.924 169.455 401.937 169.442 401.937 169.429C401.872 169.521 401.858 169.56 401.845 169.586C401.898 169.508 401.858 169.56 401.911 169.468C401.911 169.481 401.845 169.599 401.832 169.612C401.845 169.56 401.885 169.534 401.924 169.455C401.989 169.338 401.924 169.455 401.924 169.442L401.95 169.39C401.937 169.403 401.872 169.521 401.885 169.521L401.872 169.547C401.806 169.664 401.898 169.481 401.858 169.56L401.924 169.442C401.911 169.468 401.858 169.56 401.845 169.573C401.898 169.494 401.924 169.442 401.963 169.39C401.963 169.39 401.963 169.39 401.937 169.455C401.937 169.442 401.95 169.429 401.95 169.442C401.898 169.534 401.872 169.573 401.872 169.573C402.002 169.351 401.898 169.508 402.002 169.338C401.95 169.416 402.015 169.312 402.002 169.312C401.911 169.494 402.002 169.312 401.885 169.494C401.885 169.508 401.885 169.508 401.885 169.494L401.95 169.377C401.976 169.325 401.963 169.351 402.002 169.299C402.002 169.285 402.054 169.22 402.067 169.168C402.041 169.233 402.015 169.259 402.041 169.233L401.989 169.312C401.937 169.403 402.067 169.168 402.015 169.246L402.041 169.181C402.028 169.207 402.041 169.181 401.963 169.325C401.976 169.312 401.989 169.259 402.015 169.246C402.028 169.233 401.924 169.39 401.963 169.312L401.989 169.259C401.989 169.272 401.937 169.338 401.976 169.285C401.989 169.272 402.002 169.233 402.002 169.233C401.989 169.246 401.95 169.312 401.976 169.285L402.002 169.233C402.028 169.168 401.937 169.351 401.911 169.377C401.989 169.246 402.002 169.194 402.028 169.181L402.041 169.168C402.041 169.155 401.976 169.285 401.95 169.325C402.028 169.181 401.976 169.259 402.028 169.181C402.015 169.194 401.963 169.272 401.963 169.299C401.976 169.272 401.911 169.39 401.976 169.272C402.041 169.155 402.028 169.194 402.028 169.181L401.937 169.338C402.067 169.116 401.885 169.416 402.002 169.207C401.989 169.233 401.989 169.233 401.95 169.285L402.002 169.207C402.015 169.194 402.015 169.181 402.002 169.194L402.028 169.129L401.885 169.364L401.95 169.233C401.95 169.233 402.015 169.116 401.95 169.233C401.963 169.22 401.976 169.181 401.976 169.168C401.976 169.168 402.028 169.09 401.924 169.246C401.989 169.129 401.924 169.233 401.911 169.272L401.963 169.194C401.898 169.286 401.885 169.325 401.872 169.351C401.872 169.338 401.898 169.285 401.898 169.299C401.911 169.246 401.845 169.377 401.885 169.325L401.911 169.272C401.911 169.272 401.898 169.285 401.858 169.351C401.845 169.377 401.872 169.338 401.911 169.259C401.885 169.312 401.845 169.377 401.858 169.338C401.872 169.312 401.885 169.285 401.885 169.285C401.911 169.22 401.832 169.377 401.872 169.299C401.885 169.272 401.885 169.246 401.898 169.246C401.898 169.246 401.898 169.246 401.898 169.259C401.95 169.181 401.95 169.168 402.015 169.063C401.989 169.129 401.898 169.246 401.937 169.207C401.937 169.207 401.95 169.194 401.95 169.181V169.168C401.95 169.168 401.95 169.168 401.95 169.181C401.95 169.168 401.963 169.168 401.963 169.168C401.989 169.103 401.976 169.142 401.976 169.142C401.924 169.22 401.95 169.207 401.898 169.285V169.272C401.898 169.272 401.898 169.272 401.898 169.259C401.872 169.312 401.845 169.338 401.885 169.285C401.858 169.338 401.819 169.403 401.806 169.416C401.872 169.299 401.898 169.233 401.95 169.155C401.924 169.207 401.937 169.181 401.832 169.338C401.819 169.351 401.858 169.285 401.858 169.272C401.872 169.259 401.858 169.259 401.872 169.246C401.858 169.272 401.858 169.259 401.793 169.377C401.819 169.325 401.858 169.285 401.845 169.299L401.858 169.272C401.95 169.09 401.702 169.547 401.832 169.325C401.832 169.338 401.819 169.338 401.819 169.351C401.872 169.259 401.754 169.442 401.845 169.285C401.858 169.259 401.832 169.312 401.793 169.377L401.845 169.285L401.78 169.377C401.728 169.455 401.911 169.155 401.806 169.299L401.78 169.364C401.78 169.351 401.767 169.39 401.793 169.338C401.793 169.351 401.767 169.403 401.78 169.364L401.806 169.312L401.754 169.39C401.767 169.364 401.872 169.207 401.872 169.194C401.858 169.207 401.793 169.325 401.78 169.351C401.78 169.351 401.767 169.377 401.728 169.429L401.715 169.442C401.637 169.586 401.558 169.716 401.506 169.808L401.558 169.73L401.532 169.795C401.506 169.86 401.532 169.795 401.545 169.769C401.532 169.795 401.519 169.834 401.493 169.847L401.571 169.716C401.545 169.769 401.506 169.834 401.493 169.847C401.519 169.782 401.558 169.73 401.584 169.69C401.558 169.756 401.519 169.808 401.558 169.756C401.545 169.782 401.532 169.821 401.506 169.834C401.532 169.782 401.519 169.821 401.558 169.743C401.506 169.821 401.571 169.73 401.493 169.86C401.506 169.834 401.558 169.769 401.558 169.743C401.467 169.899 401.558 169.756 401.467 169.925C401.545 169.782 401.493 169.86 401.545 169.782C401.545 169.795 401.532 169.808 401.532 169.808C401.532 169.821 401.506 169.86 401.48 169.886C401.545 169.769 401.558 169.743 401.61 169.677C401.545 169.795 401.532 169.808 401.467 169.912C401.519 169.821 401.519 169.821 401.558 169.73C401.532 169.795 401.545 169.756 401.48 169.86C401.558 169.716 401.493 169.834 401.545 169.743C401.519 169.808 401.467 169.873 401.493 169.834C401.519 170.121 401.506 170.187 401.506 170.187ZM401.676 169.952C401.676 169.952 401.65 169.952 401.676 169.952C401.65 169.952 401.65 169.952 401.676 169.952C401.65 169.952 401.65 169.952 401.676 169.952ZM401.676 169.952C401.676 169.925 401.676 169.925 401.676 169.952C401.689 169.925 401.702 169.886 401.702 169.886C401.689 169.899 401.689 169.912 401.676 169.952ZM401.989 169.364C401.989 169.351 401.989 169.364 401.976 169.377C401.976 169.377 401.976 169.377 401.976 169.39C401.976 169.39 401.976 169.39 401.976 169.403C401.976 169.403 401.976 169.377 401.989 169.364Z" fill="#001133"/>
<path d="M401.925 169.481C401.925 169.495 401.912 169.495 401.912 169.508C401.912 169.495 401.925 169.481 401.925 169.481Z" fill="#001133"/>
<path d="M401.586 170.11L401.6 170.096L401.586 170.11Z" fill="#001133"/>
<path d="M401.846 169.965L401.832 169.979C401.832 169.979 401.832 169.979 401.846 169.965Z" fill="#001133"/>
<path d="M401.834 169.978L401.82 170.004C401.834 169.991 401.834 169.991 401.834 169.978Z" fill="#001133"/>
<path d="M401.82 170.031C401.833 170.018 401.833 170.005 401.833 170.005L401.82 170.031Z" fill="#001133"/>
<path d="M401.717 170.109C401.704 170.122 401.704 170.109 401.717 170.109V170.109Z" fill="#001133"/>
<path d="M401.834 169.913C401.82 169.926 401.82 169.94 401.82 169.94C401.82 169.966 401.82 169.966 401.834 169.913Z" fill="#001133"/>
<path d="M401.823 169.952C401.796 169.965 401.796 169.965 401.823 169.952C401.823 169.952 401.823 169.926 401.823 169.952Z" fill="#001133"/>
<path d="M401.793 170.07L401.807 170.056L401.793 170.07Z" fill="#001133"/>
<path d="M401.834 170.03L401.82 170.044C401.82 170.057 401.82 170.057 401.834 170.03Z" fill="#001133"/>
<path d="M401.82 170.03L401.806 170.057C401.793 170.057 401.82 170.044 401.82 170.03Z" fill="#001133"/>
<path d="M401.819 170.044C401.819 170.044 401.793 170.11 401.793 170.097L401.806 170.084C401.78 170.11 401.846 169.991 401.819 170.044Z" fill="#001133"/>
<path d="M402.027 169.678L402.014 169.704C402.027 169.678 402.066 169.626 402.066 169.626C402.106 169.508 402.001 169.678 402.027 169.678Z" fill="#001133"/>
<path d="M402.041 169.627C402.054 169.613 402.067 169.574 402.067 169.561C402.067 169.574 402.054 169.587 402.041 169.627Z" fill="#001133"/>
<path d="M402.029 169.613L402.082 169.534C402.055 169.547 402.055 169.56 402.029 169.613Z" fill="#001133"/>
<path d="M401.794 169.991L401.768 170.043L401.82 169.965L401.794 169.991Z" fill="#001133"/>
<path d="M402.108 169.442L402.094 169.457L402.108 169.442Z" fill="#001133"/>
<path d="M402.055 169.469L402.002 169.561C402.002 169.548 402.068 169.429 402.055 169.469Z" fill="#001133"/>
<path d="M401.977 169.547C402.003 169.495 402.029 169.468 401.99 169.521C401.99 169.521 401.977 169.56 401.977 169.547Z" fill="#001133"/>
<path d="M463.744 466.115L455.428 466.507L430.635 467.656L420.138 468.139L417.278 468.27L397.381 469.184L359.506 470.947L347.521 471.509L346.633 471.535L343.905 471.666L291.864 474.082L283.756 474.447L283.338 465.318C283.338 465.305 283.325 465.305 283.325 465.292L283.26 463.921L279.278 377.294L278.547 361.334L266.353 97.1169V97.0646C266.34 97.0516 266.353 97.0385 266.353 97.0385L265.922 87.5569L276.314 87.0737L315.038 85.2714L362.052 83.0904L364.259 82.999L376.91 82.4243H376.923L396.533 81.5232L403.922 81.1836L408.126 80.9877L411.952 80.8049L434.63 79.7339L445.871 79.2246L450.31 175.477L450.819 186.722L452.268 218.157L452.947 232.824L463.666 465.149L463.744 466.115Z" fill="#FF6100"/>
<path d="M283.351 464.378L283.769 473.481L291.877 473.115C287.608 472.149 284.213 468.74 283.351 464.378ZM452.999 232.797L452.307 217.791C454.109 216.002 455.715 213.887 457.125 211.836C459.135 208.937 461.068 205.959 462.948 202.968L461.368 169.051L460.833 157.31L457.712 89.8293C457.151 77.37 446.589 67.7447 434.146 68.3194L403.178 69.756L384.626 70.6049L376.374 70.9706L370.329 71.2579C369.076 72.8773 367.966 74.6404 367.013 76.5341C365.943 78.5846 365.042 80.7656 364.311 82.9727L362.117 83.0642L265.961 87.5046V87.5568L266.418 97.0645C266.927 91.8405 271.066 87.609 276.38 87.0997C276.575 87.0736 276.784 87.0736 276.993 87.0475L315.09 85.2844L315.103 85.2974L318.524 93.251C319.895 96.4246 323.093 98.4097 326.527 98.253L356.856 96.8555L361.177 96.6597L368.737 96.307L372.719 96.1242L386.401 95.4973C389.848 95.3406 392.838 93.042 393.895 89.777L395.893 83.6257L396.585 81.5231V81.51L403.974 81.1704L408.204 80.9745L412.03 80.7917L434.708 79.7469C440.844 79.4596 446.053 84.2134 446.328 90.3647L450.257 175.438L450.793 186.891L452.229 217.922L452.921 232.941L463.17 454.426C463.405 459.559 460.128 464.038 455.467 465.553L463.744 465.162H463.796L452.999 232.797Z" fill="white"/>
<path d="M453.038 477.45L433.533 478.352L423.114 478.835L409.34 479.462L390.971 480.311L386.101 480.533L385.748 480.546L374.22 481.081L363.828 481.564L339.413 482.701L337.376 482.792L295.35 484.725C282.907 485.3 272.345 475.674 271.784 463.215L254.929 99.1926C254.354 86.7333 263.976 76.1939 276.419 75.6062L370.316 71.2441C369.063 72.8636 367.953 74.6267 367 76.5204C366.191 77.3171 365.447 78.179 364.742 79.0802C363.775 80.3209 362.888 81.666 362.104 83.0635L265.948 87.5039V87.5561L266.405 97.0638C266.405 97.0769 266.392 97.0899 266.405 97.0899V97.1422C266.34 97.6385 266.326 98.1609 266.353 98.6702L278.508 361.49C277.346 363.815 276.366 366.218 275.583 368.739C274.891 370.998 274.473 373.702 276.001 375.491C276.823 376.444 277.998 376.914 279.226 377.267L283.182 462.719C283.195 463.124 283.247 463.542 283.312 463.933L283.377 465.305C283.377 465.318 283.391 465.318 283.391 465.331L283.808 474.46L291.916 474.094L343.957 471.678L346.685 471.547L347.573 471.521L359.558 470.96L397.433 469.197L417.331 468.282L420.19 468.152L430.687 467.669L455.48 466.519L463.796 466.127L463.744 465.161H463.796L453.038 232.81C454.37 231.282 455.597 229.636 456.72 228.017C458.848 224.935 460.911 221.787 462.882 218.614C463.144 218.196 463.392 217.778 463.653 217.36L474.58 453.89C475.116 466.323 465.494 476.889 453.038 477.45Z" fill="white"/>
<path d="M278.484 361.504L279.215 377.28C277.988 376.928 276.8 376.458 275.99 375.504C274.463 373.715 274.881 370.999 275.573 368.739C276.343 366.232 277.322 363.829 278.484 361.504Z" fill="white"/>
<path d="M364.273 82.9858L362.08 83.0773C362.876 81.6798 363.777 80.3346 364.717 79.0939C365.409 78.1928 366.167 77.3178 366.976 76.5342C365.919 78.5977 365.031 80.7787 364.273 82.9858Z" fill="white"/>
<path d="M453.001 232.798L452.309 217.792C454.11 216.003 455.716 213.887 457.126 211.837C459.137 208.937 461.082 205.959 462.949 202.969L463.615 217.335C463.354 217.753 463.106 218.171 462.845 218.589C460.873 221.762 458.81 224.91 456.682 227.992C455.56 229.611 454.345 231.257 453.001 232.798Z" fill="#FF6100"/>
<path d="M463.746 466.115L455.429 466.507L430.636 467.656L420.139 468.139L417.28 468.27L397.383 469.184L359.508 470.947L347.523 471.509L346.635 471.535L343.906 471.666L291.866 474.082L283.758 474.447L283.34 465.318C283.34 465.305 283.327 465.305 283.327 465.292L283.262 463.921C283.275 464.065 283.288 464.195 283.327 464.326C283.327 464.339 283.34 464.339 283.34 464.352L283.758 473.455L291.866 473.089C292.806 473.311 293.785 473.389 294.79 473.35L344.324 471.065L345.969 470.986L348.345 470.895L360.004 470.36L397.03 468.649L417.698 467.695L420.048 467.578L430.741 467.081L452.518 466.076C453.536 466.024 454.502 465.854 455.416 465.566L463.694 465.175L463.746 466.115Z" fill="white"/>
<path d="M435.177 504.577V503.82L434.629 504.355L435.177 503.82V502.971L435.778 503.232L435.216 503.793L435.177 504.577Z" fill="#001133"/>
<path d="M417.213 211.119C417.226 211.092 417.266 211.04 417.266 211.053L417.213 211.145V211.119Z" fill="#001133"/>
<path d="M417.319 210.935C417.292 210.987 417.24 211.065 417.188 211.157C417.24 211.065 417.214 211.105 417.279 211C417.279 210.987 417.266 211.026 417.253 211.065C417.266 211.039 417.24 211.079 417.266 211.039C417.319 210.961 417.319 210.961 417.266 211.026C417.279 210.974 417.305 210.948 417.319 210.935Z" fill="#001133"/>
<path d="M417.382 210.766C417.37 210.778 417.382 210.766 417.382 210.766V210.766Z" fill="#001133"/>
<path d="M417.383 210.702C417.383 210.702 417.383 210.688 417.397 210.688C417.397 210.673 417.397 210.702 417.383 210.702Z" fill="#001133"/>
<path d="M417.382 210.765L417.396 210.738C417.369 210.765 417.382 210.765 417.382 210.765Z" fill="#001133"/>
<path d="M417.174 211.17C417.174 211.17 417.187 211.157 417.187 211.144C417.187 211.144 417.187 211.144 417.174 211.17C417.187 211.17 417.187 211.17 417.174 211.17Z" fill="#001133"/>
<path d="M417.436 210.699C417.436 210.686 417.449 210.673 417.449 210.673L417.436 210.699Z" fill="#001133"/>
<path d="M417.448 210.673C417.448 210.673 417.396 210.752 417.383 210.791C417.396 210.765 417.409 210.738 417.409 210.725C417.409 210.725 417.435 210.699 417.448 210.673Z" fill="#001133"/>
<path d="M417.436 210.66C417.436 210.648 417.448 210.648 417.448 210.635C417.448 210.648 417.448 210.66 417.436 210.66Z" fill="#001133"/>
<path d="M417.135 210.778C417.148 210.765 417.148 210.752 417.161 210.726L417.135 210.778Z" fill="#001133"/>
<path d="M417.486 210.491C417.513 210.464 417.513 210.464 417.486 210.491V210.491Z" fill="#001133"/>
<path d="M417.408 210.518C417.356 210.596 417.356 210.609 417.316 210.701C417.33 210.662 417.382 210.57 417.408 210.518Z" fill="#001133"/>
<path d="M417.461 210.518C417.447 210.531 417.447 210.544 417.447 210.544C417.447 210.544 417.447 210.531 417.461 210.518Z" fill="#001133"/>
<path d="M417.383 210.634C417.395 210.634 417.395 210.622 417.383 210.634C417.383 210.634 417.383 210.647 417.383 210.634C417.395 210.634 417.395 210.634 417.383 210.634Z" fill="#001133"/>
<path d="M417.383 210.635C417.383 210.635 417.383 210.649 417.369 210.649C417.383 210.649 417.383 210.649 417.383 210.635Z" fill="#001133"/>
<path d="M416.939 211.171C416.953 211.158 416.966 211.119 416.992 211.093C416.966 211.145 416.939 211.184 416.939 211.171Z" fill="#001133"/>
<path d="M417.201 211.118C417.187 211.131 417.188 211.145 417.188 211.145C417.188 211.131 417.201 211.131 417.201 211.118Z" fill="#001133"/>
<path d="M416.992 211.184C416.98 211.196 416.992 211.184 416.992 211.184V211.184Z" fill="#001133"/>
<path d="M417.004 211.289C417.017 211.262 417.03 211.236 417.03 211.223C417.03 211.223 417.03 211.236 417.017 211.236L417.004 211.289Z" fill="#001133"/>
<path d="M416.875 211.287C416.875 211.287 416.94 211.17 416.967 211.131C416.98 211.104 416.914 211.209 416.888 211.261C416.901 211.235 416.967 211.131 416.967 211.131C416.953 211.144 416.953 211.157 416.94 211.183C416.993 211.104 416.94 211.183 417.006 211.065C417.006 211.078 416.993 211.078 416.993 211.091C417.019 211.039 417.058 210.974 417.071 210.948C417.071 210.948 417.097 210.882 417.071 210.948C417.071 210.948 417.058 210.974 417.045 211L417.058 210.974C416.993 211.065 417.045 211 416.993 211.091C417.006 211.065 417.058 210.974 417.045 211.013C416.98 211.104 417.032 211.039 416.98 211.144L416.993 211.117C416.901 211.274 416.993 211.104 416.901 211.274C416.888 211.3 416.927 211.222 416.914 211.261C416.94 211.209 416.967 211.183 416.993 211.117C417.058 211.026 416.849 211.379 416.927 211.235C416.953 211.17 417.045 211.039 417.006 211.104L416.94 211.222C416.94 211.235 417.032 211.065 416.993 211.144C416.967 211.196 416.98 211.17 416.967 211.196C416.914 211.287 416.993 211.131 416.993 211.131L416.927 211.222C416.94 211.209 416.98 211.144 416.993 211.131C416.98 211.157 416.967 211.196 416.94 211.222C416.967 211.17 416.94 211.235 416.914 211.3L416.967 211.222C416.967 211.222 416.953 211.248 416.94 211.274C416.927 211.3 416.967 211.222 416.993 211.183C416.993 211.183 416.967 211.235 416.94 211.261C416.993 211.183 417.032 211.104 416.993 211.196L416.98 211.222C416.967 211.248 417.071 211.039 417.045 211.131L417.032 211.144C417.019 211.17 417.058 211.117 416.98 211.235C417.045 211.104 416.953 211.3 417.045 211.117C416.993 211.196 416.98 211.235 416.953 211.3C416.953 211.313 417.019 211.183 417.032 211.17L416.98 211.261L417.032 211.17L416.967 211.287L416.98 211.274C416.98 211.274 416.993 211.222 417.006 211.209C417.032 211.157 416.98 211.274 416.94 211.326L416.993 211.248C416.98 211.274 416.967 211.3 416.94 211.313C416.993 211.222 416.888 211.405 416.94 211.326C416.953 211.313 416.967 211.274 416.993 211.248C416.967 211.3 416.967 211.3 416.98 211.274L416.953 211.339C416.953 211.353 416.967 211.313 416.967 211.313C416.98 211.287 417.045 211.17 417.045 211.17L416.993 211.261C417.019 211.196 417.006 211.235 417.058 211.144C417.058 211.157 416.993 211.261 416.98 211.287L416.993 211.261C416.98 211.287 416.967 211.313 416.94 211.339C416.967 211.274 416.888 211.431 416.94 211.339L416.927 211.366C416.927 211.366 416.94 211.339 416.953 211.339C417.006 211.261 416.98 211.274 417.032 211.209C417.019 211.235 416.98 211.3 416.98 211.287C417.006 211.235 417.032 211.222 417.045 211.17C416.993 211.248 417.019 211.235 416.98 211.3C416.993 211.287 416.993 211.287 417.032 211.222C417.045 211.196 417.058 211.17 417.058 211.157C417.058 211.144 417.045 211.183 417.032 211.222C417.097 211.104 416.901 211.444 417.006 211.287L417.058 211.209C417.058 211.222 417.032 211.274 416.993 211.3C417.071 211.17 416.993 211.313 417.045 211.235C416.914 211.457 417.058 211.222 416.98 211.366L417.006 211.313C417.032 211.261 416.993 211.339 416.993 211.366C417.006 211.313 417.019 211.313 417.045 211.287C417.071 211.222 417.019 211.366 416.98 211.418C416.98 211.431 417.136 211.144 417.058 211.274L417.006 211.366C417.071 211.248 417.006 211.366 417.071 211.274C417.058 211.287 417.045 211.326 417.045 211.326C417.019 211.392 417.045 211.326 417.071 211.274C417.071 211.274 417.045 211.326 417.019 211.353C417.006 211.405 417.071 211.261 417.032 211.339C417.032 211.353 417.019 211.353 417.019 211.366C417.032 211.339 417.019 211.379 417.071 211.3C417.058 211.326 417.084 211.274 417.071 211.313C417.123 211.222 417.058 211.366 417.123 211.235C417.045 211.366 417.058 211.353 417.11 211.287C417.097 211.313 417.097 211.339 417.058 211.379C417.058 211.379 417.071 211.353 417.11 211.287C417.019 211.444 417.188 211.157 417.058 211.366C417.11 211.3 417.123 211.248 417.149 211.222C417.071 211.353 417.136 211.235 417.058 211.366C417.084 211.313 417.149 211.209 417.136 211.235C417.123 211.248 417.11 211.3 417.084 211.313C417.11 211.261 417.084 211.326 417.11 211.248C417.11 211.261 417.097 211.274 417.097 211.274C417.097 211.274 417.084 211.287 417.11 211.222L417.097 211.235C417.149 211.157 417.215 211.052 417.228 211.013C417.136 211.196 417.215 211.065 417.084 211.274C417.084 211.261 417.097 211.248 417.136 211.196C417.136 211.209 417.123 211.222 417.084 211.274C417.097 211.248 417.136 211.183 417.136 211.183C417.123 211.209 417.123 211.235 417.084 211.261C417.11 211.196 417.149 211.144 417.136 211.183C417.123 211.196 417.123 211.235 417.123 211.209C417.123 211.196 417.215 211.065 417.188 211.117C417.11 211.248 417.175 211.17 417.11 211.261L417.123 211.235L417.149 211.183C417.149 211.183 417.202 211.104 417.175 211.131L417.149 211.183L417.162 211.17L417.175 211.117C417.202 211.052 417.254 210.974 417.241 211C417.241 211.013 417.241 211 417.215 211.065C417.228 211.039 417.267 211 417.241 211.013C417.228 211.039 417.175 211.144 417.162 211.157C417.215 211.065 417.175 211.131 417.228 211.026C417.215 211.039 417.175 211.104 417.175 211.117L417.228 211.039C417.215 211.052 417.215 211.065 417.175 211.117C417.175 211.13 417.254 210.974 417.228 211.039C417.228 211.039 417.215 211.052 417.215 211.065C417.202 211.091 417.241 211.013 417.228 211.052C417.162 211.17 417.215 211.078 417.162 211.17C417.175 211.157 417.241 211.039 417.228 211.078V211.065C417.319 210.908 417.175 211.144 417.228 211.065C417.228 211.078 417.175 211.144 417.201 211.131C417.188 211.157 417.215 211.104 417.254 211.052L417.241 211.078C417.228 211.104 417.228 211.091 417.228 211.104C417.241 211.078 417.241 211.078 417.28 211.013C417.149 211.235 417.358 210.895 417.254 211.078L417.241 211.104L417.254 211.078C417.28 211.013 417.267 211.026 417.306 210.987C417.319 210.935 417.358 210.922 417.358 210.922C417.332 210.974 417.293 211.039 417.28 211.065C417.293 211.052 417.306 211.013 417.306 211C417.241 211.131 417.384 210.856 417.332 210.948L417.319 210.974C417.332 210.961 417.345 210.908 417.345 210.922C417.293 211 417.332 210.948 417.28 211.013C417.28 211.013 417.358 210.869 417.332 210.948C417.319 210.961 417.319 210.961 417.306 211C417.254 211.091 417.28 211.065 417.254 211.078L417.241 211.131L417.254 211.104C417.371 210.895 417.267 211.078 417.345 210.922C417.267 211.052 417.293 211 417.254 211.078C417.241 211.104 417.228 211.13 417.201 211.157C417.254 211.091 417.175 211.222 417.228 211.104C417.215 211.131 417.228 211.104 417.175 211.183C417.188 211.17 417.202 211.131 417.228 211.104C417.293 211.013 417.162 211.222 417.241 211.091C417.267 211.039 417.319 210.948 417.358 210.895C417.332 210.948 417.293 210.987 417.293 210.987C417.28 211.039 417.28 211.013 417.293 210.987C417.28 211.013 417.267 211.039 417.241 211.065C417.241 211.065 417.306 210.974 417.267 211C417.254 211.026 417.215 211.078 417.201 211.117C417.215 211.091 417.254 211.039 417.267 211C417.241 211.052 417.215 211.078 417.201 211.117C417.215 211.104 417.228 211.065 417.28 210.987L417.293 210.961C417.293 210.961 417.267 211.026 417.241 211.039C417.215 211.104 417.254 211.013 417.267 210.974L417.28 210.961C417.371 210.804 417.267 210.987 417.267 210.974L417.332 210.843L417.267 210.935C417.28 210.908 417.332 210.843 417.332 210.817C417.358 210.752 417.306 210.869 417.345 210.791C417.345 210.778 417.358 210.778 417.358 210.778L417.345 210.804C417.358 210.778 417.397 210.726 417.371 210.739C417.397 210.673 417.319 210.83 417.371 210.739C417.345 210.791 417.319 210.83 417.254 210.935L417.384 210.713L417.332 210.804C417.332 210.804 417.332 210.791 417.358 210.752C417.332 210.817 417.345 210.778 417.306 210.843C417.358 210.765 417.293 210.869 417.371 210.726C417.345 210.791 417.345 210.778 417.306 210.817C417.384 210.66 417.293 210.843 417.319 210.765C417.371 210.686 417.332 210.739 417.384 210.647C417.306 210.778 417.397 210.621 417.384 210.647C417.319 210.765 417.358 210.7 417.332 210.726C417.345 210.7 417.358 210.66 417.384 210.634L417.397 210.621C417.332 210.739 417.345 210.7 417.332 210.739C417.358 210.673 417.384 210.647 417.397 210.621C417.384 210.647 417.371 210.673 417.371 210.686L417.423 210.608C417.423 210.608 417.371 210.7 417.397 210.634C417.345 210.713 417.28 210.843 417.254 210.895C417.267 210.843 417.319 210.778 417.332 210.765C417.332 210.765 417.319 210.791 417.319 210.778L417.345 210.713C417.358 210.686 417.319 210.778 417.319 210.765C417.345 210.7 417.332 210.713 417.371 210.686C417.371 210.686 417.358 210.713 417.371 210.686C417.371 210.673 417.397 210.634 417.423 210.595C417.41 210.621 417.371 210.673 417.371 210.673C417.371 210.673 417.397 210.608 417.437 210.582C417.423 210.634 417.437 210.582 417.384 210.66C417.384 210.66 417.397 210.608 417.41 210.595C417.397 210.621 417.41 210.608 417.345 210.686C417.293 210.765 417.371 210.634 417.345 210.673L417.358 210.647C417.345 210.673 417.345 210.66 417.306 210.726C417.306 210.726 417.332 210.673 417.358 210.647C417.345 210.66 417.332 210.7 417.358 210.647C417.384 210.595 417.384 210.595 417.371 210.621C417.384 210.595 417.397 210.556 417.371 210.621C417.423 210.543 417.423 210.53 417.397 210.556L417.371 210.608C417.371 210.621 417.371 210.608 417.371 210.608L417.423 210.517C417.489 210.399 417.306 210.726 417.423 210.517C417.397 210.582 417.397 210.569 417.345 210.647C417.345 210.634 417.423 210.491 417.423 210.491C417.45 210.438 417.345 210.634 417.358 210.608C417.345 210.634 417.28 210.739 417.267 210.765C417.267 210.752 417.345 210.621 417.358 210.582C417.358 210.582 417.358 210.595 417.345 210.595C417.345 210.582 417.358 210.569 417.371 210.53L417.358 210.556C417.371 210.53 417.371 210.53 417.41 210.464C417.397 210.491 417.384 210.53 417.358 210.543C417.384 210.491 417.358 210.543 417.371 210.517C417.358 210.53 417.345 210.582 417.345 210.582C417.358 210.53 417.319 210.647 417.293 210.66C417.319 210.608 417.371 210.53 417.345 210.582C417.358 210.556 417.397 210.491 417.41 210.451C417.384 210.517 417.423 210.399 417.437 210.386L417.45 210.36C417.437 210.373 417.437 210.373 417.437 210.373L417.41 210.438C417.41 210.425 417.41 210.425 417.423 210.386C417.397 210.438 417.358 210.504 417.332 210.569C417.345 210.543 417.319 210.595 417.358 210.517C417.345 210.543 417.41 210.425 417.423 210.399C417.423 210.412 417.423 210.412 417.423 210.399C417.423 210.386 417.437 210.386 417.437 210.373C417.489 210.295 417.371 210.491 417.371 210.464C417.397 210.412 417.437 210.373 417.423 210.386C417.423 210.386 417.371 210.464 417.345 210.517C417.358 210.464 417.332 210.543 417.332 210.543L417.319 210.556C417.293 210.608 417.293 210.608 417.293 210.621C417.306 210.569 417.306 210.595 417.319 210.569C417.267 210.66 417.371 210.478 417.332 210.543C417.345 210.517 417.384 210.451 417.397 210.412C417.371 210.478 417.423 210.347 417.397 210.399C417.371 210.464 417.371 210.451 417.332 210.53L417.358 210.478L417.293 210.569C417.293 210.569 417.319 210.517 417.306 210.543C417.28 210.608 417.293 210.569 417.254 210.634C417.319 210.517 417.228 210.7 417.254 210.621L417.345 210.438C417.397 210.36 417.293 210.517 417.319 210.491L417.306 210.517C417.28 210.582 417.306 210.53 417.293 210.543C417.319 210.478 417.345 210.464 417.358 210.425C417.332 210.477 417.358 210.425 417.293 210.543L417.345 210.464C417.358 210.438 417.254 210.621 417.267 210.608C417.293 210.543 417.332 210.517 417.345 210.464C417.345 210.464 417.345 210.451 417.332 210.491C417.345 210.464 417.28 210.569 417.319 210.504C417.306 210.53 417.267 210.582 417.267 210.582C417.267 210.569 417.28 210.556 417.28 210.556C417.267 210.582 417.267 210.582 417.215 210.647C417.306 210.464 417.202 210.66 417.293 210.504C417.28 210.517 417.28 210.53 417.267 210.556C417.28 210.543 417.28 210.53 417.28 210.543C417.306 210.491 417.188 210.7 417.215 210.66C417.267 210.569 417.241 210.608 417.267 210.582C417.384 210.386 417.254 210.608 417.319 210.504V210.491C417.345 210.425 417.267 210.556 417.293 210.556C417.293 210.556 417.306 210.543 417.306 210.53C417.241 210.621 417.228 210.66 417.215 210.686C417.267 210.608 417.228 210.66 417.28 210.569C417.28 210.582 417.215 210.7 417.201 210.713C417.215 210.66 417.254 210.634 417.293 210.556C417.358 210.438 417.293 210.556 417.293 210.543L417.319 210.491C417.306 210.504 417.241 210.621 417.254 210.621L417.241 210.647C417.175 210.765 417.267 210.582 417.228 210.66L417.293 210.543C417.28 210.569 417.228 210.66 417.215 210.673C417.267 210.595 417.293 210.543 417.332 210.491C417.332 210.491 417.332 210.491 417.306 210.556C417.306 210.543 417.319 210.53 417.319 210.543C417.267 210.634 417.241 210.673 417.241 210.673C417.371 210.451 417.267 210.608 417.371 210.438C417.319 210.517 417.384 210.412 417.371 210.412C417.28 210.595 417.371 210.412 417.254 210.595C417.254 210.608 417.254 210.608 417.254 210.595L417.319 210.478C417.345 210.425 417.332 210.451 417.371 210.399C417.371 210.386 417.423 210.321 417.437 210.269C417.41 210.334 417.384 210.36 417.41 210.334L417.358 210.412C417.306 210.504 417.437 210.269 417.384 210.347L417.41 210.282C417.397 210.308 417.41 210.282 417.332 210.425C417.345 210.412 417.358 210.36 417.384 210.347C417.397 210.334 417.293 210.491 417.332 210.412L417.358 210.36C417.358 210.373 417.306 210.438 417.345 210.386C417.358 210.373 417.371 210.334 417.371 210.334C417.358 210.347 417.319 210.412 417.345 210.386L417.371 210.334C417.397 210.269 417.306 210.451 417.28 210.478C417.358 210.347 417.371 210.295 417.397 210.282L417.41 210.269C417.41 210.255 417.345 210.386 417.319 210.425C417.397 210.282 417.345 210.36 417.397 210.282C417.384 210.295 417.332 210.373 417.332 210.399C417.345 210.373 417.28 210.491 417.345 210.373C417.41 210.255 417.397 210.295 417.397 210.282L417.306 210.438C417.437 210.216 417.254 210.517 417.371 210.308C417.358 210.334 417.358 210.334 417.319 210.386L417.371 210.308C417.384 210.295 417.384 210.282 417.371 210.295L417.397 210.229L417.254 210.464L417.319 210.334C417.319 210.334 417.384 210.216 417.319 210.334C417.332 210.321 417.345 210.282 417.345 210.269C417.345 210.269 417.397 210.19 417.293 210.347C417.358 210.229 417.293 210.334 417.28 210.373L417.332 210.295C417.267 210.386 417.254 210.425 417.241 210.451C417.241 210.438 417.267 210.386 417.267 210.399C417.28 210.347 417.215 210.477 417.254 210.425L417.28 210.373C417.28 210.373 417.267 210.386 417.228 210.451C417.215 210.478 417.241 210.438 417.28 210.36C417.254 210.412 417.215 210.478 417.228 210.438C417.241 210.412 417.254 210.386 417.254 210.386C417.28 210.321 417.201 210.478 417.241 210.399C417.254 210.373 417.254 210.347 417.267 210.347C417.267 210.347 417.267 210.347 417.267 210.36C417.319 210.282 417.319 210.269 417.384 210.164C417.358 210.229 417.267 210.347 417.306 210.308C417.306 210.308 417.319 210.295 417.319 210.282V210.269C417.319 210.269 417.319 210.269 417.319 210.282C417.319 210.269 417.332 210.269 417.332 210.269C417.358 210.203 417.345 210.242 417.345 210.242C417.293 210.321 417.319 210.308 417.267 210.386V210.373C417.267 210.373 417.267 210.373 417.267 210.36C417.241 210.412 417.215 210.438 417.254 210.386C417.228 210.438 417.188 210.504 417.175 210.517C417.241 210.399 417.267 210.334 417.319 210.255C417.293 210.308 417.306 210.282 417.201 210.438C417.188 210.451 417.228 210.386 417.228 210.373C417.241 210.36 417.228 210.36 417.241 210.347C417.228 210.373 417.228 210.36 417.162 210.478C417.188 210.425 417.228 210.386 417.215 210.399L417.228 210.373C417.319 210.19 417.071 210.647 417.201 210.425C417.201 210.438 417.188 210.438 417.188 210.451C417.241 210.36 417.123 210.543 417.215 210.386C417.228 210.36 417.201 210.412 417.162 210.478L417.215 210.386L417.149 210.478C417.097 210.556 417.28 210.255 417.175 210.399L417.149 210.464C417.149 210.451 417.136 210.491 417.162 210.438C417.162 210.451 417.136 210.504 417.149 210.464L417.175 210.412L417.123 210.491C417.136 210.464 417.241 210.308 417.241 210.295C417.228 210.308 417.162 210.425 417.149 210.451C417.149 210.451 417.136 210.478 417.097 210.53L417.084 210.543C417.006 210.686 416.927 210.817 416.875 210.908L416.927 210.83L416.901 210.895C416.875 210.961 416.901 210.895 416.914 210.869C416.901 210.895 416.888 210.935 416.862 210.948L416.94 210.817C416.914 210.869 416.875 210.935 416.862 210.948C416.888 210.882 416.927 210.83 416.953 210.791C416.927 210.856 416.888 210.908 416.927 210.856C416.914 210.882 416.901 210.922 416.875 210.935C416.901 210.882 416.888 210.922 416.927 210.843C416.875 210.922 416.94 210.83 416.862 210.961C416.875 210.935 416.927 210.869 416.927 210.843C416.836 211 416.927 210.856 416.836 211.026C416.914 210.882 416.862 210.961 416.914 210.882C416.914 210.895 416.901 210.908 416.901 210.908C416.901 210.922 416.875 210.961 416.849 210.987C416.914 210.869 416.927 210.843 416.98 210.778C416.914 210.895 416.901 210.908 416.836 211.013C416.888 210.922 416.888 210.922 416.927 210.83C416.901 210.895 416.914 210.856 416.849 210.961C416.927 210.817 416.862 210.935 416.914 210.843C416.888 210.908 416.836 210.974 416.862 210.935C416.901 211.222 416.875 211.287 416.875 211.287ZM417.045 211.052C417.045 211.052 417.032 211.052 417.045 211.052C417.032 211.052 417.032 211.052 417.045 211.052C417.032 211.052 417.032 211.052 417.045 211.052ZM417.045 211.052C417.045 211.039 417.045 211.039 417.045 211.052C417.058 211.026 417.071 210.987 417.071 210.987C417.058 211 417.058 211.013 417.045 211.052ZM417.371 210.464C417.371 210.451 417.371 210.464 417.358 210.478C417.358 210.478 417.358 210.478 417.358 210.491C417.358 210.491 417.358 210.491 417.358 210.504C417.345 210.504 417.345 210.491 417.371 210.464Z" fill="#001133"/>
<path d="M417.306 210.583C417.306 210.596 417.293 210.596 417.293 210.609C417.28 210.596 417.306 210.583 417.306 210.583Z" fill="#001133"/>
<path d="M416.965 211.211L416.979 211.196L416.965 211.211Z" fill="#001133"/>
<path d="M417.212 211.064L417.199 211.078C417.199 211.078 417.199 211.078 417.212 211.064Z" fill="#001133"/>
<path d="M417.201 211.079L417.188 211.105C417.201 211.105 417.201 211.105 417.201 211.079Z" fill="#001133"/>
<path d="M417.188 211.13C417.2 211.117 417.2 211.104 417.2 211.104L417.188 211.13Z" fill="#001133"/>
<path d="M417.096 211.209C417.069 211.223 417.069 211.209 417.096 211.209V211.209Z" fill="#001133"/>
<path d="M417.201 211.014C417.187 211.027 417.188 211.041 417.188 211.041C417.188 211.068 417.187 211.068 417.201 211.014Z" fill="#001133"/>
<path d="M417.189 211.052C417.174 211.067 417.174 211.067 417.189 211.052C417.189 211.052 417.189 211.038 417.189 211.052Z" fill="#001133"/>
<path d="M417.174 211.184L417.188 211.17L417.174 211.184Z" fill="#001133"/>
<path d="M417.2 211.131L417.188 211.144C417.188 211.17 417.187 211.17 417.2 211.131Z" fill="#001133"/>
<path d="M417.187 211.131L417.174 211.157C417.174 211.17 417.187 211.144 417.187 211.131Z" fill="#001133"/>
<path d="M417.187 211.144C417.187 211.144 417.16 211.21 417.16 211.197L417.173 211.184C417.16 211.21 417.213 211.104 417.187 211.144Z" fill="#001133"/>
<path d="M417.396 210.778L417.383 210.804C417.396 210.778 417.435 210.726 417.435 210.726C417.475 210.621 417.383 210.778 417.396 210.778Z" fill="#001133"/>
<path d="M417.477 210.556L417.463 210.57L417.477 210.556Z" fill="#001133"/>
<path d="M417.436 210.57L417.383 210.662C417.383 210.648 417.449 210.53 417.436 210.57Z" fill="#001133"/>
<path d="M417.344 210.649C417.37 210.596 417.397 210.57 417.357 210.623C417.37 210.636 417.344 210.663 417.344 210.649Z" fill="#001133"/>
<path d="M489.019 154.293L474.488 175.371L471.094 174.052L484.032 155.781C485.468 153.757 488.497 151.772 489.019 154.293Z" fill="#001133"/>
<path d="M481.616 189.737C481.616 189.737 490.611 162.612 484.54 160.535C484.54 160.535 475.257 172.629 475.127 172.812C476.876 170.526 474.591 167.601 472.189 169.507C469.578 171.584 471.784 178.532 472.542 180.948L469.121 187.778L481.616 189.737Z" fill="white"/>
<path d="M481.618 190.064C481.605 190.064 481.579 190.064 481.566 190.064L469.071 188.119C468.967 188.105 468.875 188.04 468.836 187.949C468.784 187.857 468.784 187.753 468.836 187.648L472.191 180.936C471.33 178.193 469.267 171.428 471.983 169.26C473.353 168.163 474.633 168.555 475.299 169.221C475.756 169.665 476.043 170.318 476.056 171.049C478.602 167.732 484.268 160.34 484.268 160.34C484.346 160.235 484.503 160.183 484.634 160.235C490.94 162.403 482.284 188.732 481.918 189.856C481.879 189.973 481.748 190.064 481.618 190.064ZM469.619 187.531L481.396 189.372C483.863 181.85 488.955 163.043 484.647 160.928C483.459 162.482 475.638 172.669 475.39 173.008C475.286 173.152 475.077 173.178 474.933 173.073C474.79 172.969 474.763 172.76 474.868 172.616C475.703 171.519 475.495 170.318 474.855 169.678C474.346 169.181 473.445 168.946 472.4 169.769C469.985 171.689 472.139 178.559 472.844 180.818C472.87 180.896 472.883 181.027 472.844 181.105L469.619 187.531Z" fill="#001133"/>
<path d="M346.593 530.279V529.522L346.045 530.057L346.593 529.522V528.673L347.194 528.934L346.632 529.496L346.593 530.279Z" fill="#001133"/>
<path d="M368.15 159.348L368.686 159.948L370.762 162.299C388.518 176.221 401.56 161.777 401.56 161.777L401.73 147.502C414.903 146.914 414.264 124.294 413.702 115.414C413.232 107.943 405.516 99.6501 397.683 100.199C393.688 100.473 389.862 102.732 387.107 105.553C383.321 109.341 383.687 120.376 383.778 122.505" fill="white"/>
<path d="M386.245 168.659C381.688 168.659 376.362 167.118 370.565 162.573L367.915 159.569C367.797 159.438 367.81 159.229 367.941 159.112C368.071 158.994 368.28 159.007 368.398 159.138L371.009 162.102C387.733 175.215 400.019 162.964 401.233 161.671L401.403 147.527C401.403 147.358 401.546 147.214 401.716 147.201C404.366 147.083 406.599 146.026 408.375 144.04C412.539 139.391 414.276 129.505 413.375 115.452C413.127 111.573 410.829 107.289 407.382 104.273C404.38 101.648 400.946 100.328 397.708 100.537C394.144 100.786 390.358 102.705 387.342 105.801C383.673 109.457 384.012 120.363 384.117 122.504C384.13 122.687 383.986 122.831 383.804 122.844C383.621 122.844 383.477 122.713 383.464 122.531C383.32 119.448 383.125 109.092 386.885 105.33C390.005 102.118 393.935 100.133 397.669 99.8714C401.089 99.6363 404.68 101.021 407.813 103.763C411.391 106.898 413.767 111.351 414.028 115.4C414.955 129.844 413.205 139.613 408.858 144.471C407.03 146.509 404.745 147.632 402.056 147.828L401.886 161.802C401.886 161.88 401.86 161.959 401.808 162.024C401.716 162.102 395.632 168.659 386.245 168.659Z" fill="#001133"/>
<path d="M401.768 147.254C401.768 147.254 396.872 147.685 393.008 144.772L401.599 152.256L401.768 147.254Z" fill="#001133"/>
<path d="M361.49 389.257L381.857 440.975L412.604 398.085L361.49 389.257Z" fill="white"/>
<path d="M381.78 441.652L360.969 388.824L361.543 388.929L413.166 397.849L381.78 441.652ZM362.013 389.673L381.949 440.294L412.043 398.319L362.013 389.673Z" fill="#001133"/>
<path d="M361.373 470.307L400.162 391.921L411.299 304.471L426.587 305.137L449.108 383.863C453.456 399.051 451.759 415.324 444.382 429.299L424.315 467.29" fill="white"/>
<path d="M361.371 470.633C361.319 470.633 361.267 470.62 361.228 470.594C361.071 470.516 361.006 470.32 361.084 470.163L399.847 391.816L410.983 304.418C411.01 304.248 411.153 304.144 411.323 304.131L426.611 304.797C426.755 304.797 426.872 304.901 426.912 305.032L449.433 383.758C453.82 399.103 452.135 415.324 444.681 429.429L424.614 467.407C424.535 467.564 424.34 467.629 424.17 467.538C424.013 467.46 423.948 467.251 424.039 467.094L444.106 429.115C451.483 415.154 453.154 399.103 448.806 383.928L426.35 305.424L411.597 304.784L400.5 391.933C400.5 391.973 400.487 391.999 400.473 392.038L361.685 470.424C361.606 470.568 361.489 470.633 361.371 470.633Z" fill="#001133"/>
<path d="M425.646 240.254L427.435 308.035L407.473 311.64L423.74 229.871L425.646 240.254Z" fill="white"/>
<path d="M407.057 312.046L407.148 311.575L423.742 228.135L425.962 240.241L427.75 308.297L407.057 312.046ZM423.729 231.609L407.892 311.236L427.097 307.762L425.322 240.281L423.729 231.609Z" fill="#001133"/>
<path d="M391.115 191.671C398.061 202.681 405.686 213.364 413.885 223.459C418.428 229.062 423.193 234.573 428.586 239.393C431.536 242.031 439.579 249.488 443.783 246.027C459.149 233.372 470.965 221.161 478.72 202.929C481.175 197.169 483.211 191.24 484.843 185.193L468.68 177.919L448.417 207.957C448.417 207.957 423.598 168.137 397.46 164.245C397.473 164.245 391.115 191.671 391.115 191.671Z" fill="white"/>
<path d="M441.159 247.255C436.863 247.255 431.341 242.292 428.677 239.915L428.364 239.641C422.632 234.522 417.697 228.697 413.624 223.669C405.529 213.691 397.852 202.982 390.828 191.841L390.75 191.724L390.776 191.593L397.2 163.88L397.5 163.919C411.104 165.943 424.304 177.776 432.973 187.336C441.263 196.478 447.112 205.346 448.418 207.357L468.563 177.502L485.222 184.998L485.144 185.272C483.512 191.319 481.449 197.301 479.008 203.047C471.2 221.409 459.359 233.607 443.979 246.263C443.169 246.955 442.203 247.255 441.159 247.255ZM391.468 191.606C398.466 202.681 406.091 213.325 414.146 223.251C418.206 228.253 423.115 234.051 428.808 239.145L429.121 239.419C432.294 242.266 439.736 248.94 443.587 245.766C458.889 233.163 470.678 221.044 478.433 202.799C480.822 197.17 482.859 191.306 484.465 185.377L468.811 178.324L448.418 208.545L448.157 208.114C448.091 208.01 441.851 198.058 432.516 187.754C423.977 178.337 411.039 166.714 397.735 164.585L391.468 191.606Z" fill="#001133"/>
<path d="M409.926 184.2C323.888 209.81 330.246 168.763 330.246 168.763C330.847 164.858 338.432 160.678 341.043 157.949C345.822 152.96 349.046 147.044 351.227 140.527C355.653 127.31 355.809 112.813 362.729 100.419C365.523 95.4175 370.158 91.2905 375.432 89.0181C382.104 86.1449 389.781 86.2624 396.4 89.227C401.975 91.7215 406.27 96.2664 409.73 101.19C410.866 102.796 418.961 114.028 415.07 114.942C400.709 118.312 386.021 125.22 387.065 141.271C387.248 144.053 388.24 146.9 389.441 149.408C391.452 153.6 394.859 156.669 399.507 154.135C400.513 153.587 401.035 152.764 401.609 151.772L409.926 184.2Z" fill="white"/>
<path d="M362.782 192.897C352.116 192.897 342.755 190.873 336.605 185.519C328.537 178.492 329.856 169.115 329.921 168.71C330.352 165.902 334.02 163.121 337.245 160.665C338.655 159.594 339.987 158.576 340.796 157.727C345.261 153.064 348.565 147.409 350.902 140.422C352.599 135.342 353.682 129.974 354.74 124.789C356.424 116.496 358.161 107.916 362.443 100.263C365.25 95.2345 369.937 91.0292 375.303 88.7306C382.04 85.8444 389.782 85.9227 396.532 88.9396C401.415 91.1206 405.814 95.0778 409.992 101.007L410.123 101.203C414.927 108.007 417.016 112.408 416.298 114.289C416.102 114.798 415.698 115.138 415.136 115.269C395.618 119.853 386.544 128.355 387.38 141.258C387.536 143.674 388.32 146.365 389.73 149.264C390.67 151.21 392.289 153.704 394.717 154.488C396.166 154.958 397.72 154.736 399.352 153.848C400.279 153.339 400.775 152.568 401.323 151.602L401.728 150.896L410.319 184.408L410.018 184.5C395.226 188.927 377.731 192.897 362.782 192.897ZM385.643 87.281C382.196 87.281 378.763 87.9731 375.564 89.3444C370.342 91.5908 365.759 95.6916 363.017 100.602C358.787 108.164 357.064 116.692 355.393 124.933C354.335 130.144 353.252 135.525 351.541 140.644C349.178 147.723 345.823 153.456 341.292 158.184C340.444 159.072 339.099 160.091 337.663 161.188C334.686 163.46 330.978 166.268 330.587 168.815C330.534 169.194 329.255 178.244 337.049 185.035C351.515 197.625 384.39 191.448 409.535 183.991L401.493 152.633C401.036 153.365 400.501 153.992 399.678 154.449C397.877 155.428 396.14 155.65 394.521 155.128C391.884 154.279 390.147 151.641 389.155 149.564C387.719 146.587 386.91 143.805 386.753 141.31C385.891 128.211 395.396 119.239 415.006 114.642C415.371 114.55 415.593 114.367 415.711 114.067C416.063 113.127 415.75 110.267 409.614 101.595L409.483 101.399C405.371 95.561 401.062 91.6953 396.284 89.5534C392.889 88.0384 389.26 87.281 385.643 87.281Z" fill="#001133"/>
<path d="M403.57 411.015C403.57 411.015 423.963 288.381 424.838 240.803C424.838 240.803 418.61 162.43 381.858 158.068C372.236 156.919 362.992 157.924 354.911 163.919C340.484 174.628 337.233 192.742 336.645 209.629C335.954 229.585 336.463 248.718 332.703 268.491C327.35 296.661 317.414 324.466 299.985 347.504C297.504 350.782 294.867 353.929 292.073 356.946C286.511 362.967 280.349 369.445 277.855 377.463C276.184 382.805 277.124 386.41 281.171 390.106C299.058 406.391 327.467 416.826 350.184 403.153C366.073 393.593 382.393 392.639 397.629 405.334C399.744 407.084 401.716 408.99 403.57 411.015Z" fill="white"/>
<path d="M403.79 411.733L403.333 411.236C401.4 409.134 399.416 407.227 397.431 405.581C383.344 393.84 367.507 393.109 350.365 403.426C339.842 409.761 327.191 411.406 313.796 408.167C302.176 405.372 290.504 399.038 280.96 390.327C276.834 386.566 275.842 382.818 277.553 377.359C279.994 369.523 286.013 363.019 291.326 357.285L291.849 356.724C294.577 353.772 297.228 350.599 299.734 347.294C315.388 326.607 326.381 300.069 332.387 268.425C335.325 252.988 335.638 238.217 335.991 222.571C336.082 218.34 336.173 213.964 336.33 209.602C336.865 194.165 339.45 174.98 354.726 163.644C361.972 158.263 370.602 156.396 381.908 157.741C397.079 159.543 409.364 174.497 417.446 200.983C423.53 220.925 425.149 240.581 425.162 240.777C424.3 287.871 404.103 409.839 403.894 411.067L403.79 411.733ZM373.5 395.525C382.065 395.525 390.212 398.712 397.849 405.072C399.69 406.613 401.544 408.363 403.359 410.296C404.965 400.527 423.687 286.004 424.509 240.79C424.496 240.633 422.89 221.03 416.819 201.153C406.701 168.045 392.209 159.622 381.83 158.381C370.706 157.062 362.22 158.89 355.117 164.167C340.064 175.346 337.518 194.335 336.983 209.629C336.826 213.978 336.735 218.353 336.643 222.584C336.304 238.256 335.977 253.053 333.027 268.542C326.995 300.291 315.963 326.921 300.244 347.686C297.724 351.003 295.06 354.19 292.319 357.155L291.796 357.716C286.274 363.685 280.568 369.849 278.166 377.541C276.534 382.792 277.435 386.239 281.391 389.844C306.197 412.425 333.732 412.647 350.026 402.852C358.146 397.967 365.993 395.525 373.5 395.525Z" fill="#001133"/>
<path d="M388.92 238.243C388.907 238.243 388.893 238.243 388.88 238.243C388.698 238.23 388.567 238.06 388.593 237.877L392.68 200.617C392.693 200.434 392.849 200.291 393.045 200.33C393.228 200.343 393.359 200.513 393.332 200.695L389.246 237.956C389.233 238.125 389.089 238.243 388.92 238.243Z" fill="#001133"/>
<path d="M417.203 228.369C417.203 228.369 430.494 214.434 440.456 222.727C440.456 222.727 445.338 227.272 431.969 223.341C433.275 223.72 434.594 224.02 435.899 224.438C436.944 224.765 437.975 225.13 438.967 225.575C439.711 225.901 440.56 226.28 441.121 226.907C441.735 227.586 441.265 228.2 440.599 228.578C439.033 229.453 437.139 228.487 435.612 227.991C434.567 227.651 433.523 227.298 432.465 226.959C432.452 226.959 432.426 226.946 432.413 226.946C433.745 227.377 435.05 228.004 436.304 228.631C437.348 229.153 438.51 229.728 439.32 230.603C439.973 231.295 439.646 232.091 438.837 232.431C438.145 232.718 437.283 232.705 436.578 232.483C435.586 232.17 434.685 231.804 433.64 231.739C432.439 231.674 431.238 231.909 430.128 232.366C428.288 233.123 426.695 234.377 425.298 235.774L421.485 239.679L417.203 228.369Z" fill="white"/>
<path d="M421.482 239.98C421.456 239.98 421.443 239.98 421.417 239.98C421.312 239.954 421.221 239.875 421.182 239.771L416.913 228.474C416.873 228.357 416.899 228.226 416.978 228.134C417.108 227.991 430.582 214.082 440.674 222.466C440.831 222.61 442.032 223.772 441.549 224.621C441.327 225 440.805 225.379 439.029 225.235C439.055 225.248 439.081 225.261 439.107 225.274C439.839 225.601 440.753 226.006 441.366 226.685C441.732 227.09 441.771 227.468 441.732 227.717C441.666 228.148 441.314 228.552 440.766 228.866C439.839 229.388 438.833 229.336 437.854 229.088C438.481 229.454 439.068 229.871 439.564 230.381C439.917 230.76 440.061 231.204 439.969 231.635C439.865 232.105 439.499 232.497 438.964 232.732C438.259 233.032 437.306 233.058 436.483 232.797C436.274 232.732 436.079 232.666 435.883 232.601C435.125 232.353 434.42 232.118 433.624 232.066C432.514 232 431.378 232.209 430.256 232.666C428.663 233.319 427.122 234.403 425.529 235.997L421.717 239.889C421.652 239.954 421.56 239.98 421.482 239.98ZM417.591 228.448L421.6 239.066L425.046 235.526C426.704 233.868 428.323 232.732 429.995 232.052C431.209 231.556 432.449 231.347 433.637 231.399C434.512 231.452 435.269 231.7 436.065 231.961C436.261 232.026 436.457 232.092 436.666 232.157C437.345 232.366 438.128 232.353 438.703 232.105C439.042 231.961 439.264 231.726 439.316 231.478C439.369 231.204 439.212 230.955 439.068 230.812C438.298 229.989 437.214 229.44 436.157 228.918C434.956 228.317 433.689 227.717 432.436 227.286L432.358 227.259C432.345 227.259 432.318 227.246 432.305 227.246L432.514 226.633C432.527 226.633 432.553 226.646 432.567 226.646L435.7 227.677C435.948 227.756 436.209 227.847 436.47 227.952C437.776 228.422 439.251 228.957 440.426 228.291C440.792 228.082 441.027 227.834 441.066 227.612C441.092 227.455 441.027 227.299 440.87 227.129C440.348 226.567 439.538 226.202 438.833 225.875C437.985 225.496 437.045 225.144 435.791 224.752C435.53 224.674 435.269 224.595 435.008 224.517C434.094 224.295 433.063 224.008 431.875 223.668C431.705 223.616 431.6 223.433 431.653 223.263C431.705 223.093 431.888 222.989 432.057 223.041C432.057 223.041 432.057 223.041 432.07 223.041C432.619 223.198 433.167 223.355 433.728 223.498C434.212 223.629 434.695 223.759 435.191 223.89C440.048 225.078 440.844 224.543 440.975 224.321C441.131 224.047 440.648 223.368 440.243 222.989C431.17 215.427 419.041 226.998 417.591 228.448Z" fill="#001133"/>
<path d="M338.512 192.624C338.982 208.296 341.554 224.046 347.638 238.556C352.69 250.624 363.135 271.089 376.935 274.824C389.129 278.128 398.007 265.799 405.697 258.486C412.003 252.491 418.296 246.484 424.602 240.489C424.68 240.411 428.636 236.506 428.715 236.44L420.973 221.565C420.973 221.565 384.142 239.666 381.217 240.58" fill="white"/>
<path d="M381.021 275.698C379.676 275.698 378.279 275.515 376.843 275.137C362.874 271.362 352.351 250.675 347.324 238.686C341.775 225.443 338.694 209.954 338.172 192.636C338.172 192.454 338.302 192.31 338.485 192.297H338.498C338.668 192.297 338.825 192.441 338.825 192.61C339.347 209.85 342.402 225.26 347.925 238.438C352.899 250.323 363.304 270.801 377.013 274.51C387.001 277.213 394.717 269.234 401.532 262.207C402.903 260.797 404.195 259.465 405.462 258.25L424.367 240.253C424.419 240.201 425.411 239.222 426.416 238.229C427.187 237.472 427.957 236.701 428.296 236.375L420.815 221.995C417.121 223.811 384.102 240.005 381.295 240.893C381.126 240.946 380.943 240.854 380.891 240.684C380.838 240.515 380.93 240.332 381.1 240.279C383.972 239.378 420.45 221.46 420.815 221.277C420.972 221.199 421.168 221.264 421.246 221.421L428.988 236.296C429.054 236.427 429.028 236.583 428.923 236.688C428.871 236.74 427.879 237.72 426.873 238.712C425.868 239.705 424.85 240.71 424.811 240.737L405.906 258.733C404.639 259.935 403.347 261.267 401.989 262.677C396.022 268.829 389.377 275.698 381.021 275.698Z" fill="#001133"/>
<path d="M395.41 233.998L393.007 200.669L389.025 237.054L395.41 233.998Z" fill="#001133"/>
<path d="M366.189 401.192C366.189 401.192 379.232 397.392 392.888 406.599L394.651 403.034C394.651 403.034 384.154 392.677 364.818 396.948L366.189 401.192Z" fill="#001133"/>
<path d="M393.791 404.784C393.791 404.784 399.209 407.527 403.256 412.764L403.727 411.589C403.727 411.589 399.34 405.96 394.653 403.034L393.791 404.784Z" fill="#001133"/>
<path d="M396.362 291.788C395.735 291.148 394.769 290.783 393.294 290.809C386.4 290.926 379.546 289.176 372.652 289.855C371.608 289.96 370.367 290.273 370.028 291.266C369.924 291.553 369.924 291.867 369.924 292.167C369.884 295.197 369.858 298.227 369.819 301.257C369.754 306.481 369.728 311.875 371.699 316.72C373.671 321.565 378.201 325.757 383.423 325.666C390.056 325.561 394.286 319.436 395.748 313.598C396.701 309.811 396.78 305.867 396.871 301.962C396.949 298.384 398.32 293.76 396.362 291.788Z" fill="white"/>
<path d="M383.281 326.006C377.667 326.006 373.281 321.435 371.414 316.851C369.377 311.875 369.442 306.247 369.507 301.271L369.612 292.181C369.612 291.867 369.625 291.515 369.742 291.175C370.056 290.248 371.035 289.699 372.641 289.543C376.571 289.151 380.553 289.556 384.391 289.935C387.316 290.235 390.331 290.535 393.308 290.483C394.757 290.431 395.867 290.81 396.611 291.554C398.139 293.095 397.813 296.007 397.486 298.828C397.369 299.886 397.238 300.983 397.225 301.963C397.147 305.829 397.055 309.838 396.102 313.678C394.692 319.293 390.54 325.889 383.464 325.993C383.386 326.006 383.334 326.006 383.281 326.006ZM376.048 290.026C374.926 290.026 373.803 290.078 372.693 290.183C371.361 290.313 370.578 290.718 370.356 291.384C370.278 291.632 370.265 291.92 370.265 292.194L370.16 301.284C370.108 306.194 370.043 311.758 372.014 316.616C373.803 320.991 377.968 325.366 383.281 325.366C383.334 325.366 383.386 325.366 383.438 325.366C390.136 325.262 394.105 318.928 395.449 313.534C396.389 309.76 396.481 305.802 396.559 301.963C396.585 300.944 396.703 299.834 396.82 298.763C397.121 296.099 397.434 293.33 396.128 292.011C395.528 291.397 394.588 291.084 393.308 291.136C390.305 291.188 387.25 290.875 384.313 290.588C381.597 290.313 378.816 290.026 376.048 290.026Z" fill="#001133"/>
<path d="M108.925 243.936C108.272 254.737 99.0026 262.965 88.2184 262.312C85.7509 262.155 83.4139 261.567 81.2988 260.601C85.32 259.569 101.013 253.979 103.285 228.982C107.071 232.796 109.278 238.151 108.925 243.936Z" fill="#001133"/>
<path d="M172.324 86.9561L200.407 296.139L211.427 295.433L172.324 86.9561Z" fill="#001133"/>
<path d="M533.096 474.629C533.096 474.629 479.698 428.031 517.612 432.811C517.612 432.811 463.208 392.991 496.174 392.991C496.174 392.991 469.788 356.358 497.819 357.951C497.819 357.951 509.361 357.951 512.651 380.244C512.651 380.244 534.089 348.391 530.785 415.284C530.785 415.284 540.682 404.131 545.617 410.504C545.617 410.504 567.629 425.667 559.104 473.82" fill="white"/>
<path d="M532.875 474.878C531.518 473.689 499.622 445.702 504.126 435.658C505.419 432.772 509.558 431.649 516.438 432.354C510.641 428.018 482.414 406.273 485.47 396.909C486.357 394.193 489.739 392.769 495.549 392.678C493.186 389.295 480.887 370.894 485.704 362.13C487.532 358.8 491.632 357.298 497.846 357.638C498.33 357.638 509.414 357.912 512.861 379.422C514.414 377.306 519.493 371.077 524.076 372.592C529.99 374.551 532.366 388.629 531.165 414.423C532.862 412.673 537.706 408.076 541.962 408.219C543.529 408.272 544.835 408.964 545.866 410.27C546.963 411.079 567.735 427.091 559.444 473.885L558.804 473.768C567.186 426.399 545.67 410.923 545.448 410.779L545.37 410.714C544.456 409.538 543.307 408.925 541.923 408.872C541.871 408.872 541.806 408.872 541.753 408.872C536.975 408.872 531.087 415.441 531.021 415.507L530.408 416.199L530.46 415.272C532.053 382.844 527.757 374.498 523.854 373.205C518.945 371.586 512.978 380.349 512.913 380.441L512.443 381.146L512.325 380.31C509.101 358.539 497.925 358.291 497.807 358.291C491.841 357.951 487.95 359.349 486.253 362.444C481.252 371.56 496.267 392.599 496.423 392.808L496.802 393.331H496.162C490.287 393.331 486.906 394.598 486.083 397.118C482.897 406.887 517.443 432.302 517.796 432.563L518.814 433.308L517.561 433.151C510.276 432.237 505.941 433.164 504.714 435.933C500.405 445.545 532.967 474.107 533.293 474.394L532.875 474.878Z" fill="#001133"/>
<path d="M545.853 472.513C545.736 472.513 545.631 472.461 545.566 472.357C545.331 471.952 522.17 432.014 518.867 401.754C518.84 401.571 518.971 401.414 519.154 401.388C519.35 401.349 519.493 401.493 519.519 401.676C522.809 431.792 545.905 471.612 546.127 472.017C546.219 472.174 546.166 472.37 546.01 472.461C545.971 472.5 545.918 472.513 545.853 472.513Z" fill="#001133"/>
<path d="M546.114 474.811L578.297 474.642C629.502 385.011 584.903 402.942 584.903 402.942C627.857 329.61 588.206 354.058 588.206 354.058C598.116 323.093 588.206 316.576 588.206 316.576C560.123 301.909 566.729 357.31 566.729 357.31C532.04 334.494 551.859 402.942 551.859 402.942C540.892 402.942 538.672 423.015 538.32 431.021C537.589 447.085 539.952 460.119 546.114 474.811Z" fill="white"/>
<path d="M545.893 475.139L545.815 474.943C539.613 460.133 537.263 446.995 537.994 431.009C538.294 424.427 540.148 403.152 551.442 402.63C550.162 398.085 540.187 361.36 550.528 353.72C553.974 351.173 559.288 352.166 566.338 356.672C565.816 351.709 563.296 322.924 574.041 315.506C577.697 312.973 582.528 313.247 588.364 316.29C588.807 316.577 598.234 323.199 588.781 353.354C591.34 351.905 599.761 347.608 603.482 351.252C608.535 356.188 602.529 373.375 585.635 402.329C588.259 401.454 596.223 399.365 600.519 404.288C607.869 412.725 600.492 436.455 578.572 474.8L578.48 474.956H578.297L545.893 475.139ZM551.859 403.27C547.277 403.27 543.765 406.914 541.415 414.084C539.313 420.522 538.764 428.084 538.634 431.035C537.916 446.851 540.214 459.859 546.324 474.486L578.089 474.316C605.101 427.013 604.918 410.361 600.009 404.719C595.218 399.221 585.113 403.204 585.008 403.244L584.12 403.596L584.603 402.774C605.858 366.48 606.341 354.974 602.999 351.709C599.03 347.83 588.455 354.269 588.351 354.334L587.593 354.791L587.867 353.955C597.594 323.577 588.089 316.917 587.998 316.852C582.41 313.939 577.827 313.665 574.381 316.042C563.179 323.773 566.991 356.946 567.03 357.285L567.109 357.978L566.521 357.599C559.445 352.949 554.183 351.813 550.88 354.255C540.436 361.961 552.029 402.46 552.147 402.865L552.264 403.283H551.859V403.27Z" fill="#001133"/>
<path d="M564.901 472.514C564.888 472.514 564.888 472.514 564.901 472.514C564.705 472.514 564.574 472.357 564.574 472.174C564.6 471.482 567.159 402.59 579.823 369.222C579.889 369.052 580.072 368.961 580.241 369.039C580.411 369.104 580.489 369.287 580.424 369.457C567.799 402.734 565.24 471.508 565.214 472.2C565.214 472.37 565.07 472.514 564.901 472.514Z" fill="#001133"/>
<path d="M144.088 482.01C144.088 482.01 209.485 425.499 163.084 431.337C163.084 431.337 229.643 382.623 189.301 382.623C189.301 382.623 221.575 337.814 187.277 339.76C187.277 339.76 173.164 339.76 169.129 367.042C169.129 367.042 142.913 328.071 146.947 409.905C146.947 409.905 134.845 396.271 128.8 404.054C128.8 404.054 101.879 422.6 112.297 481.513" fill="white"/>
<path d="M144.294 482.257L143.863 481.761C144.268 481.409 184.127 446.773 178.918 435.071C177.403 431.676 172.09 430.54 163.12 431.663L161.867 431.82L162.885 431.075C163.316 430.762 205.617 399.627 201.7 387.637C200.682 384.529 196.517 382.962 189.297 382.962H188.658L189.036 382.44C189.219 382.178 207.615 356.411 201.478 345.205C199.39 341.392 194.611 339.668 187.3 340.086C187.143 340.086 173.395 340.438 169.452 367.081L169.335 367.917L168.865 367.212C168.787 367.107 161.449 356.333 155.404 358.331C150.613 359.924 145.325 370.163 147.284 409.879L147.336 410.806L146.722 410.114C146.644 410.035 139.28 401.781 133.34 401.977C131.643 402.03 130.207 402.8 129.071 404.25L128.992 404.315C128.731 404.498 102.371 423.448 112.633 481.448L111.994 481.565C109.017 464.718 107.346 440.465 116.354 420.549C121.537 409.095 128 404.237 128.588 403.806C129.841 402.212 131.434 401.377 133.314 401.311C133.392 401.311 133.47 401.311 133.549 401.311C138.758 401.311 144.699 407.032 146.605 409.017C145.116 377.372 148.015 360.107 155.222 357.717C160.888 355.836 167.194 363.764 168.956 366.18C171.124 352.532 175.889 346.002 179.532 342.907C183.605 339.459 187.156 339.42 187.3 339.42C194.872 338.989 199.846 340.83 202.066 344.879C207.98 355.679 192.614 378.469 189.937 382.296C197.079 382.387 201.256 384.111 202.327 387.415C206.087 398.947 170.823 425.956 164.256 430.853C172.821 429.939 177.952 431.258 179.518 434.784C184.924 446.943 145.965 480.821 144.294 482.257Z" fill="#001133"/>
<path d="M128.535 479.84C128.483 479.84 128.418 479.827 128.366 479.801C128.209 479.71 128.157 479.514 128.248 479.357C128.535 478.874 156.801 430.134 160.822 393.278C160.836 393.095 160.979 392.952 161.188 392.991C161.371 393.004 161.501 393.174 161.475 393.357C157.441 430.356 129.11 479.213 128.823 479.696C128.757 479.775 128.64 479.84 128.535 479.84Z" fill="#001133"/>
<path d="M128.22 482.714L88.8569 482.505C26.2149 372.853 80.7754 394.781 80.7754 394.781C28.2386 305.072 76.728 334.979 76.728 334.979C64.5992 297.105 76.728 289.125 76.728 289.125C111.078 271.181 102.996 338.963 102.996 338.963C145.441 311.053 121.183 394.781 121.183 394.781C134.605 394.781 137.307 419.347 137.751 429.129C138.652 448.797 135.754 464.744 128.22 482.714Z" fill="white"/>
<path d="M128.43 483.053L88.6619 482.844L88.5705 482.687C61.7799 435.802 52.7452 406.808 61.7146 396.517C67.0545 390.392 77.0161 393.174 80.032 394.192C59.3123 358.695 51.9358 337.643 58.0981 331.622C62.7069 327.116 73.2429 332.627 76.1675 334.286C64.5347 297.3 76.063 289.203 76.5591 288.876C83.7137 285.141 89.5758 284.815 94.0409 287.897C99.9552 291.985 103.324 301.845 104.029 317.204C104.473 326.907 103.663 335.84 103.402 338.335C112.058 332.771 118.573 331.53 122.79 334.639C135.48 344.003 123.09 389.334 121.628 394.493C135.454 395.028 137.726 421.096 138.091 429.141C138.979 448.692 136.107 464.756 128.521 482.857L128.43 483.053ZM89.0405 482.191L127.999 482.4C135.48 464.469 138.3 448.548 137.426 429.167C137.256 425.55 136.603 416.29 134.018 408.402C131.133 399.586 126.811 395.12 121.184 395.12H120.753L120.871 394.702C120.91 394.571 124.526 382.007 126.485 368.425C129.07 350.546 127.66 339.04 122.385 335.148C118.325 332.157 111.862 333.529 103.167 339.249L102.579 339.628L102.658 338.935C102.71 338.531 107.384 297.901 93.6362 288.419C89.393 285.494 83.7529 285.833 76.8594 289.425C76.768 289.49 65.1353 297.77 77.0161 334.887L77.2903 335.723L76.533 335.266C76.4025 335.187 63.4249 327.273 58.529 332.066C54.4294 336.075 55.0039 350.193 81.0242 394.623L81.5073 395.446L80.6195 395.094C80.4889 395.041 68.0728 390.157 62.1846 396.922C51.3091 409.447 70.7623 450.168 89.0405 482.191Z" fill="#001133"/>
<path d="M105.243 479.841C105.073 479.841 104.916 479.697 104.916 479.527C104.89 478.678 101.757 394.519 86.2987 353.811C86.2334 353.642 86.3248 353.459 86.4814 353.393C86.6512 353.328 86.8339 353.419 86.8992 353.576C102.383 394.389 105.53 478.652 105.556 479.501C105.569 479.684 105.425 479.828 105.243 479.841Z" fill="#001133"/>
</g>
<defs>
<clipPath id="clip0">
<rect width="639.123" height="521.278" fill="white" transform="translate(0 9)"/>
</clipPath>
</defs>
</svg>
