<svg xmlns="http://www.w3.org/2000/svg" fill="none" viewBox="0 0 640 540"><g clip-path="url(#clip0)"><path fill="#FF6100" fill-opacity=".1" fill-rule="evenodd" d="M549.6 101.4c72.3 64 88.3 157.7 89.5 240.9 1 74.2-19.9 147.8-83.6 177.7-57.5 26.9-132-31.3-203.3-43.2-118-19.7-268 58.6-336-46.7-66.8-103.4 91.4-162.1 148-244.5 39.3-57.2 52.1-136.8 125-152.7 82.9-18 186 2.7 260.4 68.5z" clip-rule="evenodd"/><path fill="#fff" d="M566.3 475H461.4l7.9-53.2 112.1 16.6-15 36.5z"/><path fill="#013" d="M461 475.3v-.4l8-53.5h.3L582 438.2l-.1.4-15.3 36.8H461zm8.5-53.1l-7.7 52.4h104.3l14.9-36-111.5-16.4z"/><path fill="#fff" d="M589.3 385.2l-112.2-16.6-7.8 53.2 112.2 16.5 7.8-53.1z"/><path fill="#013" d="M581.7 438.7h-.3L468.9 422v-.4l8-53.5h.3L589.7 385v.3l-8 53.5zm-112-17.2L581.2 438l7.7-52.5L477.4 369l-7.7 52.5z"/><path fill="#fff" d="M597.1 332L485 315.4l-7.9 53.2 112.2 16.6 7.8-53.2z"/><path fill="#013" d="M589.6 385.5h-.3l-112.5-16.6v-.3l7.9-53.5h.3l112.5 16.6v.4l-8 53.4zm-112.1-17.2L589 384.8l7.8-52.5-111.6-16.5-7.7 52.5z"/><path fill="#fff" d="M605 278.8l-112.2-16.5-7.8 53.2L597 332l7.9-53.2z"/><path fill="#013" d="M597.4 332.4h-.3l-112.5-16.7v-.3l8-53.5h.3l112.5 16.7v.3l-8 53.5zm-112-17.2l111.5 16.4 7.7-52.5-111.5-16.5-7.8 52.6z"/><path fill="#fff" d="M613.5 226.6l-112.2-16.5-7.8 53.1 112.1 16.6 7.9-53.2z"/><path fill="#013" d="M606 280.2h-.4l-112.5-16.7v-.3l8-53.5h.3l112.5 16.6v.4l-8 53.5zM493.8 263l111.5 16.4L613 227l-111.5-16.5-7.7 52.6z"/><path fill="#fff" d="M620.7 172.5l-112.2-16.6-7.8 53.2 112.1 16.6 7.9-53.2z"/><path fill="#013" d="M613.1 226h-.3l-112.5-16.6v-.3l8-53.5h.2L621 172.2v.4L613 226zm-112-17.2l111.5 16.5 7.7-52.5-111.5-16.5-7.8 52.5z"/><path fill="#fff" d="M619.5 118l-94.2-13.9-7.8 53.2 94.2 13.9 7.8-53.2z"/><path fill="#013" d="M612 171.6h-.4l-94.5-14v-.4l8-53.5h.3l94.5 14v.4l-8 53.5zM517.9 157l93.5 13.8 7.7-52.5-93.5-13.8L518 157z"/><path fill="#fff" d="M625.3 113.1l-104-15.3-.9 5.6 104 15.3.9-5.6z"/><path fill="#013" d="M624.7 119.1h-.3L520 103.7l1-6.3h.3l104.3 15.4-.9 6.3zm-104-16l103.5 15.3.7-5L521.5 98l-.7 5z"/><path fill="#fff" d="M624.5 170.2l-119-17.6-.8 5.7 119 17.5.8-5.6z"/><path fill="#013" d="M624 176.2h-.4l-119.3-17.7 1-6.2h.3L624.8 170l-.9 6.3zM505 158l118.4 17.4.7-5L505.8 153l-.7 5z"/><path fill="#fff" d="M616.6 223.4l-118.9-17.6-.8 5.6L615.8 229l.8-5.6z"/><path fill="#013" d="M616 229.4h-.2l-119.3-17.7 1-6.3h.3L617 223.2l-1 6.3zm-118.8-18.2l118.3 17.4.7-5L498 206.2l-.8 5z"/><path fill="#fff" d="M608.8 276.5l-119-17.5-.8 5.6 119 17.6.8-5.7z"/><path fill="#013" d="M608.2 282.5h-.3l-119.2-17.6.9-6.3h.3l119.2 17.6-.9 6.3zm-118.8-18.2l118.3 17.5.7-5-118.3-17.5-.7 5z"/><path fill="#fff" d="M601 329.7L482 312l-.8 5.7 119 17.5.7-5.6z"/><path fill="#013" d="M600.4 335.7h-.3L480.8 318l1-6.3.3.1 119.2 17.6-1 6.3zm-118.8-18.2l118.2 17.4.8-5-118.3-17.4-.7 5z"/><path fill="#fff" d="M585.3 436l-119-17.5-.8 5.6 119 17.6.8-5.7z"/><path fill="#013" d="M584.7 442h-.3L465 424.4l1-6.3h.3l119.2 17.6-.9 6.3zM466 423.8l118.3 17.5.7-5-118.3-17.5-.7 5z"/><path fill="#fff" d="M593.1 382.9l-119-17.6-.8 5.6 119 17.6.8-5.6z"/><path fill="#013" d="M592.5 388.9l-.3-.1L473 371.2l.9-6.3h.3l119.3 17.7-1 6.3zm-118.8-18.3L592 388.1l.7-5-118.3-17.4-.7 5z"/><path fill="#fff" d="M211 295.5c-1-.4-2.1-.5-3.3-.4l-37.4 4.2c-.8 0-1.5.3-2.2.6l-8.3-214.6 12.2-1.4 39 211.6z"/><path fill="#013" d="M167.8 300.3v-.4l-8.3-215 12.8-1.4v.3L211.5 296l-.5-.2c-1-.3-2-.4-3.1-.3l-37.5 4.1c-.7.1-1.4.3-2 .6l-.5.1zm-7.7-214.8l8.3 213.9c.6-.2 1.2-.4 1.8-.4l37.5-4.2c1-.1 2 0 2.9.2L171.8 84.3 160 85.5z"/><path fill="#fff" d="M181.7 313.7l-.1 70.9-25 2.7 11.6-73c1.2.5 2.5.7 3.8.5l9.7-1z"/><path fill="#013" d="M156.2 387.7l11.8-73.9.3.2c1.2.5 2.4.6 3.6.5l10.1-1.1v.3L182 385l-25.7 2.8zm12.3-73L157 387l24.2-2.7.2-70.2-9.4 1a8 8 0 01-3.5-.4z"/><path fill="#fff" d="M241.4 378l-25 2.7-15.6-69 8.7-1c1.6-.2 3.2-1 4.3-2l27.6 69.2z"/><path fill="#013" d="M216.2 381l-.1-.2-15.7-69.4 9-1c1.6-.2 3-.9 4.2-2l.3-.2.2.4 27.7 69.6-25.6 2.9zm-15-69l15.5 68.3 24.2-2.7-27.2-68.3a8 8 0 01-4.2 1.7l-8.3 1z"/><path fill="#fff" d="M296.5 466.3l-31.6 3.6c-3.1-27.7-33.2-56.1-60.8-53-27.7 3-47.7 28-44.6 55.7l-34.1 3.7 30.4-73.2 89.8-10 50.9 73.2z"/><path fill="#013" d="M124.9 476.7l.2-.5 30.5-73.3h.2l90-10 51.3 73.7h-.6l-32 3.6v-.3a62.7 62.7 0 00-21-37.8 52.2 52.2 0 00-39.4-15 50.2 50.2 0 00-44.3 55.4v.4h-.2l-34.7 3.8zm31.1-73.2L126 476l33.3-3.7a50.8 50.8 0 0144.8-55.8c13-1.4 27.6 4 39.9 15a63.5 63.5 0 0121.2 38l30.8-3.4-50.5-72.6-89.4 10z"/><path fill="#fff" d="M216.8 302a7.8 7.8 0 01-7 8.6l-37.4 4.2a7.8 7.8 0 01-7-12.6 7.8 7.8 0 015.3-3l37.4-4.1c1.2-.1 2.3 0 3.3.3 2.8 1 5 3.5 5.4 6.6z"/><path fill="#013" d="M171.6 315.2a8.1 8.1 0 01-6.3-13.2 8.2 8.2 0 015.4-3l37.4-4.3a8.2 8.2 0 016.3 14.2 8 8 0 01-4.5 2l-37.4 4.2h-1zm37.4-19.8h-.8l-37.5 4.2c-.7 0-1.4.2-2 .5a7.4 7.4 0 00-4.6 7.7 7.5 7.5 0 008.3 6.7l37.4-4.2a7.3 7.3 0 005-2.8 7.5 7.5 0 00-5.8-12.2z"/><path fill="#fff" d="M256.9 384.1a7.8 7.8 0 01-6.9 8.7L157.7 403a7.8 7.8 0 01-7-12.6c1.3-1.6 3.2-2.7 5.3-3l92.3-10.2a7.8 7.8 0 018.6 7z"/><path fill="#013" d="M156.9 403.4a8 8 0 01-8.1-7.3 8 8 0 011.7-6 8 8 0 015.5-3l92.2-10.2a8 8 0 019 7.2 8 8 0 01-7.2 9l-92.2 10.2h-1zm92.3-25.9h-.9L156 387.9c-2 .2-3.7 1.2-5 2.8a7.4 7.4 0 006.7 12l92.3-10.2a7.4 7.4 0 003.9-13.3c-1.4-1-3-1.6-4.7-1.6z"/><path fill="#fff" d="M174.2 63.9c.6 5.2-.7 10-3.2 13.2l1.5 10.1-12.6 1.2-1-9a18 18 0 01-7-13c-1-8.5 3-16 8.8-17l-4.4-39.8 2.1-.3 4.5 40c5.5.5 10.4 6.6 11.3 14.6z"/><path fill="#013" d="M159.6 88.7l-1-9.1a18.5 18.5 0 01-7-13.2c-1-8.5 2.8-16 8.7-17.3L156 9.3l2.8-.3v.3l4.5 39.7c5.6.7 10.4 7 11.3 14.8.6 5-.6 10-3.1 13.4l1.5 10.3-13.3 1.2zm-3-78.8l4.4 39.7h-.3c-5.7 1.2-9.4 8.5-8.5 16.7.6 5.5 3.2 10.4 6.9 12.8l.1.1 1 8.8 12-1-1.5-10h.1c2.5-3.3 3.6-8.2 3-13.1-.8-7.7-5.5-13.8-11-14.3h-.2v-.3l-4.4-39.6-1.6.2z"/><path fill="#fff" d="M95.2 158l-29 3.2 2 17.9L97 176l-2-18z"/><path fill="#013" d="M67.9 179.4v-.3l-2-18.2h.3l29.3-3.2v.3l2 18.2H97L68 179.5zm-1.3-18l1.8 17.3 28.3-3-1.8-17.3-28.3 3z"/><path fill="#fff" d="M95.2 158l-29 3.2L76.6 120l18.7 38z"/><path fill="#013" d="M65.8 161.6l.1-.5 10.5-42 19.3 39.3-29.9 3.2zM76.6 121l-10 39.8 28-3-18-36.8z"/><path fill="#fff" d="M59.9 216.5l-7.3.8 1.7-18.8 5.6 18z"/><path fill="#013" d="M52.2 217.6l1.9-20.7 6.2 19.9-8 .8zm2.3-17.4L52.9 217l6.6-.7-5-16z"/><path fill="#fff" d="M120 210l-7.3.9 1.7-18.8 5.6 18z"/><path fill="#013" d="M112.3 211.2l1.9-20.8 6.2 20-8 .8zm2.3-17.4l-1.6 16.7 6.6-.7-5-16z"/><path fill="#fff" d="M111 193.4l-52.8 5.7 1.9 17.3 52.8-5.6-1.9-17.4z"/><path fill="#013" d="M59.8 216.8v-.4l-2-17.6h.4l53.1-5.7v.3l2 17.6h-.4l-53.1 5.8zm-1.2-17.4l1.8 16.6 52.1-5.5-1.8-16.7-52.1 5.6z"/><path fill="#fff" d="M111 193.5L58.2 199l10-20L97 176l14 17.5z"/><path fill="#013" d="M57.7 199.5L68 178.8l29.2-3.2 14.5 18.1h-.6l-53.4 5.8zm10.7-20.1l-9.6 19.3 51.6-5.5L97 176.3l-28.6 3z"/><path fill="#fff" d="M106.8 221.2l-39 4.2 4.2 39 39-4.3-4.2-38.9zM123.5 272l-61.7 6.7 26.8 204 55.5-.2-20.6-210.6z"/><path fill="#013" d="M88.4 483.1v-.3l-27-204.4h.4l62-6.8v.3l20.7 211h-.4l-55.7.2zM62.2 279L89 482.4l54.9-.2-20.6-210-61 6.8z"/><path fill="#fff" d="M118.8 277.9L68 283.3l3.8 36 50.8-5.4-3.8-36z"/><path fill="#013" d="M71.6 319.7v-.3l-4-36.4h.4l51-5.5v.4l4 36.3h-.4l-51 5.5zm-3.2-36.1L72 319l50.2-5.4-3.8-35.4-50.1 5.4z"/><path fill="#fff" d="M123.1 318.5l-50.8 5.4 3.9 36 50.8-5.4-3.9-36z"/><path fill="#013" d="M76 360.3l-.1-.3-4-36.4h.4l51.1-5.5v.3l4 36.4h-.4l-51 5.5zm-3.3-36.1l3.8 35.4 50-5.4-3.7-35.4-50.1 5.4z"/><path fill="#fff" d="M127.5 359l-50.8 5.5 3.8 36 50.8-5.4-3.9-36z"/><path fill="#013" d="M80.2 400.9v-.4l-3.9-36.3h.4l51-5.5v.3l4 36.4h-.4l-51 5.5zM77 364.8l3.8 35.4 50.1-5.4-3.7-35.4-50.2 5.4z"/><path fill="#fff" d="M131.8 399.6L81 405.1l3.9 36 50.7-5.5-3.8-36z"/><path fill="#013" d="M84.6 441.4v-.3l-4-36.3h.4l51-5.5.1.3 3.9 36.3h-.3l-51.1 5.5zm-3.2-36l3.8 35.3 50-5.3-3.7-35.4-50.1 5.3z"/><path fill="#fff" d="M136 440.6L85.4 446l3.8 36 50.8-5.4-3.8-36z"/><path fill="#013" d="M88.9 482.4v-.3l-4-36.3h.4l51-5.5v.3l4 36.3h-.4l-51 5.5zm-3.2-36l3.7 35.3 50.2-5.3-3.8-35.4-50.1 5.3z"/><path fill="#fff" d="M119.8 210l-67.2 7.3 6.7 61.4 67.2-7.2-6.7-61.4z"/><path fill="#013" d="M59 279v-.3L52.2 217h.3l67.6-7.3v.3l6.8 61.8h-.3L59 279zm-6-61.4l6.6 60.7 66.6-7.1-6.7-60.8-66.6 7.2z"/><path fill="#013" d="M89.4 262.7h-1.2a20 20 0 01-18.7-21.1 19.9 19.9 0 1120 21zm0-39.2a19.1 19.1 0 00-19.2 18.1 19.4 19.4 0 0018 20.4 19 19 0 0014-4.8 19.3 19.3 0 00-11.6-33.6h-1.2zM419.8 463.5v-.8l-.5.5.5-.5v-.8l.6.2-.6.6v.8zM401.8 170h.1zM402 169.8l-.2.3.1-.2zM402 169.7zM402 169.6zM402 169.7zM401.8 170zM402 169.6zM402 169.6zM402 169.6zM401.8 169.7zM402.1 169.4zM402 169.4v0zM402 169.4zM402 169.5zM402 169.5zM401.6 170zM401.8 170zM401.6 170zM401.6 170.2z"/><path fill="#013" d="M401.5 170.2l.1-.2v0l.1-.2v.2l-.2.2.1-.2s-.1.3 0 .1v-.1.1s0-.1 0 0v0s0-.1 0 0c0 0 .1-.2 0 0 0-.1 0 .1 0 0v.1s0 .1 0 0v-.1.1s0 .1 0 0v-.1 0c.1-.1 0 .2 0 0v.1c.1-.1 0 0 0 0 0 .2 0 0 0 0 .1 0 0 0 0 .1 0 0 .2-.3 0-.1h.1c0 .1 0 0 0 0 0 .1.1-.1 0 0l.2-.3-.2.3v-.1s.1-.1.1 0c0 0 0-.1 0 0v-.2s.1 0 0 0v.1s0-.1 0 0c.1-.2 0 0 0 0h.1c-.1.1 0-.2 0 0v-.1c0 .1.1-.1 0 0 0 0 0-.1 0 0v.1c.1-.2 0 0 0-.2v.2s0 .1 0 0c0 0-.1.1 0 0a1.5 1.5 0 010-.1v0c0 .1 0 0 0 0 .1-.2 0 0 0 0v-.2 0h.1c0-.1 0 0 0 0l-.1.1.1-.2v.1c0-.1 0 0 0 0v-.2c0 .2 0 0 0 0v.1l-.1.2v-.1c0-.1 0 0 0 0l.1-.1v-.1c0 .2 0 0 0 0v.1c0-.1 0-.1 0 0 0-.1 0-.1 0 0v-.1c.1-.2 0 .1 0 0v-.1.1l-.1.2v-.2h.1v-.1-.1 0c.1-.1 0 0 0 0v.2c-.1 0 0-.1 0 0v-.2.1l-.1.1s0 .1 0 0v-.2c.1 0 0 .1 0 0V169.6c.1-.2 0 0 0-.1v.1c0-.2 0 0 0 0v-.1.1c0 .2 0 0 0 0v-.1.2l.1-.3c0 .1 0 0 0 0l-.1.2v-.1l.1-.1v-.1.1c0 .1 0-.1 0 0v-.1.1c0-.1 0 0 0 0v-.1.1c0-.2-.1.1 0 0v-.1l-.1.2v-.2s.1 0 0 0c0 0 .1-.1 0 0v.1l.1-.2s-.1.1 0 .1c0-.1 0 0 0 0h-.1c0 .1 0 .1 0 0v.1h-.1c.1-.2-.1.2 0 0 0 0 0 .1 0 0 0 .2.1-.1 0 0 0 0 0 .1 0 0v-.1.2l-.3.4v-.1s0 .1 0 0v.1l.1-.1-.1.2v-.2.5zm.2-.2zm0 0v-.1zm.3-.6zM402 169.5zM401.6 170.1zM401.8 170zM401.8 170zM401.8 170zM401.7 170.1zM401.8 170zM401.8 170zM401.8 170zM401.8 170zM401.8 170zM401.8 170v.1s0-.1 0 0zM402 169.7c.1-.2 0 0 0 0zM402 169.6zM402 169.6zM401.8 170zM402.1 169.4zM402 169.5zM402 169.5z"/><path fill="#FF6100" d="M463.7 466.1l-8.3.4-24.8 1.2-10.5.4-2.8.2-20 .9-37.8 1.7-12 .6h-.9l-2.7.2-52 2.4-8.1.3-.5-9v-1.5l-4-86.6-.8-16-12.1-264.2-.5-9.5 10.4-.5 38.7-1.8 47-2.2 2.3-.1 12.6-.6 19.6-.9 7.4-.3 4.2-.2 3.9-.2 22.6-1 11.3-.6 4.4 96.3.5 11.2 1.5 31.5.6 14.6 10.8 232.3v1z"/><path fill="#fff" d="M283.4 464.4l.4 9 8-.3c-4.2-1-7.6-4.4-8.4-8.7zM453 232.8l-.7-15c1.8-1.8 3.4-4 4.8-6 2-2.9 4-5.8 5.8-8.8l-1.5-34-.6-11.7-3-67.5A22.5 22.5 0 00434 68.3l-31 1.5-18.5.8-8.2.4-6 .3a43.6 43.6 0 00-6 11.7H362L266 87.6l.4 9.6a11 11 0 0110-10h.6l38-1.8h.1l3.4 8a8.3 8.3 0 008 5l30.4-1.4 4.3-.2 7.5-.4 4-.2 13.7-.6a8.3 8.3 0 007.5-5.7l2-6.2.7-2 7.4-.4 4.2-.2 3.8-.2 22.7-1c6.1-.3 11.4 4.4 11.6 10.6l4 85 .5 11.5 1.4 31 .7 15 10.3 221.5c.2 5.2-3 9.6-7.7 11.2l8.2-.4h.1L453 232.8z"/><path fill="#fff" d="M453 477.4l-19.5 1-10.4.4-13.8.7-18.3.8-4.9.2h-.4l-11.5.6-10.4.5-24.4 1.1h-2l-42 2c-12.5.6-23-9-23.6-21.5l-16.9-364c-.5-12.5 9-23 21.5-23.6l94-4.4a32.4 32.4 0 00-3.4 5.3 26.4 26.4 0 00-4.9 6.6l-96.2 4.4.5 9.6v1.6l12.1 262.8a48 48 0 00-3 7.2c-.6 2.3-1 5 .5 6.8.8 1 2 1.4 3.2 1.8l4 85.4.1 1.2v1.4l.5 9.2 8.1-.4 52-2.4 2.8-.2h.9l12-.5 37.8-1.8 20-1h2.8l10.5-.5 24.8-1.2 8.3-.4v-1L453 232.9a232.5 232.5 0 009.8-14.2l.9-1.2 10.9 236.5c.5 12.4-9.1 23-21.6 23.6z"/><path fill="#fff" d="M278.5 361.5l.7 15.8a6.3 6.3 0 01-3.2-1.8c-1.5-1.8-1.1-4.5-.4-6.8a47 47 0 012.9-7.2zM364.3 83H362a36.9 36.9 0 014.9-6.5c-1 2.1-2 4.3-2.7 6.5z"/><path fill="#FF6100" d="M453 232.8l-.7-15c1.8-1.8 3.4-4 4.8-6 2-2.9 4-5.8 5.8-8.8l.7 14.3-.8 1.3a233.6 233.6 0 01-9.8 14.2z"/><path fill="#fff" d="M463.7 466.1l-8.3.4-24.8 1.2-10.5.4-2.8.2-20 .9-37.8 1.7-12 .6h-.9l-2.7.2-52 2.4-8.1.3-.5-9v-1.5.4l.5 9.2 8-.4 3 .3 49.5-2.3 1.7-.1 2.3-.1 11.7-.5 37-1.8 20.7-1h2.3l10.7-.5 21.8-1c1 0 2-.2 3-.5l8.2-.4v1z"/><path fill="#013" d="M435.2 504.6v-.8l-.6.6.6-.6v-.8l.6.2-.6.6v.8zM417.2 211.1zM417.3 211l-.1.2v-.2c.1 0 .1 0 0 0h.1zM417.4 210.8zM417.4 210.7zM417.4 210.8zM417.2 211.2zM417.4 210.7zM417.4 210.7zM417.4 210.7zM417.1 210.8zM417.5 210.5zM417.4 210.5v0zM417.5 210.5zM417.4 210.6zM417.4 210.6zM417 211.2v-.1zM417.2 211.1zM417 211.2zM417 211.3z"/><path fill="#013" d="M416.9 211.3v-.2 0h.1v-.2s.1 0 0 0v.2l-.1.2v-.2c.2 0 0 .3 0 .1l.1-.1v.1s0-.1 0 0v0s0-.1 0 0c0 0 0-.2 0 0 0-.1 0 .1 0 0v.1s-.1.1 0 0v-.1.1s-.1.1 0 0v-.1 0c.1-.1-.1.2 0 0v.1c0-.1 0 0 0 0 0 .2 0 0 0 0v.1s.1-.3 0-.1c0 .1 0 0 0 0h.1c0 .1 0-.1 0 0l.1-.3-.1.3v-.1s.1-.1 0 0c0 0 .1-.1 0 0l.1-.2v.1s0-.1 0 0c.1-.2 0 0 0 0 0 .1.2-.2 0 0l.1-.1c0 .1 0-.1 0 0 0 0 0-.1 0 0v-.1.2h-.1s0 .1 0 0c0 0 0 .1 0 0l.2-.2h-.1c0 .1 0 .1 0 0v.1l-.1.1v-.1 0c0 .1 0 0 0 0 .2-.2 0 0 0 0l.1-.2v0s.1 0 0 0c.1-.1 0 0 0 0v.1-.2.1c0-.1 0 0 0 0v-.2c0 .2.1 0 0 0v.1h.1v-.1c-.1.2 0 0 0 0v.1c0-.1 0-.1 0 0 0-.1 0-.1 0 0v-.1c0-.2 0 .1 0 0v-.1.1l-.1.2v-.2l.1-.1-.1.2v-.1l.1-.1v-.1 0c0-.1 0 0 0 0v.1l-.1.1s0-.1 0 0l.1-.2v.1h-.1v.1s0 .1 0 0v-.2c.1 0 0 .1 0 0v.2c0-.1-.1 0 0-.1 0 0-.1.2 0 .2v-.1-.1.1l-.1.1v-.1c.2-.2 0 0 0 0l.1-.1v.1c-.1.2 0 0 0 0v-.1V210.4c0 .1 0 0 0 0v.2-.1-.1l.1-.1v.1c0 .1 0-.1 0 0v-.1.1s-.1 0 0 0c0-.1 0 0-.1 0l.1-.1v.1s-.1 0 0 0v-.1.1c0-.2-.1.1 0 0v-.1l-.1.2v-.2s.1-.1 0 0v.1s-.1 0 0 0v-.2.1c0-.1 0 0 0 0 0 .1 0 .1 0 0l-.1.2.1-.2-.1.1c.1-.2-.1.2 0 0 0 0 0 .1 0 0-.1.2 0-.1 0 0 0 0 0 .1 0 0v-.1.2h-.1l-.2.4v-.1s0 .1 0 0v.5zm.1-.2zm0 0v-.1zm.4-.6zM417.3 210.6zM417 211.2zM417.2 211zM417.2 211v.1zM417.2 211.1zM417.1 211.2zM417.2 211zM417.2 211zM417.2 211.2zM417.2 211.1zM417.2 211.1zM417.2 211.1v.1s0-.1 0 0zM417.4 210.8c0-.2 0 0 0 0zM417.5 210.6zM417.4 210.6zM417.3 210.6s.1 0 0 0zM489 154.3l-14.5 21-3.4-1.2 13-18.3c1.4-2 4.4-4 5-1.5z"/><path fill="#fff" d="M481.6 189.7s9-27 3-29.2l-9.5 12.3c1.8-2.3-.5-5.2-3-3.3-2.5 2-.3 9 .4 11.4l-3.4 6.9 12.5 2z"/><path fill="#013" d="M481.6 190l-12.5-1.9c-.1 0-.2 0-.3-.2v-.3l3.4-6.7c-.9-2.7-3-9.5-.2-11.6 1.4-1.1 2.6-.7 3.3 0 .5.4.7 1 .8 1.7l8.2-10.7h.3c6.3 2.1-2.3 28.4-2.7 29.6l-.3.2zm-12-2.5l11.8 1.9c2.5-7.6 7.6-26.4 3.2-28.5l-9.2 12.1c-.1.2-.3.2-.5 0a.3.3 0 010-.4c.8-1 .6-2.3 0-3-.6-.4-1.5-.7-2.5.2-2.4 1.9-.3 8.8.4 11v.3l-3.2 6.4zM346.6 530.3v-.8l-.6.6.6-.6v-.8l.6.2-.6.6v.8z"/><path fill="#fff" d="M368.1 159.3l.6.6 2 2.4c17.8 14 30.9-.5 30.9-.5l.1-14.3c13.2-.6 12.6-23.2 12-32-.5-7.6-8.2-15.8-16-15.3a17 17 0 00-10.6 5.4c-3.8 3.7-3.4 14.8-3.3 17"/><path fill="#013" d="M386.2 168.7c-4.5 0-9.8-1.6-15.6-6.1l-2.7-3a.3.3 0 010-.5h.5l2.6 3c16.7 13.1 29 .9 30.2-.4l.2-14.2c0-.1.1-.3.3-.3a9.2 9.2 0 006.7-3.2c4.1-4.6 5.9-14.5 5-28.5-.3-4-2.6-8.2-6-11.2-3-2.7-6.5-4-9.7-3.8-3.6.3-7.3 2.2-10.4 5.3-3.6 3.7-3.3 14.6-3.2 16.7 0 .2-.1.3-.3.3a.3.3 0 01-.3-.3c-.2-3-.4-13.4 3.4-17.2 3.1-3.2 7-5.2 10.8-5.4 3.4-.3 7 1.1 10.1 3.9 3.6 3.1 6 7.6 6.2 11.6 1 14.4-.8 24.2-5.1 29a9.8 9.8 0 01-6.8 3.4l-.2 14v.2c-.2.1-6.3 6.7-15.7 6.7z"/><path fill="#013" d="M401.8 147.3s-5 .4-8.8-2.5l8.6 7.5.2-5z"/><path fill="#fff" d="M361.5 389.3l20.4 51.7 30.7-43-51.1-8.7z"/><path fill="#013" d="M381.8 441.7L361 388.8l.5.1 51.7 9-31.4 43.8zm-19.8-52l20 50.6 30-42-50-8.6z"/><path fill="#fff" d="M361.4 470.3l38.8-78.4 11.1-87.4 15.3.6L449 384a61.2 61.2 0 01-4.7 45.4l-20 38"/><path fill="#013" d="M361.4 470.6h-.2a.3.3 0 01-.1-.4l38.7-78.4 11.2-87.4c0-.2.2-.3.3-.3l15.3.7c.2 0 .3.1.3.2l22.5 78.8a61.3 61.3 0 01-4.7 45.6l-20 38c-.2.2-.4.2-.5.1a.3.3 0 01-.2-.4l20.1-38c7.4-14 9-30 4.7-45.2l-22.4-78.5-14.8-.6-11.1 87.1v.1l-38.8 78.4c0 .2-.2.2-.3.2z"/><path fill="#fff" d="M425.6 240.3l1.8 67.7-20 3.6 16.3-81.7 2 10.4z"/><path fill="#013" d="M407 312l.1-.4 16.6-83.5 2.3 12.1 1.8 68.1L407 312zm16.7-80.4L408 311.2l19.2-3.4-1.8-67.5-1.6-8.7z"/><path fill="#fff" d="M391.1 191.7c7 11 14.6 21.7 22.8 31.8 4.5 5.6 9.3 11 14.7 15.9 3 2.6 11 10 15.2 6.6 15.3-12.6 27.2-24.8 35-43 2.4-5.8 4.4-11.8 6-17.8l-16.1-7.3-20.3 30s-24.8-39.8-51-43.7l-6.3 27.5z"/><path fill="#013" d="M441.2 247.3c-4.3 0-9.9-5-12.5-7.4l-.3-.3a136 136 0 01-14.8-16c-8-10-15.7-20.6-22.8-31.8v-.2l6.4-27.7h.3c13.6 2 26.8 13.9 35.5 23.4 8.3 9.2 14.1 18 15.4 20l20.2-29.8 16.6 7.5v.3c-1.7 6-3.8 12-6.2 17.7-7.8 18.4-19.6 30.6-35 43.3-.8.7-1.8 1-2.8 1zm-49.7-55.7c7 11 14.6 21.7 22.6 31.7 4.1 5 9 10.8 14.7 15.8l.3.3c3.2 2.9 10.6 9.5 14.5 6.4 15.3-12.6 27-24.8 34.8-43 2.4-5.6 4.5-11.5 6-17.4l-15.6-7-20.4 30.1-.2-.4c-.1 0-6.3-10-15.7-20.3-8.5-9.5-21.5-21-34.8-23.2l-6.2 27z"/><path fill="#fff" d="M410 184.2c-86.1 25.6-79.8-15.4-79.8-15.4.6-4 8.2-8.1 10.8-10.9 4.8-5 8-10.9 10.2-17.4 4.5-13.2 4.6-27.7 11.5-40a26.2 26.2 0 0133.7-11.2c5.6 2.4 9.9 7 13.3 11.9 1.2 1.6 9.3 12.8 5.4 13.7-14.4 3.4-29 10.3-28 26.4a23 23 0 002.3 8.1c2 4.2 5.5 7.3 10.1 4.7 1-.5 1.5-1.3 2.1-2.3l8.3 32.4z"/><path fill="#013" d="M362.8 192.9c-10.7 0-20-2-26.2-7.4-8-7-6.7-16.4-6.7-16.8.5-2.8 4.1-5.6 7.3-8 1.5-1.1 2.8-2.1 3.6-3a45 45 0 0010.1-17.3c1.7-5 2.8-10.4 3.8-15.6 1.7-8.3 3.5-16.9 7.7-24.5a26.6 26.6 0 0134-11.3c5 2.1 9.4 6 13.6 12l.1.2c4.8 6.8 7 11.2 6.2 13-.2.6-.6 1-1.2 1-19.5 4.7-28.6 13.2-27.7 26 .1 2.5 1 5.2 2.3 8 1 2 2.6 4.5 5 5.3 1.5.5 3 .2 4.7-.7.9-.5 1.4-1.2 2-2.2l.3-.7 8.6 33.5-.3.1a175.7 175.7 0 01-47.2 8.4zm22.8-105.6c-3.4 0-6.8.7-10 2a26.7 26.7 0 00-12.6 11.3c-4.2 7.6-6 16-7.6 24.3-1 5.2-2.1 10.6-3.9 15.7-2.3 7.1-5.7 12.9-10.2 17.6-.9.9-2.2 1.9-3.6 3-3 2.3-6.7 5-7.1 7.6 0 .4-1.3 9.4 6.4 16.2 14.5 12.6 47.4 6.4 72.5-1l-8-31.4a5 5 0 01-1.8 1.8 6.4 6.4 0 01-5.2.7c-2.6-.8-4.4-3.5-5.3-5.5-1.5-3-2.3-5.8-2.4-8.3-1-13 8.6-22 28.2-26.7.4 0 .6-.2.7-.5.4-1 0-3.8-6-12.5l-.2-.2a33.2 33.2 0 00-13.2-11.8c-3.4-1.6-7-2.3-10.7-2.3z"/><path fill="#fff" d="M403.6 411s20.4-122.6 21.2-170.2c0 0-6.2-78.4-43-82.7a36 36 0 00-26.9 5.8c-14.4 10.7-17.7 28.8-18.3 45.7-.6 20-.1 39.1-3.9 58.9-5.3 28.2-15.3 56-32.7 79-2.5 3.3-5.1 6.4-8 9.4-5.5 6-11.7 12.5-14.1 20.6-1.7 5.3-.8 9 3.3 12.6 17.9 16.3 46.3 26.7 69 13 15.9-9.5 32.2-10.5 47.4 2.2 2.1 1.8 4.1 3.7 6 5.7z"/><path fill="#013" d="M403.8 411.7l-.5-.5c-1.9-2-3.9-4-5.9-5.6-14-11.8-29.9-12.5-47-2.2a47.8 47.8 0 01-36.6 4.8 76.3 76.3 0 01-32.8-17.9c-4.2-3.7-5.2-7.5-3.4-13a56.2 56.2 0 0113.7-20l.5-.6c2.8-3 5.4-6.1 8-9.4a187.2 187.2 0 0032.6-78.9c3-15.4 3.2-30.2 3.6-45.8l.3-13c.6-15.4 3.1-34.6 18.4-46a36 36 0 0127.2-5.9c15.2 1.8 27.5 16.8 35.5 43.3 6.1 20 7.7 39.6 7.8 39.8-.9 47-21.1 169-21.3 170.3l-.1.6zm-30.3-16.2c8.6 0 16.7 3.2 24.3 9.6 1.9 1.5 3.7 3.3 5.6 5.2 1.6-9.8 20.3-124.3 21.1-169.5 0-.2-1.6-19.8-7.7-39.6-10.1-33.2-24.6-41.6-35-42.8a35.3 35.3 0 00-26.7 5.8c-15 11.1-17.6 30.1-18.1 45.4l-.4 13c-.3 15.7-.6 30.5-3.6 46-6 31.7-17 58.3-32.8 79-2.5 3.4-5.1 6.6-7.9 9.6l-.5.5c-5.5 6-11.2 12.1-13.6 19.8-1.7 5.3-.8 8.7 3.2 12.3 24.8 22.6 52.3 22.8 68.6 13 8.1-4.8 16-7.3 23.5-7.3z"/><path fill="#013" d="M389 238.2h-.1a.3.3 0 01-.3-.3l4-37.3c0-.2.2-.3.4-.3s.4.2.3.4l-4 37.3-.4.2z"/><path fill="#fff" d="M417.2 228.4s13.3-14 23.3-5.7c0 0 4.8 4.6-8.5.6l3.9 1.1 3 1.2c.8.3 1.7.7 2.2 1.3.6.7.2 1.3-.5 1.7-1.6.9-3.5-.1-5-.6l-3.1-1 3.8 1.6c1 .6 2.2 1.1 3 2 .7.7.3 1.5-.5 1.8-.7.3-1.5.3-2.2 0-1-.2-2-.6-3-.7-1.2 0-2.4.2-3.5.7-1.8.7-3.4 2-4.8 3.4l-3.8 3.9-4.3-11.3z"/><path fill="#013" d="M421.5 240a.3.3 0 01-.3-.2l-4.3-11.3v-.4c.2-.1 13.7-14 23.8-5.6.1.1 1.3 1.3.8 2.1-.2.4-.7.8-2.5.6h.1c.7.4 1.7.8 2.3 1.5.3.4.4.8.3 1 0 .4-.4.9-1 1.2-.9.5-1.9.4-2.8.2a8 8 0 011.7 1.3c.3.4.5.8.4 1.2-.1.5-.5.9-1 1.1-.7.3-1.7.4-2.5.1l-.6-.2c-.8-.2-1.5-.5-2.3-.5-1-.1-2.2.1-3.3.6-1.6.6-3.2 1.7-4.8 3.3l-3.8 3.9h-.2zm-4-11.6l4.1 10.7 3.4-3.6c1.7-1.6 3.3-2.8 5-3.4 1.2-.5 2.4-.8 3.6-.7 1 0 1.7.3 2.5.6.2 0 .4 0 .6.2a3 3 0 002 0c.3-.2.6-.5.6-.7 0-.3 0-.5-.2-.7a31.2 31.2 0 00-6.6-3.5h-.1l.1-.7 3.2 1 .8.4c1.3.4 2.8 1 4 .3l.6-.7c0-.1 0-.3-.2-.5-.6-.5-1.4-.9-2-1.2-1-.4-1.9-.8-3.1-1.1l-.8-.3-3.1-.8a.3.3 0 01-.2-.4c0-.2.2-.3.4-.3l1.6.5 1.5.4c4.8 1.2 5.6.6 5.8.4.1-.3-.4-1-.8-1.3-9-7.6-21.2 4-22.6 5.4z"/><path fill="#fff" d="M338.5 192.6c.5 15.7 3 31.4 9.1 46 5 12 15.5 32.5 29.3 36.2 12.2 3.3 21.1-9 28.8-16.3l18.9-18 4.1-4-7.7-15s-36.9 18.2-39.8 19"/><path fill="#013" d="M381 275.7c-1.3 0-2.7-.2-4.2-.6-14-3.7-24.4-24.4-29.5-36.4a129.1 129.1 0 01-9.1-46c0-.2.1-.4.3-.4.2 0 .3.1.3.3.5 17.3 3.6 32.7 9.1 45.8 5 12 15.4 32.4 29.1 36.1 10 2.7 17.7-5.3 24.5-12.3l4-4 18.9-18 2-2 1.9-1.8-7.5-14.4c-3.7 1.8-36.7 18-39.5 18.9-.2 0-.4 0-.4-.2s0-.4.2-.4c2.9-1 39.3-18.8 39.7-19 .2-.1.4 0 .4.1l7.8 14.9v.4l-2.1 2-2 2-19 18-4 4c-5.9 6.1-12.5 13-20.9 13z"/><path fill="#013" d="M395.4 234l-2.4-33.3-4 36.4 6.4-3.1zM366.2 401.2s13-3.8 26.7 5.4l1.8-3.6s-10.5-10.3-29.9-6l1.4 4.2z"/><path fill="#013" d="M393.8 404.8s5.4 2.7 9.5 8l.4-1.2s-4.4-5.6-9-8.6l-1 1.8z"/><path fill="#fff" d="M396.4 291.8c-.7-.7-1.6-1-3.1-1-6.9.1-13.8-1.6-20.6-1-1 .2-2.3.5-2.7 1.5v.9l-.2 9c0 5.3 0 10.7 1.9 15.5 2 4.9 6.5 9 11.7 9 6.7-.1 10.9-6.3 12.3-12.1 1-3.8 1-7.7 1.2-11.6 0-3.6 1.4-8.2-.5-10.2z"/><path fill="#013" d="M383.3 326c-5.6 0-10-4.6-11.9-9.1-2-5-2-10.7-1.9-15.6l.1-9.1.1-1c.4-1 1.3-1.5 3-1.7 3.9-.3 7.9 0 11.7.4 3 .3 6 .6 9 .6 1.4 0 2.5.3 3.2 1 1.5 1.6 1.2 4.5.9 7.3l-.3 3.2a53 53 0 01-1.1 11.7c-1.4 5.6-5.6 12.2-12.6 12.3h-.2zm-7.3-36c-1 0-2.2 0-3.3.2-1.3.1-2.1.5-2.3 1.2l-.1.8-.1 9c0 5-.2 10.6 1.8 15.4 1.8 4.4 6 8.8 11.3 8.8h.1c6.7-.1 10.7-6.5 12-11.9 1-3.7 1-7.7 1.2-11.5l.2-3.2c.3-2.7.6-5.5-.7-6.8-.6-.6-1.5-1-2.8-.9-3 0-6-.2-9-.5-2.7-.3-5.5-.6-8.3-.6zM109 244a19.6 19.6 0 01-27.7 16.6c4-1 19.7-6.6 22-31.6 3.8 3.8 6 9.2 5.6 15zM172.3 87L200.4 296l11-.7-39-208.4z"/><path fill="#fff" d="M533.1 474.6s-53.4-46.6-15.5-41.8c0 0-54.4-39.8-21.4-39.8 0 0-26.4-36.6 1.6-35 0 0 11.6 0 14.9 22.2 0 0 21.4-31.8 18 35 0 0 10-11 15-4.7 0 0 22 15.2 13.4 63.3"/><path fill="#013" d="M532.9 474.9c-1.4-1.2-33.3-29.2-28.8-39.2 1.3-3 5.5-4 12.3-3.3-5.8-4.4-34-26.1-31-35.5 1-2.7 4.3-4.1 10.1-4.2-2.3-3.4-14.6-21.8-9.8-30.6 1.8-3.3 6-4.8 12.1-4.5.5 0 11.6.3 15 21.8 1.6-2 6.7-8.3 11.3-6.8 5.9 2 8.3 16 7 41.8 1.8-1.7 6.6-6.3 10.9-6.2a5 5 0 013.9 2c1 .9 21.8 16.9 13.5 63.7l-.6-.1c8.4-47.4-13.1-62.9-13.4-63-1-1.3-2-1.9-3.5-2h-.1c-4.8 0-10.7 6.6-10.8 6.7l-.6.7v-1c1.7-32.4-2.6-40.7-6.5-42-5-1.6-11 7.1-11 7.2l-.5.7v-.8c-3.3-21.8-14.5-22-14.6-22-6-.3-9.9 1-11.5 4.1-5 9.2 10 30.2 10.1 30.4l.4.5h-.6c-6 0-9.3 1.3-10.1 3.8-3.2 9.8 31.3 35.2 31.7 35.5l1 .7-1.2-.1c-7.3-1-11.7 0-12.9 2.7-4.3 9.6 28.3 38.2 28.6 38.5l-.4.5z"/><path fill="#013" d="M545.9 472.5l-.3-.1c-.3-.4-23.4-40.4-26.7-70.6 0-.2 0-.4.3-.4.1 0 .3 0 .3.3 3.3 30 26.4 70 26.6 70.3v.5h-.2z"/><path fill="#fff" d="M546.1 474.8l32.2-.2c51.2-89.6 6.6-71.7 6.6-71.7 43-73.3 3.3-48.8 3.3-48.8 10-31 0-37.5 0-37.5-28-14.7-21.5 40.7-21.5 40.7C532 334.5 552 403 552 403c-11 0-13.2 20.1-13.6 28.1-.7 16 1.7 29.1 7.8 43.8z"/><path fill="#013" d="M545.9 475.1v-.2a95.7 95.7 0 01-8-43.9c.4-6.6 2.2-27.8 13.5-28.4-1.2-4.5-11.2-41.2-.9-48.9 3.5-2.5 8.8-1.5 15.8 3-.5-5-3-33.8 7.7-41.2 3.7-2.5 8.5-2.3 14.4.8.4.3 9.8 6.9.4 37 2.5-1.4 11-5.7 14.7-2 5 4.9-1 22-17.9 51 2.7-.8 10.6-3 15 2 7.3 8.4-.1 32.2-22 70.5l-.1.2h-.2l-32.4.1zm6-71.8c-4.6 0-8.1 3.6-10.5 10.8a95 95 0 005 60.4l31.7-.2c27-47.3 26.8-64 22-69.6-4.9-5.5-15-1.5-15-1.5l-1 .4.5-.8c21.3-36.3 21.7-47.8 18.4-51-4-4-14.5 2.5-14.6 2.5l-.8.5.3-.8c9.7-30.4.2-37 .1-37.1-5.6-3-10.2-3.2-13.6-.9-11.2 7.8-7.4 41-7.4 41.3l.1.7-.6-.4c-7-4.7-12.3-5.8-15.6-3.3-10.5 7.7 1.1 48.2 1.2 48.6l.2.4h-.4z"/><path fill="#013" d="M564.9 472.5c-.2 0-.3-.1-.3-.3 0-.7 2.6-69.6 15.2-103l.4-.2c.2.1.3.3.2.5-12.6 33.2-15.2 102-15.2 102.7 0 .2-.1.3-.3.3z"/><path fill="#fff" d="M144 482s65.5-56.5 19-50.7c0 0 66.6-48.7 26.3-48.7 0 0 32.3-44.8-2-42.8 0 0-14.1 0-18.2 27.2 0 0-26.2-39-22.2 42.9 0 0-12-13.6-18.1-5.8 0 0-27 18.5-16.5 77.4"/><path fill="#013" d="M144.3 482.3l-.4-.5c.4-.4 40.2-35 35-46.7-1.5-3.4-6.8-4.6-15.8-3.4l-1.2.1 1-.7c.4-.3 42.7-31.5 38.8-43.5-1-3-5.2-4.6-12.4-4.6h-.6l.3-.6c.2-.2 18.6-26 12.5-37.2-2.1-3.8-6.9-5.5-14.2-5.1-.2 0-14 .3-17.8 27l-.2.8-.4-.7c-.1 0-7.5-10.9-13.5-8.9-4.8 1.6-10 11.9-8.1 51.6v1l-.6-.8s-7.4-8.3-13.4-8.1c-1.7 0-3 .8-4.2 2.3h-.1c-.3.2-26.6 19.1-16.4 77.1l-.6.2c-3-16.9-4.7-41.1 4.4-61a43 43 0 0112.2-16.8 6.1 6.1 0 014.7-2.5h.2c5.3 0 11.2 5.7 13.1 7.7-1.5-31.6 1.4-48.9 8.6-51.3 5.7-1.9 12 6 13.8 8.5 2.1-13.7 6.9-20.2 10.5-23.3 4.1-3.4 7.7-3.5 7.8-3.5 7.6-.4 12.5 1.4 14.8 5.5 5.9 10.8-9.5 33.6-12.2 37.4 7.2 0 11.4 1.8 12.4 5.1 3.8 11.5-31.5 38.6-38 43.5 8.5-1 13.7.4 15.2 3.9 5.4 12.1-33.5 46-35.2 47.5z"/><path fill="#013" d="M128.5 479.8h-.1a.3.3 0 01-.2-.4c.3-.5 28.6-49.3 32.6-86.1 0-.2.2-.3.4-.3s.3.2.3.4c-4 37-32.4 85.8-32.7 86.3l-.3.1z"/><path fill="#fff" d="M128.2 482.7l-39.3-.2c-62.7-109.6-8.1-87.7-8.1-87.7-52.6-89.7-4-59.8-4-59.8-12.2-37.9 0-45.9 0-45.9C111 271.1 103 339 103 339c42.4-28 18.2 55.8 18.2 55.8 13.4 0 16.1 24.5 16.6 34.3.9 19.7-2 35.6-9.6 53.6z"/><path fill="#013" d="M128.4 483l-39.7-.2-.1-.1c-26.8-46.9-35.9-75.9-26.9-86.2 5.4-6.1 15.3-3.3 18.3-2.3-20.7-35.5-28-56.6-21.9-62.6 4.6-4.5 15.1 1 18 2.7-11.6-37 0-45.1.5-45.4 7.1-3.8 13-4 17.4-1 6 4 9.3 14 10 29.3.5 9.7-.3 18.6-.6 21.1 8.7-5.5 15.2-6.8 19.4-3.7 12.7 9.4.3 54.7-1.2 59.9 13.9.5 16.1 26.6 16.5 34.6a117 117 0 01-9.6 53.8v.2zm-39.4-.8l39 .2c7.5-18 10.3-33.9 9.4-53.2-.1-3.6-.8-13-3.4-20.8-2.9-8.8-7.2-13.3-12.8-13.3h-.4v-.4c.1-.1 3.7-12.7 5.7-26.3 2.6-17.9 1.2-29.4-4.1-33.3-4-3-10.5-1.6-19.2 4.1l-.6.4v-.7c.1-.4 4.8-41-9-50.5-4.2-3-9.8-2.6-16.7 1-.1 0-11.8 8.4.1 45.5l.3.8-.8-.4c-.1-.1-13-8-18-3.2-4 4-3.5 18 22.5 62.5l.5.8-.9-.3c-.1 0-12.5-5-18.4 1.8-10.9 12.5 8.6 53.3 26.8 85.3z"/><path fill="#013" d="M105.2 479.8c-.1 0-.3-.1-.3-.3 0-.8-3.1-85-18.6-125.7 0-.2 0-.3.2-.4.2 0 .3 0 .4.2 15.5 40.8 18.6 125 18.7 125.9 0 .2-.2.3-.4.3z"/></g><defs><clipPath id="clip0"><path fill="#fff" d="M0 0h639.1v521.3H0z" transform="translate(0 9)"/></clipPath></defs></svg>