<svg width="362" height="362" viewBox="0 0 362 362" fill="none" xmlns="http://www.w3.org/2000/svg">
<circle cx="181" cy="181" r="181" fill="#EDF0F9"/>
<path d="M91.4 86.8999C82.2 95.8999 87.9 117.9 86.8 129.7C85 148.2 78.4 165.7 74.4 183.7C68.6 210.3 68.4 239.5 78.9 264.2C89.5 288.9 112.4 308 136.9 306.7C151.1 306 164.3 298.7 177.1 291.7L211.9 272.6C243.2 255.3 232.4 261.6 232.4 220.6C232.4 183.8 243.6 159.2 219.2 150.6C229.4 154.2 266.8 124.2 274.8 118.6C280.8 114.2 287 108.6 288.5 100.7C290.3 91.0999 283 80.6999 274.3 80.2999C270.3 80.1999 266.6 81.6999 263 83.4999C252.4 88.8999 229.4 107.6 219 113.5C208.377 119.171 199.232 127.254 192.3 137.1C180.8 154.1 170.7 172.6 157.3 187.6C154.885 190.726 151.672 193.144 148 194.6C141 196.8 133.5 191.1 130.2 183.8C127.404 176.089 126.213 167.888 126.7 159.7L126.5 130.8C126.4 115.7 125.5 98.4999 115.2 88.5999C109.2 82.7999 99.7 80.7999 92.9 85.5999L91.4 86.8999V86.8999Z" fill="#FFB200"/>
<path d="M226.2 317.3L138.7 316C136.065 315.974 133.461 315.428 131.038 314.392C128.615 313.356 126.42 311.852 124.58 309.966C122.74 308.079 121.291 305.848 120.316 303.4C119.341 300.952 118.86 298.335 118.9 295.7L121.9 86.0001C121.926 83.3565 122.475 80.7443 123.517 78.3146C124.559 75.8848 126.072 73.6857 127.969 71.8444C129.866 70.0032 132.11 68.5563 134.569 67.5875C137.029 66.6186 139.657 66.1471 142.3 66.2001L229.9 67.5001C232.526 67.5392 235.119 68.0953 237.531 69.1367C239.942 70.1781 242.125 71.6843 243.955 73.5694C245.784 75.4545 247.224 77.6815 248.193 80.1232C249.161 82.5649 249.639 85.1736 249.6 87.8001L246.6 297.6C246.561 300.235 246.001 302.837 244.954 305.255C243.906 307.673 242.391 309.86 240.495 311.691C238.599 313.522 236.36 314.96 233.907 315.922C231.454 316.885 228.835 317.353 226.2 317.3V317.3Z" fill="#001038"/>
<path d="M219.7 297.8L145.7 296.8C141.209 296.721 136.931 294.868 133.802 291.645C130.673 288.422 128.947 284.092 129 279.6L131.6 102.3C131.705 97.8261 133.57 93.5741 136.79 90.4665C140.01 87.3588 144.326 85.6461 148.8 85.7L222.8 86.7C227.292 86.7789 231.569 88.6323 234.698 91.8551C237.827 95.078 239.554 99.4083 239.5 103.9L236.9 281.2C236.795 285.674 234.93 289.926 231.71 293.033C228.49 296.141 224.175 297.854 219.7 297.8V297.8Z" fill="white"/>
<path d="M222.6 175.3C228.8 176.5 235.4 176 241.8 175.4C234.6 176.3 227.4 178.1 221.6 182C215.9 185.9 211.8 192.1 212.3 198.5C213 206 220 212 228 214.4C236 216.7 240.6 216.6 249 215.2C241.55 216.657 234.596 219.997 228.8 224.9C222.2 230.5 218.8 240.1 223.7 246.7C226.306 249.923 229.944 252.149 234 253C247.3 256.2 264.1 247.8 267.5 234.1C268.8 229.1 268.5 223.8 268.4 218.7L267.4 193.1C267.2 183.5 266.8 173.8 264.6 164.5C262.8 157.2 259.6 149.7 253.3 145.5C246.1 140.8 236.7 141.4 228.1 142.4C208.8 144.6 199.6 170.6 222.6 175.3V175.3Z" fill="#FFB200"/>
<path d="M260.3 170.1V170.2H260.5C260.5 170.1 260.4 170.2 260.3 170.2V170.1ZM257 171.3H257.1H257ZM248.2 173.9C248.2 173.9 248.1 174 248.2 174.1V173.9ZM239.9 176.2C239.9 176.2 239.8 176.2 239.9 176.2V176.2ZM251.9 173.7H251.8H251.9Z" fill="#212F51"/>
<path d="M239.2 176.4C239.3 176.4 239.2 176.3 239.2 176.2L239.4 176.3L239.5 176.2L239.8 176.1V176C239.8 176 239.8 175.9 239.8 176H240.2C240.2 176 240 176 240.2 176.1H240C240.1 176.2 240 176.1 240 176.2H240.4V176C240.5 175.9 240.5 176.3 240.7 176.1V176H240.9C240.9 176.1 240.9 176 241 176L241.5 175.9H242.1C242.2 175.9 242.1 175.9 242.1 175.9C242.2 175.8 242.3 175.9 242.2 175.9L242.7 175.7C242.8 175.7 242.7 175.6 242.9 175.7C243.1 175.7 243.3 175.5 243.5 175.7C243.5 175.5 243.8 175.7 243.7 175.5L244.1 175.6V175.4V175.5H244.3C244.3 175.4 244.5 175.5 244.5 175.5L244.7 175.4C244.7 175.4 244.7 175.6 244.8 175.4H245.5V175.2C245.6 175.2 245.6 175.2 245.5 175.2H245.6V175.3H245.8L246.2 175.2V175H246.6C246.7 175 246.6 175 246.6 174.9L246.8 175C246.9 175 247 175 247.1 174.8C247.4 174.7 247.7 175 247.8 174.8L248 174.6V174.7L248.5 174.6C248.6 174.8 248.9 174.4 249.1 174.6V174.5C249.4 174.3 249.8 174.3 250.2 174.3C250.4 174.3 250.2 174 250.4 174.1C250.6 174 250.9 174.1 251.2 173.9L251.3 173.8C251.5 173.9 251.5 173.8 251.5 173.8H251.6C251.7 173.8 251.8 173.6 251.9 173.7C251.9 173.6 252.1 173.7 252.1 173.5C252.1 173.7 252.3 173.5 252.3 173.5V173.6C252.4 173.6 252.5 173.6 252.4 173.5C252.6 173.5 252.7 173.3 252.8 173.5L253.3 173.1C253.3 173.2 253.1 173.1 253.2 173.3L253.6 173V173.1C253.7 173.1 253.9 173.1 254 172.9C254 172.9 254.1 172.9 254 172.9L254.1 172.7C254.1 172.8 254.3 172.7 254.3 172.9V172.8H254.4L254.6 172.7L255 172.5V172.6H255.1V172.5L255.3 172.4V172.2H255.5L255.7 172.1H255.9L256.2 172C256.2 172 256.1 172 256.2 172.1L256.6 171.8C256.6 171.7 256.7 171.8 256.8 171.8L257.1 171.6H257.4V171.5C257.7 171.6 257.7 171.2 258 171.3H258.1V171.2V171.1V171.2C258.3 171.2 258.1 171 258.3 171C258.4 171 258.3 171 258.3 171.1C258.4 171.1 258.4 170.9 258.5 171C258.5 171.1 258.5 171 258.6 171H258.7C258.7 170.8 258.8 171 258.9 170.8V170.9L259 171L259.1 170.9H259.2C259.2 170.7 259.5 170.9 259.5 170.7L259.7 170.4C259.8 170.5 259.9 170.4 259.9 170.4H260V170.5L260.1 170.3V170.5L260.3 170.3C260.3 170.4 260.2 170.3 260.1 170.3L259.9 170.4V170.3H259.7C259.5 170.3 259.6 170.4 259.5 170.3V170.6L259.3 170.4V170.5C259.2 170.5 259.3 170.5 259.3 170.5C259.1 170.5 259.1 170.7 259 170.5V170.7C259 170.5 259 170.7 258.8 170.7C258.8 170.7 258.9 170.7 258.8 170.6C258.8 170.7 258.7 170.6 258.6 170.6L258.5 170.8H258.2L258 171V170.9H257.9C257.9 170.9 257.8 171.1 257.6 171C257.6 171.1 257.8 171.2 257.7 171.3V171.2C257.6 171.2 257.7 171.2 257.7 171.2H257.6L257.4 171.1C257.4 171.2 257.4 171.1 257.4 171.1L257.3 171.2C257.2 171.2 257 171.2 257.1 171.3C257.1 171.5 256.8 171.3 256.7 171.5L256.5 171.6H256.4H256.2H256.1H256C255.7 171.6 255.7 171.9 255.5 171.7V171.8H255.3L255.2 171.9V172.1C255.1 172.1 255 172.1 255.1 172V171.9H254.9L254.7 172C254.6 172 254.7 172.2 254.7 172.2C254.5 172.2 254.6 172.1 254.5 172.2V172H254.2V172.3H254C254.2 172.3 254 172.2 254.1 172.1C253.9 172.1 254.1 172.2 253.9 172.3C253.9 172.3 253.9 172.2 253.9 172.3C253.9 172.2 253.9 172.3 253.9 172.3L253.7 172.4V172.5H253.5L253.4 172.4H253.2V172.6L253.3 172.5V172.6L253.2 172.7V172.5L252.8 172.7H252.7L252.5 172.8C252.3 172.8 252.3 173 252.2 173V172.8L252 173V173.2C251.8 173 251.6 173.2 251.5 173.2H251.2L251.1 173.4C251 173.4 251.1 173.4 251.1 173.4C251 173.1 250.9 173.4 250.8 173.3L250.6 173.4L250.3 173.6V173.5V173.7L250.1 173.5C249.9 173.5 250 173.7 249.8 173.7C249.8 173.8 249.8 173.7 249.8 173.7H249.7L249.4 173.9L249.6 173.6L249.4 173.7L249.3 173.9C249.3 173.7 249 173.9 248.9 173.8H248.3V174.1H248.1V173.9H247.9C247.9 174.1 247.9 173.9 247.7 174C247.7 174 247.4 174 247.4 174.2V174.1L246.9 174.3H246.8H246.6L246.3 174.5L246 174.4L245.5 174.6H244.9V174.7C244.9 174.7 244.8 174.8 244.7 174.7C244.7 174.6 244.7 174.7 244.5 174.7V174.8C244.3 174.6 244.1 175 243.9 174.8L243.8 174.9H243.4V175.1L243.3 175H242.8C242.8 175 242.5 175 242.6 175.1L242.3 175.2L242.2 175.3H242C242 175.4 241.8 175.3 241.8 175.3L241.7 175.4H241.4H241.6C241.6 175.3 241.5 175.3 241.6 175.2C241.5 175.2 241.4 175.4 241.3 175.3H241.1H241V175.4H241.1V175.6L240.8 175.4C240.7 175.4 240.5 175.4 240.4 175.6V175.5C240.4 175.5 240.2 175.5 240.2 175.7L240.1 175.6C239.8 175.4 239.7 175.9 239.4 175.6V175.7C239.1 175.7 238.8 175.9 238.4 175.7V175.9H238.2C238.1 176 237.9 175.7 237.8 175.9C237.8 175.9 237.6 176 237.6 175.9C237.6 175.9 237.6 176 237.6 175.9H237.4L237.2 175.8C237.2 175.8 237.1 176 237.2 176V176.5L237.3 176.4C237.3 176.5 237.3 176.4 237.4 176.4H237.5C237.6 176.4 237.5 176.4 237.5 176.4H237.9C237.9 176.4 238.1 176.3 238.1 176.4H238.3L238.6 176.3L238.7 176.4L238.8 176.2C238.9 176.2 238.8 176.3 238.8 176.4C238.8 176.4 239 176.3 238.9 176.2L239 176.4L239.1 176.2C239.1 176.2 239.1 176.4 239.2 176.3V176.4ZM254 173H253.9H254ZM255.2 172.3H255.3H255.2Z" fill="#212F51"/>
<path d="M259 170.5H259.2C259.2 170.5 259.1 170.5 259.2 170.4L259 170.5ZM256 172V172.1V172ZM251.5 173C251.6 173 251.5 173 251.5 173V173ZM249.8 173.6H249.7H249.8ZM264.4 207.5L264.5 207.7V207.5H264.4ZM262 209.2H261.9H262ZM262.5 208.7V208.6V208.7ZM248 216V215.9C248 215.9 248 216 248 215.9V216ZM247.5 216.2V216V216.2L247.7 216L248 215.9V215.7V215.9L248.2 215.7C248.2 215.8 248.1 215.7 248.2 215.9H248.1V216H248.3V215.8C248.5 215.6 248.5 216 248.6 215.8C248.6 215.8 248.6 215.6 248.7 215.7V215.8C248.8 215.8 248.7 215.6 248.9 215.7H248.8C248.8 215.8 248.8 215.7 248.8 215.7H248.9L249.3 215.5V215.6H249.8V215.5C249.8 215.5 249.9 215.5 249.8 215.5H249.9C249.9 215.4 249.9 215.5 249.9 215.5C250 215.4 250.2 215.2 250.3 215.3C250.4 215.3 250.3 215.1 250.5 215.2H251C251 215 251.3 215.2 251.2 214.9L251.5 215.1V214.9H251.7C251.7 214.8 251.9 214.9 251.9 214.9L252.1 214.8C252.1 214.8 252.1 215 252.1 214.8H252.3L252.7 214.6V214.5H252.8V214.6H253C253.2 214.6 253.2 214.5 253.3 214.4V214.3H253.7V214.1C253.7 214.1 253.8 214.1 253.7 214.2L254.1 214H254C254.2 213.8 254.6 214 254.7 213.8C254.8 213.7 254.7 213.8 254.8 213.8C254.9 213.6 255.1 213.8 255.1 213.6C255.3 213.8 255.5 213.4 255.7 213.5C255.7 213.4 255.7 213.5 255.7 213.5V213.4C255.9 213.2 256.3 213.2 256.7 213.1C256.7 213.1 256.6 212.8 256.7 212.9C256.9 212.8 257.2 212.8 257.4 212.6C257.4 212.6 257.5 212.6 257.4 212.5H257.6C257.6 212.5 257.6 212.4 257.6 212.5C257.6 212.5 257.8 212.5 257.7 212.4L258 212.3C258 212.2 258.1 212.3 258 212.1H258.3C258.3 212.1 258.4 212.1 258.3 212C258.6 212 258.5 211.8 258.7 212L259.1 211.5C259.1 211.6 258.9 211.6 259 211.7L259.3 211.4V211.5C259.4 211.4 259.6 211.4 259.6 211.2C259.6 211.2 259.7 211.2 259.6 211.2V211C259.6 211.1 259.8 211 259.8 211.2V211.1L260 211V210.9C260.2 210.9 260.2 210.7 260.3 210.6C260.3 210.8 260.4 210.6 260.5 210.8V210.7V210.5H260.7H260.6C260.6 210.5 260.5 210.4 260.6 210.4H260.7V210.3H260.9V210.2H261C261.1 210.2 261 210.2 261 210.1L261.3 210C261.4 210 261.3 210 261.3 210C261.5 210 261.6 209.8 261.7 209.7C261.6 209.6 261.7 209.7 261.8 209.7L262.1 209.4H262.3V209.3C262.5 209.3 262.5 209 262.7 209H262.8C262.7 208.9 262.8 208.8 262.8 208.8V208.9C263 208.9 262.8 208.7 262.8 208.7H262.9C263 208.7 262.9 208.7 262.9 208.7L263.1 208.6C263.1 208.7 263.1 208.7 263.1 208.6H263.3C263.2 208.4 263.3 208.6 263.3 208.4L263.4 208.5H263.6C263.6 208.5 263.6 208.4 263.6 208.5C263.7 208.4 263.6 208.5 263.6 208.4C263.6 208.2 263.9 208.4 263.9 208.1V207.8C264 207.8 263.9 207.9 263.9 207.9H264.1L264.2 207.8H264.3C264.3 207.8 264.4 207.7 264.3 207.6C264.3 207.8 264.3 207.7 264.3 207.6C264.2 207.6 264.3 207.8 264.1 207.8V207.7V207.8C264.1 207.8 264 207.8 264.1 207.8H263.9C263.7 207.8 263.8 207.9 263.7 207.8V208.1L263.6 207.9V208.1C263.5 208.1 263.5 208.3 263.4 208.1V208.2C263.4 208.2 263.4 208.3 263.3 208.2C263.3 208.3 263.1 208.2 263.1 208.2L263 208.5H262.7V208.7C262.7 208.7 262.6 208.7 262.7 208.6H262.6V208.7L262.3 208.8L262.5 209.1V208.9C262.5 208.9 262.5 209 262.4 208.9H262.3H262.2C262.2 209 262.2 208.9 262.1 208.9V209C262.1 209 261.9 209.1 262 209.2C262 209.3 261.7 209.2 261.6 209.4L261.5 209.6H261.4H261.3H261.2H261H261.1V209.7H261C260.8 209.6 260.9 210 260.7 209.8V209.9H260.5V210.3C260.5 210.3 260.3 210.2 260.4 210.1H260.2H260.3L260.1 210.2C260 210.3 260.1 210.4 260.1 210.4H259.9V210.3H259.7C259.7 210.3 259.7 210.4 259.7 210.3V210.6H259.6C259.6 210.6 259.5 210.5 259.6 210.4H259.5C259.4 210.4 259.5 210.6 259.5 210.6H259.3C259.3 210.6 259.4 210.6 259.3 210.6V210.8C259.3 210.9 259.1 210.8 259.1 210.8C259 210.9 258.9 210.8 258.9 210.8V211V210.9V211H259.1L258.9 211.1V211C258.7 211 258.7 211.1 258.6 211.2H258.4V211.3H258.3L258.2 211.5C258.2 211.5 258.1 211.5 258.2 211.4H258.1C258.1 211.4 258.1 211.6 258 211.5V211.7C257.8 211.6 257.7 211.9 257.6 211.7L257.4 211.9L257.3 212.1C257.2 212.1 257.3 212 257.3 212C257.1 211.8 257.1 212 257 212L256.8 212.1L256.7 212.4V212.3C256.6 212.3 256.7 212.3 256.7 212.4H256.5V212.3C256.5 212.2 256.5 212.3 256.4 212.3C256.3 212.3 256.4 212.5 256.2 212.5V212.6L256.1 212.5L255.9 212.7L256 212.5L255.9 212.6L255.8 212.8C255.8 212.6 255.6 212.8 255.4 212.7C255.4 212.8 255.1 212.7 255 212.9V213.1H254.8V212.9H254.6V213C254.6 213.2 254.6 213 254.4 213C254.4 213 254.2 213 254.2 213.3V213.2C254 213.2 253.9 213.5 253.8 213.4H253.7C253.7 213.4 253.7 213.5 253.6 213.4C253.4 213.4 253.4 213.6 253.3 213.7L253.1 213.6C252.9 213.6 252.8 213.8 252.7 213.9H252.1V214.1H251.8C251.6 214.1 251.5 214.4 251.3 214.2V214.4V214.3H250.9V214.6L250.8 214.5H250.4C250.4 214.5 250.1 214.5 250.2 214.7C250.2 214.6 250.1 214.7 250 214.7V214.9H249.9H249.8C249.7 215 249.6 214.9 249.6 214.9L249.5 215H249.2H249.4C249.4 214.9 249.3 214.9 249.4 214.8L249.1 215H249C249 214.9 249 215 248.9 215H249C249 215 249 215.1 249 215V215.2L248.7 215L248.4 215.3V215.2C248.4 215.2 248.2 215.2 248.2 215.4V215.3C247.9 215.1 247.9 215.6 247.6 215.4C247.3 215.4 247.1 215.7 246.8 215.6L246.6 215.7C246.4 215.8 246.3 215.5 246.2 215.7C246.2 215.7 246.1 215.8 246 215.7V215.8H245.9L245.7 215.7C245.7 215.7 245.6 215.9 245.7 215.9V216.4L245.9 216.3C245.9 216.4 245.9 216.3 245.9 216.3H246V216.2H246.1V216.3L246.3 216.2H246.5L246.7 216.3C246.7 216.1 246.9 216.2 246.9 216.1L247 216.2L247.1 216C247.2 216 247.1 216.1 247.1 216.2C247.1 216.2 247.3 216.1 247.2 216L247.3 216.1V216C247.5 216 247.4 216.1 247.5 216V216.2V216.2Z" fill="#212F51"/>
<path d="M264 208C264 208 264.1 208.1 264.1 208H264ZM263.4 208H263.5C263.3 208 263.5 208 263.5 208H263.4ZM261.4 209.5C261.3 209.5 261.4 209.5 261.4 209.5V209.5ZM261.2 210.1H261.3H261.2ZM223.3 154.2H223.6H223.4V154.1V154C223.3 154 223.4 154.1 223.4 154.2H223.3ZM224.3 157.3H224.2H224.3ZM224.5 152.7V152.8V152.7ZM222.6 164.2L222.5 164.4C222.5 164.4 222.7 164.4 222.6 164.2ZM221.3 154.4C221.3 154.4 221.4 154.3 221.3 154.4V154.4ZM226.7 165.9V166V165.9Z" fill="#212F51"/>
<path d="M221.9 153.7C221.8 153.7 221.9 153.7 221.9 153.9H221.7V154.1L221.4 154.4L221.5 154.5V154.6C221.3 154.6 221.5 154.6 221.4 154.5C221.4 154.5 221.4 154.7 221.2 154.8C221.2 154.8 221.3 154.6 221.2 154.6H221.3C221.1 154.6 221.3 154.5 221.2 154.5C221 154.5 221.1 154.6 220.9 154.8H221.1C221 155.1 220.7 154.8 220.7 155.1C220.7 155.2 220.9 155.3 220.7 155.4V155.3C220.5 155.4 220.7 155.4 220.6 155.6V155.4C220.4 155.4 220.6 155.5 220.6 155.6H220.4L220.3 156.2C220.3 156.2 220.3 156.1 220.2 156.2L219.8 156.8V157C219.7 157 219.8 157 219.8 157C219.8 157.2 219.8 157.6 219.6 157.7C219.6 157.8 219.8 157.9 219.6 158C219.6 158.2 219.6 158.6 219.4 158.8C219.6 158.8 219.4 159.1 219.5 159.1L219.4 159.5L219.5 159.7H219.4L219.5 159.8H219.4V160L219.5 159.9V160.4C219.5 160.5 219.4 160.4 219.5 160.6L219.6 160.9C219.6 161.1 219.6 161.3 219.8 161.6C219.8 161.5 219.8 161.4 219.9 161.6C219.9 161.6 219.9 161.5 219.9 161.6H219.8V162L220.1 162.5H220.3C220.3 162.7 220.3 162.9 220.5 163C220.5 163.1 220.5 163 220.6 163V163.2L220.9 163.6V163.5C221 163.5 221 163.5 220.9 163.6C221.2 163.7 221.2 164.3 221.5 164.3L221.7 164.4C221.8 164.4 221.7 164.4 221.7 164.5C221.9 164.5 222 164.8 222.2 164.9C222.2 165.2 222.7 165.2 222.8 165.4L224.2 166.2C224.4 166.2 224.4 166 224.6 166.2H224.5L225 166.3L225.6 166.4H225.9L226 166.5H226.4C226.4 166.5 226.8 166.6 226.6 166.5H226.7V166.3V166.1L226.6 165.7V165.5V165.3V165.2V165C226.6 164.8 226.4 164.7 226.6 164.6C226.484 164.34 226.384 164.073 226.3 163.8C226.4 163.8 226.3 164.1 226.5 164.1L226.3 163.5L226.2 162.9C226.2 162.9 226.2 162.8 226.2 162.9L225.9 162.7C226.1 162.7 225.9 162.5 226.2 162.6H226.1C226.1 162.5 226.1 162.5 226.1 162.6V162.3L226 162.1L225.8 161.6L225.9 161.5V161.4L225.7 161.2V161.1C225.7 161.1 225.6 161.2 225.6 161.1V160.9V160.8L225.5 160.5V160.4V160.3L225.4 159.8C225.4 159.8 225.4 160 225.5 159.8C225.5 159.7 225.2 159.5 225.2 159.3V159L225 158.6V158.3C225 158.3 225 158.2 224.9 158.3C225 157.9 224.6 157.8 224.7 157.4C224.7 157.4 224.7 157.5 224.7 157.4V157.3H224.6H224.5L224.6 157.2L224.4 157.1V156.9C224.4 156.9 224.3 156.9 224.4 156.7V156.5C224.2 156.5 224.3 156.3 224.1 156.2C224.3 156.3 224.1 156.2 224.3 156.2C224.3 156.2 224.3 156.1 224.3 156.2V155.9C224.3 155.9 224.2 155.9 224.3 155.9C224.3 155.8 224.3 155.9 224.2 155.9C224 155.8 224.2 155.5 224 155.4C223.9 155.2 223.7 155.3 223.6 155.1H223.8L223.7 154.9V154.7L223.6 154.6H223.7L223.5 154.4C223.7 154.4 223.5 154.6 223.5 154.6L223.7 154.9H223.5H223.7C223.7 154.9 223.6 155 223.5 154.9C223.5 155.1 223.6 155 223.5 155.1H223.6C223.6 155.1 223.6 155.2 223.6 155.1V155.4C223.8 155.6 223.7 155.4 223.9 155.5L223.7 155.7H223.8C223.8 155.9 224 156 223.8 156.1C224 156.1 223.9 155.9 224 156.1C223.8 156.1 224 156.1 224 156.3C224 156.3 224 156.2 223.9 156.3C224.1 156.3 223.9 156.4 223.9 156.5C224.1 156.5 224.1 156.7 224.2 156.8V157.1L224.3 157.3H224.2V157.4H224.3C224.3 157.6 224.4 157.7 224.3 157.8C224.5 157.8 224.6 157.6 224.7 157.8H224.5V158.2C224.5 158.2 224.5 158.3 224.5 158.2V158.3C224.5 158.3 224.6 158.6 224.7 158.5L224.8 159.1L225 159.4V159.7C224.9 159.7 225 159.7 225 159.7C225 159.7 224.9 159.7 225 159.9C224.9 159.9 225 159.9 225 160C224.8 160.3 225.2 160.4 225 160.7C225.1 160.7 225 160.5 225.2 160.6L225.1 160.8L225.2 161.1H225.4C225.4 161.2 225.4 161.3 225.3 161.2H225.2V161.7H225.4V161.8H225.3V162.1C225.3 162.2 225.4 162.1 225.5 162.1V162.4C225.5 162.2 225.4 162.4 225.4 162.3C225.3 162.5 225.4 162.4 225.5 162.6C225.5 162.6 225.4 162.6 225.5 162.6L225.6 162.8H225.7C225.7 162.9 225.7 162.8 225.7 162.8C225.7 162.9 225.6 163.1 225.7 163.2H225.6V163.5H225.7V163.3H225.8V163.6H225.7V164.1L225.8 164V164.2L225.9 164.4V164.5L226 164.8H225.9V165.1H226C226 165.1 226 165.2 226.1 165.1V165.6C226.1 165.7 226 165.6 225.9 165.6L225.8 165.8V165.7C225.8 165.5 225.8 165.7 225.6 165.5H225.2C225.2 165.6 225 165.5 224.8 165.5L224.7 165.4C224.7 165.3 224.7 165.4 224.6 165.4V165.3H224.2C224.2 165.4 224.2 165.3 224.1 165.3V165.2H223.7L224.1 165.1H223.8H223.5C223.7 164.9 223.3 164.8 223.3 164.6C223 164.6 222.9 164.3 222.7 164.2C222.7 164.4 222.7 164.2 222.5 164.3L222.4 164.1C222.4 164 222.4 164.1 222.4 164.1V163.8V163.9C222.1 163.9 222.4 163.7 222.1 163.7H222.2C222.2 163.7 222 163.4 221.8 163.4C221.8 163.2 221.4 163.1 221.3 162.9V162.8L221.2 162.7C221.2 162.5 221 162.5 220.8 162.3V162C220.8 161.7 220.6 161.6 220.4 161.4V161.1V160.7H220.2C220.2 160.6 220.1 160.5 220.2 160.5C220.3 160.5 220.2 160.4 220.2 160.3H220.1C220.3 160 219.9 159.7 220.1 159.5V159.3V158.9C220.2 158.9 219.9 158.8 220 158.7L220.2 158.1C220.2 158.1 220.4 157.8 220.2 157.8V157.5H220.3L220.2 157.3C220.3 157.3 220.2 157.2 220.2 157.1H220.3V157L220.4 156.8V156.7C220.6 156.6 220.4 156.4 220.6 156.4V156.6H220.7V156.3L220.8 156.2L221 156H220.8V155.9L221.1 155.8V155.3H221.3V155C221.4 155 221.3 155.1 221.5 155C221.8 154.9 221.6 154.4 222 154.3L222.4 153.9L223 153.6L223.1 153.4H223.2C223.3 153.1 223.6 153.4 223.7 153.1C223.7 153.1 223.9 153 223.9 153.1V153L224.1 152.9C224.2 152.9 224.1 153.1 224.3 152.9L224.5 152.8L224.4 152.7C224.4 152.5 224.4 152.3 224.2 152.3L224.1 152.4H224L223.8 152.6V152.4V152.6H223.7L223.5 152.7H223.2V152.9C223.2 152.7 222.9 152.9 222.9 152.9C222.9 153 222.6 153 222.6 153.2H222.4V153.5C222.2 153.5 222.4 153.3 222.2 153.3C222.3 153.3 222.2 153.5 222.2 153.5H222.1V153.6H221.9V153.7ZM220.2 156.4V156.3V156.4ZM226.7 165V165.1V165ZM225.7 161V160.9V161Z" fill="#212F51"/>
<path d="M224 155V154.9H223.9V155H224ZM223.8 155.9V155.7C223.8 155.7 223.8 155.8 223.8 155.7C223.7 155.9 223.8 155.7 223.8 155.9ZM224 156.3H223.9H224ZM225 159.4H224.8H224.9H225ZM225.5 160V159.9V160ZM226 165.5V165.6C226 165.6 225.9 165.5 226 165.6V165.5ZM224.3 165.4V165.3V165.4ZM228.6 191.4V191.5V191.4ZM228.5 191.8H228.7H228.5V191.6V191.8ZM228.9 200V199.9V200ZM228.4 194.2H228.5H228.4ZM226 203C226.1 203.2 226 203 226 203.2C226 203.2 226.1 203.2 226 203.1V203ZM229.1 203V202.9V203ZM225.6 192.7C225.6 192.7 225.7 192.7 225.6 192.7V192.7ZM230 204.2V204.3V204.2Z" fill="#212F51"/>
<path d="M226.3 192C226.2 192.1 226.3 192.2 226.3 192.2C226.2 192.3 226.2 192.2 226.1 192.2L226 192.4C226 192.5 225.7 192.6 225.7 192.8V192.9C225.5 192.9 225.7 192.9 225.7 192.8L225.5 193.1C225.4 193.1 225.5 192.9 225.5 192.9C225.4 192.9 225.6 192.9 225.5 192.8C225.3 192.8 225.3 192.9 225.2 193.1C225.2 193.4 224.9 193.1 224.9 193.4V193.6H224.8L224.7 193.8V193.7C224.5 193.7 224.7 193.8 224.7 193.9H224.5L224.3 194.4H224.2L223.7 195.1V195.2C223.6 195.2 223.7 195.2 223.7 195.3C223.7 195.5 223.6 195.9 223.4 196C223.4 196 223.6 196.2 223.4 196.3C223.3 196.6 223.4 196.9 223.1 197.1L223.2 197.5L223 197.9L223.1 198.1V198.2H223V198.8C223.1 199 223 198.8 223 199H223.1V199.4L223.2 200.1C223.2 200 223.4 200 223.4 200.1C223.4 200.1 223.4 200 223.4 200.1H223.3V200.5L223.6 201H223.8L223.9 201.6H224.1V201.7C224.1 201.9 224.1 202 224.4 202.2V202.1V202.2C224.7 202.4 224.7 202.9 225 203L225.2 203.1C225.2 203.1 225.1 203.1 225.2 203.1L225.6 203.6C225.6 203.9 226.1 204 226.3 204.2L227.7 205C227.9 205.1 228 204.8 228.1 205L228.6 205.2H229.4L229.3 205.3H229.8L229.9 205.4H230.1V205.3V205V204.3C229.9 204.3 230.1 204.1 229.9 204.1C230 204.1 229.9 203.8 229.9 203.7H230L229.9 203.5C230 203.3 229.7 203.2 229.9 203C229.818 202.737 229.751 202.47 229.7 202.2C229.8 202.2 229.7 202.5 229.9 202.5L229.7 201.9V201.2C229.6 201.3 229.4 201.1 229.4 201.1C229.6 201.1 229.4 200.8 229.7 200.9H229.6V200.6L229.5 200.4C229.5 200.2 229.3 200.1 229.4 199.9L229.5 199.8V199.6V199.7C229.5 199.6 229.3 199.5 229.4 199.4V199.3V199.4L229.2 199.3V199.1V198.9H229.3L229.2 198.6V198.4V197.9C229.2 197.9 229.2 198.1 229.3 198L229.1 197.3C228.9 197.3 229.1 197.2 229.1 197.1V196.5V196.2H229C229.2 195.9 228.8 195.6 229 195.3C229 195.3 229 195.4 229 195.3V195.1L228.8 195.2V195.1C228.8 195.2 228.8 195.1 228.9 195.1C228.9 194.9 228.7 195.1 228.8 194.9V194.7C228.8 194.7 228.7 194.6 228.8 194.5V194.4L228.9 194.3C228.6 194.3 228.9 194.1 228.7 193.9C228.8 194.1 228.7 193.9 228.8 193.9H228.9V193.6C228.9 193.5 228.9 193.6 228.9 193.6C228.7 193.5 228.9 193.2 228.7 193L228.5 192.7C228.5 192.6 228.6 192.7 228.6 192.7V192.5V192.3H228.7L228.6 192.1H228.7C228.7 192.1 228.7 191.9 228.5 191.9H228.6V192.1C228.4 192.1 228.6 192.3 228.6 192.4H228.5C228.5 192.5 228.5 192.5 228.5 192.4C228.4 192.6 228.5 192.6 228.5 192.6V192.7H228.4V193C228.4 193.2 228.5 193 228.6 193.2H228.4L228.5 193.3C228.5 193.4 228.5 193.3 228.5 193.3C228.5 193.5 228.6 193.7 228.5 193.7V194C228.5 194 228.5 193.8 228.5 194V194.9L228.6 195.2L228.5 195.1V195.3C228.5 195.3 228.6 195.5 228.5 195.7C228.7 195.7 228.8 195.5 228.9 195.7H228.7V195.8L228.6 195.9V196.3C228.6 196.4 228.6 196.6 228.7 196.5C228.9 196.7 228.7 197 228.7 197.2L228.9 197.5L228.8 197.6V198.1V198V198.2C228.6 198.4 229 198.6 228.8 198.8C228.8 198.8 228.8 198.6 228.9 198.7L228.8 199L228.9 199.3H229.1C229.1 199.5 228.9 199.5 228.9 199.4C228.9 199.4 228.9 199.3 228.9 199.4V199.5C228.9 199.6 228.9 199.5 228.9 199.5V199.9C228.9 200.1 229 199.9 229.1 200.1C229.1 200.1 228.9 200.1 229 200.2C229 200.3 228.9 200.2 228.9 200.2V200.6L228.8 200.5V200.6H229V200.9C229 200.7 229 200.9 228.9 200.8C228.8 201 228.9 200.9 229 201.1C229 201.1 228.9 201.1 229 201.1V201.4L229.1 201.3V201.8C229.1 201.9 228.9 202 229.1 202.1V201.9L229.2 202.1V201.9V202.2H229.1V202.7H229.2V203.2L229.4 203.6L229.2 203.5C229.2 203.6 229.4 203.7 229.3 203.8H229.4C229.4 203.8 229.4 204 229.5 203.9C229.3 204.1 229.5 204.4 229.5 204.5V204.7C229.5 204.8 229.5 204.9 229.4 204.8C229.3 204.8 229.4 204.8 229.4 204.8L229.2 204.6H229.1H228.4L228.3 204.4H227.8C227.7 204.4 227.8 204.3 227.6 204.4V204.2H227.3H227.6L227.4 204.1H227.1C227.2 203.9 226.8 203.8 226.8 203.6C226.6 203.6 226.4 203.3 226.2 203.2C226.2 203.4 226.2 203.2 226 203.2L225.9 203C225.9 202.9 225.9 203 225.9 203C225.9 202.8 226 202.9 225.9 202.8C225.6 202.8 225.9 202.6 225.6 202.6H225.7C225.7 202.6 225.5 202.3 225.3 202.3C225.3 202.1 224.9 201.9 224.8 201.7V201.6L224.7 201.5C224.7 201.2 224.5 201.2 224.3 201.1C224.4 201 224.4 200.8 224.3 200.7H224.4L224 200.1C224 199.9 223.9 199.6 224 199.3H223.8C223.8 199.3 223.7 199.1 223.8 199.1C223.9 199.1 223.8 199 223.8 198.9H223.7C223.9 198.6 223.6 198.2 223.7 198.1V197.9H223.8V197.4H223.9L223.7 197.2H223.8L224 196.6C224 196.6 224.2 196.3 224 196.3L224.1 196V195.7C224.2 195.7 224.1 195.7 224.1 195.5L224.2 195.6V195.4L224.4 195.3V195.1C224.5 195.1 224.4 194.9 224.6 194.8V195L224.7 195.1V194.7H224.8C225 194.7 225 194.5 225 194.5V194.4H224.9V194.6C224.8 194.6 224.8 194.5 224.9 194.4L224.8 194.3H225.2L225.4 193.7L225.6 193.5C225.6 193.5 225.6 193.6 225.7 193.5C226.1 193.4 225.9 192.9 226.4 192.8C226.7 192.7 227 192.2 227.4 192.2C227.6 192.2 227.6 192.2 227.6 192V192.1L227.8 192C227.9 191.8 228.1 192 228.3 191.9V191.8H228.7C228.8 191.8 228.7 191.9 228.7 192H228.9V191.8H229.3V191.5H229.1V191.3L229.3 191.4H229V191.2L228.7 191.3C228.7 191.3 228.8 191.3 228.7 191.2V191.4C228.6 191.4 228.6 191.3 228.5 191.4V191.2L228.3 191.4H228L227.9 191.5C227.9 191.3 227.6 191.6 227.6 191.5L227.2 191.8H227C227.1 191.8 227 191.9 227 192C226.8 192 227 191.9 226.9 191.8C226.9 191.8 226.8 192 226.9 192H226.7L226.6 192.1H226.4L226.3 192ZM224.2 194.7V194.6V194.7ZM229.3 199.3V199.2V199.3ZM228.8 192.8V192.6V192.8Z" fill="#212F51"/>
<path d="M228.5 193.6V193.4C228.5 193.4 228.4 193.5 228.4 193.4C228.3 193.6 228.4 193.4 228.4 193.6H228.5ZM228.5 194H228.4C228.4 194.1 228.4 194.1 228.4 194H228.5ZM228.8 197.5H228.7C228.7 197.6 228.7 197.5 228.7 197.5H228.8ZM229.3 198.2V198.1V198.2ZM229.3 204.4H229.4C229.4 204.4 229.3 204.4 229.4 204.4H229.3ZM227.9 204.3L227.8 204.2L227.9 204.3ZM234.9 231.8H234.7L234.5 231.7L234.7 231.8H234.9ZM234.8 231.5L235.1 231.4H234.8H234.6V231.5L234.9 231.4L234.8 231.5ZM235.3 232V231.9V232ZM235.3 233.6H235.4H235.3ZM233.2 241.7C233.2 241.7 233 241.7 233.1 241.8C233.1 241.8 233.2 241.8 233.1 241.7H233.2ZM232.1 232.4H232.2H232.1ZM237.8 242H237.7H237.8ZM237.4 242.4H237.3H237.4Z" fill="#212F51"/>
<path d="M232.7 231.7C232.6 231.8 232.7 231.9 232.7 231.9C232.7 232.1 232.7 231.9 232.6 231.9L232.5 232.2C232.5 232.2 232.2 232.3 232.3 232.5V232.6C232.1 232.6 232.3 232.6 232.3 232.6L232.1 232.8C232 232.8 232.1 232.6 232.1 232.7V232.6C231.9 232.6 232.2 232.6 232 232.5C231.9 232.6 232 232.7 231.8 232.8V232.9C231.8 233.2 231.6 232.9 231.6 233.1V233.4L231.5 233.3C231.4 233.3 231.5 233.4 231.5 233.5C231.4 233.5 231.5 233.4 231.5 233.5H231.3L231.1 234.1L230.6 234.7L230.7 234.9C230.6 234.9 230.7 234.9 230.7 234.9C230.7 235.1 230.7 235.4 230.5 235.6C230.5 235.6 230.6 235.7 230.5 235.8C230.4 236.1 230.5 236.4 230.3 236.6V236.9L230.2 237.3L230.3 237.4V238.1C230.3 238.2 230.2 238.1 230.3 238.2V238.6L230.5 239.2C230.5 239.2 230.6 239.1 230.6 239.2V239.3H230.5V239.6L230.8 240H231L231.1 240.5C231.1 240.6 231.1 240.5 231.3 240.5L231.2 240.7L231.5 241C231.6 241 231.6 241 231.5 241C231.8 241.2 231.8 241.7 232.1 241.8H232.3V241.9L232.8 242.3C232.8 242.5 233.3 242.5 233.4 242.7H233.5L234.9 243.2C235.1 243.2 235.1 242.9 235.3 243V243.1C235.6 243 236 243.1 236.3 242.9C236.3 242.9 236.6 242.9 236.5 242.8H236.6C236.7 242.8 236.8 242.7 236.8 242.8C236.8 242.8 237 242.7 236.9 242.6L237.3 242.4C237.3 242.3 237.5 242.3 237.4 242.1C237.5 242.3 237.7 242.1 237.7 241.9C237.8 241.9 237.8 241.7 237.7 241.7C238 241.6 237.7 241.3 238 241.2L237.9 240.4C238 240.4 237.9 240.7 238.1 240.7L237.9 240L237.8 239.5C237.8 239.5 237.8 239.4 237.8 239.5L237.5 239.3C237.7 239.3 237.5 239.1 237.7 239.2C237.7 239.2 237.7 239.1 237.7 239.2C237.7 239 237.6 239.1 237.5 238.9H237.6L237.5 238.7L237.3 238.3C237.4 238.3 237.3 238.3 237.3 238.2V238.1C237.3 238.1 237.1 238 237.2 237.9V237.8V237.9H237V237.7V237.5L236.9 237.3V237.2V237.1L236.7 236.7C236.8 236.6 236.7 236.7 236.8 236.7L236.5 236.1C236.4 236.2 236.5 236.1 236.5 235.9L236.3 235.5V235.2H236.2C236.4 234.9 235.9 234.7 236 234.4C236 234.4 236.1 234.4 236 234.4V234.3H235.8L235.9 234.2C235.9 234.1 235.7 234.2 235.8 234.1L235.7 233.9H235.8C235.8 233.9 235.6 233.9 235.7 233.7V233.8C235.8 233.8 235.7 233.8 235.7 233.7V233.5C235.5 233.5 235.7 233.4 235.5 233.3H235.7V233.2V233C235.7 233 235.6 233 235.7 233C235.7 232.8 235.7 233 235.6 233C235.4 232.9 235.6 232.6 235.4 232.5L235.1 232.2H235.2V232V231.9L235.1 231.7H235.2L235 231.5C235.2 231.6 235.1 231.7 235 231.7L235.1 232C235.1 232 235.1 232.1 235.1 232C235 232.1 235.1 232.1 235.1 232.2C235.1 232.2 235 232.3 235 232.2C235 232.4 235.2 232.4 235 232.5C235.2 232.7 235.2 232.5 235.3 232.6L235.1 232.8H235.3V233.1C235.3 233.1 235.5 233.2 235.4 233.3H235.3V233.6C235.5 233.6 235.5 233.6 235.5 233.8V234.2L235.7 234.3H235.6V234.4C235.6 234.6 235.8 234.6 235.7 234.8C235.8 234.8 235.9 234.6 236 234.8H235.9V234.9L235.8 235C235.9 235.1 235.8 235.1 235.8 235.2H235.9V235.3L236 235.5C236.2 235.5 236.1 235.8 236.2 236C236.2 236 236.2 236.2 236.4 236.3H236.3V237V236.9L236.4 237C236.3 237.3 236.6 237.4 236.4 237.6C236.6 237.6 236.5 237.4 236.6 237.5V237.7L236.7 238C236.7 238 236.8 237.9 236.9 238C236.9 238 236.8 238.2 236.7 238.1C236.7 238.1 236.7 238 236.7 238.1V238.2C236.7 238.3 236.7 238.2 236.7 238.2L236.8 238.5C236.8 238.7 236.9 238.5 237 238.7C237 238.7 236.9 238.7 237 238.7C237 238.9 236.9 238.8 236.8 238.8V239.1H236.9C236.9 239.2 237 239.1 237.1 239.1V239.3C237.1 239.2 237 239.3 236.9 239.3C236.9 239.5 237.1 239.3 237.1 239.5V239.6L237.2 239.8V239.7L237.3 239.8V240.1H237.2V240.4H237.4L237.3 240.2L237.4 240.3V240.2C237.4 240.2 237.5 240.3 237.4 240.4H237.3V240.9L237.4 240.8V241C237.4 241 237.3 241.1 237.4 241.2C237.2 241.3 237.4 241.4 237.4 241.5H237.2V241.7C237 241.7 237 242.1 236.8 242L236.5 242.2L236.4 242.3C236.3 242.3 236.4 242.3 236.4 242.3C236.3 242.1 236.2 242.3 236.1 242.3H235.8L235.5 242.5V242.4L235.4 242.6L235.3 242.4C235.3 242.3 235.3 242.4 235.2 242.4H234.8C234.8 242.6 234.8 242.4 234.7 242.4H234.3L234.6 242.3H234.4C234.4 242.3 234.3 242.4 234.2 242.3C234.2 242.2 233.9 242.3 233.9 242C233.6 242 233.5 241.8 233.3 241.7C233.3 241.9 233.3 241.7 233.1 241.9V241.8L233 241.6V241.4V241.5C232.7 241.5 233 241.3 232.7 241.3H232.8C232.8 241.3 232.6 241 232.4 241.1C232.4 241.1 232.4 241 232.4 241.1C232.4 240.9 232 240.8 232 240.6V240.5L231.8 240.4H231.9C231.9 240.2 231.6 240.2 231.5 240V239.7H231.6C231.6 239.5 231.3 239.4 231.2 239.2C231.3 239 231.2 238.7 231.2 238.4H231V238.3C231.2 238.3 231.1 238.1 231.1 238.1H230.9C231.1 237.8 230.8 237.5 231 237.3V237.2V236.8H231.1L230.9 236.6L231.1 236C231.1 236 231.3 235.8 231.1 235.7V235.4H231.2V235.2V235.1V235C231.2 234.9 231.2 234.8 231.4 234.8C231.4 234.8 231.3 234.8 231.4 234.7V234.4H231.5V234.6H231.6V234.3L231.7 234.2L231.9 234.1L231.7 234V233.9H232V233.3H232.2V233.1C232.3 233.1 232.2 233.2 232.3 233.1C232.7 233.1 232.5 232.5 232.9 232.5C233.2 232.3 233.4 231.9 233.8 231.8L233.9 231.6V231.7L234 231.6C234.1 231.4 234.4 231.6 234.5 231.4C234.5 231.4 234.7 231.2 234.7 231.4V231.3L234.9 231.2C235 231.2 234.9 231.4 235.1 231.3L235.2 231.1V231C235.2 230.9 235.2 230.7 235 230.7H234.7V230.9L234.6 230.7V230.9H234.5H234.3C234.3 230.9 234.1 231.1 234.1 230.9L234 231.1C234 230.9 233.8 231.2 233.7 231.1L233.4 231.4H233.2V231.7L233.1 231.5C233.1 231.5 233 231.6 233.1 231.7H232.9C233 231.7 232.9 231.7 232.9 231.8H232.7V231.7ZM235.8 233.7V233.6V233.7ZM235.1 231.4V231.5V231.4ZM235.4 232.2V232.1V232.2Z" fill="#212F51"/>
<path d="M235.2 233V232.9C235.1 233.1 235.2 232.9 235.2 233ZM235.3 233.4C235.3 233.5 235.3 233.5 235.3 233.4V233.4ZM236.3 236.4H236.2H236.3ZM236.4 237.3V237.4V237.3ZM236.8 241.9C236.8 241.9 236.8 241.8 236.8 241.9V241.9ZM234.9 242.4H234.8H234.9Z" fill="#212F51"/>
<path d="M199 77L198.9 77.2V77.1H199V77ZM196 76.8999H195.9H196ZM198.4 77V76.8999V77ZM187.8 76.7C187.8 76.7 187.7 76.7999 187.8 76.8999V76.7ZM180.3 77.5C180.3 77.5 180.2 77.5 180.3 77.5V77.5ZM191.3 77.5H191.2H191.3ZM191 77.5H190.9H191Z" fill="white"/>
<path d="M179.7 77.6001V77.4001L179.8 77.6001C179.8 77.6001 179.9 77.4001 180 77.5001L180.2 77.4001V77.2001H180.3V77.3001H180.5C180.5 77.4001 180.3 77.3001 180.5 77.4001H180.3V77.5001H180.6V77.4001C180.8 77.3001 180.7 77.6001 180.9 77.4001C180.9 77.4001 180.9 77.3001 180.9 77.4001H181.1C181.1 77.5001 181.1 77.4001 181.1 77.4001H181.6L182.1 77.5001H182.2C182.2 77.4001 182.2 77.5001 182.2 77.5001C182.3 77.5001 182.6 77.3001 182.7 77.5001L182.8 77.3001L183.4 77.4001C183.4 77.4001 183.6 77.5001 183.6 77.4001L183.8 77.5001L184 77.4001H184.1L184.3 77.5001H184.4C184.4 77.4001 184.4 77.5001 184.5 77.5001H185.2C185.1 77.5001 185.2 77.4001 185.2 77.3001V77.5001C185.2 77.5001 185.4 77.6001 185.4 77.5001H185.7L185.8 77.4001H186.2C186.2 77.4001 186.3 77.4001 186.2 77.4001H186.6V77.3001C186.8 77.3001 187.1 77.6001 187.2 77.4001H187.3C187.4 77.4001 187.3 77.4001 187.3 77.4001H187.8C187.8 77.6001 188.1 77.4001 188.3 77.5001H189.3C189.4 77.5001 189.3 77.3001 189.5 77.4001V77.5001L190.2 77.4001C190.2 77.5001 190.3 77.4001 190.3 77.4001C190.4 77.5001 190.5 77.4001 190.5 77.4001H191.4C191.4 77.5001 191.6 77.2001 191.7 77.4001L192.2 77.3001L192 77.4001L192.4 77.3001C192.5 77.3001 192.7 77.4001 192.8 77.3001L192.9 77.1001C192.9 77.3001 193.1 77.1001 193 77.4001V77.3001H193.4C193.4 77.3001 193.6 77.1001 193.7 77.2001V77.3001H193.9L194 77.2001C194 77.2001 194 77.0001 194.1 77.1001H194.3V77.2001H194.5C194.7 77.2001 194.5 77.1001 194.7 77.2001H195.4C195.4 77.0001 195.4 77.2001 195.5 77.2001H196.1V77.1001C196.3 77.3001 196.5 77.0001 196.6 77.1001V77.2001H196.7V77.1001V77.0001L196.8 77.1001C196.9 77.2001 196.8 76.9001 196.9 77.1001L197.1 77.0001V77.1001C197.1 77.1001 197.1 76.9001 197.1 77.1001H197.2L197.3 77.2001C197.3 77.0001 197.4 77.2001 197.5 77.0001V77.2001C197.6 77.2001 197.6 77.3001 197.7 77.2001C197.8 77.2001 197.7 77.2001 197.7 77.2001C197.8 77.1001 198 77.3001 198.1 77.2001L198.3 77.0001C198.3 77.1001 198.4 77.1001 198.5 77.0001V77.2001L198.7 77.1001V77.2001L198.8 77.1001H198.7C198.7 76.9001 198.6 77.1001 198.5 77.1001V76.9001V77.0001L198.4 76.9001H198.3C198.3 76.8001 198.2 76.9001 198.1 76.9001V77.0001L198 76.8001L197.9 76.9001H197.7C197.7 76.8001 197.6 76.9001 197.5 76.9001C197.5 76.9001 197.6 76.9001 197.5 76.8001C197.5 76.9001 197.5 76.8001 197.4 76.8001H197.2H196.9H196.8H196.7H196.4C196.4 76.8001 196.5 77.0001 196.4 77.0001V76.9001V76.8001H196.3L196.2 76.7001H196.1L195.9 76.8001C195.9 76.9001 195.7 76.8001 195.5 76.8001H195.3H195.1C195.1 76.8001 195.1 76.7001 195 76.8001L194.9 76.7001C194.7 76.5001 194.6 76.9001 194.5 76.7001H194.3C194.3 76.6001 194.3 76.7001 194.1 76.7001V76.9001C194.1 76.9001 194 76.8001 194.1 76.7001H193.7V76.8001C193.6 76.8001 193.7 76.7001 193.5 76.8001V76.6001H193.3V76.7001H193.1L193.2 76.6001C193 76.5001 193.1 76.6001 193 76.6001L192.8 76.7001V76.8001C192.8 76.8001 192.7 76.7001 192.6 76.8001V76.6001H192.4V76.7001H192.5V76.8001C192.5 76.8001 192.4 76.9001 192.3 76.8001V76.6001C192.2 76.6001 192.1 76.7001 191.9 76.6001V76.7001C191.9 76.8001 191.9 76.7001 191.9 76.7001H191.7C191.5 76.7001 191.5 76.9001 191.4 76.8001V76.7001C191.4 76.7001 191.3 76.8001 191.2 76.7001V76.9001C191.1 76.7001 190.9 76.9001 190.8 76.8001H190.5C190.5 76.8001 190.5 77.0001 190.3 76.8001C190.3 76.8001 190.4 76.8001 190.3 76.8001C190.3 76.6001 190.3 76.8001 190.1 76.8001V76.7001H189.9L189.7 76.9001V76.8001L189.6 76.9001V76.8001C189.6 76.6001 189.5 76.8001 189.4 76.8001V76.7001L189.2 76.8001C189.2 77.0001 189.2 76.8001 189.1 76.8001L188.8 76.9001L189 76.7001H188.9C188.9 76.9001 188.8 76.9001 188.7 76.9001C188.7 76.7001 188.5 76.9001 188.4 76.7001H187.9V76.8001H187.5V76.6001H187.4C187.4 76.8001 187.4 76.6001 187.2 76.6001L186.9 76.7001C186.8 76.6001 186.6 76.7001 186.5 76.7001H186.4H186.3C186.1 76.6001 186 76.7001 185.9 76.8001L185.7 76.6001L185.2 76.7001L184.7 76.6001V76.7001C184.7 76.7001 184.5 76.8001 184.6 76.7001L184.4 76.6001V76.8001C184.2 76.5001 183.9 76.8001 183.8 76.6001L183.7 76.7001H183.4V76.6001C183.4 76.6001 183.4 76.8001 183.2 76.8001V76.7001C183.1 76.7001 182.9 76.6001 182.8 76.7001C182.8 76.7001 182.6 76.6001 182.6 76.7001H182.4L182.2 76.9001C182.2 76.9001 182.2 76.8001 182.2 76.9001C182.2 76.8001 182.2 76.9001 182.2 76.9001V76.8001H182C182 76.9001 182 76.8001 181.9 76.8001C181.9 76.8001 181.9 76.9001 181.9 76.8001C181.8 76.8001 181.9 76.8001 181.9 76.8001H181.6H181.7V76.6001L181.5 76.7001H181.4H181.2V76.8001V77.0001C181.2 76.8001 181 76.8001 181 76.7001C181 76.7001 180.7 76.7001 180.7 76.9001V76.8001L180.5 76.9001H180.4V76.8001C180.2 76.6001 180.1 77.1001 179.8 76.8001V76.9001C179.5 76.8001 179.2 77.0001 179 76.9001H178.8C178.6 77.0001 178.5 76.7001 178.4 76.9001H178V76.8001L177.8 76.9001V77.4001H178.6C178.6 77.5001 178.8 77.4001 178.7 77.5001L179 77.4001L179.1 77.5001L179.3 77.3001L179.4 77.5001V77.4001C179.6 77.4001 179.5 77.5001 179.6 77.4001V77.6001H179.7ZM198.3 77.2001C198.3 77.2001 198.3 77.3001 198.3 77.2001C198.3 77.3001 198.3 77.2001 198.3 77.2001Z" fill="white"/>
<path d="M197.8 76.8999V76.8C197.8 76.7 197.9 76.8 197.8 76.8V76.8999ZM190.8 76.7V76.8C190.8 76.8 190.8 76.7 190.8 76.8V76.7Z" fill="white"/>
<path d="M92.7998 85.6999H92.9998L92.7998 85.5999V85.4999V85.3999V85.5999V85.6999ZM93.6998 93.9999V93.8999V93.9999ZM93.7998 90.3999V90.4999V90.3999ZM92.0998 103.4C92.1998 103.3 92.0998 103.6 92.2998 103.4C92.2998 103.4 92.1998 103.3 92.0998 103.4ZM88.7998 115.2C88.7998 115.2 88.7998 115.3 88.7998 115.2V115.2ZM93.9998 98.5999H93.8998H93.9998Z" fill="#212F51"/>
<path d="M88.6002 116.1L88.4002 115.9C88.4002 115.8 88.5002 115.9 88.6002 115.9V115.6C88.6002 115.5 88.8002 115.3 88.7002 115.2C88.7002 115.1 88.6002 115 88.7002 115C88.8002 115 88.7002 115.1 88.7002 115.1L88.8002 114.8C88.9002 114.8 88.8002 115 88.9002 114.9L88.8002 115H89.0002L89.1002 114.7L89.0002 114.6C89.0002 114.3 89.3002 114.6 89.3002 114.3C89.3002 114.2 89.1002 114.1 89.3002 114V113.8V113.9C89.5002 113.9 89.3002 113.9 89.3002 113.7H89.5002L89.6002 113.1C89.6002 113.1 89.6002 113.2 89.7002 113.1L90.1002 112.4V112.3V112.2C90.1002 112 90.1002 111.6 90.3002 111.5V111.2C90.5002 111 90.5002 110.6 90.8002 110.4C90.7002 110.4 90.9002 110.1 90.8002 110L91.1002 109.7L91.0002 109.5V109.4H91.2002V109.3H91.1002L91.3002 109.1V108.7V108.9L91.4002 108.7V108.3H91.5002L91.7002 107.7H91.6002V107.6C91.6002 107.5 91.7002 107.6 91.7002 107.6V107.5L91.9002 107.3L92.0002 106.7V106.6L92.2002 106.1L92.1002 106C92.1002 106 92.1002 105.8 92.2002 106V105.4H92.3002C92.3002 105 92.7002 104.7 92.6002 104.4V104.2C92.6002 104.1 92.6002 104.2 92.7002 104.2V103.6C93.1002 103.4 92.9002 102.9 93.1002 102.8V102.6C93.1002 102.6 93.1002 102.7 93.1002 102.6C93.1002 102.1 93.4002 101.6 93.5002 101.1C93.5002 100.9 93.3002 101 93.5002 100.8C93.5002 100.4 93.7002 100.1 93.6002 99.7C93.8002 99.7 93.7002 99.5 93.6002 99.4H93.8002V99.2V99V98.6001V98.3C93.9002 98.3 94.0002 98.1 93.9002 98H94.0002V97.8V97.3V96.4C94.2002 96.4 94.0002 96.7 94.2002 96.8C94.2002 96.5 94.0002 96.3001 94.1002 96.1001C94.1002 96.0001 94.1002 96.1001 94.1002 96.1001V95.4H94.2002L94.0002 95.2C94.1002 95.2 94.0002 95.0001 94.3002 95.1001H94.2002C94.2002 95.0001 94.2002 95.0001 94.2002 95.1001V94.8V94.5V94L94.3002 93.9V93.7C94.3002 93.7 94.1002 93.6 94.2002 93.5V93.4H94.1002V93.2V93H94.2002V92.6001C94.2002 92.4001 94.1002 92.6 94.2002 92.4V91.9V91.3C94.0002 91.3 94.2002 91.1 94.2002 91C94.2002 90.9 94.2002 90.7 94.0002 90.5C94.1002 90.5 94.0002 90.3001 94.0002 90.1001C94.2002 89.8001 93.8002 89.5 94.0002 89.2V89L93.8002 89.1001V89V88.9C93.9002 88.8 93.6002 88.9 93.8002 88.7L93.6002 88.5L93.8002 88.6001L93.6002 88.3L93.7002 88.5V88.1001C93.5002 88.1001 93.7002 87.9 93.5002 87.8C93.6002 87.9 93.5002 87.8 93.7002 87.8V87.7V87.5C93.7002 87.5 93.6002 87.4 93.7002 87.4C93.7002 87.3 93.7002 87.4 93.6002 87.4C93.4002 87.3 93.6002 87 93.4002 86.8L93.1002 86.5H93.2002V86.3L93.1002 86.1001H93.2002L93.0002 85.9H93.2002L92.9002 85.8H93.0002C93.1002 85.8 93.0002 85.9 93.0002 85.9C92.8002 86 93.0002 86.1 93.1002 86.2H93.0002L93.1002 86.3C93.1002 86.3 93.1002 86.4 93.0002 86.3V86.5C93.0002 86.5 93.0002 86.6 93.0002 86.5C93.0002 86.8 93.2002 86.8 93.0002 86.9C93.2002 87.1 93.2002 86.9 93.3002 86.9L93.1002 87.2H93.3002C93.3002 87.4 93.4002 87.5001 93.3002 87.6001C93.3002 87.6001 93.3002 87.5001 93.3002 87.6001C93.3002 87.6001 93.5002 87.7 93.4002 87.8C93.4002 87.8 93.4002 87.7 93.3002 87.8V88.1001C93.5002 88.1001 93.4002 88.3 93.5002 88.4V88.8L93.6002 89H93.5002V89.2L93.6002 89.6001C93.6002 89.6001 93.8002 89.4001 93.9002 89.6001H93.7002V89.7L93.6002 89.8C93.7002 90 93.6002 89.9 93.6002 90C93.7002 90.1 93.6002 90.1 93.6002 90.2C93.6002 90.2 93.6002 90.5 93.8002 90.4V91L93.9002 91.4V91.7L93.8002 91.6001V92.1001H93.7002C93.6002 92.4001 93.9002 92.6 93.7002 92.7C93.7002 92.8 93.7002 92.7 93.8002 92.7L93.7002 92.9C93.7002 93.1 93.8002 93.1 93.7002 93.3H94.0002C94.0002 93.5 93.8002 93.5 93.8002 93.4C93.8002 93.4 93.8002 93.3 93.8002 93.4C93.8002 93.4 93.8002 93.6 93.7002 93.5C93.7002 93.6 93.7002 93.5 93.7002 93.5V93.9L93.8002 94.1001C93.8002 94.2001 93.7002 94.1 93.8002 94.2C93.7002 94.3 93.6002 94.2 93.6002 94.2V94.6001L93.5002 94.5V94.6001L93.7002 94.7V94.9C93.7002 94.7 93.5002 94.9 93.5002 94.8V95.1001L93.6002 95.2V95.4L93.7002 95.5C93.7002 95.5 93.5002 95.7 93.6002 95.8H93.5002V96.1001V95.9L93.6002 96.1001V95.9H93.7002C93.6002 96 93.7002 96.2 93.7002 96.3H93.5002V96.8V96.7V96.9H93.4002V97.7C93.4002 97.7 93.3002 97.7 93.4002 97.7V98.1001C93.4002 98.1001 93.4002 98.2001 93.4002 98.1001C93.3002 98.3001 93.4002 98.7 93.2002 98.8V99.2V99.5C93.2002 99.5 93.2002 99.4 93.2002 99.5C93.0002 99.4 93.2002 99.6 93.0002 99.7V100.6L92.9002 100.8V100.8H92.8002V101.2C93.0002 101.2 92.8002 101.2 92.8002 101.3V101.8L92.6002 101.4V101.6L92.7002 102C92.5002 101.9 92.6002 102.3 92.4002 102.4L92.2002 103.2C92.4002 103.2 92.2002 103.2 92.3002 103.3V103.4L92.1002 103.6V103.5C92.1002 103.7 92.0002 103.5 91.9002 103.6V103.8L92.1002 103.7C92.1002 103.9 91.9002 103.8 91.9002 104.1V104V104.5H91.8002L91.7002 105.3V105.4H91.6002V105.6C91.4002 105.8 91.6002 106 91.6002 106.2L91.2002 106.4V107.2C91.0002 107.3 90.9002 107.8 90.8002 108V108.2L90.6002 108.5H90.8002C90.4002 108.7 90.6002 109.2 90.4002 109.3V109.5H90.3002L90.1002 110C90.1002 110 90.3002 110.2 90.2002 110.3H90.1002C90.0002 110.5 89.8002 110.6 89.8002 110.9C89.8002 110.9 89.6002 111.2 89.8002 111.2L89.7002 111.5H89.6002V112C89.5002 112 89.6002 112 89.6002 112.1L89.4002 112.3V112.5C89.3002 112.5 89.4002 112.7 89.2002 112.8V112.6H89.1002V113H89.0002L88.9002 113.3H89.0002V113.1V113.3L89.1002 113.4C89.0002 113.4 88.9002 113.6 88.8002 113.5C88.8002 113.7 88.6002 114 88.8002 114.1C88.8002 114.2 88.7002 114.1 88.6002 114.1V114.5C88.6002 114.5 88.6002 114.4 88.5002 114.5C88.2002 114.8 88.5002 115.2 88.1002 115.5C88.1002 115.5 88.1002 115.4 88.1002 115.5C87.9002 115.8 87.9002 116.3 87.5002 116.7V116.9H87.4002V117.1C87.4002 117.3 87.1002 117.3 87.1002 117.5V117.8H87.0002V118C86.9002 118.2 86.8002 118 86.7002 118.1V118.4H86.9002C86.9002 118.5 87.1002 118.7 87.2002 118.5V118.3H87.3002H87.4002V118.1V117.9H87.5002C87.5002 117.9 87.6002 117.9 87.5002 117.7C87.7002 117.7 87.6002 117.5 87.8002 117.6V117.4C87.8002 117.6 87.8002 117.2 88.0002 117.3V116.8C88.0002 116.8 88.1002 116.8 88.0002 116.8L88.2002 116.7V116.4L88.3002 116.5V116.3H88.4002C88.3002 116.3 88.4002 116.3 88.4002 116.1L88.5002 116V116.1H88.6002ZM93.9002 89V88.9V89ZM93.8002 88.3V88.2V88.3ZM94.2002 95.4C94.2002 95.5 94.2002 95.4 94.2002 95.4V95.4ZM94.1002 93.2C94.1002 93.2 94.2002 93.2 94.1002 93.2V93.2ZM93.4002 86.6001V86.4V86.6001Z" fill="#212F51"/>
<path d="M93.2002 87.5V87.3C93.2002 87.3 93.2002 87.4 93.2002 87.3C93.1002 87.5 93.2002 87.3 93.2002 87.5ZM93.3002 88C93.3002 87.9 93.3002 88 93.3002 88V88ZM94.2002 92.2V92.1001V92.2ZM93.1002 98.6001H93.2002C93.2002 98.6001 93.2002 98.5001 93.2002 98.6001H93.1002ZM92.8002 101.1L92.7002 101.3V101.1H92.8002Z" fill="#212F51"/>
</svg>
