<svg width="384" height="557" viewBox="0 0 384 557" fill="none" xmlns="http://www.w3.org/2000/svg">
<path d="M0 533C0 519.745 10.7452 509 24 509H360C373.255 509 384 519.745 384 533C384 546.255 373.255 557 360 557H24C10.7452 557 0 546.255 0 533Z" fill="#001133" fill-opacity="0.05"/>
<rect y="39" width="384" height="72" rx="8" fill="#001133" fill-opacity="0.05"/>
<rect y="246" width="184" height="48" rx="4" fill="#001133" fill-opacity="0.05"/>
<rect y="310" width="381" height="23" rx="11.5" fill="#001133" fill-opacity="0.05"/>
<rect y="388" width="381" height="23" rx="11.5" fill="#001133" fill-opacity="0.05"/>
<rect y="349" width="381" height="23" rx="11.5" fill="#001133" fill-opacity="0.05"/>
<rect y="427" width="381" height="23" rx="11.5" fill="#001133" fill-opacity="0.05"/>
<rect x="200" y="246" width="184" height="48" rx="4" fill="#001133" fill-opacity="0.05"/>
<rect y="127" width="384" height="72" rx="8" fill="#001133" fill-opacity="0.05"/>
<rect width="276" height="23" rx="11.5" fill="#001133" fill-opacity="0.05"/>
<rect y="215" width="130" height="23" rx="11.5" fill="#001133" fill-opacity="0.05"/>
<rect x="200" y="215" width="129" height="23" rx="11.5" fill="#001133" fill-opacity="0.05"/>
<circle cx="12" cy="441" r="3" fill="#001133" fill-opacity="0.05"/>
</svg>
