<svg width="136" height="24" viewBox="0 0 136 24" fill="none" xmlns="http://www.w3.org/2000/svg">
<path fill-rule="evenodd" clip-rule="evenodd" d="M12.0009 1.5L8.58844 8.415L0.960938 9.5175L6.48094 14.9025L5.17594 22.5L12.0009 18.915L18.8259 22.5L17.5209 14.9025L23.0409 9.525L15.4134 8.415L12.0009 1.5Z" fill="#FFBB00"/>
<path fill-rule="evenodd" clip-rule="evenodd" d="M40.0009 1.5L36.5884 8.415L28.9609 9.5175L34.4809 14.9025L33.1759 22.5L40.0009 18.915L46.8259 22.5L45.5209 14.9025L51.0409 9.525L43.4134 8.415L40.0009 1.5Z" fill="#FFBB00"/>
<path fill-rule="evenodd" clip-rule="evenodd" d="M68.0009 1.5L64.5884 8.415L56.9609 9.5175L62.4809 14.9025L61.1759 22.5L68.0009 18.915L74.8259 22.5L73.5209 14.9025L79.0409 9.525L71.4134 8.415L68.0009 1.5Z" fill="#FFBB00"/>
<path fill-rule="evenodd" clip-rule="evenodd" d="M96.0009 1.5L92.5884 8.415L84.9609 9.5175L90.4809 14.9025L89.1759 22.5L96.0009 18.915L102.826 22.5L101.521 14.9025L107.041 9.525L99.4134 8.415L96.0009 1.5Z" fill="#FFBB00"/>
<path fill-rule="evenodd" clip-rule="evenodd" d="M124.04 1.5L120.628 8.415L113 9.5175L118.52 14.9025L117.215 22.5L124.04 18.915L130.865 22.5L129.56 14.9025L135.08 9.525L127.452 8.415L124.04 1.5Z" fill="#FFBB00"/>
</svg>
