<svg width="192" height="192" viewBox="0 0 192 192" fill="none" xmlns="http://www.w3.org/2000/svg">
<g clip-path="url(#clip0)">
<path fill-rule="evenodd" clip-rule="evenodd" d="M115.083 11.3884C137.963 20.1406 150.134 40.9798 157.833 60.6623C164.694 78.2043 166.284 97.5633 153.793 110.352C142.533 121.874 119.593 114.683 101.614 118.207C71.7735 124.06 43.09 156.047 17.5297 137.07C-7.54973 118.446 24.8209 90.3777 30.9508 65.7432C35.1983 48.6619 31.1562 28.589 47.0778 18.3051C65.155 6.61941 91.5154 2.3736 115.083 11.3884Z" fill="#FF6100" fill-opacity="0.15"/>
<g clip-path="url(#clip1)">
<path d="M152.41 188.91C152.41 188.91 152.25 161.71 161.16 168.07C161.16 168.07 161.63 153.75 167.15 158.03C167.08 157.98 170.59 150.81 173.16 153.54C174.83 155.32 173.96 158.78 172.57 160.48C172.57 160.48 178.95 162.5 168.88 171.79C168.88 171.79 179 173.82 161.27 189.15L152.41 188.91Z" fill="white"/>
<path d="M161.36 189.4L152.16 189.15V188.91C152.16 188.13 152.11 169.87 157.29 167.19C158.37 166.63 159.6 166.77 160.93 167.61C161.03 165.7 161.61 158.46 164.34 157.18C165.15 156.8 166.06 156.96 167.05 157.64C167.56 156.57 169.38 153.31 171.3 152.75C172.06 152.52 172.75 152.73 173.34 153.36C175.03 155.16 174.28 158.53 172.96 160.37C173.47 160.62 174.44 161.25 174.73 162.54C175.23 164.79 173.42 167.86 169.36 171.67C170.08 171.92 171.44 172.6 171.87 174.22C172.74 177.51 169.22 182.6 161.42 189.34L161.36 189.4ZM152.66 188.66L161.18 188.89C170.63 180.71 171.95 176.47 171.4 174.35C170.91 172.48 168.86 172.04 168.83 172.03L168.35 171.93L168.71 171.6C173.87 166.84 174.57 164.11 174.25 162.65C173.93 161.19 172.56 160.73 172.5 160.71L172.15 160.6L172.38 160.32C173.67 158.74 174.55 155.37 172.98 153.71C172.54 153.25 172.07 153.08 171.54 153.21C169.64 153.65 167.54 157.61 167.39 158.08L167.16 158.01L166.99 158.23L166.96 158.21C166.04 157.51 165.23 157.32 164.54 157.64C161.72 158.97 161.39 167.99 161.39 168.08L161.37 168.55L160.99 168.28C159.65 167.33 158.51 167.12 157.49 167.64C152.91 170.02 152.67 186.46 152.66 188.66Z" fill="#001133"/>
<path d="M155.98 188.84C155.98 188.84 160.37 170.13 169.22 160.45L155.98 188.84Z" fill="white"/>
<path d="M155.98 189.09C155.96 189.09 155.94 189.09 155.92 189.08C155.79 189.05 155.7 188.91 155.73 188.78C155.77 188.59 160.24 169.89 169.03 160.28C169.12 160.18 169.28 160.17 169.38 160.26C169.48 160.35 169.49 160.51 169.4 160.61C160.7 170.13 156.26 188.7 156.22 188.89C156.19 189.01 156.09 189.09 155.98 189.09Z" fill="#001133"/>
<path d="M24.98 23.3099L21.53 13.8199L19.73 14.5399L23.77 24.3299L24.98 23.3099Z" fill="white"/>
<path d="M23.66 24.74L19.41 14.4L21.68 13.49L25.27 23.38L23.66 24.74ZM20.06 14.68L23.86 23.92L24.68 23.23L21.38 14.15L20.06 14.68Z" fill="#001133"/>
<path d="M55.04 82.8599C55.04 82.8599 49.58 134.94 50.58 182.6H56.41C56.41 182.6 71.05 121.73 71.85 103.43L76.92 183.81H81.95C81.95 183.81 91.84 118.42 90.72 82.4399L55.04 82.8599Z" fill="white"/>
<path d="M82.17 184.06H76.69L76.68 183.83L71.83 107.03C69.66 128.42 56.79 182.1 56.65 182.67L56.6 182.86H50.33L50.32 182.61C49.33 135.48 54.72 83.3599 54.78 82.8299L54.8 82.6099H55.02L90.95 82.1899L90.96 82.4399C92.07 118.04 82.29 183.2 82.19 183.86L82.17 184.06ZM77.16 183.56H81.74C82.36 179.42 91.51 117.27 90.48 82.6899L55.26 83.0999C54.88 86.8499 49.88 136.88 50.82 182.35H56.21C57.12 178.56 70.83 120.97 71.6 103.42H72.1L77.16 183.56Z" fill="#001133"/>
<path d="M70.917 24.4232L71.1002 22.6495C71.0804 22.6518 64.2437 24.6171 65.2323 12.6083C65.2323 12.6083 66.2013 1.28659 76.3648 6.94377C76.5798 7.05935 77.1392 7.78878 77.293 7.98209C78.1487 9.08938 80.5713 12.8915 78.9131 19.0585L79.5024 26.8633C79.5024 26.8633 74.456 32.3932 70.8386 29.5578C70.3845 29.2087 70.8833 24.9911 70.917 24.4232Z" fill="white"/>
<path d="M73.7402 30.5948C72.7074 30.7167 71.6469 30.5197 70.6809 29.7577C70.3268 29.4874 70.3175 28.3003 70.6111 25.0736C70.6443 24.7575 70.6571 24.5244 70.6652 24.4228L70.664 24.4128L70.8165 22.975C70.1447 23.0846 68.6036 23.1659 67.2442 22.0576C65.3607 20.5179 64.5922 17.336 64.9805 12.6079C64.9956 12.3946 65.4544 7.49704 68.7608 5.73716C70.7589 4.66545 73.3576 5.01311 76.4728 6.74978C76.71 6.88288 77.2057 7.499 77.4787 7.84941C78.525 9.20607 80.7665 13.0095 79.1596 19.0999L79.7559 26.9642L79.6847 27.0431C79.5224 27.2033 76.7096 30.2441 73.7402 30.5948ZM71.1612 24.4448C71.1542 24.5563 71.1327 24.8005 71.0996 25.1166C70.8611 27.7024 70.8191 29.1372 70.9886 29.379C74.1508 31.8553 78.6018 27.4228 79.2301 26.7746L78.6542 18.9985C80.2337 13.1026 78.0793 9.43995 77.0798 8.13818C76.6507 7.57461 76.317 7.2213 76.2305 7.1711C73.2772 5.52607 70.841 5.18945 68.9924 6.16295C65.9225 7.7942 65.4718 12.5901 65.4677 12.641C65.101 17.1249 65.8215 20.2419 67.5397 21.6602C69.1012 22.946 71.0026 22.4194 71.0225 22.417L71.3829 22.3141L71.1612 24.4448Z" fill="#001133"/>
<path d="M71.158 22.5419C71.158 22.5419 72.8964 21.9138 73.6558 20.5855C73.6558 20.5855 74.1141 23.955 70.7726 25.5882L71.158 22.5419Z" fill="#001133"/>
<path d="M77.6332 13.9332L78.834 18.6449C80.6221 16.9032 81.3268 11.7853 81.3268 11.7853C82.1055 2.17766 70.48 3.923 70.2428 3.96108C70.2329 3.96225 70.2329 3.96225 70.2329 3.96225C67.7251 3.19101 65.9694 4.18374 65.0298 5.00963C64.4732 5.49827 64.2411 6.26076 64.416 6.97516C65.8563 12.9475 72.9853 9.96087 72.9853 9.96087C72.9105 11.2888 75.6218 12.761 75.6218 12.761C75.6218 12.761 77.7831 10.6832 77.6332 13.9332Z" fill="#001133"/>
<path d="M55.07 83.26C55.07 83.26 70.65 92.41 90.72 88.08L90.8 84.71C90.81 84.7 76.54 91.06 55.07 83.26Z" fill="#001133"/>
<path d="M23.46 29.55C23.46 29.55 18.27 24.79 20.48 22.71C20.48 22.71 20.42 17.86 22.12 19.75C22.12 19.75 23 24.35 24.83 23.03C24.83 23.03 25.52 20.95 26.09 23.66L27.56 27.67L23.46 29.55Z" fill="white"/>
<path d="M23.41 29.85L23.29 29.74C23.14 29.61 19.7 26.4201 19.68 24.0401C19.68 23.4801 19.86 23.0001 20.23 22.6201C20.23 21.9001 20.29 19.4701 21.18 19.1201C21.52 18.9801 21.9 19.1401 22.31 19.5901L22.36 19.64L22.37 19.71C22.52 20.5 23.11 22.64 23.97 22.98C24.17 23.06 24.39 23.0301 24.63 22.8701C24.73 22.5901 25.02 21.9701 25.45 22.0201C25.85 22.0401 26.12 22.5201 26.35 23.6101L27.89 27.8L23.41 29.85ZM21.41 19.57C21.39 19.57 21.37 19.57 21.35 19.58C20.94 19.74 20.7 21.33 20.72 22.72V22.83L20.64 22.9C20.32 23.2 20.17 23.5701 20.17 24.0301C20.18 25.9601 22.89 28.67 23.5 29.26L27.23 27.55L25.84 23.7601C25.6 22.6301 25.39 22.5301 25.38 22.5301C25.31 22.5601 25.14 22.8501 25.05 23.1201L25.02 23.2001L24.96 23.2501C24.46 23.62 24.03 23.56 23.76 23.46C22.56 22.98 21.98 20.43 21.87 19.89C21.69 19.67 21.53 19.57 21.41 19.57Z" fill="#001133"/>
<path d="M21.28 19.4401C21.28 19.4401 20.88 21.0101 22.09 23.7401L21.28 19.4401Z" fill="white"/>
<path d="M21.86 23.84C20.63 21.06 21.02 19.45 21.04 19.38L21.52 19.5C21.52 19.51 21.16 21.03 22.31 23.63L21.86 23.84Z" fill="#001133"/>
<path d="M20.47 22.7201C20.47 22.7201 20.73 23.9601 21.22 24.3001L20.47 22.7201Z" fill="white"/>
<path d="M21.08 24.5C20.53 24.11 20.26 22.9 20.23 22.77L20.72 22.67C20.81 23.11 21.07 23.89 21.37 24.1L21.08 24.5Z" fill="#001133"/>
<path d="M129.66 73.0899C129.23 73.0799 128.8 73.0699 128.36 73.0699C127.93 73.0699 127.5 73.0799 127.06 73.0899C91.98 73.9799 71.74 113.44 90.81 142.88L120.38 185.27C123.82 190.2 131.12 190.19 134.54 185.25L163.41 143.66C184.69 115.12 165.24 73.9899 129.66 73.0899ZM127.87 133.97C118.07 133.97 110.12 126.03 110.12 116.23C110.12 106.43 118.06 98.4899 127.87 98.4899C137.67 98.4899 145.61 106.43 145.61 116.23C145.61 126.03 137.66 133.97 127.87 133.97Z" fill="#FF6100"/>
<path d="M24.86 13.93C24.8 13.93 24.74 13.93 24.67 13.91C24.32 13.85 24.01 13.62 23.86 13.29L21.71 8.68002C21.03 7.08002 21.26 5.31002 22.32 3.93002C23.36 2.58002 24.99 1.92002 26.67 2.17002L26.93 2.22002C28.62 2.56002 29.92 3.76002 30.4 5.42002C30.88 7.09002 30.4 8.87002 29.14 10.06L25.64 13.6C25.44 13.81 25.15 13.93 24.86 13.93ZM25.97 2.61002C24.7 2.61002 23.51 3.19002 22.71 4.23002C21.76 5.47002 21.56 7.05002 22.17 8.48002L24.32 13.09C24.4 13.27 24.57 13.39 24.76 13.43C24.96 13.46 25.15 13.4 25.29 13.26L28.79 9.71002C29.92 8.64002 30.35 7.05002 29.92 5.56002C29.49 4.07002 28.34 3.00002 26.83 2.70002L26.59 2.66002C26.38 2.63002 26.18 2.61002 25.97 2.61002Z" fill="#001133"/>
<path d="M125.22 71.92C125.22 71.92 124.09 73.16 125.27 74.26C125.27 74.26 127.63 76.46 126.92 72.53L135.91 74.11C135.91 74.11 139.37 73.78 130.27 70.5L125.22 71.92Z" fill="white"/>
<path d="M126.45 75.12C125.85 75.12 125.18 74.52 125.1 74.44C124.03 73.44 124.59 72.24 125.04 71.75L125.09 71.7L125.16 71.68L130.28 70.24L130.36 70.27C136.96 72.65 136.85 73.45 136.81 73.79C136.75 74.27 136.08 74.36 135.94 74.37H135.91L127.24 72.84C127.42 74.08 127.29 74.78 126.83 75.04C126.7 75.1 126.58 75.12 126.45 75.12ZM125.36 72.14C125.17 72.38 124.57 73.26 125.44 74.08C125.75 74.37 126.32 74.73 126.57 74.6C126.67 74.55 126.97 74.24 126.67 72.58L126.61 72.23L135.92 73.87C136.11 73.85 136.29 73.77 136.31 73.72C136.31 73.65 136.18 72.91 130.26 70.77L125.36 72.14Z" fill="#001133"/>
<path d="M49.72 182.6L41.66 185.91C40.34 186.45 39.56 187.92 39.79 189.41L56.78 188.98L56.59 182.59H49.72V182.6Z" fill="white"/>
<path d="M39.58 189.67L39.55 189.45C39.3 187.85 40.15 186.26 41.57 185.68L49.72 182.35H56.84L57.05 189.23L56.8 189.24L39.58 189.67ZM49.77 182.85L41.76 186.14C40.61 186.61 39.9 187.86 40.01 189.16L56.53 188.74L56.35 182.84H49.77V182.85Z" fill="#001133"/>
<path d="M54.24 82.81C54.24 82.81 72.43 91.59 92.3 84.27L91.74 46.51L125.23 71.91L130.27 70.49C130.27 70.49 106.34 31.09 79.79 26.55C79.79 26.55 75.79 29.32 71.36 26.55C71.36 26.55 56.5 24.68 42.45 43.49L27.55 27.66L23.46 29.54C23.46 29.54 29.68 52.24 40.9 57.74C42.04 58.3 43.4 58.14 44.4 57.35L60.1 46.16L54.24 82.81Z" fill="white"/>
<path d="M75.7 87.41C63.4 87.41 54.26 83.09 54.13 83.03L53.96 82.95L59.75 46.73L44.54 57.57C43.48 58.41 42.01 58.57 40.79 57.98C34.93 55.11 30.46 47.54 27.74 41.7C24.81 35.39 23.23 29.68 23.21 29.62L23.15 29.41L27.6 27.37L42.42 43.12C49.66 33.53 57.1 29.47 62.08 27.75C67.54 25.87 71.22 26.3 71.38 26.32L71.48 26.36C75.71 29 79.59 26.39 79.63 26.36L79.71 26.3L79.81 26.32C106.17 30.82 130.22 69.98 130.46 70.37L130.63 70.65L125.15 72.19L125.05 72.11L91.99 47.02L92.55 84.44L92.38 84.5C86.56 86.65 80.85 87.41 75.7 87.41ZM54.52 82.66C56.4 83.51 73.58 90.82 92.05 84.1L91.48 46.01L125.28 71.65L129.88 70.36C127.66 66.82 104.76 31.18 79.84 26.84C79.22 27.23 75.4 29.37 71.28 26.82C70.3 26.73 56.04 25.76 42.66 43.66L42.48 43.9L27.49 27.98L23.75 29.7C24.06 30.77 25.59 35.9 28.19 41.5C30.87 47.27 35.27 54.73 41 57.54C42.05 58.05 43.31 57.91 44.23 57.18L60.43 45.64L54.52 82.66Z" fill="#001133"/>
<path d="M81.1785 12.0648C81.1371 12.1402 77.1421 10.2859 76.7155 10.0845C75.489 9.50435 74.2222 9.00948 72.9351 8.59759C71.6491 8.19562 70.2872 8.004 68.972 7.6961C65.8958 6.97184 62.7198 6.16875 59.8828 4.74159C59.1337 4.36685 57.3188 3.49365 57.3423 2.41345C57.3423 2.41345 57.3719 0.617584 66.3069 3.80176C68.1787 1.06337 71.8593 -0.0861789 75.365 0.949866C75.4735 0.675243 75.7217 0.474753 76.0296 0.4384C76.4864 0.384457 76.8973 0.708515 76.9512 1.16534C76.9676 1.30438 76.9531 1.437 76.8976 1.56438C81.0575 3.62075 82.9681 8.28891 81.1785 12.0648Z" fill="white"/>
<path d="M81.2476 12.3084C80.8603 12.3541 76.6543 10.3334 76.6122 10.3182C75.4079 9.75556 74.1511 9.25953 72.8639 8.84763C72.0582 8.59034 71.1923 8.42071 70.3574 8.25749C69.873 8.16364 69.3986 8.06862 68.9219 7.95374C65.7008 7.19623 62.5756 6.39721 59.7807 4.98522L59.6743 4.93736C58.7634 4.47097 57.0612 3.61467 57.0806 2.41412C57.0858 2.37322 57.0985 2.14012 57.3777 1.94604C58.3449 1.26795 61.3999 1.81345 66.2022 3.51201C68.1319 0.837273 71.7143 -0.290615 75.2305 0.663637C75.4022 0.41177 75.6837 0.237556 75.9915 0.201203C76.5874 0.130843 77.1215 0.561173 77.1907 1.1471C77.2025 1.24641 77.2042 1.3469 77.185 1.43979C81.3157 3.59023 83.2094 8.37115 81.4047 12.1891L81.3556 12.2855L81.2587 12.3171C81.2575 12.3072 81.2575 12.3072 81.2476 12.3084ZM58.2407 2.17643C57.9924 2.20575 57.837 2.2543 57.7424 2.30576C57.6092 2.37183 57.5964 2.43376 57.5865 2.43493C57.5769 3.29197 59.2148 4.11558 59.9119 4.47632L60.0183 4.52418C62.7699 5.91107 65.8542 6.70485 69.0443 7.45594C69.51 7.56206 69.9844 7.65709 70.4588 7.75211C71.3048 7.92409 72.1806 8.09255 73.0173 8.35625C74.3255 8.77573 75.6034 9.27935 76.8288 9.84959C77.3196 10.0837 80.2698 11.4471 81.0405 11.7488C82.5994 8.15117 80.7257 3.71025 76.7809 1.76946L76.567 1.66381L76.6528 1.45229C76.6831 1.36815 76.7024 1.27525 76.6918 1.18587C76.6543 0.868082 76.3656 0.640366 76.0478 0.677891C75.8293 0.70369 75.6635 0.834039 75.5864 1.03446L75.5007 1.24597L75.2816 1.18122C71.8489 0.166761 68.3138 1.26892 66.5033 3.92959L66.3918 4.0938L66.2124 4.02436C61.2728 2.27152 59.1444 2.06972 58.2407 2.17643Z" fill="#001133"/>
<path d="M142.29 189.21C142.29 189.21 127.08 152.83 144.21 157.34C144.21 157.34 136.7 135.41 147.51 138.71C147.38 138.67 148.57 125.81 154.03 128.47C157.58 130.2 158.25 135.94 157.12 139.31C157.12 139.31 167.94 138.71 158.02 158.54C158.02 158.54 174.49 155.81 156.46 189.16L142.29 189.21Z" fill="white"/>
<path d="M142.12 189.47L142.06 189.32C142.03 189.26 139.5 183.16 137.68 176.35C135.22 167.15 135.19 161.09 137.57 158.35C138.91 156.81 141.02 156.35 143.83 156.99C143.03 154.53 139.44 142.72 142.89 139.15C143.88 138.12 145.36 137.87 147.27 138.38C147.38 136.78 148.21 130.47 150.86 128.47C151.84 127.73 152.94 127.65 154.14 128.24C157.72 129.98 158.46 135.58 157.46 139.06C158.26 139.1 160.22 139.4 161.45 141.27C163.48 144.37 162.47 150.08 158.45 158.24C159.52 158.17 162.18 158.27 163.83 160.58C166.99 165.01 164.59 174.66 156.69 189.27L156.62 189.4H156.47L142.12 189.47ZM141.54 157.21C139.99 157.21 138.79 157.7 137.94 158.68C132.73 164.67 141.61 186.89 142.45 188.97L156.31 188.92C165.95 171.05 165.5 163.81 163.42 160.89C161.55 158.26 158.1 158.79 158.06 158.8L157.58 158.88L157.8 158.44C162.91 148.22 162.38 143.62 161.03 141.56C159.66 139.46 157.16 139.56 157.13 139.57L156.76 139.59L156.88 139.24C157.97 135.97 157.37 130.38 153.92 128.7C152.93 128.22 152.05 128.25 151.25 128.81C148.47 130.74 147.71 138.3 147.74 138.67L147.51 138.69L147.43 138.96L147.39 138.95C145.53 138.39 144.14 138.58 143.24 139.51C139.67 143.2 144.39 157.13 144.44 157.27L144.59 157.71L144.14 157.59C143.19 157.34 142.32 157.21 141.54 157.21Z" fill="#001133"/>
<path d="M149.63 188.9C149.63 188.9 145.82 161.63 152.63 138.16L149.63 188.9Z" fill="white"/>
<path d="M149.63 189.15C149.51 189.15 149.4 189.06 149.38 188.93C149.34 188.66 145.64 161.33 152.39 138.08C152.43 137.95 152.57 137.87 152.7 137.91C152.83 137.95 152.91 138.09 152.87 138.22C146.15 161.37 149.84 188.59 149.88 188.86C149.9 189 149.8 189.12 149.67 189.14C149.65 189.15 149.64 189.15 149.63 189.15Z" fill="#001133"/>
<path d="M149.78 189.05C149.78 189.05 152.06 168.12 142.91 173.85C142.91 173.85 143.6 162.58 137.9 166.4C137.97 166.35 135.14 160.97 132.43 163.34C130.67 164.88 131.24 167.54 132.45 168.77C132.45 168.77 126.1 170.88 135.13 177.41C135.13 177.41 124.88 178.61 140.85 189.29L149.78 189.05Z" fill="white"/>
<path d="M140.77 189.54L140.7 189.5C134.17 185.13 131.14 181.76 131.69 179.47C132.03 178.05 133.62 177.48 134.5 177.27C131.27 174.85 129.77 172.74 130.04 170.99C130.25 169.66 131.42 168.95 132.01 168.67C131.38 167.88 131.01 166.75 131.05 165.71C131.09 164.68 131.51 163.79 132.25 163.15C133.02 162.48 133.88 162.32 134.79 162.67C136.35 163.28 137.59 165.23 138 166.04C139.2 165.3 140.23 165.17 141.05 165.64C143.18 166.86 143.22 171.84 143.17 173.4C144.81 172.48 146.21 172.36 147.32 173.06C151.43 175.63 150.07 188.53 150.01 189.08L150 189.3L140.77 189.54ZM133.88 162.99C133.43 162.99 133 163.17 132.59 163.53C131.78 164.23 131.58 165.12 131.56 165.74C131.52 166.78 131.94 167.91 132.62 168.6L132.9 168.89L132.52 169.02C132.5 169.03 130.77 169.62 130.54 171.08C130.37 172.2 131.05 174.17 135.26 177.21L135.78 177.59L135.14 177.67C135.11 177.67 132.56 177.99 132.17 179.6C131.83 181.02 133.07 183.81 140.9 189.06L149.54 188.83C149.7 187.11 150.63 175.74 147.06 173.5C146.03 172.86 144.68 173.05 143.04 174.08L142.63 174.34L142.66 173.85C142.66 173.79 143.03 167.36 140.81 166.09C140.1 165.69 139.17 165.87 138.04 166.63L137.9 166.42L137.66 166.47C137.59 166.26 136.12 163.55 134.39 163.07C134.22 163.01 134.05 162.99 133.88 162.99Z" fill="#001133"/>
<path d="M145.87 188.97C145.87 188.97 143.53 175.64 135.55 169.13L145.87 188.97Z" fill="white"/>
<path d="M145.87 189.22C145.75 189.22 145.65 189.14 145.62 189.01C145.6 188.88 143.2 175.7 135.38 169.32C135.27 169.23 135.26 169.08 135.34 168.97C135.43 168.86 135.59 168.85 135.69 168.93C143.65 175.43 146.08 188.79 146.1 188.92C146.12 189.06 146.03 189.19 145.9 189.21C145.9 189.22 145.88 189.22 145.87 189.22Z" fill="#001133"/>
<path d="M171.57 188.93H14V189.43H171.57V188.93Z" fill="#001133"/>
<path d="M76.97 182.74L67.64 187.38C66.37 188.03 65.7 189.55 66.06 191.02L82.96 189.23L82.26 182.88L76.97 182.74Z" fill="white"/>
<path d="M65.86 191.3L65.81 191.09C65.43 189.51 66.15 187.86 67.52 187.17L76.91 182.5L82.47 182.65L83.23 189.47L82.98 189.5L65.86 191.3ZM77.02 182.99L67.74 187.61C66.64 188.17 66.03 189.47 66.24 190.76L82.67 189.02L82.02 183.14L77.02 182.99Z" fill="#001133"/>
</g>
</g>
<defs>
<clipPath id="clip0">
<rect width="192" height="192" fill="white"/>
</clipPath>
<clipPath id="clip1">
<rect width="164.83" height="191.3" fill="white" transform="translate(14)"/>
</clipPath>
</defs>
</svg>
