<svg width="337" height="338" viewBox="0 0 337 338" fill="none" xmlns="http://www.w3.org/2000/svg">
<g clip-path="url(#clip0)">
<path fill-rule="evenodd" clip-rule="evenodd" d="M237.34 32.5268C283.072 53.4227 305.289 97.692 318.499 139.003C330.275 175.829 331.022 215.682 303.767 240.257C279.209 262.4 233.16 244.687 195.872 249.574C133.991 257.684 71.084 319.48 21.1967 277.292C-27.7592 235.892 42.1961 182.601 57.9485 132.937C68.8699 98.5039 63.1892 56.8632 97.1397 37.8602C135.696 16.2793 190.239 11.0057 237.34 32.5268Z" fill="#FF6100" fill-opacity="0.15"/>
<path d="M103.391 230.439H32.8115L49.12 171.21L90.0275 172.543L115.154 188.391L115.681 227.043L103.391 230.439Z" fill="white"/>
<path d="M103.464 230.895H32.2119L32.3755 230.311L48.7749 170.735L49.1385 170.753L90.1552 172.104L115.591 188.135L116.136 227.39L103.464 230.895ZM33.4119 229.982H103.336L115.227 226.696L114.7 188.646L89.8825 172.999L49.4658 171.666L33.4119 229.982Z" fill="#001133"/>
<path d="M302.256 276.449V197.574C302.256 188.318 294.784 180.814 285.566 180.814L82.3918 180.686L214.278 180.759V51.8575H9.23096V210.629C9.23096 211.177 9.48549 211.816 9.61276 212.345C9.75821 212.893 9.90366 213.459 10.0855 213.988C10.4127 215.011 10.7945 216.015 11.2491 216.983C12.0672 218.717 13.0854 220.36 14.3035 221.839C15.3762 223.154 16.6125 224.322 17.9579 225.363C19.1579 226.276 20.4487 227.079 21.7941 227.755C22.9577 228.339 24.1758 228.832 25.4122 229.252C26.3939 229.581 27.3939 229.836 28.3939 230.055C31.1756 230.621 33.9028 230.767 36.6299 229.909C37.4117 229.672 38.1753 229.362 38.9207 229.015C39.7934 228.595 40.648 228.12 41.4661 227.591C42.4297 226.97 43.3569 226.276 44.2296 225.527C45.266 224.651 46.2477 223.702 47.1568 222.697C48.2477 221.529 49.2658 220.287 50.2112 219.009C51.3385 217.512 52.3748 215.942 53.3384 214.335C54.4656 212.455 55.5201 210.519 56.4837 208.566C57.6109 206.283 58.6473 203.946 59.6109 201.591C60.629 199.108 61.5563 196.589 62.4108 194.051C65.2834 185.597 75.9739 179.225 84.6281 180.941C91.0097 182.201 97.5367 186.127 100.591 192.061C102.955 196.625 102.955 201.628 102.955 206.63C103.027 234.291 104.136 261.897 104.864 289.54C105.1 298.139 104.318 307.433 108.427 315.302C111.754 321.674 118.1 326.695 125.445 326.531C150.571 325.946 157.571 299.564 153.607 276.394H334.419C334.419 276.394 346.509 306.684 313.274 322.295L134.572 325.088C134.572 325.088 159.643 318.935 153.589 276.394" fill="white"/>
<path d="M125.117 326.969C118.263 326.969 111.754 322.605 108.064 315.503C104.609 308.875 104.555 301.316 104.518 293.995C104.518 292.498 104.5 291.001 104.464 289.54C104.264 282.255 104.045 274.97 103.827 267.685C103.227 247.674 102.591 226.988 102.555 206.612C102.555 201.701 102.536 196.698 100.246 192.243C97.4821 186.894 91.4823 182.731 84.5917 181.361C84.0462 181.252 83.4826 181.179 82.919 181.142L82.4281 181.106C74.5193 180.795 65.4651 186.638 62.9016 194.178C62.0107 196.808 61.0653 199.345 60.0835 201.756C59.0836 204.22 58.029 206.576 56.9382 208.767C55.92 210.83 54.8474 212.783 53.7565 214.573C52.7383 216.252 51.6838 217.841 50.6111 219.283C49.6112 220.634 48.5567 221.894 47.5204 223.008C46.5386 224.067 45.5386 225.016 44.5387 225.874C43.6114 226.659 42.666 227.371 41.7206 227.974C40.8479 228.54 39.9752 229.015 39.1207 229.435C38.3389 229.8 37.5571 230.11 36.7753 230.348C34.2663 231.133 31.5755 231.187 28.3029 230.512C27.2848 230.311 26.2666 230.037 25.2667 229.708C23.994 229.289 22.7577 228.777 21.5941 228.193C20.1941 227.499 18.8851 226.659 17.6851 225.747C16.3034 224.688 15.0489 223.483 13.958 222.15C12.7217 220.653 11.6853 218.991 10.849 217.202C10.3945 216.234 9.9945 215.212 9.64906 214.153C9.46725 213.605 9.30362 213.039 9.15817 212.473C9.12181 212.327 9.08545 212.181 9.0309 212.035C8.92182 211.597 8.77637 211.104 8.77637 210.629V51.401H214.732V180.321L285.566 180.357C295.02 180.357 302.711 188.08 302.711 197.574V275.901H334.764L334.873 276.193C335 276.504 346.727 307.068 313.492 322.678L313.31 322.715L134.372 325.508C131.644 326.403 128.681 326.877 125.481 326.951C125.372 326.969 125.245 326.969 125.117 326.969ZM87.3916 181.142C93.4095 183.005 98.5002 186.93 101.009 191.823C103.409 196.479 103.427 201.591 103.427 206.539C103.482 226.97 104.1 247.656 104.7 267.649C104.918 274.934 105.136 282.218 105.336 289.503C105.373 290.982 105.391 292.479 105.391 293.977C105.445 301.188 105.482 308.638 108.845 315.065C112.336 321.765 118.699 326.038 125.117 326.038C125.227 326.038 125.336 326.038 125.445 326.038C127.736 325.983 129.917 325.709 131.954 325.234L132.499 325.106C137.808 323.737 142.262 320.889 145.789 316.58C148.971 312.709 151.298 307.707 152.68 301.992C154.189 295.547 154.698 287.185 153.153 276.412L153.062 275.901H301.765V197.574C301.765 188.573 294.475 181.27 285.53 181.27L87.3916 181.142ZM153.644 301.974C152.062 308.893 149.371 313.695 146.753 316.945C143.317 321.217 139.626 323.463 137.244 324.559L313.219 321.82C343.855 307.378 335.255 279.936 334.146 276.832H154.189C155.662 285.834 155.425 294.488 153.644 301.974ZM9.68542 52.3139V210.629C9.68542 210.958 9.81269 211.377 9.92178 211.761C9.97632 211.925 10.0127 212.09 10.049 212.236C10.1945 212.783 10.3399 213.313 10.5218 213.861C10.849 214.883 11.2308 215.869 11.6672 216.8C12.4671 218.516 13.4671 220.123 14.6489 221.565C15.7034 222.843 16.9033 223.994 18.2124 225.016C19.376 225.893 20.6305 226.696 21.9759 227.371C23.1031 227.937 24.3031 228.43 25.5212 228.832C26.4848 229.142 27.4666 229.416 28.4484 229.617C31.5755 230.256 34.1209 230.22 36.4662 229.489C37.1935 229.252 37.9571 228.96 38.7025 228.613C39.5207 228.23 40.3752 227.755 41.1933 227.225C42.1024 226.641 43.0114 225.947 43.9205 225.199C44.8841 224.377 45.8659 223.428 46.8113 222.405C47.8294 221.31 48.8476 220.068 49.8294 218.754C50.8839 217.33 51.9202 215.778 52.9383 214.116C54.011 212.345 55.0655 210.41 56.0837 208.383C57.1564 206.21 58.2109 203.873 59.1926 201.427C60.1562 199.053 61.1017 196.515 61.9925 193.905C64.7924 185.689 74.4466 179.59 82.9554 180.248L213.805 180.321V52.3139H9.68542Z" fill="#001133"/>
<path d="M255.149 180.485L246.749 180.229L182.515 238.253L183.351 240.28" fill="#001133"/>
<path d="M192.133 119.668H33.6479V120.581H192.133V119.668Z" fill="#001133"/>
<path d="M283.838 206.722H125.354V207.635H283.838V206.722Z" fill="#001133"/>
<path d="M283.838 238.18H125.354V239.093H283.838V238.18Z" fill="#001133"/>
<path d="M192.133 151.126H33.6479V152.039H192.133V151.126Z" fill="#001133"/>
<path d="M93.082 230.549L93.1184 184.319C93.1184 184.319 100.664 187.222 102.718 199.254L103.354 230.439" fill="#001133"/>
<path d="M165.098 215.978L264.603 125.967C264.603 125.967 280.893 137.268 282.057 150.122L183.352 240.262L178.479 229.197L170.716 226.075L165.098 215.978Z" fill="#FF6100"/>
<path d="M191.733 86.9494H134.408V77.3092H191.733V86.9494ZM135.317 86.0365H190.824V78.2221H135.317V86.0365Z" fill="#001133"/>
<path d="M165.061 216.435L151.317 241.832L144.335 254.74L157.498 249.774L174.225 243.384L183.352 240.28L178.479 229.216L170.716 226.094L165.098 215.979" fill="white"/>
<path d="M143.353 255.598L164.661 216.216L164.716 216.234L164.698 216.198L165.498 215.759L171.043 225.728L178.824 228.85L183.97 240.554L174.37 243.822L157.662 250.212L143.353 255.598ZM165.207 217.129L145.317 253.882L157.334 249.354L174.043 242.964L182.715 240.006L178.115 229.562L170.388 226.459L165.207 217.129Z" fill="#001133"/>
<path d="M157.716 249.701L144.553 254.667L151.534 241.777C154.734 243.183 157.098 246.141 157.716 249.701Z" fill="#001133"/>
</g>
<defs>
<clipPath id="clip0">
<rect width="337" height="337" fill="white" transform="translate(0 0.5)"/>
</clipPath>
</defs>
</svg>
