<svg width="24" height="24" viewBox="0 0 24 24" fill="none" xmlns="http://www.w3.org/2000/svg">
<path fill-rule="evenodd" clip-rule="evenodd" d="M12 1.5C6.20101 1.5 1.5 6.20101 1.5 12C1.5 17.799 6.20101 22.5 12 22.5C17.799 22.5 22.5 17.799 22.5 12C22.5 9.21523 21.3938 6.54451 19.4246 4.57538C17.4555 2.60625 14.7848 1.5 12 1.5ZM21 11.25H16.5C16.4125 8.48781 15.6968 5.78186 14.4075 3.3375C18.0461 4.33279 20.6779 7.49155 21 11.25ZM12 21C11.8327 21.0112 11.6648 21.0112 11.4975 21C9.94371 18.5221 9.08138 15.6736 9 12.75H15C14.9254 15.6715 14.0709 18.5199 12.525 21C12.3502 21.0123 12.1748 21.0123 12 21ZM9 11.25C9.07461 8.32851 9.92913 5.48012 11.475 3C11.8089 2.96247 12.1461 2.96247 12.48 3C14.0417 5.4756 14.9119 8.3243 15 11.25H9ZM9.57 3.3375C8.28847 5.78373 7.58059 8.48959 7.5 11.25H3C3.32214 7.49155 5.95394 4.33279 9.5925 3.3375H9.57ZM3.0375 12.75H7.5375C7.61577 15.5098 8.32108 18.2156 9.6 20.6625C5.97324 19.6566 3.35537 16.5002 3.0375 12.75ZM14.4075 20.6625C15.6968 18.2181 16.4125 15.5122 16.5 12.75H21C20.6779 16.5084 18.0461 19.6672 14.4075 20.6625Z" fill="#001133" fill-opacity="0.6"/>
</svg>
