<svg width="28" height="20" viewBox="0 0 28 20" fill="none" xmlns="http://www.w3.org/2000/svg">
<path d="M0.000976562 0.000488281H28.0009V20H0.000976562V0.000488281Z" fill="#000066"/>
<path d="M0.000915527 0.000124997V1.03389L13.9899 9.24641H15.7508V8.21264L1.76185 0.000124997H0.00100303H0.000915527ZM15.751 0.000124997V1.03389L1.76167 9.24641H0.000915527V8.21252L13.9899 0H15.7508L15.751 0.000124997Z" fill="white"/>
<path d="M6.5637 0.00109863V9.24755H9.18869V0.00109863H6.5637ZM0.00109863 3.08324V6.16537H15.7512V3.08324H0.00109863Z" fill="white"/>
<path d="M0.000131249 3.69923V5.54852H15.7502V3.69923H0.000131249ZM7.08773 0.000732422V9.24718H8.66272V0.000732422H7.08773ZM0.000131249 9.24718L5.25028 6.16501H6.42422L1.17407 9.24702H0L0.000131249 9.24718ZM0.000131249 0.000732422L5.25028 3.08287H4.07634L0.000262499 0.689883V0.000732422H0.000131249ZM9.32636 3.08287L14.5762 0.000732422H15.7501L10.5 3.08287H9.32602H9.32636ZM15.7502 9.24727L10.5001 6.16513H11.674L15.7501 8.55803V9.24718L15.7502 9.24727Z" fill="#CC0000"/>
<path fill-rule="evenodd" clip-rule="evenodd" d="M20.6326 8.87475L20.8601 8.18027L20.247 7.73665L21.0194 7.72732L21.2768 7.04242L21.5265 7.73103L22.299 7.75119L21.6809 8.1861L21.9009 8.88375L21.2691 8.46385L20.6326 8.87475ZM22.4526 9.01117L22.9079 8.4306L22.4844 7.81403L23.2153 8.05548L23.6955 7.49366L23.6917 8.22331L24.4125 8.49259L23.6792 8.70201L23.6442 9.43053L23.1948 8.83025L22.4526 9.01117ZM18.89 9.4542L18.8597 8.72634L18.1271 8.51034L18.8502 8.24802L18.8514 7.51941L19.3285 8.0851L20.0621 7.85053L19.6337 8.46239L20.086 9.04637L19.3441 8.85879L18.89 9.4542ZM17.6077 10.5615L17.2869 9.90231L16.525 9.97831L17.0858 9.46511L16.7937 8.79338L17.4609 9.13545L18.0425 8.64388L17.894 9.36849L18.5456 9.73677L17.7866 9.84244L17.6077 10.5615ZM17.0222 12.1583L16.4399 11.6955L15.7852 12.0797L16.0641 11.3838L15.5021 10.8979L16.2567 10.9307L16.564 10.2457L16.7513 10.9619L17.5035 11.0247L16.8647 11.4345L17.0222 12.1583ZM17.0079 13.9519L16.2831 13.7512L15.8407 14.3552L15.81 13.6096L15.0942 13.3798L15.8 13.1199L15.7998 12.3733L16.2667 12.9583L16.9826 12.7269L16.5653 13.3484L17.0079 13.9519ZM17.857 15.4672L17.1101 15.567L16.9586 16.2923L16.6182 15.6225L15.8674 15.6921L16.4039 15.1784L16.0911 14.4959L16.7631 14.8484L17.3209 14.3569L17.1996 15.0884L17.857 15.4672ZM19.17 16.6698L18.5047 17.0125L18.6217 17.7438L18.0628 17.2286L17.3831 17.5443L17.7031 16.8834L17.1655 16.3472L17.9221 16.4538L18.2699 15.8066L18.4176 16.5335L19.17 16.6698ZM20.7727 16.907L20.4096 17.5454L20.9215 18.0958L20.162 17.9597L19.7715 18.5831L19.6653 17.8607L18.9117 17.6956L19.6056 17.3853L19.5305 16.6596L20.0656 17.1903L20.7727 16.907ZM22.5738 16.6436L22.5512 17.3717L23.2663 17.6368L22.5259 17.8495L22.4718 18.5762L22.037 17.9795L21.2881 18.1638L21.7599 17.5825L21.3512 16.9693L22.0776 17.2067L22.5738 16.6436ZM24.4575 8.73959L24.9801 9.26474L25.6766 8.95683L25.3156 9.61661L25.8152 10.1625L25.0697 10.045L24.6819 10.6907L24.5821 9.95831L23.8428 9.81123L24.5267 9.47611L24.4575 8.73959ZM26.0248 10.3554L26.262 11.0469L27.0279 11.0591L26.4078 11.5041L26.6149 12.2047L25.9947 11.7883L25.3566 12.2094L25.5934 11.507L24.9919 11.0664L25.7586 11.0488L26.0248 10.3554ZM26.6122 12.4323L26.5244 13.1558L27.213 13.4798L26.4564 13.6297L26.3374 14.3492L25.9576 13.7184L25.1951 13.8394L25.7172 13.2997L25.3649 12.6546L26.0673 12.9519L26.6122 12.4323ZM26.1956 14.61L25.8558 15.2602L26.3872 15.7931L25.6233 15.6826L25.2555 16.3188L25.1234 15.6004L24.3642 15.4608L25.0465 15.1273L24.9453 14.4046L25.4991 14.9169L26.1956 14.61ZM25.0689 16.5464L24.4269 16.9285L24.5908 17.6513L23.9999 17.1707L23.3417 17.5266L23.6186 16.8478L23.0475 16.3448L23.8095 16.4058L24.1151 15.7389L24.3092 16.4556L25.0689 16.5464Z" fill="white"/>
</svg>
