<svg width="28" height="20" viewBox="0 0 28 20" fill="none" xmlns="http://www.w3.org/2000/svg">
<rect width="28" height="20" fill="white"/>
<path d="M0 9.22222H28V20H14H0V9.22222ZM4.66667 9.22222C4.66667 10.8725 5.32222 12.4551 6.48911 13.622C7.65601 14.7889 9.23865 15.4444 10.8889 15.4444C12.5391 15.4444 14.1218 14.7889 15.2887 13.622C16.4556 12.4551 17.1111 10.8725 17.1111 9.22222C17.1111 7.57199 16.4556 5.98934 15.2887 4.82245C14.1218 3.65555 12.5391 3 10.8889 3C9.23865 3 7.65601 3.65555 6.48911 4.82245C5.32222 5.98934 4.66667 7.57199 4.66667 9.22222Z" fill="#D00C33"/>
</svg>
