<svg width="28" height="20" viewBox="0 0 28 20" fill="none" xmlns="http://www.w3.org/2000/svg">
<rect width="28" height="20" fill="white"/>
<rect width="28" height="20" fill="#FF2936"/>
<path fill-rule="evenodd" clip-rule="evenodd" d="M0 20H10.6667V0H0V20Z" fill="#128415"/>
<path d="M10.6667 13.3333C12.5076 13.3333 14 11.841 14 10C14 8.15905 12.5076 6.66667 10.6667 6.66667C8.82572 6.66667 7.33333 8.15905 7.33333 10C7.33333 11.841 8.82572 13.3333 10.6667 13.3333Z" stroke="#FAF94F" stroke-width="1.33333"/>
<path fill-rule="evenodd" clip-rule="evenodd" d="M9.33333 8.33333C9.33333 8.14924 9.48257 8 9.66667 8H11.6667C11.8508 8 12 8.14924 12 8.33333V10.6667C12 11.403 11.403 12 10.6667 12C9.93029 12 9.33333 11.403 9.33333 10.6667V8.33333Z" fill="white"/>
<path fill-rule="evenodd" clip-rule="evenodd" d="M10.6667 10.6667C11.0349 10.6667 11.3333 9.70152 11.3333 9.33333C11.3333 8.96514 11.0349 8.66666 10.6667 8.66666C10.2985 8.66666 10 8.96514 10 9.33333C10 9.70152 10.2985 10.6667 10.6667 10.6667Z" fill="#1D50B5"/>
</svg>
