<svg width="28" height="20" viewBox="0 0 28 20" fill="none" xmlns="http://www.w3.org/2000/svg">
<rect width="28" height="20" fill="white"/>
<path fill-rule="evenodd" clip-rule="evenodd" d="M0 10.6667H28V0H0V10.6667Z" fill="#E12237"/>
<path fill-rule="evenodd" clip-rule="evenodd" d="M6.66666 9.33333C7.61177 9.33333 8.48032 9.00555 9.16484 8.45747C8.80223 8.59273 8.40974 8.66666 7.99999 8.66666C6.15904 8.66666 4.66666 7.17428 4.66666 5.33333C4.66666 3.49238 6.15904 1.99999 7.99999 1.99999C8.40974 1.99999 8.80223 2.07393 9.16484 2.20918C8.48032 1.66111 7.61177 1.33333 6.66666 1.33333C4.45752 1.33333 2.66666 3.12419 2.66666 5.33333C2.66666 7.54247 4.45752 9.33333 6.66666 9.33333ZM7.99999 4.66666C7.99999 5.03485 7.70151 5.33333 7.33332 5.33333C6.96513 5.33333 6.66666 5.03485 6.66666 4.66666C6.66666 4.29847 6.96513 3.99999 7.33332 3.99999C7.70151 3.99999 7.99999 4.29847 7.99999 4.66666ZM8.66666 8C9.03485 8 9.33332 7.70152 9.33332 7.33333C9.33332 6.96514 9.03485 6.66666 8.66666 6.66666C8.29847 6.66666 7.99999 6.96514 7.99999 7.33333C7.99999 7.70152 8.29847 8 8.66666 8ZM12 7.33333C12 7.70152 11.7015 8 11.3333 8C10.9651 8 10.6667 7.70152 10.6667 7.33333C10.6667 6.96514 10.9651 6.66666 11.3333 6.66666C11.7015 6.66666 12 6.96514 12 7.33333ZM12.6667 5.33333C13.0348 5.33333 13.3333 5.03485 13.3333 4.66666C13.3333 4.29847 13.0348 3.99999 12.6667 3.99999C12.2985 3.99999 12 4.29847 12 4.66666C12 5.03485 12.2985 5.33333 12.6667 5.33333ZM10.6667 2.66666C10.6667 3.03485 10.3682 3.33333 9.99999 3.33333C9.6318 3.33333 9.33332 3.03485 9.33332 2.66666C9.33332 2.29847 9.6318 1.99999 9.99999 1.99999C10.3682 1.99999 10.6667 2.29847 10.6667 2.66666Z" fill="white"/>
</svg>
